%TF.GenerationSoftware,KiCad,Pcbnew,7.0.8*%
%TF.CreationDate,2023-10-26T16:31:04-05:00*%
%TF.ProjectId,iowa-rover-kiosk-power-cycler,696f7761-2d72-46f7-9665-722d6b696f73,rev?*%
%TF.SameCoordinates,Original*%
%TF.FileFunction,Copper,L1,Top*%
%TF.FilePolarity,Positive*%
%FSLAX46Y46*%
G04 Gerber Fmt 4.6, Leading zero omitted, Abs format (unit mm)*
G04 Created by KiCad (PCBNEW 7.0.8) date 2023-10-26 16:31:04*
%MOMM*%
%LPD*%
G01*
G04 APERTURE LIST*
G04 Aperture macros list*
%AMRoundRect*
0 Rectangle with rounded corners*
0 $1 Rounding radius*
0 $2 $3 $4 $5 $6 $7 $8 $9 X,Y pos of 4 corners*
0 Add a 4 corners polygon primitive as box body*
4,1,4,$2,$3,$4,$5,$6,$7,$8,$9,$2,$3,0*
0 Add four circle primitives for the rounded corners*
1,1,$1+$1,$2,$3*
1,1,$1+$1,$4,$5*
1,1,$1+$1,$6,$7*
1,1,$1+$1,$8,$9*
0 Add four rect primitives between the rounded corners*
20,1,$1+$1,$2,$3,$4,$5,0*
20,1,$1+$1,$4,$5,$6,$7,0*
20,1,$1+$1,$6,$7,$8,$9,0*
20,1,$1+$1,$8,$9,$2,$3,0*%
G04 Aperture macros list end*
%TA.AperFunction,ComponentPad*%
%ADD10C,1.600000*%
%TD*%
%TA.AperFunction,ComponentPad*%
%ADD11O,1.600000X1.600000*%
%TD*%
%TA.AperFunction,ComponentPad*%
%ADD12R,1.600000X1.600000*%
%TD*%
%TA.AperFunction,ComponentPad*%
%ADD13O,1.905000X2.000000*%
%TD*%
%TA.AperFunction,ComponentPad*%
%ADD14R,1.905000X2.000000*%
%TD*%
%TA.AperFunction,ComponentPad*%
%ADD15RoundRect,0.250000X0.845000X-0.620000X0.845000X0.620000X-0.845000X0.620000X-0.845000X-0.620000X0*%
%TD*%
%TA.AperFunction,ComponentPad*%
%ADD16O,2.190000X1.740000*%
%TD*%
%TA.AperFunction,ComponentPad*%
%ADD17RoundRect,0.250000X-0.845000X0.620000X-0.845000X-0.620000X0.845000X-0.620000X0.845000X0.620000X0*%
%TD*%
%TA.AperFunction,Conductor*%
%ADD18C,0.250000*%
%TD*%
%TA.AperFunction,Conductor*%
%ADD19C,0.500000*%
%TD*%
G04 APERTURE END LIST*
D10*
%TO.P,R1,1*%
%TO.N,Net-(U1-XTAL2{slash}PB4)*%
X119380000Y-63500000D03*
D11*
%TO.P,R1,2*%
%TO.N,Net-(Q1-G)*%
X111760000Y-63500000D03*
%TD*%
D12*
%TO.P,U1,1,~{RESET}/PB5*%
%TO.N,unconnected-(U1-~{RESET}{slash}PB5-Pad1)*%
X111760000Y-52080000D03*
D11*
%TO.P,U1,2,XTAL1/PB3*%
%TO.N,unconnected-(U1-XTAL1{slash}PB3-Pad2)*%
X111760000Y-54620000D03*
%TO.P,U1,3,XTAL2/PB4*%
%TO.N,Net-(U1-XTAL2{slash}PB4)*%
X111760000Y-57160000D03*
%TO.P,U1,4,GND*%
%TO.N,GND*%
X111760000Y-59700000D03*
%TO.P,U1,5,AREF/PB0*%
%TO.N,Net-(J1-Pin_3)*%
X119380000Y-59700000D03*
%TO.P,U1,6,PB1*%
%TO.N,unconnected-(U1-PB1-Pad6)*%
X119380000Y-57160000D03*
%TO.P,U1,7,PB2*%
%TO.N,Net-(J1-Pin_4)*%
X119380000Y-54620000D03*
%TO.P,U1,8,VCC*%
%TO.N,+5V*%
X119380000Y-52080000D03*
%TD*%
D13*
%TO.P,Q1,3,S*%
%TO.N,GND*%
X118110000Y-69525000D03*
%TO.P,Q1,2,D*%
%TO.N,Net-(J2-Pin_2)*%
X115570000Y-69525000D03*
D14*
%TO.P,Q1,1,G*%
%TO.N,Net-(Q1-G)*%
X113030000Y-69525000D03*
%TD*%
D15*
%TO.P,J2,1,Pin_1*%
%TO.N,+5V*%
X124480000Y-63500000D03*
D16*
%TO.P,J2,2,Pin_2*%
%TO.N,Net-(J2-Pin_2)*%
X124480000Y-60960000D03*
%TO.P,J2,3,Pin_3*%
%TO.N,Net-(J1-Pin_3)*%
X124480000Y-58420000D03*
%TO.P,J2,4,Pin_4*%
%TO.N,Net-(J1-Pin_4)*%
X124480000Y-55880000D03*
%TD*%
D17*
%TO.P,J1,1,Pin_1*%
%TO.N,+5V*%
X106680000Y-55880000D03*
D16*
%TO.P,J1,2,Pin_2*%
%TO.N,GND*%
X106680000Y-58420000D03*
%TO.P,J1,3,Pin_3*%
%TO.N,Net-(J1-Pin_3)*%
X106680000Y-60960000D03*
%TO.P,J1,4,Pin_4*%
%TO.N,Net-(J1-Pin_4)*%
X106680000Y-63500000D03*
%TD*%
D18*
%TO.N,Net-(U1-XTAL2{slash}PB4)*%
X118100000Y-63500000D02*
X111760000Y-57160000D01*
X119380000Y-63500000D02*
X118100000Y-63500000D01*
%TO.N,Net-(Q1-G)*%
X111760000Y-68255000D02*
X113030000Y-69525000D01*
X111760000Y-63500000D02*
X111760000Y-68255000D01*
D19*
%TO.N,Net-(J2-Pin_2)*%
X124135000Y-60960000D02*
X124480000Y-60960000D01*
X115570000Y-69525000D02*
X124135000Y-60960000D01*
D18*
%TO.N,Net-(J1-Pin_3)*%
X123200000Y-59700000D02*
X124480000Y-58420000D01*
X119380000Y-59700000D02*
X123200000Y-59700000D01*
%TO.N,Net-(J1-Pin_4)*%
X123220000Y-54620000D02*
X124480000Y-55880000D01*
X119380000Y-54620000D02*
X123220000Y-54620000D01*
X118120000Y-55880000D02*
X119380000Y-54620000D01*
X110635000Y-56701122D02*
X111456122Y-55880000D01*
X110635000Y-59545000D02*
X110635000Y-56701122D01*
X106680000Y-63500000D02*
X110635000Y-59545000D01*
X111456122Y-55880000D02*
X118120000Y-55880000D01*
D19*
%TO.N,+5V*%
X126023724Y-61956276D02*
X124480000Y-63500000D01*
X126023724Y-54903724D02*
X126023724Y-61956276D01*
X123200000Y-52080000D02*
X126023724Y-54903724D01*
X119380000Y-52080000D02*
X123200000Y-52080000D01*
X110773604Y-50830000D02*
X118130000Y-50830000D01*
X106680000Y-54923604D02*
X110773604Y-50830000D01*
X106680000Y-55880000D02*
X106680000Y-54923604D01*
X118130000Y-50830000D02*
X119380000Y-52080000D01*
%TD*%
M02*
