%TF.GenerationSoftware,KiCad,Pcbnew,7.0.8*%
%TF.CreationDate,2023-10-26T16:31:04-05:00*%
%TF.ProjectId,iowa-rover-kiosk-power-cycler,696f7761-2d72-46f7-9665-722d6b696f73,rev?*%
%TF.SameCoordinates,Original*%
%TF.FileFunction,Copper,L2,Bot*%
%TF.FilePolarity,Positive*%
%FSLAX46Y46*%
G04 Gerber Fmt 4.6, Leading zero omitted, Abs format (unit mm)*
G04 Created by KiCad (PCBNEW 7.0.8) date 2023-10-26 16:31:04*
%MOMM*%
%LPD*%
G01*
G04 APERTURE LIST*
G04 Aperture macros list*
%AMRoundRect*
0 Rectangle with rounded corners*
0 $1 Rounding radius*
0 $2 $3 $4 $5 $6 $7 $8 $9 X,Y pos of 4 corners*
0 Add a 4 corners polygon primitive as box body*
4,1,4,$2,$3,$4,$5,$6,$7,$8,$9,$2,$3,0*
0 Add four circle primitives for the rounded corners*
1,1,$1+$1,$2,$3*
1,1,$1+$1,$4,$5*
1,1,$1+$1,$6,$7*
1,1,$1+$1,$8,$9*
0 Add four rect primitives between the rounded corners*
20,1,$1+$1,$2,$3,$4,$5,0*
20,1,$1+$1,$4,$5,$6,$7,0*
20,1,$1+$1,$6,$7,$8,$9,0*
20,1,$1+$1,$8,$9,$2,$3,0*%
G04 Aperture macros list end*
%TA.AperFunction,ComponentPad*%
%ADD10C,1.600000*%
%TD*%
%TA.AperFunction,ComponentPad*%
%ADD11O,1.600000X1.600000*%
%TD*%
%TA.AperFunction,ComponentPad*%
%ADD12R,1.600000X1.600000*%
%TD*%
%TA.AperFunction,ComponentPad*%
%ADD13O,1.905000X2.000000*%
%TD*%
%TA.AperFunction,ComponentPad*%
%ADD14R,1.905000X2.000000*%
%TD*%
%TA.AperFunction,ComponentPad*%
%ADD15RoundRect,0.250000X0.845000X-0.620000X0.845000X0.620000X-0.845000X0.620000X-0.845000X-0.620000X0*%
%TD*%
%TA.AperFunction,ComponentPad*%
%ADD16O,2.190000X1.740000*%
%TD*%
%TA.AperFunction,ComponentPad*%
%ADD17RoundRect,0.250000X-0.845000X0.620000X-0.845000X-0.620000X0.845000X-0.620000X0.845000X0.620000X0*%
%TD*%
%TA.AperFunction,Conductor*%
%ADD18C,0.250000*%
%TD*%
G04 APERTURE END LIST*
D10*
%TO.P,R1,1*%
%TO.N,Net-(U1-XTAL2{slash}PB4)*%
X119380000Y-63500000D03*
D11*
%TO.P,R1,2*%
%TO.N,Net-(Q1-G)*%
X111760000Y-63500000D03*
%TD*%
D12*
%TO.P,U1,1,~{RESET}/PB5*%
%TO.N,unconnected-(U1-~{RESET}{slash}PB5-Pad1)*%
X111760000Y-52080000D03*
D11*
%TO.P,U1,2,XTAL1/PB3*%
%TO.N,unconnected-(U1-XTAL1{slash}PB3-Pad2)*%
X111760000Y-54620000D03*
%TO.P,U1,3,XTAL2/PB4*%
%TO.N,Net-(U1-XTAL2{slash}PB4)*%
X111760000Y-57160000D03*
%TO.P,U1,4,GND*%
%TO.N,GND*%
X111760000Y-59700000D03*
%TO.P,U1,5,AREF/PB0*%
%TO.N,Net-(J1-Pin_3)*%
X119380000Y-59700000D03*
%TO.P,U1,6,PB1*%
%TO.N,unconnected-(U1-PB1-Pad6)*%
X119380000Y-57160000D03*
%TO.P,U1,7,PB2*%
%TO.N,Net-(J1-Pin_4)*%
X119380000Y-54620000D03*
%TO.P,U1,8,VCC*%
%TO.N,+5V*%
X119380000Y-52080000D03*
%TD*%
D13*
%TO.P,Q1,3,S*%
%TO.N,GND*%
X118110000Y-69525000D03*
%TO.P,Q1,2,D*%
%TO.N,Net-(J2-Pin_2)*%
X115570000Y-69525000D03*
D14*
%TO.P,Q1,1,G*%
%TO.N,Net-(Q1-G)*%
X113030000Y-69525000D03*
%TD*%
D15*
%TO.P,J2,1,Pin_1*%
%TO.N,+5V*%
X124480000Y-63500000D03*
D16*
%TO.P,J2,2,Pin_2*%
%TO.N,Net-(J2-Pin_2)*%
X124480000Y-60960000D03*
%TO.P,J2,3,Pin_3*%
%TO.N,Net-(J1-Pin_3)*%
X124480000Y-58420000D03*
%TO.P,J2,4,Pin_4*%
%TO.N,Net-(J1-Pin_4)*%
X124480000Y-55880000D03*
%TD*%
D17*
%TO.P,J1,1,Pin_1*%
%TO.N,+5V*%
X106680000Y-55880000D03*
D16*
%TO.P,J1,2,Pin_2*%
%TO.N,GND*%
X106680000Y-58420000D03*
%TO.P,J1,3,Pin_3*%
%TO.N,Net-(J1-Pin_3)*%
X106680000Y-60960000D03*
%TO.P,J1,4,Pin_4*%
%TO.N,Net-(J1-Pin_4)*%
X106680000Y-63500000D03*
%TD*%
D18*
%TO.N,Net-(J1-Pin_3)*%
X116850000Y-62230000D02*
X119380000Y-59700000D01*
X107950000Y-62230000D02*
X116850000Y-62230000D01*
X106680000Y-60960000D02*
X107950000Y-62230000D01*
%TD*%
%TA.AperFunction,Conductor*%
%TO.N,GND*%
G36*
X103852539Y-49549685D02*
G01*
X103898294Y-49602489D01*
X103908471Y-49649274D01*
X103909076Y-49649224D01*
X103909454Y-49653790D01*
X103909500Y-49654000D01*
X103909500Y-49654334D01*
X103950429Y-49899616D01*
X104031169Y-50134802D01*
X104031172Y-50134811D01*
X104149524Y-50353506D01*
X104149526Y-50353509D01*
X104302262Y-50549744D01*
X104461744Y-50696557D01*
X104485217Y-50718166D01*
X104693393Y-50854173D01*
X104921118Y-50954063D01*
X105162175Y-51015107D01*
X105162179Y-51015108D01*
X105162181Y-51015108D01*
X105162186Y-51015109D01*
X105295376Y-51026145D01*
X105347933Y-51030500D01*
X105347935Y-51030500D01*
X105472065Y-51030500D01*
X105472067Y-51030500D01*
X105533284Y-51025427D01*
X105657813Y-51015109D01*
X105657816Y-51015108D01*
X105657821Y-51015108D01*
X105898881Y-50954063D01*
X106126607Y-50854173D01*
X106334785Y-50718164D01*
X106517738Y-50549744D01*
X106670474Y-50353509D01*
X106788828Y-50134810D01*
X106869571Y-49899614D01*
X106910500Y-49654335D01*
X106910500Y-49654000D01*
X106910539Y-49653865D01*
X106910924Y-49649224D01*
X106911879Y-49649303D01*
X106930185Y-49586961D01*
X106982989Y-49541206D01*
X107034500Y-49530000D01*
X124105500Y-49530000D01*
X124172539Y-49549685D01*
X124218294Y-49602489D01*
X124228471Y-49649274D01*
X124229076Y-49649224D01*
X124229454Y-49653790D01*
X124229500Y-49654000D01*
X124229500Y-49654334D01*
X124270429Y-49899616D01*
X124351169Y-50134802D01*
X124351172Y-50134811D01*
X124469524Y-50353506D01*
X124469526Y-50353509D01*
X124622262Y-50549744D01*
X124781744Y-50696557D01*
X124805217Y-50718166D01*
X125013393Y-50854173D01*
X125241118Y-50954063D01*
X125482175Y-51015107D01*
X125482179Y-51015108D01*
X125482181Y-51015108D01*
X125482186Y-51015109D01*
X125615376Y-51026145D01*
X125667933Y-51030500D01*
X125667935Y-51030500D01*
X125792065Y-51030500D01*
X125792067Y-51030500D01*
X125853284Y-51025427D01*
X125977813Y-51015109D01*
X125977816Y-51015108D01*
X125977821Y-51015108D01*
X126218881Y-50954063D01*
X126446607Y-50854173D01*
X126654785Y-50718164D01*
X126837738Y-50549744D01*
X126990474Y-50353509D01*
X127108828Y-50134810D01*
X127189571Y-49899614D01*
X127230500Y-49654335D01*
X127230500Y-49654000D01*
X127230539Y-49653865D01*
X127230924Y-49649224D01*
X127231879Y-49649303D01*
X127250185Y-49586961D01*
X127302989Y-49541206D01*
X127354500Y-49530000D01*
X128146000Y-49530000D01*
X128213039Y-49549685D01*
X128258794Y-49602489D01*
X128270000Y-49654000D01*
X128270000Y-72266000D01*
X128250315Y-72333039D01*
X128197511Y-72378794D01*
X128146000Y-72390000D01*
X102994000Y-72390000D01*
X102926961Y-72370315D01*
X102881206Y-72317511D01*
X102870000Y-72266000D01*
X102870000Y-69974334D01*
X103909500Y-69974334D01*
X103950429Y-70219616D01*
X104031169Y-70454802D01*
X104031172Y-70454811D01*
X104149524Y-70673506D01*
X104149526Y-70673509D01*
X104302262Y-70869744D01*
X104427875Y-70985379D01*
X104485217Y-71038166D01*
X104693393Y-71174173D01*
X104921118Y-71274063D01*
X105054473Y-71307833D01*
X105162179Y-71335108D01*
X105162181Y-71335108D01*
X105162186Y-71335109D01*
X105295376Y-71346145D01*
X105347933Y-71350500D01*
X105347935Y-71350500D01*
X105472065Y-71350500D01*
X105472067Y-71350500D01*
X105533284Y-71345427D01*
X105657813Y-71335109D01*
X105657816Y-71335108D01*
X105657821Y-71335108D01*
X105898881Y-71274063D01*
X106126607Y-71174173D01*
X106334785Y-71038164D01*
X106517738Y-70869744D01*
X106670474Y-70673509D01*
X106724937Y-70572870D01*
X111577000Y-70572870D01*
X111577001Y-70572876D01*
X111583408Y-70632483D01*
X111633702Y-70767328D01*
X111633706Y-70767335D01*
X111719952Y-70882544D01*
X111719955Y-70882547D01*
X111835164Y-70968793D01*
X111835171Y-70968797D01*
X111970017Y-71019091D01*
X111970016Y-71019091D01*
X111976944Y-71019835D01*
X112029627Y-71025500D01*
X114030372Y-71025499D01*
X114089983Y-71019091D01*
X114224831Y-70968796D01*
X114340046Y-70882546D01*
X114426296Y-70767331D01*
X114437725Y-70736687D01*
X114479594Y-70680755D01*
X114545058Y-70656336D01*
X114613331Y-70671186D01*
X114630069Y-70682167D01*
X114772552Y-70793066D01*
X114772558Y-70793070D01*
X114772561Y-70793072D01*
X114914235Y-70869742D01*
X114983478Y-70907215D01*
X114984336Y-70907679D01*
X115102598Y-70948278D01*
X115212083Y-70985865D01*
X115212085Y-70985865D01*
X115212087Y-70985866D01*
X115449601Y-71025500D01*
X115449602Y-71025500D01*
X115690398Y-71025500D01*
X115690399Y-71025500D01*
X115927913Y-70985866D01*
X116155664Y-70907679D01*
X116367439Y-70793072D01*
X116557463Y-70645171D01*
X116720551Y-70468010D01*
X116736489Y-70443613D01*
X116789631Y-70398258D01*
X116858862Y-70388831D01*
X116922199Y-70418330D01*
X116944106Y-70443611D01*
X116959847Y-70467704D01*
X116959851Y-70467710D01*
X117122873Y-70644797D01*
X117122883Y-70644806D01*
X117312831Y-70792649D01*
X117312840Y-70792655D01*
X117524531Y-70907215D01*
X117524545Y-70907221D01*
X117752207Y-70985379D01*
X117860000Y-71003366D01*
X117860000Y-70016683D01*
X117888819Y-70034209D01*
X118034404Y-70075000D01*
X118147622Y-70075000D01*
X118259783Y-70059584D01*
X118360000Y-70016053D01*
X118360000Y-71003365D01*
X118467792Y-70985379D01*
X118695454Y-70907221D01*
X118695468Y-70907215D01*
X118907159Y-70792655D01*
X118907168Y-70792649D01*
X119097116Y-70644806D01*
X119097126Y-70644797D01*
X119260148Y-70467710D01*
X119260156Y-70467699D01*
X119391813Y-70266184D01*
X119488508Y-70045740D01*
X119506590Y-69974334D01*
X124229500Y-69974334D01*
X124270429Y-70219616D01*
X124351169Y-70454802D01*
X124351172Y-70454811D01*
X124469524Y-70673506D01*
X124469526Y-70673509D01*
X124622262Y-70869744D01*
X124747875Y-70985379D01*
X124805217Y-71038166D01*
X125013393Y-71174173D01*
X125241118Y-71274063D01*
X125374473Y-71307833D01*
X125482179Y-71335108D01*
X125482181Y-71335108D01*
X125482186Y-71335109D01*
X125615376Y-71346145D01*
X125667933Y-71350500D01*
X125667935Y-71350500D01*
X125792065Y-71350500D01*
X125792067Y-71350500D01*
X125853284Y-71345427D01*
X125977813Y-71335109D01*
X125977816Y-71335108D01*
X125977821Y-71335108D01*
X126218881Y-71274063D01*
X126446607Y-71174173D01*
X126654785Y-71038164D01*
X126837738Y-70869744D01*
X126990474Y-70673509D01*
X127108828Y-70454810D01*
X127189571Y-70219614D01*
X127230500Y-69974335D01*
X127230500Y-69725665D01*
X127189571Y-69480386D01*
X127108828Y-69245190D01*
X126990474Y-69026491D01*
X126837738Y-68830256D01*
X126654785Y-68661836D01*
X126654782Y-68661833D01*
X126446606Y-68525826D01*
X126218881Y-68425936D01*
X125977824Y-68364892D01*
X125977813Y-68364890D01*
X125812548Y-68351197D01*
X125792067Y-68349500D01*
X125667933Y-68349500D01*
X125648521Y-68351108D01*
X125482186Y-68364890D01*
X125482175Y-68364892D01*
X125241118Y-68425936D01*
X125013393Y-68525826D01*
X124805217Y-68661833D01*
X124622261Y-68830257D01*
X124469524Y-69026493D01*
X124351172Y-69245188D01*
X124351169Y-69245197D01*
X124270429Y-69480383D01*
X124229500Y-69725665D01*
X124229500Y-69974334D01*
X119506590Y-69974334D01*
X119547599Y-69812395D01*
X119547599Y-69812394D01*
X119550697Y-69775000D01*
X118604852Y-69775000D01*
X118653559Y-69637953D01*
X118663877Y-69487114D01*
X118633116Y-69339085D01*
X118599910Y-69275000D01*
X119550697Y-69275000D01*
X119547599Y-69237605D01*
X119547599Y-69237604D01*
X119488508Y-69004259D01*
X119391813Y-68783815D01*
X119260156Y-68582300D01*
X119260148Y-68582289D01*
X119097126Y-68405202D01*
X119097116Y-68405193D01*
X118907168Y-68257350D01*
X118907159Y-68257344D01*
X118695468Y-68142784D01*
X118695454Y-68142778D01*
X118467791Y-68064619D01*
X118360000Y-68046633D01*
X118360000Y-69033316D01*
X118331181Y-69015791D01*
X118185596Y-68975000D01*
X118072378Y-68975000D01*
X117960217Y-68990416D01*
X117860000Y-69033946D01*
X117860000Y-68046633D01*
X117859999Y-68046633D01*
X117752208Y-68064619D01*
X117524545Y-68142778D01*
X117524531Y-68142784D01*
X117312840Y-68257344D01*
X117312831Y-68257350D01*
X117122883Y-68405193D01*
X117122873Y-68405202D01*
X116959851Y-68582289D01*
X116959846Y-68582297D01*
X116944104Y-68606390D01*
X116890955Y-68651745D01*
X116821724Y-68661165D01*
X116758389Y-68631660D01*
X116736489Y-68606384D01*
X116720555Y-68581994D01*
X116624018Y-68477127D01*
X116557463Y-68404829D01*
X116423358Y-68300451D01*
X116367441Y-68256929D01*
X116155665Y-68142321D01*
X116155656Y-68142318D01*
X115927916Y-68064134D01*
X115728800Y-68030908D01*
X115690399Y-68024500D01*
X115449601Y-68024500D01*
X115411200Y-68030908D01*
X115212083Y-68064134D01*
X114984343Y-68142318D01*
X114984334Y-68142321D01*
X114772559Y-68256929D01*
X114630069Y-68367833D01*
X114565075Y-68393475D01*
X114496535Y-68379908D01*
X114446210Y-68331440D01*
X114437725Y-68313311D01*
X114426298Y-68282673D01*
X114426293Y-68282664D01*
X114340047Y-68167455D01*
X114340044Y-68167452D01*
X114224835Y-68081206D01*
X114224828Y-68081202D01*
X114089982Y-68030908D01*
X114089983Y-68030908D01*
X114030383Y-68024501D01*
X114030381Y-68024500D01*
X114030373Y-68024500D01*
X114030364Y-68024500D01*
X112029629Y-68024500D01*
X112029623Y-68024501D01*
X111970016Y-68030908D01*
X111835171Y-68081202D01*
X111835164Y-68081206D01*
X111719955Y-68167452D01*
X111719952Y-68167455D01*
X111633706Y-68282664D01*
X111633702Y-68282671D01*
X111583408Y-68417517D01*
X111577001Y-68477116D01*
X111577000Y-68477135D01*
X111577000Y-70572870D01*
X106724937Y-70572870D01*
X106788828Y-70454810D01*
X106869571Y-70219614D01*
X106910500Y-69974335D01*
X106910500Y-69725665D01*
X106869571Y-69480386D01*
X106788828Y-69245190D01*
X106670474Y-69026491D01*
X106517738Y-68830256D01*
X106334785Y-68661836D01*
X106334782Y-68661833D01*
X106126606Y-68525826D01*
X105898881Y-68425936D01*
X105657824Y-68364892D01*
X105657813Y-68364890D01*
X105492548Y-68351197D01*
X105472067Y-68349500D01*
X105347933Y-68349500D01*
X105328521Y-68351108D01*
X105162186Y-68364890D01*
X105162175Y-68364892D01*
X104921118Y-68425936D01*
X104693393Y-68525826D01*
X104485217Y-68661833D01*
X104302261Y-68830257D01*
X104149524Y-69026493D01*
X104031172Y-69245188D01*
X104031169Y-69245197D01*
X103950429Y-69480383D01*
X103909500Y-69725665D01*
X103909500Y-69974334D01*
X102870000Y-69974334D01*
X102870000Y-63441624D01*
X105080784Y-63441624D01*
X105090685Y-63674700D01*
X105090686Y-63674709D01*
X105139836Y-63902766D01*
X105139837Y-63902769D01*
X105226819Y-64119231D01*
X105226821Y-64119235D01*
X105349138Y-64317891D01*
X105429083Y-64408726D01*
X105503270Y-64493019D01*
X105503273Y-64493022D01*
X105684773Y-64639573D01*
X105684779Y-64639578D01*
X105888445Y-64753353D01*
X105888448Y-64753354D01*
X106108416Y-64831073D01*
X106236725Y-64853074D01*
X106338344Y-64870499D01*
X106338353Y-64870500D01*
X106963221Y-64870500D01*
X107137446Y-64855671D01*
X107137446Y-64855670D01*
X107137453Y-64855670D01*
X107363219Y-64796885D01*
X107575802Y-64700792D01*
X107769088Y-64570153D01*
X107937516Y-64408728D01*
X108076240Y-64221161D01*
X108181270Y-64012847D01*
X108249583Y-63789780D01*
X108279216Y-63558376D01*
X108269314Y-63325293D01*
X108220164Y-63097235D01*
X108220162Y-63097230D01*
X108191433Y-63025734D01*
X108184702Y-62956189D01*
X108216638Y-62894046D01*
X108277102Y-62859033D01*
X108306491Y-62855500D01*
X110430951Y-62855500D01*
X110497990Y-62875185D01*
X110543745Y-62927989D01*
X110553689Y-62997147D01*
X110543333Y-63031905D01*
X110533262Y-63053502D01*
X110533258Y-63053511D01*
X110474366Y-63273302D01*
X110474364Y-63273313D01*
X110454532Y-63499998D01*
X110454532Y-63500001D01*
X110474364Y-63726686D01*
X110474366Y-63726697D01*
X110533258Y-63946488D01*
X110533261Y-63946497D01*
X110629431Y-64152732D01*
X110629432Y-64152734D01*
X110759954Y-64339141D01*
X110920858Y-64500045D01*
X110920861Y-64500047D01*
X111107266Y-64630568D01*
X111313504Y-64726739D01*
X111533308Y-64785635D01*
X111695230Y-64799801D01*
X111759998Y-64805468D01*
X111760000Y-64805468D01*
X111760002Y-64805468D01*
X111816673Y-64800509D01*
X111986692Y-64785635D01*
X112206496Y-64726739D01*
X112412734Y-64630568D01*
X112599139Y-64500047D01*
X112760047Y-64339139D01*
X112890568Y-64152734D01*
X112986739Y-63946496D01*
X113045635Y-63726692D01*
X113065468Y-63500001D01*
X118074532Y-63500001D01*
X118094364Y-63726686D01*
X118094366Y-63726697D01*
X118153258Y-63946488D01*
X118153261Y-63946497D01*
X118249431Y-64152732D01*
X118249432Y-64152734D01*
X118379954Y-64339141D01*
X118540858Y-64500045D01*
X118540861Y-64500047D01*
X118727266Y-64630568D01*
X118933504Y-64726739D01*
X119153308Y-64785635D01*
X119315230Y-64799801D01*
X119379998Y-64805468D01*
X119380000Y-64805468D01*
X119380002Y-64805468D01*
X119436673Y-64800509D01*
X119606692Y-64785635D01*
X119826496Y-64726739D01*
X120032734Y-64630568D01*
X120219139Y-64500047D01*
X120380047Y-64339139D01*
X120510568Y-64152734D01*
X120606739Y-63946496D01*
X120665635Y-63726692D01*
X120685468Y-63500000D01*
X120665635Y-63273308D01*
X120606739Y-63053504D01*
X120510568Y-62847266D01*
X120380047Y-62660861D01*
X120380045Y-62660858D01*
X120219141Y-62499954D01*
X120032734Y-62369432D01*
X120032732Y-62369431D01*
X119826497Y-62273261D01*
X119826488Y-62273258D01*
X119606697Y-62214366D01*
X119606693Y-62214365D01*
X119606692Y-62214365D01*
X119606691Y-62214364D01*
X119606686Y-62214364D01*
X119380002Y-62194532D01*
X119379998Y-62194532D01*
X119153313Y-62214364D01*
X119153302Y-62214366D01*
X118933511Y-62273258D01*
X118933502Y-62273261D01*
X118727267Y-62369431D01*
X118727265Y-62369432D01*
X118540858Y-62499954D01*
X118379954Y-62660858D01*
X118249432Y-62847265D01*
X118249431Y-62847267D01*
X118153261Y-63053502D01*
X118153258Y-63053511D01*
X118094366Y-63273302D01*
X118094364Y-63273313D01*
X118074532Y-63499998D01*
X118074532Y-63500001D01*
X113065468Y-63500001D01*
X113065468Y-63500000D01*
X113045635Y-63273308D01*
X112986739Y-63053504D01*
X112976666Y-63031904D01*
X112966175Y-62962827D01*
X112994695Y-62899043D01*
X113053171Y-62860804D01*
X113089049Y-62855500D01*
X116767257Y-62855500D01*
X116782877Y-62857224D01*
X116782904Y-62856939D01*
X116790660Y-62857671D01*
X116790667Y-62857673D01*
X116859814Y-62855500D01*
X116889350Y-62855500D01*
X116896228Y-62854630D01*
X116902041Y-62854172D01*
X116948627Y-62852709D01*
X116967869Y-62847117D01*
X116986912Y-62843174D01*
X117006792Y-62840664D01*
X117050122Y-62823507D01*
X117055646Y-62821617D01*
X117059396Y-62820527D01*
X117100390Y-62808618D01*
X117117629Y-62798422D01*
X117135103Y-62789862D01*
X117153727Y-62782488D01*
X117153727Y-62782487D01*
X117153732Y-62782486D01*
X117191449Y-62755082D01*
X117196305Y-62751892D01*
X117236420Y-62728170D01*
X117250589Y-62713999D01*
X117265379Y-62701368D01*
X117281587Y-62689594D01*
X117311299Y-62653676D01*
X117315212Y-62649376D01*
X118965179Y-60999410D01*
X119026500Y-60965927D01*
X119084947Y-60967317D01*
X119153308Y-60985635D01*
X119310780Y-60999412D01*
X119379998Y-61005468D01*
X119380000Y-61005468D01*
X119380002Y-61005468D01*
X119449220Y-60999412D01*
X119606692Y-60985635D01*
X119826496Y-60926739D01*
X119880355Y-60901624D01*
X122880784Y-60901624D01*
X122890685Y-61134700D01*
X122890686Y-61134709D01*
X122939836Y-61362766D01*
X122939837Y-61362769D01*
X123011808Y-61541875D01*
X123026821Y-61579235D01*
X123149138Y-61777891D01*
X123303269Y-61953018D01*
X123343291Y-61985334D01*
X123383084Y-62042764D01*
X123385511Y-62112592D01*
X123349800Y-62172646D01*
X123317800Y-62194191D01*
X123315668Y-62195185D01*
X123315666Y-62195185D01*
X123315666Y-62195186D01*
X123284572Y-62214365D01*
X123166342Y-62287289D01*
X123042289Y-62411342D01*
X122950187Y-62560663D01*
X122950186Y-62560666D01*
X122895001Y-62727203D01*
X122895001Y-62727204D01*
X122895000Y-62727204D01*
X122884500Y-62829983D01*
X122884500Y-64170001D01*
X122884501Y-64170018D01*
X122895000Y-64272796D01*
X122895001Y-64272799D01*
X122916985Y-64339141D01*
X122950186Y-64439334D01*
X123042288Y-64588656D01*
X123166344Y-64712712D01*
X123315666Y-64804814D01*
X123482203Y-64859999D01*
X123584991Y-64870500D01*
X125375008Y-64870499D01*
X125477797Y-64859999D01*
X125644334Y-64804814D01*
X125793656Y-64712712D01*
X125917712Y-64588656D01*
X126009814Y-64439334D01*
X126064999Y-64272797D01*
X126075500Y-64170009D01*
X126075499Y-62829992D01*
X126074643Y-62821617D01*
X126064999Y-62727203D01*
X126064998Y-62727200D01*
X126052537Y-62689595D01*
X126009814Y-62560666D01*
X125917712Y-62411344D01*
X125793656Y-62287288D01*
X125644334Y-62195186D01*
X125644326Y-62195181D01*
X125642058Y-62194124D01*
X125640763Y-62192984D01*
X125638187Y-62191395D01*
X125638458Y-62190954D01*
X125589619Y-62147951D01*
X125570468Y-62080757D01*
X125590685Y-62013876D01*
X125608653Y-61992232D01*
X125737516Y-61868728D01*
X125876240Y-61681161D01*
X125981270Y-61472847D01*
X126049583Y-61249780D01*
X126079216Y-61018376D01*
X126069314Y-60785293D01*
X126020164Y-60557235D01*
X125933179Y-60340765D01*
X125810862Y-60142109D01*
X125656731Y-59966982D01*
X125656729Y-59966980D01*
X125656726Y-59966977D01*
X125475226Y-59820426D01*
X125475215Y-59820419D01*
X125434897Y-59797895D01*
X125385971Y-59748015D01*
X125371779Y-59679602D01*
X125396827Y-59614376D01*
X125425931Y-59586910D01*
X125569088Y-59490153D01*
X125737516Y-59328728D01*
X125876240Y-59141161D01*
X125981270Y-58932847D01*
X126049583Y-58709780D01*
X126079216Y-58478376D01*
X126069314Y-58245293D01*
X126020164Y-58017235D01*
X125933179Y-57800765D01*
X125810862Y-57602109D01*
X125656731Y-57426982D01*
X125656729Y-57426980D01*
X125656726Y-57426977D01*
X125475226Y-57280426D01*
X125475215Y-57280419D01*
X125434897Y-57257895D01*
X125385971Y-57208015D01*
X125371779Y-57139602D01*
X125396827Y-57074376D01*
X125425931Y-57046910D01*
X125569088Y-56950153D01*
X125737516Y-56788728D01*
X125876240Y-56601161D01*
X125981270Y-56392847D01*
X126049583Y-56169780D01*
X126079216Y-55938376D01*
X126069314Y-55705293D01*
X126020164Y-55477235D01*
X125933179Y-55260765D01*
X125810862Y-55062109D01*
X125656731Y-54886982D01*
X125656729Y-54886980D01*
X125656726Y-54886977D01*
X125475226Y-54740426D01*
X125475220Y-54740421D01*
X125271554Y-54626646D01*
X125051591Y-54548929D01*
X125051586Y-54548927D01*
X125051584Y-54548927D01*
X125051580Y-54548926D01*
X125051579Y-54548926D01*
X124821655Y-54509500D01*
X124821647Y-54509500D01*
X124196784Y-54509500D01*
X124196779Y-54509500D01*
X124022553Y-54524328D01*
X124022551Y-54524329D01*
X123796781Y-54583114D01*
X123584197Y-54679208D01*
X123390911Y-54809847D01*
X123390909Y-54809849D01*
X123222483Y-54971272D01*
X123222482Y-54971273D01*
X123083762Y-55158834D01*
X122978733Y-55367147D01*
X122978730Y-55367153D01*
X122910416Y-55590223D01*
X122880784Y-55821624D01*
X122890685Y-56054700D01*
X122890686Y-56054709D01*
X122939836Y-56282766D01*
X122939837Y-56282769D01*
X123026819Y-56499231D01*
X123026821Y-56499235D01*
X123149138Y-56697891D01*
X123229083Y-56788726D01*
X123303270Y-56873019D01*
X123303273Y-56873022D01*
X123484773Y-57019573D01*
X123484775Y-57019574D01*
X123484780Y-57019578D01*
X123525102Y-57042103D01*
X123574028Y-57091983D01*
X123588220Y-57160396D01*
X123563172Y-57225622D01*
X123534065Y-57253092D01*
X123390907Y-57349850D01*
X123222483Y-57511272D01*
X123222482Y-57511273D01*
X123083762Y-57698834D01*
X122978733Y-57907147D01*
X122978730Y-57907153D01*
X122910416Y-58130223D01*
X122880784Y-58361624D01*
X122890685Y-58594700D01*
X122890686Y-58594709D01*
X122939836Y-58822766D01*
X122939837Y-58822769D01*
X123026819Y-59039231D01*
X123026821Y-59039235D01*
X123149138Y-59237891D01*
X123302954Y-59412660D01*
X123303270Y-59413019D01*
X123303273Y-59413022D01*
X123484773Y-59559573D01*
X123484775Y-59559574D01*
X123484780Y-59559578D01*
X123525102Y-59582103D01*
X123574028Y-59631983D01*
X123588220Y-59700396D01*
X123563172Y-59765622D01*
X123534065Y-59793092D01*
X123390907Y-59889850D01*
X123222483Y-60051272D01*
X123222482Y-60051273D01*
X123083762Y-60238834D01*
X122978733Y-60447147D01*
X122978730Y-60447153D01*
X122910416Y-60670223D01*
X122880784Y-60901624D01*
X119880355Y-60901624D01*
X120032734Y-60830568D01*
X120219139Y-60700047D01*
X120380047Y-60539139D01*
X120510568Y-60352734D01*
X120606739Y-60146496D01*
X120665635Y-59926692D01*
X120685468Y-59700000D01*
X120683683Y-59679602D01*
X120674519Y-59574852D01*
X120665635Y-59473308D01*
X120606739Y-59253504D01*
X120510568Y-59047266D01*
X120380047Y-58860861D01*
X120380045Y-58860858D01*
X120219141Y-58699954D01*
X120032734Y-58569432D01*
X120032728Y-58569429D01*
X119974725Y-58542382D01*
X119922285Y-58496210D01*
X119903133Y-58429017D01*
X119923348Y-58362135D01*
X119974725Y-58317618D01*
X120032734Y-58290568D01*
X120219139Y-58160047D01*
X120380047Y-57999139D01*
X120510568Y-57812734D01*
X120606739Y-57606496D01*
X120665635Y-57386692D01*
X120685468Y-57160000D01*
X120683683Y-57139602D01*
X120675153Y-57042103D01*
X120665635Y-56933308D01*
X120606739Y-56713504D01*
X120510568Y-56507266D01*
X120380047Y-56320861D01*
X120380045Y-56320858D01*
X120219141Y-56159954D01*
X120032734Y-56029432D01*
X120032728Y-56029429D01*
X119974725Y-56002382D01*
X119922285Y-55956210D01*
X119903133Y-55889017D01*
X119923348Y-55822135D01*
X119974725Y-55777618D01*
X120032734Y-55750568D01*
X120219139Y-55620047D01*
X120380047Y-55459139D01*
X120510568Y-55272734D01*
X120606739Y-55066496D01*
X120665635Y-54846692D01*
X120685468Y-54620000D01*
X120665635Y-54393308D01*
X120606739Y-54173504D01*
X120510568Y-53967266D01*
X120380047Y-53780861D01*
X120380045Y-53780858D01*
X120219141Y-53619954D01*
X120032734Y-53489432D01*
X120032728Y-53489429D01*
X119974725Y-53462382D01*
X119922285Y-53416210D01*
X119903133Y-53349017D01*
X119923348Y-53282135D01*
X119974725Y-53237618D01*
X120032734Y-53210568D01*
X120219139Y-53080047D01*
X120380047Y-52919139D01*
X120510568Y-52732734D01*
X120606739Y-52526496D01*
X120665635Y-52306692D01*
X120685468Y-52080000D01*
X120665635Y-51853308D01*
X120606739Y-51633504D01*
X120510568Y-51427266D01*
X120380047Y-51240861D01*
X120380045Y-51240858D01*
X120219141Y-51079954D01*
X120032734Y-50949432D01*
X120032732Y-50949431D01*
X119826497Y-50853261D01*
X119826488Y-50853258D01*
X119606697Y-50794366D01*
X119606693Y-50794365D01*
X119606692Y-50794365D01*
X119606691Y-50794364D01*
X119606686Y-50794364D01*
X119380002Y-50774532D01*
X119379998Y-50774532D01*
X119153313Y-50794364D01*
X119153302Y-50794366D01*
X118933511Y-50853258D01*
X118933502Y-50853261D01*
X118727267Y-50949431D01*
X118727265Y-50949432D01*
X118540858Y-51079954D01*
X118379954Y-51240858D01*
X118249432Y-51427265D01*
X118249431Y-51427267D01*
X118153261Y-51633502D01*
X118153258Y-51633511D01*
X118094366Y-51853302D01*
X118094364Y-51853313D01*
X118074532Y-52079998D01*
X118074532Y-52080001D01*
X118094364Y-52306686D01*
X118094366Y-52306697D01*
X118153258Y-52526488D01*
X118153261Y-52526497D01*
X118249431Y-52732732D01*
X118249432Y-52732734D01*
X118379954Y-52919141D01*
X118540858Y-53080045D01*
X118540861Y-53080047D01*
X118727266Y-53210568D01*
X118785275Y-53237618D01*
X118837714Y-53283791D01*
X118856866Y-53350984D01*
X118836650Y-53417865D01*
X118785275Y-53462382D01*
X118727267Y-53489431D01*
X118727265Y-53489432D01*
X118540858Y-53619954D01*
X118379954Y-53780858D01*
X118249432Y-53967265D01*
X118249431Y-53967267D01*
X118153261Y-54173502D01*
X118153258Y-54173511D01*
X118094366Y-54393302D01*
X118094364Y-54393313D01*
X118074532Y-54619998D01*
X118074532Y-54620001D01*
X118094364Y-54846686D01*
X118094366Y-54846697D01*
X118153258Y-55066488D01*
X118153261Y-55066497D01*
X118249431Y-55272732D01*
X118249432Y-55272734D01*
X118379954Y-55459141D01*
X118540858Y-55620045D01*
X118540861Y-55620047D01*
X118727266Y-55750568D01*
X118785275Y-55777618D01*
X118837714Y-55823791D01*
X118856866Y-55890984D01*
X118836650Y-55957865D01*
X118785275Y-56002382D01*
X118727267Y-56029431D01*
X118727265Y-56029432D01*
X118540858Y-56159954D01*
X118379954Y-56320858D01*
X118249432Y-56507265D01*
X118249431Y-56507267D01*
X118153261Y-56713502D01*
X118153258Y-56713511D01*
X118094366Y-56933302D01*
X118094364Y-56933313D01*
X118074532Y-57159998D01*
X118074532Y-57160001D01*
X118094364Y-57386686D01*
X118094366Y-57386697D01*
X118153258Y-57606488D01*
X118153261Y-57606497D01*
X118249431Y-57812732D01*
X118249432Y-57812734D01*
X118379954Y-57999141D01*
X118540858Y-58160045D01*
X118540861Y-58160047D01*
X118727266Y-58290568D01*
X118785275Y-58317618D01*
X118837714Y-58363791D01*
X118856866Y-58430984D01*
X118836650Y-58497865D01*
X118785275Y-58542382D01*
X118727267Y-58569431D01*
X118727265Y-58569432D01*
X118540858Y-58699954D01*
X118379954Y-58860858D01*
X118249432Y-59047265D01*
X118249431Y-59047267D01*
X118153261Y-59253502D01*
X118153258Y-59253511D01*
X118094366Y-59473302D01*
X118094364Y-59473313D01*
X118075437Y-59689654D01*
X118074532Y-59700000D01*
X118094364Y-59926686D01*
X118094365Y-59926691D01*
X118094366Y-59926697D01*
X118112680Y-59995048D01*
X118111017Y-60064897D01*
X118080586Y-60114821D01*
X116627228Y-61568181D01*
X116565905Y-61601666D01*
X116539547Y-61604500D01*
X108308611Y-61604500D01*
X108241572Y-61584815D01*
X108195817Y-61532011D01*
X108185873Y-61462853D01*
X108190046Y-61444190D01*
X108249583Y-61249780D01*
X108279216Y-61018376D01*
X108269314Y-60785293D01*
X108220164Y-60557235D01*
X108133179Y-60340765D01*
X108010862Y-60142109D01*
X107856731Y-59966982D01*
X107856729Y-59966980D01*
X107856726Y-59966977D01*
X107675226Y-59820426D01*
X107675216Y-59820419D01*
X107634408Y-59797622D01*
X107585482Y-59747742D01*
X107571290Y-59679329D01*
X107596338Y-59614104D01*
X107625447Y-59586633D01*
X107768772Y-59489763D01*
X107937139Y-59328396D01*
X107937140Y-59328395D01*
X108075810Y-59140902D01*
X108180803Y-58932661D01*
X108249093Y-58709670D01*
X108254173Y-58670000D01*
X107220470Y-58670000D01*
X107259685Y-58575326D01*
X107280134Y-58420000D01*
X107259685Y-58264674D01*
X107220470Y-58170000D01*
X108252576Y-58170000D01*
X108252575Y-58169999D01*
X108219683Y-58017380D01*
X108219683Y-58017379D01*
X108132732Y-57800994D01*
X108010458Y-57602407D01*
X107856383Y-57427344D01*
X107816202Y-57394900D01*
X107776410Y-57337469D01*
X107773984Y-57267642D01*
X107809694Y-57207587D01*
X107841714Y-57186034D01*
X107844321Y-57184818D01*
X107844334Y-57184814D01*
X107884563Y-57160001D01*
X110454532Y-57160001D01*
X110474364Y-57386686D01*
X110474366Y-57386697D01*
X110533258Y-57606488D01*
X110533261Y-57606497D01*
X110629431Y-57812732D01*
X110629432Y-57812734D01*
X110759954Y-57999141D01*
X110920858Y-58160045D01*
X110920861Y-58160047D01*
X111107266Y-58290568D01*
X111165865Y-58317893D01*
X111218305Y-58364065D01*
X111237457Y-58431258D01*
X111217242Y-58498139D01*
X111165867Y-58542657D01*
X111107515Y-58569867D01*
X110921179Y-58700342D01*
X110760342Y-58861179D01*
X110629865Y-59047517D01*
X110533734Y-59253673D01*
X110533730Y-59253682D01*
X110481127Y-59449999D01*
X110481128Y-59450000D01*
X111444314Y-59450000D01*
X111432359Y-59461955D01*
X111374835Y-59574852D01*
X111355014Y-59700000D01*
X111374835Y-59825148D01*
X111432359Y-59938045D01*
X111444314Y-59950000D01*
X110481128Y-59950000D01*
X110533730Y-60146317D01*
X110533734Y-60146326D01*
X110629865Y-60352482D01*
X110760342Y-60538820D01*
X110921179Y-60699657D01*
X111107517Y-60830134D01*
X111313673Y-60926265D01*
X111313682Y-60926269D01*
X111509999Y-60978872D01*
X111510000Y-60978871D01*
X111510000Y-60015686D01*
X111521955Y-60027641D01*
X111634852Y-60085165D01*
X111728519Y-60100000D01*
X111791481Y-60100000D01*
X111885148Y-60085165D01*
X111998045Y-60027641D01*
X112010000Y-60015686D01*
X112010000Y-60978872D01*
X112206317Y-60926269D01*
X112206326Y-60926265D01*
X112412482Y-60830134D01*
X112598820Y-60699657D01*
X112759657Y-60538820D01*
X112890134Y-60352482D01*
X112986265Y-60146326D01*
X112986269Y-60146317D01*
X113038872Y-59950000D01*
X112075686Y-59950000D01*
X112087641Y-59938045D01*
X112145165Y-59825148D01*
X112164986Y-59700000D01*
X112145165Y-59574852D01*
X112087641Y-59461955D01*
X112075686Y-59450000D01*
X113038872Y-59450000D01*
X113038872Y-59449999D01*
X112986269Y-59253682D01*
X112986265Y-59253673D01*
X112890134Y-59047517D01*
X112759657Y-58861179D01*
X112598820Y-58700342D01*
X112412482Y-58569865D01*
X112354133Y-58542657D01*
X112301694Y-58496484D01*
X112282542Y-58429291D01*
X112302758Y-58362410D01*
X112354129Y-58317895D01*
X112412734Y-58290568D01*
X112599139Y-58160047D01*
X112760047Y-57999139D01*
X112890568Y-57812734D01*
X112986739Y-57606496D01*
X113045635Y-57386692D01*
X113065468Y-57160000D01*
X113063683Y-57139602D01*
X113055153Y-57042103D01*
X113045635Y-56933308D01*
X112986739Y-56713504D01*
X112890568Y-56507266D01*
X112760047Y-56320861D01*
X112760045Y-56320858D01*
X112599141Y-56159954D01*
X112412734Y-56029432D01*
X112412728Y-56029429D01*
X112354725Y-56002382D01*
X112302285Y-55956210D01*
X112283133Y-55889017D01*
X112303348Y-55822135D01*
X112354725Y-55777618D01*
X112412734Y-55750568D01*
X112599139Y-55620047D01*
X112760047Y-55459139D01*
X112890568Y-55272734D01*
X112986739Y-55066496D01*
X113045635Y-54846692D01*
X113065468Y-54620000D01*
X113045635Y-54393308D01*
X112986739Y-54173504D01*
X112890568Y-53967266D01*
X112760047Y-53780861D01*
X112760045Y-53780858D01*
X112599143Y-53619956D01*
X112574536Y-53602726D01*
X112530912Y-53548149D01*
X112523719Y-53478650D01*
X112555241Y-53416296D01*
X112615471Y-53380882D01*
X112632404Y-53377861D01*
X112667483Y-53374091D01*
X112802331Y-53323796D01*
X112917546Y-53237546D01*
X113003796Y-53122331D01*
X113054091Y-52987483D01*
X113060500Y-52927873D01*
X113060499Y-51232128D01*
X113054091Y-51172517D01*
X113019567Y-51079954D01*
X113003797Y-51037671D01*
X113003793Y-51037664D01*
X112917547Y-50922455D01*
X112917544Y-50922452D01*
X112802335Y-50836206D01*
X112802328Y-50836202D01*
X112667482Y-50785908D01*
X112667483Y-50785908D01*
X112607883Y-50779501D01*
X112607881Y-50779500D01*
X112607873Y-50779500D01*
X112607864Y-50779500D01*
X110912129Y-50779500D01*
X110912123Y-50779501D01*
X110852516Y-50785908D01*
X110717671Y-50836202D01*
X110717664Y-50836206D01*
X110602455Y-50922452D01*
X110602452Y-50922455D01*
X110516206Y-51037664D01*
X110516202Y-51037671D01*
X110465908Y-51172517D01*
X110459501Y-51232116D01*
X110459501Y-51232123D01*
X110459500Y-51232135D01*
X110459500Y-52927870D01*
X110459501Y-52927876D01*
X110465908Y-52987483D01*
X110516202Y-53122328D01*
X110516206Y-53122335D01*
X110602452Y-53237544D01*
X110602455Y-53237547D01*
X110717664Y-53323793D01*
X110717671Y-53323797D01*
X110762618Y-53340561D01*
X110852517Y-53374091D01*
X110887596Y-53377862D01*
X110952144Y-53404599D01*
X110991993Y-53461991D01*
X110994488Y-53531816D01*
X110958836Y-53591905D01*
X110945464Y-53602725D01*
X110920858Y-53619954D01*
X110759954Y-53780858D01*
X110629432Y-53967265D01*
X110629431Y-53967267D01*
X110533261Y-54173502D01*
X110533258Y-54173511D01*
X110474366Y-54393302D01*
X110474364Y-54393313D01*
X110454532Y-54619998D01*
X110454532Y-54620001D01*
X110474364Y-54846686D01*
X110474366Y-54846697D01*
X110533258Y-55066488D01*
X110533261Y-55066497D01*
X110629431Y-55272732D01*
X110629432Y-55272734D01*
X110759954Y-55459141D01*
X110920858Y-55620045D01*
X110920861Y-55620047D01*
X111107266Y-55750568D01*
X111165275Y-55777618D01*
X111217714Y-55823791D01*
X111236866Y-55890984D01*
X111216650Y-55957865D01*
X111165275Y-56002382D01*
X111107267Y-56029431D01*
X111107265Y-56029432D01*
X110920858Y-56159954D01*
X110759954Y-56320858D01*
X110629432Y-56507265D01*
X110629431Y-56507267D01*
X110533261Y-56713502D01*
X110533258Y-56713511D01*
X110474366Y-56933302D01*
X110474364Y-56933313D01*
X110454532Y-57159998D01*
X110454532Y-57160001D01*
X107884563Y-57160001D01*
X107993656Y-57092712D01*
X108117712Y-56968656D01*
X108209814Y-56819334D01*
X108264999Y-56652797D01*
X108275500Y-56550009D01*
X108275499Y-55209992D01*
X108264999Y-55107203D01*
X108209814Y-54940666D01*
X108117712Y-54791344D01*
X107993656Y-54667288D01*
X107857189Y-54583115D01*
X107844336Y-54575187D01*
X107844331Y-54575185D01*
X107842862Y-54574698D01*
X107677797Y-54520001D01*
X107677795Y-54520000D01*
X107575010Y-54509500D01*
X105784998Y-54509500D01*
X105784981Y-54509501D01*
X105682203Y-54520000D01*
X105682200Y-54520001D01*
X105515668Y-54575185D01*
X105515663Y-54575187D01*
X105366342Y-54667289D01*
X105242289Y-54791342D01*
X105150187Y-54940663D01*
X105150186Y-54940666D01*
X105095001Y-55107203D01*
X105095001Y-55107204D01*
X105095000Y-55107204D01*
X105084500Y-55209983D01*
X105084500Y-56550001D01*
X105084501Y-56550018D01*
X105095000Y-56652796D01*
X105095001Y-56652799D01*
X105140043Y-56788726D01*
X105150186Y-56819334D01*
X105242288Y-56968656D01*
X105366344Y-57092712D01*
X105515666Y-57184814D01*
X105515669Y-57184815D01*
X105518419Y-57186097D01*
X105519991Y-57187481D01*
X105521813Y-57188605D01*
X105521621Y-57188916D01*
X105570861Y-57232267D01*
X105590016Y-57299460D01*
X105569803Y-57366342D01*
X105551821Y-57388004D01*
X105422860Y-57511603D01*
X105422859Y-57511604D01*
X105284189Y-57699097D01*
X105179196Y-57907338D01*
X105110906Y-58130329D01*
X105105826Y-58169999D01*
X105105827Y-58170000D01*
X106139530Y-58170000D01*
X106100315Y-58264674D01*
X106079866Y-58420000D01*
X106100315Y-58575326D01*
X106139530Y-58670000D01*
X105107424Y-58670000D01*
X105140316Y-58822619D01*
X105140316Y-58822620D01*
X105227267Y-59039005D01*
X105349541Y-59237592D01*
X105503617Y-59412656D01*
X105503621Y-59412660D01*
X105685054Y-59559157D01*
X105685060Y-59559162D01*
X105725565Y-59581789D01*
X105774491Y-59631669D01*
X105788684Y-59700082D01*
X105763637Y-59765308D01*
X105734529Y-59792778D01*
X105590907Y-59889850D01*
X105422483Y-60051272D01*
X105422482Y-60051273D01*
X105283762Y-60238834D01*
X105178733Y-60447147D01*
X105178730Y-60447153D01*
X105110416Y-60670223D01*
X105080784Y-60901624D01*
X105090685Y-61134700D01*
X105090686Y-61134709D01*
X105139836Y-61362766D01*
X105139837Y-61362769D01*
X105211808Y-61541875D01*
X105226821Y-61579235D01*
X105349138Y-61777891D01*
X105429083Y-61868726D01*
X105503270Y-61953019D01*
X105503273Y-61953022D01*
X105684773Y-62099573D01*
X105684775Y-62099574D01*
X105684780Y-62099578D01*
X105725102Y-62122103D01*
X105774028Y-62171983D01*
X105788220Y-62240396D01*
X105763172Y-62305622D01*
X105734065Y-62333092D01*
X105590907Y-62429850D01*
X105422483Y-62591272D01*
X105422482Y-62591273D01*
X105283762Y-62778834D01*
X105178733Y-62987147D01*
X105178730Y-62987153D01*
X105110416Y-63210223D01*
X105080784Y-63441624D01*
X102870000Y-63441624D01*
X102870000Y-49654000D01*
X102889685Y-49586961D01*
X102942489Y-49541206D01*
X102994000Y-49530000D01*
X103785500Y-49530000D01*
X103852539Y-49549685D01*
G37*
%TD.AperFunction*%
%TD*%
M02*
