%TF.GenerationSoftware,KiCad,Pcbnew,7.0.8*%
%TF.CreationDate,2023-10-26T16:31:04-05:00*%
%TF.ProjectId,iowa-rover-kiosk-power-cycler,696f7761-2d72-46f7-9665-722d6b696f73,rev?*%
%TF.SameCoordinates,Original*%
%TF.FileFunction,Legend,Top*%
%TF.FilePolarity,Positive*%
%FSLAX46Y46*%
G04 Gerber Fmt 4.6, Leading zero omitted, Abs format (unit mm)*
G04 Created by KiCad (PCBNEW 7.0.8) date 2023-10-26 16:31:04*
%MOMM*%
%LPD*%
G01*
G04 APERTURE LIST*
G04 Aperture macros list*
%AMRoundRect*
0 Rectangle with rounded corners*
0 $1 Rounding radius*
0 $2 $3 $4 $5 $6 $7 $8 $9 X,Y pos of 4 corners*
0 Add a 4 corners polygon primitive as box body*
4,1,4,$2,$3,$4,$5,$6,$7,$8,$9,$2,$3,0*
0 Add four circle primitives for the rounded corners*
1,1,$1+$1,$2,$3*
1,1,$1+$1,$4,$5*
1,1,$1+$1,$6,$7*
1,1,$1+$1,$8,$9*
0 Add four rect primitives between the rounded corners*
20,1,$1+$1,$2,$3,$4,$5,0*
20,1,$1+$1,$4,$5,$6,$7,0*
20,1,$1+$1,$6,$7,$8,$9,0*
20,1,$1+$1,$8,$9,$2,$3,0*%
G04 Aperture macros list end*
%ADD10C,0.150000*%
%ADD11C,0.120000*%
%ADD12C,1.600000*%
%ADD13O,1.600000X1.600000*%
%ADD14C,2.500000*%
%ADD15R,1.600000X1.600000*%
%ADD16O,1.905000X2.000000*%
%ADD17R,1.905000X2.000000*%
%ADD18RoundRect,0.250000X0.845000X-0.620000X0.845000X0.620000X-0.845000X0.620000X-0.845000X-0.620000X0*%
%ADD19O,2.190000X1.740000*%
%ADD20RoundRect,0.250000X-0.845000X0.620000X-0.845000X-0.620000X0.845000X-0.620000X0.845000X0.620000X0*%
G04 APERTURE END LIST*
D10*
X115403333Y-63954819D02*
X115070000Y-63478628D01*
X114831905Y-63954819D02*
X114831905Y-62954819D01*
X114831905Y-62954819D02*
X115212857Y-62954819D01*
X115212857Y-62954819D02*
X115308095Y-63002438D01*
X115308095Y-63002438D02*
X115355714Y-63050057D01*
X115355714Y-63050057D02*
X115403333Y-63145295D01*
X115403333Y-63145295D02*
X115403333Y-63288152D01*
X115403333Y-63288152D02*
X115355714Y-63383390D01*
X115355714Y-63383390D02*
X115308095Y-63431009D01*
X115308095Y-63431009D02*
X115212857Y-63478628D01*
X115212857Y-63478628D02*
X114831905Y-63478628D01*
X116355714Y-63954819D02*
X115784286Y-63954819D01*
X116070000Y-63954819D02*
X116070000Y-62954819D01*
X116070000Y-62954819D02*
X115974762Y-63097676D01*
X115974762Y-63097676D02*
X115879524Y-63192914D01*
X115879524Y-63192914D02*
X115784286Y-63240533D01*
X114808095Y-49204819D02*
X114808095Y-50014342D01*
X114808095Y-50014342D02*
X114855714Y-50109580D01*
X114855714Y-50109580D02*
X114903333Y-50157200D01*
X114903333Y-50157200D02*
X114998571Y-50204819D01*
X114998571Y-50204819D02*
X115189047Y-50204819D01*
X115189047Y-50204819D02*
X115284285Y-50157200D01*
X115284285Y-50157200D02*
X115331904Y-50109580D01*
X115331904Y-50109580D02*
X115379523Y-50014342D01*
X115379523Y-50014342D02*
X115379523Y-49204819D01*
X116379523Y-50204819D02*
X115808095Y-50204819D01*
X116093809Y-50204819D02*
X116093809Y-49204819D01*
X116093809Y-49204819D02*
X115998571Y-49347676D01*
X115998571Y-49347676D02*
X115903333Y-49442914D01*
X115903333Y-49442914D02*
X115808095Y-49490533D01*
X115474761Y-72940057D02*
X115379523Y-72892438D01*
X115379523Y-72892438D02*
X115284285Y-72797200D01*
X115284285Y-72797200D02*
X115141428Y-72654342D01*
X115141428Y-72654342D02*
X115046190Y-72606723D01*
X115046190Y-72606723D02*
X114950952Y-72606723D01*
X114998571Y-72844819D02*
X114903333Y-72797200D01*
X114903333Y-72797200D02*
X114808095Y-72701961D01*
X114808095Y-72701961D02*
X114760476Y-72511485D01*
X114760476Y-72511485D02*
X114760476Y-72178152D01*
X114760476Y-72178152D02*
X114808095Y-71987676D01*
X114808095Y-71987676D02*
X114903333Y-71892438D01*
X114903333Y-71892438D02*
X114998571Y-71844819D01*
X114998571Y-71844819D02*
X115189047Y-71844819D01*
X115189047Y-71844819D02*
X115284285Y-71892438D01*
X115284285Y-71892438D02*
X115379523Y-71987676D01*
X115379523Y-71987676D02*
X115427142Y-72178152D01*
X115427142Y-72178152D02*
X115427142Y-72511485D01*
X115427142Y-72511485D02*
X115379523Y-72701961D01*
X115379523Y-72701961D02*
X115284285Y-72797200D01*
X115284285Y-72797200D02*
X115189047Y-72844819D01*
X115189047Y-72844819D02*
X114998571Y-72844819D01*
X116379523Y-72844819D02*
X115808095Y-72844819D01*
X116093809Y-72844819D02*
X116093809Y-71844819D01*
X116093809Y-71844819D02*
X115998571Y-71987676D01*
X115998571Y-71987676D02*
X115903333Y-72082914D01*
X115903333Y-72082914D02*
X115808095Y-72130533D01*
X124126666Y-52794819D02*
X124126666Y-53509104D01*
X124126666Y-53509104D02*
X124079047Y-53651961D01*
X124079047Y-53651961D02*
X123983809Y-53747200D01*
X123983809Y-53747200D02*
X123840952Y-53794819D01*
X123840952Y-53794819D02*
X123745714Y-53794819D01*
X124555238Y-52890057D02*
X124602857Y-52842438D01*
X124602857Y-52842438D02*
X124698095Y-52794819D01*
X124698095Y-52794819D02*
X124936190Y-52794819D01*
X124936190Y-52794819D02*
X125031428Y-52842438D01*
X125031428Y-52842438D02*
X125079047Y-52890057D01*
X125079047Y-52890057D02*
X125126666Y-52985295D01*
X125126666Y-52985295D02*
X125126666Y-53080533D01*
X125126666Y-53080533D02*
X125079047Y-53223390D01*
X125079047Y-53223390D02*
X124507619Y-53794819D01*
X124507619Y-53794819D02*
X125126666Y-53794819D01*
X106346666Y-52794819D02*
X106346666Y-53509104D01*
X106346666Y-53509104D02*
X106299047Y-53651961D01*
X106299047Y-53651961D02*
X106203809Y-53747200D01*
X106203809Y-53747200D02*
X106060952Y-53794819D01*
X106060952Y-53794819D02*
X105965714Y-53794819D01*
X107346666Y-53794819D02*
X106775238Y-53794819D01*
X107060952Y-53794819D02*
X107060952Y-52794819D01*
X107060952Y-52794819D02*
X106965714Y-52937676D01*
X106965714Y-52937676D02*
X106870476Y-53032914D01*
X106870476Y-53032914D02*
X106775238Y-53080533D01*
D11*
%TO.C,R1*%
X112300000Y-62130000D02*
X112300000Y-62460000D01*
X118840000Y-64870000D02*
X112300000Y-64870000D01*
X118840000Y-62130000D02*
X112300000Y-62130000D01*
X118840000Y-62460000D02*
X118840000Y-62130000D01*
X118840000Y-64540000D02*
X118840000Y-64870000D01*
X112300000Y-64870000D02*
X112300000Y-64540000D01*
%TO.C,U1*%
X118220000Y-50750000D02*
X116570000Y-50750000D01*
X112920000Y-50750000D02*
X112920000Y-61030000D01*
X118220000Y-61030000D02*
X118220000Y-50750000D01*
X114570000Y-50750000D02*
X112920000Y-50750000D01*
X112920000Y-61030000D02*
X118220000Y-61030000D01*
X114570000Y-50750000D02*
G75*
G03*
X116570000Y-50750000I1000000J0D01*
G01*
%TO.C,Q1*%
X110450000Y-67765000D02*
X120690000Y-67765000D01*
X120690000Y-66255000D02*
X120690000Y-70896000D01*
X110450000Y-70896000D02*
X120690000Y-70896000D01*
X110450000Y-66255000D02*
X110450000Y-70896000D01*
X117421000Y-66255000D02*
X117421000Y-67765000D01*
X113720000Y-66255000D02*
X113720000Y-67765000D01*
X110450000Y-66255000D02*
X120690000Y-66255000D01*
%TO.C,J2*%
X122050000Y-61760000D02*
X122050000Y-60160000D01*
X127470000Y-63500000D02*
X126470000Y-63500000D01*
X121450000Y-56680000D02*
X122050000Y-56680000D01*
X122050000Y-57620000D02*
X121450000Y-57620000D01*
X127470000Y-63250000D02*
X126470000Y-63250000D01*
X122050000Y-60160000D02*
X121450000Y-60160000D01*
X125940000Y-63250000D02*
X125940000Y-56130000D01*
X127470000Y-64880000D02*
X127470000Y-54500000D01*
X126470000Y-63500000D02*
X125940000Y-63250000D01*
X122480000Y-65170000D02*
X126480000Y-65170000D01*
X122050000Y-56680000D02*
X122050000Y-55080000D01*
X122050000Y-59220000D02*
X122050000Y-57620000D01*
X127470000Y-54500000D02*
X121450000Y-54500000D01*
X126470000Y-63500000D02*
X126470000Y-55880000D01*
X121450000Y-59220000D02*
X122050000Y-59220000D01*
X121450000Y-61760000D02*
X122050000Y-61760000D01*
X121450000Y-64300000D02*
X122050000Y-64300000D01*
X126470000Y-55880000D02*
X127470000Y-55880000D01*
X122050000Y-55080000D02*
X121450000Y-55080000D01*
X122050000Y-62700000D02*
X121450000Y-62700000D01*
X125940000Y-56130000D02*
X126470000Y-55880000D01*
X122050000Y-64300000D02*
X122050000Y-62700000D01*
X127470000Y-56130000D02*
X126470000Y-56130000D01*
X121450000Y-64880000D02*
X127470000Y-64880000D01*
X121450000Y-54500000D02*
X121450000Y-64880000D01*
%TO.C,J1*%
X109110000Y-57620000D02*
X109110000Y-59220000D01*
X103690000Y-55880000D02*
X104690000Y-55880000D01*
X109710000Y-62700000D02*
X109110000Y-62700000D01*
X109110000Y-61760000D02*
X109710000Y-61760000D01*
X103690000Y-56130000D02*
X104690000Y-56130000D01*
X109110000Y-59220000D02*
X109710000Y-59220000D01*
X105220000Y-56130000D02*
X105220000Y-63250000D01*
X103690000Y-54500000D02*
X103690000Y-64880000D01*
X104690000Y-55880000D02*
X105220000Y-56130000D01*
X108680000Y-54210000D02*
X104680000Y-54210000D01*
X109110000Y-62700000D02*
X109110000Y-64300000D01*
X109110000Y-60160000D02*
X109110000Y-61760000D01*
X103690000Y-64880000D02*
X109710000Y-64880000D01*
X104690000Y-55880000D02*
X104690000Y-63500000D01*
X109710000Y-60160000D02*
X109110000Y-60160000D01*
X109710000Y-57620000D02*
X109110000Y-57620000D01*
X109710000Y-55080000D02*
X109110000Y-55080000D01*
X104690000Y-63500000D02*
X103690000Y-63500000D01*
X109110000Y-64300000D02*
X109710000Y-64300000D01*
X109110000Y-56680000D02*
X109710000Y-56680000D01*
X105220000Y-63250000D02*
X104690000Y-63500000D01*
X109110000Y-55080000D02*
X109110000Y-56680000D01*
X103690000Y-63250000D02*
X104690000Y-63250000D01*
X109710000Y-54500000D02*
X103690000Y-54500000D01*
X109710000Y-64880000D02*
X109710000Y-54500000D01*
%TD*%
%LPC*%
D12*
%TO.C,R1*%
X119380000Y-63500000D03*
D13*
X111760000Y-63500000D03*
%TD*%
D14*
%TO.C,REF\u002A\u002A*%
X125730000Y-69850000D03*
%TD*%
%TO.C,REF\u002A\u002A*%
X105410000Y-69850000D03*
%TD*%
%TO.C,REF\u002A\u002A*%
X125730000Y-49530000D03*
%TD*%
%TO.C,REF\u002A\u002A*%
X105410000Y-49530000D03*
%TD*%
D15*
%TO.C,U1*%
X111760000Y-52080000D03*
D13*
X111760000Y-54620000D03*
X111760000Y-57160000D03*
X111760000Y-59700000D03*
X119380000Y-59700000D03*
X119380000Y-57160000D03*
X119380000Y-54620000D03*
X119380000Y-52080000D03*
%TD*%
D16*
%TO.C,Q1*%
X118110000Y-69525000D03*
X115570000Y-69525000D03*
D17*
X113030000Y-69525000D03*
%TD*%
D18*
%TO.C,J2*%
X124480000Y-63500000D03*
D19*
X124480000Y-60960000D03*
X124480000Y-58420000D03*
X124480000Y-55880000D03*
%TD*%
D20*
%TO.C,J1*%
X106680000Y-55880000D03*
D19*
X106680000Y-58420000D03*
X106680000Y-60960000D03*
X106680000Y-63500000D03*
%TD*%
%LPD*%
M02*
