%TF.GenerationSoftware,KiCad,Pcbnew,7.0.7*%
%TF.CreationDate,2023-09-21T14:14:26-05:00*%
%TF.ProjectId,iowa-rover,696f7761-2d72-46f7-9665-722e6b696361,rev?*%
%TF.SameCoordinates,Original*%
%TF.FileFunction,Drillmap*%
%TF.FilePolarity,Positive*%
%FSLAX45Y45*%
G04 Gerber Fmt 4.5, Leading zero omitted, Abs format (unit mm)*
G04 Created by KiCad (PCBNEW 7.0.7) date 2023-09-21 14:14:26*
%MOMM*%
%LPD*%
G01*
G04 APERTURE LIST*
%ADD10C,0.100000*%
%ADD11C,0.200000*%
%ADD12C,0.250000*%
G04 APERTURE END LIST*
D10*
X3911600Y-6075400D02*
X9537700Y-6075400D01*
X9537700Y-15667000D01*
X3911600Y-15667000D01*
X3911600Y-6075400D01*
D11*
D12*
X4175000Y-6325000D02*
X4425000Y-6575000D01*
X4425000Y-6325000D02*
X4175000Y-6575000D01*
X4175000Y-15175000D02*
X4425000Y-15425000D01*
X4425000Y-15175000D02*
X4175000Y-15425000D01*
X8975000Y-6325000D02*
X9225000Y-6575000D01*
X9225000Y-6325000D02*
X8975000Y-6575000D01*
X8975000Y-15175000D02*
X9225000Y-15425000D01*
X9225000Y-15175000D02*
X8975000Y-15425000D01*
D11*
X4167377Y-15983484D02*
X4167377Y-15783484D01*
X4167377Y-15783484D02*
X4214996Y-15783484D01*
X4214996Y-15783484D02*
X4243567Y-15793008D01*
X4243567Y-15793008D02*
X4262615Y-15812055D01*
X4262615Y-15812055D02*
X4272139Y-15831103D01*
X4272139Y-15831103D02*
X4281663Y-15869198D01*
X4281663Y-15869198D02*
X4281663Y-15897769D01*
X4281663Y-15897769D02*
X4272139Y-15935865D01*
X4272139Y-15935865D02*
X4262615Y-15954912D01*
X4262615Y-15954912D02*
X4243567Y-15973960D01*
X4243567Y-15973960D02*
X4214996Y-15983484D01*
X4214996Y-15983484D02*
X4167377Y-15983484D01*
X4367377Y-15983484D02*
X4367377Y-15850150D01*
X4367377Y-15888246D02*
X4376901Y-15869198D01*
X4376901Y-15869198D02*
X4386424Y-15859674D01*
X4386424Y-15859674D02*
X4405472Y-15850150D01*
X4405472Y-15850150D02*
X4424520Y-15850150D01*
X4491186Y-15983484D02*
X4491186Y-15850150D01*
X4491186Y-15783484D02*
X4481663Y-15793008D01*
X4481663Y-15793008D02*
X4491186Y-15802531D01*
X4491186Y-15802531D02*
X4500710Y-15793008D01*
X4500710Y-15793008D02*
X4491186Y-15783484D01*
X4491186Y-15783484D02*
X4491186Y-15802531D01*
X4614996Y-15983484D02*
X4595948Y-15973960D01*
X4595948Y-15973960D02*
X4586424Y-15954912D01*
X4586424Y-15954912D02*
X4586424Y-15783484D01*
X4719758Y-15983484D02*
X4700710Y-15973960D01*
X4700710Y-15973960D02*
X4691186Y-15954912D01*
X4691186Y-15954912D02*
X4691186Y-15783484D01*
X4948329Y-15983484D02*
X4948329Y-15783484D01*
X4948329Y-15783484D02*
X5014996Y-15926341D01*
X5014996Y-15926341D02*
X5081663Y-15783484D01*
X5081663Y-15783484D02*
X5081663Y-15983484D01*
X5262615Y-15983484D02*
X5262615Y-15878722D01*
X5262615Y-15878722D02*
X5253091Y-15859674D01*
X5253091Y-15859674D02*
X5234044Y-15850150D01*
X5234044Y-15850150D02*
X5195948Y-15850150D01*
X5195948Y-15850150D02*
X5176901Y-15859674D01*
X5262615Y-15973960D02*
X5243567Y-15983484D01*
X5243567Y-15983484D02*
X5195948Y-15983484D01*
X5195948Y-15983484D02*
X5176901Y-15973960D01*
X5176901Y-15973960D02*
X5167377Y-15954912D01*
X5167377Y-15954912D02*
X5167377Y-15935865D01*
X5167377Y-15935865D02*
X5176901Y-15916817D01*
X5176901Y-15916817D02*
X5195948Y-15907293D01*
X5195948Y-15907293D02*
X5243567Y-15907293D01*
X5243567Y-15907293D02*
X5262615Y-15897769D01*
X5357853Y-15850150D02*
X5357853Y-16050150D01*
X5357853Y-15859674D02*
X5376901Y-15850150D01*
X5376901Y-15850150D02*
X5414996Y-15850150D01*
X5414996Y-15850150D02*
X5434044Y-15859674D01*
X5434044Y-15859674D02*
X5443567Y-15869198D01*
X5443567Y-15869198D02*
X5453091Y-15888246D01*
X5453091Y-15888246D02*
X5453091Y-15945388D01*
X5453091Y-15945388D02*
X5443567Y-15964436D01*
X5443567Y-15964436D02*
X5434044Y-15973960D01*
X5434044Y-15973960D02*
X5414996Y-15983484D01*
X5414996Y-15983484D02*
X5376901Y-15983484D01*
X5376901Y-15983484D02*
X5357853Y-15973960D01*
X5538805Y-15964436D02*
X5548329Y-15973960D01*
X5548329Y-15973960D02*
X5538805Y-15983484D01*
X5538805Y-15983484D02*
X5529282Y-15973960D01*
X5529282Y-15973960D02*
X5538805Y-15964436D01*
X5538805Y-15964436D02*
X5538805Y-15983484D01*
X5538805Y-15859674D02*
X5548329Y-15869198D01*
X5548329Y-15869198D02*
X5538805Y-15878722D01*
X5538805Y-15878722D02*
X5529282Y-15869198D01*
X5529282Y-15869198D02*
X5538805Y-15859674D01*
X5538805Y-15859674D02*
X5538805Y-15878722D01*
X3706600Y-16212000D02*
X3906600Y-16412000D01*
X3906600Y-16212000D02*
X3706600Y-16412000D01*
X4157853Y-16222531D02*
X4167377Y-16213008D01*
X4167377Y-16213008D02*
X4186424Y-16203484D01*
X4186424Y-16203484D02*
X4234044Y-16203484D01*
X4234044Y-16203484D02*
X4253091Y-16213008D01*
X4253091Y-16213008D02*
X4262615Y-16222531D01*
X4262615Y-16222531D02*
X4272139Y-16241579D01*
X4272139Y-16241579D02*
X4272139Y-16260627D01*
X4272139Y-16260627D02*
X4262615Y-16289198D01*
X4262615Y-16289198D02*
X4148329Y-16403484D01*
X4148329Y-16403484D02*
X4272139Y-16403484D01*
X4357853Y-16384436D02*
X4367377Y-16393960D01*
X4367377Y-16393960D02*
X4357853Y-16403484D01*
X4357853Y-16403484D02*
X4348329Y-16393960D01*
X4348329Y-16393960D02*
X4357853Y-16384436D01*
X4357853Y-16384436D02*
X4357853Y-16403484D01*
X4548329Y-16203484D02*
X4453091Y-16203484D01*
X4453091Y-16203484D02*
X4443567Y-16298722D01*
X4443567Y-16298722D02*
X4453091Y-16289198D01*
X4453091Y-16289198D02*
X4472139Y-16279674D01*
X4472139Y-16279674D02*
X4519758Y-16279674D01*
X4519758Y-16279674D02*
X4538805Y-16289198D01*
X4538805Y-16289198D02*
X4548329Y-16298722D01*
X4548329Y-16298722D02*
X4557853Y-16317769D01*
X4557853Y-16317769D02*
X4557853Y-16365388D01*
X4557853Y-16365388D02*
X4548329Y-16384436D01*
X4548329Y-16384436D02*
X4538805Y-16393960D01*
X4538805Y-16393960D02*
X4519758Y-16403484D01*
X4519758Y-16403484D02*
X4472139Y-16403484D01*
X4472139Y-16403484D02*
X4453091Y-16393960D01*
X4453091Y-16393960D02*
X4443567Y-16384436D01*
X4681663Y-16203484D02*
X4700710Y-16203484D01*
X4700710Y-16203484D02*
X4719758Y-16213008D01*
X4719758Y-16213008D02*
X4729282Y-16222531D01*
X4729282Y-16222531D02*
X4738805Y-16241579D01*
X4738805Y-16241579D02*
X4748329Y-16279674D01*
X4748329Y-16279674D02*
X4748329Y-16327293D01*
X4748329Y-16327293D02*
X4738805Y-16365388D01*
X4738805Y-16365388D02*
X4729282Y-16384436D01*
X4729282Y-16384436D02*
X4719758Y-16393960D01*
X4719758Y-16393960D02*
X4700710Y-16403484D01*
X4700710Y-16403484D02*
X4681663Y-16403484D01*
X4681663Y-16403484D02*
X4662615Y-16393960D01*
X4662615Y-16393960D02*
X4653091Y-16384436D01*
X4653091Y-16384436D02*
X4643567Y-16365388D01*
X4643567Y-16365388D02*
X4634044Y-16327293D01*
X4634044Y-16327293D02*
X4634044Y-16279674D01*
X4634044Y-16279674D02*
X4643567Y-16241579D01*
X4643567Y-16241579D02*
X4653091Y-16222531D01*
X4653091Y-16222531D02*
X4662615Y-16213008D01*
X4662615Y-16213008D02*
X4681663Y-16203484D01*
X4872139Y-16203484D02*
X4891186Y-16203484D01*
X4891186Y-16203484D02*
X4910234Y-16213008D01*
X4910234Y-16213008D02*
X4919758Y-16222531D01*
X4919758Y-16222531D02*
X4929282Y-16241579D01*
X4929282Y-16241579D02*
X4938805Y-16279674D01*
X4938805Y-16279674D02*
X4938805Y-16327293D01*
X4938805Y-16327293D02*
X4929282Y-16365388D01*
X4929282Y-16365388D02*
X4919758Y-16384436D01*
X4919758Y-16384436D02*
X4910234Y-16393960D01*
X4910234Y-16393960D02*
X4891186Y-16403484D01*
X4891186Y-16403484D02*
X4872139Y-16403484D01*
X4872139Y-16403484D02*
X4853091Y-16393960D01*
X4853091Y-16393960D02*
X4843567Y-16384436D01*
X4843567Y-16384436D02*
X4834044Y-16365388D01*
X4834044Y-16365388D02*
X4824520Y-16327293D01*
X4824520Y-16327293D02*
X4824520Y-16279674D01*
X4824520Y-16279674D02*
X4834044Y-16241579D01*
X4834044Y-16241579D02*
X4843567Y-16222531D01*
X4843567Y-16222531D02*
X4853091Y-16213008D01*
X4853091Y-16213008D02*
X4872139Y-16203484D01*
X5024520Y-16403484D02*
X5024520Y-16270150D01*
X5024520Y-16289198D02*
X5034044Y-16279674D01*
X5034044Y-16279674D02*
X5053091Y-16270150D01*
X5053091Y-16270150D02*
X5081663Y-16270150D01*
X5081663Y-16270150D02*
X5100710Y-16279674D01*
X5100710Y-16279674D02*
X5110234Y-16298722D01*
X5110234Y-16298722D02*
X5110234Y-16403484D01*
X5110234Y-16298722D02*
X5119758Y-16279674D01*
X5119758Y-16279674D02*
X5138805Y-16270150D01*
X5138805Y-16270150D02*
X5167377Y-16270150D01*
X5167377Y-16270150D02*
X5186425Y-16279674D01*
X5186425Y-16279674D02*
X5195948Y-16298722D01*
X5195948Y-16298722D02*
X5195948Y-16403484D01*
X5291186Y-16403484D02*
X5291186Y-16270150D01*
X5291186Y-16289198D02*
X5300710Y-16279674D01*
X5300710Y-16279674D02*
X5319758Y-16270150D01*
X5319758Y-16270150D02*
X5348329Y-16270150D01*
X5348329Y-16270150D02*
X5367377Y-16279674D01*
X5367377Y-16279674D02*
X5376901Y-16298722D01*
X5376901Y-16298722D02*
X5376901Y-16403484D01*
X5376901Y-16298722D02*
X5386425Y-16279674D01*
X5386425Y-16279674D02*
X5405472Y-16270150D01*
X5405472Y-16270150D02*
X5434044Y-16270150D01*
X5434044Y-16270150D02*
X5453091Y-16279674D01*
X5453091Y-16279674D02*
X5462615Y-16298722D01*
X5462615Y-16298722D02*
X5462615Y-16403484D01*
X5853091Y-16193960D02*
X5681663Y-16451103D01*
X6110234Y-16203484D02*
X6129282Y-16203484D01*
X6129282Y-16203484D02*
X6148329Y-16213008D01*
X6148329Y-16213008D02*
X6157853Y-16222531D01*
X6157853Y-16222531D02*
X6167377Y-16241579D01*
X6167377Y-16241579D02*
X6176901Y-16279674D01*
X6176901Y-16279674D02*
X6176901Y-16327293D01*
X6176901Y-16327293D02*
X6167377Y-16365388D01*
X6167377Y-16365388D02*
X6157853Y-16384436D01*
X6157853Y-16384436D02*
X6148329Y-16393960D01*
X6148329Y-16393960D02*
X6129282Y-16403484D01*
X6129282Y-16403484D02*
X6110234Y-16403484D01*
X6110234Y-16403484D02*
X6091186Y-16393960D01*
X6091186Y-16393960D02*
X6081663Y-16384436D01*
X6081663Y-16384436D02*
X6072139Y-16365388D01*
X6072139Y-16365388D02*
X6062615Y-16327293D01*
X6062615Y-16327293D02*
X6062615Y-16279674D01*
X6062615Y-16279674D02*
X6072139Y-16241579D01*
X6072139Y-16241579D02*
X6081663Y-16222531D01*
X6081663Y-16222531D02*
X6091186Y-16213008D01*
X6091186Y-16213008D02*
X6110234Y-16203484D01*
X6262615Y-16384436D02*
X6272139Y-16393960D01*
X6272139Y-16393960D02*
X6262615Y-16403484D01*
X6262615Y-16403484D02*
X6253091Y-16393960D01*
X6253091Y-16393960D02*
X6262615Y-16384436D01*
X6262615Y-16384436D02*
X6262615Y-16403484D01*
X6395948Y-16203484D02*
X6414996Y-16203484D01*
X6414996Y-16203484D02*
X6434044Y-16213008D01*
X6434044Y-16213008D02*
X6443567Y-16222531D01*
X6443567Y-16222531D02*
X6453091Y-16241579D01*
X6453091Y-16241579D02*
X6462615Y-16279674D01*
X6462615Y-16279674D02*
X6462615Y-16327293D01*
X6462615Y-16327293D02*
X6453091Y-16365388D01*
X6453091Y-16365388D02*
X6443567Y-16384436D01*
X6443567Y-16384436D02*
X6434044Y-16393960D01*
X6434044Y-16393960D02*
X6414996Y-16403484D01*
X6414996Y-16403484D02*
X6395948Y-16403484D01*
X6395948Y-16403484D02*
X6376901Y-16393960D01*
X6376901Y-16393960D02*
X6367377Y-16384436D01*
X6367377Y-16384436D02*
X6357853Y-16365388D01*
X6357853Y-16365388D02*
X6348329Y-16327293D01*
X6348329Y-16327293D02*
X6348329Y-16279674D01*
X6348329Y-16279674D02*
X6357853Y-16241579D01*
X6357853Y-16241579D02*
X6367377Y-16222531D01*
X6367377Y-16222531D02*
X6376901Y-16213008D01*
X6376901Y-16213008D02*
X6395948Y-16203484D01*
X6557853Y-16403484D02*
X6595948Y-16403484D01*
X6595948Y-16403484D02*
X6614996Y-16393960D01*
X6614996Y-16393960D02*
X6624520Y-16384436D01*
X6624520Y-16384436D02*
X6643567Y-16355865D01*
X6643567Y-16355865D02*
X6653091Y-16317769D01*
X6653091Y-16317769D02*
X6653091Y-16241579D01*
X6653091Y-16241579D02*
X6643567Y-16222531D01*
X6643567Y-16222531D02*
X6634044Y-16213008D01*
X6634044Y-16213008D02*
X6614996Y-16203484D01*
X6614996Y-16203484D02*
X6576901Y-16203484D01*
X6576901Y-16203484D02*
X6557853Y-16213008D01*
X6557853Y-16213008D02*
X6548329Y-16222531D01*
X6548329Y-16222531D02*
X6538806Y-16241579D01*
X6538806Y-16241579D02*
X6538806Y-16289198D01*
X6538806Y-16289198D02*
X6548329Y-16308246D01*
X6548329Y-16308246D02*
X6557853Y-16317769D01*
X6557853Y-16317769D02*
X6576901Y-16327293D01*
X6576901Y-16327293D02*
X6614996Y-16327293D01*
X6614996Y-16327293D02*
X6634044Y-16317769D01*
X6634044Y-16317769D02*
X6643567Y-16308246D01*
X6643567Y-16308246D02*
X6653091Y-16289198D01*
X6767377Y-16289198D02*
X6748329Y-16279674D01*
X6748329Y-16279674D02*
X6738806Y-16270150D01*
X6738806Y-16270150D02*
X6729282Y-16251103D01*
X6729282Y-16251103D02*
X6729282Y-16241579D01*
X6729282Y-16241579D02*
X6738806Y-16222531D01*
X6738806Y-16222531D02*
X6748329Y-16213008D01*
X6748329Y-16213008D02*
X6767377Y-16203484D01*
X6767377Y-16203484D02*
X6805472Y-16203484D01*
X6805472Y-16203484D02*
X6824520Y-16213008D01*
X6824520Y-16213008D02*
X6834044Y-16222531D01*
X6834044Y-16222531D02*
X6843567Y-16241579D01*
X6843567Y-16241579D02*
X6843567Y-16251103D01*
X6843567Y-16251103D02*
X6834044Y-16270150D01*
X6834044Y-16270150D02*
X6824520Y-16279674D01*
X6824520Y-16279674D02*
X6805472Y-16289198D01*
X6805472Y-16289198D02*
X6767377Y-16289198D01*
X6767377Y-16289198D02*
X6748329Y-16298722D01*
X6748329Y-16298722D02*
X6738806Y-16308246D01*
X6738806Y-16308246D02*
X6729282Y-16327293D01*
X6729282Y-16327293D02*
X6729282Y-16365388D01*
X6729282Y-16365388D02*
X6738806Y-16384436D01*
X6738806Y-16384436D02*
X6748329Y-16393960D01*
X6748329Y-16393960D02*
X6767377Y-16403484D01*
X6767377Y-16403484D02*
X6805472Y-16403484D01*
X6805472Y-16403484D02*
X6824520Y-16393960D01*
X6824520Y-16393960D02*
X6834044Y-16384436D01*
X6834044Y-16384436D02*
X6843567Y-16365388D01*
X6843567Y-16365388D02*
X6843567Y-16327293D01*
X6843567Y-16327293D02*
X6834044Y-16308246D01*
X6834044Y-16308246D02*
X6824520Y-16298722D01*
X6824520Y-16298722D02*
X6805472Y-16289198D01*
X7014996Y-16270150D02*
X7014996Y-16403484D01*
X6967377Y-16193960D02*
X6919758Y-16336817D01*
X6919758Y-16336817D02*
X7043567Y-16336817D01*
X7110234Y-16203484D02*
X7110234Y-16241579D01*
X7186425Y-16203484D02*
X7186425Y-16241579D01*
X7481663Y-16479674D02*
X7472139Y-16470150D01*
X7472139Y-16470150D02*
X7453091Y-16441579D01*
X7453091Y-16441579D02*
X7443568Y-16422531D01*
X7443568Y-16422531D02*
X7434044Y-16393960D01*
X7434044Y-16393960D02*
X7424520Y-16346341D01*
X7424520Y-16346341D02*
X7424520Y-16308246D01*
X7424520Y-16308246D02*
X7434044Y-16260627D01*
X7434044Y-16260627D02*
X7443568Y-16232055D01*
X7443568Y-16232055D02*
X7453091Y-16213008D01*
X7453091Y-16213008D02*
X7472139Y-16184436D01*
X7472139Y-16184436D02*
X7481663Y-16174912D01*
X7643568Y-16270150D02*
X7643568Y-16403484D01*
X7595948Y-16193960D02*
X7548329Y-16336817D01*
X7548329Y-16336817D02*
X7672139Y-16336817D01*
X7900710Y-16403484D02*
X7900710Y-16203484D01*
X7986425Y-16403484D02*
X7986425Y-16298722D01*
X7986425Y-16298722D02*
X7976901Y-16279674D01*
X7976901Y-16279674D02*
X7957853Y-16270150D01*
X7957853Y-16270150D02*
X7929282Y-16270150D01*
X7929282Y-16270150D02*
X7910234Y-16279674D01*
X7910234Y-16279674D02*
X7900710Y-16289198D01*
X8110234Y-16403484D02*
X8091187Y-16393960D01*
X8091187Y-16393960D02*
X8081663Y-16384436D01*
X8081663Y-16384436D02*
X8072139Y-16365388D01*
X8072139Y-16365388D02*
X8072139Y-16308246D01*
X8072139Y-16308246D02*
X8081663Y-16289198D01*
X8081663Y-16289198D02*
X8091187Y-16279674D01*
X8091187Y-16279674D02*
X8110234Y-16270150D01*
X8110234Y-16270150D02*
X8138806Y-16270150D01*
X8138806Y-16270150D02*
X8157853Y-16279674D01*
X8157853Y-16279674D02*
X8167377Y-16289198D01*
X8167377Y-16289198D02*
X8176901Y-16308246D01*
X8176901Y-16308246D02*
X8176901Y-16365388D01*
X8176901Y-16365388D02*
X8167377Y-16384436D01*
X8167377Y-16384436D02*
X8157853Y-16393960D01*
X8157853Y-16393960D02*
X8138806Y-16403484D01*
X8138806Y-16403484D02*
X8110234Y-16403484D01*
X8291187Y-16403484D02*
X8272139Y-16393960D01*
X8272139Y-16393960D02*
X8262615Y-16374912D01*
X8262615Y-16374912D02*
X8262615Y-16203484D01*
X8443568Y-16393960D02*
X8424520Y-16403484D01*
X8424520Y-16403484D02*
X8386425Y-16403484D01*
X8386425Y-16403484D02*
X8367377Y-16393960D01*
X8367377Y-16393960D02*
X8357853Y-16374912D01*
X8357853Y-16374912D02*
X8357853Y-16298722D01*
X8357853Y-16298722D02*
X8367377Y-16279674D01*
X8367377Y-16279674D02*
X8386425Y-16270150D01*
X8386425Y-16270150D02*
X8424520Y-16270150D01*
X8424520Y-16270150D02*
X8443568Y-16279674D01*
X8443568Y-16279674D02*
X8453092Y-16298722D01*
X8453092Y-16298722D02*
X8453092Y-16317769D01*
X8453092Y-16317769D02*
X8357853Y-16336817D01*
X8529282Y-16393960D02*
X8548330Y-16403484D01*
X8548330Y-16403484D02*
X8586425Y-16403484D01*
X8586425Y-16403484D02*
X8605473Y-16393960D01*
X8605473Y-16393960D02*
X8614996Y-16374912D01*
X8614996Y-16374912D02*
X8614996Y-16365388D01*
X8614996Y-16365388D02*
X8605473Y-16346341D01*
X8605473Y-16346341D02*
X8586425Y-16336817D01*
X8586425Y-16336817D02*
X8557853Y-16336817D01*
X8557853Y-16336817D02*
X8538806Y-16327293D01*
X8538806Y-16327293D02*
X8529282Y-16308246D01*
X8529282Y-16308246D02*
X8529282Y-16298722D01*
X8529282Y-16298722D02*
X8538806Y-16279674D01*
X8538806Y-16279674D02*
X8557853Y-16270150D01*
X8557853Y-16270150D02*
X8586425Y-16270150D01*
X8586425Y-16270150D02*
X8605473Y-16279674D01*
X8681663Y-16479674D02*
X8691187Y-16470150D01*
X8691187Y-16470150D02*
X8710234Y-16441579D01*
X8710234Y-16441579D02*
X8719758Y-16422531D01*
X8719758Y-16422531D02*
X8729282Y-16393960D01*
X8729282Y-16393960D02*
X8738806Y-16346341D01*
X8738806Y-16346341D02*
X8738806Y-16308246D01*
X8738806Y-16308246D02*
X8729282Y-16260627D01*
X8729282Y-16260627D02*
X8719758Y-16232055D01*
X8719758Y-16232055D02*
X8710234Y-16213008D01*
X8710234Y-16213008D02*
X8691187Y-16184436D01*
X8691187Y-16184436D02*
X8681663Y-16174912D01*
X9043568Y-16479674D02*
X9034044Y-16470150D01*
X9034044Y-16470150D02*
X9014996Y-16441579D01*
X9014996Y-16441579D02*
X9005473Y-16422531D01*
X9005473Y-16422531D02*
X8995949Y-16393960D01*
X8995949Y-16393960D02*
X8986425Y-16346341D01*
X8986425Y-16346341D02*
X8986425Y-16308246D01*
X8986425Y-16308246D02*
X8995949Y-16260627D01*
X8995949Y-16260627D02*
X9005473Y-16232055D01*
X9005473Y-16232055D02*
X9014996Y-16213008D01*
X9014996Y-16213008D02*
X9034044Y-16184436D01*
X9034044Y-16184436D02*
X9043568Y-16174912D01*
X9119758Y-16270150D02*
X9119758Y-16403484D01*
X9119758Y-16289198D02*
X9129282Y-16279674D01*
X9129282Y-16279674D02*
X9148330Y-16270150D01*
X9148330Y-16270150D02*
X9176901Y-16270150D01*
X9176901Y-16270150D02*
X9195949Y-16279674D01*
X9195949Y-16279674D02*
X9205473Y-16298722D01*
X9205473Y-16298722D02*
X9205473Y-16403484D01*
X9329282Y-16403484D02*
X9310234Y-16393960D01*
X9310234Y-16393960D02*
X9300711Y-16384436D01*
X9300711Y-16384436D02*
X9291187Y-16365388D01*
X9291187Y-16365388D02*
X9291187Y-16308246D01*
X9291187Y-16308246D02*
X9300711Y-16289198D01*
X9300711Y-16289198D02*
X9310234Y-16279674D01*
X9310234Y-16279674D02*
X9329282Y-16270150D01*
X9329282Y-16270150D02*
X9357854Y-16270150D01*
X9357854Y-16270150D02*
X9376901Y-16279674D01*
X9376901Y-16279674D02*
X9386425Y-16289198D01*
X9386425Y-16289198D02*
X9395949Y-16308246D01*
X9395949Y-16308246D02*
X9395949Y-16365388D01*
X9395949Y-16365388D02*
X9386425Y-16384436D01*
X9386425Y-16384436D02*
X9376901Y-16393960D01*
X9376901Y-16393960D02*
X9357854Y-16403484D01*
X9357854Y-16403484D02*
X9329282Y-16403484D01*
X9453092Y-16270150D02*
X9529282Y-16270150D01*
X9481663Y-16203484D02*
X9481663Y-16374912D01*
X9481663Y-16374912D02*
X9491187Y-16393960D01*
X9491187Y-16393960D02*
X9510234Y-16403484D01*
X9510234Y-16403484D02*
X9529282Y-16403484D01*
X9748330Y-16270150D02*
X9748330Y-16470150D01*
X9748330Y-16279674D02*
X9767377Y-16270150D01*
X9767377Y-16270150D02*
X9805473Y-16270150D01*
X9805473Y-16270150D02*
X9824520Y-16279674D01*
X9824520Y-16279674D02*
X9834044Y-16289198D01*
X9834044Y-16289198D02*
X9843568Y-16308246D01*
X9843568Y-16308246D02*
X9843568Y-16365388D01*
X9843568Y-16365388D02*
X9834044Y-16384436D01*
X9834044Y-16384436D02*
X9824520Y-16393960D01*
X9824520Y-16393960D02*
X9805473Y-16403484D01*
X9805473Y-16403484D02*
X9767377Y-16403484D01*
X9767377Y-16403484D02*
X9748330Y-16393960D01*
X9957854Y-16403484D02*
X9938806Y-16393960D01*
X9938806Y-16393960D02*
X9929282Y-16374912D01*
X9929282Y-16374912D02*
X9929282Y-16203484D01*
X10119758Y-16403484D02*
X10119758Y-16298722D01*
X10119758Y-16298722D02*
X10110235Y-16279674D01*
X10110235Y-16279674D02*
X10091187Y-16270150D01*
X10091187Y-16270150D02*
X10053092Y-16270150D01*
X10053092Y-16270150D02*
X10034044Y-16279674D01*
X10119758Y-16393960D02*
X10100711Y-16403484D01*
X10100711Y-16403484D02*
X10053092Y-16403484D01*
X10053092Y-16403484D02*
X10034044Y-16393960D01*
X10034044Y-16393960D02*
X10024520Y-16374912D01*
X10024520Y-16374912D02*
X10024520Y-16355865D01*
X10024520Y-16355865D02*
X10034044Y-16336817D01*
X10034044Y-16336817D02*
X10053092Y-16327293D01*
X10053092Y-16327293D02*
X10100711Y-16327293D01*
X10100711Y-16327293D02*
X10119758Y-16317769D01*
X10186425Y-16270150D02*
X10262615Y-16270150D01*
X10214996Y-16203484D02*
X10214996Y-16374912D01*
X10214996Y-16374912D02*
X10224520Y-16393960D01*
X10224520Y-16393960D02*
X10243568Y-16403484D01*
X10243568Y-16403484D02*
X10262615Y-16403484D01*
X10405473Y-16393960D02*
X10386425Y-16403484D01*
X10386425Y-16403484D02*
X10348330Y-16403484D01*
X10348330Y-16403484D02*
X10329282Y-16393960D01*
X10329282Y-16393960D02*
X10319758Y-16374912D01*
X10319758Y-16374912D02*
X10319758Y-16298722D01*
X10319758Y-16298722D02*
X10329282Y-16279674D01*
X10329282Y-16279674D02*
X10348330Y-16270150D01*
X10348330Y-16270150D02*
X10386425Y-16270150D01*
X10386425Y-16270150D02*
X10405473Y-16279674D01*
X10405473Y-16279674D02*
X10414996Y-16298722D01*
X10414996Y-16298722D02*
X10414996Y-16317769D01*
X10414996Y-16317769D02*
X10319758Y-16336817D01*
X10586425Y-16403484D02*
X10586425Y-16203484D01*
X10586425Y-16393960D02*
X10567377Y-16403484D01*
X10567377Y-16403484D02*
X10529282Y-16403484D01*
X10529282Y-16403484D02*
X10510235Y-16393960D01*
X10510235Y-16393960D02*
X10500711Y-16384436D01*
X10500711Y-16384436D02*
X10491187Y-16365388D01*
X10491187Y-16365388D02*
X10491187Y-16308246D01*
X10491187Y-16308246D02*
X10500711Y-16289198D01*
X10500711Y-16289198D02*
X10510235Y-16279674D01*
X10510235Y-16279674D02*
X10529282Y-16270150D01*
X10529282Y-16270150D02*
X10567377Y-16270150D01*
X10567377Y-16270150D02*
X10586425Y-16279674D01*
X10662616Y-16479674D02*
X10672139Y-16470150D01*
X10672139Y-16470150D02*
X10691187Y-16441579D01*
X10691187Y-16441579D02*
X10700711Y-16422531D01*
X10700711Y-16422531D02*
X10710235Y-16393960D01*
X10710235Y-16393960D02*
X10719758Y-16346341D01*
X10719758Y-16346341D02*
X10719758Y-16308246D01*
X10719758Y-16308246D02*
X10710235Y-16260627D01*
X10710235Y-16260627D02*
X10700711Y-16232055D01*
X10700711Y-16232055D02*
X10691187Y-16213008D01*
X10691187Y-16213008D02*
X10672139Y-16184436D01*
X10672139Y-16184436D02*
X10662616Y-16174912D01*
M02*
