%TF.GenerationSoftware,KiCad,Pcbnew,7.0.7*%
%TF.CreationDate,2023-09-21T14:14:26-05:00*%
%TF.ProjectId,iowa-rover,696f7761-2d72-46f7-9665-722e6b696361,rev?*%
%TF.SameCoordinates,Original*%
%TF.FileFunction,Drillmap*%
%TF.FilePolarity,Positive*%
%FSLAX45Y45*%
G04 Gerber Fmt 4.5, Leading zero omitted, Abs format (unit mm)*
G04 Created by KiCad (PCBNEW 7.0.7) date 2023-09-21 14:14:26*
%MOMM*%
%LPD*%
G01*
G04 APERTURE LIST*
%ADD10C,0.100000*%
%ADD11C,0.200000*%
%ADD12C,0.060000*%
%ADD13C,0.076200*%
%ADD14C,0.080000*%
%ADD15C,0.152000*%
G04 APERTURE END LIST*
D10*
X3911600Y-6075400D02*
X9537700Y-6075400D01*
X9537700Y-15667000D01*
X3911600Y-15667000D01*
X3911600Y-6075400D01*
D11*
D12*
X4094000Y-6904000D02*
X4154000Y-6964000D01*
X4154000Y-6904000D02*
X4094000Y-6964000D01*
D11*
X4084000Y-6964000D02*
X4164000Y-6964000D01*
X4164000Y-6964000D02*
G75*
G03*
X4164000Y-6904000I0J30000D01*
G01*
X4164000Y-6904000D02*
X4084000Y-6904000D01*
X4084000Y-6904000D02*
G75*
G03*
X4084000Y-6964000I0J-30000D01*
G01*
D12*
X4094000Y-7768000D02*
X4154000Y-7828000D01*
X4154000Y-7768000D02*
X4094000Y-7828000D01*
D11*
X4084000Y-7828000D02*
X4164000Y-7828000D01*
X4164000Y-7828000D02*
G75*
G03*
X4164000Y-7768000I0J30000D01*
G01*
X4164000Y-7768000D02*
X4084000Y-7768000D01*
X4084000Y-7768000D02*
G75*
G03*
X4084000Y-7828000I0J-30000D01*
G01*
D12*
X4474000Y-6904000D02*
X4534000Y-6964000D01*
X4534000Y-6904000D02*
X4474000Y-6964000D01*
D11*
X4449000Y-6964000D02*
X4559000Y-6964000D01*
X4559000Y-6964000D02*
G75*
G03*
X4559000Y-6904000I0J30000D01*
G01*
X4559000Y-6904000D02*
X4449000Y-6904000D01*
X4449000Y-6904000D02*
G75*
G03*
X4449000Y-6964000I0J-30000D01*
G01*
D12*
X4474000Y-7768000D02*
X4534000Y-7828000D01*
X4534000Y-7768000D02*
X4474000Y-7828000D01*
D11*
X4449000Y-7828000D02*
X4559000Y-7828000D01*
X4559000Y-7828000D02*
G75*
G03*
X4559000Y-7768000I0J30000D01*
G01*
X4559000Y-7768000D02*
X4449000Y-7768000D01*
X4449000Y-7768000D02*
G75*
G03*
X4449000Y-7828000I0J-30000D01*
G01*
D13*
X4356100Y-13462000D02*
G75*
G03*
X4356100Y-13462000I-38100J0D01*
G01*
X4356100Y-13716000D02*
G75*
G03*
X4356100Y-13716000I-38100J0D01*
G01*
X4356100Y-13970000D02*
G75*
G03*
X4356100Y-13970000I-38100J0D01*
G01*
X4356100Y-14224000D02*
G75*
G03*
X4356100Y-14224000I-38100J0D01*
G01*
X4356100Y-14478000D02*
G75*
G03*
X4356100Y-14478000I-38100J0D01*
G01*
X5626100Y-8890000D02*
G75*
G03*
X5626100Y-8890000I-38100J0D01*
G01*
X5626100Y-9144000D02*
G75*
G03*
X5626100Y-9144000I-38100J0D01*
G01*
X5626100Y-9398000D02*
G75*
G03*
X5626100Y-9398000I-38100J0D01*
G01*
X5626100Y-9652000D02*
G75*
G03*
X5626100Y-9652000I-38100J0D01*
G01*
X5626100Y-9906000D02*
G75*
G03*
X5626100Y-9906000I-38100J0D01*
G01*
X5626100Y-10160000D02*
G75*
G03*
X5626100Y-10160000I-38100J0D01*
G01*
X6896100Y-12446000D02*
G75*
G03*
X6896100Y-12446000I-38100J0D01*
G01*
X6896100Y-12700000D02*
G75*
G03*
X6896100Y-12700000I-38100J0D01*
G01*
X6896100Y-12954000D02*
G75*
G03*
X6896100Y-12954000I-38100J0D01*
G01*
X6896100Y-13208000D02*
G75*
G03*
X6896100Y-13208000I-38100J0D01*
G01*
X6896100Y-13462000D02*
G75*
G03*
X6896100Y-13462000I-38100J0D01*
G01*
X6896100Y-13716000D02*
G75*
G03*
X6896100Y-13716000I-38100J0D01*
G01*
X6896100Y-13970000D02*
G75*
G03*
X6896100Y-13970000I-38100J0D01*
G01*
X6896100Y-14224000D02*
G75*
G03*
X6896100Y-14224000I-38100J0D01*
G01*
X6896100Y-14478000D02*
G75*
G03*
X6896100Y-14478000I-38100J0D01*
G01*
X7150100Y-8382000D02*
G75*
G03*
X7150100Y-8382000I-38100J0D01*
G01*
X7150100Y-8636000D02*
G75*
G03*
X7150100Y-8636000I-38100J0D01*
G01*
X7150100Y-8890000D02*
G75*
G03*
X7150100Y-8890000I-38100J0D01*
G01*
X7150100Y-9144000D02*
G75*
G03*
X7150100Y-9144000I-38100J0D01*
G01*
X7150100Y-9398000D02*
G75*
G03*
X7150100Y-9398000I-38100J0D01*
G01*
X7150100Y-9652000D02*
G75*
G03*
X7150100Y-9652000I-38100J0D01*
G01*
X7150100Y-9906000D02*
G75*
G03*
X7150100Y-9906000I-38100J0D01*
G01*
X7150100Y-10160000D02*
G75*
G03*
X7150100Y-10160000I-38100J0D01*
G01*
X7150100Y-10414000D02*
G75*
G03*
X7150100Y-10414000I-38100J0D01*
G01*
X7150100Y-10668000D02*
G75*
G03*
X7150100Y-10668000I-38100J0D01*
G01*
X7658100Y-10668000D02*
G75*
G03*
X7658100Y-10668000I-38100J0D01*
G01*
X7658100Y-10922000D02*
G75*
G03*
X7658100Y-10922000I-38100J0D01*
G01*
X7658100Y-11176000D02*
G75*
G03*
X7658100Y-11176000I-38100J0D01*
G01*
X7658100Y-11430000D02*
G75*
G03*
X7658100Y-11430000I-38100J0D01*
G01*
X7658100Y-11684000D02*
G75*
G03*
X7658100Y-11684000I-38100J0D01*
G01*
X7658100Y-11938000D02*
G75*
G03*
X7658100Y-11938000I-38100J0D01*
G01*
X7658100Y-12192000D02*
G75*
G03*
X7658100Y-12192000I-38100J0D01*
G01*
X7658100Y-12446000D02*
G75*
G03*
X7658100Y-12446000I-38100J0D01*
G01*
X7658100Y-12700000D02*
G75*
G03*
X7658100Y-12700000I-38100J0D01*
G01*
X7658100Y-12954000D02*
G75*
G03*
X7658100Y-12954000I-38100J0D01*
G01*
X7658100Y-13208000D02*
G75*
G03*
X7658100Y-13208000I-38100J0D01*
G01*
X7658100Y-13462000D02*
G75*
G03*
X7658100Y-13462000I-38100J0D01*
G01*
X7658100Y-13716000D02*
G75*
G03*
X7658100Y-13716000I-38100J0D01*
G01*
X7658100Y-13970000D02*
G75*
G03*
X7658100Y-13970000I-38100J0D01*
G01*
X8166100Y-8840000D02*
G75*
G03*
X8166100Y-8840000I-38100J0D01*
G01*
X8420100Y-8840000D02*
G75*
G03*
X8420100Y-8840000I-38100J0D01*
G01*
X8674100Y-8840000D02*
G75*
G03*
X8674100Y-8840000I-38100J0D01*
G01*
X9182100Y-10668000D02*
G75*
G03*
X9182100Y-10668000I-38100J0D01*
G01*
X9182100Y-10922000D02*
G75*
G03*
X9182100Y-10922000I-38100J0D01*
G01*
X9182100Y-11176000D02*
G75*
G03*
X9182100Y-11176000I-38100J0D01*
G01*
X9182100Y-11430000D02*
G75*
G03*
X9182100Y-11430000I-38100J0D01*
G01*
X9182100Y-11684000D02*
G75*
G03*
X9182100Y-11684000I-38100J0D01*
G01*
X9182100Y-11938000D02*
G75*
G03*
X9182100Y-11938000I-38100J0D01*
G01*
X9182100Y-12192000D02*
G75*
G03*
X9182100Y-12192000I-38100J0D01*
G01*
X9182100Y-12446000D02*
G75*
G03*
X9182100Y-12446000I-38100J0D01*
G01*
X9182100Y-12700000D02*
G75*
G03*
X9182100Y-12700000I-38100J0D01*
G01*
X9182100Y-12954000D02*
G75*
G03*
X9182100Y-12954000I-38100J0D01*
G01*
X9182100Y-13208000D02*
G75*
G03*
X9182100Y-13208000I-38100J0D01*
G01*
X9182100Y-13462000D02*
G75*
G03*
X9182100Y-13462000I-38100J0D01*
G01*
X9182100Y-13716000D02*
G75*
G03*
X9182100Y-13716000I-38100J0D01*
G01*
X9182100Y-13970000D02*
G75*
G03*
X9182100Y-13970000I-38100J0D01*
G01*
D14*
X4902200Y-7076000D02*
X4902200Y-7156000D01*
X4862200Y-7116000D02*
X4942200Y-7116000D01*
X4902200Y-7576000D02*
X4902200Y-7656000D01*
X4862200Y-7616000D02*
X4942200Y-7616000D01*
X5715000Y-7072000D02*
X5715000Y-7152000D01*
X5675000Y-7112000D02*
X5755000Y-7112000D01*
X5715000Y-7453000D02*
X5715000Y-7533000D01*
X5675000Y-7493000D02*
X5755000Y-7493000D01*
X6731000Y-7072000D02*
X6731000Y-7152000D01*
X6691000Y-7112000D02*
X6771000Y-7112000D01*
X6731000Y-7453000D02*
X6731000Y-7533000D01*
X6691000Y-7493000D02*
X6771000Y-7493000D01*
D15*
X4498741Y-8308741D02*
X4498741Y-8201259D01*
X4391259Y-8201259D01*
X4391259Y-8308741D01*
X4498741Y-8308741D01*
X4498741Y-8816741D02*
X4498741Y-8709259D01*
X4391259Y-8709259D01*
X4391259Y-8816741D01*
X4498741Y-8816741D01*
X4498741Y-9578741D02*
X4498741Y-9471259D01*
X4391259Y-9471259D01*
X4391259Y-9578741D01*
X4498741Y-9578741D01*
X4498741Y-10086741D02*
X4498741Y-9979259D01*
X4391259Y-9979259D01*
X4391259Y-10086741D01*
X4498741Y-10086741D01*
D11*
X4167377Y-15983484D02*
X4167377Y-15783484D01*
X4167377Y-15783484D02*
X4214996Y-15783484D01*
X4214996Y-15783484D02*
X4243567Y-15793008D01*
X4243567Y-15793008D02*
X4262615Y-15812055D01*
X4262615Y-15812055D02*
X4272139Y-15831103D01*
X4272139Y-15831103D02*
X4281663Y-15869198D01*
X4281663Y-15869198D02*
X4281663Y-15897769D01*
X4281663Y-15897769D02*
X4272139Y-15935865D01*
X4272139Y-15935865D02*
X4262615Y-15954912D01*
X4262615Y-15954912D02*
X4243567Y-15973960D01*
X4243567Y-15973960D02*
X4214996Y-15983484D01*
X4214996Y-15983484D02*
X4167377Y-15983484D01*
X4367377Y-15983484D02*
X4367377Y-15850150D01*
X4367377Y-15888246D02*
X4376901Y-15869198D01*
X4376901Y-15869198D02*
X4386424Y-15859674D01*
X4386424Y-15859674D02*
X4405472Y-15850150D01*
X4405472Y-15850150D02*
X4424520Y-15850150D01*
X4491186Y-15983484D02*
X4491186Y-15850150D01*
X4491186Y-15783484D02*
X4481663Y-15793008D01*
X4481663Y-15793008D02*
X4491186Y-15802531D01*
X4491186Y-15802531D02*
X4500710Y-15793008D01*
X4500710Y-15793008D02*
X4491186Y-15783484D01*
X4491186Y-15783484D02*
X4491186Y-15802531D01*
X4614996Y-15983484D02*
X4595948Y-15973960D01*
X4595948Y-15973960D02*
X4586424Y-15954912D01*
X4586424Y-15954912D02*
X4586424Y-15783484D01*
X4719758Y-15983484D02*
X4700710Y-15973960D01*
X4700710Y-15973960D02*
X4691186Y-15954912D01*
X4691186Y-15954912D02*
X4691186Y-15783484D01*
X4948329Y-15983484D02*
X4948329Y-15783484D01*
X4948329Y-15783484D02*
X5014996Y-15926341D01*
X5014996Y-15926341D02*
X5081663Y-15783484D01*
X5081663Y-15783484D02*
X5081663Y-15983484D01*
X5262615Y-15983484D02*
X5262615Y-15878722D01*
X5262615Y-15878722D02*
X5253091Y-15859674D01*
X5253091Y-15859674D02*
X5234044Y-15850150D01*
X5234044Y-15850150D02*
X5195948Y-15850150D01*
X5195948Y-15850150D02*
X5176901Y-15859674D01*
X5262615Y-15973960D02*
X5243567Y-15983484D01*
X5243567Y-15983484D02*
X5195948Y-15983484D01*
X5195948Y-15983484D02*
X5176901Y-15973960D01*
X5176901Y-15973960D02*
X5167377Y-15954912D01*
X5167377Y-15954912D02*
X5167377Y-15935865D01*
X5167377Y-15935865D02*
X5176901Y-15916817D01*
X5176901Y-15916817D02*
X5195948Y-15907293D01*
X5195948Y-15907293D02*
X5243567Y-15907293D01*
X5243567Y-15907293D02*
X5262615Y-15897769D01*
X5357853Y-15850150D02*
X5357853Y-16050150D01*
X5357853Y-15859674D02*
X5376901Y-15850150D01*
X5376901Y-15850150D02*
X5414996Y-15850150D01*
X5414996Y-15850150D02*
X5434044Y-15859674D01*
X5434044Y-15859674D02*
X5443567Y-15869198D01*
X5443567Y-15869198D02*
X5453091Y-15888246D01*
X5453091Y-15888246D02*
X5453091Y-15945388D01*
X5453091Y-15945388D02*
X5443567Y-15964436D01*
X5443567Y-15964436D02*
X5434044Y-15973960D01*
X5434044Y-15973960D02*
X5414996Y-15983484D01*
X5414996Y-15983484D02*
X5376901Y-15983484D01*
X5376901Y-15983484D02*
X5357853Y-15973960D01*
X5538805Y-15964436D02*
X5548329Y-15973960D01*
X5548329Y-15973960D02*
X5538805Y-15983484D01*
X5538805Y-15983484D02*
X5529282Y-15973960D01*
X5529282Y-15973960D02*
X5538805Y-15964436D01*
X5538805Y-15964436D02*
X5538805Y-15983484D01*
X5538805Y-15859674D02*
X5548329Y-15869198D01*
X5548329Y-15869198D02*
X5538805Y-15878722D01*
X5538805Y-15878722D02*
X5529282Y-15869198D01*
X5529282Y-15869198D02*
X5538805Y-15859674D01*
X5538805Y-15859674D02*
X5538805Y-15878722D01*
D12*
X3846600Y-16282000D02*
X3906600Y-16342000D01*
X3906600Y-16282000D02*
X3846600Y-16342000D01*
D11*
X4205472Y-16203484D02*
X4224520Y-16203484D01*
X4224520Y-16203484D02*
X4243567Y-16213008D01*
X4243567Y-16213008D02*
X4253091Y-16222531D01*
X4253091Y-16222531D02*
X4262615Y-16241579D01*
X4262615Y-16241579D02*
X4272139Y-16279674D01*
X4272139Y-16279674D02*
X4272139Y-16327293D01*
X4272139Y-16327293D02*
X4262615Y-16365388D01*
X4262615Y-16365388D02*
X4253091Y-16384436D01*
X4253091Y-16384436D02*
X4243567Y-16393960D01*
X4243567Y-16393960D02*
X4224520Y-16403484D01*
X4224520Y-16403484D02*
X4205472Y-16403484D01*
X4205472Y-16403484D02*
X4186424Y-16393960D01*
X4186424Y-16393960D02*
X4176901Y-16384436D01*
X4176901Y-16384436D02*
X4167377Y-16365388D01*
X4167377Y-16365388D02*
X4157853Y-16327293D01*
X4157853Y-16327293D02*
X4157853Y-16279674D01*
X4157853Y-16279674D02*
X4167377Y-16241579D01*
X4167377Y-16241579D02*
X4176901Y-16222531D01*
X4176901Y-16222531D02*
X4186424Y-16213008D01*
X4186424Y-16213008D02*
X4205472Y-16203484D01*
X4357853Y-16384436D02*
X4367377Y-16393960D01*
X4367377Y-16393960D02*
X4357853Y-16403484D01*
X4357853Y-16403484D02*
X4348329Y-16393960D01*
X4348329Y-16393960D02*
X4357853Y-16384436D01*
X4357853Y-16384436D02*
X4357853Y-16403484D01*
X4538805Y-16203484D02*
X4500710Y-16203484D01*
X4500710Y-16203484D02*
X4481663Y-16213008D01*
X4481663Y-16213008D02*
X4472139Y-16222531D01*
X4472139Y-16222531D02*
X4453091Y-16251103D01*
X4453091Y-16251103D02*
X4443567Y-16289198D01*
X4443567Y-16289198D02*
X4443567Y-16365388D01*
X4443567Y-16365388D02*
X4453091Y-16384436D01*
X4453091Y-16384436D02*
X4462615Y-16393960D01*
X4462615Y-16393960D02*
X4481663Y-16403484D01*
X4481663Y-16403484D02*
X4519758Y-16403484D01*
X4519758Y-16403484D02*
X4538805Y-16393960D01*
X4538805Y-16393960D02*
X4548329Y-16384436D01*
X4548329Y-16384436D02*
X4557853Y-16365388D01*
X4557853Y-16365388D02*
X4557853Y-16317769D01*
X4557853Y-16317769D02*
X4548329Y-16298722D01*
X4548329Y-16298722D02*
X4538805Y-16289198D01*
X4538805Y-16289198D02*
X4519758Y-16279674D01*
X4519758Y-16279674D02*
X4481663Y-16279674D01*
X4481663Y-16279674D02*
X4462615Y-16289198D01*
X4462615Y-16289198D02*
X4453091Y-16298722D01*
X4453091Y-16298722D02*
X4443567Y-16317769D01*
X4681663Y-16203484D02*
X4700710Y-16203484D01*
X4700710Y-16203484D02*
X4719758Y-16213008D01*
X4719758Y-16213008D02*
X4729282Y-16222531D01*
X4729282Y-16222531D02*
X4738805Y-16241579D01*
X4738805Y-16241579D02*
X4748329Y-16279674D01*
X4748329Y-16279674D02*
X4748329Y-16327293D01*
X4748329Y-16327293D02*
X4738805Y-16365388D01*
X4738805Y-16365388D02*
X4729282Y-16384436D01*
X4729282Y-16384436D02*
X4719758Y-16393960D01*
X4719758Y-16393960D02*
X4700710Y-16403484D01*
X4700710Y-16403484D02*
X4681663Y-16403484D01*
X4681663Y-16403484D02*
X4662615Y-16393960D01*
X4662615Y-16393960D02*
X4653091Y-16384436D01*
X4653091Y-16384436D02*
X4643567Y-16365388D01*
X4643567Y-16365388D02*
X4634044Y-16327293D01*
X4634044Y-16327293D02*
X4634044Y-16279674D01*
X4634044Y-16279674D02*
X4643567Y-16241579D01*
X4643567Y-16241579D02*
X4653091Y-16222531D01*
X4653091Y-16222531D02*
X4662615Y-16213008D01*
X4662615Y-16213008D02*
X4681663Y-16203484D01*
X4872139Y-16203484D02*
X4891186Y-16203484D01*
X4891186Y-16203484D02*
X4910234Y-16213008D01*
X4910234Y-16213008D02*
X4919758Y-16222531D01*
X4919758Y-16222531D02*
X4929282Y-16241579D01*
X4929282Y-16241579D02*
X4938805Y-16279674D01*
X4938805Y-16279674D02*
X4938805Y-16327293D01*
X4938805Y-16327293D02*
X4929282Y-16365388D01*
X4929282Y-16365388D02*
X4919758Y-16384436D01*
X4919758Y-16384436D02*
X4910234Y-16393960D01*
X4910234Y-16393960D02*
X4891186Y-16403484D01*
X4891186Y-16403484D02*
X4872139Y-16403484D01*
X4872139Y-16403484D02*
X4853091Y-16393960D01*
X4853091Y-16393960D02*
X4843567Y-16384436D01*
X4843567Y-16384436D02*
X4834044Y-16365388D01*
X4834044Y-16365388D02*
X4824520Y-16327293D01*
X4824520Y-16327293D02*
X4824520Y-16279674D01*
X4824520Y-16279674D02*
X4834044Y-16241579D01*
X4834044Y-16241579D02*
X4843567Y-16222531D01*
X4843567Y-16222531D02*
X4853091Y-16213008D01*
X4853091Y-16213008D02*
X4872139Y-16203484D01*
X5024520Y-16403484D02*
X5024520Y-16270150D01*
X5024520Y-16289198D02*
X5034044Y-16279674D01*
X5034044Y-16279674D02*
X5053091Y-16270150D01*
X5053091Y-16270150D02*
X5081663Y-16270150D01*
X5081663Y-16270150D02*
X5100710Y-16279674D01*
X5100710Y-16279674D02*
X5110234Y-16298722D01*
X5110234Y-16298722D02*
X5110234Y-16403484D01*
X5110234Y-16298722D02*
X5119758Y-16279674D01*
X5119758Y-16279674D02*
X5138805Y-16270150D01*
X5138805Y-16270150D02*
X5167377Y-16270150D01*
X5167377Y-16270150D02*
X5186425Y-16279674D01*
X5186425Y-16279674D02*
X5195948Y-16298722D01*
X5195948Y-16298722D02*
X5195948Y-16403484D01*
X5291186Y-16403484D02*
X5291186Y-16270150D01*
X5291186Y-16289198D02*
X5300710Y-16279674D01*
X5300710Y-16279674D02*
X5319758Y-16270150D01*
X5319758Y-16270150D02*
X5348329Y-16270150D01*
X5348329Y-16270150D02*
X5367377Y-16279674D01*
X5367377Y-16279674D02*
X5376901Y-16298722D01*
X5376901Y-16298722D02*
X5376901Y-16403484D01*
X5376901Y-16298722D02*
X5386425Y-16279674D01*
X5386425Y-16279674D02*
X5405472Y-16270150D01*
X5405472Y-16270150D02*
X5434044Y-16270150D01*
X5434044Y-16270150D02*
X5453091Y-16279674D01*
X5453091Y-16279674D02*
X5462615Y-16298722D01*
X5462615Y-16298722D02*
X5462615Y-16403484D01*
X5853091Y-16193960D02*
X5681663Y-16451103D01*
X6110234Y-16203484D02*
X6129282Y-16203484D01*
X6129282Y-16203484D02*
X6148329Y-16213008D01*
X6148329Y-16213008D02*
X6157853Y-16222531D01*
X6157853Y-16222531D02*
X6167377Y-16241579D01*
X6167377Y-16241579D02*
X6176901Y-16279674D01*
X6176901Y-16279674D02*
X6176901Y-16327293D01*
X6176901Y-16327293D02*
X6167377Y-16365388D01*
X6167377Y-16365388D02*
X6157853Y-16384436D01*
X6157853Y-16384436D02*
X6148329Y-16393960D01*
X6148329Y-16393960D02*
X6129282Y-16403484D01*
X6129282Y-16403484D02*
X6110234Y-16403484D01*
X6110234Y-16403484D02*
X6091186Y-16393960D01*
X6091186Y-16393960D02*
X6081663Y-16384436D01*
X6081663Y-16384436D02*
X6072139Y-16365388D01*
X6072139Y-16365388D02*
X6062615Y-16327293D01*
X6062615Y-16327293D02*
X6062615Y-16279674D01*
X6062615Y-16279674D02*
X6072139Y-16241579D01*
X6072139Y-16241579D02*
X6081663Y-16222531D01*
X6081663Y-16222531D02*
X6091186Y-16213008D01*
X6091186Y-16213008D02*
X6110234Y-16203484D01*
X6262615Y-16384436D02*
X6272139Y-16393960D01*
X6272139Y-16393960D02*
X6262615Y-16403484D01*
X6262615Y-16403484D02*
X6253091Y-16393960D01*
X6253091Y-16393960D02*
X6262615Y-16384436D01*
X6262615Y-16384436D02*
X6262615Y-16403484D01*
X6395948Y-16203484D02*
X6414996Y-16203484D01*
X6414996Y-16203484D02*
X6434044Y-16213008D01*
X6434044Y-16213008D02*
X6443567Y-16222531D01*
X6443567Y-16222531D02*
X6453091Y-16241579D01*
X6453091Y-16241579D02*
X6462615Y-16279674D01*
X6462615Y-16279674D02*
X6462615Y-16327293D01*
X6462615Y-16327293D02*
X6453091Y-16365388D01*
X6453091Y-16365388D02*
X6443567Y-16384436D01*
X6443567Y-16384436D02*
X6434044Y-16393960D01*
X6434044Y-16393960D02*
X6414996Y-16403484D01*
X6414996Y-16403484D02*
X6395948Y-16403484D01*
X6395948Y-16403484D02*
X6376901Y-16393960D01*
X6376901Y-16393960D02*
X6367377Y-16384436D01*
X6367377Y-16384436D02*
X6357853Y-16365388D01*
X6357853Y-16365388D02*
X6348329Y-16327293D01*
X6348329Y-16327293D02*
X6348329Y-16279674D01*
X6348329Y-16279674D02*
X6357853Y-16241579D01*
X6357853Y-16241579D02*
X6367377Y-16222531D01*
X6367377Y-16222531D02*
X6376901Y-16213008D01*
X6376901Y-16213008D02*
X6395948Y-16203484D01*
X6538806Y-16222531D02*
X6548329Y-16213008D01*
X6548329Y-16213008D02*
X6567377Y-16203484D01*
X6567377Y-16203484D02*
X6614996Y-16203484D01*
X6614996Y-16203484D02*
X6634044Y-16213008D01*
X6634044Y-16213008D02*
X6643567Y-16222531D01*
X6643567Y-16222531D02*
X6653091Y-16241579D01*
X6653091Y-16241579D02*
X6653091Y-16260627D01*
X6653091Y-16260627D02*
X6643567Y-16289198D01*
X6643567Y-16289198D02*
X6529282Y-16403484D01*
X6529282Y-16403484D02*
X6653091Y-16403484D01*
X6719758Y-16203484D02*
X6843567Y-16203484D01*
X6843567Y-16203484D02*
X6776901Y-16279674D01*
X6776901Y-16279674D02*
X6805472Y-16279674D01*
X6805472Y-16279674D02*
X6824520Y-16289198D01*
X6824520Y-16289198D02*
X6834044Y-16298722D01*
X6834044Y-16298722D02*
X6843567Y-16317769D01*
X6843567Y-16317769D02*
X6843567Y-16365388D01*
X6843567Y-16365388D02*
X6834044Y-16384436D01*
X6834044Y-16384436D02*
X6824520Y-16393960D01*
X6824520Y-16393960D02*
X6805472Y-16403484D01*
X6805472Y-16403484D02*
X6748329Y-16403484D01*
X6748329Y-16403484D02*
X6729282Y-16393960D01*
X6729282Y-16393960D02*
X6719758Y-16384436D01*
X7014996Y-16203484D02*
X6976901Y-16203484D01*
X6976901Y-16203484D02*
X6957853Y-16213008D01*
X6957853Y-16213008D02*
X6948329Y-16222531D01*
X6948329Y-16222531D02*
X6929282Y-16251103D01*
X6929282Y-16251103D02*
X6919758Y-16289198D01*
X6919758Y-16289198D02*
X6919758Y-16365388D01*
X6919758Y-16365388D02*
X6929282Y-16384436D01*
X6929282Y-16384436D02*
X6938806Y-16393960D01*
X6938806Y-16393960D02*
X6957853Y-16403484D01*
X6957853Y-16403484D02*
X6995948Y-16403484D01*
X6995948Y-16403484D02*
X7014996Y-16393960D01*
X7014996Y-16393960D02*
X7024520Y-16384436D01*
X7024520Y-16384436D02*
X7034044Y-16365388D01*
X7034044Y-16365388D02*
X7034044Y-16317769D01*
X7034044Y-16317769D02*
X7024520Y-16298722D01*
X7024520Y-16298722D02*
X7014996Y-16289198D01*
X7014996Y-16289198D02*
X6995948Y-16279674D01*
X6995948Y-16279674D02*
X6957853Y-16279674D01*
X6957853Y-16279674D02*
X6938806Y-16289198D01*
X6938806Y-16289198D02*
X6929282Y-16298722D01*
X6929282Y-16298722D02*
X6919758Y-16317769D01*
X7110234Y-16203484D02*
X7110234Y-16241579D01*
X7186425Y-16203484D02*
X7186425Y-16241579D01*
X7481663Y-16479674D02*
X7472139Y-16470150D01*
X7472139Y-16470150D02*
X7453091Y-16441579D01*
X7453091Y-16441579D02*
X7443568Y-16422531D01*
X7443568Y-16422531D02*
X7434044Y-16393960D01*
X7434044Y-16393960D02*
X7424520Y-16346341D01*
X7424520Y-16346341D02*
X7424520Y-16308246D01*
X7424520Y-16308246D02*
X7434044Y-16260627D01*
X7434044Y-16260627D02*
X7443568Y-16232055D01*
X7443568Y-16232055D02*
X7453091Y-16213008D01*
X7453091Y-16213008D02*
X7472139Y-16184436D01*
X7472139Y-16184436D02*
X7481663Y-16174912D01*
X7595948Y-16203484D02*
X7614996Y-16203484D01*
X7614996Y-16203484D02*
X7634044Y-16213008D01*
X7634044Y-16213008D02*
X7643568Y-16222531D01*
X7643568Y-16222531D02*
X7653091Y-16241579D01*
X7653091Y-16241579D02*
X7662615Y-16279674D01*
X7662615Y-16279674D02*
X7662615Y-16327293D01*
X7662615Y-16327293D02*
X7653091Y-16365388D01*
X7653091Y-16365388D02*
X7643568Y-16384436D01*
X7643568Y-16384436D02*
X7634044Y-16393960D01*
X7634044Y-16393960D02*
X7614996Y-16403484D01*
X7614996Y-16403484D02*
X7595948Y-16403484D01*
X7595948Y-16403484D02*
X7576901Y-16393960D01*
X7576901Y-16393960D02*
X7567377Y-16384436D01*
X7567377Y-16384436D02*
X7557853Y-16365388D01*
X7557853Y-16365388D02*
X7548329Y-16327293D01*
X7548329Y-16327293D02*
X7548329Y-16279674D01*
X7548329Y-16279674D02*
X7557853Y-16241579D01*
X7557853Y-16241579D02*
X7567377Y-16222531D01*
X7567377Y-16222531D02*
X7576901Y-16213008D01*
X7576901Y-16213008D02*
X7595948Y-16203484D01*
X7900710Y-16403484D02*
X7900710Y-16203484D01*
X7986425Y-16403484D02*
X7986425Y-16298722D01*
X7986425Y-16298722D02*
X7976901Y-16279674D01*
X7976901Y-16279674D02*
X7957853Y-16270150D01*
X7957853Y-16270150D02*
X7929282Y-16270150D01*
X7929282Y-16270150D02*
X7910234Y-16279674D01*
X7910234Y-16279674D02*
X7900710Y-16289198D01*
X8110234Y-16403484D02*
X8091187Y-16393960D01*
X8091187Y-16393960D02*
X8081663Y-16384436D01*
X8081663Y-16384436D02*
X8072139Y-16365388D01*
X8072139Y-16365388D02*
X8072139Y-16308246D01*
X8072139Y-16308246D02*
X8081663Y-16289198D01*
X8081663Y-16289198D02*
X8091187Y-16279674D01*
X8091187Y-16279674D02*
X8110234Y-16270150D01*
X8110234Y-16270150D02*
X8138806Y-16270150D01*
X8138806Y-16270150D02*
X8157853Y-16279674D01*
X8157853Y-16279674D02*
X8167377Y-16289198D01*
X8167377Y-16289198D02*
X8176901Y-16308246D01*
X8176901Y-16308246D02*
X8176901Y-16365388D01*
X8176901Y-16365388D02*
X8167377Y-16384436D01*
X8167377Y-16384436D02*
X8157853Y-16393960D01*
X8157853Y-16393960D02*
X8138806Y-16403484D01*
X8138806Y-16403484D02*
X8110234Y-16403484D01*
X8291187Y-16403484D02*
X8272139Y-16393960D01*
X8272139Y-16393960D02*
X8262615Y-16374912D01*
X8262615Y-16374912D02*
X8262615Y-16203484D01*
X8443568Y-16393960D02*
X8424520Y-16403484D01*
X8424520Y-16403484D02*
X8386425Y-16403484D01*
X8386425Y-16403484D02*
X8367377Y-16393960D01*
X8367377Y-16393960D02*
X8357853Y-16374912D01*
X8357853Y-16374912D02*
X8357853Y-16298722D01*
X8357853Y-16298722D02*
X8367377Y-16279674D01*
X8367377Y-16279674D02*
X8386425Y-16270150D01*
X8386425Y-16270150D02*
X8424520Y-16270150D01*
X8424520Y-16270150D02*
X8443568Y-16279674D01*
X8443568Y-16279674D02*
X8453092Y-16298722D01*
X8453092Y-16298722D02*
X8453092Y-16317769D01*
X8453092Y-16317769D02*
X8357853Y-16336817D01*
X8529282Y-16393960D02*
X8548330Y-16403484D01*
X8548330Y-16403484D02*
X8586425Y-16403484D01*
X8586425Y-16403484D02*
X8605473Y-16393960D01*
X8605473Y-16393960D02*
X8614996Y-16374912D01*
X8614996Y-16374912D02*
X8614996Y-16365388D01*
X8614996Y-16365388D02*
X8605473Y-16346341D01*
X8605473Y-16346341D02*
X8586425Y-16336817D01*
X8586425Y-16336817D02*
X8557853Y-16336817D01*
X8557853Y-16336817D02*
X8538806Y-16327293D01*
X8538806Y-16327293D02*
X8529282Y-16308246D01*
X8529282Y-16308246D02*
X8529282Y-16298722D01*
X8529282Y-16298722D02*
X8538806Y-16279674D01*
X8538806Y-16279674D02*
X8557853Y-16270150D01*
X8557853Y-16270150D02*
X8586425Y-16270150D01*
X8586425Y-16270150D02*
X8605473Y-16279674D01*
X8853092Y-16327293D02*
X9005473Y-16327293D01*
X8929282Y-16403484D02*
X8929282Y-16251103D01*
X9338806Y-16270150D02*
X9338806Y-16403484D01*
X9291187Y-16193960D02*
X9243568Y-16336817D01*
X9243568Y-16336817D02*
X9367377Y-16336817D01*
X9586425Y-16393960D02*
X9605473Y-16403484D01*
X9605473Y-16403484D02*
X9643568Y-16403484D01*
X9643568Y-16403484D02*
X9662616Y-16393960D01*
X9662616Y-16393960D02*
X9672139Y-16374912D01*
X9672139Y-16374912D02*
X9672139Y-16365388D01*
X9672139Y-16365388D02*
X9662616Y-16346341D01*
X9662616Y-16346341D02*
X9643568Y-16336817D01*
X9643568Y-16336817D02*
X9614996Y-16336817D01*
X9614996Y-16336817D02*
X9595949Y-16327293D01*
X9595949Y-16327293D02*
X9586425Y-16308246D01*
X9586425Y-16308246D02*
X9586425Y-16298722D01*
X9586425Y-16298722D02*
X9595949Y-16279674D01*
X9595949Y-16279674D02*
X9614996Y-16270150D01*
X9614996Y-16270150D02*
X9643568Y-16270150D01*
X9643568Y-16270150D02*
X9662616Y-16279674D01*
X9786425Y-16403484D02*
X9767377Y-16393960D01*
X9767377Y-16393960D02*
X9757854Y-16374912D01*
X9757854Y-16374912D02*
X9757854Y-16203484D01*
X9891187Y-16403484D02*
X9872139Y-16393960D01*
X9872139Y-16393960D02*
X9862616Y-16384436D01*
X9862616Y-16384436D02*
X9853092Y-16365388D01*
X9853092Y-16365388D02*
X9853092Y-16308246D01*
X9853092Y-16308246D02*
X9862616Y-16289198D01*
X9862616Y-16289198D02*
X9872139Y-16279674D01*
X9872139Y-16279674D02*
X9891187Y-16270150D01*
X9891187Y-16270150D02*
X9919758Y-16270150D01*
X9919758Y-16270150D02*
X9938806Y-16279674D01*
X9938806Y-16279674D02*
X9948330Y-16289198D01*
X9948330Y-16289198D02*
X9957854Y-16308246D01*
X9957854Y-16308246D02*
X9957854Y-16365388D01*
X9957854Y-16365388D02*
X9948330Y-16384436D01*
X9948330Y-16384436D02*
X9938806Y-16393960D01*
X9938806Y-16393960D02*
X9919758Y-16403484D01*
X9919758Y-16403484D02*
X9891187Y-16403484D01*
X10014997Y-16270150D02*
X10091187Y-16270150D01*
X10043568Y-16203484D02*
X10043568Y-16374912D01*
X10043568Y-16374912D02*
X10053092Y-16393960D01*
X10053092Y-16393960D02*
X10072139Y-16403484D01*
X10072139Y-16403484D02*
X10091187Y-16403484D01*
X10148330Y-16393960D02*
X10167377Y-16403484D01*
X10167377Y-16403484D02*
X10205473Y-16403484D01*
X10205473Y-16403484D02*
X10224520Y-16393960D01*
X10224520Y-16393960D02*
X10234044Y-16374912D01*
X10234044Y-16374912D02*
X10234044Y-16365388D01*
X10234044Y-16365388D02*
X10224520Y-16346341D01*
X10224520Y-16346341D02*
X10205473Y-16336817D01*
X10205473Y-16336817D02*
X10176901Y-16336817D01*
X10176901Y-16336817D02*
X10157854Y-16327293D01*
X10157854Y-16327293D02*
X10148330Y-16308246D01*
X10148330Y-16308246D02*
X10148330Y-16298722D01*
X10148330Y-16298722D02*
X10157854Y-16279674D01*
X10157854Y-16279674D02*
X10176901Y-16270150D01*
X10176901Y-16270150D02*
X10205473Y-16270150D01*
X10205473Y-16270150D02*
X10224520Y-16279674D01*
X10300711Y-16479674D02*
X10310235Y-16470150D01*
X10310235Y-16470150D02*
X10329282Y-16441579D01*
X10329282Y-16441579D02*
X10338806Y-16422531D01*
X10338806Y-16422531D02*
X10348330Y-16393960D01*
X10348330Y-16393960D02*
X10357854Y-16346341D01*
X10357854Y-16346341D02*
X10357854Y-16308246D01*
X10357854Y-16308246D02*
X10348330Y-16260627D01*
X10348330Y-16260627D02*
X10338806Y-16232055D01*
X10338806Y-16232055D02*
X10329282Y-16213008D01*
X10329282Y-16213008D02*
X10310235Y-16184436D01*
X10310235Y-16184436D02*
X10300711Y-16174912D01*
D13*
X3906600Y-16576000D02*
G75*
G03*
X3906600Y-16576000I-38100J0D01*
G01*
D11*
X4205472Y-16467484D02*
X4224520Y-16467484D01*
X4224520Y-16467484D02*
X4243567Y-16477008D01*
X4243567Y-16477008D02*
X4253091Y-16486531D01*
X4253091Y-16486531D02*
X4262615Y-16505579D01*
X4262615Y-16505579D02*
X4272139Y-16543674D01*
X4272139Y-16543674D02*
X4272139Y-16591293D01*
X4272139Y-16591293D02*
X4262615Y-16629388D01*
X4262615Y-16629388D02*
X4253091Y-16648436D01*
X4253091Y-16648436D02*
X4243567Y-16657960D01*
X4243567Y-16657960D02*
X4224520Y-16667484D01*
X4224520Y-16667484D02*
X4205472Y-16667484D01*
X4205472Y-16667484D02*
X4186424Y-16657960D01*
X4186424Y-16657960D02*
X4176901Y-16648436D01*
X4176901Y-16648436D02*
X4167377Y-16629388D01*
X4167377Y-16629388D02*
X4157853Y-16591293D01*
X4157853Y-16591293D02*
X4157853Y-16543674D01*
X4157853Y-16543674D02*
X4167377Y-16505579D01*
X4167377Y-16505579D02*
X4176901Y-16486531D01*
X4176901Y-16486531D02*
X4186424Y-16477008D01*
X4186424Y-16477008D02*
X4205472Y-16467484D01*
X4357853Y-16648436D02*
X4367377Y-16657960D01*
X4367377Y-16657960D02*
X4357853Y-16667484D01*
X4357853Y-16667484D02*
X4348329Y-16657960D01*
X4348329Y-16657960D02*
X4357853Y-16648436D01*
X4357853Y-16648436D02*
X4357853Y-16667484D01*
X4434044Y-16467484D02*
X4567377Y-16467484D01*
X4567377Y-16467484D02*
X4481663Y-16667484D01*
X4729282Y-16467484D02*
X4691186Y-16467484D01*
X4691186Y-16467484D02*
X4672139Y-16477008D01*
X4672139Y-16477008D02*
X4662615Y-16486531D01*
X4662615Y-16486531D02*
X4643567Y-16515103D01*
X4643567Y-16515103D02*
X4634044Y-16553198D01*
X4634044Y-16553198D02*
X4634044Y-16629388D01*
X4634044Y-16629388D02*
X4643567Y-16648436D01*
X4643567Y-16648436D02*
X4653091Y-16657960D01*
X4653091Y-16657960D02*
X4672139Y-16667484D01*
X4672139Y-16667484D02*
X4710234Y-16667484D01*
X4710234Y-16667484D02*
X4729282Y-16657960D01*
X4729282Y-16657960D02*
X4738805Y-16648436D01*
X4738805Y-16648436D02*
X4748329Y-16629388D01*
X4748329Y-16629388D02*
X4748329Y-16581769D01*
X4748329Y-16581769D02*
X4738805Y-16562722D01*
X4738805Y-16562722D02*
X4729282Y-16553198D01*
X4729282Y-16553198D02*
X4710234Y-16543674D01*
X4710234Y-16543674D02*
X4672139Y-16543674D01*
X4672139Y-16543674D02*
X4653091Y-16553198D01*
X4653091Y-16553198D02*
X4643567Y-16562722D01*
X4643567Y-16562722D02*
X4634044Y-16581769D01*
X4824520Y-16486531D02*
X4834044Y-16477008D01*
X4834044Y-16477008D02*
X4853091Y-16467484D01*
X4853091Y-16467484D02*
X4900710Y-16467484D01*
X4900710Y-16467484D02*
X4919758Y-16477008D01*
X4919758Y-16477008D02*
X4929282Y-16486531D01*
X4929282Y-16486531D02*
X4938805Y-16505579D01*
X4938805Y-16505579D02*
X4938805Y-16524627D01*
X4938805Y-16524627D02*
X4929282Y-16553198D01*
X4929282Y-16553198D02*
X4814996Y-16667484D01*
X4814996Y-16667484D02*
X4938805Y-16667484D01*
X5024520Y-16667484D02*
X5024520Y-16534150D01*
X5024520Y-16553198D02*
X5034044Y-16543674D01*
X5034044Y-16543674D02*
X5053091Y-16534150D01*
X5053091Y-16534150D02*
X5081663Y-16534150D01*
X5081663Y-16534150D02*
X5100710Y-16543674D01*
X5100710Y-16543674D02*
X5110234Y-16562722D01*
X5110234Y-16562722D02*
X5110234Y-16667484D01*
X5110234Y-16562722D02*
X5119758Y-16543674D01*
X5119758Y-16543674D02*
X5138805Y-16534150D01*
X5138805Y-16534150D02*
X5167377Y-16534150D01*
X5167377Y-16534150D02*
X5186425Y-16543674D01*
X5186425Y-16543674D02*
X5195948Y-16562722D01*
X5195948Y-16562722D02*
X5195948Y-16667484D01*
X5291186Y-16667484D02*
X5291186Y-16534150D01*
X5291186Y-16553198D02*
X5300710Y-16543674D01*
X5300710Y-16543674D02*
X5319758Y-16534150D01*
X5319758Y-16534150D02*
X5348329Y-16534150D01*
X5348329Y-16534150D02*
X5367377Y-16543674D01*
X5367377Y-16543674D02*
X5376901Y-16562722D01*
X5376901Y-16562722D02*
X5376901Y-16667484D01*
X5376901Y-16562722D02*
X5386425Y-16543674D01*
X5386425Y-16543674D02*
X5405472Y-16534150D01*
X5405472Y-16534150D02*
X5434044Y-16534150D01*
X5434044Y-16534150D02*
X5453091Y-16543674D01*
X5453091Y-16543674D02*
X5462615Y-16562722D01*
X5462615Y-16562722D02*
X5462615Y-16667484D01*
X5853091Y-16457960D02*
X5681663Y-16715103D01*
X6110234Y-16467484D02*
X6129282Y-16467484D01*
X6129282Y-16467484D02*
X6148329Y-16477008D01*
X6148329Y-16477008D02*
X6157853Y-16486531D01*
X6157853Y-16486531D02*
X6167377Y-16505579D01*
X6167377Y-16505579D02*
X6176901Y-16543674D01*
X6176901Y-16543674D02*
X6176901Y-16591293D01*
X6176901Y-16591293D02*
X6167377Y-16629388D01*
X6167377Y-16629388D02*
X6157853Y-16648436D01*
X6157853Y-16648436D02*
X6148329Y-16657960D01*
X6148329Y-16657960D02*
X6129282Y-16667484D01*
X6129282Y-16667484D02*
X6110234Y-16667484D01*
X6110234Y-16667484D02*
X6091186Y-16657960D01*
X6091186Y-16657960D02*
X6081663Y-16648436D01*
X6081663Y-16648436D02*
X6072139Y-16629388D01*
X6072139Y-16629388D02*
X6062615Y-16591293D01*
X6062615Y-16591293D02*
X6062615Y-16543674D01*
X6062615Y-16543674D02*
X6072139Y-16505579D01*
X6072139Y-16505579D02*
X6081663Y-16486531D01*
X6081663Y-16486531D02*
X6091186Y-16477008D01*
X6091186Y-16477008D02*
X6110234Y-16467484D01*
X6262615Y-16648436D02*
X6272139Y-16657960D01*
X6272139Y-16657960D02*
X6262615Y-16667484D01*
X6262615Y-16667484D02*
X6253091Y-16657960D01*
X6253091Y-16657960D02*
X6262615Y-16648436D01*
X6262615Y-16648436D02*
X6262615Y-16667484D01*
X6395948Y-16467484D02*
X6414996Y-16467484D01*
X6414996Y-16467484D02*
X6434044Y-16477008D01*
X6434044Y-16477008D02*
X6443567Y-16486531D01*
X6443567Y-16486531D02*
X6453091Y-16505579D01*
X6453091Y-16505579D02*
X6462615Y-16543674D01*
X6462615Y-16543674D02*
X6462615Y-16591293D01*
X6462615Y-16591293D02*
X6453091Y-16629388D01*
X6453091Y-16629388D02*
X6443567Y-16648436D01*
X6443567Y-16648436D02*
X6434044Y-16657960D01*
X6434044Y-16657960D02*
X6414996Y-16667484D01*
X6414996Y-16667484D02*
X6395948Y-16667484D01*
X6395948Y-16667484D02*
X6376901Y-16657960D01*
X6376901Y-16657960D02*
X6367377Y-16648436D01*
X6367377Y-16648436D02*
X6357853Y-16629388D01*
X6357853Y-16629388D02*
X6348329Y-16591293D01*
X6348329Y-16591293D02*
X6348329Y-16543674D01*
X6348329Y-16543674D02*
X6357853Y-16505579D01*
X6357853Y-16505579D02*
X6367377Y-16486531D01*
X6367377Y-16486531D02*
X6376901Y-16477008D01*
X6376901Y-16477008D02*
X6395948Y-16467484D01*
X6529282Y-16467484D02*
X6653091Y-16467484D01*
X6653091Y-16467484D02*
X6586425Y-16543674D01*
X6586425Y-16543674D02*
X6614996Y-16543674D01*
X6614996Y-16543674D02*
X6634044Y-16553198D01*
X6634044Y-16553198D02*
X6643567Y-16562722D01*
X6643567Y-16562722D02*
X6653091Y-16581769D01*
X6653091Y-16581769D02*
X6653091Y-16629388D01*
X6653091Y-16629388D02*
X6643567Y-16648436D01*
X6643567Y-16648436D02*
X6634044Y-16657960D01*
X6634044Y-16657960D02*
X6614996Y-16667484D01*
X6614996Y-16667484D02*
X6557853Y-16667484D01*
X6557853Y-16667484D02*
X6538806Y-16657960D01*
X6538806Y-16657960D02*
X6529282Y-16648436D01*
X6776901Y-16467484D02*
X6795948Y-16467484D01*
X6795948Y-16467484D02*
X6814996Y-16477008D01*
X6814996Y-16477008D02*
X6824520Y-16486531D01*
X6824520Y-16486531D02*
X6834044Y-16505579D01*
X6834044Y-16505579D02*
X6843567Y-16543674D01*
X6843567Y-16543674D02*
X6843567Y-16591293D01*
X6843567Y-16591293D02*
X6834044Y-16629388D01*
X6834044Y-16629388D02*
X6824520Y-16648436D01*
X6824520Y-16648436D02*
X6814996Y-16657960D01*
X6814996Y-16657960D02*
X6795948Y-16667484D01*
X6795948Y-16667484D02*
X6776901Y-16667484D01*
X6776901Y-16667484D02*
X6757853Y-16657960D01*
X6757853Y-16657960D02*
X6748329Y-16648436D01*
X6748329Y-16648436D02*
X6738806Y-16629388D01*
X6738806Y-16629388D02*
X6729282Y-16591293D01*
X6729282Y-16591293D02*
X6729282Y-16543674D01*
X6729282Y-16543674D02*
X6738806Y-16505579D01*
X6738806Y-16505579D02*
X6748329Y-16486531D01*
X6748329Y-16486531D02*
X6757853Y-16477008D01*
X6757853Y-16477008D02*
X6776901Y-16467484D01*
X6967377Y-16467484D02*
X6986425Y-16467484D01*
X6986425Y-16467484D02*
X7005472Y-16477008D01*
X7005472Y-16477008D02*
X7014996Y-16486531D01*
X7014996Y-16486531D02*
X7024520Y-16505579D01*
X7024520Y-16505579D02*
X7034044Y-16543674D01*
X7034044Y-16543674D02*
X7034044Y-16591293D01*
X7034044Y-16591293D02*
X7024520Y-16629388D01*
X7024520Y-16629388D02*
X7014996Y-16648436D01*
X7014996Y-16648436D02*
X7005472Y-16657960D01*
X7005472Y-16657960D02*
X6986425Y-16667484D01*
X6986425Y-16667484D02*
X6967377Y-16667484D01*
X6967377Y-16667484D02*
X6948329Y-16657960D01*
X6948329Y-16657960D02*
X6938806Y-16648436D01*
X6938806Y-16648436D02*
X6929282Y-16629388D01*
X6929282Y-16629388D02*
X6919758Y-16591293D01*
X6919758Y-16591293D02*
X6919758Y-16543674D01*
X6919758Y-16543674D02*
X6929282Y-16505579D01*
X6929282Y-16505579D02*
X6938806Y-16486531D01*
X6938806Y-16486531D02*
X6948329Y-16477008D01*
X6948329Y-16477008D02*
X6967377Y-16467484D01*
X7110234Y-16467484D02*
X7110234Y-16505579D01*
X7186425Y-16467484D02*
X7186425Y-16505579D01*
X7481663Y-16743674D02*
X7472139Y-16734150D01*
X7472139Y-16734150D02*
X7453091Y-16705579D01*
X7453091Y-16705579D02*
X7443568Y-16686531D01*
X7443568Y-16686531D02*
X7434044Y-16657960D01*
X7434044Y-16657960D02*
X7424520Y-16610341D01*
X7424520Y-16610341D02*
X7424520Y-16572246D01*
X7424520Y-16572246D02*
X7434044Y-16524627D01*
X7434044Y-16524627D02*
X7443568Y-16496055D01*
X7443568Y-16496055D02*
X7453091Y-16477008D01*
X7453091Y-16477008D02*
X7472139Y-16448436D01*
X7472139Y-16448436D02*
X7481663Y-16438912D01*
X7643568Y-16467484D02*
X7605472Y-16467484D01*
X7605472Y-16467484D02*
X7586425Y-16477008D01*
X7586425Y-16477008D02*
X7576901Y-16486531D01*
X7576901Y-16486531D02*
X7557853Y-16515103D01*
X7557853Y-16515103D02*
X7548329Y-16553198D01*
X7548329Y-16553198D02*
X7548329Y-16629388D01*
X7548329Y-16629388D02*
X7557853Y-16648436D01*
X7557853Y-16648436D02*
X7567377Y-16657960D01*
X7567377Y-16657960D02*
X7586425Y-16667484D01*
X7586425Y-16667484D02*
X7624520Y-16667484D01*
X7624520Y-16667484D02*
X7643568Y-16657960D01*
X7643568Y-16657960D02*
X7653091Y-16648436D01*
X7653091Y-16648436D02*
X7662615Y-16629388D01*
X7662615Y-16629388D02*
X7662615Y-16581769D01*
X7662615Y-16581769D02*
X7653091Y-16562722D01*
X7653091Y-16562722D02*
X7643568Y-16553198D01*
X7643568Y-16553198D02*
X7624520Y-16543674D01*
X7624520Y-16543674D02*
X7586425Y-16543674D01*
X7586425Y-16543674D02*
X7567377Y-16553198D01*
X7567377Y-16553198D02*
X7557853Y-16562722D01*
X7557853Y-16562722D02*
X7548329Y-16581769D01*
X7853091Y-16667484D02*
X7738806Y-16667484D01*
X7795948Y-16667484D02*
X7795948Y-16467484D01*
X7795948Y-16467484D02*
X7776901Y-16496055D01*
X7776901Y-16496055D02*
X7757853Y-16515103D01*
X7757853Y-16515103D02*
X7738806Y-16524627D01*
X8091187Y-16667484D02*
X8091187Y-16467484D01*
X8176901Y-16667484D02*
X8176901Y-16562722D01*
X8176901Y-16562722D02*
X8167377Y-16543674D01*
X8167377Y-16543674D02*
X8148330Y-16534150D01*
X8148330Y-16534150D02*
X8119758Y-16534150D01*
X8119758Y-16534150D02*
X8100710Y-16543674D01*
X8100710Y-16543674D02*
X8091187Y-16553198D01*
X8300710Y-16667484D02*
X8281663Y-16657960D01*
X8281663Y-16657960D02*
X8272139Y-16648436D01*
X8272139Y-16648436D02*
X8262615Y-16629388D01*
X8262615Y-16629388D02*
X8262615Y-16572246D01*
X8262615Y-16572246D02*
X8272139Y-16553198D01*
X8272139Y-16553198D02*
X8281663Y-16543674D01*
X8281663Y-16543674D02*
X8300710Y-16534150D01*
X8300710Y-16534150D02*
X8329282Y-16534150D01*
X8329282Y-16534150D02*
X8348330Y-16543674D01*
X8348330Y-16543674D02*
X8357853Y-16553198D01*
X8357853Y-16553198D02*
X8367377Y-16572246D01*
X8367377Y-16572246D02*
X8367377Y-16629388D01*
X8367377Y-16629388D02*
X8357853Y-16648436D01*
X8357853Y-16648436D02*
X8348330Y-16657960D01*
X8348330Y-16657960D02*
X8329282Y-16667484D01*
X8329282Y-16667484D02*
X8300710Y-16667484D01*
X8481663Y-16667484D02*
X8462615Y-16657960D01*
X8462615Y-16657960D02*
X8453092Y-16638912D01*
X8453092Y-16638912D02*
X8453092Y-16467484D01*
X8634044Y-16657960D02*
X8614996Y-16667484D01*
X8614996Y-16667484D02*
X8576901Y-16667484D01*
X8576901Y-16667484D02*
X8557853Y-16657960D01*
X8557853Y-16657960D02*
X8548330Y-16638912D01*
X8548330Y-16638912D02*
X8548330Y-16562722D01*
X8548330Y-16562722D02*
X8557853Y-16543674D01*
X8557853Y-16543674D02*
X8576901Y-16534150D01*
X8576901Y-16534150D02*
X8614996Y-16534150D01*
X8614996Y-16534150D02*
X8634044Y-16543674D01*
X8634044Y-16543674D02*
X8643568Y-16562722D01*
X8643568Y-16562722D02*
X8643568Y-16581769D01*
X8643568Y-16581769D02*
X8548330Y-16600817D01*
X8719758Y-16657960D02*
X8738806Y-16667484D01*
X8738806Y-16667484D02*
X8776901Y-16667484D01*
X8776901Y-16667484D02*
X8795949Y-16657960D01*
X8795949Y-16657960D02*
X8805473Y-16638912D01*
X8805473Y-16638912D02*
X8805473Y-16629388D01*
X8805473Y-16629388D02*
X8795949Y-16610341D01*
X8795949Y-16610341D02*
X8776901Y-16600817D01*
X8776901Y-16600817D02*
X8748330Y-16600817D01*
X8748330Y-16600817D02*
X8729282Y-16591293D01*
X8729282Y-16591293D02*
X8719758Y-16572246D01*
X8719758Y-16572246D02*
X8719758Y-16562722D01*
X8719758Y-16562722D02*
X8729282Y-16543674D01*
X8729282Y-16543674D02*
X8748330Y-16534150D01*
X8748330Y-16534150D02*
X8776901Y-16534150D01*
X8776901Y-16534150D02*
X8795949Y-16543674D01*
X8872139Y-16743674D02*
X8881663Y-16734150D01*
X8881663Y-16734150D02*
X8900711Y-16705579D01*
X8900711Y-16705579D02*
X8910234Y-16686531D01*
X8910234Y-16686531D02*
X8919758Y-16657960D01*
X8919758Y-16657960D02*
X8929282Y-16610341D01*
X8929282Y-16610341D02*
X8929282Y-16572246D01*
X8929282Y-16572246D02*
X8919758Y-16524627D01*
X8919758Y-16524627D02*
X8910234Y-16496055D01*
X8910234Y-16496055D02*
X8900711Y-16477008D01*
X8900711Y-16477008D02*
X8881663Y-16448436D01*
X8881663Y-16448436D02*
X8872139Y-16438912D01*
D14*
X3866600Y-16800000D02*
X3866600Y-16880000D01*
X3826600Y-16840000D02*
X3906600Y-16840000D01*
D11*
X4205472Y-16731484D02*
X4224520Y-16731484D01*
X4224520Y-16731484D02*
X4243567Y-16741008D01*
X4243567Y-16741008D02*
X4253091Y-16750531D01*
X4253091Y-16750531D02*
X4262615Y-16769579D01*
X4262615Y-16769579D02*
X4272139Y-16807674D01*
X4272139Y-16807674D02*
X4272139Y-16855293D01*
X4272139Y-16855293D02*
X4262615Y-16893389D01*
X4262615Y-16893389D02*
X4253091Y-16912436D01*
X4253091Y-16912436D02*
X4243567Y-16921960D01*
X4243567Y-16921960D02*
X4224520Y-16931484D01*
X4224520Y-16931484D02*
X4205472Y-16931484D01*
X4205472Y-16931484D02*
X4186424Y-16921960D01*
X4186424Y-16921960D02*
X4176901Y-16912436D01*
X4176901Y-16912436D02*
X4167377Y-16893389D01*
X4167377Y-16893389D02*
X4157853Y-16855293D01*
X4157853Y-16855293D02*
X4157853Y-16807674D01*
X4157853Y-16807674D02*
X4167377Y-16769579D01*
X4167377Y-16769579D02*
X4176901Y-16750531D01*
X4176901Y-16750531D02*
X4186424Y-16741008D01*
X4186424Y-16741008D02*
X4205472Y-16731484D01*
X4357853Y-16912436D02*
X4367377Y-16921960D01*
X4367377Y-16921960D02*
X4357853Y-16931484D01*
X4357853Y-16931484D02*
X4348329Y-16921960D01*
X4348329Y-16921960D02*
X4357853Y-16912436D01*
X4357853Y-16912436D02*
X4357853Y-16931484D01*
X4481663Y-16817198D02*
X4462615Y-16807674D01*
X4462615Y-16807674D02*
X4453091Y-16798150D01*
X4453091Y-16798150D02*
X4443567Y-16779103D01*
X4443567Y-16779103D02*
X4443567Y-16769579D01*
X4443567Y-16769579D02*
X4453091Y-16750531D01*
X4453091Y-16750531D02*
X4462615Y-16741008D01*
X4462615Y-16741008D02*
X4481663Y-16731484D01*
X4481663Y-16731484D02*
X4519758Y-16731484D01*
X4519758Y-16731484D02*
X4538805Y-16741008D01*
X4538805Y-16741008D02*
X4548329Y-16750531D01*
X4548329Y-16750531D02*
X4557853Y-16769579D01*
X4557853Y-16769579D02*
X4557853Y-16779103D01*
X4557853Y-16779103D02*
X4548329Y-16798150D01*
X4548329Y-16798150D02*
X4538805Y-16807674D01*
X4538805Y-16807674D02*
X4519758Y-16817198D01*
X4519758Y-16817198D02*
X4481663Y-16817198D01*
X4481663Y-16817198D02*
X4462615Y-16826722D01*
X4462615Y-16826722D02*
X4453091Y-16836246D01*
X4453091Y-16836246D02*
X4443567Y-16855293D01*
X4443567Y-16855293D02*
X4443567Y-16893389D01*
X4443567Y-16893389D02*
X4453091Y-16912436D01*
X4453091Y-16912436D02*
X4462615Y-16921960D01*
X4462615Y-16921960D02*
X4481663Y-16931484D01*
X4481663Y-16931484D02*
X4519758Y-16931484D01*
X4519758Y-16931484D02*
X4538805Y-16921960D01*
X4538805Y-16921960D02*
X4548329Y-16912436D01*
X4548329Y-16912436D02*
X4557853Y-16893389D01*
X4557853Y-16893389D02*
X4557853Y-16855293D01*
X4557853Y-16855293D02*
X4548329Y-16836246D01*
X4548329Y-16836246D02*
X4538805Y-16826722D01*
X4538805Y-16826722D02*
X4519758Y-16817198D01*
X4681663Y-16731484D02*
X4700710Y-16731484D01*
X4700710Y-16731484D02*
X4719758Y-16741008D01*
X4719758Y-16741008D02*
X4729282Y-16750531D01*
X4729282Y-16750531D02*
X4738805Y-16769579D01*
X4738805Y-16769579D02*
X4748329Y-16807674D01*
X4748329Y-16807674D02*
X4748329Y-16855293D01*
X4748329Y-16855293D02*
X4738805Y-16893389D01*
X4738805Y-16893389D02*
X4729282Y-16912436D01*
X4729282Y-16912436D02*
X4719758Y-16921960D01*
X4719758Y-16921960D02*
X4700710Y-16931484D01*
X4700710Y-16931484D02*
X4681663Y-16931484D01*
X4681663Y-16931484D02*
X4662615Y-16921960D01*
X4662615Y-16921960D02*
X4653091Y-16912436D01*
X4653091Y-16912436D02*
X4643567Y-16893389D01*
X4643567Y-16893389D02*
X4634044Y-16855293D01*
X4634044Y-16855293D02*
X4634044Y-16807674D01*
X4634044Y-16807674D02*
X4643567Y-16769579D01*
X4643567Y-16769579D02*
X4653091Y-16750531D01*
X4653091Y-16750531D02*
X4662615Y-16741008D01*
X4662615Y-16741008D02*
X4681663Y-16731484D01*
X4872139Y-16731484D02*
X4891186Y-16731484D01*
X4891186Y-16731484D02*
X4910234Y-16741008D01*
X4910234Y-16741008D02*
X4919758Y-16750531D01*
X4919758Y-16750531D02*
X4929282Y-16769579D01*
X4929282Y-16769579D02*
X4938805Y-16807674D01*
X4938805Y-16807674D02*
X4938805Y-16855293D01*
X4938805Y-16855293D02*
X4929282Y-16893389D01*
X4929282Y-16893389D02*
X4919758Y-16912436D01*
X4919758Y-16912436D02*
X4910234Y-16921960D01*
X4910234Y-16921960D02*
X4891186Y-16931484D01*
X4891186Y-16931484D02*
X4872139Y-16931484D01*
X4872139Y-16931484D02*
X4853091Y-16921960D01*
X4853091Y-16921960D02*
X4843567Y-16912436D01*
X4843567Y-16912436D02*
X4834044Y-16893389D01*
X4834044Y-16893389D02*
X4824520Y-16855293D01*
X4824520Y-16855293D02*
X4824520Y-16807674D01*
X4824520Y-16807674D02*
X4834044Y-16769579D01*
X4834044Y-16769579D02*
X4843567Y-16750531D01*
X4843567Y-16750531D02*
X4853091Y-16741008D01*
X4853091Y-16741008D02*
X4872139Y-16731484D01*
X5024520Y-16931484D02*
X5024520Y-16798150D01*
X5024520Y-16817198D02*
X5034044Y-16807674D01*
X5034044Y-16807674D02*
X5053091Y-16798150D01*
X5053091Y-16798150D02*
X5081663Y-16798150D01*
X5081663Y-16798150D02*
X5100710Y-16807674D01*
X5100710Y-16807674D02*
X5110234Y-16826722D01*
X5110234Y-16826722D02*
X5110234Y-16931484D01*
X5110234Y-16826722D02*
X5119758Y-16807674D01*
X5119758Y-16807674D02*
X5138805Y-16798150D01*
X5138805Y-16798150D02*
X5167377Y-16798150D01*
X5167377Y-16798150D02*
X5186425Y-16807674D01*
X5186425Y-16807674D02*
X5195948Y-16826722D01*
X5195948Y-16826722D02*
X5195948Y-16931484D01*
X5291186Y-16931484D02*
X5291186Y-16798150D01*
X5291186Y-16817198D02*
X5300710Y-16807674D01*
X5300710Y-16807674D02*
X5319758Y-16798150D01*
X5319758Y-16798150D02*
X5348329Y-16798150D01*
X5348329Y-16798150D02*
X5367377Y-16807674D01*
X5367377Y-16807674D02*
X5376901Y-16826722D01*
X5376901Y-16826722D02*
X5376901Y-16931484D01*
X5376901Y-16826722D02*
X5386425Y-16807674D01*
X5386425Y-16807674D02*
X5405472Y-16798150D01*
X5405472Y-16798150D02*
X5434044Y-16798150D01*
X5434044Y-16798150D02*
X5453091Y-16807674D01*
X5453091Y-16807674D02*
X5462615Y-16826722D01*
X5462615Y-16826722D02*
X5462615Y-16931484D01*
X5853091Y-16721960D02*
X5681663Y-16979103D01*
X6110234Y-16731484D02*
X6129282Y-16731484D01*
X6129282Y-16731484D02*
X6148329Y-16741008D01*
X6148329Y-16741008D02*
X6157853Y-16750531D01*
X6157853Y-16750531D02*
X6167377Y-16769579D01*
X6167377Y-16769579D02*
X6176901Y-16807674D01*
X6176901Y-16807674D02*
X6176901Y-16855293D01*
X6176901Y-16855293D02*
X6167377Y-16893389D01*
X6167377Y-16893389D02*
X6157853Y-16912436D01*
X6157853Y-16912436D02*
X6148329Y-16921960D01*
X6148329Y-16921960D02*
X6129282Y-16931484D01*
X6129282Y-16931484D02*
X6110234Y-16931484D01*
X6110234Y-16931484D02*
X6091186Y-16921960D01*
X6091186Y-16921960D02*
X6081663Y-16912436D01*
X6081663Y-16912436D02*
X6072139Y-16893389D01*
X6072139Y-16893389D02*
X6062615Y-16855293D01*
X6062615Y-16855293D02*
X6062615Y-16807674D01*
X6062615Y-16807674D02*
X6072139Y-16769579D01*
X6072139Y-16769579D02*
X6081663Y-16750531D01*
X6081663Y-16750531D02*
X6091186Y-16741008D01*
X6091186Y-16741008D02*
X6110234Y-16731484D01*
X6262615Y-16912436D02*
X6272139Y-16921960D01*
X6272139Y-16921960D02*
X6262615Y-16931484D01*
X6262615Y-16931484D02*
X6253091Y-16921960D01*
X6253091Y-16921960D02*
X6262615Y-16912436D01*
X6262615Y-16912436D02*
X6262615Y-16931484D01*
X6395948Y-16731484D02*
X6414996Y-16731484D01*
X6414996Y-16731484D02*
X6434044Y-16741008D01*
X6434044Y-16741008D02*
X6443567Y-16750531D01*
X6443567Y-16750531D02*
X6453091Y-16769579D01*
X6453091Y-16769579D02*
X6462615Y-16807674D01*
X6462615Y-16807674D02*
X6462615Y-16855293D01*
X6462615Y-16855293D02*
X6453091Y-16893389D01*
X6453091Y-16893389D02*
X6443567Y-16912436D01*
X6443567Y-16912436D02*
X6434044Y-16921960D01*
X6434044Y-16921960D02*
X6414996Y-16931484D01*
X6414996Y-16931484D02*
X6395948Y-16931484D01*
X6395948Y-16931484D02*
X6376901Y-16921960D01*
X6376901Y-16921960D02*
X6367377Y-16912436D01*
X6367377Y-16912436D02*
X6357853Y-16893389D01*
X6357853Y-16893389D02*
X6348329Y-16855293D01*
X6348329Y-16855293D02*
X6348329Y-16807674D01*
X6348329Y-16807674D02*
X6357853Y-16769579D01*
X6357853Y-16769579D02*
X6367377Y-16750531D01*
X6367377Y-16750531D02*
X6376901Y-16741008D01*
X6376901Y-16741008D02*
X6395948Y-16731484D01*
X6529282Y-16731484D02*
X6653091Y-16731484D01*
X6653091Y-16731484D02*
X6586425Y-16807674D01*
X6586425Y-16807674D02*
X6614996Y-16807674D01*
X6614996Y-16807674D02*
X6634044Y-16817198D01*
X6634044Y-16817198D02*
X6643567Y-16826722D01*
X6643567Y-16826722D02*
X6653091Y-16845770D01*
X6653091Y-16845770D02*
X6653091Y-16893389D01*
X6653091Y-16893389D02*
X6643567Y-16912436D01*
X6643567Y-16912436D02*
X6634044Y-16921960D01*
X6634044Y-16921960D02*
X6614996Y-16931484D01*
X6614996Y-16931484D02*
X6557853Y-16931484D01*
X6557853Y-16931484D02*
X6538806Y-16921960D01*
X6538806Y-16921960D02*
X6529282Y-16912436D01*
X6843567Y-16931484D02*
X6729282Y-16931484D01*
X6786425Y-16931484D02*
X6786425Y-16731484D01*
X6786425Y-16731484D02*
X6767377Y-16760055D01*
X6767377Y-16760055D02*
X6748329Y-16779103D01*
X6748329Y-16779103D02*
X6729282Y-16788627D01*
X7024520Y-16731484D02*
X6929282Y-16731484D01*
X6929282Y-16731484D02*
X6919758Y-16826722D01*
X6919758Y-16826722D02*
X6929282Y-16817198D01*
X6929282Y-16817198D02*
X6948329Y-16807674D01*
X6948329Y-16807674D02*
X6995948Y-16807674D01*
X6995948Y-16807674D02*
X7014996Y-16817198D01*
X7014996Y-16817198D02*
X7024520Y-16826722D01*
X7024520Y-16826722D02*
X7034044Y-16845770D01*
X7034044Y-16845770D02*
X7034044Y-16893389D01*
X7034044Y-16893389D02*
X7024520Y-16912436D01*
X7024520Y-16912436D02*
X7014996Y-16921960D01*
X7014996Y-16921960D02*
X6995948Y-16931484D01*
X6995948Y-16931484D02*
X6948329Y-16931484D01*
X6948329Y-16931484D02*
X6929282Y-16921960D01*
X6929282Y-16921960D02*
X6919758Y-16912436D01*
X7110234Y-16731484D02*
X7110234Y-16769579D01*
X7186425Y-16731484D02*
X7186425Y-16769579D01*
X7481663Y-17007674D02*
X7472139Y-16998150D01*
X7472139Y-16998150D02*
X7453091Y-16969579D01*
X7453091Y-16969579D02*
X7443568Y-16950531D01*
X7443568Y-16950531D02*
X7434044Y-16921960D01*
X7434044Y-16921960D02*
X7424520Y-16874341D01*
X7424520Y-16874341D02*
X7424520Y-16836246D01*
X7424520Y-16836246D02*
X7434044Y-16788627D01*
X7434044Y-16788627D02*
X7443568Y-16760055D01*
X7443568Y-16760055D02*
X7453091Y-16741008D01*
X7453091Y-16741008D02*
X7472139Y-16712436D01*
X7472139Y-16712436D02*
X7481663Y-16702912D01*
X7643568Y-16731484D02*
X7605472Y-16731484D01*
X7605472Y-16731484D02*
X7586425Y-16741008D01*
X7586425Y-16741008D02*
X7576901Y-16750531D01*
X7576901Y-16750531D02*
X7557853Y-16779103D01*
X7557853Y-16779103D02*
X7548329Y-16817198D01*
X7548329Y-16817198D02*
X7548329Y-16893389D01*
X7548329Y-16893389D02*
X7557853Y-16912436D01*
X7557853Y-16912436D02*
X7567377Y-16921960D01*
X7567377Y-16921960D02*
X7586425Y-16931484D01*
X7586425Y-16931484D02*
X7624520Y-16931484D01*
X7624520Y-16931484D02*
X7643568Y-16921960D01*
X7643568Y-16921960D02*
X7653091Y-16912436D01*
X7653091Y-16912436D02*
X7662615Y-16893389D01*
X7662615Y-16893389D02*
X7662615Y-16845770D01*
X7662615Y-16845770D02*
X7653091Y-16826722D01*
X7653091Y-16826722D02*
X7643568Y-16817198D01*
X7643568Y-16817198D02*
X7624520Y-16807674D01*
X7624520Y-16807674D02*
X7586425Y-16807674D01*
X7586425Y-16807674D02*
X7567377Y-16817198D01*
X7567377Y-16817198D02*
X7557853Y-16826722D01*
X7557853Y-16826722D02*
X7548329Y-16845770D01*
X7900710Y-16931484D02*
X7900710Y-16731484D01*
X7986425Y-16931484D02*
X7986425Y-16826722D01*
X7986425Y-16826722D02*
X7976901Y-16807674D01*
X7976901Y-16807674D02*
X7957853Y-16798150D01*
X7957853Y-16798150D02*
X7929282Y-16798150D01*
X7929282Y-16798150D02*
X7910234Y-16807674D01*
X7910234Y-16807674D02*
X7900710Y-16817198D01*
X8110234Y-16931484D02*
X8091187Y-16921960D01*
X8091187Y-16921960D02*
X8081663Y-16912436D01*
X8081663Y-16912436D02*
X8072139Y-16893389D01*
X8072139Y-16893389D02*
X8072139Y-16836246D01*
X8072139Y-16836246D02*
X8081663Y-16817198D01*
X8081663Y-16817198D02*
X8091187Y-16807674D01*
X8091187Y-16807674D02*
X8110234Y-16798150D01*
X8110234Y-16798150D02*
X8138806Y-16798150D01*
X8138806Y-16798150D02*
X8157853Y-16807674D01*
X8157853Y-16807674D02*
X8167377Y-16817198D01*
X8167377Y-16817198D02*
X8176901Y-16836246D01*
X8176901Y-16836246D02*
X8176901Y-16893389D01*
X8176901Y-16893389D02*
X8167377Y-16912436D01*
X8167377Y-16912436D02*
X8157853Y-16921960D01*
X8157853Y-16921960D02*
X8138806Y-16931484D01*
X8138806Y-16931484D02*
X8110234Y-16931484D01*
X8291187Y-16931484D02*
X8272139Y-16921960D01*
X8272139Y-16921960D02*
X8262615Y-16902912D01*
X8262615Y-16902912D02*
X8262615Y-16731484D01*
X8443568Y-16921960D02*
X8424520Y-16931484D01*
X8424520Y-16931484D02*
X8386425Y-16931484D01*
X8386425Y-16931484D02*
X8367377Y-16921960D01*
X8367377Y-16921960D02*
X8357853Y-16902912D01*
X8357853Y-16902912D02*
X8357853Y-16826722D01*
X8357853Y-16826722D02*
X8367377Y-16807674D01*
X8367377Y-16807674D02*
X8386425Y-16798150D01*
X8386425Y-16798150D02*
X8424520Y-16798150D01*
X8424520Y-16798150D02*
X8443568Y-16807674D01*
X8443568Y-16807674D02*
X8453092Y-16826722D01*
X8453092Y-16826722D02*
X8453092Y-16845770D01*
X8453092Y-16845770D02*
X8357853Y-16864817D01*
X8529282Y-16921960D02*
X8548330Y-16931484D01*
X8548330Y-16931484D02*
X8586425Y-16931484D01*
X8586425Y-16931484D02*
X8605473Y-16921960D01*
X8605473Y-16921960D02*
X8614996Y-16902912D01*
X8614996Y-16902912D02*
X8614996Y-16893389D01*
X8614996Y-16893389D02*
X8605473Y-16874341D01*
X8605473Y-16874341D02*
X8586425Y-16864817D01*
X8586425Y-16864817D02*
X8557853Y-16864817D01*
X8557853Y-16864817D02*
X8538806Y-16855293D01*
X8538806Y-16855293D02*
X8529282Y-16836246D01*
X8529282Y-16836246D02*
X8529282Y-16826722D01*
X8529282Y-16826722D02*
X8538806Y-16807674D01*
X8538806Y-16807674D02*
X8557853Y-16798150D01*
X8557853Y-16798150D02*
X8586425Y-16798150D01*
X8586425Y-16798150D02*
X8605473Y-16807674D01*
X8681663Y-17007674D02*
X8691187Y-16998150D01*
X8691187Y-16998150D02*
X8710234Y-16969579D01*
X8710234Y-16969579D02*
X8719758Y-16950531D01*
X8719758Y-16950531D02*
X8729282Y-16921960D01*
X8729282Y-16921960D02*
X8738806Y-16874341D01*
X8738806Y-16874341D02*
X8738806Y-16836246D01*
X8738806Y-16836246D02*
X8729282Y-16788627D01*
X8729282Y-16788627D02*
X8719758Y-16760055D01*
X8719758Y-16760055D02*
X8710234Y-16741008D01*
X8710234Y-16741008D02*
X8691187Y-16712436D01*
X8691187Y-16712436D02*
X8681663Y-16702912D01*
D15*
X3884341Y-17157741D02*
X3884341Y-17050259D01*
X3776859Y-17050259D01*
X3776859Y-17157741D01*
X3884341Y-17157741D01*
D11*
X4272139Y-17195484D02*
X4157853Y-17195484D01*
X4214996Y-17195484D02*
X4214996Y-16995484D01*
X4214996Y-16995484D02*
X4195948Y-17024055D01*
X4195948Y-17024055D02*
X4176901Y-17043103D01*
X4176901Y-17043103D02*
X4157853Y-17052627D01*
X4357853Y-17176436D02*
X4367377Y-17185960D01*
X4367377Y-17185960D02*
X4357853Y-17195484D01*
X4357853Y-17195484D02*
X4348329Y-17185960D01*
X4348329Y-17185960D02*
X4357853Y-17176436D01*
X4357853Y-17176436D02*
X4357853Y-17195484D01*
X4548329Y-16995484D02*
X4453091Y-16995484D01*
X4453091Y-16995484D02*
X4443567Y-17090722D01*
X4443567Y-17090722D02*
X4453091Y-17081198D01*
X4453091Y-17081198D02*
X4472139Y-17071674D01*
X4472139Y-17071674D02*
X4519758Y-17071674D01*
X4519758Y-17071674D02*
X4538805Y-17081198D01*
X4538805Y-17081198D02*
X4548329Y-17090722D01*
X4548329Y-17090722D02*
X4557853Y-17109770D01*
X4557853Y-17109770D02*
X4557853Y-17157389D01*
X4557853Y-17157389D02*
X4548329Y-17176436D01*
X4548329Y-17176436D02*
X4538805Y-17185960D01*
X4538805Y-17185960D02*
X4519758Y-17195484D01*
X4519758Y-17195484D02*
X4472139Y-17195484D01*
X4472139Y-17195484D02*
X4453091Y-17185960D01*
X4453091Y-17185960D02*
X4443567Y-17176436D01*
X4634044Y-17014531D02*
X4643567Y-17005008D01*
X4643567Y-17005008D02*
X4662615Y-16995484D01*
X4662615Y-16995484D02*
X4710234Y-16995484D01*
X4710234Y-16995484D02*
X4729282Y-17005008D01*
X4729282Y-17005008D02*
X4738805Y-17014531D01*
X4738805Y-17014531D02*
X4748329Y-17033579D01*
X4748329Y-17033579D02*
X4748329Y-17052627D01*
X4748329Y-17052627D02*
X4738805Y-17081198D01*
X4738805Y-17081198D02*
X4624520Y-17195484D01*
X4624520Y-17195484D02*
X4748329Y-17195484D01*
X4872139Y-16995484D02*
X4891186Y-16995484D01*
X4891186Y-16995484D02*
X4910234Y-17005008D01*
X4910234Y-17005008D02*
X4919758Y-17014531D01*
X4919758Y-17014531D02*
X4929282Y-17033579D01*
X4929282Y-17033579D02*
X4938805Y-17071674D01*
X4938805Y-17071674D02*
X4938805Y-17119293D01*
X4938805Y-17119293D02*
X4929282Y-17157389D01*
X4929282Y-17157389D02*
X4919758Y-17176436D01*
X4919758Y-17176436D02*
X4910234Y-17185960D01*
X4910234Y-17185960D02*
X4891186Y-17195484D01*
X4891186Y-17195484D02*
X4872139Y-17195484D01*
X4872139Y-17195484D02*
X4853091Y-17185960D01*
X4853091Y-17185960D02*
X4843567Y-17176436D01*
X4843567Y-17176436D02*
X4834044Y-17157389D01*
X4834044Y-17157389D02*
X4824520Y-17119293D01*
X4824520Y-17119293D02*
X4824520Y-17071674D01*
X4824520Y-17071674D02*
X4834044Y-17033579D01*
X4834044Y-17033579D02*
X4843567Y-17014531D01*
X4843567Y-17014531D02*
X4853091Y-17005008D01*
X4853091Y-17005008D02*
X4872139Y-16995484D01*
X5024520Y-17195484D02*
X5024520Y-17062150D01*
X5024520Y-17081198D02*
X5034044Y-17071674D01*
X5034044Y-17071674D02*
X5053091Y-17062150D01*
X5053091Y-17062150D02*
X5081663Y-17062150D01*
X5081663Y-17062150D02*
X5100710Y-17071674D01*
X5100710Y-17071674D02*
X5110234Y-17090722D01*
X5110234Y-17090722D02*
X5110234Y-17195484D01*
X5110234Y-17090722D02*
X5119758Y-17071674D01*
X5119758Y-17071674D02*
X5138805Y-17062150D01*
X5138805Y-17062150D02*
X5167377Y-17062150D01*
X5167377Y-17062150D02*
X5186425Y-17071674D01*
X5186425Y-17071674D02*
X5195948Y-17090722D01*
X5195948Y-17090722D02*
X5195948Y-17195484D01*
X5291186Y-17195484D02*
X5291186Y-17062150D01*
X5291186Y-17081198D02*
X5300710Y-17071674D01*
X5300710Y-17071674D02*
X5319758Y-17062150D01*
X5319758Y-17062150D02*
X5348329Y-17062150D01*
X5348329Y-17062150D02*
X5367377Y-17071674D01*
X5367377Y-17071674D02*
X5376901Y-17090722D01*
X5376901Y-17090722D02*
X5376901Y-17195484D01*
X5376901Y-17090722D02*
X5386425Y-17071674D01*
X5386425Y-17071674D02*
X5405472Y-17062150D01*
X5405472Y-17062150D02*
X5434044Y-17062150D01*
X5434044Y-17062150D02*
X5453091Y-17071674D01*
X5453091Y-17071674D02*
X5462615Y-17090722D01*
X5462615Y-17090722D02*
X5462615Y-17195484D01*
X5853091Y-16985960D02*
X5681663Y-17243103D01*
X6110234Y-16995484D02*
X6129282Y-16995484D01*
X6129282Y-16995484D02*
X6148329Y-17005008D01*
X6148329Y-17005008D02*
X6157853Y-17014531D01*
X6157853Y-17014531D02*
X6167377Y-17033579D01*
X6167377Y-17033579D02*
X6176901Y-17071674D01*
X6176901Y-17071674D02*
X6176901Y-17119293D01*
X6176901Y-17119293D02*
X6167377Y-17157389D01*
X6167377Y-17157389D02*
X6157853Y-17176436D01*
X6157853Y-17176436D02*
X6148329Y-17185960D01*
X6148329Y-17185960D02*
X6129282Y-17195484D01*
X6129282Y-17195484D02*
X6110234Y-17195484D01*
X6110234Y-17195484D02*
X6091186Y-17185960D01*
X6091186Y-17185960D02*
X6081663Y-17176436D01*
X6081663Y-17176436D02*
X6072139Y-17157389D01*
X6072139Y-17157389D02*
X6062615Y-17119293D01*
X6062615Y-17119293D02*
X6062615Y-17071674D01*
X6062615Y-17071674D02*
X6072139Y-17033579D01*
X6072139Y-17033579D02*
X6081663Y-17014531D01*
X6081663Y-17014531D02*
X6091186Y-17005008D01*
X6091186Y-17005008D02*
X6110234Y-16995484D01*
X6262615Y-17176436D02*
X6272139Y-17185960D01*
X6272139Y-17185960D02*
X6262615Y-17195484D01*
X6262615Y-17195484D02*
X6253091Y-17185960D01*
X6253091Y-17185960D02*
X6262615Y-17176436D01*
X6262615Y-17176436D02*
X6262615Y-17195484D01*
X6395948Y-16995484D02*
X6414996Y-16995484D01*
X6414996Y-16995484D02*
X6434044Y-17005008D01*
X6434044Y-17005008D02*
X6443567Y-17014531D01*
X6443567Y-17014531D02*
X6453091Y-17033579D01*
X6453091Y-17033579D02*
X6462615Y-17071674D01*
X6462615Y-17071674D02*
X6462615Y-17119293D01*
X6462615Y-17119293D02*
X6453091Y-17157389D01*
X6453091Y-17157389D02*
X6443567Y-17176436D01*
X6443567Y-17176436D02*
X6434044Y-17185960D01*
X6434044Y-17185960D02*
X6414996Y-17195484D01*
X6414996Y-17195484D02*
X6395948Y-17195484D01*
X6395948Y-17195484D02*
X6376901Y-17185960D01*
X6376901Y-17185960D02*
X6367377Y-17176436D01*
X6367377Y-17176436D02*
X6357853Y-17157389D01*
X6357853Y-17157389D02*
X6348329Y-17119293D01*
X6348329Y-17119293D02*
X6348329Y-17071674D01*
X6348329Y-17071674D02*
X6357853Y-17033579D01*
X6357853Y-17033579D02*
X6367377Y-17014531D01*
X6367377Y-17014531D02*
X6376901Y-17005008D01*
X6376901Y-17005008D02*
X6395948Y-16995484D01*
X6643567Y-16995484D02*
X6548329Y-16995484D01*
X6548329Y-16995484D02*
X6538806Y-17090722D01*
X6538806Y-17090722D02*
X6548329Y-17081198D01*
X6548329Y-17081198D02*
X6567377Y-17071674D01*
X6567377Y-17071674D02*
X6614996Y-17071674D01*
X6614996Y-17071674D02*
X6634044Y-17081198D01*
X6634044Y-17081198D02*
X6643567Y-17090722D01*
X6643567Y-17090722D02*
X6653091Y-17109770D01*
X6653091Y-17109770D02*
X6653091Y-17157389D01*
X6653091Y-17157389D02*
X6643567Y-17176436D01*
X6643567Y-17176436D02*
X6634044Y-17185960D01*
X6634044Y-17185960D02*
X6614996Y-17195484D01*
X6614996Y-17195484D02*
X6567377Y-17195484D01*
X6567377Y-17195484D02*
X6548329Y-17185960D01*
X6548329Y-17185960D02*
X6538806Y-17176436D01*
X6748329Y-17195484D02*
X6786425Y-17195484D01*
X6786425Y-17195484D02*
X6805472Y-17185960D01*
X6805472Y-17185960D02*
X6814996Y-17176436D01*
X6814996Y-17176436D02*
X6834044Y-17147865D01*
X6834044Y-17147865D02*
X6843567Y-17109770D01*
X6843567Y-17109770D02*
X6843567Y-17033579D01*
X6843567Y-17033579D02*
X6834044Y-17014531D01*
X6834044Y-17014531D02*
X6824520Y-17005008D01*
X6824520Y-17005008D02*
X6805472Y-16995484D01*
X6805472Y-16995484D02*
X6767377Y-16995484D01*
X6767377Y-16995484D02*
X6748329Y-17005008D01*
X6748329Y-17005008D02*
X6738806Y-17014531D01*
X6738806Y-17014531D02*
X6729282Y-17033579D01*
X6729282Y-17033579D02*
X6729282Y-17081198D01*
X6729282Y-17081198D02*
X6738806Y-17100246D01*
X6738806Y-17100246D02*
X6748329Y-17109770D01*
X6748329Y-17109770D02*
X6767377Y-17119293D01*
X6767377Y-17119293D02*
X6805472Y-17119293D01*
X6805472Y-17119293D02*
X6824520Y-17109770D01*
X6824520Y-17109770D02*
X6834044Y-17100246D01*
X6834044Y-17100246D02*
X6843567Y-17081198D01*
X6957853Y-17081198D02*
X6938806Y-17071674D01*
X6938806Y-17071674D02*
X6929282Y-17062150D01*
X6929282Y-17062150D02*
X6919758Y-17043103D01*
X6919758Y-17043103D02*
X6919758Y-17033579D01*
X6919758Y-17033579D02*
X6929282Y-17014531D01*
X6929282Y-17014531D02*
X6938806Y-17005008D01*
X6938806Y-17005008D02*
X6957853Y-16995484D01*
X6957853Y-16995484D02*
X6995948Y-16995484D01*
X6995948Y-16995484D02*
X7014996Y-17005008D01*
X7014996Y-17005008D02*
X7024520Y-17014531D01*
X7024520Y-17014531D02*
X7034044Y-17033579D01*
X7034044Y-17033579D02*
X7034044Y-17043103D01*
X7034044Y-17043103D02*
X7024520Y-17062150D01*
X7024520Y-17062150D02*
X7014996Y-17071674D01*
X7014996Y-17071674D02*
X6995948Y-17081198D01*
X6995948Y-17081198D02*
X6957853Y-17081198D01*
X6957853Y-17081198D02*
X6938806Y-17090722D01*
X6938806Y-17090722D02*
X6929282Y-17100246D01*
X6929282Y-17100246D02*
X6919758Y-17119293D01*
X6919758Y-17119293D02*
X6919758Y-17157389D01*
X6919758Y-17157389D02*
X6929282Y-17176436D01*
X6929282Y-17176436D02*
X6938806Y-17185960D01*
X6938806Y-17185960D02*
X6957853Y-17195484D01*
X6957853Y-17195484D02*
X6995948Y-17195484D01*
X6995948Y-17195484D02*
X7014996Y-17185960D01*
X7014996Y-17185960D02*
X7024520Y-17176436D01*
X7024520Y-17176436D02*
X7034044Y-17157389D01*
X7034044Y-17157389D02*
X7034044Y-17119293D01*
X7034044Y-17119293D02*
X7024520Y-17100246D01*
X7024520Y-17100246D02*
X7014996Y-17090722D01*
X7014996Y-17090722D02*
X6995948Y-17081198D01*
X7110234Y-16995484D02*
X7110234Y-17033579D01*
X7186425Y-16995484D02*
X7186425Y-17033579D01*
X7481663Y-17271674D02*
X7472139Y-17262150D01*
X7472139Y-17262150D02*
X7453091Y-17233579D01*
X7453091Y-17233579D02*
X7443568Y-17214531D01*
X7443568Y-17214531D02*
X7434044Y-17185960D01*
X7434044Y-17185960D02*
X7424520Y-17138341D01*
X7424520Y-17138341D02*
X7424520Y-17100246D01*
X7424520Y-17100246D02*
X7434044Y-17052627D01*
X7434044Y-17052627D02*
X7443568Y-17024055D01*
X7443568Y-17024055D02*
X7453091Y-17005008D01*
X7453091Y-17005008D02*
X7472139Y-16976436D01*
X7472139Y-16976436D02*
X7481663Y-16966912D01*
X7643568Y-17062150D02*
X7643568Y-17195484D01*
X7595948Y-16985960D02*
X7548329Y-17128817D01*
X7548329Y-17128817D02*
X7672139Y-17128817D01*
X7900710Y-17195484D02*
X7900710Y-16995484D01*
X7986425Y-17195484D02*
X7986425Y-17090722D01*
X7986425Y-17090722D02*
X7976901Y-17071674D01*
X7976901Y-17071674D02*
X7957853Y-17062150D01*
X7957853Y-17062150D02*
X7929282Y-17062150D01*
X7929282Y-17062150D02*
X7910234Y-17071674D01*
X7910234Y-17071674D02*
X7900710Y-17081198D01*
X8110234Y-17195484D02*
X8091187Y-17185960D01*
X8091187Y-17185960D02*
X8081663Y-17176436D01*
X8081663Y-17176436D02*
X8072139Y-17157389D01*
X8072139Y-17157389D02*
X8072139Y-17100246D01*
X8072139Y-17100246D02*
X8081663Y-17081198D01*
X8081663Y-17081198D02*
X8091187Y-17071674D01*
X8091187Y-17071674D02*
X8110234Y-17062150D01*
X8110234Y-17062150D02*
X8138806Y-17062150D01*
X8138806Y-17062150D02*
X8157853Y-17071674D01*
X8157853Y-17071674D02*
X8167377Y-17081198D01*
X8167377Y-17081198D02*
X8176901Y-17100246D01*
X8176901Y-17100246D02*
X8176901Y-17157389D01*
X8176901Y-17157389D02*
X8167377Y-17176436D01*
X8167377Y-17176436D02*
X8157853Y-17185960D01*
X8157853Y-17185960D02*
X8138806Y-17195484D01*
X8138806Y-17195484D02*
X8110234Y-17195484D01*
X8291187Y-17195484D02*
X8272139Y-17185960D01*
X8272139Y-17185960D02*
X8262615Y-17166912D01*
X8262615Y-17166912D02*
X8262615Y-16995484D01*
X8443568Y-17185960D02*
X8424520Y-17195484D01*
X8424520Y-17195484D02*
X8386425Y-17195484D01*
X8386425Y-17195484D02*
X8367377Y-17185960D01*
X8367377Y-17185960D02*
X8357853Y-17166912D01*
X8357853Y-17166912D02*
X8357853Y-17090722D01*
X8357853Y-17090722D02*
X8367377Y-17071674D01*
X8367377Y-17071674D02*
X8386425Y-17062150D01*
X8386425Y-17062150D02*
X8424520Y-17062150D01*
X8424520Y-17062150D02*
X8443568Y-17071674D01*
X8443568Y-17071674D02*
X8453092Y-17090722D01*
X8453092Y-17090722D02*
X8453092Y-17109770D01*
X8453092Y-17109770D02*
X8357853Y-17128817D01*
X8529282Y-17185960D02*
X8548330Y-17195484D01*
X8548330Y-17195484D02*
X8586425Y-17195484D01*
X8586425Y-17195484D02*
X8605473Y-17185960D01*
X8605473Y-17185960D02*
X8614996Y-17166912D01*
X8614996Y-17166912D02*
X8614996Y-17157389D01*
X8614996Y-17157389D02*
X8605473Y-17138341D01*
X8605473Y-17138341D02*
X8586425Y-17128817D01*
X8586425Y-17128817D02*
X8557853Y-17128817D01*
X8557853Y-17128817D02*
X8538806Y-17119293D01*
X8538806Y-17119293D02*
X8529282Y-17100246D01*
X8529282Y-17100246D02*
X8529282Y-17090722D01*
X8529282Y-17090722D02*
X8538806Y-17071674D01*
X8538806Y-17071674D02*
X8557853Y-17062150D01*
X8557853Y-17062150D02*
X8586425Y-17062150D01*
X8586425Y-17062150D02*
X8605473Y-17071674D01*
X8681663Y-17271674D02*
X8691187Y-17262150D01*
X8691187Y-17262150D02*
X8710234Y-17233579D01*
X8710234Y-17233579D02*
X8719758Y-17214531D01*
X8719758Y-17214531D02*
X8729282Y-17185960D01*
X8729282Y-17185960D02*
X8738806Y-17138341D01*
X8738806Y-17138341D02*
X8738806Y-17100246D01*
X8738806Y-17100246D02*
X8729282Y-17052627D01*
X8729282Y-17052627D02*
X8719758Y-17024055D01*
X8719758Y-17024055D02*
X8710234Y-17005008D01*
X8710234Y-17005008D02*
X8691187Y-16976436D01*
X8691187Y-16976436D02*
X8681663Y-16966912D01*
M02*
