%TF.GenerationSoftware,KiCad,Pcbnew,7.0.7*%
%TF.CreationDate,2023-10-02T11:40:01-05:00*%
%TF.ProjectId,iowa-rover,696f7761-2d72-46f7-9665-722e6b696361,rev?*%
%TF.SameCoordinates,Original*%
%TF.FileFunction,Copper,L2,Inr*%
%TF.FilePolarity,Positive*%
%FSLAX46Y46*%
G04 Gerber Fmt 4.6, Leading zero omitted, Abs format (unit mm)*
G04 Created by KiCad (PCBNEW 7.0.7) date 2023-10-02 11:40:01*
%MOMM*%
%LPD*%
G01*
G04 APERTURE LIST*
%TA.AperFunction,ComponentPad*%
%ADD10C,1.524000*%
%TD*%
%TA.AperFunction,ComponentPad*%
%ADD11C,1.600000*%
%TD*%
%TA.AperFunction,ComponentPad*%
%ADD12O,1.600000X1.600000*%
%TD*%
%TA.AperFunction,ComponentPad*%
%ADD13R,3.000000X3.000000*%
%TD*%
%TA.AperFunction,ComponentPad*%
%ADD14C,3.000000*%
%TD*%
%TA.AperFunction,ComponentPad*%
%ADD15R,1.700000X1.700000*%
%TD*%
%TA.AperFunction,ComponentPad*%
%ADD16O,1.700000X1.700000*%
%TD*%
%TA.AperFunction,ComponentPad*%
%ADD17O,2.000000X0.900000*%
%TD*%
%TA.AperFunction,ComponentPad*%
%ADD18O,1.700000X0.900000*%
%TD*%
G04 APERTURE END LIST*
D10*
%TO.N,+5V*%
%TO.C,U2*%
X68580000Y-144780000D03*
%TO.N,GND*%
X68580000Y-142240000D03*
%TO.N,unconnected-(U2-EN-Pad3)*%
X68580000Y-139700000D03*
%TO.N,/RADIO_INT*%
X68580000Y-137160000D03*
%TO.N,/RADIO_CLOCK*%
X68580000Y-134620000D03*
%TO.N,/RADIO_MISO*%
X68580000Y-132080000D03*
%TO.N,/RADIO_MOSI*%
X68580000Y-129540000D03*
%TO.N,/RADIO_CS*%
X68580000Y-127000000D03*
%TO.N,/RADIO_RESET*%
X68580000Y-124460000D03*
%TO.N,unconnected-(U2-G1-Pad10)*%
X43180000Y-144780000D03*
%TO.N,unconnected-(U2-G2-Pad11)*%
X43180000Y-142240000D03*
%TO.N,unconnected-(U2-G3-Pad12)*%
X43180000Y-139700000D03*
%TO.N,unconnected-(U2-G4-Pad13)*%
X43180000Y-137160000D03*
%TO.N,unconnected-(U2-G5-Pad14)*%
X43180000Y-134620000D03*
%TD*%
D11*
%TO.N,Net-(J1-CC2)*%
%TO.C,R2*%
X57150000Y-74930000D03*
D12*
%TO.N,GND*%
X67310000Y-74930000D03*
%TD*%
D13*
%TO.N,/MA1*%
%TO.C,J2*%
X44450000Y-82550000D03*
D14*
%TO.N,/MA2*%
X44450000Y-87630000D03*
%TD*%
D10*
%TO.N,Net-(U1-3V3)*%
%TO.C,RV1*%
X81280000Y-88400000D03*
%TO.N,Net-(U1-A0)*%
X83820000Y-88400000D03*
%TO.N,GND*%
X86360000Y-88400000D03*
%TD*%
%TO.N,+5V*%
%TO.C,U1*%
X76200000Y-106680000D03*
%TO.N,unconnected-(U1-RST-Pad2)*%
X76200000Y-109220000D03*
%TO.N,Net-(U1-3V3)*%
X76200000Y-111760000D03*
%TO.N,unconnected-(U1-5V-Pad4)*%
X76200000Y-114300000D03*
%TO.N,GND*%
X76200000Y-116840000D03*
X76200000Y-119380000D03*
%TO.N,unconnected-(U1-VIN-Pad7)*%
X76200000Y-121920000D03*
%TO.N,unconnected-(U1-AREF-Pad8)*%
X76200000Y-124460000D03*
%TO.N,Net-(U1-A0)*%
X76200000Y-127000000D03*
%TO.N,Net-(SW1-B)*%
X76200000Y-129540000D03*
%TO.N,unconnected-(U1-A2-Pad11)*%
X76200000Y-132080000D03*
%TO.N,unconnected-(U1-A3-Pad12)*%
X76200000Y-134620000D03*
%TO.N,unconnected-(U1-A4-Pad13)*%
X76200000Y-137160000D03*
%TO.N,unconnected-(U1-A5-Pad14)*%
X76200000Y-139700000D03*
%TO.N,unconnected-(U1-D0-Pad15)*%
X91440000Y-139700000D03*
%TO.N,unconnected-(U1-D1-Pad16)*%
X91440000Y-137160000D03*
%TO.N,/RADIO_RESET*%
X91440000Y-134620000D03*
%TO.N,/RADIO_INT*%
X91440000Y-132080000D03*
%TO.N,/RADIO_CS*%
X91440000Y-129540000D03*
%TO.N,/PWMA*%
X91440000Y-127000000D03*
%TO.N,/PWMB*%
X91440000Y-124460000D03*
%TO.N,/AIN1*%
X91440000Y-121920000D03*
%TO.N,/AIN2*%
X91440000Y-119380000D03*
%TO.N,/BIN1*%
X91440000Y-116840000D03*
%TO.N,/BIN2*%
X91440000Y-114300000D03*
%TO.N,/RADIO_MOSI*%
X91440000Y-111760000D03*
%TO.N,/RADIO_MISO*%
X91440000Y-109220000D03*
%TO.N,/RADIO_CLOCK*%
X91440000Y-106680000D03*
%TD*%
D15*
%TO.N,+5V*%
%TO.C,SW1*%
X67945000Y-114300000D03*
D16*
%TO.N,Net-(SW1-B)*%
X65405000Y-114300000D03*
%TO.N,GND*%
X62865000Y-114300000D03*
%TD*%
D10*
%TO.N,+5V*%
%TO.C,U3*%
X71120000Y-106680000D03*
X71120000Y-104140000D03*
%TO.N,GND*%
X71120000Y-101600000D03*
%TO.N,/PWMB*%
X71120000Y-99060000D03*
%TO.N,/BIN2*%
X71120000Y-96520000D03*
%TO.N,/BIN1*%
X71120000Y-93980000D03*
%TO.N,unconnected-(U3-STBY-Pad7)*%
X71120000Y-91440000D03*
%TO.N,/AIN1*%
X71120000Y-88900000D03*
%TO.N,/AIN2*%
X71120000Y-86360000D03*
%TO.N,/PWMA*%
X71120000Y-83820000D03*
%TO.N,/MA1*%
X55880000Y-88900000D03*
%TO.N,/MA2*%
X55880000Y-91440000D03*
%TO.N,GND*%
X55880000Y-93980000D03*
X55880000Y-96520000D03*
%TO.N,/MB1*%
X55880000Y-99060000D03*
%TO.N,/MB2*%
X55880000Y-101600000D03*
%TD*%
D17*
%TO.N,GND*%
%TO.C,J1*%
X45040000Y-69340000D03*
D18*
X41240000Y-69340000D03*
D17*
X45040000Y-77980000D03*
D18*
X41240000Y-77980000D03*
%TD*%
D11*
%TO.N,Net-(J1-CC1)*%
%TO.C,R1*%
X57150000Y-71120000D03*
D12*
%TO.N,GND*%
X67310000Y-71120000D03*
%TD*%
D11*
%TO.N,+5V*%
%TO.C,C1*%
X49022000Y-71160000D03*
%TO.N,GND*%
X49022000Y-76160000D03*
%TD*%
D13*
%TO.N,/MB1*%
%TO.C,J3*%
X44450000Y-95250000D03*
D14*
%TO.N,/MB2*%
X44450000Y-100330000D03*
%TD*%
%TA.AperFunction,Conductor*%
%TO.N,GND*%
G36*
X94939039Y-68154685D02*
G01*
X94984794Y-68207489D01*
X94996000Y-68259000D01*
X94996000Y-148165000D01*
X94976315Y-148232039D01*
X94923511Y-148277794D01*
X94872000Y-148289000D01*
X39621000Y-148289000D01*
X39553961Y-148269315D01*
X39508206Y-148216511D01*
X39497000Y-148165000D01*
X39497000Y-144780002D01*
X41904647Y-144780002D01*
X41924021Y-145001457D01*
X41924022Y-145001465D01*
X41981558Y-145216191D01*
X41981559Y-145216193D01*
X41981560Y-145216196D01*
X42028536Y-145316936D01*
X42075511Y-145417676D01*
X42075512Y-145417677D01*
X42203023Y-145599781D01*
X42360219Y-145756977D01*
X42542323Y-145884488D01*
X42743804Y-145978440D01*
X42958537Y-146035978D01*
X43116724Y-146049817D01*
X43179998Y-146055353D01*
X43180000Y-146055353D01*
X43180002Y-146055353D01*
X43235365Y-146050509D01*
X43401463Y-146035978D01*
X43616196Y-145978440D01*
X43817677Y-145884488D01*
X43999781Y-145756977D01*
X44156977Y-145599781D01*
X44284488Y-145417677D01*
X44378440Y-145216196D01*
X44435978Y-145001463D01*
X44455353Y-144780002D01*
X67304647Y-144780002D01*
X67324021Y-145001457D01*
X67324022Y-145001465D01*
X67381558Y-145216191D01*
X67381559Y-145216193D01*
X67381560Y-145216196D01*
X67428536Y-145316936D01*
X67475511Y-145417676D01*
X67475512Y-145417677D01*
X67603023Y-145599781D01*
X67760219Y-145756977D01*
X67942323Y-145884488D01*
X68143804Y-145978440D01*
X68358537Y-146035978D01*
X68516724Y-146049817D01*
X68579998Y-146055353D01*
X68580000Y-146055353D01*
X68580002Y-146055353D01*
X68635365Y-146050509D01*
X68801463Y-146035978D01*
X69016196Y-145978440D01*
X69217677Y-145884488D01*
X69399781Y-145756977D01*
X69556977Y-145599781D01*
X69684488Y-145417677D01*
X69778440Y-145216196D01*
X69835978Y-145001463D01*
X69855353Y-144780000D01*
X69835978Y-144558537D01*
X69778440Y-144343804D01*
X69684488Y-144142324D01*
X69684486Y-144142321D01*
X69684485Y-144142319D01*
X69556978Y-143960220D01*
X69556975Y-143960217D01*
X69399781Y-143803023D01*
X69217677Y-143675512D01*
X69217678Y-143675512D01*
X69217676Y-143675511D01*
X69093682Y-143617692D01*
X69041243Y-143571519D01*
X69022091Y-143504326D01*
X69042307Y-143437445D01*
X69093684Y-143392927D01*
X69213413Y-143337097D01*
X69213420Y-143337093D01*
X69278186Y-143291742D01*
X69278187Y-143291740D01*
X68749276Y-142762829D01*
X68715791Y-142701506D01*
X68720775Y-142631814D01*
X68762647Y-142575881D01*
X68777933Y-142566097D01*
X68817251Y-142544820D01*
X68903371Y-142451269D01*
X68904083Y-142449643D01*
X68905652Y-142447777D01*
X68908992Y-142442666D01*
X68909609Y-142443069D01*
X68949036Y-142396158D01*
X69015770Y-142375464D01*
X69083099Y-142394135D01*
X69105322Y-142411769D01*
X69631740Y-142938187D01*
X69631742Y-142938186D01*
X69677093Y-142873420D01*
X69677100Y-142873408D01*
X69770419Y-142673284D01*
X69770424Y-142673270D01*
X69827573Y-142459986D01*
X69827575Y-142459976D01*
X69846821Y-142240000D01*
X69846821Y-142239999D01*
X69827575Y-142020023D01*
X69827573Y-142020013D01*
X69770424Y-141806729D01*
X69770420Y-141806720D01*
X69677098Y-141606590D01*
X69631740Y-141541811D01*
X69102949Y-142070602D01*
X69041626Y-142104087D01*
X68971934Y-142099103D01*
X68916001Y-142057231D01*
X68911460Y-142050743D01*
X68864189Y-141978391D01*
X68864187Y-141978388D01*
X68808673Y-141935180D01*
X68763843Y-141900287D01*
X68763840Y-141900285D01*
X68763488Y-141900012D01*
X68722675Y-141843301D01*
X68719000Y-141773529D01*
X68751969Y-141714477D01*
X69278187Y-141188258D01*
X69213409Y-141142900D01*
X69213407Y-141142899D01*
X69093683Y-141087071D01*
X69041243Y-141040899D01*
X69022091Y-140973705D01*
X69042307Y-140906824D01*
X69093682Y-140862307D01*
X69217677Y-140804488D01*
X69399781Y-140676977D01*
X69556977Y-140519781D01*
X69684488Y-140337677D01*
X69778440Y-140136196D01*
X69835978Y-139921463D01*
X69855353Y-139700002D01*
X74924647Y-139700002D01*
X74944021Y-139921457D01*
X74944022Y-139921465D01*
X75001558Y-140136191D01*
X75001559Y-140136193D01*
X75001560Y-140136196D01*
X75048536Y-140236936D01*
X75095511Y-140337676D01*
X75095512Y-140337677D01*
X75223023Y-140519781D01*
X75380219Y-140676977D01*
X75562323Y-140804488D01*
X75763804Y-140898440D01*
X75978537Y-140955978D01*
X76136724Y-140969817D01*
X76199998Y-140975353D01*
X76200000Y-140975353D01*
X76200002Y-140975353D01*
X76255365Y-140970509D01*
X76421463Y-140955978D01*
X76636196Y-140898440D01*
X76837677Y-140804488D01*
X77019781Y-140676977D01*
X77176977Y-140519781D01*
X77304488Y-140337677D01*
X77398440Y-140136196D01*
X77455978Y-139921463D01*
X77475353Y-139700002D01*
X90164647Y-139700002D01*
X90184021Y-139921457D01*
X90184022Y-139921465D01*
X90241558Y-140136191D01*
X90241559Y-140136193D01*
X90241560Y-140136196D01*
X90288536Y-140236936D01*
X90335511Y-140337676D01*
X90335512Y-140337677D01*
X90463023Y-140519781D01*
X90620219Y-140676977D01*
X90802323Y-140804488D01*
X91003804Y-140898440D01*
X91218537Y-140955978D01*
X91376724Y-140969817D01*
X91439998Y-140975353D01*
X91440000Y-140975353D01*
X91440002Y-140975353D01*
X91495365Y-140970509D01*
X91661463Y-140955978D01*
X91876196Y-140898440D01*
X92077677Y-140804488D01*
X92259781Y-140676977D01*
X92416977Y-140519781D01*
X92544488Y-140337677D01*
X92638440Y-140136196D01*
X92695978Y-139921463D01*
X92715353Y-139700000D01*
X92695978Y-139478537D01*
X92638440Y-139263804D01*
X92544488Y-139062324D01*
X92544486Y-139062321D01*
X92544485Y-139062319D01*
X92416978Y-138880220D01*
X92416975Y-138880217D01*
X92259781Y-138723023D01*
X92077677Y-138595512D01*
X91963738Y-138542381D01*
X91911299Y-138496210D01*
X91892147Y-138429017D01*
X91912363Y-138362135D01*
X91963739Y-138317618D01*
X92077677Y-138264488D01*
X92259781Y-138136977D01*
X92416977Y-137979781D01*
X92544488Y-137797677D01*
X92638440Y-137596196D01*
X92695978Y-137381463D01*
X92715353Y-137160000D01*
X92695978Y-136938537D01*
X92638440Y-136723804D01*
X92544488Y-136522324D01*
X92544486Y-136522321D01*
X92544485Y-136522319D01*
X92416978Y-136340220D01*
X92416975Y-136340217D01*
X92259781Y-136183023D01*
X92077677Y-136055512D01*
X91963738Y-136002381D01*
X91911299Y-135956210D01*
X91892147Y-135889017D01*
X91912363Y-135822135D01*
X91963739Y-135777618D01*
X92077677Y-135724488D01*
X92259781Y-135596977D01*
X92416977Y-135439781D01*
X92544488Y-135257677D01*
X92638440Y-135056196D01*
X92695978Y-134841463D01*
X92715353Y-134620000D01*
X92695978Y-134398537D01*
X92638440Y-134183804D01*
X92544488Y-133982324D01*
X92544486Y-133982321D01*
X92544485Y-133982319D01*
X92416978Y-133800220D01*
X92416975Y-133800217D01*
X92259781Y-133643023D01*
X92077677Y-133515512D01*
X91963738Y-133462381D01*
X91911299Y-133416210D01*
X91892147Y-133349017D01*
X91912363Y-133282135D01*
X91963739Y-133237618D01*
X92077677Y-133184488D01*
X92259781Y-133056977D01*
X92416977Y-132899781D01*
X92544488Y-132717677D01*
X92638440Y-132516196D01*
X92695978Y-132301463D01*
X92715353Y-132080000D01*
X92695978Y-131858537D01*
X92638440Y-131643804D01*
X92544488Y-131442324D01*
X92544486Y-131442321D01*
X92544485Y-131442319D01*
X92416978Y-131260220D01*
X92416975Y-131260217D01*
X92259781Y-131103023D01*
X92077677Y-130975512D01*
X91963738Y-130922381D01*
X91911299Y-130876210D01*
X91892147Y-130809017D01*
X91912363Y-130742135D01*
X91963739Y-130697618D01*
X92077677Y-130644488D01*
X92259781Y-130516977D01*
X92416977Y-130359781D01*
X92544488Y-130177677D01*
X92638440Y-129976196D01*
X92695978Y-129761463D01*
X92715353Y-129540000D01*
X92695978Y-129318537D01*
X92638440Y-129103804D01*
X92544488Y-128902324D01*
X92544486Y-128902321D01*
X92544485Y-128902319D01*
X92416978Y-128720220D01*
X92416975Y-128720217D01*
X92259781Y-128563023D01*
X92077677Y-128435512D01*
X91963738Y-128382381D01*
X91911299Y-128336210D01*
X91892147Y-128269017D01*
X91912363Y-128202135D01*
X91963739Y-128157618D01*
X92077677Y-128104488D01*
X92259781Y-127976977D01*
X92416977Y-127819781D01*
X92544488Y-127637677D01*
X92638440Y-127436196D01*
X92695978Y-127221463D01*
X92715353Y-127000000D01*
X92695978Y-126778537D01*
X92638440Y-126563804D01*
X92544488Y-126362324D01*
X92544486Y-126362321D01*
X92544485Y-126362319D01*
X92416978Y-126180220D01*
X92416975Y-126180217D01*
X92259781Y-126023023D01*
X92077677Y-125895512D01*
X91963738Y-125842381D01*
X91911299Y-125796210D01*
X91892147Y-125729017D01*
X91912363Y-125662135D01*
X91963739Y-125617618D01*
X92077677Y-125564488D01*
X92259781Y-125436977D01*
X92416977Y-125279781D01*
X92544488Y-125097677D01*
X92638440Y-124896196D01*
X92695978Y-124681463D01*
X92715353Y-124460000D01*
X92695978Y-124238537D01*
X92638440Y-124023804D01*
X92544488Y-123822324D01*
X92544486Y-123822321D01*
X92544485Y-123822319D01*
X92416978Y-123640220D01*
X92416975Y-123640217D01*
X92259781Y-123483023D01*
X92077677Y-123355512D01*
X91963738Y-123302381D01*
X91911299Y-123256210D01*
X91892147Y-123189017D01*
X91912363Y-123122135D01*
X91963739Y-123077618D01*
X92077677Y-123024488D01*
X92259781Y-122896977D01*
X92416977Y-122739781D01*
X92544488Y-122557677D01*
X92638440Y-122356196D01*
X92695978Y-122141463D01*
X92715353Y-121920000D01*
X92695978Y-121698537D01*
X92638440Y-121483804D01*
X92544488Y-121282324D01*
X92544486Y-121282321D01*
X92544485Y-121282319D01*
X92416978Y-121100220D01*
X92416975Y-121100217D01*
X92259781Y-120943023D01*
X92077677Y-120815512D01*
X91963738Y-120762381D01*
X91911299Y-120716210D01*
X91892147Y-120649017D01*
X91912363Y-120582135D01*
X91963739Y-120537618D01*
X91973799Y-120532927D01*
X92077677Y-120484488D01*
X92259781Y-120356977D01*
X92416977Y-120199781D01*
X92544488Y-120017677D01*
X92638440Y-119816196D01*
X92695978Y-119601463D01*
X92715353Y-119380000D01*
X92712562Y-119348102D01*
X92707057Y-119285177D01*
X92695978Y-119158537D01*
X92638440Y-118943804D01*
X92544488Y-118742324D01*
X92544486Y-118742321D01*
X92544485Y-118742319D01*
X92416978Y-118560220D01*
X92416975Y-118560217D01*
X92259781Y-118403023D01*
X92077677Y-118275512D01*
X91963738Y-118222381D01*
X91911299Y-118176210D01*
X91892147Y-118109017D01*
X91912363Y-118042135D01*
X91963739Y-117997618D01*
X92077677Y-117944488D01*
X92259781Y-117816977D01*
X92416977Y-117659781D01*
X92544488Y-117477677D01*
X92638440Y-117276196D01*
X92695978Y-117061463D01*
X92715353Y-116840000D01*
X92712562Y-116808102D01*
X92707057Y-116745177D01*
X92695978Y-116618537D01*
X92638440Y-116403804D01*
X92544488Y-116202324D01*
X92544486Y-116202321D01*
X92544485Y-116202319D01*
X92416978Y-116020220D01*
X92416975Y-116020217D01*
X92259781Y-115863023D01*
X92077677Y-115735512D01*
X91963738Y-115682381D01*
X91911299Y-115636210D01*
X91892147Y-115569017D01*
X91912363Y-115502135D01*
X91963739Y-115457618D01*
X92077677Y-115404488D01*
X92259781Y-115276977D01*
X92416977Y-115119781D01*
X92544488Y-114937677D01*
X92638440Y-114736196D01*
X92695978Y-114521463D01*
X92715353Y-114300000D01*
X92695978Y-114078537D01*
X92638440Y-113863804D01*
X92544488Y-113662324D01*
X92544486Y-113662321D01*
X92544485Y-113662319D01*
X92416978Y-113480220D01*
X92342218Y-113405460D01*
X92259781Y-113323023D01*
X92077677Y-113195512D01*
X91963738Y-113142381D01*
X91911299Y-113096210D01*
X91892147Y-113029017D01*
X91912363Y-112962135D01*
X91963739Y-112917618D01*
X92077677Y-112864488D01*
X92259781Y-112736977D01*
X92416977Y-112579781D01*
X92544488Y-112397677D01*
X92638440Y-112196196D01*
X92695978Y-111981463D01*
X92715353Y-111760000D01*
X92695978Y-111538537D01*
X92638440Y-111323804D01*
X92544488Y-111122324D01*
X92544486Y-111122321D01*
X92544485Y-111122319D01*
X92416978Y-110940220D01*
X92416975Y-110940217D01*
X92259781Y-110783023D01*
X92077677Y-110655512D01*
X91963738Y-110602381D01*
X91911299Y-110556210D01*
X91892147Y-110489017D01*
X91912363Y-110422135D01*
X91963739Y-110377618D01*
X92077677Y-110324488D01*
X92259781Y-110196977D01*
X92416977Y-110039781D01*
X92544488Y-109857677D01*
X92638440Y-109656196D01*
X92695978Y-109441463D01*
X92715353Y-109220000D01*
X92695978Y-108998537D01*
X92638440Y-108783804D01*
X92544488Y-108582324D01*
X92544486Y-108582321D01*
X92544485Y-108582319D01*
X92416978Y-108400220D01*
X92416975Y-108400217D01*
X92259781Y-108243023D01*
X92077677Y-108115512D01*
X91963738Y-108062381D01*
X91911299Y-108016210D01*
X91892147Y-107949017D01*
X91912363Y-107882135D01*
X91963739Y-107837618D01*
X92077677Y-107784488D01*
X92259781Y-107656977D01*
X92416977Y-107499781D01*
X92544488Y-107317677D01*
X92638440Y-107116196D01*
X92695978Y-106901463D01*
X92715353Y-106680000D01*
X92695978Y-106458537D01*
X92638440Y-106243804D01*
X92544488Y-106042324D01*
X92544486Y-106042321D01*
X92544485Y-106042319D01*
X92416978Y-105860220D01*
X92416975Y-105860217D01*
X92259781Y-105703023D01*
X92077677Y-105575512D01*
X92077678Y-105575512D01*
X92077676Y-105575511D01*
X91963739Y-105522382D01*
X91876196Y-105481560D01*
X91876193Y-105481559D01*
X91876191Y-105481558D01*
X91661465Y-105424022D01*
X91661457Y-105424021D01*
X91440002Y-105404647D01*
X91439998Y-105404647D01*
X91218542Y-105424021D01*
X91218535Y-105424022D01*
X91003800Y-105481561D01*
X90802323Y-105575512D01*
X90802319Y-105575514D01*
X90620217Y-105703023D01*
X90463023Y-105860217D01*
X90335514Y-106042319D01*
X90335512Y-106042323D01*
X90241561Y-106243800D01*
X90184022Y-106458535D01*
X90184021Y-106458542D01*
X90164647Y-106679997D01*
X90164647Y-106680002D01*
X90184021Y-106901457D01*
X90184022Y-106901465D01*
X90241558Y-107116191D01*
X90241559Y-107116193D01*
X90241560Y-107116196D01*
X90288535Y-107216936D01*
X90335511Y-107317676D01*
X90335512Y-107317677D01*
X90463023Y-107499781D01*
X90620219Y-107656977D01*
X90802322Y-107784487D01*
X90802323Y-107784488D01*
X90916261Y-107837618D01*
X90968700Y-107883790D01*
X90987852Y-107950984D01*
X90967636Y-108017865D01*
X90916261Y-108062382D01*
X90802323Y-108115512D01*
X90802319Y-108115514D01*
X90620217Y-108243023D01*
X90463023Y-108400217D01*
X90335514Y-108582319D01*
X90335512Y-108582323D01*
X90241561Y-108783800D01*
X90184022Y-108998535D01*
X90184021Y-108998542D01*
X90164647Y-109219997D01*
X90164647Y-109220002D01*
X90184021Y-109441457D01*
X90184022Y-109441465D01*
X90241558Y-109656191D01*
X90241559Y-109656193D01*
X90241560Y-109656196D01*
X90288535Y-109756936D01*
X90335511Y-109857676D01*
X90335512Y-109857677D01*
X90463023Y-110039781D01*
X90620219Y-110196977D01*
X90802322Y-110324487D01*
X90802323Y-110324488D01*
X90916261Y-110377618D01*
X90968700Y-110423790D01*
X90987852Y-110490984D01*
X90967636Y-110557865D01*
X90916261Y-110602382D01*
X90802323Y-110655512D01*
X90802319Y-110655514D01*
X90620217Y-110783023D01*
X90463023Y-110940217D01*
X90335514Y-111122319D01*
X90335512Y-111122323D01*
X90241561Y-111323800D01*
X90184022Y-111538535D01*
X90184021Y-111538542D01*
X90164647Y-111759997D01*
X90164647Y-111760002D01*
X90184021Y-111981457D01*
X90184022Y-111981465D01*
X90241558Y-112196191D01*
X90241559Y-112196193D01*
X90241560Y-112196196D01*
X90288535Y-112296936D01*
X90335511Y-112397676D01*
X90335512Y-112397677D01*
X90463023Y-112579781D01*
X90620219Y-112736977D01*
X90802322Y-112864487D01*
X90802323Y-112864488D01*
X90916261Y-112917618D01*
X90968700Y-112963790D01*
X90987852Y-113030984D01*
X90967636Y-113097865D01*
X90916261Y-113142382D01*
X90802323Y-113195512D01*
X90802319Y-113195514D01*
X90620217Y-113323023D01*
X90463023Y-113480217D01*
X90335514Y-113662319D01*
X90335512Y-113662323D01*
X90241561Y-113863800D01*
X90184022Y-114078535D01*
X90184021Y-114078542D01*
X90164647Y-114299997D01*
X90164647Y-114300002D01*
X90184021Y-114521457D01*
X90184022Y-114521465D01*
X90241558Y-114736191D01*
X90241559Y-114736193D01*
X90241560Y-114736196D01*
X90271312Y-114799999D01*
X90335511Y-114937676D01*
X90335512Y-114937677D01*
X90463023Y-115119781D01*
X90620219Y-115276977D01*
X90790492Y-115396204D01*
X90802323Y-115404488D01*
X90916261Y-115457618D01*
X90968700Y-115503790D01*
X90987852Y-115570984D01*
X90967636Y-115637865D01*
X90916261Y-115682382D01*
X90802323Y-115735512D01*
X90802319Y-115735514D01*
X90620217Y-115863023D01*
X90463023Y-116020217D01*
X90335514Y-116202319D01*
X90335512Y-116202323D01*
X90241561Y-116403800D01*
X90184022Y-116618535D01*
X90184021Y-116618542D01*
X90164647Y-116839997D01*
X90164647Y-116840002D01*
X90184021Y-117061457D01*
X90184022Y-117061465D01*
X90241558Y-117276191D01*
X90241559Y-117276193D01*
X90241560Y-117276196D01*
X90255677Y-117306470D01*
X90335511Y-117477676D01*
X90335512Y-117477677D01*
X90463023Y-117659781D01*
X90620219Y-117816977D01*
X90791762Y-117937093D01*
X90802323Y-117944488D01*
X90916261Y-117997618D01*
X90968700Y-118043790D01*
X90987852Y-118110984D01*
X90967636Y-118177865D01*
X90916261Y-118222382D01*
X90802323Y-118275512D01*
X90802319Y-118275514D01*
X90620217Y-118403023D01*
X90463023Y-118560217D01*
X90335514Y-118742319D01*
X90335512Y-118742323D01*
X90241561Y-118943800D01*
X90184022Y-119158535D01*
X90184021Y-119158542D01*
X90164647Y-119379997D01*
X90164647Y-119380002D01*
X90184021Y-119601457D01*
X90184022Y-119601465D01*
X90241558Y-119816191D01*
X90241559Y-119816193D01*
X90241560Y-119816196D01*
X90255677Y-119846470D01*
X90335511Y-120017676D01*
X90335512Y-120017677D01*
X90463023Y-120199781D01*
X90620219Y-120356977D01*
X90791762Y-120477093D01*
X90802323Y-120484488D01*
X90916261Y-120537618D01*
X90968700Y-120583790D01*
X90987852Y-120650984D01*
X90967636Y-120717865D01*
X90916261Y-120762382D01*
X90802323Y-120815512D01*
X90802319Y-120815514D01*
X90620217Y-120943023D01*
X90463023Y-121100217D01*
X90335514Y-121282319D01*
X90335512Y-121282323D01*
X90241561Y-121483800D01*
X90184022Y-121698535D01*
X90184021Y-121698542D01*
X90164647Y-121919997D01*
X90164647Y-121920002D01*
X90184021Y-122141457D01*
X90184022Y-122141465D01*
X90241558Y-122356191D01*
X90241559Y-122356193D01*
X90241560Y-122356196D01*
X90288535Y-122456936D01*
X90335511Y-122557676D01*
X90335512Y-122557677D01*
X90463023Y-122739781D01*
X90620219Y-122896977D01*
X90802322Y-123024487D01*
X90802323Y-123024488D01*
X90916261Y-123077618D01*
X90968700Y-123123790D01*
X90987852Y-123190984D01*
X90967636Y-123257865D01*
X90916261Y-123302382D01*
X90802323Y-123355512D01*
X90802319Y-123355514D01*
X90620217Y-123483023D01*
X90463023Y-123640217D01*
X90335514Y-123822319D01*
X90335512Y-123822323D01*
X90241561Y-124023800D01*
X90184022Y-124238535D01*
X90184021Y-124238542D01*
X90164647Y-124459997D01*
X90164647Y-124460002D01*
X90184021Y-124681457D01*
X90184022Y-124681465D01*
X90241558Y-124896191D01*
X90241559Y-124896193D01*
X90241560Y-124896196D01*
X90288535Y-124996936D01*
X90335511Y-125097676D01*
X90335512Y-125097677D01*
X90463023Y-125279781D01*
X90620219Y-125436977D01*
X90802322Y-125564487D01*
X90802323Y-125564488D01*
X90916261Y-125617618D01*
X90968700Y-125663790D01*
X90987852Y-125730984D01*
X90967636Y-125797865D01*
X90916261Y-125842382D01*
X90802323Y-125895512D01*
X90802319Y-125895514D01*
X90620217Y-126023023D01*
X90463023Y-126180217D01*
X90335514Y-126362319D01*
X90335512Y-126362323D01*
X90241561Y-126563800D01*
X90184022Y-126778535D01*
X90184021Y-126778542D01*
X90164647Y-126999997D01*
X90164647Y-127000002D01*
X90184021Y-127221457D01*
X90184022Y-127221465D01*
X90241558Y-127436191D01*
X90241559Y-127436193D01*
X90241560Y-127436196D01*
X90288535Y-127536936D01*
X90335511Y-127637676D01*
X90335512Y-127637677D01*
X90463023Y-127819781D01*
X90620219Y-127976977D01*
X90802322Y-128104488D01*
X90802323Y-128104488D01*
X90916261Y-128157618D01*
X90968700Y-128203790D01*
X90987852Y-128270984D01*
X90967636Y-128337865D01*
X90916261Y-128382382D01*
X90802323Y-128435512D01*
X90802319Y-128435514D01*
X90620217Y-128563023D01*
X90463023Y-128720217D01*
X90335514Y-128902319D01*
X90335512Y-128902323D01*
X90241561Y-129103800D01*
X90184022Y-129318535D01*
X90184021Y-129318542D01*
X90164647Y-129539997D01*
X90164647Y-129540002D01*
X90184021Y-129761457D01*
X90184022Y-129761465D01*
X90241558Y-129976191D01*
X90241559Y-129976193D01*
X90241560Y-129976196D01*
X90288536Y-130076936D01*
X90335511Y-130177676D01*
X90335512Y-130177677D01*
X90463023Y-130359781D01*
X90620219Y-130516977D01*
X90802322Y-130644487D01*
X90802323Y-130644488D01*
X90916261Y-130697618D01*
X90968700Y-130743790D01*
X90987852Y-130810984D01*
X90967636Y-130877865D01*
X90916261Y-130922382D01*
X90802323Y-130975512D01*
X90802319Y-130975514D01*
X90620217Y-131103023D01*
X90463023Y-131260217D01*
X90335514Y-131442319D01*
X90335512Y-131442323D01*
X90241561Y-131643800D01*
X90184022Y-131858535D01*
X90184021Y-131858542D01*
X90164647Y-132079997D01*
X90164647Y-132080002D01*
X90184021Y-132301457D01*
X90184022Y-132301465D01*
X90241558Y-132516191D01*
X90241559Y-132516193D01*
X90241560Y-132516196D01*
X90288536Y-132616936D01*
X90335511Y-132717676D01*
X90335512Y-132717677D01*
X90463023Y-132899781D01*
X90620219Y-133056977D01*
X90802323Y-133184487D01*
X90802323Y-133184488D01*
X90916261Y-133237618D01*
X90968700Y-133283790D01*
X90987852Y-133350984D01*
X90967636Y-133417865D01*
X90916261Y-133462382D01*
X90802323Y-133515512D01*
X90802319Y-133515514D01*
X90620217Y-133643023D01*
X90463023Y-133800217D01*
X90335514Y-133982319D01*
X90335512Y-133982323D01*
X90241561Y-134183800D01*
X90184022Y-134398535D01*
X90184021Y-134398542D01*
X90164647Y-134619997D01*
X90164647Y-134620002D01*
X90184021Y-134841457D01*
X90184022Y-134841465D01*
X90241558Y-135056191D01*
X90241559Y-135056193D01*
X90241560Y-135056196D01*
X90288536Y-135156936D01*
X90335511Y-135257676D01*
X90335512Y-135257677D01*
X90463023Y-135439781D01*
X90620219Y-135596977D01*
X90802323Y-135724488D01*
X90916261Y-135777618D01*
X90968700Y-135823790D01*
X90987852Y-135890984D01*
X90967636Y-135957865D01*
X90916261Y-136002382D01*
X90802323Y-136055512D01*
X90802319Y-136055514D01*
X90620217Y-136183023D01*
X90463023Y-136340217D01*
X90335514Y-136522319D01*
X90335512Y-136522323D01*
X90241561Y-136723800D01*
X90184022Y-136938535D01*
X90184021Y-136938542D01*
X90164647Y-137159997D01*
X90164647Y-137160002D01*
X90184021Y-137381457D01*
X90184022Y-137381465D01*
X90241558Y-137596191D01*
X90241559Y-137596193D01*
X90241560Y-137596196D01*
X90288536Y-137696936D01*
X90335511Y-137797676D01*
X90335512Y-137797677D01*
X90463023Y-137979781D01*
X90620219Y-138136977D01*
X90802323Y-138264487D01*
X90802323Y-138264488D01*
X90916261Y-138317618D01*
X90968700Y-138363790D01*
X90987852Y-138430984D01*
X90967636Y-138497865D01*
X90916261Y-138542382D01*
X90802323Y-138595512D01*
X90802319Y-138595514D01*
X90620217Y-138723023D01*
X90463023Y-138880217D01*
X90335514Y-139062319D01*
X90335512Y-139062323D01*
X90241561Y-139263800D01*
X90184022Y-139478535D01*
X90184021Y-139478542D01*
X90164647Y-139699997D01*
X90164647Y-139700002D01*
X77475353Y-139700002D01*
X77475353Y-139700000D01*
X77455978Y-139478537D01*
X77398440Y-139263804D01*
X77304488Y-139062324D01*
X77304486Y-139062321D01*
X77304485Y-139062319D01*
X77176978Y-138880220D01*
X77176975Y-138880217D01*
X77019781Y-138723023D01*
X76837677Y-138595512D01*
X76723738Y-138542381D01*
X76671299Y-138496210D01*
X76652147Y-138429017D01*
X76672363Y-138362135D01*
X76723739Y-138317618D01*
X76837677Y-138264488D01*
X77019781Y-138136977D01*
X77176977Y-137979781D01*
X77304488Y-137797677D01*
X77398440Y-137596196D01*
X77455978Y-137381463D01*
X77475353Y-137160000D01*
X77455978Y-136938537D01*
X77398440Y-136723804D01*
X77304488Y-136522324D01*
X77304486Y-136522321D01*
X77304485Y-136522319D01*
X77176978Y-136340220D01*
X77176975Y-136340217D01*
X77019781Y-136183023D01*
X76837677Y-136055512D01*
X76723738Y-136002381D01*
X76671299Y-135956210D01*
X76652147Y-135889017D01*
X76672363Y-135822135D01*
X76723739Y-135777618D01*
X76837677Y-135724488D01*
X77019781Y-135596977D01*
X77176977Y-135439781D01*
X77304488Y-135257677D01*
X77398440Y-135056196D01*
X77455978Y-134841463D01*
X77475353Y-134620000D01*
X77455978Y-134398537D01*
X77398440Y-134183804D01*
X77304488Y-133982324D01*
X77304486Y-133982321D01*
X77304485Y-133982319D01*
X77176978Y-133800220D01*
X77176975Y-133800217D01*
X77019781Y-133643023D01*
X76837677Y-133515512D01*
X76723738Y-133462381D01*
X76671299Y-133416210D01*
X76652147Y-133349017D01*
X76672363Y-133282135D01*
X76723739Y-133237618D01*
X76837677Y-133184488D01*
X77019781Y-133056977D01*
X77176977Y-132899781D01*
X77304488Y-132717677D01*
X77398440Y-132516196D01*
X77455978Y-132301463D01*
X77475353Y-132080000D01*
X77455978Y-131858537D01*
X77398440Y-131643804D01*
X77304488Y-131442324D01*
X77304486Y-131442321D01*
X77304485Y-131442319D01*
X77176978Y-131260220D01*
X77176975Y-131260217D01*
X77019781Y-131103023D01*
X76837677Y-130975512D01*
X76723738Y-130922381D01*
X76671299Y-130876210D01*
X76652147Y-130809017D01*
X76672363Y-130742135D01*
X76723739Y-130697618D01*
X76837677Y-130644488D01*
X77019781Y-130516977D01*
X77176977Y-130359781D01*
X77304488Y-130177677D01*
X77398440Y-129976196D01*
X77455978Y-129761463D01*
X77475353Y-129540000D01*
X77455978Y-129318537D01*
X77398440Y-129103804D01*
X77304488Y-128902324D01*
X77304486Y-128902321D01*
X77304485Y-128902319D01*
X77176978Y-128720220D01*
X77176975Y-128720217D01*
X77019781Y-128563023D01*
X76837677Y-128435512D01*
X76723738Y-128382381D01*
X76671299Y-128336210D01*
X76652147Y-128269017D01*
X76672363Y-128202135D01*
X76723739Y-128157618D01*
X76837677Y-128104488D01*
X77019781Y-127976977D01*
X77176977Y-127819781D01*
X77304488Y-127637677D01*
X77398440Y-127436196D01*
X77455978Y-127221463D01*
X77475353Y-127000000D01*
X77455978Y-126778537D01*
X77398440Y-126563804D01*
X77304488Y-126362324D01*
X77304486Y-126362321D01*
X77304485Y-126362319D01*
X77176978Y-126180220D01*
X77176975Y-126180217D01*
X77019781Y-126023023D01*
X76837677Y-125895512D01*
X76723738Y-125842381D01*
X76671299Y-125796210D01*
X76652147Y-125729017D01*
X76672363Y-125662135D01*
X76723739Y-125617618D01*
X76837677Y-125564488D01*
X77019781Y-125436977D01*
X77176977Y-125279781D01*
X77304488Y-125097677D01*
X77398440Y-124896196D01*
X77455978Y-124681463D01*
X77475353Y-124460000D01*
X77455978Y-124238537D01*
X77398440Y-124023804D01*
X77304488Y-123822324D01*
X77304486Y-123822321D01*
X77304485Y-123822319D01*
X77176978Y-123640220D01*
X77176975Y-123640217D01*
X77019781Y-123483023D01*
X76837677Y-123355512D01*
X76723738Y-123302381D01*
X76671299Y-123256210D01*
X76652147Y-123189017D01*
X76672363Y-123122135D01*
X76723739Y-123077618D01*
X76837677Y-123024488D01*
X77019781Y-122896977D01*
X77176977Y-122739781D01*
X77304488Y-122557677D01*
X77398440Y-122356196D01*
X77455978Y-122141463D01*
X77475353Y-121920000D01*
X77455978Y-121698537D01*
X77398440Y-121483804D01*
X77304488Y-121282324D01*
X77304486Y-121282321D01*
X77304485Y-121282319D01*
X77176978Y-121100220D01*
X77176975Y-121100217D01*
X77019781Y-120943023D01*
X76837677Y-120815512D01*
X76837678Y-120815512D01*
X76837676Y-120815511D01*
X76713682Y-120757692D01*
X76661243Y-120711519D01*
X76642091Y-120644326D01*
X76662307Y-120577445D01*
X76713684Y-120532927D01*
X76833413Y-120477097D01*
X76833420Y-120477093D01*
X76898186Y-120431742D01*
X76898187Y-120431740D01*
X76369276Y-119902829D01*
X76335791Y-119841506D01*
X76340775Y-119771814D01*
X76382647Y-119715881D01*
X76397933Y-119706097D01*
X76437251Y-119684820D01*
X76523371Y-119591269D01*
X76524083Y-119589643D01*
X76525652Y-119587777D01*
X76528992Y-119582666D01*
X76529609Y-119583069D01*
X76569036Y-119536158D01*
X76635770Y-119515464D01*
X76703099Y-119534135D01*
X76725322Y-119551769D01*
X77251740Y-120078187D01*
X77251742Y-120078186D01*
X77297093Y-120013420D01*
X77297100Y-120013408D01*
X77390419Y-119813284D01*
X77390424Y-119813270D01*
X77447573Y-119599986D01*
X77447575Y-119599976D01*
X77466821Y-119380000D01*
X77466821Y-119379999D01*
X77447575Y-119160023D01*
X77447573Y-119160013D01*
X77390424Y-118946729D01*
X77390420Y-118946720D01*
X77297098Y-118746590D01*
X77251740Y-118681811D01*
X76722949Y-119210602D01*
X76661626Y-119244087D01*
X76591934Y-119239103D01*
X76536001Y-119197231D01*
X76531460Y-119190743D01*
X76484189Y-119118391D01*
X76484187Y-119118388D01*
X76428673Y-119075180D01*
X76383843Y-119040287D01*
X76383840Y-119040285D01*
X76383488Y-119040012D01*
X76342675Y-118983301D01*
X76339000Y-118913529D01*
X76371969Y-118854477D01*
X76898187Y-118328258D01*
X76833409Y-118282900D01*
X76833407Y-118282899D01*
X76703627Y-118222382D01*
X76651187Y-118176210D01*
X76632035Y-118109017D01*
X76652251Y-118042135D01*
X76703627Y-117997618D01*
X76833408Y-117937100D01*
X76833420Y-117937093D01*
X76898186Y-117891742D01*
X76898187Y-117891740D01*
X76369276Y-117362829D01*
X76335791Y-117301506D01*
X76340775Y-117231814D01*
X76382647Y-117175881D01*
X76397933Y-117166097D01*
X76437251Y-117144820D01*
X76523371Y-117051269D01*
X76524083Y-117049643D01*
X76525652Y-117047777D01*
X76528992Y-117042666D01*
X76529609Y-117043069D01*
X76569036Y-116996158D01*
X76635770Y-116975464D01*
X76703099Y-116994135D01*
X76725322Y-117011769D01*
X77251740Y-117538187D01*
X77251742Y-117538186D01*
X77297093Y-117473420D01*
X77297100Y-117473408D01*
X77390419Y-117273284D01*
X77390424Y-117273270D01*
X77447573Y-117059986D01*
X77447575Y-117059976D01*
X77466821Y-116840000D01*
X77466821Y-116839999D01*
X77447575Y-116620023D01*
X77447573Y-116620013D01*
X77390424Y-116406729D01*
X77390420Y-116406720D01*
X77297098Y-116206590D01*
X77251740Y-116141811D01*
X76722949Y-116670602D01*
X76661626Y-116704087D01*
X76591934Y-116699103D01*
X76536001Y-116657231D01*
X76531460Y-116650743D01*
X76484189Y-116578391D01*
X76484187Y-116578388D01*
X76428673Y-116535180D01*
X76383843Y-116500287D01*
X76383840Y-116500285D01*
X76383488Y-116500012D01*
X76342675Y-116443301D01*
X76339000Y-116373529D01*
X76371969Y-116314477D01*
X76898187Y-115788258D01*
X76833409Y-115742900D01*
X76833407Y-115742899D01*
X76713683Y-115687071D01*
X76661243Y-115640899D01*
X76642091Y-115573705D01*
X76662307Y-115506824D01*
X76713682Y-115462307D01*
X76837677Y-115404488D01*
X77019781Y-115276977D01*
X77176977Y-115119781D01*
X77304488Y-114937677D01*
X77398440Y-114736196D01*
X77455978Y-114521463D01*
X77475353Y-114300000D01*
X77455978Y-114078537D01*
X77398440Y-113863804D01*
X77304488Y-113662324D01*
X77304486Y-113662321D01*
X77304485Y-113662319D01*
X77176978Y-113480220D01*
X77102218Y-113405460D01*
X77019781Y-113323023D01*
X76837677Y-113195512D01*
X76723738Y-113142381D01*
X76671299Y-113096210D01*
X76652147Y-113029017D01*
X76672363Y-112962135D01*
X76723739Y-112917618D01*
X76837677Y-112864488D01*
X77019781Y-112736977D01*
X77176977Y-112579781D01*
X77304488Y-112397677D01*
X77398440Y-112196196D01*
X77455978Y-111981463D01*
X77475353Y-111760000D01*
X77455978Y-111538537D01*
X77398440Y-111323804D01*
X77304488Y-111122324D01*
X77304486Y-111122321D01*
X77304485Y-111122319D01*
X77176978Y-110940220D01*
X77176975Y-110940217D01*
X77019781Y-110783023D01*
X76837677Y-110655512D01*
X76723738Y-110602381D01*
X76671299Y-110556210D01*
X76652147Y-110489017D01*
X76672363Y-110422135D01*
X76723739Y-110377618D01*
X76837677Y-110324488D01*
X77019781Y-110196977D01*
X77176977Y-110039781D01*
X77304488Y-109857677D01*
X77398440Y-109656196D01*
X77455978Y-109441463D01*
X77475353Y-109220000D01*
X77455978Y-108998537D01*
X77398440Y-108783804D01*
X77304488Y-108582324D01*
X77304486Y-108582321D01*
X77304485Y-108582319D01*
X77176978Y-108400220D01*
X77176975Y-108400217D01*
X77019781Y-108243023D01*
X76837677Y-108115512D01*
X76723738Y-108062381D01*
X76671299Y-108016210D01*
X76652147Y-107949017D01*
X76672363Y-107882135D01*
X76723739Y-107837618D01*
X76837677Y-107784488D01*
X77019781Y-107656977D01*
X77176977Y-107499781D01*
X77304488Y-107317677D01*
X77398440Y-107116196D01*
X77455978Y-106901463D01*
X77475353Y-106680000D01*
X77455978Y-106458537D01*
X77398440Y-106243804D01*
X77304488Y-106042324D01*
X77304486Y-106042321D01*
X77304485Y-106042319D01*
X77176978Y-105860220D01*
X77176975Y-105860217D01*
X77019781Y-105703023D01*
X76837677Y-105575512D01*
X76837678Y-105575512D01*
X76837676Y-105575511D01*
X76723739Y-105522382D01*
X76636196Y-105481560D01*
X76636193Y-105481559D01*
X76636191Y-105481558D01*
X76421465Y-105424022D01*
X76421457Y-105424021D01*
X76200002Y-105404647D01*
X76199998Y-105404647D01*
X75978542Y-105424021D01*
X75978535Y-105424022D01*
X75763800Y-105481561D01*
X75562323Y-105575512D01*
X75562319Y-105575514D01*
X75380217Y-105703023D01*
X75223023Y-105860217D01*
X75095514Y-106042319D01*
X75095512Y-106042323D01*
X75001561Y-106243800D01*
X74944022Y-106458535D01*
X74944021Y-106458542D01*
X74924647Y-106679997D01*
X74924647Y-106680002D01*
X74944021Y-106901457D01*
X74944022Y-106901465D01*
X75001558Y-107116191D01*
X75001559Y-107116193D01*
X75001560Y-107116196D01*
X75048536Y-107216936D01*
X75095511Y-107317676D01*
X75095512Y-107317677D01*
X75223023Y-107499781D01*
X75380219Y-107656977D01*
X75562322Y-107784488D01*
X75562323Y-107784488D01*
X75676261Y-107837618D01*
X75728700Y-107883790D01*
X75747852Y-107950984D01*
X75727636Y-108017865D01*
X75676261Y-108062382D01*
X75562323Y-108115512D01*
X75562319Y-108115514D01*
X75380217Y-108243023D01*
X75223023Y-108400217D01*
X75095514Y-108582319D01*
X75095512Y-108582323D01*
X75001561Y-108783800D01*
X74944022Y-108998535D01*
X74944021Y-108998542D01*
X74924647Y-109219997D01*
X74924647Y-109220002D01*
X74944021Y-109441457D01*
X74944022Y-109441465D01*
X75001558Y-109656191D01*
X75001559Y-109656193D01*
X75001560Y-109656196D01*
X75048536Y-109756936D01*
X75095511Y-109857676D01*
X75095512Y-109857677D01*
X75223023Y-110039781D01*
X75380219Y-110196977D01*
X75562322Y-110324487D01*
X75562323Y-110324488D01*
X75676261Y-110377618D01*
X75728700Y-110423790D01*
X75747852Y-110490984D01*
X75727636Y-110557865D01*
X75676261Y-110602382D01*
X75562323Y-110655512D01*
X75562319Y-110655514D01*
X75380217Y-110783023D01*
X75223023Y-110940217D01*
X75095514Y-111122319D01*
X75095512Y-111122323D01*
X75001561Y-111323800D01*
X74944022Y-111538535D01*
X74944021Y-111538542D01*
X74924647Y-111759997D01*
X74924647Y-111760002D01*
X74944021Y-111981457D01*
X74944022Y-111981465D01*
X75001558Y-112196191D01*
X75001559Y-112196193D01*
X75001560Y-112196196D01*
X75048536Y-112296936D01*
X75095511Y-112397676D01*
X75095512Y-112397677D01*
X75223023Y-112579781D01*
X75380219Y-112736977D01*
X75562322Y-112864487D01*
X75562323Y-112864488D01*
X75676261Y-112917618D01*
X75728700Y-112963790D01*
X75747852Y-113030984D01*
X75727636Y-113097865D01*
X75676261Y-113142382D01*
X75562323Y-113195512D01*
X75562319Y-113195514D01*
X75380217Y-113323023D01*
X75223023Y-113480217D01*
X75095514Y-113662319D01*
X75095512Y-113662323D01*
X75001561Y-113863800D01*
X74944022Y-114078535D01*
X74944021Y-114078542D01*
X74924647Y-114299997D01*
X74924647Y-114300002D01*
X74944021Y-114521457D01*
X74944022Y-114521465D01*
X75001558Y-114736191D01*
X75001559Y-114736193D01*
X75001560Y-114736196D01*
X75031312Y-114799999D01*
X75095511Y-114937676D01*
X75095512Y-114937677D01*
X75223023Y-115119781D01*
X75380219Y-115276977D01*
X75562323Y-115404488D01*
X75686317Y-115462307D01*
X75738756Y-115508479D01*
X75757908Y-115575673D01*
X75737692Y-115642554D01*
X75686317Y-115687071D01*
X75566586Y-115742903D01*
X75501812Y-115788257D01*
X75501811Y-115788258D01*
X76030723Y-116317170D01*
X76064208Y-116378493D01*
X76059224Y-116448185D01*
X76017352Y-116504118D01*
X76002059Y-116513906D01*
X75962749Y-116535179D01*
X75962748Y-116535179D01*
X75876626Y-116628733D01*
X75876626Y-116628734D01*
X75875911Y-116630365D01*
X75874340Y-116632233D01*
X75871008Y-116637334D01*
X75870391Y-116636931D01*
X75830952Y-116683849D01*
X75764215Y-116704535D01*
X75696888Y-116685857D01*
X75674677Y-116668230D01*
X75148258Y-116141811D01*
X75148257Y-116141812D01*
X75102903Y-116206586D01*
X75009579Y-116406720D01*
X75009575Y-116406729D01*
X74952426Y-116620013D01*
X74952424Y-116620023D01*
X74933179Y-116839999D01*
X74933179Y-116840000D01*
X74952424Y-117059976D01*
X74952426Y-117059986D01*
X75009575Y-117273270D01*
X75009580Y-117273284D01*
X75102899Y-117473407D01*
X75102900Y-117473409D01*
X75148258Y-117538187D01*
X75677050Y-117009395D01*
X75738373Y-116975910D01*
X75808064Y-116980894D01*
X75863998Y-117022765D01*
X75868539Y-117029254D01*
X75915813Y-117101612D01*
X76016157Y-117179713D01*
X76016160Y-117179714D01*
X76016511Y-117179987D01*
X76057324Y-117236697D01*
X76060999Y-117306470D01*
X76028030Y-117365522D01*
X75501811Y-117891741D01*
X75566582Y-117937094D01*
X75566588Y-117937098D01*
X75696373Y-117997618D01*
X75748812Y-118043790D01*
X75767964Y-118110984D01*
X75747748Y-118177865D01*
X75696373Y-118222382D01*
X75566586Y-118282903D01*
X75501812Y-118328257D01*
X75501811Y-118328258D01*
X76030723Y-118857170D01*
X76064208Y-118918493D01*
X76059224Y-118988185D01*
X76017352Y-119044118D01*
X76002059Y-119053906D01*
X75962749Y-119075179D01*
X75962748Y-119075179D01*
X75876626Y-119168733D01*
X75876626Y-119168734D01*
X75875911Y-119170365D01*
X75874340Y-119172233D01*
X75871008Y-119177334D01*
X75870391Y-119176931D01*
X75830952Y-119223849D01*
X75764215Y-119244535D01*
X75696888Y-119225857D01*
X75674677Y-119208230D01*
X75148258Y-118681811D01*
X75148257Y-118681812D01*
X75102903Y-118746586D01*
X75009579Y-118946720D01*
X75009575Y-118946729D01*
X74952426Y-119160013D01*
X74952424Y-119160023D01*
X74933179Y-119379999D01*
X74933179Y-119380000D01*
X74952424Y-119599976D01*
X74952426Y-119599986D01*
X75009575Y-119813270D01*
X75009580Y-119813284D01*
X75102899Y-120013407D01*
X75102900Y-120013409D01*
X75148258Y-120078187D01*
X75677050Y-119549395D01*
X75738373Y-119515910D01*
X75808064Y-119520894D01*
X75863998Y-119562765D01*
X75868539Y-119569254D01*
X75915813Y-119641612D01*
X76016157Y-119719713D01*
X76016160Y-119719714D01*
X76016511Y-119719987D01*
X76057324Y-119776697D01*
X76060999Y-119846470D01*
X76028030Y-119905522D01*
X75501811Y-120431741D01*
X75566582Y-120477094D01*
X75566592Y-120477100D01*
X75686316Y-120532928D01*
X75738756Y-120579100D01*
X75757908Y-120646293D01*
X75737693Y-120713174D01*
X75686318Y-120757692D01*
X75591228Y-120802033D01*
X75562329Y-120815510D01*
X75562320Y-120815514D01*
X75562319Y-120815514D01*
X75380217Y-120943023D01*
X75223023Y-121100217D01*
X75095514Y-121282319D01*
X75095512Y-121282323D01*
X75001561Y-121483800D01*
X74944022Y-121698535D01*
X74944021Y-121698542D01*
X74924647Y-121919997D01*
X74924647Y-121920002D01*
X74944021Y-122141457D01*
X74944022Y-122141465D01*
X75001558Y-122356191D01*
X75001559Y-122356193D01*
X75001560Y-122356196D01*
X75048536Y-122456936D01*
X75095511Y-122557676D01*
X75095512Y-122557677D01*
X75223023Y-122739781D01*
X75380219Y-122896977D01*
X75562323Y-123024487D01*
X75562323Y-123024488D01*
X75676261Y-123077618D01*
X75728700Y-123123790D01*
X75747852Y-123190984D01*
X75727636Y-123257865D01*
X75676261Y-123302382D01*
X75562323Y-123355512D01*
X75562319Y-123355514D01*
X75380217Y-123483023D01*
X75223023Y-123640217D01*
X75095514Y-123822319D01*
X75095512Y-123822323D01*
X75001561Y-124023800D01*
X74944022Y-124238535D01*
X74944021Y-124238542D01*
X74924647Y-124459997D01*
X74924647Y-124460002D01*
X74944021Y-124681457D01*
X74944022Y-124681465D01*
X75001558Y-124896191D01*
X75001559Y-124896193D01*
X75001560Y-124896196D01*
X75048536Y-124996936D01*
X75095511Y-125097676D01*
X75095512Y-125097677D01*
X75223023Y-125279781D01*
X75380219Y-125436977D01*
X75562323Y-125564487D01*
X75562323Y-125564488D01*
X75676261Y-125617618D01*
X75728700Y-125663790D01*
X75747852Y-125730984D01*
X75727636Y-125797865D01*
X75676261Y-125842382D01*
X75562323Y-125895512D01*
X75562319Y-125895514D01*
X75380217Y-126023023D01*
X75223023Y-126180217D01*
X75095514Y-126362319D01*
X75095512Y-126362323D01*
X75001561Y-126563800D01*
X74944022Y-126778535D01*
X74944021Y-126778542D01*
X74924647Y-126999997D01*
X74924647Y-127000002D01*
X74944021Y-127221457D01*
X74944022Y-127221465D01*
X75001558Y-127436191D01*
X75001559Y-127436193D01*
X75001560Y-127436196D01*
X75048536Y-127536936D01*
X75095511Y-127637676D01*
X75095512Y-127637677D01*
X75223023Y-127819781D01*
X75380219Y-127976977D01*
X75562323Y-128104488D01*
X75676261Y-128157618D01*
X75728700Y-128203790D01*
X75747852Y-128270984D01*
X75727636Y-128337865D01*
X75676261Y-128382382D01*
X75562323Y-128435512D01*
X75562319Y-128435514D01*
X75380217Y-128563023D01*
X75223023Y-128720217D01*
X75095514Y-128902319D01*
X75095512Y-128902323D01*
X75001561Y-129103800D01*
X74944022Y-129318535D01*
X74944021Y-129318542D01*
X74924647Y-129539997D01*
X74924647Y-129540002D01*
X74944021Y-129761457D01*
X74944022Y-129761465D01*
X75001558Y-129976191D01*
X75001559Y-129976193D01*
X75001560Y-129976196D01*
X75048536Y-130076936D01*
X75095511Y-130177676D01*
X75095512Y-130177677D01*
X75223023Y-130359781D01*
X75380219Y-130516977D01*
X75562323Y-130644487D01*
X75562323Y-130644488D01*
X75676261Y-130697618D01*
X75728700Y-130743790D01*
X75747852Y-130810984D01*
X75727636Y-130877865D01*
X75676261Y-130922382D01*
X75562323Y-130975512D01*
X75562319Y-130975514D01*
X75380217Y-131103023D01*
X75223023Y-131260217D01*
X75095514Y-131442319D01*
X75095512Y-131442323D01*
X75001561Y-131643800D01*
X74944022Y-131858535D01*
X74944021Y-131858542D01*
X74924647Y-132079997D01*
X74924647Y-132080002D01*
X74944021Y-132301457D01*
X74944022Y-132301465D01*
X75001558Y-132516191D01*
X75001559Y-132516193D01*
X75001560Y-132516196D01*
X75048536Y-132616936D01*
X75095511Y-132717676D01*
X75095512Y-132717677D01*
X75223023Y-132899781D01*
X75380219Y-133056977D01*
X75562323Y-133184487D01*
X75562323Y-133184488D01*
X75676261Y-133237618D01*
X75728700Y-133283790D01*
X75747852Y-133350984D01*
X75727636Y-133417865D01*
X75676261Y-133462382D01*
X75562323Y-133515512D01*
X75562319Y-133515514D01*
X75380217Y-133643023D01*
X75223023Y-133800217D01*
X75095514Y-133982319D01*
X75095512Y-133982323D01*
X75001561Y-134183800D01*
X74944022Y-134398535D01*
X74944021Y-134398542D01*
X74924647Y-134619997D01*
X74924647Y-134620002D01*
X74944021Y-134841457D01*
X74944022Y-134841465D01*
X75001558Y-135056191D01*
X75001559Y-135056193D01*
X75001560Y-135056196D01*
X75048536Y-135156936D01*
X75095511Y-135257676D01*
X75095512Y-135257677D01*
X75223023Y-135439781D01*
X75380219Y-135596977D01*
X75562323Y-135724488D01*
X75676261Y-135777618D01*
X75728700Y-135823790D01*
X75747852Y-135890984D01*
X75727636Y-135957865D01*
X75676261Y-136002382D01*
X75562323Y-136055512D01*
X75562319Y-136055514D01*
X75380217Y-136183023D01*
X75223023Y-136340217D01*
X75095514Y-136522319D01*
X75095512Y-136522323D01*
X75001561Y-136723800D01*
X74944022Y-136938535D01*
X74944021Y-136938542D01*
X74924647Y-137159997D01*
X74924647Y-137160002D01*
X74944021Y-137381457D01*
X74944022Y-137381465D01*
X75001558Y-137596191D01*
X75001559Y-137596193D01*
X75001560Y-137596196D01*
X75048536Y-137696936D01*
X75095511Y-137797676D01*
X75095512Y-137797677D01*
X75223023Y-137979781D01*
X75380219Y-138136977D01*
X75562323Y-138264487D01*
X75562323Y-138264488D01*
X75676261Y-138317618D01*
X75728700Y-138363790D01*
X75747852Y-138430984D01*
X75727636Y-138497865D01*
X75676261Y-138542382D01*
X75562323Y-138595512D01*
X75562319Y-138595514D01*
X75380217Y-138723023D01*
X75223023Y-138880217D01*
X75095514Y-139062319D01*
X75095512Y-139062323D01*
X75001561Y-139263800D01*
X74944022Y-139478535D01*
X74944021Y-139478542D01*
X74924647Y-139699997D01*
X74924647Y-139700002D01*
X69855353Y-139700002D01*
X69855353Y-139700000D01*
X69835978Y-139478537D01*
X69778440Y-139263804D01*
X69684488Y-139062324D01*
X69684486Y-139062321D01*
X69684485Y-139062319D01*
X69556978Y-138880220D01*
X69556975Y-138880217D01*
X69399781Y-138723023D01*
X69217677Y-138595512D01*
X69103738Y-138542381D01*
X69051299Y-138496210D01*
X69032147Y-138429017D01*
X69052363Y-138362135D01*
X69103739Y-138317618D01*
X69217677Y-138264488D01*
X69399781Y-138136977D01*
X69556977Y-137979781D01*
X69684488Y-137797677D01*
X69778440Y-137596196D01*
X69835978Y-137381463D01*
X69855353Y-137160000D01*
X69835978Y-136938537D01*
X69778440Y-136723804D01*
X69684488Y-136522324D01*
X69684486Y-136522321D01*
X69684485Y-136522319D01*
X69556978Y-136340220D01*
X69556975Y-136340217D01*
X69399781Y-136183023D01*
X69217677Y-136055512D01*
X69103738Y-136002381D01*
X69051299Y-135956210D01*
X69032147Y-135889017D01*
X69052363Y-135822135D01*
X69103739Y-135777618D01*
X69217677Y-135724488D01*
X69399781Y-135596977D01*
X69556977Y-135439781D01*
X69684488Y-135257677D01*
X69778440Y-135056196D01*
X69835978Y-134841463D01*
X69855353Y-134620000D01*
X69835978Y-134398537D01*
X69778440Y-134183804D01*
X69684488Y-133982324D01*
X69684486Y-133982321D01*
X69684485Y-133982319D01*
X69556978Y-133800220D01*
X69556975Y-133800217D01*
X69399781Y-133643023D01*
X69217677Y-133515512D01*
X69103738Y-133462381D01*
X69051299Y-133416210D01*
X69032147Y-133349017D01*
X69052363Y-133282135D01*
X69103739Y-133237618D01*
X69217677Y-133184488D01*
X69399781Y-133056977D01*
X69556977Y-132899781D01*
X69684488Y-132717677D01*
X69778440Y-132516196D01*
X69835978Y-132301463D01*
X69855353Y-132080000D01*
X69835978Y-131858537D01*
X69778440Y-131643804D01*
X69684488Y-131442324D01*
X69684486Y-131442321D01*
X69684485Y-131442319D01*
X69556978Y-131260220D01*
X69556975Y-131260217D01*
X69399781Y-131103023D01*
X69217677Y-130975512D01*
X69103738Y-130922381D01*
X69051299Y-130876210D01*
X69032147Y-130809017D01*
X69052363Y-130742135D01*
X69103739Y-130697618D01*
X69217677Y-130644488D01*
X69399781Y-130516977D01*
X69556977Y-130359781D01*
X69684488Y-130177677D01*
X69778440Y-129976196D01*
X69835978Y-129761463D01*
X69855353Y-129540000D01*
X69835978Y-129318537D01*
X69778440Y-129103804D01*
X69684488Y-128902324D01*
X69684486Y-128902321D01*
X69684485Y-128902319D01*
X69556978Y-128720220D01*
X69556975Y-128720217D01*
X69399781Y-128563023D01*
X69217677Y-128435512D01*
X69103738Y-128382381D01*
X69051299Y-128336210D01*
X69032147Y-128269017D01*
X69052363Y-128202135D01*
X69103739Y-128157618D01*
X69217677Y-128104488D01*
X69399781Y-127976977D01*
X69556977Y-127819781D01*
X69684488Y-127637677D01*
X69778440Y-127436196D01*
X69835978Y-127221463D01*
X69855353Y-127000000D01*
X69835978Y-126778537D01*
X69778440Y-126563804D01*
X69684488Y-126362324D01*
X69684486Y-126362321D01*
X69684485Y-126362319D01*
X69556978Y-126180220D01*
X69556975Y-126180217D01*
X69399781Y-126023023D01*
X69217677Y-125895512D01*
X69103738Y-125842381D01*
X69051299Y-125796210D01*
X69032147Y-125729017D01*
X69052363Y-125662135D01*
X69103739Y-125617618D01*
X69217677Y-125564488D01*
X69399781Y-125436977D01*
X69556977Y-125279781D01*
X69684488Y-125097677D01*
X69778440Y-124896196D01*
X69835978Y-124681463D01*
X69855353Y-124460000D01*
X69835978Y-124238537D01*
X69778440Y-124023804D01*
X69684488Y-123822324D01*
X69684486Y-123822321D01*
X69684485Y-123822319D01*
X69556978Y-123640220D01*
X69556975Y-123640217D01*
X69399781Y-123483023D01*
X69217677Y-123355512D01*
X69217678Y-123355512D01*
X69217676Y-123355511D01*
X69103739Y-123302382D01*
X69016196Y-123261560D01*
X69016193Y-123261559D01*
X69016191Y-123261558D01*
X68801465Y-123204022D01*
X68801457Y-123204021D01*
X68580002Y-123184647D01*
X68579998Y-123184647D01*
X68358542Y-123204021D01*
X68358535Y-123204022D01*
X68143800Y-123261561D01*
X67942323Y-123355512D01*
X67942319Y-123355514D01*
X67760217Y-123483023D01*
X67603023Y-123640217D01*
X67475514Y-123822319D01*
X67475512Y-123822323D01*
X67381561Y-124023800D01*
X67324022Y-124238535D01*
X67324021Y-124238542D01*
X67304647Y-124459997D01*
X67304647Y-124460002D01*
X67324021Y-124681457D01*
X67324022Y-124681465D01*
X67381558Y-124896191D01*
X67381559Y-124896193D01*
X67381560Y-124896196D01*
X67428536Y-124996936D01*
X67475511Y-125097676D01*
X67475512Y-125097677D01*
X67603023Y-125279781D01*
X67760219Y-125436977D01*
X67942323Y-125564488D01*
X68056261Y-125617618D01*
X68108700Y-125663790D01*
X68127852Y-125730984D01*
X68107636Y-125797865D01*
X68056261Y-125842382D01*
X67942323Y-125895512D01*
X67942319Y-125895514D01*
X67760217Y-126023023D01*
X67603023Y-126180217D01*
X67475514Y-126362319D01*
X67475512Y-126362323D01*
X67381561Y-126563800D01*
X67324022Y-126778535D01*
X67324021Y-126778542D01*
X67304647Y-126999997D01*
X67304647Y-127000002D01*
X67324021Y-127221457D01*
X67324022Y-127221465D01*
X67381558Y-127436191D01*
X67381559Y-127436193D01*
X67381560Y-127436196D01*
X67428536Y-127536936D01*
X67475511Y-127637676D01*
X67475512Y-127637677D01*
X67603023Y-127819781D01*
X67760219Y-127976977D01*
X67942323Y-128104488D01*
X68056261Y-128157618D01*
X68108700Y-128203790D01*
X68127852Y-128270984D01*
X68107636Y-128337865D01*
X68056261Y-128382382D01*
X67942323Y-128435512D01*
X67942319Y-128435514D01*
X67760217Y-128563023D01*
X67603023Y-128720217D01*
X67475514Y-128902319D01*
X67475512Y-128902323D01*
X67381561Y-129103800D01*
X67324022Y-129318535D01*
X67324021Y-129318542D01*
X67304647Y-129539997D01*
X67304647Y-129540002D01*
X67324021Y-129761457D01*
X67324022Y-129761465D01*
X67381558Y-129976191D01*
X67381559Y-129976193D01*
X67381560Y-129976196D01*
X67428536Y-130076936D01*
X67475511Y-130177676D01*
X67475512Y-130177677D01*
X67603023Y-130359781D01*
X67760219Y-130516977D01*
X67942323Y-130644487D01*
X67942323Y-130644488D01*
X68056261Y-130697618D01*
X68108700Y-130743790D01*
X68127852Y-130810984D01*
X68107636Y-130877865D01*
X68056261Y-130922382D01*
X67942323Y-130975512D01*
X67942319Y-130975514D01*
X67760217Y-131103023D01*
X67603023Y-131260217D01*
X67475514Y-131442319D01*
X67475512Y-131442323D01*
X67381561Y-131643800D01*
X67324022Y-131858535D01*
X67324021Y-131858542D01*
X67304647Y-132079997D01*
X67304647Y-132080002D01*
X67324021Y-132301457D01*
X67324022Y-132301465D01*
X67381558Y-132516191D01*
X67381559Y-132516193D01*
X67381560Y-132516196D01*
X67428536Y-132616936D01*
X67475511Y-132717676D01*
X67475512Y-132717677D01*
X67603023Y-132899781D01*
X67760219Y-133056977D01*
X67942323Y-133184488D01*
X68056261Y-133237618D01*
X68108700Y-133283790D01*
X68127852Y-133350984D01*
X68107636Y-133417865D01*
X68056261Y-133462382D01*
X67942323Y-133515512D01*
X67942319Y-133515514D01*
X67760217Y-133643023D01*
X67603023Y-133800217D01*
X67475514Y-133982319D01*
X67475512Y-133982323D01*
X67381561Y-134183800D01*
X67324022Y-134398535D01*
X67324021Y-134398542D01*
X67304647Y-134619997D01*
X67304647Y-134620002D01*
X67324021Y-134841457D01*
X67324022Y-134841465D01*
X67381558Y-135056191D01*
X67381559Y-135056193D01*
X67381560Y-135056196D01*
X67428536Y-135156936D01*
X67475511Y-135257676D01*
X67475512Y-135257677D01*
X67603023Y-135439781D01*
X67760219Y-135596977D01*
X67942323Y-135724488D01*
X68056261Y-135777618D01*
X68108700Y-135823790D01*
X68127852Y-135890984D01*
X68107636Y-135957865D01*
X68056261Y-136002382D01*
X67942323Y-136055512D01*
X67942319Y-136055514D01*
X67760217Y-136183023D01*
X67603023Y-136340217D01*
X67475514Y-136522319D01*
X67475512Y-136522323D01*
X67381561Y-136723800D01*
X67324022Y-136938535D01*
X67324021Y-136938542D01*
X67304647Y-137159997D01*
X67304647Y-137160002D01*
X67324021Y-137381457D01*
X67324022Y-137381465D01*
X67381558Y-137596191D01*
X67381559Y-137596193D01*
X67381560Y-137596196D01*
X67428536Y-137696936D01*
X67475511Y-137797676D01*
X67475512Y-137797677D01*
X67603023Y-137979781D01*
X67760219Y-138136977D01*
X67942323Y-138264488D01*
X68056261Y-138317618D01*
X68108700Y-138363790D01*
X68127852Y-138430984D01*
X68107636Y-138497865D01*
X68056261Y-138542382D01*
X67942323Y-138595512D01*
X67942319Y-138595514D01*
X67760217Y-138723023D01*
X67603023Y-138880217D01*
X67475514Y-139062319D01*
X67475512Y-139062323D01*
X67381561Y-139263800D01*
X67324022Y-139478535D01*
X67324021Y-139478542D01*
X67304647Y-139699997D01*
X67304647Y-139700002D01*
X67324021Y-139921457D01*
X67324022Y-139921465D01*
X67381558Y-140136191D01*
X67381559Y-140136193D01*
X67381560Y-140136196D01*
X67428536Y-140236936D01*
X67475511Y-140337676D01*
X67475512Y-140337677D01*
X67603023Y-140519781D01*
X67760219Y-140676977D01*
X67942323Y-140804488D01*
X68066317Y-140862307D01*
X68118756Y-140908479D01*
X68137908Y-140975673D01*
X68117692Y-141042554D01*
X68066317Y-141087071D01*
X67946586Y-141142903D01*
X67881812Y-141188257D01*
X67881811Y-141188258D01*
X68410723Y-141717170D01*
X68444208Y-141778493D01*
X68439224Y-141848185D01*
X68397352Y-141904118D01*
X68382059Y-141913906D01*
X68342749Y-141935179D01*
X68342748Y-141935179D01*
X68256626Y-142028733D01*
X68256626Y-142028734D01*
X68255911Y-142030365D01*
X68254340Y-142032233D01*
X68251008Y-142037334D01*
X68250391Y-142036931D01*
X68210952Y-142083849D01*
X68144215Y-142104535D01*
X68076888Y-142085857D01*
X68054677Y-142068230D01*
X67528258Y-141541811D01*
X67528257Y-141541812D01*
X67482903Y-141606586D01*
X67389579Y-141806720D01*
X67389575Y-141806729D01*
X67332426Y-142020013D01*
X67332424Y-142020023D01*
X67313179Y-142239999D01*
X67313179Y-142240000D01*
X67332424Y-142459976D01*
X67332426Y-142459986D01*
X67389575Y-142673270D01*
X67389580Y-142673284D01*
X67482899Y-142873407D01*
X67482900Y-142873409D01*
X67528258Y-142938187D01*
X68057050Y-142409395D01*
X68118373Y-142375910D01*
X68188064Y-142380894D01*
X68243998Y-142422765D01*
X68248539Y-142429254D01*
X68295813Y-142501612D01*
X68396157Y-142579713D01*
X68396160Y-142579714D01*
X68396511Y-142579987D01*
X68437324Y-142636697D01*
X68440999Y-142706470D01*
X68408030Y-142765522D01*
X67881811Y-143291741D01*
X67946582Y-143337094D01*
X67946592Y-143337100D01*
X68066316Y-143392928D01*
X68118756Y-143439100D01*
X68137908Y-143506293D01*
X68117693Y-143573174D01*
X68066318Y-143617692D01*
X67971228Y-143662033D01*
X67942329Y-143675510D01*
X67942320Y-143675514D01*
X67942319Y-143675514D01*
X67760217Y-143803023D01*
X67603023Y-143960217D01*
X67475514Y-144142319D01*
X67475512Y-144142323D01*
X67381561Y-144343800D01*
X67324022Y-144558535D01*
X67324021Y-144558542D01*
X67304647Y-144779997D01*
X67304647Y-144780002D01*
X44455353Y-144780002D01*
X44455353Y-144780000D01*
X44435978Y-144558537D01*
X44378440Y-144343804D01*
X44284488Y-144142324D01*
X44284486Y-144142321D01*
X44284485Y-144142319D01*
X44156978Y-143960220D01*
X44156975Y-143960217D01*
X43999781Y-143803023D01*
X43817677Y-143675512D01*
X43703738Y-143622381D01*
X43651299Y-143576210D01*
X43632147Y-143509017D01*
X43652363Y-143442135D01*
X43703739Y-143397618D01*
X43713799Y-143392927D01*
X43817677Y-143344488D01*
X43999781Y-143216977D01*
X44156977Y-143059781D01*
X44284488Y-142877677D01*
X44378440Y-142676196D01*
X44435978Y-142461463D01*
X44455353Y-142240000D01*
X44452562Y-142208102D01*
X44447057Y-142145177D01*
X44435978Y-142018537D01*
X44378440Y-141803804D01*
X44284488Y-141602324D01*
X44284486Y-141602321D01*
X44284485Y-141602319D01*
X44156978Y-141420220D01*
X44156975Y-141420217D01*
X43999781Y-141263023D01*
X43817677Y-141135512D01*
X43703738Y-141082381D01*
X43651299Y-141036210D01*
X43632147Y-140969017D01*
X43652363Y-140902135D01*
X43703739Y-140857618D01*
X43817677Y-140804488D01*
X43999781Y-140676977D01*
X44156977Y-140519781D01*
X44284488Y-140337677D01*
X44378440Y-140136196D01*
X44435978Y-139921463D01*
X44455353Y-139700000D01*
X44435978Y-139478537D01*
X44378440Y-139263804D01*
X44284488Y-139062324D01*
X44284486Y-139062321D01*
X44284485Y-139062319D01*
X44156978Y-138880220D01*
X44156975Y-138880217D01*
X43999781Y-138723023D01*
X43817677Y-138595512D01*
X43703738Y-138542381D01*
X43651299Y-138496210D01*
X43632147Y-138429017D01*
X43652363Y-138362135D01*
X43703739Y-138317618D01*
X43817677Y-138264488D01*
X43999781Y-138136977D01*
X44156977Y-137979781D01*
X44284488Y-137797677D01*
X44378440Y-137596196D01*
X44435978Y-137381463D01*
X44455353Y-137160000D01*
X44435978Y-136938537D01*
X44378440Y-136723804D01*
X44284488Y-136522324D01*
X44284486Y-136522321D01*
X44284485Y-136522319D01*
X44156978Y-136340220D01*
X44156975Y-136340217D01*
X43999781Y-136183023D01*
X43817677Y-136055512D01*
X43703738Y-136002381D01*
X43651299Y-135956210D01*
X43632147Y-135889017D01*
X43652363Y-135822135D01*
X43703739Y-135777618D01*
X43817677Y-135724488D01*
X43999781Y-135596977D01*
X44156977Y-135439781D01*
X44284488Y-135257677D01*
X44378440Y-135056196D01*
X44435978Y-134841463D01*
X44455353Y-134620000D01*
X44435978Y-134398537D01*
X44378440Y-134183804D01*
X44284488Y-133982324D01*
X44284486Y-133982321D01*
X44284485Y-133982319D01*
X44156978Y-133800220D01*
X44156975Y-133800217D01*
X43999781Y-133643023D01*
X43817677Y-133515512D01*
X43817678Y-133515512D01*
X43817676Y-133515511D01*
X43703739Y-133462382D01*
X43616196Y-133421560D01*
X43616193Y-133421559D01*
X43616191Y-133421558D01*
X43401465Y-133364022D01*
X43401457Y-133364021D01*
X43180002Y-133344647D01*
X43179998Y-133344647D01*
X42958542Y-133364021D01*
X42958535Y-133364022D01*
X42743800Y-133421561D01*
X42542323Y-133515512D01*
X42542319Y-133515514D01*
X42360217Y-133643023D01*
X42203023Y-133800217D01*
X42075514Y-133982319D01*
X42075512Y-133982323D01*
X41981561Y-134183800D01*
X41924022Y-134398535D01*
X41924021Y-134398542D01*
X41904647Y-134619997D01*
X41904647Y-134620002D01*
X41924021Y-134841457D01*
X41924022Y-134841465D01*
X41981558Y-135056191D01*
X41981559Y-135056193D01*
X41981560Y-135056196D01*
X42028536Y-135156936D01*
X42075511Y-135257676D01*
X42075512Y-135257677D01*
X42203023Y-135439781D01*
X42360219Y-135596977D01*
X42542323Y-135724488D01*
X42656261Y-135777618D01*
X42708700Y-135823790D01*
X42727852Y-135890984D01*
X42707636Y-135957865D01*
X42656261Y-136002382D01*
X42542323Y-136055512D01*
X42542319Y-136055514D01*
X42360217Y-136183023D01*
X42203023Y-136340217D01*
X42075514Y-136522319D01*
X42075512Y-136522323D01*
X41981561Y-136723800D01*
X41924022Y-136938535D01*
X41924021Y-136938542D01*
X41904647Y-137159997D01*
X41904647Y-137160002D01*
X41924021Y-137381457D01*
X41924022Y-137381465D01*
X41981558Y-137596191D01*
X41981559Y-137596193D01*
X41981560Y-137596196D01*
X42028536Y-137696936D01*
X42075511Y-137797676D01*
X42075512Y-137797677D01*
X42203023Y-137979781D01*
X42360219Y-138136977D01*
X42542323Y-138264487D01*
X42542323Y-138264488D01*
X42656261Y-138317618D01*
X42708700Y-138363790D01*
X42727852Y-138430984D01*
X42707636Y-138497865D01*
X42656261Y-138542382D01*
X42542323Y-138595512D01*
X42542319Y-138595514D01*
X42360217Y-138723023D01*
X42203023Y-138880217D01*
X42075514Y-139062319D01*
X42075512Y-139062323D01*
X41981561Y-139263800D01*
X41924022Y-139478535D01*
X41924021Y-139478542D01*
X41904647Y-139699997D01*
X41904647Y-139700002D01*
X41924021Y-139921457D01*
X41924022Y-139921465D01*
X41981558Y-140136191D01*
X41981559Y-140136193D01*
X41981560Y-140136196D01*
X42028536Y-140236936D01*
X42075511Y-140337676D01*
X42075512Y-140337677D01*
X42203023Y-140519781D01*
X42360219Y-140676977D01*
X42542323Y-140804488D01*
X42656261Y-140857618D01*
X42708700Y-140903790D01*
X42727852Y-140970984D01*
X42707636Y-141037865D01*
X42656261Y-141082382D01*
X42542323Y-141135512D01*
X42542319Y-141135514D01*
X42360217Y-141263023D01*
X42203023Y-141420217D01*
X42075514Y-141602319D01*
X42075512Y-141602323D01*
X41981561Y-141803800D01*
X41924022Y-142018535D01*
X41924021Y-142018542D01*
X41904647Y-142239997D01*
X41904647Y-142240002D01*
X41924021Y-142461457D01*
X41924022Y-142461465D01*
X41981558Y-142676191D01*
X41981559Y-142676193D01*
X41981560Y-142676196D01*
X41995677Y-142706470D01*
X42075511Y-142877676D01*
X42075512Y-142877677D01*
X42203023Y-143059781D01*
X42360219Y-143216977D01*
X42531762Y-143337093D01*
X42542323Y-143344488D01*
X42656261Y-143397618D01*
X42708700Y-143443790D01*
X42727852Y-143510984D01*
X42707636Y-143577865D01*
X42656261Y-143622382D01*
X42542323Y-143675512D01*
X42542319Y-143675514D01*
X42360217Y-143803023D01*
X42203023Y-143960217D01*
X42075514Y-144142319D01*
X42075512Y-144142323D01*
X41981561Y-144343800D01*
X41924022Y-144558535D01*
X41924021Y-144558542D01*
X41904647Y-144779997D01*
X41904647Y-144780002D01*
X39497000Y-144780002D01*
X39497000Y-114550000D01*
X61534364Y-114550000D01*
X61591567Y-114763486D01*
X61591570Y-114763492D01*
X61691399Y-114977578D01*
X61826894Y-115171082D01*
X61993917Y-115338105D01*
X62187421Y-115473600D01*
X62401507Y-115573429D01*
X62401516Y-115573433D01*
X62615000Y-115630634D01*
X62615000Y-114912301D01*
X62634685Y-114845262D01*
X62687489Y-114799507D01*
X62756647Y-114789563D01*
X62829237Y-114800000D01*
X62829238Y-114800000D01*
X62900762Y-114800000D01*
X62900763Y-114800000D01*
X62973353Y-114789563D01*
X63042512Y-114799507D01*
X63095315Y-114845262D01*
X63115000Y-114912301D01*
X63115000Y-115630633D01*
X63328483Y-115573433D01*
X63328492Y-115573429D01*
X63542578Y-115473600D01*
X63736082Y-115338105D01*
X63903105Y-115171082D01*
X64029868Y-114990048D01*
X64084445Y-114946423D01*
X64153944Y-114939231D01*
X64216298Y-114970753D01*
X64235251Y-114993350D01*
X64329276Y-115137265D01*
X64329284Y-115137276D01*
X64457890Y-115276977D01*
X64481760Y-115302906D01*
X64659424Y-115441189D01*
X64659425Y-115441189D01*
X64659427Y-115441191D01*
X64719314Y-115473600D01*
X64857426Y-115548342D01*
X65070365Y-115621444D01*
X65292431Y-115658500D01*
X65517569Y-115658500D01*
X65739635Y-115621444D01*
X65952574Y-115548342D01*
X66150576Y-115441189D01*
X66328240Y-115302906D01*
X66391452Y-115234239D01*
X66451337Y-115198250D01*
X66521175Y-115200349D01*
X66578791Y-115239873D01*
X66598861Y-115274888D01*
X66644110Y-115396203D01*
X66644111Y-115396204D01*
X66731739Y-115513261D01*
X66848796Y-115600889D01*
X66985799Y-115651989D01*
X67013050Y-115654918D01*
X67046345Y-115658499D01*
X67046362Y-115658500D01*
X68843638Y-115658500D01*
X68843654Y-115658499D01*
X68870692Y-115655591D01*
X68904201Y-115651989D01*
X69041204Y-115600889D01*
X69158261Y-115513261D01*
X69245889Y-115396204D01*
X69296989Y-115259201D01*
X69300591Y-115225692D01*
X69303499Y-115198654D01*
X69303500Y-115198637D01*
X69303500Y-113401362D01*
X69303499Y-113401345D01*
X69299672Y-113365759D01*
X69296989Y-113340799D01*
X69290359Y-113323024D01*
X69267559Y-113261894D01*
X69245889Y-113203796D01*
X69158261Y-113086739D01*
X69041204Y-112999111D01*
X69041203Y-112999110D01*
X68904203Y-112948011D01*
X68843654Y-112941500D01*
X68843638Y-112941500D01*
X67046362Y-112941500D01*
X67046345Y-112941500D01*
X66985797Y-112948011D01*
X66985795Y-112948011D01*
X66848795Y-112999111D01*
X66731739Y-113086739D01*
X66644111Y-113203795D01*
X66598861Y-113325111D01*
X66556989Y-113381044D01*
X66491524Y-113405460D01*
X66423252Y-113390607D01*
X66391454Y-113365762D01*
X66328240Y-113297094D01*
X66150576Y-113158811D01*
X66150575Y-113158810D01*
X66150572Y-113158808D01*
X65952580Y-113051661D01*
X65952577Y-113051659D01*
X65952574Y-113051658D01*
X65952571Y-113051657D01*
X65952569Y-113051656D01*
X65739637Y-112978556D01*
X65517569Y-112941500D01*
X65292431Y-112941500D01*
X65070362Y-112978556D01*
X64857430Y-113051656D01*
X64857419Y-113051661D01*
X64659427Y-113158808D01*
X64659422Y-113158812D01*
X64481761Y-113297092D01*
X64481756Y-113297097D01*
X64329284Y-113462723D01*
X64329276Y-113462734D01*
X64235251Y-113606650D01*
X64182105Y-113652007D01*
X64112873Y-113661430D01*
X64049538Y-113631928D01*
X64029868Y-113609951D01*
X63903113Y-113428926D01*
X63903108Y-113428920D01*
X63736082Y-113261894D01*
X63542578Y-113126399D01*
X63328492Y-113026570D01*
X63328486Y-113026567D01*
X63115000Y-112969364D01*
X63115000Y-113687698D01*
X63095315Y-113754737D01*
X63042511Y-113800492D01*
X62973355Y-113810436D01*
X62900766Y-113800000D01*
X62900763Y-113800000D01*
X62829237Y-113800000D01*
X62829233Y-113800000D01*
X62756645Y-113810436D01*
X62687487Y-113800492D01*
X62634684Y-113754736D01*
X62615000Y-113687698D01*
X62615000Y-112969364D01*
X62614999Y-112969364D01*
X62401513Y-113026567D01*
X62401507Y-113026570D01*
X62187422Y-113126399D01*
X62187420Y-113126400D01*
X61993926Y-113261886D01*
X61993920Y-113261891D01*
X61826891Y-113428920D01*
X61826886Y-113428926D01*
X61691400Y-113622420D01*
X61691399Y-113622422D01*
X61591570Y-113836507D01*
X61591567Y-113836513D01*
X61534364Y-114049999D01*
X61534364Y-114050000D01*
X62251653Y-114050000D01*
X62318692Y-114069685D01*
X62364447Y-114122489D01*
X62374391Y-114191647D01*
X62370631Y-114208933D01*
X62365000Y-114228111D01*
X62365000Y-114371888D01*
X62370631Y-114391067D01*
X62370630Y-114460936D01*
X62332855Y-114519714D01*
X62269299Y-114548738D01*
X62251653Y-114550000D01*
X61534364Y-114550000D01*
X39497000Y-114550000D01*
X39497000Y-106680002D01*
X69844647Y-106680002D01*
X69864021Y-106901457D01*
X69864022Y-106901465D01*
X69921558Y-107116191D01*
X69921559Y-107116193D01*
X69921560Y-107116196D01*
X69968536Y-107216936D01*
X70015511Y-107317676D01*
X70015512Y-107317677D01*
X70143023Y-107499781D01*
X70300219Y-107656977D01*
X70482323Y-107784488D01*
X70683804Y-107878440D01*
X70898537Y-107935978D01*
X71056724Y-107949817D01*
X71119998Y-107955353D01*
X71120000Y-107955353D01*
X71120002Y-107955353D01*
X71181198Y-107949999D01*
X71341463Y-107935978D01*
X71556196Y-107878440D01*
X71757677Y-107784488D01*
X71939781Y-107656977D01*
X72096977Y-107499781D01*
X72224488Y-107317677D01*
X72318440Y-107116196D01*
X72375978Y-106901463D01*
X72395353Y-106680000D01*
X72375978Y-106458537D01*
X72318440Y-106243804D01*
X72224488Y-106042324D01*
X72224486Y-106042321D01*
X72224485Y-106042319D01*
X72096978Y-105860220D01*
X72096975Y-105860217D01*
X71939781Y-105703023D01*
X71757677Y-105575512D01*
X71643738Y-105522381D01*
X71591299Y-105476210D01*
X71572147Y-105409017D01*
X71592363Y-105342135D01*
X71643739Y-105297618D01*
X71757677Y-105244488D01*
X71939781Y-105116977D01*
X72096977Y-104959781D01*
X72224488Y-104777677D01*
X72318440Y-104576196D01*
X72375978Y-104361463D01*
X72395353Y-104140000D01*
X72375978Y-103918537D01*
X72318440Y-103703804D01*
X72224488Y-103502324D01*
X72224486Y-103502321D01*
X72224485Y-103502319D01*
X72096978Y-103320220D01*
X72096975Y-103320217D01*
X71939781Y-103163023D01*
X71757677Y-103035512D01*
X71757678Y-103035512D01*
X71757676Y-103035511D01*
X71633682Y-102977692D01*
X71581243Y-102931519D01*
X71562091Y-102864326D01*
X71582307Y-102797445D01*
X71633684Y-102752927D01*
X71753413Y-102697097D01*
X71753420Y-102697093D01*
X71818186Y-102651742D01*
X71818187Y-102651740D01*
X71289276Y-102122829D01*
X71255791Y-102061506D01*
X71260775Y-101991814D01*
X71302647Y-101935881D01*
X71317933Y-101926097D01*
X71357251Y-101904820D01*
X71443371Y-101811269D01*
X71444083Y-101809643D01*
X71445652Y-101807777D01*
X71448992Y-101802666D01*
X71449609Y-101803069D01*
X71489036Y-101756158D01*
X71555770Y-101735464D01*
X71623099Y-101754135D01*
X71645322Y-101771769D01*
X72171740Y-102298187D01*
X72171742Y-102298186D01*
X72217093Y-102233420D01*
X72217100Y-102233408D01*
X72310419Y-102033284D01*
X72310424Y-102033270D01*
X72367573Y-101819986D01*
X72367575Y-101819976D01*
X72386821Y-101600000D01*
X72386821Y-101599999D01*
X72367575Y-101380023D01*
X72367573Y-101380013D01*
X72310424Y-101166729D01*
X72310420Y-101166720D01*
X72217098Y-100966590D01*
X72171740Y-100901811D01*
X71642949Y-101430602D01*
X71581626Y-101464087D01*
X71511934Y-101459103D01*
X71456001Y-101417231D01*
X71451460Y-101410743D01*
X71404189Y-101338391D01*
X71404187Y-101338388D01*
X71348673Y-101295180D01*
X71303843Y-101260287D01*
X71303840Y-101260285D01*
X71303488Y-101260012D01*
X71262675Y-101203301D01*
X71259000Y-101133529D01*
X71291969Y-101074477D01*
X71818187Y-100548258D01*
X71753409Y-100502900D01*
X71753407Y-100502899D01*
X71633683Y-100447071D01*
X71581243Y-100400899D01*
X71562091Y-100333705D01*
X71582307Y-100266824D01*
X71633682Y-100222307D01*
X71757677Y-100164488D01*
X71939781Y-100036977D01*
X72096977Y-99879781D01*
X72224488Y-99697677D01*
X72318440Y-99496196D01*
X72375978Y-99281463D01*
X72395353Y-99060000D01*
X72395309Y-99059500D01*
X72388087Y-98976951D01*
X72375978Y-98838537D01*
X72318440Y-98623804D01*
X72224488Y-98422324D01*
X72224486Y-98422321D01*
X72224485Y-98422319D01*
X72096978Y-98240220D01*
X72096975Y-98240217D01*
X71939781Y-98083023D01*
X71757677Y-97955512D01*
X71643738Y-97902381D01*
X71591299Y-97856210D01*
X71572147Y-97789017D01*
X71592363Y-97722135D01*
X71643739Y-97677618D01*
X71653799Y-97672927D01*
X71757677Y-97624488D01*
X71939781Y-97496977D01*
X72096977Y-97339781D01*
X72224488Y-97157677D01*
X72318440Y-96956196D01*
X72375978Y-96741463D01*
X72395353Y-96520000D01*
X72392562Y-96488102D01*
X72387057Y-96425177D01*
X72375978Y-96298537D01*
X72318440Y-96083804D01*
X72224488Y-95882324D01*
X72224486Y-95882321D01*
X72224485Y-95882319D01*
X72096978Y-95700220D01*
X72096975Y-95700217D01*
X71939781Y-95543023D01*
X71757677Y-95415512D01*
X71643738Y-95362381D01*
X71591299Y-95316210D01*
X71572147Y-95249017D01*
X71592363Y-95182135D01*
X71643739Y-95137618D01*
X71757677Y-95084488D01*
X71939781Y-94956977D01*
X72096977Y-94799781D01*
X72224488Y-94617677D01*
X72318440Y-94416196D01*
X72375978Y-94201463D01*
X72395353Y-93980000D01*
X72392562Y-93948102D01*
X72387057Y-93885177D01*
X72375978Y-93758537D01*
X72318440Y-93543804D01*
X72224488Y-93342324D01*
X72224486Y-93342321D01*
X72224485Y-93342319D01*
X72096978Y-93160220D01*
X72096975Y-93160217D01*
X71939781Y-93003023D01*
X71757677Y-92875512D01*
X71643738Y-92822381D01*
X71591299Y-92776210D01*
X71572147Y-92709017D01*
X71592363Y-92642135D01*
X71643739Y-92597618D01*
X71757677Y-92544488D01*
X71939781Y-92416977D01*
X72096977Y-92259781D01*
X72224488Y-92077677D01*
X72318440Y-91876196D01*
X72375978Y-91661463D01*
X72395353Y-91440000D01*
X72375978Y-91218537D01*
X72318440Y-91003804D01*
X72224488Y-90802324D01*
X72224486Y-90802321D01*
X72224485Y-90802319D01*
X72096978Y-90620220D01*
X72096975Y-90620217D01*
X71939781Y-90463023D01*
X71757677Y-90335512D01*
X71643738Y-90282381D01*
X71591299Y-90236210D01*
X71572147Y-90169017D01*
X71592363Y-90102135D01*
X71643739Y-90057618D01*
X71757677Y-90004488D01*
X71939781Y-89876977D01*
X72096977Y-89719781D01*
X72224488Y-89537677D01*
X72318440Y-89336196D01*
X72375978Y-89121463D01*
X72395309Y-88900502D01*
X72395353Y-88900002D01*
X72395353Y-88899997D01*
X72375978Y-88678542D01*
X72375978Y-88678537D01*
X72318440Y-88463804D01*
X72288689Y-88400002D01*
X80004647Y-88400002D01*
X80024021Y-88621457D01*
X80024022Y-88621465D01*
X80081558Y-88836191D01*
X80081559Y-88836193D01*
X80081560Y-88836196D01*
X80117693Y-88913683D01*
X80175511Y-89037676D01*
X80175512Y-89037677D01*
X80303023Y-89219781D01*
X80460219Y-89376977D01*
X80642323Y-89504488D01*
X80843804Y-89598440D01*
X81058537Y-89655978D01*
X81216724Y-89669817D01*
X81279998Y-89675353D01*
X81280000Y-89675353D01*
X81280002Y-89675353D01*
X81335365Y-89670509D01*
X81501463Y-89655978D01*
X81716196Y-89598440D01*
X81917677Y-89504488D01*
X82099781Y-89376977D01*
X82256977Y-89219781D01*
X82384488Y-89037677D01*
X82437618Y-88923738D01*
X82483790Y-88871299D01*
X82550983Y-88852147D01*
X82617865Y-88872363D01*
X82662381Y-88923738D01*
X82715512Y-89037677D01*
X82843023Y-89219781D01*
X83000219Y-89376977D01*
X83182323Y-89504488D01*
X83383804Y-89598440D01*
X83598537Y-89655978D01*
X83756724Y-89669817D01*
X83819998Y-89675353D01*
X83820000Y-89675353D01*
X83820002Y-89675353D01*
X83875365Y-89670509D01*
X84041463Y-89655978D01*
X84256196Y-89598440D01*
X84457677Y-89504488D01*
X84639781Y-89376977D01*
X84796977Y-89219781D01*
X84924488Y-89037677D01*
X84982307Y-88913682D01*
X85028479Y-88861243D01*
X85095672Y-88842091D01*
X85162554Y-88862306D01*
X85207071Y-88913683D01*
X85262899Y-89033407D01*
X85262900Y-89033409D01*
X85308258Y-89098187D01*
X85837050Y-88569395D01*
X85898373Y-88535910D01*
X85968064Y-88540894D01*
X86023998Y-88582765D01*
X86028539Y-88589254D01*
X86075813Y-88661612D01*
X86176157Y-88739713D01*
X86176160Y-88739714D01*
X86176511Y-88739987D01*
X86217324Y-88796697D01*
X86220999Y-88866470D01*
X86188030Y-88925522D01*
X85661811Y-89451741D01*
X85726582Y-89497094D01*
X85726592Y-89497100D01*
X85926715Y-89590419D01*
X85926729Y-89590424D01*
X86140013Y-89647573D01*
X86140023Y-89647575D01*
X86359999Y-89666821D01*
X86360001Y-89666821D01*
X86579976Y-89647575D01*
X86579986Y-89647573D01*
X86793270Y-89590424D01*
X86793284Y-89590419D01*
X86993408Y-89497100D01*
X86993420Y-89497093D01*
X87058186Y-89451742D01*
X87058187Y-89451740D01*
X86529276Y-88922829D01*
X86495791Y-88861506D01*
X86500775Y-88791814D01*
X86542647Y-88735881D01*
X86557933Y-88726097D01*
X86597251Y-88704820D01*
X86683371Y-88611269D01*
X86684083Y-88609643D01*
X86685652Y-88607777D01*
X86688992Y-88602666D01*
X86689609Y-88603069D01*
X86729036Y-88556158D01*
X86795770Y-88535464D01*
X86863099Y-88554135D01*
X86885322Y-88571769D01*
X87411740Y-89098187D01*
X87411742Y-89098186D01*
X87457093Y-89033420D01*
X87457100Y-89033408D01*
X87550419Y-88833284D01*
X87550424Y-88833270D01*
X87607573Y-88619986D01*
X87607575Y-88619976D01*
X87626821Y-88400000D01*
X87626821Y-88399999D01*
X87607575Y-88180023D01*
X87607573Y-88180013D01*
X87550424Y-87966729D01*
X87550420Y-87966720D01*
X87457098Y-87766590D01*
X87411740Y-87701811D01*
X86882949Y-88230602D01*
X86821626Y-88264087D01*
X86751934Y-88259103D01*
X86696001Y-88217231D01*
X86691460Y-88210743D01*
X86644189Y-88138391D01*
X86644187Y-88138388D01*
X86588673Y-88095180D01*
X86543843Y-88060287D01*
X86543840Y-88060285D01*
X86543488Y-88060012D01*
X86502675Y-88003301D01*
X86499000Y-87933529D01*
X86531969Y-87874477D01*
X87058187Y-87348258D01*
X86993409Y-87302900D01*
X86993407Y-87302899D01*
X86793284Y-87209580D01*
X86793270Y-87209575D01*
X86579986Y-87152426D01*
X86579976Y-87152424D01*
X86360001Y-87133179D01*
X86359999Y-87133179D01*
X86140023Y-87152424D01*
X86140013Y-87152426D01*
X85926729Y-87209575D01*
X85926720Y-87209579D01*
X85726586Y-87302903D01*
X85661812Y-87348257D01*
X85661811Y-87348258D01*
X86190723Y-87877170D01*
X86224208Y-87938493D01*
X86219224Y-88008185D01*
X86177352Y-88064118D01*
X86162059Y-88073906D01*
X86122749Y-88095179D01*
X86122748Y-88095179D01*
X86036626Y-88188733D01*
X86036626Y-88188734D01*
X86035911Y-88190365D01*
X86034340Y-88192233D01*
X86031008Y-88197334D01*
X86030391Y-88196931D01*
X85990952Y-88243849D01*
X85924215Y-88264535D01*
X85856888Y-88245857D01*
X85834677Y-88228230D01*
X85308258Y-87701811D01*
X85308257Y-87701812D01*
X85262903Y-87766586D01*
X85207071Y-87886317D01*
X85160898Y-87938756D01*
X85093705Y-87957908D01*
X85026824Y-87937692D01*
X84982307Y-87886317D01*
X84976786Y-87874477D01*
X84924488Y-87762324D01*
X84924486Y-87762321D01*
X84924485Y-87762319D01*
X84796978Y-87580220D01*
X84734376Y-87517618D01*
X84639781Y-87423023D01*
X84499677Y-87324921D01*
X84457676Y-87295511D01*
X84356936Y-87248535D01*
X84256196Y-87201560D01*
X84256193Y-87201559D01*
X84256191Y-87201558D01*
X84041465Y-87144022D01*
X84041457Y-87144021D01*
X83820002Y-87124647D01*
X83819998Y-87124647D01*
X83598542Y-87144021D01*
X83598535Y-87144022D01*
X83383800Y-87201561D01*
X83182323Y-87295512D01*
X83182319Y-87295514D01*
X83000217Y-87423023D01*
X82843023Y-87580217D01*
X82715514Y-87762319D01*
X82715512Y-87762323D01*
X82662382Y-87876261D01*
X82616209Y-87928700D01*
X82549016Y-87947852D01*
X82482135Y-87927636D01*
X82437618Y-87876261D01*
X82428130Y-87855914D01*
X82384488Y-87762324D01*
X82384486Y-87762321D01*
X82384485Y-87762319D01*
X82256978Y-87580220D01*
X82194376Y-87517618D01*
X82099781Y-87423023D01*
X81959677Y-87324921D01*
X81917676Y-87295511D01*
X81816936Y-87248535D01*
X81716196Y-87201560D01*
X81716193Y-87201559D01*
X81716191Y-87201558D01*
X81501465Y-87144022D01*
X81501457Y-87144021D01*
X81280002Y-87124647D01*
X81279998Y-87124647D01*
X81058542Y-87144021D01*
X81058535Y-87144022D01*
X80843800Y-87201561D01*
X80642323Y-87295512D01*
X80642319Y-87295514D01*
X80460217Y-87423023D01*
X80303023Y-87580217D01*
X80175514Y-87762319D01*
X80175512Y-87762323D01*
X80081561Y-87963800D01*
X80024022Y-88178535D01*
X80024021Y-88178542D01*
X80004647Y-88399997D01*
X80004647Y-88400002D01*
X72288689Y-88400002D01*
X72224488Y-88262324D01*
X72224486Y-88262321D01*
X72224485Y-88262319D01*
X72096978Y-88080220D01*
X72020059Y-88003301D01*
X71939781Y-87923023D01*
X71757677Y-87795512D01*
X71695653Y-87766590D01*
X71643739Y-87742382D01*
X71591299Y-87696210D01*
X71572147Y-87629017D01*
X71592363Y-87562135D01*
X71643739Y-87517618D01*
X71757677Y-87464488D01*
X71939781Y-87336977D01*
X72096977Y-87179781D01*
X72224488Y-86997677D01*
X72318440Y-86796196D01*
X72375978Y-86581463D01*
X72395353Y-86360000D01*
X72395309Y-86359500D01*
X72388087Y-86276951D01*
X72375978Y-86138537D01*
X72318440Y-85923804D01*
X72224488Y-85722324D01*
X72224486Y-85722321D01*
X72224485Y-85722319D01*
X72096978Y-85540220D01*
X72096975Y-85540217D01*
X71939781Y-85383023D01*
X71757677Y-85255512D01*
X71643738Y-85202381D01*
X71591299Y-85156210D01*
X71572147Y-85089017D01*
X71592363Y-85022135D01*
X71643739Y-84977618D01*
X71757677Y-84924488D01*
X71939781Y-84796977D01*
X72096977Y-84639781D01*
X72224488Y-84457677D01*
X72318440Y-84256196D01*
X72375978Y-84041463D01*
X72395353Y-83820000D01*
X72375978Y-83598537D01*
X72318440Y-83383804D01*
X72224488Y-83182324D01*
X72224486Y-83182321D01*
X72224485Y-83182319D01*
X72096978Y-83000220D01*
X72096975Y-83000217D01*
X71939781Y-82843023D01*
X71757677Y-82715512D01*
X71757678Y-82715512D01*
X71757676Y-82715511D01*
X71656936Y-82668536D01*
X71556196Y-82621560D01*
X71556193Y-82621559D01*
X71556191Y-82621558D01*
X71341465Y-82564022D01*
X71341457Y-82564021D01*
X71120002Y-82544647D01*
X71119998Y-82544647D01*
X70898542Y-82564021D01*
X70898535Y-82564022D01*
X70683800Y-82621561D01*
X70482323Y-82715512D01*
X70482319Y-82715514D01*
X70300217Y-82843023D01*
X70143023Y-83000217D01*
X70015514Y-83182319D01*
X70015512Y-83182323D01*
X69921561Y-83383800D01*
X69864022Y-83598535D01*
X69864021Y-83598542D01*
X69844647Y-83819997D01*
X69844647Y-83820002D01*
X69864021Y-84041457D01*
X69864022Y-84041465D01*
X69921558Y-84256191D01*
X69921559Y-84256193D01*
X69921560Y-84256196D01*
X69940216Y-84296204D01*
X70015511Y-84457676D01*
X70015512Y-84457677D01*
X70143023Y-84639781D01*
X70300219Y-84796977D01*
X70482322Y-84924487D01*
X70482323Y-84924488D01*
X70596261Y-84977618D01*
X70648700Y-85023790D01*
X70667852Y-85090984D01*
X70647636Y-85157865D01*
X70596261Y-85202382D01*
X70482323Y-85255512D01*
X70482319Y-85255514D01*
X70300217Y-85383023D01*
X70143023Y-85540217D01*
X70015514Y-85722319D01*
X70015512Y-85722323D01*
X69921561Y-85923800D01*
X69864022Y-86138535D01*
X69864021Y-86138542D01*
X69844647Y-86359997D01*
X69844647Y-86360002D01*
X69864021Y-86581457D01*
X69864022Y-86581465D01*
X69921558Y-86796191D01*
X69921559Y-86796193D01*
X69921560Y-86796196D01*
X69936364Y-86827943D01*
X70015511Y-86997676D01*
X70015512Y-86997677D01*
X70143023Y-87179781D01*
X70300219Y-87336977D01*
X70482322Y-87464487D01*
X70482323Y-87464488D01*
X70596261Y-87517618D01*
X70648700Y-87563790D01*
X70667852Y-87630984D01*
X70647636Y-87697865D01*
X70596261Y-87742382D01*
X70482323Y-87795512D01*
X70482319Y-87795514D01*
X70300217Y-87923023D01*
X70143023Y-88080217D01*
X70015514Y-88262319D01*
X70015512Y-88262323D01*
X69921561Y-88463800D01*
X69864022Y-88678535D01*
X69864021Y-88678542D01*
X69844647Y-88899997D01*
X69844647Y-88900002D01*
X69864021Y-89121457D01*
X69864022Y-89121465D01*
X69921558Y-89336191D01*
X69921559Y-89336193D01*
X69921560Y-89336196D01*
X69959465Y-89417484D01*
X70015511Y-89537676D01*
X70015512Y-89537677D01*
X70143023Y-89719781D01*
X70300219Y-89876977D01*
X70482322Y-90004487D01*
X70482323Y-90004488D01*
X70596261Y-90057618D01*
X70648700Y-90103790D01*
X70667852Y-90170984D01*
X70647636Y-90237865D01*
X70596261Y-90282382D01*
X70482323Y-90335512D01*
X70482319Y-90335514D01*
X70300217Y-90463023D01*
X70143023Y-90620217D01*
X70015514Y-90802319D01*
X70015512Y-90802323D01*
X69921561Y-91003800D01*
X69864022Y-91218535D01*
X69864021Y-91218542D01*
X69844647Y-91439997D01*
X69844647Y-91440002D01*
X69864021Y-91661457D01*
X69864022Y-91661465D01*
X69921558Y-91876191D01*
X69921559Y-91876193D01*
X69921560Y-91876196D01*
X69968536Y-91976936D01*
X70015511Y-92077676D01*
X70015512Y-92077677D01*
X70143023Y-92259781D01*
X70300219Y-92416977D01*
X70482322Y-92544487D01*
X70482323Y-92544488D01*
X70596261Y-92597618D01*
X70648700Y-92643790D01*
X70667852Y-92710984D01*
X70647636Y-92777865D01*
X70596261Y-92822382D01*
X70482323Y-92875512D01*
X70482319Y-92875514D01*
X70300217Y-93003023D01*
X70143023Y-93160217D01*
X70015514Y-93342319D01*
X70015512Y-93342323D01*
X69921561Y-93543800D01*
X69864022Y-93758535D01*
X69864021Y-93758542D01*
X69844647Y-93979997D01*
X69844647Y-93980002D01*
X69864021Y-94201457D01*
X69864022Y-94201465D01*
X69921558Y-94416191D01*
X69921559Y-94416193D01*
X69921560Y-94416196D01*
X69935677Y-94446470D01*
X70015511Y-94617676D01*
X70015512Y-94617677D01*
X70143023Y-94799781D01*
X70300219Y-94956977D01*
X70471762Y-95077093D01*
X70482323Y-95084488D01*
X70596261Y-95137618D01*
X70648700Y-95183790D01*
X70667852Y-95250984D01*
X70647636Y-95317865D01*
X70596261Y-95362382D01*
X70482323Y-95415512D01*
X70482319Y-95415514D01*
X70300217Y-95543023D01*
X70143023Y-95700217D01*
X70015514Y-95882319D01*
X70015512Y-95882323D01*
X69921561Y-96083800D01*
X69864022Y-96298535D01*
X69864021Y-96298542D01*
X69844647Y-96519997D01*
X69844647Y-96520002D01*
X69864021Y-96741457D01*
X69864022Y-96741465D01*
X69921558Y-96956191D01*
X69921559Y-96956193D01*
X69921560Y-96956196D01*
X69935677Y-96986470D01*
X70015511Y-97157676D01*
X70015512Y-97157677D01*
X70143023Y-97339781D01*
X70300219Y-97496977D01*
X70471762Y-97617093D01*
X70482323Y-97624488D01*
X70596261Y-97677618D01*
X70648700Y-97723790D01*
X70667852Y-97790984D01*
X70647636Y-97857865D01*
X70596261Y-97902382D01*
X70482323Y-97955512D01*
X70482319Y-97955514D01*
X70300217Y-98083023D01*
X70143023Y-98240217D01*
X70015514Y-98422319D01*
X70015512Y-98422323D01*
X69921561Y-98623800D01*
X69864022Y-98838535D01*
X69864021Y-98838542D01*
X69844647Y-99059997D01*
X69844647Y-99060002D01*
X69864021Y-99281457D01*
X69864022Y-99281465D01*
X69921558Y-99496191D01*
X69921559Y-99496193D01*
X69921560Y-99496196D01*
X69936364Y-99527943D01*
X70015511Y-99697676D01*
X70015512Y-99697677D01*
X70143023Y-99879781D01*
X70300219Y-100036977D01*
X70482323Y-100164488D01*
X70606317Y-100222307D01*
X70658756Y-100268479D01*
X70677908Y-100335673D01*
X70657692Y-100402554D01*
X70606317Y-100447071D01*
X70486586Y-100502903D01*
X70421812Y-100548257D01*
X70421811Y-100548258D01*
X70950723Y-101077170D01*
X70984208Y-101138493D01*
X70979224Y-101208185D01*
X70937352Y-101264118D01*
X70922059Y-101273906D01*
X70882749Y-101295179D01*
X70882748Y-101295179D01*
X70796626Y-101388733D01*
X70796626Y-101388734D01*
X70795911Y-101390365D01*
X70794340Y-101392233D01*
X70791008Y-101397334D01*
X70790391Y-101396931D01*
X70750952Y-101443849D01*
X70684215Y-101464535D01*
X70616888Y-101445857D01*
X70594677Y-101428230D01*
X70068258Y-100901811D01*
X70068257Y-100901812D01*
X70022903Y-100966586D01*
X69929579Y-101166720D01*
X69929575Y-101166729D01*
X69872426Y-101380013D01*
X69872424Y-101380023D01*
X69853179Y-101599999D01*
X69853179Y-101600000D01*
X69872424Y-101819976D01*
X69872426Y-101819986D01*
X69929575Y-102033270D01*
X69929580Y-102033284D01*
X70022899Y-102233407D01*
X70022900Y-102233409D01*
X70068258Y-102298187D01*
X70597050Y-101769395D01*
X70658373Y-101735910D01*
X70728064Y-101740894D01*
X70783998Y-101782765D01*
X70788539Y-101789254D01*
X70835813Y-101861612D01*
X70936157Y-101939713D01*
X70936160Y-101939714D01*
X70936511Y-101939987D01*
X70977324Y-101996697D01*
X70980999Y-102066470D01*
X70948030Y-102125522D01*
X70421811Y-102651741D01*
X70486582Y-102697094D01*
X70486592Y-102697100D01*
X70606316Y-102752928D01*
X70658756Y-102799100D01*
X70677908Y-102866293D01*
X70657693Y-102933174D01*
X70606318Y-102977692D01*
X70482320Y-103035514D01*
X70482319Y-103035514D01*
X70300217Y-103163023D01*
X70143023Y-103320217D01*
X70015514Y-103502319D01*
X70015512Y-103502323D01*
X69921561Y-103703800D01*
X69864022Y-103918535D01*
X69864021Y-103918542D01*
X69844647Y-104139997D01*
X69844647Y-104140002D01*
X69864021Y-104361457D01*
X69864022Y-104361465D01*
X69921558Y-104576191D01*
X69921559Y-104576193D01*
X69921560Y-104576196D01*
X69968536Y-104676936D01*
X70015511Y-104777676D01*
X70015512Y-104777677D01*
X70143023Y-104959781D01*
X70300219Y-105116977D01*
X70482322Y-105244487D01*
X70482323Y-105244488D01*
X70596261Y-105297618D01*
X70648700Y-105343790D01*
X70667852Y-105410984D01*
X70647636Y-105477865D01*
X70596261Y-105522382D01*
X70482323Y-105575512D01*
X70482319Y-105575514D01*
X70300217Y-105703023D01*
X70143023Y-105860217D01*
X70015514Y-106042319D01*
X70015512Y-106042323D01*
X69921561Y-106243800D01*
X69864022Y-106458535D01*
X69864021Y-106458542D01*
X69844647Y-106679997D01*
X69844647Y-106680002D01*
X39497000Y-106680002D01*
X39497000Y-100329999D01*
X42436807Y-100329999D01*
X42455557Y-100604130D01*
X42455558Y-100604132D01*
X42511458Y-100873141D01*
X42511463Y-100873158D01*
X42603476Y-101132056D01*
X42729889Y-101376024D01*
X42729893Y-101376030D01*
X42888340Y-101600499D01*
X42888343Y-101600502D01*
X43075889Y-101801314D01*
X43289031Y-101974718D01*
X43289033Y-101974719D01*
X43289034Y-101974720D01*
X43523801Y-102117485D01*
X43728348Y-102206331D01*
X43775823Y-102226953D01*
X44040404Y-102301085D01*
X44279720Y-102333978D01*
X44312614Y-102338500D01*
X44312615Y-102338500D01*
X44587386Y-102338500D01*
X44616733Y-102334466D01*
X44859596Y-102301085D01*
X45124177Y-102226953D01*
X45376200Y-102117484D01*
X45610969Y-101974718D01*
X45824111Y-101801314D01*
X46011657Y-101600502D01*
X46012010Y-101600002D01*
X54604647Y-101600002D01*
X54624021Y-101821457D01*
X54624022Y-101821465D01*
X54681558Y-102036191D01*
X54681559Y-102036193D01*
X54681560Y-102036196D01*
X54695677Y-102066470D01*
X54775511Y-102237676D01*
X54775512Y-102237677D01*
X54903023Y-102419781D01*
X55060219Y-102576977D01*
X55242323Y-102704488D01*
X55443804Y-102798440D01*
X55658537Y-102855978D01*
X55816724Y-102869817D01*
X55879998Y-102875353D01*
X55880000Y-102875353D01*
X55880002Y-102875353D01*
X55935365Y-102870509D01*
X56101463Y-102855978D01*
X56316196Y-102798440D01*
X56517677Y-102704488D01*
X56699781Y-102576977D01*
X56856977Y-102419781D01*
X56984488Y-102237677D01*
X57078440Y-102036196D01*
X57135978Y-101821463D01*
X57155309Y-101600502D01*
X57155353Y-101600002D01*
X57155353Y-101599997D01*
X57147057Y-101505177D01*
X57135978Y-101378537D01*
X57078440Y-101163804D01*
X56984488Y-100962324D01*
X56984486Y-100962321D01*
X56984485Y-100962319D01*
X56856978Y-100780220D01*
X56856975Y-100780217D01*
X56699781Y-100623023D01*
X56517677Y-100495512D01*
X56403738Y-100442381D01*
X56351299Y-100396210D01*
X56332147Y-100329017D01*
X56352363Y-100262135D01*
X56403739Y-100217618D01*
X56517677Y-100164488D01*
X56699781Y-100036977D01*
X56856977Y-99879781D01*
X56984488Y-99697677D01*
X57078440Y-99496196D01*
X57135978Y-99281463D01*
X57155353Y-99060000D01*
X57155309Y-99059500D01*
X57148087Y-98976951D01*
X57135978Y-98838537D01*
X57078440Y-98623804D01*
X56984488Y-98422324D01*
X56984486Y-98422321D01*
X56984485Y-98422319D01*
X56856978Y-98240220D01*
X56856975Y-98240217D01*
X56699781Y-98083023D01*
X56517677Y-97955512D01*
X56517678Y-97955512D01*
X56517676Y-97955511D01*
X56393682Y-97897692D01*
X56341243Y-97851519D01*
X56322091Y-97784326D01*
X56342307Y-97717445D01*
X56393684Y-97672927D01*
X56513413Y-97617097D01*
X56513420Y-97617093D01*
X56578186Y-97571742D01*
X56578187Y-97571740D01*
X56049276Y-97042829D01*
X56015791Y-96981506D01*
X56020775Y-96911814D01*
X56062647Y-96855881D01*
X56077933Y-96846097D01*
X56117251Y-96824820D01*
X56203371Y-96731269D01*
X56204083Y-96729643D01*
X56205652Y-96727777D01*
X56208992Y-96722666D01*
X56209609Y-96723069D01*
X56249036Y-96676158D01*
X56315770Y-96655464D01*
X56383099Y-96674135D01*
X56405322Y-96691769D01*
X56931740Y-97218187D01*
X56931742Y-97218186D01*
X56977093Y-97153420D01*
X56977100Y-97153408D01*
X57070419Y-96953284D01*
X57070424Y-96953270D01*
X57127573Y-96739986D01*
X57127575Y-96739976D01*
X57146821Y-96520000D01*
X57146821Y-96519999D01*
X57127575Y-96300023D01*
X57127573Y-96300013D01*
X57070424Y-96086729D01*
X57070420Y-96086720D01*
X56977098Y-95886590D01*
X56931740Y-95821811D01*
X56402949Y-96350602D01*
X56341626Y-96384087D01*
X56271934Y-96379103D01*
X56216001Y-96337231D01*
X56211460Y-96330743D01*
X56164189Y-96258391D01*
X56164187Y-96258388D01*
X56108673Y-96215180D01*
X56063843Y-96180287D01*
X56063840Y-96180285D01*
X56063488Y-96180012D01*
X56022675Y-96123301D01*
X56019000Y-96053529D01*
X56051969Y-95994477D01*
X56578187Y-95468258D01*
X56513409Y-95422900D01*
X56513407Y-95422899D01*
X56383627Y-95362382D01*
X56331187Y-95316210D01*
X56312035Y-95249017D01*
X56332251Y-95182135D01*
X56383627Y-95137618D01*
X56513408Y-95077100D01*
X56513420Y-95077093D01*
X56578186Y-95031742D01*
X56578187Y-95031740D01*
X56049276Y-94502829D01*
X56015791Y-94441506D01*
X56020775Y-94371814D01*
X56062647Y-94315881D01*
X56077933Y-94306097D01*
X56117251Y-94284820D01*
X56203371Y-94191269D01*
X56204083Y-94189643D01*
X56205652Y-94187777D01*
X56208992Y-94182666D01*
X56209609Y-94183069D01*
X56249036Y-94136158D01*
X56315770Y-94115464D01*
X56383099Y-94134135D01*
X56405322Y-94151769D01*
X56931740Y-94678187D01*
X56931742Y-94678186D01*
X56977093Y-94613420D01*
X56977100Y-94613408D01*
X57070419Y-94413284D01*
X57070424Y-94413270D01*
X57127573Y-94199986D01*
X57127575Y-94199976D01*
X57146821Y-93980000D01*
X57146821Y-93979999D01*
X57127575Y-93760023D01*
X57127573Y-93760013D01*
X57070424Y-93546729D01*
X57070420Y-93546720D01*
X56977098Y-93346590D01*
X56931740Y-93281811D01*
X56402949Y-93810602D01*
X56341626Y-93844087D01*
X56271934Y-93839103D01*
X56216001Y-93797231D01*
X56211460Y-93790743D01*
X56164189Y-93718391D01*
X56164187Y-93718388D01*
X56108673Y-93675180D01*
X56063843Y-93640287D01*
X56063840Y-93640285D01*
X56063488Y-93640012D01*
X56022675Y-93583301D01*
X56019000Y-93513529D01*
X56051969Y-93454477D01*
X56578187Y-92928258D01*
X56513409Y-92882900D01*
X56513407Y-92882899D01*
X56393683Y-92827071D01*
X56341243Y-92780899D01*
X56322091Y-92713705D01*
X56342307Y-92646824D01*
X56393682Y-92602307D01*
X56517677Y-92544488D01*
X56699781Y-92416977D01*
X56856977Y-92259781D01*
X56984488Y-92077677D01*
X57078440Y-91876196D01*
X57135978Y-91661463D01*
X57155353Y-91440000D01*
X57135978Y-91218537D01*
X57078440Y-91003804D01*
X56984488Y-90802324D01*
X56984486Y-90802321D01*
X56984485Y-90802319D01*
X56856978Y-90620220D01*
X56856975Y-90620217D01*
X56699781Y-90463023D01*
X56517677Y-90335512D01*
X56403738Y-90282381D01*
X56351299Y-90236210D01*
X56332147Y-90169017D01*
X56352363Y-90102135D01*
X56403739Y-90057618D01*
X56517677Y-90004488D01*
X56699781Y-89876977D01*
X56856977Y-89719781D01*
X56984488Y-89537677D01*
X57078440Y-89336196D01*
X57135978Y-89121463D01*
X57155309Y-88900502D01*
X57155353Y-88900002D01*
X57155353Y-88899997D01*
X57135978Y-88678542D01*
X57135978Y-88678537D01*
X57078440Y-88463804D01*
X56984488Y-88262324D01*
X56984486Y-88262321D01*
X56984485Y-88262319D01*
X56856978Y-88080220D01*
X56780059Y-88003301D01*
X56699781Y-87923023D01*
X56517677Y-87795512D01*
X56517678Y-87795512D01*
X56517676Y-87795511D01*
X56403739Y-87742382D01*
X56316196Y-87701560D01*
X56316193Y-87701559D01*
X56316191Y-87701558D01*
X56101465Y-87644022D01*
X56101457Y-87644021D01*
X55880002Y-87624647D01*
X55879998Y-87624647D01*
X55658542Y-87644021D01*
X55658535Y-87644022D01*
X55443800Y-87701561D01*
X55242323Y-87795512D01*
X55242319Y-87795514D01*
X55060217Y-87923023D01*
X54903023Y-88080217D01*
X54775514Y-88262319D01*
X54775512Y-88262323D01*
X54681561Y-88463800D01*
X54624022Y-88678535D01*
X54624021Y-88678542D01*
X54604647Y-88899997D01*
X54604647Y-88900002D01*
X54624021Y-89121457D01*
X54624022Y-89121465D01*
X54681558Y-89336191D01*
X54681559Y-89336193D01*
X54681560Y-89336196D01*
X54719465Y-89417484D01*
X54775511Y-89537676D01*
X54775512Y-89537677D01*
X54903023Y-89719781D01*
X55060219Y-89876977D01*
X55242322Y-90004487D01*
X55242323Y-90004488D01*
X55356261Y-90057618D01*
X55408700Y-90103790D01*
X55427852Y-90170984D01*
X55407636Y-90237865D01*
X55356261Y-90282382D01*
X55242323Y-90335512D01*
X55242319Y-90335514D01*
X55060217Y-90463023D01*
X54903023Y-90620217D01*
X54775514Y-90802319D01*
X54775512Y-90802323D01*
X54681561Y-91003800D01*
X54624022Y-91218535D01*
X54624021Y-91218542D01*
X54604647Y-91439997D01*
X54604647Y-91440002D01*
X54624021Y-91661457D01*
X54624022Y-91661465D01*
X54681558Y-91876191D01*
X54681559Y-91876193D01*
X54681560Y-91876196D01*
X54728536Y-91976936D01*
X54775511Y-92077676D01*
X54775512Y-92077677D01*
X54903023Y-92259781D01*
X55060219Y-92416977D01*
X55242323Y-92544488D01*
X55366317Y-92602307D01*
X55418756Y-92648479D01*
X55437908Y-92715673D01*
X55417692Y-92782554D01*
X55366317Y-92827071D01*
X55246586Y-92882903D01*
X55181812Y-92928257D01*
X55181811Y-92928258D01*
X55710723Y-93457170D01*
X55744208Y-93518493D01*
X55739224Y-93588185D01*
X55697352Y-93644118D01*
X55682059Y-93653906D01*
X55642749Y-93675179D01*
X55642748Y-93675179D01*
X55556626Y-93768733D01*
X55556626Y-93768734D01*
X55555911Y-93770365D01*
X55554340Y-93772233D01*
X55551008Y-93777334D01*
X55550391Y-93776931D01*
X55510952Y-93823849D01*
X55444215Y-93844535D01*
X55376888Y-93825857D01*
X55354677Y-93808230D01*
X54828258Y-93281811D01*
X54828257Y-93281812D01*
X54782903Y-93346586D01*
X54689579Y-93546720D01*
X54689575Y-93546729D01*
X54632426Y-93760013D01*
X54632424Y-93760023D01*
X54613179Y-93979999D01*
X54613179Y-93980000D01*
X54632424Y-94199976D01*
X54632426Y-94199986D01*
X54689575Y-94413270D01*
X54689580Y-94413284D01*
X54782899Y-94613407D01*
X54782900Y-94613409D01*
X54828258Y-94678187D01*
X55357050Y-94149395D01*
X55418373Y-94115910D01*
X55488064Y-94120894D01*
X55543998Y-94162765D01*
X55548539Y-94169254D01*
X55595813Y-94241612D01*
X55696157Y-94319713D01*
X55696160Y-94319714D01*
X55696511Y-94319987D01*
X55737324Y-94376697D01*
X55740999Y-94446470D01*
X55708030Y-94505522D01*
X55181811Y-95031741D01*
X55246582Y-95077094D01*
X55246588Y-95077098D01*
X55376373Y-95137618D01*
X55428812Y-95183790D01*
X55447964Y-95250984D01*
X55427748Y-95317865D01*
X55376373Y-95362382D01*
X55246586Y-95422903D01*
X55181812Y-95468257D01*
X55181811Y-95468258D01*
X55710723Y-95997170D01*
X55744208Y-96058493D01*
X55739224Y-96128185D01*
X55697352Y-96184118D01*
X55682059Y-96193906D01*
X55642749Y-96215179D01*
X55642748Y-96215179D01*
X55556626Y-96308733D01*
X55556626Y-96308734D01*
X55555911Y-96310365D01*
X55554340Y-96312233D01*
X55551008Y-96317334D01*
X55550391Y-96316931D01*
X55510952Y-96363849D01*
X55444215Y-96384535D01*
X55376888Y-96365857D01*
X55354677Y-96348230D01*
X54828258Y-95821811D01*
X54828257Y-95821812D01*
X54782903Y-95886586D01*
X54689579Y-96086720D01*
X54689575Y-96086729D01*
X54632426Y-96300013D01*
X54632424Y-96300023D01*
X54613179Y-96519999D01*
X54613179Y-96520000D01*
X54632424Y-96739976D01*
X54632426Y-96739986D01*
X54689575Y-96953270D01*
X54689580Y-96953284D01*
X54782899Y-97153407D01*
X54782900Y-97153409D01*
X54828258Y-97218187D01*
X55357050Y-96689395D01*
X55418373Y-96655910D01*
X55488064Y-96660894D01*
X55543998Y-96702765D01*
X55548539Y-96709254D01*
X55595813Y-96781612D01*
X55696157Y-96859713D01*
X55696160Y-96859714D01*
X55696511Y-96859987D01*
X55737324Y-96916697D01*
X55740999Y-96986470D01*
X55708030Y-97045522D01*
X55181811Y-97571741D01*
X55246582Y-97617094D01*
X55246592Y-97617100D01*
X55366316Y-97672928D01*
X55418756Y-97719100D01*
X55437908Y-97786293D01*
X55417693Y-97853174D01*
X55366318Y-97897692D01*
X55271228Y-97942033D01*
X55242329Y-97955510D01*
X55242320Y-97955514D01*
X55242319Y-97955514D01*
X55060217Y-98083023D01*
X54903023Y-98240217D01*
X54775514Y-98422319D01*
X54775512Y-98422323D01*
X54681561Y-98623800D01*
X54624022Y-98838535D01*
X54624021Y-98838542D01*
X54604647Y-99059997D01*
X54604647Y-99060002D01*
X54624021Y-99281457D01*
X54624022Y-99281465D01*
X54681558Y-99496191D01*
X54681559Y-99496193D01*
X54681560Y-99496196D01*
X54696364Y-99527943D01*
X54775511Y-99697676D01*
X54775512Y-99697677D01*
X54903023Y-99879781D01*
X55060219Y-100036977D01*
X55242322Y-100164487D01*
X55242323Y-100164488D01*
X55356261Y-100217618D01*
X55408700Y-100263790D01*
X55427852Y-100330984D01*
X55407636Y-100397865D01*
X55356261Y-100442382D01*
X55242323Y-100495512D01*
X55242319Y-100495514D01*
X55060217Y-100623023D01*
X54903023Y-100780217D01*
X54775514Y-100962319D01*
X54775512Y-100962323D01*
X54681561Y-101163800D01*
X54624022Y-101378535D01*
X54624021Y-101378542D01*
X54604647Y-101599997D01*
X54604647Y-101600002D01*
X46012010Y-101600002D01*
X46170111Y-101376023D01*
X46296523Y-101132058D01*
X46388538Y-100873153D01*
X46388539Y-100873146D01*
X46388541Y-100873141D01*
X46414491Y-100748259D01*
X46444442Y-100604130D01*
X46463193Y-100330000D01*
X46444442Y-100055870D01*
X46407850Y-99879781D01*
X46388541Y-99786858D01*
X46388536Y-99786841D01*
X46296523Y-99527943D01*
X46296523Y-99527942D01*
X46170111Y-99283977D01*
X46170110Y-99283975D01*
X46170106Y-99283969D01*
X46011659Y-99059500D01*
X45993031Y-99039555D01*
X45824111Y-98858686D01*
X45610969Y-98685282D01*
X45610967Y-98685281D01*
X45610965Y-98685279D01*
X45376198Y-98542514D01*
X45124178Y-98433047D01*
X44859602Y-98358916D01*
X44859597Y-98358915D01*
X44859596Y-98358915D01*
X44723490Y-98340207D01*
X44587386Y-98321500D01*
X44587385Y-98321500D01*
X44312615Y-98321500D01*
X44312614Y-98321500D01*
X44040404Y-98358915D01*
X44040397Y-98358916D01*
X43775821Y-98433047D01*
X43523801Y-98542514D01*
X43289034Y-98685279D01*
X43075892Y-98858683D01*
X42888340Y-99059500D01*
X42729893Y-99283969D01*
X42729889Y-99283975D01*
X42603476Y-99527943D01*
X42511463Y-99786841D01*
X42511458Y-99786858D01*
X42455558Y-100055867D01*
X42455557Y-100055869D01*
X42436807Y-100329999D01*
X39497000Y-100329999D01*
X39497000Y-96798654D01*
X42441500Y-96798654D01*
X42448011Y-96859202D01*
X42448011Y-96859204D01*
X42484189Y-96956197D01*
X42499111Y-96996204D01*
X42586739Y-97113261D01*
X42703796Y-97200889D01*
X42840799Y-97251989D01*
X42868050Y-97254918D01*
X42901345Y-97258499D01*
X42901362Y-97258500D01*
X45998638Y-97258500D01*
X45998654Y-97258499D01*
X46025692Y-97255591D01*
X46059201Y-97251989D01*
X46196204Y-97200889D01*
X46313261Y-97113261D01*
X46400889Y-96996204D01*
X46451989Y-96859201D01*
X46455685Y-96824820D01*
X46458499Y-96798654D01*
X46458500Y-96798637D01*
X46458500Y-93701362D01*
X46458499Y-93701345D01*
X46453398Y-93653906D01*
X46451989Y-93640799D01*
X46451798Y-93640287D01*
X46415810Y-93543800D01*
X46400889Y-93503796D01*
X46313261Y-93386739D01*
X46196204Y-93299111D01*
X46196204Y-93299110D01*
X46059203Y-93248011D01*
X45998654Y-93241500D01*
X45998638Y-93241500D01*
X42901362Y-93241500D01*
X42901345Y-93241500D01*
X42840797Y-93248011D01*
X42840795Y-93248011D01*
X42703795Y-93299111D01*
X42586739Y-93386739D01*
X42499111Y-93503795D01*
X42448011Y-93640795D01*
X42448011Y-93640797D01*
X42441500Y-93701345D01*
X42441500Y-96798654D01*
X39497000Y-96798654D01*
X39497000Y-87630000D01*
X42436807Y-87630000D01*
X42455557Y-87904130D01*
X42455558Y-87904132D01*
X42511458Y-88173141D01*
X42511463Y-88173158D01*
X42603476Y-88432056D01*
X42729889Y-88676024D01*
X42729893Y-88676030D01*
X42888340Y-88900499D01*
X42888343Y-88900502D01*
X43075889Y-89101314D01*
X43289031Y-89274718D01*
X43289033Y-89274719D01*
X43289034Y-89274720D01*
X43523801Y-89417485D01*
X43707078Y-89497093D01*
X43775823Y-89526953D01*
X44040404Y-89601085D01*
X44279720Y-89633978D01*
X44312614Y-89638500D01*
X44312615Y-89638500D01*
X44587386Y-89638500D01*
X44616733Y-89634466D01*
X44859596Y-89601085D01*
X45124177Y-89526953D01*
X45376200Y-89417484D01*
X45610969Y-89274718D01*
X45824111Y-89101314D01*
X46011657Y-88900502D01*
X46170111Y-88676023D01*
X46296523Y-88432058D01*
X46388538Y-88173153D01*
X46388539Y-88173146D01*
X46388541Y-88173141D01*
X46417317Y-88034661D01*
X46444442Y-87904130D01*
X46463193Y-87630000D01*
X46444442Y-87355870D01*
X46425141Y-87262989D01*
X46388541Y-87086858D01*
X46388536Y-87086841D01*
X46296523Y-86827943D01*
X46296523Y-86827942D01*
X46170111Y-86583977D01*
X46170110Y-86583975D01*
X46170106Y-86583969D01*
X46011659Y-86359500D01*
X45993031Y-86339555D01*
X45824111Y-86158686D01*
X45610969Y-85985282D01*
X45610967Y-85985281D01*
X45610965Y-85985279D01*
X45376198Y-85842514D01*
X45124178Y-85733047D01*
X44859602Y-85658916D01*
X44859597Y-85658915D01*
X44859596Y-85658915D01*
X44723490Y-85640207D01*
X44587386Y-85621500D01*
X44587385Y-85621500D01*
X44312615Y-85621500D01*
X44312614Y-85621500D01*
X44040404Y-85658915D01*
X44040397Y-85658916D01*
X43775821Y-85733047D01*
X43523801Y-85842514D01*
X43289034Y-85985279D01*
X43075892Y-86158683D01*
X42888340Y-86359500D01*
X42729893Y-86583969D01*
X42729889Y-86583975D01*
X42603476Y-86827943D01*
X42511463Y-87086841D01*
X42511458Y-87086858D01*
X42455558Y-87355867D01*
X42455557Y-87355869D01*
X42436807Y-87630000D01*
X39497000Y-87630000D01*
X39497000Y-84098654D01*
X42441500Y-84098654D01*
X42448011Y-84159202D01*
X42448011Y-84159204D01*
X42484189Y-84256197D01*
X42499111Y-84296204D01*
X42586739Y-84413261D01*
X42703796Y-84500889D01*
X42840799Y-84551989D01*
X42868050Y-84554918D01*
X42901345Y-84558499D01*
X42901362Y-84558500D01*
X45998638Y-84558500D01*
X45998654Y-84558499D01*
X46025692Y-84555591D01*
X46059201Y-84551989D01*
X46196204Y-84500889D01*
X46313261Y-84413261D01*
X46400889Y-84296204D01*
X46451989Y-84159201D01*
X46455591Y-84125692D01*
X46458499Y-84098654D01*
X46458500Y-84098637D01*
X46458500Y-81001362D01*
X46458499Y-81001345D01*
X46455157Y-80970270D01*
X46451989Y-80940799D01*
X46400889Y-80803796D01*
X46313261Y-80686739D01*
X46196204Y-80599111D01*
X46196204Y-80599110D01*
X46059203Y-80548011D01*
X45998654Y-80541500D01*
X45998638Y-80541500D01*
X42901362Y-80541500D01*
X42901345Y-80541500D01*
X42840797Y-80548011D01*
X42840795Y-80548011D01*
X42703795Y-80599111D01*
X42586739Y-80686739D01*
X42499111Y-80803795D01*
X42448011Y-80940795D01*
X42448011Y-80940797D01*
X42441500Y-81001345D01*
X42441500Y-84098654D01*
X39497000Y-84098654D01*
X39497000Y-78230000D01*
X39919529Y-78230000D01*
X39982685Y-78400527D01*
X39982687Y-78400531D01*
X40084892Y-78564503D01*
X40218002Y-78704534D01*
X40218003Y-78704535D01*
X40376586Y-78814913D01*
X40554137Y-78891106D01*
X40743394Y-78930000D01*
X40990000Y-78930000D01*
X40990000Y-78404000D01*
X41009685Y-78336961D01*
X41062489Y-78291206D01*
X41114000Y-78280000D01*
X41366000Y-78280000D01*
X41433039Y-78299685D01*
X41478794Y-78352489D01*
X41490000Y-78404000D01*
X41490000Y-78930000D01*
X41688176Y-78930000D01*
X41832221Y-78915352D01*
X42016561Y-78857515D01*
X42016571Y-78857510D01*
X42185498Y-78763748D01*
X42185505Y-78763743D01*
X42332105Y-78637892D01*
X42450368Y-78485109D01*
X42450370Y-78485105D01*
X42535457Y-78311643D01*
X42556596Y-78230000D01*
X43569529Y-78230000D01*
X43632685Y-78400527D01*
X43632687Y-78400531D01*
X43734892Y-78564503D01*
X43868002Y-78704534D01*
X43868003Y-78704535D01*
X44026586Y-78814913D01*
X44204137Y-78891106D01*
X44393394Y-78930000D01*
X44790000Y-78930000D01*
X44790000Y-78404000D01*
X44809685Y-78336961D01*
X44862489Y-78291206D01*
X44914000Y-78280000D01*
X45166000Y-78280000D01*
X45233039Y-78299685D01*
X45278794Y-78352489D01*
X45290000Y-78404000D01*
X45290000Y-78930000D01*
X45638176Y-78930000D01*
X45782221Y-78915352D01*
X45966561Y-78857515D01*
X45966571Y-78857510D01*
X46135498Y-78763748D01*
X46135505Y-78763743D01*
X46282105Y-78637892D01*
X46400368Y-78485109D01*
X46400370Y-78485105D01*
X46485457Y-78311643D01*
X46506596Y-78230000D01*
X45994979Y-78230000D01*
X45927940Y-78210315D01*
X45882185Y-78157511D01*
X45872241Y-78088353D01*
X45875713Y-78072066D01*
X45893894Y-78008162D01*
X45893895Y-78008160D01*
X45883546Y-77896482D01*
X45883546Y-77896479D01*
X45883544Y-77896475D01*
X45881115Y-77887937D01*
X45881701Y-77818070D01*
X45919966Y-77759610D01*
X45983763Y-77731119D01*
X46000381Y-77730000D01*
X46510471Y-77730000D01*
X46447314Y-77559472D01*
X46447312Y-77559468D01*
X46345107Y-77395496D01*
X46211997Y-77255465D01*
X46211996Y-77255464D01*
X46053413Y-77145086D01*
X45875862Y-77068893D01*
X45686606Y-77030000D01*
X45290000Y-77030000D01*
X45290000Y-77556000D01*
X45270315Y-77623039D01*
X45217511Y-77668794D01*
X45166000Y-77680000D01*
X44914000Y-77680000D01*
X44846961Y-77660315D01*
X44801206Y-77607511D01*
X44790000Y-77556000D01*
X44790000Y-77030000D01*
X44441824Y-77030000D01*
X44297778Y-77044647D01*
X44113438Y-77102484D01*
X44113428Y-77102489D01*
X43944501Y-77196251D01*
X43944494Y-77196256D01*
X43797894Y-77322107D01*
X43679631Y-77474890D01*
X43679629Y-77474894D01*
X43594542Y-77648356D01*
X43573404Y-77730000D01*
X44085021Y-77730000D01*
X44152060Y-77749685D01*
X44197815Y-77802489D01*
X44207759Y-77871647D01*
X44204287Y-77887934D01*
X44186105Y-77951837D01*
X44186104Y-77951837D01*
X44196453Y-78063517D01*
X44198885Y-78072063D01*
X44198299Y-78141930D01*
X44160034Y-78200390D01*
X44096237Y-78228881D01*
X44079619Y-78230000D01*
X43569529Y-78230000D01*
X42556596Y-78230000D01*
X42044979Y-78230000D01*
X41977940Y-78210315D01*
X41932185Y-78157511D01*
X41922241Y-78088353D01*
X41925713Y-78072066D01*
X41943894Y-78008162D01*
X41943895Y-78008160D01*
X41933546Y-77896482D01*
X41933546Y-77896479D01*
X41933544Y-77896475D01*
X41931115Y-77887937D01*
X41931701Y-77818070D01*
X41969966Y-77759610D01*
X42033763Y-77731119D01*
X42050381Y-77730000D01*
X42560471Y-77730000D01*
X42497314Y-77559472D01*
X42497312Y-77559468D01*
X42395107Y-77395496D01*
X42261997Y-77255465D01*
X42261996Y-77255464D01*
X42103413Y-77145086D01*
X41925862Y-77068893D01*
X41736606Y-77030000D01*
X41490000Y-77030000D01*
X41490000Y-77556000D01*
X41470315Y-77623039D01*
X41417511Y-77668794D01*
X41366000Y-77680000D01*
X41114000Y-77680000D01*
X41046961Y-77660315D01*
X41001206Y-77607511D01*
X40990000Y-77556000D01*
X40990000Y-77030000D01*
X40791824Y-77030000D01*
X40647778Y-77044647D01*
X40463438Y-77102484D01*
X40463428Y-77102489D01*
X40294501Y-77196251D01*
X40294494Y-77196256D01*
X40147894Y-77322107D01*
X40029631Y-77474890D01*
X40029629Y-77474894D01*
X39944542Y-77648356D01*
X39923404Y-77730000D01*
X40435021Y-77730000D01*
X40502060Y-77749685D01*
X40547815Y-77802489D01*
X40557759Y-77871647D01*
X40554287Y-77887934D01*
X40536105Y-77951837D01*
X40536104Y-77951837D01*
X40546453Y-78063517D01*
X40548885Y-78072063D01*
X40548299Y-78141930D01*
X40510034Y-78200390D01*
X40446237Y-78228881D01*
X40429619Y-78230000D01*
X39919529Y-78230000D01*
X39497000Y-78230000D01*
X39497000Y-76160002D01*
X47717034Y-76160002D01*
X47736858Y-76386599D01*
X47736860Y-76386610D01*
X47795730Y-76606317D01*
X47795734Y-76606326D01*
X47891865Y-76812481D01*
X47891866Y-76812483D01*
X47942973Y-76885471D01*
X47942973Y-76885472D01*
X48484580Y-76343865D01*
X48545903Y-76310380D01*
X48615594Y-76315364D01*
X48671528Y-76357235D01*
X48682742Y-76375246D01*
X48688527Y-76386599D01*
X48694358Y-76398044D01*
X48694363Y-76398050D01*
X48783949Y-76487636D01*
X48783951Y-76487637D01*
X48783955Y-76487641D01*
X48806747Y-76499254D01*
X48857542Y-76547228D01*
X48874337Y-76615049D01*
X48851799Y-76681184D01*
X48838132Y-76697419D01*
X48296526Y-77239025D01*
X48296526Y-77239026D01*
X48369512Y-77290131D01*
X48369516Y-77290133D01*
X48575673Y-77386265D01*
X48575682Y-77386269D01*
X48795389Y-77445139D01*
X48795400Y-77445141D01*
X49021998Y-77464966D01*
X49022002Y-77464966D01*
X49248599Y-77445141D01*
X49248610Y-77445139D01*
X49468317Y-77386269D01*
X49468331Y-77386264D01*
X49674478Y-77290136D01*
X49747472Y-77239025D01*
X49205866Y-76697419D01*
X49172381Y-76636096D01*
X49177365Y-76566404D01*
X49219237Y-76510471D01*
X49237245Y-76499258D01*
X49260045Y-76487641D01*
X49349641Y-76398045D01*
X49361254Y-76375252D01*
X49409225Y-76324458D01*
X49477046Y-76307661D01*
X49543181Y-76330197D01*
X49559419Y-76343866D01*
X50101025Y-76885472D01*
X50152136Y-76812478D01*
X50248264Y-76606331D01*
X50248269Y-76606317D01*
X50307139Y-76386610D01*
X50307141Y-76386599D01*
X50326966Y-76160002D01*
X50326966Y-76159997D01*
X50307141Y-75933400D01*
X50307139Y-75933389D01*
X50248269Y-75713682D01*
X50248265Y-75713673D01*
X50152133Y-75507516D01*
X50152131Y-75507512D01*
X50101026Y-75434526D01*
X50101025Y-75434526D01*
X49559419Y-75976132D01*
X49498096Y-76009617D01*
X49428404Y-76004633D01*
X49372471Y-75962761D01*
X49361256Y-75944751D01*
X49349641Y-75921955D01*
X49349637Y-75921951D01*
X49349636Y-75921949D01*
X49260050Y-75832363D01*
X49260044Y-75832358D01*
X49250109Y-75827296D01*
X49237250Y-75820744D01*
X49186456Y-75772773D01*
X49169660Y-75704952D01*
X49192197Y-75638817D01*
X49205865Y-75622580D01*
X49747472Y-75080973D01*
X49674483Y-75029866D01*
X49674481Y-75029865D01*
X49468326Y-74933734D01*
X49468317Y-74933730D01*
X49454400Y-74930001D01*
X55836502Y-74930001D01*
X55856456Y-75158081D01*
X55856457Y-75158089D01*
X55915714Y-75379238D01*
X55915718Y-75379249D01*
X55944315Y-75440575D01*
X56012477Y-75586749D01*
X56143802Y-75774300D01*
X56305700Y-75936198D01*
X56493251Y-76067523D01*
X56618091Y-76125736D01*
X56700750Y-76164281D01*
X56700752Y-76164281D01*
X56700757Y-76164284D01*
X56921913Y-76223543D01*
X57084832Y-76237796D01*
X57149998Y-76243498D01*
X57150000Y-76243498D01*
X57150002Y-76243498D01*
X57207021Y-76238509D01*
X57378087Y-76223543D01*
X57599243Y-76164284D01*
X57806749Y-76067523D01*
X57994300Y-75936198D01*
X58156198Y-75774300D01*
X58287523Y-75586749D01*
X58384284Y-75379243D01*
X58443543Y-75158087D01*
X58463498Y-74930000D01*
X58443543Y-74701913D01*
X58437671Y-74679999D01*
X66031127Y-74679999D01*
X66031128Y-74680000D01*
X66799424Y-74680000D01*
X66866463Y-74699685D01*
X66912218Y-74752489D01*
X66922162Y-74821647D01*
X66921897Y-74823397D01*
X66905014Y-74929996D01*
X66905014Y-74930003D01*
X66921897Y-75036603D01*
X66912942Y-75105896D01*
X66867946Y-75159348D01*
X66801194Y-75179987D01*
X66799424Y-75180000D01*
X66031128Y-75180000D01*
X66083730Y-75376317D01*
X66083734Y-75376326D01*
X66179865Y-75582482D01*
X66310342Y-75768820D01*
X66471179Y-75929657D01*
X66657517Y-76060134D01*
X66863673Y-76156265D01*
X66863682Y-76156269D01*
X67059999Y-76208872D01*
X67060000Y-76208871D01*
X67060000Y-75440575D01*
X67079685Y-75373536D01*
X67132489Y-75327781D01*
X67201647Y-75317837D01*
X67203331Y-75318091D01*
X67235699Y-75323218D01*
X67278515Y-75330000D01*
X67278519Y-75330000D01*
X67341485Y-75330000D01*
X67384300Y-75323218D01*
X67416602Y-75318102D01*
X67485894Y-75327056D01*
X67539347Y-75372052D01*
X67559987Y-75438803D01*
X67560000Y-75440575D01*
X67560000Y-76208872D01*
X67756317Y-76156269D01*
X67756326Y-76156265D01*
X67962482Y-76060134D01*
X68148820Y-75929657D01*
X68309657Y-75768820D01*
X68440134Y-75582482D01*
X68536265Y-75376326D01*
X68536269Y-75376317D01*
X68588872Y-75180000D01*
X67820576Y-75180000D01*
X67753537Y-75160315D01*
X67707782Y-75107511D01*
X67697838Y-75038353D01*
X67698103Y-75036603D01*
X67714986Y-74930003D01*
X67714986Y-74929996D01*
X67698103Y-74823397D01*
X67707058Y-74754104D01*
X67752054Y-74700652D01*
X67818806Y-74680013D01*
X67820576Y-74680000D01*
X68588872Y-74680000D01*
X68588872Y-74679999D01*
X68536269Y-74483682D01*
X68536265Y-74483673D01*
X68440134Y-74277517D01*
X68309657Y-74091179D01*
X68148820Y-73930342D01*
X67962482Y-73799865D01*
X67756328Y-73703734D01*
X67560000Y-73651127D01*
X67560000Y-74419424D01*
X67540315Y-74486463D01*
X67487511Y-74532218D01*
X67418353Y-74542162D01*
X67416602Y-74541897D01*
X67341486Y-74530000D01*
X67341481Y-74530000D01*
X67278519Y-74530000D01*
X67278514Y-74530000D01*
X67203398Y-74541897D01*
X67134104Y-74532942D01*
X67080652Y-74487946D01*
X67060013Y-74421194D01*
X67060000Y-74419424D01*
X67060000Y-73651127D01*
X66863671Y-73703734D01*
X66657517Y-73799865D01*
X66471179Y-73930342D01*
X66310342Y-74091179D01*
X66179865Y-74277517D01*
X66083734Y-74483673D01*
X66083730Y-74483682D01*
X66031127Y-74679999D01*
X58437671Y-74679999D01*
X58384284Y-74480757D01*
X58356509Y-74421194D01*
X58287524Y-74273254D01*
X58287523Y-74273252D01*
X58287523Y-74273251D01*
X58156198Y-74085700D01*
X57994300Y-73923802D01*
X57806749Y-73792477D01*
X57806745Y-73792475D01*
X57599249Y-73695718D01*
X57599238Y-73695714D01*
X57378089Y-73636457D01*
X57378081Y-73636456D01*
X57150002Y-73616502D01*
X57149998Y-73616502D01*
X56921918Y-73636456D01*
X56921910Y-73636457D01*
X56700761Y-73695714D01*
X56700750Y-73695718D01*
X56493254Y-73792475D01*
X56493252Y-73792476D01*
X56493249Y-73792477D01*
X56493251Y-73792477D01*
X56305700Y-73923802D01*
X56305698Y-73923803D01*
X56305695Y-73923806D01*
X56143806Y-74085695D01*
X56012476Y-74273252D01*
X56012475Y-74273254D01*
X55915718Y-74480750D01*
X55915714Y-74480761D01*
X55856457Y-74701910D01*
X55856456Y-74701918D01*
X55836502Y-74929998D01*
X55836502Y-74930001D01*
X49454400Y-74930001D01*
X49248610Y-74874860D01*
X49248599Y-74874858D01*
X49022002Y-74855034D01*
X49021998Y-74855034D01*
X48795400Y-74874858D01*
X48795389Y-74874860D01*
X48575682Y-74933730D01*
X48575673Y-74933734D01*
X48369513Y-75029868D01*
X48296526Y-75080973D01*
X48838133Y-75622580D01*
X48871618Y-75683903D01*
X48866634Y-75753595D01*
X48824762Y-75809528D01*
X48806748Y-75820745D01*
X48783956Y-75832358D01*
X48783949Y-75832363D01*
X48694363Y-75921949D01*
X48694358Y-75921956D01*
X48682745Y-75944748D01*
X48634770Y-75995544D01*
X48566949Y-76012338D01*
X48500814Y-75989800D01*
X48484580Y-75976133D01*
X47942973Y-75434526D01*
X47891868Y-75507513D01*
X47795734Y-75713673D01*
X47795730Y-75713682D01*
X47736860Y-75933389D01*
X47736858Y-75933400D01*
X47717034Y-76159997D01*
X47717034Y-76160002D01*
X39497000Y-76160002D01*
X39497000Y-71160001D01*
X47708502Y-71160001D01*
X47728456Y-71388081D01*
X47728457Y-71388089D01*
X47787714Y-71609238D01*
X47787718Y-71609249D01*
X47863835Y-71772482D01*
X47884477Y-71816749D01*
X48015802Y-72004300D01*
X48177700Y-72166198D01*
X48365251Y-72297523D01*
X48469779Y-72346265D01*
X48572750Y-72394281D01*
X48572752Y-72394281D01*
X48572757Y-72394284D01*
X48793913Y-72453543D01*
X48956832Y-72467796D01*
X49021998Y-72473498D01*
X49022000Y-72473498D01*
X49022002Y-72473498D01*
X49079021Y-72468509D01*
X49250087Y-72453543D01*
X49471243Y-72394284D01*
X49678749Y-72297523D01*
X49866300Y-72166198D01*
X50028198Y-72004300D01*
X50159523Y-71816749D01*
X50256284Y-71609243D01*
X50315543Y-71388087D01*
X50335498Y-71160000D01*
X50331998Y-71120001D01*
X55836502Y-71120001D01*
X55856456Y-71348081D01*
X55856457Y-71348089D01*
X55915714Y-71569238D01*
X55915718Y-71569249D01*
X55944315Y-71630575D01*
X56012477Y-71776749D01*
X56143802Y-71964300D01*
X56305700Y-72126198D01*
X56493251Y-72257523D01*
X56579032Y-72297523D01*
X56700750Y-72354281D01*
X56700752Y-72354281D01*
X56700757Y-72354284D01*
X56921913Y-72413543D01*
X57084832Y-72427796D01*
X57149998Y-72433498D01*
X57150000Y-72433498D01*
X57150002Y-72433498D01*
X57207021Y-72428509D01*
X57378087Y-72413543D01*
X57599243Y-72354284D01*
X57806749Y-72257523D01*
X57994300Y-72126198D01*
X58156198Y-71964300D01*
X58287523Y-71776749D01*
X58384284Y-71569243D01*
X58443543Y-71348087D01*
X58463498Y-71120000D01*
X58443543Y-70891913D01*
X58437671Y-70869999D01*
X66031127Y-70869999D01*
X66031128Y-70870000D01*
X66799424Y-70870000D01*
X66866463Y-70889685D01*
X66912218Y-70942489D01*
X66922162Y-71011647D01*
X66921897Y-71013397D01*
X66905014Y-71119996D01*
X66905014Y-71120003D01*
X66921897Y-71226603D01*
X66912942Y-71295896D01*
X66867946Y-71349348D01*
X66801194Y-71369987D01*
X66799424Y-71370000D01*
X66031128Y-71370000D01*
X66083730Y-71566317D01*
X66083734Y-71566326D01*
X66179865Y-71772482D01*
X66310342Y-71958820D01*
X66471179Y-72119657D01*
X66657517Y-72250134D01*
X66863673Y-72346265D01*
X66863682Y-72346269D01*
X67059999Y-72398872D01*
X67060000Y-72398871D01*
X67060000Y-71630575D01*
X67079685Y-71563536D01*
X67132489Y-71517781D01*
X67201647Y-71507837D01*
X67203331Y-71508091D01*
X67235699Y-71513218D01*
X67278515Y-71520000D01*
X67278519Y-71520000D01*
X67341485Y-71520000D01*
X67384300Y-71513218D01*
X67416602Y-71508102D01*
X67485894Y-71517056D01*
X67539347Y-71562052D01*
X67559987Y-71628803D01*
X67560000Y-71630575D01*
X67560000Y-72398872D01*
X67756317Y-72346269D01*
X67756326Y-72346265D01*
X67962482Y-72250134D01*
X68148820Y-72119657D01*
X68309657Y-71958820D01*
X68440134Y-71772482D01*
X68536265Y-71566326D01*
X68536269Y-71566317D01*
X68588872Y-71370000D01*
X67820576Y-71370000D01*
X67753537Y-71350315D01*
X67707782Y-71297511D01*
X67697838Y-71228353D01*
X67698103Y-71226603D01*
X67714986Y-71120003D01*
X67714986Y-71119996D01*
X67698103Y-71013397D01*
X67707058Y-70944104D01*
X67752054Y-70890652D01*
X67818806Y-70870013D01*
X67820576Y-70870000D01*
X68588872Y-70870000D01*
X68588872Y-70869999D01*
X68536269Y-70673682D01*
X68536265Y-70673673D01*
X68440134Y-70467517D01*
X68309657Y-70281179D01*
X68148820Y-70120342D01*
X67962482Y-69989865D01*
X67756328Y-69893734D01*
X67560000Y-69841127D01*
X67560000Y-70609424D01*
X67540315Y-70676463D01*
X67487511Y-70722218D01*
X67418353Y-70732162D01*
X67416602Y-70731897D01*
X67341486Y-70720000D01*
X67341481Y-70720000D01*
X67278519Y-70720000D01*
X67278514Y-70720000D01*
X67203398Y-70731897D01*
X67134104Y-70722942D01*
X67080652Y-70677946D01*
X67060013Y-70611194D01*
X67060000Y-70609424D01*
X67060000Y-69841127D01*
X66863671Y-69893734D01*
X66657517Y-69989865D01*
X66471179Y-70120342D01*
X66310342Y-70281179D01*
X66179865Y-70467517D01*
X66083734Y-70673673D01*
X66083730Y-70673682D01*
X66031127Y-70869999D01*
X58437671Y-70869999D01*
X58384284Y-70670757D01*
X58356509Y-70611194D01*
X58345736Y-70588091D01*
X58287523Y-70463251D01*
X58156198Y-70275700D01*
X57994300Y-70113802D01*
X57806749Y-69982477D01*
X57806745Y-69982475D01*
X57599249Y-69885718D01*
X57599238Y-69885714D01*
X57378089Y-69826457D01*
X57378081Y-69826456D01*
X57150002Y-69806502D01*
X57149998Y-69806502D01*
X56921918Y-69826456D01*
X56921910Y-69826457D01*
X56700761Y-69885714D01*
X56700750Y-69885718D01*
X56493254Y-69982475D01*
X56493252Y-69982476D01*
X56493249Y-69982477D01*
X56493251Y-69982477D01*
X56305700Y-70113802D01*
X56305698Y-70113803D01*
X56305695Y-70113806D01*
X56143806Y-70275695D01*
X56012476Y-70463252D01*
X56012475Y-70463254D01*
X55915718Y-70670750D01*
X55915714Y-70670761D01*
X55856457Y-70891910D01*
X55856456Y-70891918D01*
X55836502Y-71119998D01*
X55836502Y-71120001D01*
X50331998Y-71120001D01*
X50331998Y-71120000D01*
X50321049Y-70994852D01*
X50315543Y-70931913D01*
X50256284Y-70710757D01*
X50159523Y-70503251D01*
X50028198Y-70315700D01*
X49866300Y-70153802D01*
X49678749Y-70022477D01*
X49678745Y-70022475D01*
X49471249Y-69925718D01*
X49471238Y-69925714D01*
X49250089Y-69866457D01*
X49250081Y-69866456D01*
X49022002Y-69846502D01*
X49021998Y-69846502D01*
X48793918Y-69866456D01*
X48793910Y-69866457D01*
X48572761Y-69925714D01*
X48572750Y-69925718D01*
X48365254Y-70022475D01*
X48365252Y-70022476D01*
X48305186Y-70064535D01*
X48177700Y-70153802D01*
X48177698Y-70153803D01*
X48177695Y-70153806D01*
X48015806Y-70315695D01*
X47884476Y-70503252D01*
X47884475Y-70503254D01*
X47787718Y-70710750D01*
X47787714Y-70710761D01*
X47728457Y-70931910D01*
X47728456Y-70931918D01*
X47708502Y-71159998D01*
X47708502Y-71160001D01*
X39497000Y-71160001D01*
X39497000Y-69590000D01*
X39919529Y-69590000D01*
X39982685Y-69760527D01*
X39982687Y-69760531D01*
X40084892Y-69924503D01*
X40218002Y-70064534D01*
X40218003Y-70064535D01*
X40376586Y-70174913D01*
X40554137Y-70251106D01*
X40743394Y-70290000D01*
X40990000Y-70290000D01*
X40990000Y-69764000D01*
X41009685Y-69696961D01*
X41062489Y-69651206D01*
X41114000Y-69640000D01*
X41366000Y-69640000D01*
X41433039Y-69659685D01*
X41478794Y-69712489D01*
X41490000Y-69764000D01*
X41490000Y-70290000D01*
X41688176Y-70290000D01*
X41832221Y-70275352D01*
X42016561Y-70217515D01*
X42016571Y-70217510D01*
X42185498Y-70123748D01*
X42185505Y-70123743D01*
X42332105Y-69997892D01*
X42450368Y-69845109D01*
X42450370Y-69845105D01*
X42535457Y-69671643D01*
X42556596Y-69590000D01*
X43569529Y-69590000D01*
X43632685Y-69760527D01*
X43632687Y-69760531D01*
X43734892Y-69924503D01*
X43868002Y-70064534D01*
X43868003Y-70064535D01*
X44026586Y-70174913D01*
X44204137Y-70251106D01*
X44393394Y-70290000D01*
X44790000Y-70290000D01*
X44790000Y-69764000D01*
X44809685Y-69696961D01*
X44862489Y-69651206D01*
X44914000Y-69640000D01*
X45166000Y-69640000D01*
X45233039Y-69659685D01*
X45278794Y-69712489D01*
X45290000Y-69764000D01*
X45290000Y-70290000D01*
X45638176Y-70290000D01*
X45782221Y-70275352D01*
X45966561Y-70217515D01*
X45966571Y-70217510D01*
X46135498Y-70123748D01*
X46135505Y-70123743D01*
X46282105Y-69997892D01*
X46400368Y-69845109D01*
X46400370Y-69845105D01*
X46485457Y-69671643D01*
X46506596Y-69590000D01*
X45994979Y-69590000D01*
X45927940Y-69570315D01*
X45882185Y-69517511D01*
X45872241Y-69448353D01*
X45875713Y-69432066D01*
X45893894Y-69368162D01*
X45893895Y-69368160D01*
X45883546Y-69256482D01*
X45883546Y-69256479D01*
X45883544Y-69256475D01*
X45881115Y-69247937D01*
X45881701Y-69178070D01*
X45919966Y-69119610D01*
X45983763Y-69091119D01*
X46000381Y-69090000D01*
X46510471Y-69090000D01*
X46447314Y-68919472D01*
X46447312Y-68919468D01*
X46345107Y-68755496D01*
X46211997Y-68615465D01*
X46211996Y-68615464D01*
X46053413Y-68505086D01*
X45875862Y-68428893D01*
X45686606Y-68390000D01*
X45290000Y-68390000D01*
X45290000Y-68916000D01*
X45270315Y-68983039D01*
X45217511Y-69028794D01*
X45166000Y-69040000D01*
X44914000Y-69040000D01*
X44846961Y-69020315D01*
X44801206Y-68967511D01*
X44790000Y-68916000D01*
X44790000Y-68390000D01*
X44441824Y-68390000D01*
X44297778Y-68404647D01*
X44113438Y-68462484D01*
X44113428Y-68462489D01*
X43944501Y-68556251D01*
X43944494Y-68556256D01*
X43797894Y-68682107D01*
X43679631Y-68834890D01*
X43679629Y-68834894D01*
X43594542Y-69008356D01*
X43573404Y-69090000D01*
X44085021Y-69090000D01*
X44152060Y-69109685D01*
X44197815Y-69162489D01*
X44207759Y-69231647D01*
X44204287Y-69247934D01*
X44186105Y-69311837D01*
X44186104Y-69311837D01*
X44196453Y-69423517D01*
X44198885Y-69432063D01*
X44198299Y-69501930D01*
X44160034Y-69560390D01*
X44096237Y-69588881D01*
X44079619Y-69590000D01*
X43569529Y-69590000D01*
X42556596Y-69590000D01*
X42044979Y-69590000D01*
X41977940Y-69570315D01*
X41932185Y-69517511D01*
X41922241Y-69448353D01*
X41925713Y-69432066D01*
X41943894Y-69368162D01*
X41943895Y-69368160D01*
X41933546Y-69256482D01*
X41933546Y-69256479D01*
X41933544Y-69256475D01*
X41931115Y-69247937D01*
X41931701Y-69178070D01*
X41969966Y-69119610D01*
X42033763Y-69091119D01*
X42050381Y-69090000D01*
X42560471Y-69090000D01*
X42497314Y-68919472D01*
X42497312Y-68919468D01*
X42395107Y-68755496D01*
X42261997Y-68615465D01*
X42261996Y-68615464D01*
X42103413Y-68505086D01*
X41925862Y-68428893D01*
X41736606Y-68390000D01*
X41490000Y-68390000D01*
X41490000Y-68916000D01*
X41470315Y-68983039D01*
X41417511Y-69028794D01*
X41366000Y-69040000D01*
X41114000Y-69040000D01*
X41046961Y-69020315D01*
X41001206Y-68967511D01*
X40990000Y-68916000D01*
X40990000Y-68390000D01*
X40791824Y-68390000D01*
X40647778Y-68404647D01*
X40463438Y-68462484D01*
X40463428Y-68462489D01*
X40294501Y-68556251D01*
X40294494Y-68556256D01*
X40147894Y-68682107D01*
X40029631Y-68834890D01*
X40029629Y-68834894D01*
X39944542Y-69008356D01*
X39923404Y-69090000D01*
X40435021Y-69090000D01*
X40502060Y-69109685D01*
X40547815Y-69162489D01*
X40557759Y-69231647D01*
X40554287Y-69247934D01*
X40536105Y-69311837D01*
X40536104Y-69311837D01*
X40546453Y-69423517D01*
X40548885Y-69432063D01*
X40548299Y-69501930D01*
X40510034Y-69560390D01*
X40446237Y-69588881D01*
X40429619Y-69590000D01*
X39919529Y-69590000D01*
X39497000Y-69590000D01*
X39497000Y-68259000D01*
X39516685Y-68191961D01*
X39569489Y-68146206D01*
X39621000Y-68135000D01*
X94872000Y-68135000D01*
X94939039Y-68154685D01*
G37*
%TD.AperFunction*%
%TD*%
M02*
