%TF.GenerationSoftware,KiCad,Pcbnew,7.0.7*%
%TF.CreationDate,2023-09-21T14:13:34-05:00*%
%TF.ProjectId,iowa-rover,696f7761-2d72-46f7-9665-722e6b696361,rev?*%
%TF.SameCoordinates,Original*%
%TF.FileFunction,Soldermask,Top*%
%TF.FilePolarity,Negative*%
%FSLAX46Y46*%
G04 Gerber Fmt 4.6, Leading zero omitted, Abs format (unit mm)*
G04 Created by KiCad (PCBNEW 7.0.7) date 2023-09-21 14:13:34*
%MOMM*%
%LPD*%
G01*
G04 APERTURE LIST*
%ADD10C,1.524000*%
%ADD11C,2.500000*%
%ADD12R,1.000000X0.700000*%
%ADD13R,1.000000X0.800000*%
%ADD14O,1.700000X0.900000*%
%ADD15O,2.000000X0.900000*%
%ADD16O,1.600000X1.600000*%
%ADD17C,1.600000*%
%ADD18R,3.000000X3.000000*%
%ADD19C,3.000000*%
G04 APERTURE END LIST*
D10*
%TO.C,U3*%
X71120000Y-106680000D03*
X71120000Y-104140000D03*
X71120000Y-101600000D03*
X71120000Y-99060000D03*
X71120000Y-96520000D03*
X71120000Y-93980000D03*
X71120000Y-91440000D03*
X71120000Y-88900000D03*
X71120000Y-86360000D03*
X71120000Y-83820000D03*
X55880000Y-88900000D03*
X55880000Y-91440000D03*
X55880000Y-93980000D03*
X55880000Y-96520000D03*
X55880000Y-99060000D03*
X55880000Y-101600000D03*
%TD*%
D11*
%TO.C,REF\u002A\u002A*%
X43000000Y-64500000D03*
%TD*%
%TO.C,REF\u002A\u002A*%
X91000000Y-64500000D03*
%TD*%
%TO.C,REF\u002A\u002A*%
X91000000Y-153000000D03*
%TD*%
%TO.C,REF\u002A\u002A*%
X43000000Y-153000000D03*
%TD*%
D12*
%TO.C,J1*%
X45090000Y-73160000D03*
D13*
X45090000Y-75160000D03*
X45090000Y-76360000D03*
D12*
X45090000Y-74160000D03*
D13*
X45090000Y-72160000D03*
X45090000Y-70960000D03*
D14*
X41240000Y-69340000D03*
X41240000Y-77980000D03*
D15*
X45040000Y-77980000D03*
X45040000Y-69340000D03*
%TD*%
D10*
%TO.C,U2*%
X68580000Y-144780000D03*
X68580000Y-142240000D03*
X68580000Y-139700000D03*
X68580000Y-137160000D03*
X68580000Y-134620000D03*
X68580000Y-132080000D03*
X68580000Y-129540000D03*
X68580000Y-127000000D03*
X68580000Y-124460000D03*
X43180000Y-144780000D03*
X43180000Y-142240000D03*
X43180000Y-139700000D03*
X43180000Y-137160000D03*
X43180000Y-134620000D03*
%TD*%
D16*
%TO.C,R2*%
X67310000Y-74930000D03*
D17*
X57150000Y-74930000D03*
%TD*%
D18*
%TO.C,J2*%
X44450000Y-82550000D03*
D19*
X44450000Y-87630000D03*
%TD*%
D10*
%TO.C,RV1*%
X81280000Y-88400000D03*
X83820000Y-88400000D03*
X86360000Y-88400000D03*
%TD*%
%TO.C,U1*%
X91440000Y-106680000D03*
X91440000Y-109220000D03*
X91440000Y-111760000D03*
X91440000Y-114300000D03*
X91440000Y-116840000D03*
X91440000Y-119380000D03*
X91440000Y-121920000D03*
X91440000Y-124460000D03*
X91440000Y-127000000D03*
X91440000Y-129540000D03*
X91440000Y-132080000D03*
X91440000Y-134620000D03*
X91440000Y-137160000D03*
X91440000Y-139700000D03*
X76200000Y-139700000D03*
X76200000Y-137160000D03*
X76200000Y-134620000D03*
X76200000Y-132080000D03*
X76200000Y-129540000D03*
X76200000Y-127000000D03*
X76200000Y-124460000D03*
X76200000Y-121920000D03*
X76200000Y-119380000D03*
X76200000Y-116840000D03*
X76200000Y-114300000D03*
X76200000Y-111760000D03*
X76200000Y-109220000D03*
X76200000Y-106680000D03*
%TD*%
D16*
%TO.C,R1*%
X67310000Y-71120000D03*
D17*
X57150000Y-71120000D03*
%TD*%
%TO.C,C1*%
X49022000Y-71160000D03*
X49022000Y-76160000D03*
%TD*%
D19*
%TO.C,J3*%
X44450000Y-100330000D03*
D18*
X44450000Y-95250000D03*
%TD*%
M02*
