M48
; DRILL file {KiCad 7.0.7} date Mon Oct  2 11:40:03 2023
; FORMAT={-:-/ absolute / metric / decimal}
; #@! TF.CreationDate,2023-10-02T11:40:03-05:00
; #@! TF.GenerationSoftware,Kicad,Pcbnew,7.0.7
; #@! TF.FileFunction,Plated,1,4,PTH
FMAT,2
METRIC
; #@! TA.AperFunction,Plated,PTH,ComponentDrill
T1C0.600
; #@! TA.AperFunction,Plated,PTH,ComponentDrill
T2C0.762
; #@! TA.AperFunction,Plated,PTH,ComponentDrill
T3C0.800
; #@! TA.AperFunction,Plated,PTH,ComponentDrill
T4C1.000
; #@! TA.AperFunction,Plated,PTH,ComponentDrill
T5C1.520
%
G90
G05
T2
X43.18Y-134.62
X43.18Y-137.16
X43.18Y-139.7
X43.18Y-142.24
X43.18Y-144.78
X55.88Y-88.9
X55.88Y-91.44
X55.88Y-93.98
X55.88Y-96.52
X55.88Y-99.06
X55.88Y-101.6
X68.58Y-124.46
X68.58Y-127.0
X68.58Y-129.54
X68.58Y-132.08
X68.58Y-134.62
X68.58Y-137.16
X68.58Y-139.7
X68.58Y-142.24
X68.58Y-144.78
X71.12Y-83.82
X71.12Y-86.36
X71.12Y-88.9
X71.12Y-91.44
X71.12Y-93.98
X71.12Y-96.52
X71.12Y-99.06
X71.12Y-101.6
X71.12Y-104.14
X71.12Y-106.68
X76.2Y-106.68
X76.2Y-109.22
X76.2Y-111.76
X76.2Y-114.3
X76.2Y-116.84
X76.2Y-119.38
X76.2Y-121.92
X76.2Y-124.46
X76.2Y-127.0
X76.2Y-129.54
X76.2Y-132.08
X76.2Y-134.62
X76.2Y-137.16
X76.2Y-139.7
X81.28Y-88.4
X83.82Y-88.4
X86.36Y-88.4
X91.44Y-106.68
X91.44Y-109.22
X91.44Y-111.76
X91.44Y-114.3
X91.44Y-116.84
X91.44Y-119.38
X91.44Y-121.92
X91.44Y-124.46
X91.44Y-127.0
X91.44Y-129.54
X91.44Y-132.08
X91.44Y-134.62
X91.44Y-137.16
X91.44Y-139.7
T3
X49.022Y-71.16
X49.022Y-76.16
X57.15Y-71.12
X57.15Y-74.93
X67.31Y-71.12
X67.31Y-74.93
T4
X62.865Y-114.3
X65.405Y-114.3
X67.945Y-114.3
T5
X44.45Y-82.55
X44.45Y-87.63
X44.45Y-95.25
X44.45Y-100.33
T1
X40.84Y-69.34G85X41.64Y-69.34
G05
X40.84Y-77.98G85X41.64Y-77.98
G05
X44.49Y-69.34G85X45.59Y-69.34
G05
X44.49Y-77.98G85X45.59Y-77.98
G05
T0
M30
