%TF.GenerationSoftware,KiCad,Pcbnew,7.0.7*%
%TF.CreationDate,2023-09-21T14:13:34-05:00*%
%TF.ProjectId,iowa-rover,696f7761-2d72-46f7-9665-722e6b696361,rev?*%
%TF.SameCoordinates,Original*%
%TF.FileFunction,Legend,Top*%
%TF.FilePolarity,Positive*%
%FSLAX46Y46*%
G04 Gerber Fmt 4.6, Leading zero omitted, Abs format (unit mm)*
G04 Created by KiCad (PCBNEW 7.0.7) date 2023-09-21 14:13:34*
%MOMM*%
%LPD*%
G01*
G04 APERTURE LIST*
%ADD10C,0.150000*%
%ADD11C,0.120000*%
%ADD12C,1.524000*%
%ADD13C,2.500000*%
%ADD14R,1.000000X0.700000*%
%ADD15R,1.000000X0.800000*%
%ADD16O,1.700000X0.900000*%
%ADD17O,2.000000X0.900000*%
%ADD18O,1.600000X1.600000*%
%ADD19C,1.600000*%
%ADD20R,3.000000X3.000000*%
%ADD21C,3.000000*%
G04 APERTURE END LIST*
D10*
X49168207Y-64639819D02*
X48834874Y-64163628D01*
X48596779Y-64639819D02*
X48596779Y-63639819D01*
X48596779Y-63639819D02*
X48977731Y-63639819D01*
X48977731Y-63639819D02*
X49072969Y-63687438D01*
X49072969Y-63687438D02*
X49120588Y-63735057D01*
X49120588Y-63735057D02*
X49168207Y-63830295D01*
X49168207Y-63830295D02*
X49168207Y-63973152D01*
X49168207Y-63973152D02*
X49120588Y-64068390D01*
X49120588Y-64068390D02*
X49072969Y-64116009D01*
X49072969Y-64116009D02*
X48977731Y-64163628D01*
X48977731Y-64163628D02*
X48596779Y-64163628D01*
X49739636Y-64639819D02*
X49644398Y-64592200D01*
X49644398Y-64592200D02*
X49596779Y-64544580D01*
X49596779Y-64544580D02*
X49549160Y-64449342D01*
X49549160Y-64449342D02*
X49549160Y-64163628D01*
X49549160Y-64163628D02*
X49596779Y-64068390D01*
X49596779Y-64068390D02*
X49644398Y-64020771D01*
X49644398Y-64020771D02*
X49739636Y-63973152D01*
X49739636Y-63973152D02*
X49882493Y-63973152D01*
X49882493Y-63973152D02*
X49977731Y-64020771D01*
X49977731Y-64020771D02*
X50025350Y-64068390D01*
X50025350Y-64068390D02*
X50072969Y-64163628D01*
X50072969Y-64163628D02*
X50072969Y-64449342D01*
X50072969Y-64449342D02*
X50025350Y-64544580D01*
X50025350Y-64544580D02*
X49977731Y-64592200D01*
X49977731Y-64592200D02*
X49882493Y-64639819D01*
X49882493Y-64639819D02*
X49739636Y-64639819D01*
X50406303Y-63973152D02*
X50644398Y-64639819D01*
X50644398Y-64639819D02*
X50882493Y-63973152D01*
X51644398Y-64592200D02*
X51549160Y-64639819D01*
X51549160Y-64639819D02*
X51358684Y-64639819D01*
X51358684Y-64639819D02*
X51263446Y-64592200D01*
X51263446Y-64592200D02*
X51215827Y-64496961D01*
X51215827Y-64496961D02*
X51215827Y-64116009D01*
X51215827Y-64116009D02*
X51263446Y-64020771D01*
X51263446Y-64020771D02*
X51358684Y-63973152D01*
X51358684Y-63973152D02*
X51549160Y-63973152D01*
X51549160Y-63973152D02*
X51644398Y-64020771D01*
X51644398Y-64020771D02*
X51692017Y-64116009D01*
X51692017Y-64116009D02*
X51692017Y-64211247D01*
X51692017Y-64211247D02*
X51215827Y-64306485D01*
X52120589Y-64639819D02*
X52120589Y-63973152D01*
X52120589Y-64163628D02*
X52168208Y-64068390D01*
X52168208Y-64068390D02*
X52215827Y-64020771D01*
X52215827Y-64020771D02*
X52311065Y-63973152D01*
X52311065Y-63973152D02*
X52406303Y-63973152D01*
X54072970Y-64544580D02*
X54025351Y-64592200D01*
X54025351Y-64592200D02*
X53882494Y-64639819D01*
X53882494Y-64639819D02*
X53787256Y-64639819D01*
X53787256Y-64639819D02*
X53644399Y-64592200D01*
X53644399Y-64592200D02*
X53549161Y-64496961D01*
X53549161Y-64496961D02*
X53501542Y-64401723D01*
X53501542Y-64401723D02*
X53453923Y-64211247D01*
X53453923Y-64211247D02*
X53453923Y-64068390D01*
X53453923Y-64068390D02*
X53501542Y-63877914D01*
X53501542Y-63877914D02*
X53549161Y-63782676D01*
X53549161Y-63782676D02*
X53644399Y-63687438D01*
X53644399Y-63687438D02*
X53787256Y-63639819D01*
X53787256Y-63639819D02*
X53882494Y-63639819D01*
X53882494Y-63639819D02*
X54025351Y-63687438D01*
X54025351Y-63687438D02*
X54072970Y-63735057D01*
X54644399Y-64639819D02*
X54549161Y-64592200D01*
X54549161Y-64592200D02*
X54501542Y-64544580D01*
X54501542Y-64544580D02*
X54453923Y-64449342D01*
X54453923Y-64449342D02*
X54453923Y-64163628D01*
X54453923Y-64163628D02*
X54501542Y-64068390D01*
X54501542Y-64068390D02*
X54549161Y-64020771D01*
X54549161Y-64020771D02*
X54644399Y-63973152D01*
X54644399Y-63973152D02*
X54787256Y-63973152D01*
X54787256Y-63973152D02*
X54882494Y-64020771D01*
X54882494Y-64020771D02*
X54930113Y-64068390D01*
X54930113Y-64068390D02*
X54977732Y-64163628D01*
X54977732Y-64163628D02*
X54977732Y-64449342D01*
X54977732Y-64449342D02*
X54930113Y-64544580D01*
X54930113Y-64544580D02*
X54882494Y-64592200D01*
X54882494Y-64592200D02*
X54787256Y-64639819D01*
X54787256Y-64639819D02*
X54644399Y-64639819D01*
X55406304Y-63973152D02*
X55406304Y-64639819D01*
X55406304Y-64068390D02*
X55453923Y-64020771D01*
X55453923Y-64020771D02*
X55549161Y-63973152D01*
X55549161Y-63973152D02*
X55692018Y-63973152D01*
X55692018Y-63973152D02*
X55787256Y-64020771D01*
X55787256Y-64020771D02*
X55834875Y-64116009D01*
X55834875Y-64116009D02*
X55834875Y-64639819D01*
X56168209Y-63973152D02*
X56549161Y-63973152D01*
X56311066Y-63639819D02*
X56311066Y-64496961D01*
X56311066Y-64496961D02*
X56358685Y-64592200D01*
X56358685Y-64592200D02*
X56453923Y-64639819D01*
X56453923Y-64639819D02*
X56549161Y-64639819D01*
X56882495Y-64639819D02*
X56882495Y-63973152D01*
X56882495Y-64163628D02*
X56930114Y-64068390D01*
X56930114Y-64068390D02*
X56977733Y-64020771D01*
X56977733Y-64020771D02*
X57072971Y-63973152D01*
X57072971Y-63973152D02*
X57168209Y-63973152D01*
X57644400Y-64639819D02*
X57549162Y-64592200D01*
X57549162Y-64592200D02*
X57501543Y-64544580D01*
X57501543Y-64544580D02*
X57453924Y-64449342D01*
X57453924Y-64449342D02*
X57453924Y-64163628D01*
X57453924Y-64163628D02*
X57501543Y-64068390D01*
X57501543Y-64068390D02*
X57549162Y-64020771D01*
X57549162Y-64020771D02*
X57644400Y-63973152D01*
X57644400Y-63973152D02*
X57787257Y-63973152D01*
X57787257Y-63973152D02*
X57882495Y-64020771D01*
X57882495Y-64020771D02*
X57930114Y-64068390D01*
X57930114Y-64068390D02*
X57977733Y-64163628D01*
X57977733Y-64163628D02*
X57977733Y-64449342D01*
X57977733Y-64449342D02*
X57930114Y-64544580D01*
X57930114Y-64544580D02*
X57882495Y-64592200D01*
X57882495Y-64592200D02*
X57787257Y-64639819D01*
X57787257Y-64639819D02*
X57644400Y-64639819D01*
X58549162Y-64639819D02*
X58453924Y-64592200D01*
X58453924Y-64592200D02*
X58406305Y-64496961D01*
X58406305Y-64496961D02*
X58406305Y-63639819D01*
X59072972Y-64639819D02*
X58977734Y-64592200D01*
X58977734Y-64592200D02*
X58930115Y-64496961D01*
X58930115Y-64496961D02*
X58930115Y-63639819D01*
X59834877Y-64592200D02*
X59739639Y-64639819D01*
X59739639Y-64639819D02*
X59549163Y-64639819D01*
X59549163Y-64639819D02*
X59453925Y-64592200D01*
X59453925Y-64592200D02*
X59406306Y-64496961D01*
X59406306Y-64496961D02*
X59406306Y-64116009D01*
X59406306Y-64116009D02*
X59453925Y-64020771D01*
X59453925Y-64020771D02*
X59549163Y-63973152D01*
X59549163Y-63973152D02*
X59739639Y-63973152D01*
X59739639Y-63973152D02*
X59834877Y-64020771D01*
X59834877Y-64020771D02*
X59882496Y-64116009D01*
X59882496Y-64116009D02*
X59882496Y-64211247D01*
X59882496Y-64211247D02*
X59406306Y-64306485D01*
X60311068Y-64639819D02*
X60311068Y-63973152D01*
X60311068Y-64163628D02*
X60358687Y-64068390D01*
X60358687Y-64068390D02*
X60406306Y-64020771D01*
X60406306Y-64020771D02*
X60501544Y-63973152D01*
X60501544Y-63973152D02*
X60596782Y-63973152D01*
X62263449Y-64639819D02*
X61930116Y-64163628D01*
X61692021Y-64639819D02*
X61692021Y-63639819D01*
X61692021Y-63639819D02*
X62072973Y-63639819D01*
X62072973Y-63639819D02*
X62168211Y-63687438D01*
X62168211Y-63687438D02*
X62215830Y-63735057D01*
X62215830Y-63735057D02*
X62263449Y-63830295D01*
X62263449Y-63830295D02*
X62263449Y-63973152D01*
X62263449Y-63973152D02*
X62215830Y-64068390D01*
X62215830Y-64068390D02*
X62168211Y-64116009D01*
X62168211Y-64116009D02*
X62072973Y-64163628D01*
X62072973Y-64163628D02*
X61692021Y-64163628D01*
X63072973Y-64592200D02*
X62977735Y-64639819D01*
X62977735Y-64639819D02*
X62787259Y-64639819D01*
X62787259Y-64639819D02*
X62692021Y-64592200D01*
X62692021Y-64592200D02*
X62644402Y-64496961D01*
X62644402Y-64496961D02*
X62644402Y-64116009D01*
X62644402Y-64116009D02*
X62692021Y-64020771D01*
X62692021Y-64020771D02*
X62787259Y-63973152D01*
X62787259Y-63973152D02*
X62977735Y-63973152D01*
X62977735Y-63973152D02*
X63072973Y-64020771D01*
X63072973Y-64020771D02*
X63120592Y-64116009D01*
X63120592Y-64116009D02*
X63120592Y-64211247D01*
X63120592Y-64211247D02*
X62644402Y-64306485D01*
X63453926Y-63973152D02*
X63692021Y-64639819D01*
X63692021Y-64639819D02*
X63930116Y-63973152D01*
X65263450Y-63639819D02*
X65358688Y-63639819D01*
X65358688Y-63639819D02*
X65453926Y-63687438D01*
X65453926Y-63687438D02*
X65501545Y-63735057D01*
X65501545Y-63735057D02*
X65549164Y-63830295D01*
X65549164Y-63830295D02*
X65596783Y-64020771D01*
X65596783Y-64020771D02*
X65596783Y-64258866D01*
X65596783Y-64258866D02*
X65549164Y-64449342D01*
X65549164Y-64449342D02*
X65501545Y-64544580D01*
X65501545Y-64544580D02*
X65453926Y-64592200D01*
X65453926Y-64592200D02*
X65358688Y-64639819D01*
X65358688Y-64639819D02*
X65263450Y-64639819D01*
X65263450Y-64639819D02*
X65168212Y-64592200D01*
X65168212Y-64592200D02*
X65120593Y-64544580D01*
X65120593Y-64544580D02*
X65072974Y-64449342D01*
X65072974Y-64449342D02*
X65025355Y-64258866D01*
X65025355Y-64258866D02*
X65025355Y-64020771D01*
X65025355Y-64020771D02*
X65072974Y-63830295D01*
X65072974Y-63830295D02*
X65120593Y-63735057D01*
X65120593Y-63735057D02*
X65168212Y-63687438D01*
X65168212Y-63687438D02*
X65263450Y-63639819D01*
X61721904Y-84365180D02*
X61721904Y-83555657D01*
X61721904Y-83555657D02*
X61674285Y-83460419D01*
X61674285Y-83460419D02*
X61626666Y-83412800D01*
X61626666Y-83412800D02*
X61531428Y-83365180D01*
X61531428Y-83365180D02*
X61340952Y-83365180D01*
X61340952Y-83365180D02*
X61245714Y-83412800D01*
X61245714Y-83412800D02*
X61198095Y-83460419D01*
X61198095Y-83460419D02*
X61150476Y-83555657D01*
X61150476Y-83555657D02*
X61150476Y-84365180D01*
X60769523Y-84365180D02*
X60150476Y-84365180D01*
X60150476Y-84365180D02*
X60483809Y-83984228D01*
X60483809Y-83984228D02*
X60340952Y-83984228D01*
X60340952Y-83984228D02*
X60245714Y-83936609D01*
X60245714Y-83936609D02*
X60198095Y-83888990D01*
X60198095Y-83888990D02*
X60150476Y-83793752D01*
X60150476Y-83793752D02*
X60150476Y-83555657D01*
X60150476Y-83555657D02*
X60198095Y-83460419D01*
X60198095Y-83460419D02*
X60245714Y-83412800D01*
X60245714Y-83412800D02*
X60340952Y-83365180D01*
X60340952Y-83365180D02*
X60626666Y-83365180D01*
X60626666Y-83365180D02*
X60721904Y-83412800D01*
X60721904Y-83412800D02*
X60769523Y-83460419D01*
X41491819Y-73993333D02*
X42206104Y-73993333D01*
X42206104Y-73993333D02*
X42348961Y-74040952D01*
X42348961Y-74040952D02*
X42444200Y-74136190D01*
X42444200Y-74136190D02*
X42491819Y-74279047D01*
X42491819Y-74279047D02*
X42491819Y-74374285D01*
X42491819Y-72993333D02*
X42491819Y-73564761D01*
X42491819Y-73279047D02*
X41491819Y-73279047D01*
X41491819Y-73279047D02*
X41634676Y-73374285D01*
X41634676Y-73374285D02*
X41729914Y-73469523D01*
X41729914Y-73469523D02*
X41777533Y-73564761D01*
X52794819Y-135381904D02*
X53604342Y-135381904D01*
X53604342Y-135381904D02*
X53699580Y-135334285D01*
X53699580Y-135334285D02*
X53747200Y-135286666D01*
X53747200Y-135286666D02*
X53794819Y-135191428D01*
X53794819Y-135191428D02*
X53794819Y-135000952D01*
X53794819Y-135000952D02*
X53747200Y-134905714D01*
X53747200Y-134905714D02*
X53699580Y-134858095D01*
X53699580Y-134858095D02*
X53604342Y-134810476D01*
X53604342Y-134810476D02*
X52794819Y-134810476D01*
X52890057Y-134381904D02*
X52842438Y-134334285D01*
X52842438Y-134334285D02*
X52794819Y-134239047D01*
X52794819Y-134239047D02*
X52794819Y-134000952D01*
X52794819Y-134000952D02*
X52842438Y-133905714D01*
X52842438Y-133905714D02*
X52890057Y-133858095D01*
X52890057Y-133858095D02*
X52985295Y-133810476D01*
X52985295Y-133810476D02*
X53080533Y-133810476D01*
X53080533Y-133810476D02*
X53223390Y-133858095D01*
X53223390Y-133858095D02*
X53794819Y-134429523D01*
X53794819Y-134429523D02*
X53794819Y-133810476D01*
X62063333Y-77924819D02*
X61730000Y-77448628D01*
X61491905Y-77924819D02*
X61491905Y-76924819D01*
X61491905Y-76924819D02*
X61872857Y-76924819D01*
X61872857Y-76924819D02*
X61968095Y-76972438D01*
X61968095Y-76972438D02*
X62015714Y-77020057D01*
X62015714Y-77020057D02*
X62063333Y-77115295D01*
X62063333Y-77115295D02*
X62063333Y-77258152D01*
X62063333Y-77258152D02*
X62015714Y-77353390D01*
X62015714Y-77353390D02*
X61968095Y-77401009D01*
X61968095Y-77401009D02*
X61872857Y-77448628D01*
X61872857Y-77448628D02*
X61491905Y-77448628D01*
X62444286Y-77020057D02*
X62491905Y-76972438D01*
X62491905Y-76972438D02*
X62587143Y-76924819D01*
X62587143Y-76924819D02*
X62825238Y-76924819D01*
X62825238Y-76924819D02*
X62920476Y-76972438D01*
X62920476Y-76972438D02*
X62968095Y-77020057D01*
X62968095Y-77020057D02*
X63015714Y-77115295D01*
X63015714Y-77115295D02*
X63015714Y-77210533D01*
X63015714Y-77210533D02*
X62968095Y-77353390D01*
X62968095Y-77353390D02*
X62396667Y-77924819D01*
X62396667Y-77924819D02*
X63015714Y-77924819D01*
X48984819Y-85423333D02*
X49699104Y-85423333D01*
X49699104Y-85423333D02*
X49841961Y-85470952D01*
X49841961Y-85470952D02*
X49937200Y-85566190D01*
X49937200Y-85566190D02*
X49984819Y-85709047D01*
X49984819Y-85709047D02*
X49984819Y-85804285D01*
X49080057Y-84994761D02*
X49032438Y-84947142D01*
X49032438Y-84947142D02*
X48984819Y-84851904D01*
X48984819Y-84851904D02*
X48984819Y-84613809D01*
X48984819Y-84613809D02*
X49032438Y-84518571D01*
X49032438Y-84518571D02*
X49080057Y-84470952D01*
X49080057Y-84470952D02*
X49175295Y-84423333D01*
X49175295Y-84423333D02*
X49270533Y-84423333D01*
X49270533Y-84423333D02*
X49413390Y-84470952D01*
X49413390Y-84470952D02*
X49984819Y-85042380D01*
X49984819Y-85042380D02*
X49984819Y-84423333D01*
X83224761Y-86314819D02*
X82891428Y-85838628D01*
X82653333Y-86314819D02*
X82653333Y-85314819D01*
X82653333Y-85314819D02*
X83034285Y-85314819D01*
X83034285Y-85314819D02*
X83129523Y-85362438D01*
X83129523Y-85362438D02*
X83177142Y-85410057D01*
X83177142Y-85410057D02*
X83224761Y-85505295D01*
X83224761Y-85505295D02*
X83224761Y-85648152D01*
X83224761Y-85648152D02*
X83177142Y-85743390D01*
X83177142Y-85743390D02*
X83129523Y-85791009D01*
X83129523Y-85791009D02*
X83034285Y-85838628D01*
X83034285Y-85838628D02*
X82653333Y-85838628D01*
X83510476Y-85314819D02*
X83843809Y-86314819D01*
X83843809Y-86314819D02*
X84177142Y-85314819D01*
X85034285Y-86314819D02*
X84462857Y-86314819D01*
X84748571Y-86314819D02*
X84748571Y-85314819D01*
X84748571Y-85314819D02*
X84653333Y-85457676D01*
X84653333Y-85457676D02*
X84558095Y-85552914D01*
X84558095Y-85552914D02*
X84462857Y-85600533D01*
X83185095Y-103975819D02*
X83185095Y-104785342D01*
X83185095Y-104785342D02*
X83232714Y-104880580D01*
X83232714Y-104880580D02*
X83280333Y-104928200D01*
X83280333Y-104928200D02*
X83375571Y-104975819D01*
X83375571Y-104975819D02*
X83566047Y-104975819D01*
X83566047Y-104975819D02*
X83661285Y-104928200D01*
X83661285Y-104928200D02*
X83708904Y-104880580D01*
X83708904Y-104880580D02*
X83756523Y-104785342D01*
X83756523Y-104785342D02*
X83756523Y-103975819D01*
X84756523Y-104975819D02*
X84185095Y-104975819D01*
X84470809Y-104975819D02*
X84470809Y-103975819D01*
X84470809Y-103975819D02*
X84375571Y-104118676D01*
X84375571Y-104118676D02*
X84280333Y-104213914D01*
X84280333Y-104213914D02*
X84185095Y-104261533D01*
X62063333Y-69034819D02*
X61730000Y-68558628D01*
X61491905Y-69034819D02*
X61491905Y-68034819D01*
X61491905Y-68034819D02*
X61872857Y-68034819D01*
X61872857Y-68034819D02*
X61968095Y-68082438D01*
X61968095Y-68082438D02*
X62015714Y-68130057D01*
X62015714Y-68130057D02*
X62063333Y-68225295D01*
X62063333Y-68225295D02*
X62063333Y-68368152D01*
X62063333Y-68368152D02*
X62015714Y-68463390D01*
X62015714Y-68463390D02*
X61968095Y-68511009D01*
X61968095Y-68511009D02*
X61872857Y-68558628D01*
X61872857Y-68558628D02*
X61491905Y-68558628D01*
X63015714Y-69034819D02*
X62444286Y-69034819D01*
X62730000Y-69034819D02*
X62730000Y-68034819D01*
X62730000Y-68034819D02*
X62634762Y-68177676D01*
X62634762Y-68177676D02*
X62539524Y-68272914D01*
X62539524Y-68272914D02*
X62444286Y-68320533D01*
X51581580Y-73826666D02*
X51629200Y-73874285D01*
X51629200Y-73874285D02*
X51676819Y-74017142D01*
X51676819Y-74017142D02*
X51676819Y-74112380D01*
X51676819Y-74112380D02*
X51629200Y-74255237D01*
X51629200Y-74255237D02*
X51533961Y-74350475D01*
X51533961Y-74350475D02*
X51438723Y-74398094D01*
X51438723Y-74398094D02*
X51248247Y-74445713D01*
X51248247Y-74445713D02*
X51105390Y-74445713D01*
X51105390Y-74445713D02*
X50914914Y-74398094D01*
X50914914Y-74398094D02*
X50819676Y-74350475D01*
X50819676Y-74350475D02*
X50724438Y-74255237D01*
X50724438Y-74255237D02*
X50676819Y-74112380D01*
X50676819Y-74112380D02*
X50676819Y-74017142D01*
X50676819Y-74017142D02*
X50724438Y-73874285D01*
X50724438Y-73874285D02*
X50772057Y-73826666D01*
X51676819Y-72874285D02*
X51676819Y-73445713D01*
X51676819Y-73159999D02*
X50676819Y-73159999D01*
X50676819Y-73159999D02*
X50819676Y-73255237D01*
X50819676Y-73255237D02*
X50914914Y-73350475D01*
X50914914Y-73350475D02*
X50962533Y-73445713D01*
X48984819Y-98123333D02*
X49699104Y-98123333D01*
X49699104Y-98123333D02*
X49841961Y-98170952D01*
X49841961Y-98170952D02*
X49937200Y-98266190D01*
X49937200Y-98266190D02*
X49984819Y-98409047D01*
X49984819Y-98409047D02*
X49984819Y-98504285D01*
X48984819Y-97742380D02*
X48984819Y-97123333D01*
X48984819Y-97123333D02*
X49365771Y-97456666D01*
X49365771Y-97456666D02*
X49365771Y-97313809D01*
X49365771Y-97313809D02*
X49413390Y-97218571D01*
X49413390Y-97218571D02*
X49461009Y-97170952D01*
X49461009Y-97170952D02*
X49556247Y-97123333D01*
X49556247Y-97123333D02*
X49794342Y-97123333D01*
X49794342Y-97123333D02*
X49889580Y-97170952D01*
X49889580Y-97170952D02*
X49937200Y-97218571D01*
X49937200Y-97218571D02*
X49984819Y-97313809D01*
X49984819Y-97313809D02*
X49984819Y-97599523D01*
X49984819Y-97599523D02*
X49937200Y-97694761D01*
X49937200Y-97694761D02*
X49889580Y-97742380D01*
D11*
%TO.C,U3*%
X73660000Y-109220000D02*
X53340000Y-109220000D01*
X53340000Y-109220000D02*
X53340000Y-81280000D01*
X53340000Y-81280000D02*
X73660000Y-81280000D01*
X73660000Y-81280000D02*
X73660000Y-109220000D01*
%TO.C,G\u002A\u002A\u002A*%
G36*
X79713914Y-66431025D02*
G01*
X79771322Y-66466205D01*
X79812563Y-66521516D01*
X79835218Y-66594192D01*
X79838890Y-66643092D01*
X79828196Y-66723110D01*
X79798495Y-66787912D01*
X79753356Y-66834950D01*
X79696349Y-66861677D01*
X79631045Y-66865545D01*
X79561013Y-66844007D01*
X79558859Y-66842933D01*
X79504031Y-66800489D01*
X79469593Y-66739055D01*
X79455857Y-66659234D01*
X79455601Y-66644807D01*
X79455821Y-66643092D01*
X79586433Y-66643092D01*
X79591242Y-66707785D01*
X79606477Y-66748377D01*
X79633353Y-66767263D01*
X79650387Y-66769321D01*
X79682625Y-66758961D01*
X79698983Y-66733344D01*
X79708238Y-66694603D01*
X79712609Y-66647965D01*
X79712661Y-66643092D01*
X79706419Y-66576696D01*
X79687874Y-66534578D01*
X79657301Y-66517295D01*
X79650387Y-66516864D01*
X79617610Y-66526355D01*
X79597044Y-66556427D01*
X79587476Y-66609471D01*
X79586433Y-66643092D01*
X79455821Y-66643092D01*
X79466062Y-66563188D01*
X79495646Y-66497043D01*
X79541899Y-66449334D01*
X79602370Y-66423025D01*
X79642753Y-66418738D01*
X79713914Y-66431025D01*
G37*
G36*
X78887047Y-63547913D02*
G01*
X78953292Y-63590022D01*
X78969315Y-63605877D01*
X78981343Y-63619784D01*
X78990370Y-63634587D01*
X78996955Y-63654455D01*
X79001658Y-63683556D01*
X79005036Y-63726056D01*
X79007648Y-63786124D01*
X79010054Y-63867927D01*
X79011391Y-63919749D01*
X79014311Y-64019274D01*
X79017604Y-64094854D01*
X79021674Y-64150597D01*
X79026924Y-64190610D01*
X79033759Y-64218999D01*
X79042582Y-64239872D01*
X79042948Y-64240546D01*
X79059083Y-64271710D01*
X79067247Y-64290720D01*
X79067493Y-64292112D01*
X79056283Y-64302388D01*
X79027961Y-64320744D01*
X78990486Y-64342681D01*
X78951818Y-64363699D01*
X78919916Y-64379299D01*
X78903161Y-64385003D01*
X78884046Y-64375489D01*
X78867990Y-64360458D01*
X78843095Y-64329520D01*
X78824317Y-64298099D01*
X78810641Y-64261491D01*
X78801053Y-64214993D01*
X78794540Y-64153901D01*
X78790088Y-64073511D01*
X78787133Y-63985279D01*
X78779972Y-63732822D01*
X78730883Y-63729000D01*
X78673163Y-63736494D01*
X78636497Y-63753165D01*
X78591201Y-63781151D01*
X78587409Y-64072558D01*
X78583616Y-64363965D01*
X78474707Y-64368065D01*
X78414118Y-64368810D01*
X78377451Y-64365171D01*
X78360853Y-64356681D01*
X78359485Y-64354040D01*
X78357677Y-64335691D01*
X78355775Y-64293124D01*
X78353878Y-64230173D01*
X78352086Y-64150670D01*
X78350496Y-64058448D01*
X78349208Y-63957339D01*
X78349179Y-63954574D01*
X78345185Y-63573235D01*
X78423244Y-63551344D01*
X78477670Y-63536894D01*
X78511604Y-63531626D01*
X78531370Y-63536483D01*
X78543288Y-63552410D01*
X78550221Y-63570287D01*
X78564456Y-63611120D01*
X78642081Y-63570287D01*
X78727976Y-63537668D01*
X78810787Y-63530336D01*
X78887047Y-63547913D01*
G37*
G36*
X80585339Y-66432616D02*
G01*
X80627599Y-66457815D01*
X80641472Y-66474934D01*
X80649872Y-66496752D01*
X80653917Y-66529911D01*
X80654724Y-66581053D01*
X80654250Y-66616152D01*
X80654794Y-66690678D01*
X80659916Y-66741577D01*
X80670070Y-66772968D01*
X80672005Y-66776171D01*
X80683662Y-66799719D01*
X80679203Y-66820422D01*
X80661716Y-66844643D01*
X80639716Y-66869050D01*
X80623123Y-66873546D01*
X80600889Y-66860936D01*
X80600012Y-66860318D01*
X80568475Y-66846092D01*
X80541326Y-66852849D01*
X80510718Y-66861860D01*
X80466502Y-66867023D01*
X80449279Y-66867499D01*
X80386182Y-66857534D01*
X80342950Y-66827812D01*
X80319850Y-66778591D01*
X80315753Y-66737540D01*
X80318132Y-66724933D01*
X80441982Y-66724933D01*
X80452065Y-66756783D01*
X80475641Y-66779277D01*
X80491071Y-66783346D01*
X80513709Y-66774351D01*
X80523329Y-66766516D01*
X80536995Y-66740732D01*
X80540204Y-66708905D01*
X80533548Y-66682042D01*
X80518200Y-66671143D01*
X80480816Y-66679831D01*
X80452050Y-66701082D01*
X80441982Y-66724933D01*
X80318132Y-66724933D01*
X80327591Y-66674812D01*
X80361804Y-66627709D01*
X80416441Y-66597889D01*
X80489550Y-66587009D01*
X80492959Y-66586991D01*
X80525717Y-66584633D01*
X80537899Y-66574131D01*
X80537629Y-66555577D01*
X80522760Y-66527318D01*
X80489623Y-66519850D01*
X80438890Y-66533273D01*
X80425942Y-66538810D01*
X80391046Y-66553459D01*
X80371660Y-66555795D01*
X80357953Y-66545538D01*
X80350960Y-66536662D01*
X80333385Y-66505409D01*
X80337242Y-66481170D01*
X80364836Y-66459113D01*
X80394988Y-66444365D01*
X80460136Y-66425019D01*
X80526428Y-66421267D01*
X80585339Y-66432616D01*
G37*
G36*
X76961949Y-66281291D02*
G01*
X77040822Y-66285445D01*
X77064341Y-66537902D01*
X77074005Y-66640108D01*
X77081202Y-66717698D01*
X77085554Y-66774027D01*
X77086684Y-66812452D01*
X77084212Y-66836329D01*
X77077763Y-66849014D01*
X77066957Y-66853864D01*
X77051418Y-66854234D01*
X77030767Y-66853482D01*
X77028825Y-66853473D01*
X76967739Y-66853473D01*
X76958798Y-66758802D01*
X76953956Y-66696726D01*
X76950669Y-66633944D01*
X76949757Y-66595172D01*
X76947851Y-66557949D01*
X76943078Y-66537694D01*
X76939219Y-66536653D01*
X76931363Y-66553681D01*
X76918095Y-66591806D01*
X76901388Y-66645064D01*
X76886242Y-66696776D01*
X76843703Y-66846461D01*
X76787512Y-66850625D01*
X76731322Y-66854790D01*
X76690163Y-66699102D01*
X76670127Y-66628270D01*
X76654498Y-66584949D01*
X76642873Y-66569016D01*
X76634852Y-66580346D01*
X76630032Y-66618815D01*
X76628059Y-66679909D01*
X76626056Y-66734525D01*
X76621938Y-66784528D01*
X76618307Y-66809644D01*
X76610493Y-66837048D01*
X76595748Y-66849744D01*
X76565147Y-66853332D01*
X76548449Y-66853473D01*
X76487356Y-66853473D01*
X76494401Y-66793865D01*
X76498045Y-66760464D01*
X76503375Y-66708365D01*
X76509854Y-66643177D01*
X76516944Y-66570508D01*
X76524107Y-66495966D01*
X76530805Y-66425161D01*
X76536501Y-66363700D01*
X76540658Y-66317192D01*
X76542736Y-66291246D01*
X76542875Y-66288251D01*
X76555576Y-66282882D01*
X76588416Y-66280530D01*
X76623164Y-66281238D01*
X76703407Y-66285445D01*
X76746744Y-66451991D01*
X76790081Y-66618538D01*
X76836579Y-66447838D01*
X76883076Y-66277138D01*
X76961949Y-66281291D01*
G37*
G36*
X79227466Y-66425488D02*
G01*
X79271333Y-66439017D01*
X79302445Y-66454050D01*
X79312152Y-66468511D01*
X79305557Y-66490994D01*
X79304113Y-66494200D01*
X79292211Y-66514143D01*
X79274527Y-66524159D01*
X79242760Y-66527075D01*
X79209420Y-66526464D01*
X79156961Y-66528598D01*
X79131048Y-66538078D01*
X79131732Y-66553051D01*
X79159060Y-66571663D01*
X79207747Y-66590396D01*
X79255007Y-66609130D01*
X79293817Y-66631084D01*
X79309431Y-66644545D01*
X79331703Y-66691839D01*
X79330272Y-66745707D01*
X79305806Y-66798834D01*
X79293984Y-66813636D01*
X79267143Y-66839795D01*
X79239375Y-66854064D01*
X79199921Y-66860737D01*
X79171262Y-66862629D01*
X79117225Y-66862028D01*
X79067436Y-66855931D01*
X79043955Y-66849650D01*
X79004609Y-66832122D01*
X78987891Y-66814867D01*
X78989447Y-66790498D01*
X78997038Y-66770112D01*
X79011348Y-66742258D01*
X79026559Y-66736447D01*
X79044178Y-66743805D01*
X79096305Y-66764665D01*
X79145683Y-66772474D01*
X79183046Y-66766016D01*
X79188483Y-66762746D01*
X79205953Y-66739229D01*
X79198205Y-66716468D01*
X79167911Y-66698205D01*
X79136855Y-66690432D01*
X79073466Y-66670501D01*
X79026724Y-66635819D01*
X79000993Y-66590348D01*
X78997366Y-66563784D01*
X79001486Y-66522063D01*
X79011435Y-66488747D01*
X79011807Y-66488036D01*
X79045626Y-66452370D01*
X79097803Y-66429120D01*
X79160897Y-66419691D01*
X79227466Y-66425488D01*
G37*
G36*
X72028594Y-64182047D02*
G01*
X72184117Y-64184574D01*
X72329622Y-64189016D01*
X72459751Y-64195375D01*
X72569145Y-64203651D01*
X72601783Y-64207027D01*
X72927078Y-64251339D01*
X73229399Y-64308106D01*
X73508289Y-64377190D01*
X73763289Y-64458454D01*
X73993941Y-64551760D01*
X74199790Y-64656972D01*
X74294839Y-64715017D01*
X74393287Y-64786006D01*
X74489176Y-64868191D01*
X74577301Y-64956223D01*
X74652458Y-65044756D01*
X74709443Y-65128440D01*
X74724735Y-65156810D01*
X74780229Y-65295449D01*
X74808809Y-65434352D01*
X74811270Y-65578147D01*
X74806128Y-65630327D01*
X74769273Y-65814136D01*
X74705079Y-66000689D01*
X74614053Y-66189358D01*
X74496704Y-66379519D01*
X74353540Y-66570546D01*
X74185069Y-66761812D01*
X73991800Y-66952692D01*
X73774241Y-67142561D01*
X73532899Y-67330791D01*
X73281626Y-67507814D01*
X72896592Y-67755863D01*
X72508534Y-67984911D01*
X72120529Y-68193333D01*
X71735658Y-68379504D01*
X71356998Y-68541798D01*
X71227294Y-68592359D01*
X71137312Y-68625541D01*
X71036239Y-68661163D01*
X70927781Y-68698071D01*
X70815643Y-68735111D01*
X70703531Y-68771127D01*
X70595149Y-68804966D01*
X70494203Y-68835473D01*
X70404399Y-68861494D01*
X70329441Y-68881874D01*
X70273034Y-68895458D01*
X70238885Y-68901093D01*
X70236113Y-68901182D01*
X70222359Y-68887952D01*
X70217473Y-68848722D01*
X70217465Y-68846566D01*
X70220415Y-68773719D01*
X70228432Y-68683434D01*
X70240268Y-68585603D01*
X70254676Y-68490119D01*
X70270407Y-68406874D01*
X70276047Y-68382242D01*
X70318150Y-68233885D01*
X70370218Y-68098497D01*
X70435468Y-67970142D01*
X70517114Y-67842883D01*
X70618371Y-67710783D01*
X70677695Y-67640677D01*
X70744206Y-67558403D01*
X70791184Y-67484380D01*
X70822008Y-67410676D01*
X70840059Y-67329361D01*
X70848330Y-67240229D01*
X70855621Y-67101031D01*
X71080027Y-67014317D01*
X71425918Y-66874946D01*
X71743886Y-66734936D01*
X72033906Y-66594301D01*
X72295951Y-66453054D01*
X72529994Y-66311209D01*
X72661741Y-66222469D01*
X72734381Y-66167224D01*
X72814346Y-66099474D01*
X72896526Y-66024207D01*
X72975811Y-65946411D01*
X73047093Y-65871072D01*
X73105262Y-65803178D01*
X73140556Y-65755081D01*
X73210956Y-65625482D01*
X73257292Y-65492170D01*
X73279167Y-65358422D01*
X73276186Y-65227517D01*
X73247955Y-65102733D01*
X73225933Y-65047311D01*
X73168842Y-64955176D01*
X73086023Y-64870153D01*
X72979062Y-64792977D01*
X72849546Y-64724382D01*
X72699063Y-64665102D01*
X72529199Y-64615871D01*
X72341542Y-64577423D01*
X72155651Y-64552320D01*
X72076710Y-64546567D01*
X71975685Y-64543012D01*
X71858448Y-64541538D01*
X71730872Y-64542027D01*
X71598827Y-64544359D01*
X71468185Y-64548416D01*
X71344818Y-64554081D01*
X71234598Y-64561234D01*
X71143396Y-64569757D01*
X71115091Y-64573310D01*
X70863100Y-64613188D01*
X70610932Y-64662985D01*
X70361928Y-64721621D01*
X70119425Y-64788015D01*
X69886765Y-64861087D01*
X69667287Y-64939756D01*
X69464331Y-65022941D01*
X69281237Y-65109562D01*
X69121344Y-65198537D01*
X69058024Y-65238941D01*
X68932138Y-65332863D01*
X68832517Y-65428421D01*
X68759500Y-65525040D01*
X68713426Y-65622147D01*
X68694632Y-65719168D01*
X68703457Y-65815526D01*
X68708012Y-65832782D01*
X68743479Y-65913507D01*
X68799488Y-65980292D01*
X68877098Y-66033710D01*
X68977369Y-66074334D01*
X69101361Y-66102735D01*
X69236690Y-66118516D01*
X69362705Y-66121361D01*
X69509539Y-66113316D01*
X69672608Y-66095386D01*
X69847328Y-66068577D01*
X70029114Y-66033893D01*
X70213381Y-65992340D01*
X70395547Y-65944924D01*
X70571025Y-65892650D01*
X70735233Y-65836522D01*
X70883585Y-65777547D01*
X70967824Y-65738903D01*
X71101858Y-65665647D01*
X71210416Y-65589506D01*
X71292932Y-65511074D01*
X71348836Y-65430945D01*
X71377562Y-65349713D01*
X71381573Y-65305943D01*
X71369447Y-65227110D01*
X71333251Y-65162354D01*
X71273264Y-65111818D01*
X71189761Y-65075643D01*
X71083019Y-65053974D01*
X70953315Y-65046953D01*
X70883672Y-65048794D01*
X70747182Y-65060840D01*
X70607888Y-65083030D01*
X70469490Y-65114007D01*
X70335687Y-65152416D01*
X70210179Y-65196900D01*
X70096665Y-65246103D01*
X69998845Y-65298669D01*
X69920418Y-65353243D01*
X69865083Y-65408468D01*
X69852393Y-65426813D01*
X69827156Y-65483890D01*
X69827696Y-65529956D01*
X69853960Y-65564942D01*
X69905894Y-65588774D01*
X69982543Y-65601312D01*
X70044441Y-65602173D01*
X70115784Y-65596806D01*
X70191437Y-65586374D01*
X70266271Y-65572042D01*
X70335152Y-65554972D01*
X70392947Y-65536328D01*
X70434526Y-65517274D01*
X70454756Y-65498973D01*
X70455897Y-65494003D01*
X70444240Y-65490111D01*
X70413348Y-65497124D01*
X70387704Y-65506273D01*
X70320158Y-65528618D01*
X70239250Y-65549044D01*
X70155848Y-65565318D01*
X70080825Y-65575210D01*
X70042288Y-65577162D01*
X69981726Y-65571664D01*
X69930555Y-65556899D01*
X69894898Y-65535459D01*
X69880880Y-65509936D01*
X69880856Y-65508827D01*
X69894388Y-65467813D01*
X69933566Y-65423972D01*
X69996260Y-65378398D01*
X70080339Y-65332185D01*
X70183673Y-65286429D01*
X70304134Y-65242225D01*
X70439591Y-65200666D01*
X70524025Y-65178246D01*
X70673227Y-65144570D01*
X70801471Y-65124204D01*
X70912343Y-65116874D01*
X71009429Y-65122309D01*
X71080587Y-65135922D01*
X71161892Y-65166922D01*
X71218977Y-65209974D01*
X71251551Y-65262490D01*
X71259322Y-65321884D01*
X71241997Y-65385568D01*
X71199286Y-65450954D01*
X71130896Y-65515456D01*
X71123992Y-65520737D01*
X71036350Y-65577316D01*
X70923991Y-65634550D01*
X70790191Y-65691333D01*
X70638227Y-65746558D01*
X70471376Y-65799117D01*
X70292916Y-65847904D01*
X70106124Y-65891812D01*
X69914277Y-65929735D01*
X69911833Y-65930171D01*
X69816779Y-65943983D01*
X69709409Y-65954340D01*
X69595266Y-65961190D01*
X69479893Y-65964480D01*
X69368833Y-65964158D01*
X69267630Y-65960172D01*
X69181827Y-65952470D01*
X69116967Y-65941001D01*
X69105372Y-65937756D01*
X69031867Y-65906389D01*
X68970213Y-65863414D01*
X68925861Y-65813553D01*
X68904672Y-65763878D01*
X68904171Y-65687574D01*
X68931195Y-65610499D01*
X68985802Y-65532613D01*
X69068050Y-65453879D01*
X69177998Y-65374257D01*
X69315703Y-65293709D01*
X69481224Y-65212195D01*
X69674618Y-65129677D01*
X69895943Y-65046116D01*
X70063186Y-64988426D01*
X70364737Y-64895623D01*
X70652223Y-64823483D01*
X70929790Y-64771334D01*
X71201584Y-64738502D01*
X71471751Y-64724317D01*
X71683120Y-64725735D01*
X71893160Y-64738361D01*
X72085992Y-64762054D01*
X72260539Y-64796268D01*
X72415723Y-64840457D01*
X72550469Y-64894076D01*
X72663699Y-64956576D01*
X72754337Y-65027413D01*
X72821306Y-65106039D01*
X72863529Y-65191908D01*
X72879930Y-65284475D01*
X72878211Y-65332132D01*
X72863195Y-65408783D01*
X72832793Y-65483403D01*
X72784494Y-65560236D01*
X72715784Y-65643529D01*
X72657973Y-65704162D01*
X72526105Y-65823575D01*
X72371992Y-65938721D01*
X72194174Y-66050520D01*
X71991194Y-66159889D01*
X71767272Y-66265238D01*
X71479204Y-66386261D01*
X71194655Y-66492237D01*
X70908956Y-66584376D01*
X70617437Y-66663887D01*
X70315431Y-66731979D01*
X69998267Y-66789862D01*
X69661278Y-66838745D01*
X69460094Y-66862871D01*
X69363717Y-66871612D01*
X69249730Y-66878604D01*
X69122719Y-66883846D01*
X68987268Y-66887337D01*
X68847962Y-66889075D01*
X68709387Y-66889060D01*
X68576126Y-66887290D01*
X68452766Y-66883765D01*
X68343891Y-66878484D01*
X68254086Y-66871445D01*
X68190795Y-66863161D01*
X68014314Y-66825271D01*
X67863329Y-66778024D01*
X67736626Y-66720638D01*
X67632992Y-66652333D01*
X67551216Y-66572325D01*
X67490084Y-66479835D01*
X67452332Y-66387271D01*
X67431598Y-66289489D01*
X67431209Y-66190395D01*
X67451800Y-66085490D01*
X67494007Y-65970280D01*
X67518773Y-65916832D01*
X67605663Y-65767521D01*
X67719378Y-65619508D01*
X67858697Y-65473695D01*
X68022396Y-65330985D01*
X68209253Y-65192283D01*
X68418045Y-65058491D01*
X68647550Y-64930514D01*
X68896546Y-64809255D01*
X69163809Y-64695617D01*
X69179586Y-64689381D01*
X69490709Y-64574144D01*
X69798717Y-64475218D01*
X70109309Y-64391234D01*
X70428188Y-64320818D01*
X70761054Y-64262602D01*
X71113609Y-64215213D01*
X71185218Y-64207108D01*
X71288299Y-64198145D01*
X71413518Y-64191095D01*
X71555517Y-64185961D01*
X71708935Y-64182741D01*
X71868414Y-64181436D01*
X72028594Y-64182047D01*
G37*
G36*
X77334302Y-66431915D02*
G01*
X77337887Y-66468425D01*
X77340581Y-66523445D01*
X77342116Y-66592207D01*
X77342369Y-66636080D01*
X77342369Y-66853473D01*
X77230165Y-66853473D01*
X77230165Y-66436218D01*
X77273995Y-66427452D01*
X77308383Y-66421288D01*
X77329981Y-66418686D01*
X77330096Y-66418686D01*
X77334302Y-66431915D01*
G37*
G36*
X77577402Y-66425878D02*
G01*
X77586230Y-66436246D01*
X77598162Y-66449300D01*
X77615524Y-66448883D01*
X77646273Y-66435775D01*
X77699048Y-66422127D01*
X77751548Y-66427411D01*
X77794794Y-66449551D01*
X77815171Y-66474788D01*
X77823861Y-66506793D01*
X77830092Y-66559757D01*
X77833107Y-66626641D01*
X77833266Y-66643092D01*
X77834749Y-66703305D01*
X77838378Y-66754107D01*
X77843512Y-66788105D01*
X77846564Y-66796690D01*
X77848772Y-66815525D01*
X77828149Y-66835739D01*
X77817960Y-66842272D01*
X77787345Y-66860495D01*
X77770295Y-66864764D01*
X77755697Y-66854466D01*
X77740760Y-66838009D01*
X77727644Y-66818287D01*
X77718844Y-66789627D01*
X77713221Y-66745953D01*
X77709638Y-66681193D01*
X77709221Y-66669704D01*
X77706477Y-66605855D01*
X77702864Y-66565057D01*
X77697287Y-66542308D01*
X77688651Y-66532611D01*
X77678811Y-66530889D01*
X77649397Y-66532479D01*
X77629629Y-66540334D01*
X77617600Y-66559084D01*
X77611402Y-66593359D01*
X77609129Y-66647788D01*
X77608851Y-66700695D01*
X77608851Y-66853473D01*
X77484064Y-66853473D01*
X77475610Y-66446549D01*
X77524092Y-66430573D01*
X77558505Y-66421762D01*
X77577402Y-66425878D01*
G37*
G36*
X79175174Y-64978134D02*
G01*
X79236765Y-64988876D01*
X79298521Y-65004116D01*
X79352032Y-65021677D01*
X79388889Y-65039380D01*
X79396111Y-65045024D01*
X79399404Y-65064995D01*
X79390306Y-65098039D01*
X79373153Y-65135638D01*
X79352281Y-65169274D01*
X79332025Y-65190429D01*
X79320638Y-65193284D01*
X79294206Y-65184034D01*
X79255038Y-65169574D01*
X79242810Y-65164950D01*
X79176502Y-65147463D01*
X79118572Y-65146679D01*
X79073550Y-65161372D01*
X79045966Y-65190319D01*
X79039442Y-65219949D01*
X79048469Y-65248593D01*
X79077426Y-65272605D01*
X79129122Y-65293618D01*
X79196430Y-65311095D01*
X79285319Y-65337627D01*
X79351234Y-65373843D01*
X79398364Y-65422416D01*
X79415587Y-65450991D01*
X79440008Y-65526516D01*
X79438719Y-65603213D01*
X79413452Y-65676436D01*
X79365939Y-65741542D01*
X79297910Y-65793886D01*
X79285167Y-65800802D01*
X79209153Y-65827678D01*
X79118444Y-65840717D01*
X79022994Y-65839471D01*
X78932756Y-65823494D01*
X78913213Y-65817497D01*
X78835956Y-65789448D01*
X78785036Y-65766287D01*
X78760949Y-65748251D01*
X78758934Y-65742749D01*
X78764617Y-65724990D01*
X78778816Y-65692913D01*
X78797255Y-65655080D01*
X78815656Y-65620057D01*
X78829744Y-65596407D01*
X78834615Y-65591187D01*
X78849015Y-65596562D01*
X78881413Y-65610552D01*
X78918490Y-65627260D01*
X78976678Y-65649135D01*
X79039608Y-65665754D01*
X79072685Y-65671115D01*
X79119700Y-65674087D01*
X79149358Y-65669394D01*
X79171800Y-65654911D01*
X79177917Y-65649068D01*
X79202888Y-65609440D01*
X79204850Y-65568805D01*
X79183917Y-65534999D01*
X79176190Y-65529216D01*
X79146985Y-65516222D01*
X79100015Y-65501469D01*
X79045147Y-65488033D01*
X79041998Y-65487373D01*
X78983506Y-65472493D01*
X78929119Y-65454023D01*
X78890884Y-65436110D01*
X78837778Y-65388129D01*
X78804471Y-65325873D01*
X78791288Y-65255260D01*
X78798556Y-65182207D01*
X78826599Y-65112628D01*
X78870050Y-65057698D01*
X78931328Y-65012706D01*
X79004324Y-64985615D01*
X79094683Y-64974552D01*
X79122158Y-64974070D01*
X79175174Y-64978134D01*
G37*
G36*
X76152474Y-66256465D02*
G01*
X76192380Y-66265179D01*
X76214206Y-66279859D01*
X76213524Y-66301351D01*
X76194038Y-66324499D01*
X76163681Y-66342464D01*
X76134504Y-66348559D01*
X76096482Y-66358759D01*
X76080576Y-66375688D01*
X76067489Y-66409439D01*
X76076139Y-66427047D01*
X76109034Y-66432649D01*
X76115146Y-66432711D01*
X76149454Y-66434073D01*
X76161649Y-66442628D01*
X76155113Y-66465083D01*
X76143325Y-66488566D01*
X76112427Y-66523823D01*
X76084009Y-66533452D01*
X76068813Y-66536130D01*
X76057264Y-66542960D01*
X76047751Y-66558238D01*
X76038661Y-66586258D01*
X76028384Y-66631317D01*
X76015308Y-66697710D01*
X76008027Y-66735974D01*
X75992671Y-66811487D01*
X75976674Y-66880921D01*
X75961680Y-66937699D01*
X75949337Y-66975248D01*
X75946582Y-66981418D01*
X75917397Y-67027302D01*
X75877277Y-67075018D01*
X75832201Y-67118997D01*
X75788152Y-67153671D01*
X75751109Y-67173472D01*
X75737517Y-67176058D01*
X75726785Y-67164964D01*
X75710473Y-67137928D01*
X75708770Y-67134678D01*
X75690830Y-67093356D01*
X75690478Y-67070776D01*
X75707675Y-67063855D01*
X75707921Y-67063854D01*
X75736094Y-67053118D01*
X75771285Y-67025875D01*
X75805920Y-66989574D01*
X75832422Y-66951661D01*
X75840595Y-66933418D01*
X75847184Y-66908649D01*
X75857627Y-66864298D01*
X75870567Y-66806691D01*
X75884648Y-66742152D01*
X75898515Y-66677005D01*
X75910811Y-66617577D01*
X75920182Y-66570190D01*
X75925269Y-66541171D01*
X75925803Y-66535973D01*
X75913738Y-66532182D01*
X75889851Y-66530889D01*
X75865441Y-66527602D01*
X75857210Y-66512076D01*
X75858294Y-66485368D01*
X75866067Y-66452106D01*
X75886161Y-66436715D01*
X75902607Y-66432773D01*
X75933061Y-66420597D01*
X75953181Y-66392150D01*
X75960608Y-66372971D01*
X75982195Y-66321570D01*
X76008222Y-66289680D01*
X76046374Y-66268945D01*
X76061080Y-66263735D01*
X76105271Y-66255622D01*
X76152474Y-66256465D01*
G37*
G36*
X77237909Y-63212014D02*
G01*
X77276367Y-63251139D01*
X77293870Y-63293709D01*
X77294127Y-63349512D01*
X77272936Y-63397212D01*
X77236042Y-63433404D01*
X77189192Y-63454685D01*
X77138132Y-63457650D01*
X77088608Y-63438894D01*
X77071488Y-63425458D01*
X77034629Y-63375189D01*
X77023054Y-63320223D01*
X77036516Y-63266459D01*
X77074767Y-63219799D01*
X77080330Y-63215464D01*
X77132821Y-63191586D01*
X77187704Y-63191299D01*
X77237909Y-63212014D01*
G37*
G36*
X75612652Y-66425889D02*
G01*
X75636983Y-66432283D01*
X75685830Y-66456968D01*
X75715234Y-66494969D01*
X75728188Y-66551182D01*
X75729447Y-66583549D01*
X75718562Y-66674746D01*
X75687539Y-66751553D01*
X75638830Y-66811123D01*
X75574888Y-66850611D01*
X75498163Y-66867168D01*
X75484921Y-66867499D01*
X75434880Y-66862387D01*
X75395701Y-66843097D01*
X75375957Y-66826957D01*
X75349338Y-66800190D01*
X75336007Y-66774338D01*
X75331726Y-66738119D01*
X75331698Y-66709207D01*
X75332031Y-66706841D01*
X75462965Y-66706841D01*
X75466748Y-66755831D01*
X75479849Y-66779935D01*
X75504893Y-66781509D01*
X75532793Y-66769481D01*
X75557562Y-66743627D01*
X75579480Y-66699226D01*
X75595163Y-66645780D01*
X75601226Y-66592788D01*
X75600702Y-66578870D01*
X75595440Y-66542984D01*
X75583827Y-66527276D01*
X75561143Y-66523876D01*
X75535701Y-66530037D01*
X75513845Y-66552460D01*
X75494522Y-66586456D01*
X75474850Y-66637988D01*
X75463852Y-66691340D01*
X75462965Y-66706841D01*
X75332031Y-66706841D01*
X75343578Y-66624687D01*
X75374247Y-66550724D01*
X75420097Y-66490589D01*
X75477520Y-66447556D01*
X75542908Y-66424899D01*
X75612652Y-66425889D01*
G37*
G36*
X80105372Y-66361023D02*
G01*
X80106919Y-66397640D01*
X80115422Y-66414170D01*
X80136675Y-66418552D01*
X80147449Y-66418686D01*
X80180252Y-66424544D01*
X80189525Y-66440646D01*
X80180217Y-66479526D01*
X80157095Y-66508007D01*
X80132403Y-66516864D01*
X80119284Y-66518723D01*
X80111313Y-66527820D01*
X80107511Y-66549435D01*
X80106900Y-66588846D01*
X80108352Y-66646599D01*
X80112385Y-66776334D01*
X80149523Y-66773889D01*
X80178437Y-66777737D01*
X80191805Y-66799726D01*
X80193867Y-66808953D01*
X80197396Y-66838366D01*
X80195607Y-66851996D01*
X80179662Y-66856418D01*
X80145063Y-66861553D01*
X80120753Y-66864199D01*
X80075921Y-66866316D01*
X80046733Y-66859584D01*
X80021331Y-66840693D01*
X80015254Y-66834757D01*
X79998748Y-66816441D01*
X79988219Y-66797010D01*
X79982333Y-66769920D01*
X79979754Y-66728629D01*
X79979147Y-66666594D01*
X79979144Y-66657755D01*
X79978453Y-66592182D01*
X79975924Y-66550031D01*
X79970867Y-66526695D01*
X79962596Y-66517568D01*
X79958106Y-66516864D01*
X79941481Y-66504454D01*
X79937068Y-66474347D01*
X79943647Y-66439949D01*
X79958106Y-66423758D01*
X79973766Y-66404889D01*
X79979144Y-66375937D01*
X79981130Y-66347205D01*
X79991697Y-66330680D01*
X80017759Y-66320480D01*
X80052884Y-66313208D01*
X80105372Y-66303361D01*
X80105372Y-66361023D01*
G37*
G36*
X81797928Y-64992540D02*
G01*
X81868132Y-65025267D01*
X81885628Y-65038520D01*
X81928010Y-65074182D01*
X81973925Y-65039206D01*
X82043706Y-65000620D01*
X82120900Y-64981958D01*
X82198650Y-64983086D01*
X82270101Y-65003874D01*
X82328395Y-65044189D01*
X82330238Y-65046082D01*
X82370475Y-65088045D01*
X82377754Y-65371173D01*
X82380684Y-65471432D01*
X82383904Y-65547764D01*
X82387821Y-65604293D01*
X82392843Y-65645143D01*
X82399377Y-65674437D01*
X82407831Y-65696300D01*
X82410345Y-65701188D01*
X82425500Y-65731983D01*
X82431519Y-65749891D01*
X82431117Y-65751317D01*
X82412962Y-65762913D01*
X82381094Y-65782221D01*
X82343427Y-65804574D01*
X82307876Y-65825305D01*
X82282356Y-65839746D01*
X82274531Y-65843645D01*
X82263097Y-65834488D01*
X82241634Y-65812432D01*
X82241319Y-65812087D01*
X82214810Y-65780509D01*
X82195419Y-65748961D01*
X82182058Y-65712385D01*
X82173642Y-65665724D01*
X82169085Y-65603921D01*
X82167300Y-65521918D01*
X82167106Y-65466568D01*
X82166269Y-65387339D01*
X82163961Y-65315661D01*
X82160482Y-65257287D01*
X82156137Y-65217973D01*
X82153428Y-65206402D01*
X82129902Y-65177961D01*
X82091443Y-65170639D01*
X82041834Y-65184659D01*
X82016333Y-65198322D01*
X81970751Y-65226115D01*
X81970751Y-65815594D01*
X81746871Y-65815594D01*
X81743101Y-65496516D01*
X81739332Y-65177438D01*
X81690243Y-65172715D01*
X81638097Y-65177147D01*
X81595571Y-65192456D01*
X81549989Y-65216919D01*
X81549989Y-65815594D01*
X81326890Y-65815594D01*
X81322662Y-65447427D01*
X81321110Y-65347616D01*
X81318916Y-65256340D01*
X81316240Y-65177571D01*
X81313239Y-65115284D01*
X81310069Y-65073450D01*
X81307165Y-65056495D01*
X81305474Y-65042990D01*
X81318796Y-65031456D01*
X81351820Y-65019105D01*
X81386991Y-65009071D01*
X81452555Y-64994630D01*
X81495388Y-64993472D01*
X81517574Y-65005808D01*
X81521938Y-65022718D01*
X81527868Y-65041511D01*
X81547533Y-65039224D01*
X81572696Y-65023920D01*
X81641980Y-64991483D01*
X81719801Y-64981151D01*
X81797928Y-64992540D01*
G37*
G36*
X75810915Y-63225515D02*
G01*
X75890740Y-63239960D01*
X75941694Y-63256305D01*
X75994648Y-63277609D01*
X76041716Y-63300208D01*
X76075011Y-63320432D01*
X76085506Y-63330526D01*
X76082337Y-63347537D01*
X76063160Y-63384074D01*
X76027460Y-63441031D01*
X75989841Y-63497236D01*
X75977378Y-63493075D01*
X75946941Y-63479391D01*
X75912329Y-63462681D01*
X75811091Y-63428031D01*
X75748561Y-63419665D01*
X75698961Y-63417578D01*
X75667351Y-63421070D01*
X75643804Y-63432947D01*
X75618397Y-63456016D01*
X75617766Y-63456647D01*
X75590999Y-63490131D01*
X75576200Y-63521695D01*
X75575168Y-63529297D01*
X75579575Y-63564371D01*
X75595728Y-63591322D01*
X75628025Y-63613634D01*
X75680864Y-63634790D01*
X75726243Y-63648965D01*
X75845147Y-63688233D01*
X75938468Y-63729538D01*
X76008672Y-63775292D01*
X76058221Y-63827905D01*
X76089583Y-63889789D01*
X76105221Y-63963354D01*
X76108133Y-64022477D01*
X76096619Y-64118845D01*
X76061176Y-64201662D01*
X76000454Y-64274022D01*
X75996946Y-64277227D01*
X75922987Y-64327517D01*
X75830411Y-64364714D01*
X75726177Y-64387244D01*
X75617245Y-64393531D01*
X75523253Y-64384419D01*
X75486904Y-64375808D01*
X75439127Y-64361696D01*
X75386786Y-64344493D01*
X75336741Y-64326609D01*
X75295855Y-64310454D01*
X75270988Y-64298437D01*
X75266609Y-64294286D01*
X75271957Y-64280747D01*
X75286058Y-64248374D01*
X75305997Y-64203843D01*
X75308510Y-64198295D01*
X75350410Y-64105886D01*
X75426733Y-64140828D01*
X75492283Y-64165616D01*
X75563774Y-64184329D01*
X75631799Y-64195131D01*
X75686954Y-64196190D01*
X75700313Y-64194179D01*
X75766559Y-64175665D01*
X75809192Y-64151528D01*
X75832627Y-64117322D01*
X75841277Y-64068599D01*
X75841651Y-64051760D01*
X75835461Y-64008381D01*
X75814543Y-63973596D01*
X75775377Y-63944580D01*
X75714442Y-63918506D01*
X75651143Y-63898845D01*
X75553869Y-63868617D01*
X75479988Y-63838126D01*
X75424983Y-63804322D01*
X75384335Y-63764156D01*
X75353526Y-63714577D01*
X75342576Y-63690554D01*
X75319979Y-63603139D01*
X75322738Y-63514929D01*
X75348703Y-63430645D01*
X75395726Y-63355008D01*
X75461660Y-63292740D01*
X75543565Y-63248855D01*
X75622286Y-63229249D01*
X75715207Y-63221371D01*
X75810915Y-63225515D01*
G37*
G36*
X76943022Y-64696205D02*
G01*
X76968574Y-64700120D01*
X76982014Y-64707737D01*
X76987854Y-64717613D01*
X76994035Y-64737775D01*
X77006232Y-64781001D01*
X77023333Y-64843223D01*
X77044227Y-64920376D01*
X77067803Y-65008391D01*
X77084767Y-65072248D01*
X77108791Y-65161718D01*
X77130384Y-65239716D01*
X77148584Y-65302959D01*
X77162426Y-65348167D01*
X77170948Y-65372058D01*
X77173282Y-65373794D01*
X77177238Y-65352742D01*
X77187668Y-65308813D01*
X77203511Y-65246150D01*
X77223707Y-65168895D01*
X77247196Y-65081192D01*
X77263011Y-65023159D01*
X77351492Y-64700574D01*
X77643915Y-64700574D01*
X77688207Y-65191463D01*
X77698819Y-65309001D01*
X77708880Y-65420296D01*
X77718049Y-65521596D01*
X77725987Y-65609150D01*
X77732354Y-65679207D01*
X77736809Y-65728016D01*
X77738744Y-65748973D01*
X77744987Y-65815594D01*
X77514701Y-65815594D01*
X77506294Y-65720922D01*
X77502634Y-65675741D01*
X77497702Y-65609211D01*
X77491971Y-65527980D01*
X77485910Y-65438695D01*
X77480922Y-65362555D01*
X77463958Y-65098859D01*
X77389411Y-65362555D01*
X77364048Y-65451904D01*
X77339130Y-65539024D01*
X77316476Y-65617601D01*
X77297907Y-65681320D01*
X77285954Y-65721525D01*
X77257043Y-65816799D01*
X77155945Y-65812690D01*
X77054848Y-65808581D01*
X76961173Y-65464959D01*
X76935914Y-65373503D01*
X76913143Y-65293357D01*
X76893827Y-65227739D01*
X76878936Y-65179871D01*
X76869437Y-65152974D01*
X76866298Y-65149387D01*
X76864959Y-65171478D01*
X76861919Y-65216862D01*
X76857501Y-65280851D01*
X76852031Y-65358762D01*
X76845832Y-65445908D01*
X76844467Y-65464959D01*
X76838195Y-65553731D01*
X76832670Y-65634522D01*
X76828204Y-65702573D01*
X76825106Y-65753129D01*
X76823688Y-65781433D01*
X76823633Y-65784037D01*
X76821966Y-65799345D01*
X76813508Y-65808685D01*
X76792705Y-65813526D01*
X76754005Y-65815337D01*
X76704428Y-65815594D01*
X76585427Y-65815594D01*
X76593612Y-65734948D01*
X76596873Y-65701665D01*
X76602350Y-65644413D01*
X76609671Y-65567154D01*
X76618461Y-65473850D01*
X76628348Y-65368464D01*
X76638957Y-65254957D01*
X76646180Y-65177438D01*
X76690563Y-64700574D01*
X76834387Y-64696575D01*
X76900059Y-64695266D01*
X76943022Y-64696205D01*
G37*
G36*
X77329237Y-66260669D02*
G01*
X77352633Y-66290218D01*
X77356394Y-66315299D01*
X77344969Y-66356607D01*
X77315543Y-66381963D01*
X77275385Y-66387585D01*
X77240684Y-66375486D01*
X77222210Y-66350713D01*
X77216566Y-66313995D01*
X77224712Y-66278802D01*
X77232970Y-66267212D01*
X77259197Y-66254252D01*
X77286267Y-66250381D01*
X77329237Y-66260669D01*
G37*
G36*
X77917300Y-63539710D02*
G01*
X78002703Y-63570568D01*
X78070118Y-63622633D01*
X78119822Y-63696202D01*
X78152090Y-63791574D01*
X78167198Y-63909047D01*
X78167328Y-63911646D01*
X78173298Y-64034368D01*
X77707029Y-64034368D01*
X77707029Y-64070128D01*
X77718875Y-64129522D01*
X77751531Y-64174851D01*
X77800675Y-64204512D01*
X77861986Y-64216897D01*
X77931142Y-64210402D01*
X78003820Y-64183422D01*
X78007228Y-64181635D01*
X78044800Y-64162059D01*
X78070679Y-64149332D01*
X78077580Y-64146571D01*
X78090835Y-64158023D01*
X78109706Y-64186222D01*
X78129242Y-64221930D01*
X78144488Y-64255912D01*
X78150492Y-64278929D01*
X78150044Y-64281704D01*
X78131491Y-64300740D01*
X78093070Y-64323566D01*
X78042098Y-64347063D01*
X77985894Y-64368116D01*
X77931777Y-64383607D01*
X77896372Y-64389759D01*
X77839093Y-64391352D01*
X77780389Y-64386884D01*
X77763761Y-64384111D01*
X77684374Y-64356817D01*
X77608959Y-64311002D01*
X77548090Y-64253476D01*
X77535926Y-64237404D01*
X77495075Y-64158239D01*
X77468412Y-64062952D01*
X77458013Y-63960721D01*
X77460189Y-63902535D01*
X77473741Y-63830303D01*
X77707029Y-63830303D01*
X77708027Y-63847526D01*
X77714697Y-63858081D01*
X77732558Y-63863600D01*
X77767126Y-63865717D01*
X77823918Y-63866063D01*
X77827881Y-63866063D01*
X77885980Y-63865749D01*
X77921146Y-63863849D01*
X77938496Y-63858927D01*
X77943145Y-63849545D01*
X77940275Y-63834506D01*
X77933256Y-63798071D01*
X77931627Y-63778404D01*
X77918843Y-63741927D01*
X77886157Y-63714535D01*
X77841128Y-63699611D01*
X77791318Y-63700536D01*
X77770772Y-63706471D01*
X77744975Y-63728358D01*
X77722379Y-63767028D01*
X77708726Y-63811325D01*
X77707029Y-63830303D01*
X77473741Y-63830303D01*
X77481318Y-63789914D01*
X77521229Y-63695565D01*
X77578517Y-63620967D01*
X77651778Y-63567602D01*
X77739608Y-63536951D01*
X77813633Y-63529762D01*
X77917300Y-63539710D01*
G37*
G36*
X80029178Y-64991759D02*
G01*
X80107442Y-65025908D01*
X80174988Y-65079092D01*
X80227168Y-65150879D01*
X80239748Y-65177438D01*
X80251603Y-65218064D01*
X80262080Y-65275878D01*
X80269316Y-65340018D01*
X80270429Y-65356262D01*
X80277568Y-65478984D01*
X79807146Y-65478984D01*
X79814816Y-65536174D01*
X79825569Y-65579696D01*
X79842419Y-65614741D01*
X79846410Y-65619799D01*
X79895231Y-65654113D01*
X79957801Y-65669428D01*
X80027135Y-65665638D01*
X80096247Y-65642639D01*
X80128295Y-65624067D01*
X80162507Y-65603470D01*
X80182226Y-65599781D01*
X80191852Y-65607736D01*
X80225359Y-65658986D01*
X80245331Y-65692352D01*
X80253676Y-65713364D01*
X80252304Y-65727553D01*
X80243123Y-65740450D01*
X80239175Y-65744846D01*
X80188688Y-65783075D01*
X80118901Y-65812317D01*
X80037482Y-65831314D01*
X79952097Y-65838805D01*
X79870414Y-65833531D01*
X79804835Y-65816206D01*
X79717257Y-65766660D01*
X79648362Y-65696647D01*
X79598870Y-65607242D01*
X79569501Y-65499523D01*
X79563933Y-65455826D01*
X79564117Y-65354439D01*
X79571793Y-65310679D01*
X79807169Y-65310679D01*
X80045504Y-65310679D01*
X80034697Y-65251580D01*
X80014038Y-65196124D01*
X79979962Y-65160878D01*
X79938320Y-65145670D01*
X79894964Y-65150326D01*
X79855746Y-65174672D01*
X79826518Y-65218534D01*
X79815543Y-65258084D01*
X79807169Y-65310679D01*
X79571793Y-65310679D01*
X79581661Y-65254424D01*
X79614452Y-65165085D01*
X79639736Y-65121668D01*
X79701884Y-65054160D01*
X79776549Y-65007847D01*
X79859085Y-64982297D01*
X79944843Y-64977078D01*
X80029178Y-64991759D01*
G37*
G36*
X78605152Y-65319678D02*
G01*
X78605642Y-65434077D01*
X78606860Y-65523604D01*
X78608977Y-65591433D01*
X78612163Y-65640737D01*
X78616586Y-65674689D01*
X78622418Y-65696463D01*
X78625693Y-65703391D01*
X78640421Y-65731872D01*
X78646234Y-65747944D01*
X78635269Y-65759211D01*
X78606111Y-65779416D01*
X78567322Y-65802867D01*
X78487913Y-65848300D01*
X78457401Y-65810035D01*
X78426890Y-65771770D01*
X78375629Y-65802014D01*
X78313060Y-65826576D01*
X78237507Y-65838317D01*
X78161425Y-65836231D01*
X78107846Y-65823668D01*
X78037285Y-65785179D01*
X77988821Y-65729689D01*
X77961131Y-65655636D01*
X77959777Y-65648881D01*
X77955279Y-65610994D01*
X77951361Y-65550940D01*
X77948260Y-65474604D01*
X77946214Y-65387868D01*
X77945461Y-65296614D01*
X77945461Y-65295007D01*
X77945536Y-65200187D01*
X77946037Y-65129688D01*
X77947376Y-65079781D01*
X77949966Y-65046735D01*
X77954217Y-65026822D01*
X77960544Y-65016312D01*
X77969357Y-65011474D01*
X77977018Y-65009514D01*
X78061265Y-64990834D01*
X78118576Y-64979180D01*
X78149160Y-64974509D01*
X78151187Y-64974413D01*
X78157025Y-64983122D01*
X78161806Y-65010836D01*
X78165661Y-65059536D01*
X78168720Y-65131200D01*
X78171113Y-65227808D01*
X78172226Y-65294526D01*
X78174230Y-65404892D01*
X78176782Y-65490142D01*
X78180084Y-65553207D01*
X78184341Y-65597019D01*
X78189756Y-65624512D01*
X78196129Y-65638148D01*
X78226182Y-65655398D01*
X78270206Y-65660779D01*
X78316710Y-65654192D01*
X78349077Y-65639481D01*
X78359466Y-65631307D01*
X78367246Y-65620802D01*
X78372794Y-65604153D01*
X78376486Y-65577548D01*
X78378700Y-65537176D01*
X78379814Y-65479224D01*
X78380204Y-65399879D01*
X78380248Y-65324403D01*
X78380199Y-65223630D01*
X78380823Y-65147287D01*
X78383280Y-65091756D01*
X78388728Y-65053420D01*
X78398326Y-65028661D01*
X78413232Y-65013864D01*
X78434604Y-65005409D01*
X78463603Y-64999681D01*
X78485439Y-64995996D01*
X78530190Y-64987656D01*
X78568141Y-64979758D01*
X78573097Y-64978604D01*
X78604655Y-64971029D01*
X78605152Y-65319678D01*
G37*
G36*
X76727917Y-63531852D02*
G01*
X76809229Y-63563993D01*
X76854568Y-63596055D01*
X76867155Y-63609970D01*
X76867860Y-63625319D01*
X76854826Y-63649591D01*
X76833830Y-63679670D01*
X76806803Y-63715742D01*
X76785335Y-63741623D01*
X76777170Y-63749432D01*
X76758894Y-63747670D01*
X76725757Y-63734967D01*
X76705747Y-63725090D01*
X76646914Y-63702621D01*
X76599335Y-63704341D01*
X76562176Y-63730912D01*
X76534602Y-63782997D01*
X76515780Y-63861256D01*
X76513311Y-63877779D01*
X76506514Y-63968584D01*
X76511258Y-64051486D01*
X76526625Y-64120944D01*
X76551694Y-64171418D01*
X76564336Y-64185141D01*
X76608214Y-64210828D01*
X76656963Y-64213090D01*
X76715009Y-64191819D01*
X76734734Y-64180928D01*
X76771814Y-64161715D01*
X76799234Y-64152075D01*
X76807267Y-64152263D01*
X76821458Y-64167193D01*
X76844572Y-64197131D01*
X76857980Y-64215959D01*
X76880026Y-64253289D01*
X76884467Y-64281754D01*
X76868871Y-64306106D01*
X76830810Y-64331093D01*
X76788365Y-64352034D01*
X76713504Y-64375749D01*
X76628145Y-64385291D01*
X76543430Y-64380423D01*
X76470500Y-64360912D01*
X76465781Y-64358836D01*
X76388431Y-64308772D01*
X76328925Y-64237811D01*
X76287917Y-64147222D01*
X76266061Y-64038274D01*
X76262413Y-63964241D01*
X76272122Y-63842069D01*
X76301523Y-63739445D01*
X76351027Y-63655544D01*
X76421045Y-63589541D01*
X76461565Y-63564245D01*
X76547300Y-63531428D01*
X76638345Y-63520813D01*
X76727917Y-63531852D01*
G37*
G36*
X81081559Y-64987457D02*
G01*
X81083486Y-65025064D01*
X81085094Y-65083060D01*
X81086294Y-65157617D01*
X81086999Y-65244903D01*
X81087150Y-65311130D01*
X81087480Y-65423362D01*
X81088601Y-65511146D01*
X81090714Y-65578078D01*
X81094021Y-65627755D01*
X81098720Y-65663772D01*
X81105014Y-65689726D01*
X81108823Y-65700059D01*
X81119856Y-65730745D01*
X81119764Y-65752956D01*
X81104810Y-65772146D01*
X81071259Y-65793770D01*
X81029376Y-65816041D01*
X80978615Y-65842344D01*
X80946896Y-65808581D01*
X80915178Y-65774818D01*
X80858419Y-65803775D01*
X80789202Y-65827965D01*
X80710092Y-65838557D01*
X80633466Y-65834630D01*
X80590341Y-65823668D01*
X80543284Y-65799402D01*
X80498521Y-65766100D01*
X80492164Y-65760063D01*
X80448995Y-65716912D01*
X80448995Y-65009381D01*
X80540160Y-64992352D01*
X80589560Y-64984447D01*
X80629027Y-64980527D01*
X80648857Y-64981269D01*
X80654828Y-64990203D01*
X80659391Y-65014193D01*
X80662688Y-65055860D01*
X80664859Y-65117827D01*
X80666045Y-65202713D01*
X80666388Y-65307434D01*
X80666893Y-65421955D01*
X80668475Y-65510484D01*
X80671235Y-65575062D01*
X80675277Y-65617731D01*
X80680702Y-65640531D01*
X80683219Y-65644484D01*
X80714529Y-65658756D01*
X80759180Y-65660359D01*
X80805948Y-65650169D01*
X80839814Y-65632246D01*
X80876769Y-65603177D01*
X80876769Y-65018394D01*
X80974210Y-64996232D01*
X81023240Y-64985311D01*
X81060706Y-64977396D01*
X81079011Y-64974088D01*
X81079400Y-64974070D01*
X81081559Y-64987457D01*
G37*
G36*
X77272550Y-63853613D02*
G01*
X77272871Y-63960435D01*
X77273791Y-64043172D01*
X77275581Y-64105791D01*
X77278511Y-64152254D01*
X77282854Y-64186528D01*
X77288879Y-64212578D01*
X77296858Y-64234367D01*
X77298902Y-64238981D01*
X77324947Y-64296328D01*
X77250820Y-64340666D01*
X77209747Y-64364078D01*
X77177866Y-64380146D01*
X77163977Y-64385003D01*
X77147017Y-64375507D01*
X77121502Y-64352097D01*
X77116219Y-64346433D01*
X77095637Y-64322297D01*
X77079647Y-64298137D01*
X77067672Y-64270151D01*
X77059137Y-64234532D01*
X77053465Y-64187477D01*
X77050079Y-64125181D01*
X77048404Y-64043840D01*
X77047863Y-63939650D01*
X77047835Y-63894974D01*
X77047835Y-63560545D01*
X77079978Y-63552478D01*
X77111798Y-63546336D01*
X77158947Y-63539238D01*
X77192181Y-63535001D01*
X77272242Y-63525591D01*
X77272550Y-63853613D01*
G37*
G36*
X78082317Y-66425878D02*
G01*
X78091145Y-66436246D01*
X78103077Y-66449300D01*
X78120439Y-66448883D01*
X78151187Y-66435775D01*
X78203962Y-66422127D01*
X78256462Y-66427411D01*
X78299708Y-66449551D01*
X78320085Y-66474788D01*
X78328775Y-66506793D01*
X78335006Y-66559757D01*
X78338021Y-66626641D01*
X78338180Y-66643092D01*
X78339664Y-66703305D01*
X78343292Y-66754107D01*
X78348426Y-66788105D01*
X78351479Y-66796690D01*
X78353686Y-66815525D01*
X78333064Y-66835739D01*
X78322874Y-66842272D01*
X78292259Y-66860495D01*
X78275209Y-66864764D01*
X78260611Y-66854466D01*
X78245674Y-66838009D01*
X78232558Y-66818287D01*
X78223758Y-66789627D01*
X78218136Y-66745953D01*
X78214553Y-66681193D01*
X78214135Y-66669704D01*
X78211391Y-66605855D01*
X78207778Y-66565057D01*
X78202201Y-66542308D01*
X78193566Y-66532611D01*
X78183725Y-66530889D01*
X78154311Y-66532479D01*
X78134543Y-66540334D01*
X78122514Y-66559084D01*
X78116317Y-66593359D01*
X78114043Y-66647788D01*
X78113766Y-66700695D01*
X78113766Y-66853473D01*
X77988978Y-66853473D01*
X77980524Y-66446549D01*
X78029007Y-66430573D01*
X78063420Y-66421762D01*
X78082317Y-66425878D01*
G37*
G36*
X80991982Y-66419371D02*
G01*
X81046915Y-66444851D01*
X81081123Y-66487031D01*
X81097419Y-66549349D01*
X81099124Y-66592809D01*
X81088835Y-66624210D01*
X81064204Y-66655975D01*
X81017296Y-66691475D01*
X80961419Y-66708841D01*
X80906214Y-66706007D01*
X80880155Y-66695396D01*
X80833869Y-66655680D01*
X80809305Y-66607067D01*
X80807158Y-66584448D01*
X80846482Y-66584448D01*
X80864553Y-66629646D01*
X80887094Y-66653611D01*
X80913385Y-66664933D01*
X80948013Y-66670349D01*
X80980594Y-66669546D01*
X81000742Y-66662208D01*
X81002998Y-66657118D01*
X80993984Y-66643484D01*
X80991224Y-66643092D01*
X80977463Y-66631820D01*
X80960843Y-66604697D01*
X80960758Y-66604523D01*
X80942066Y-66565953D01*
X80933962Y-66607234D01*
X80923814Y-66640667D01*
X80912971Y-66647994D01*
X80903092Y-66631057D01*
X80895840Y-66591702D01*
X80893632Y-66562446D01*
X80891746Y-66522848D01*
X80932871Y-66522848D01*
X80944669Y-66541056D01*
X80962091Y-66544915D01*
X80983466Y-66538214D01*
X80985473Y-66527383D01*
X80970381Y-66509919D01*
X80949173Y-66505620D01*
X80934287Y-66515559D01*
X80932871Y-66522848D01*
X80891746Y-66522848D01*
X80889456Y-66474788D01*
X80945734Y-66474788D01*
X80992207Y-66482286D01*
X81018579Y-66502428D01*
X81021893Y-66531682D01*
X81011071Y-66552849D01*
X81001083Y-66579921D01*
X81003701Y-66607776D01*
X81015552Y-66627821D01*
X81033264Y-66631463D01*
X81040263Y-66627240D01*
X81057012Y-66597055D01*
X81058302Y-66554769D01*
X81045257Y-66510905D01*
X81024674Y-66481163D01*
X80983615Y-66452718D01*
X80938747Y-66449455D01*
X80899166Y-66462695D01*
X80864340Y-66492248D01*
X80846595Y-66535741D01*
X80846482Y-66584448D01*
X80807158Y-66584448D01*
X80804344Y-66554791D01*
X80816866Y-66504083D01*
X80844750Y-66460176D01*
X80885878Y-66428302D01*
X80938130Y-66413693D01*
X80991982Y-66419371D01*
G37*
G36*
X79640798Y-63524016D02*
G01*
X79709702Y-63546657D01*
X79772476Y-63578669D01*
X79783985Y-63586407D01*
X79825404Y-63615900D01*
X79780562Y-63674361D01*
X79752963Y-63710065D01*
X79731671Y-63737115D01*
X79724750Y-63745587D01*
X79706581Y-63747205D01*
X79672447Y-63735579D01*
X79652617Y-63725904D01*
X79592679Y-63703474D01*
X79543719Y-63706391D01*
X79504079Y-63734962D01*
X79488989Y-63756024D01*
X79467580Y-63809280D01*
X79453873Y-63881615D01*
X79448847Y-63964874D01*
X79453482Y-64050900D01*
X79453514Y-64051172D01*
X79462731Y-64106765D01*
X79477470Y-64144976D01*
X79501981Y-64176446D01*
X79504630Y-64179130D01*
X79535997Y-64205784D01*
X79564922Y-64214571D01*
X79597139Y-64211803D01*
X79644615Y-64197477D01*
X79687770Y-64174497D01*
X79688615Y-64173879D01*
X79719950Y-64154780D01*
X79744826Y-64153335D01*
X79769710Y-64171873D01*
X79801069Y-64212725D01*
X79802633Y-64214977D01*
X79824797Y-64251144D01*
X79830674Y-64278062D01*
X79817731Y-64300897D01*
X79783437Y-64324815D01*
X79736805Y-64349259D01*
X79660413Y-64375241D01*
X79573441Y-64385781D01*
X79486947Y-64380553D01*
X79411988Y-64359232D01*
X79411115Y-64358836D01*
X79333833Y-64308735D01*
X79273665Y-64237600D01*
X79231601Y-64147346D01*
X79208628Y-64039893D01*
X79204417Y-63958066D01*
X79215742Y-63836522D01*
X79248251Y-63733009D01*
X79302159Y-63646927D01*
X79325287Y-63621637D01*
X79391555Y-63571551D01*
X79472026Y-63534894D01*
X79554902Y-63516599D01*
X79579267Y-63515428D01*
X79640798Y-63524016D01*
G37*
G36*
X80404670Y-63541525D02*
G01*
X80487523Y-63577394D01*
X80554994Y-63636539D01*
X80598295Y-63702174D01*
X80612719Y-63740553D01*
X80626542Y-63794691D01*
X80638451Y-63856443D01*
X80647136Y-63917662D01*
X80651283Y-63970199D01*
X80649581Y-64005908D01*
X80648071Y-64011296D01*
X80641695Y-64019923D01*
X80627545Y-64026125D01*
X80601611Y-64030286D01*
X80559885Y-64032791D01*
X80498359Y-64034023D01*
X80413023Y-64034367D01*
X80407359Y-64034368D01*
X80318097Y-64034477D01*
X80253609Y-64035727D01*
X80210620Y-64039503D01*
X80185853Y-64047192D01*
X80176032Y-64060177D01*
X80177881Y-64079846D01*
X80188126Y-64107582D01*
X80195056Y-64124150D01*
X80227433Y-64175720D01*
X80274361Y-64205773D01*
X80339616Y-64216585D01*
X80348533Y-64216698D01*
X80422907Y-64206138D01*
X80485737Y-64179367D01*
X80523801Y-64159948D01*
X80550404Y-64148817D01*
X80558345Y-64147810D01*
X80582221Y-64183720D01*
X80605959Y-64221924D01*
X80625153Y-64254986D01*
X80635395Y-64275472D01*
X80635882Y-64278629D01*
X80524506Y-64344671D01*
X80414394Y-64382834D01*
X80305717Y-64393073D01*
X80236179Y-64384785D01*
X80166168Y-64364388D01*
X80107607Y-64331537D01*
X80050203Y-64280142D01*
X80038730Y-64267942D01*
X79990007Y-64202682D01*
X79958120Y-64128474D01*
X79941599Y-64040114D01*
X79938977Y-63932398D01*
X79939584Y-63916632D01*
X79942837Y-63866063D01*
X80173271Y-63866063D01*
X80417625Y-63866063D01*
X80409954Y-63808873D01*
X80394175Y-63749637D01*
X80364795Y-63714072D01*
X80319905Y-63700351D01*
X80296843Y-63700594D01*
X80243969Y-63716028D01*
X80206565Y-63753877D01*
X80183578Y-63815247D01*
X80182476Y-63820481D01*
X80173271Y-63866063D01*
X79942837Y-63866063D01*
X79943919Y-63849246D01*
X79951329Y-63800094D01*
X79964071Y-63759369D01*
X79984402Y-63717267D01*
X79986279Y-63713810D01*
X80041201Y-63633441D01*
X80106553Y-63577337D01*
X80185818Y-63543497D01*
X80282480Y-63529920D01*
X80307312Y-63529454D01*
X80404670Y-63541525D01*
G37*
G36*
X78726303Y-66427989D02*
G01*
X78760653Y-66436860D01*
X78788063Y-66455315D01*
X78792889Y-66459721D01*
X78828958Y-66510679D01*
X78851212Y-66579044D01*
X78857034Y-66639586D01*
X78857112Y-66685169D01*
X78737896Y-66685169D01*
X78679600Y-66685804D01*
X78643961Y-66688470D01*
X78625601Y-66694306D01*
X78619139Y-66704450D01*
X78618680Y-66710414D01*
X78627560Y-66741526D01*
X78635510Y-66752491D01*
X78664068Y-66765234D01*
X78706820Y-66768690D01*
X78751463Y-66762766D01*
X78776277Y-66753520D01*
X78802384Y-66745504D01*
X78821737Y-66759630D01*
X78824444Y-66763213D01*
X78840794Y-66793981D01*
X78834801Y-66817106D01*
X78804169Y-66838585D01*
X78793522Y-66843863D01*
X78725903Y-66863821D01*
X78654897Y-66864441D01*
X78591475Y-66845923D01*
X78580791Y-66840016D01*
X78531540Y-66794690D01*
X78499234Y-66733437D01*
X78484425Y-66663093D01*
X78487668Y-66590495D01*
X78492931Y-66574112D01*
X78618680Y-66574112D01*
X78631125Y-66582178D01*
X78662215Y-66586663D01*
X78674782Y-66586991D01*
X78709916Y-66584134D01*
X78729455Y-66576997D01*
X78730883Y-66574112D01*
X78720164Y-66536516D01*
X78689653Y-66518233D01*
X78674782Y-66516864D01*
X78637939Y-66527803D01*
X78620022Y-66558936D01*
X78618680Y-66574112D01*
X78492931Y-66574112D01*
X78509516Y-66522480D01*
X78550473Y-66465935D01*
X78579053Y-66442362D01*
X78608515Y-66430251D01*
X78649961Y-66426004D01*
X78674573Y-66425699D01*
X78726303Y-66427989D01*
G37*
%TO.C,J1*%
X38640000Y-78130000D02*
X38640000Y-69190000D01*
X38640000Y-69190000D02*
X39800000Y-69190000D01*
X43850000Y-69190000D02*
X42050000Y-69190000D01*
X43850000Y-78130000D02*
X42050000Y-78130000D01*
X38640000Y-78130000D02*
X39800000Y-78130000D01*
%TO.C,U2*%
X71120000Y-147320000D02*
X40640000Y-147320000D01*
X40640000Y-147320000D02*
X40640000Y-121920000D01*
X40640000Y-121920000D02*
X71120000Y-121920000D01*
X71120000Y-121920000D02*
X71120000Y-147320000D01*
%TO.C,R2*%
X58190000Y-74930000D02*
X58960000Y-74930000D01*
X66270000Y-74930000D02*
X65500000Y-74930000D01*
X58960000Y-76300000D02*
X65500000Y-76300000D01*
X65500000Y-73560000D02*
X58960000Y-73560000D01*
X65500000Y-76300000D02*
X65500000Y-73560000D01*
X58960000Y-73560000D02*
X58960000Y-76300000D01*
%TO.C,J2*%
X40640000Y-90170000D02*
X48260000Y-90170000D01*
X48260000Y-80010000D02*
X40640000Y-80010000D01*
X48260000Y-90170000D02*
X48260000Y-80010000D01*
X40640000Y-80010000D02*
X40640000Y-90170000D01*
X41910000Y-90170000D02*
X41910000Y-80010000D01*
%TO.C,RV1*%
X78740000Y-89400000D02*
X88900000Y-89400000D01*
X88900000Y-89400000D02*
X88900000Y-78240000D01*
X88900000Y-78240000D02*
X78740000Y-78240000D01*
X78740000Y-78240000D02*
X78740000Y-89400000D01*
%TO.C,U1*%
X79820000Y-101600000D02*
X87820000Y-101600000D01*
X87820000Y-101600000D02*
X87820000Y-107600000D01*
X87820000Y-107600000D02*
X79820000Y-107600000D01*
X79820000Y-107600000D02*
X79820000Y-101600000D01*
X92710000Y-144780000D02*
X92710000Y-101600000D01*
X92710000Y-101600000D02*
X74930000Y-101600000D01*
X74930000Y-101600000D02*
X74930000Y-144780000D01*
X74930000Y-144780000D02*
X92710000Y-144780000D01*
%TO.C,R1*%
X58960000Y-69750000D02*
X58960000Y-72490000D01*
X58960000Y-72490000D02*
X65500000Y-72490000D01*
X66270000Y-71120000D02*
X65500000Y-71120000D01*
X58190000Y-71120000D02*
X58960000Y-71120000D01*
X65500000Y-69750000D02*
X58960000Y-69750000D01*
X65500000Y-72490000D02*
X65500000Y-69750000D01*
%TO.C,C1*%
X47967000Y-71390000D02*
X47952000Y-71390000D01*
X47952000Y-71390000D02*
X47952000Y-75930000D01*
X50092000Y-71390000D02*
X50077000Y-71390000D01*
X47967000Y-75930000D02*
X47952000Y-75930000D01*
X50092000Y-75930000D02*
X50077000Y-75930000D01*
X50092000Y-71390000D02*
X50092000Y-75930000D01*
%TO.C,J3*%
X40640000Y-102870000D02*
X48260000Y-102870000D01*
X40640000Y-92710000D02*
X40640000Y-102870000D01*
X41910000Y-102870000D02*
X41910000Y-92710000D01*
X48260000Y-102870000D02*
X48260000Y-92710000D01*
X48260000Y-92710000D02*
X40640000Y-92710000D01*
%TD*%
%LPC*%
D12*
%TO.C,U3*%
X71120000Y-106680000D03*
X71120000Y-104140000D03*
X71120000Y-101600000D03*
X71120000Y-99060000D03*
X71120000Y-96520000D03*
X71120000Y-93980000D03*
X71120000Y-91440000D03*
X71120000Y-88900000D03*
X71120000Y-86360000D03*
X71120000Y-83820000D03*
X55880000Y-88900000D03*
X55880000Y-91440000D03*
X55880000Y-93980000D03*
X55880000Y-96520000D03*
X55880000Y-99060000D03*
X55880000Y-101600000D03*
%TD*%
D13*
%TO.C,REF\u002A\u002A*%
X43000000Y-64500000D03*
%TD*%
%TO.C,REF\u002A\u002A*%
X91000000Y-64500000D03*
%TD*%
%TO.C,REF\u002A\u002A*%
X91000000Y-153000000D03*
%TD*%
%TO.C,REF\u002A\u002A*%
X43000000Y-153000000D03*
%TD*%
D14*
%TO.C,J1*%
X45090000Y-73160000D03*
D15*
X45090000Y-75160000D03*
X45090000Y-76360000D03*
D14*
X45090000Y-74160000D03*
D15*
X45090000Y-72160000D03*
X45090000Y-70960000D03*
D16*
X41240000Y-69340000D03*
X41240000Y-77980000D03*
D17*
X45040000Y-77980000D03*
X45040000Y-69340000D03*
%TD*%
D12*
%TO.C,U2*%
X68580000Y-144780000D03*
X68580000Y-142240000D03*
X68580000Y-139700000D03*
X68580000Y-137160000D03*
X68580000Y-134620000D03*
X68580000Y-132080000D03*
X68580000Y-129540000D03*
X68580000Y-127000000D03*
X68580000Y-124460000D03*
X43180000Y-144780000D03*
X43180000Y-142240000D03*
X43180000Y-139700000D03*
X43180000Y-137160000D03*
X43180000Y-134620000D03*
%TD*%
D18*
%TO.C,R2*%
X67310000Y-74930000D03*
D19*
X57150000Y-74930000D03*
%TD*%
D20*
%TO.C,J2*%
X44450000Y-82550000D03*
D21*
X44450000Y-87630000D03*
%TD*%
D12*
%TO.C,RV1*%
X81280000Y-88400000D03*
X83820000Y-88400000D03*
X86360000Y-88400000D03*
%TD*%
%TO.C,U1*%
X91440000Y-106680000D03*
X91440000Y-109220000D03*
X91440000Y-111760000D03*
X91440000Y-114300000D03*
X91440000Y-116840000D03*
X91440000Y-119380000D03*
X91440000Y-121920000D03*
X91440000Y-124460000D03*
X91440000Y-127000000D03*
X91440000Y-129540000D03*
X91440000Y-132080000D03*
X91440000Y-134620000D03*
X91440000Y-137160000D03*
X91440000Y-139700000D03*
X76200000Y-139700000D03*
X76200000Y-137160000D03*
X76200000Y-134620000D03*
X76200000Y-132080000D03*
X76200000Y-129540000D03*
X76200000Y-127000000D03*
X76200000Y-124460000D03*
X76200000Y-121920000D03*
X76200000Y-119380000D03*
X76200000Y-116840000D03*
X76200000Y-114300000D03*
X76200000Y-111760000D03*
X76200000Y-109220000D03*
X76200000Y-106680000D03*
%TD*%
D18*
%TO.C,R1*%
X67310000Y-71120000D03*
D19*
X57150000Y-71120000D03*
%TD*%
%TO.C,C1*%
X49022000Y-71160000D03*
X49022000Y-76160000D03*
%TD*%
D21*
%TO.C,J3*%
X44450000Y-100330000D03*
D20*
X44450000Y-95250000D03*
%TD*%
%LPD*%
M02*
