%TF.GenerationSoftware,KiCad,Pcbnew,7.0.7*%
%TF.CreationDate,2023-09-28T15:46:00-05:00*%
%TF.ProjectId,iowa-rover-kiosk-mega-adapter,696f7761-2d72-46f7-9665-722d6b696f73,rev?*%
%TF.SameCoordinates,Original*%
%TF.FileFunction,Legend,Top*%
%TF.FilePolarity,Positive*%
%FSLAX46Y46*%
G04 Gerber Fmt 4.6, Leading zero omitted, Abs format (unit mm)*
G04 Created by KiCad (PCBNEW 7.0.7) date 2023-09-28 15:46:00*
%MOMM*%
%LPD*%
G01*
G04 APERTURE LIST*
%ADD10C,0.150000*%
%ADD11C,0.120000*%
%ADD12C,0.100000*%
%ADD13O,1.727200X1.727200*%
%ADD14R,1.727200X1.727200*%
%ADD15C,3.200000*%
%ADD16R,1.700000X1.700000*%
%ADD17O,1.700000X1.700000*%
G04 APERTURE END LIST*
D10*
X156210000Y-69850000D02*
X154940000Y-70485000D01*
X154940000Y-69215000D01*
X156210000Y-69850000D01*
G36*
X156210000Y-69850000D02*
G01*
X154940000Y-70485000D01*
X154940000Y-69215000D01*
X156210000Y-69850000D01*
G37*
X180460895Y-75854160D02*
X180460895Y-76330350D01*
X180175180Y-75758922D02*
X181175180Y-76092255D01*
X181175180Y-76092255D02*
X180175180Y-76425588D01*
X180175180Y-76758922D02*
X180841847Y-76758922D01*
X180651371Y-76758922D02*
X180746609Y-76806541D01*
X180746609Y-76806541D02*
X180794228Y-76854160D01*
X180794228Y-76854160D02*
X180841847Y-76949398D01*
X180841847Y-76949398D02*
X180841847Y-77044636D01*
X180175180Y-77806541D02*
X181175180Y-77806541D01*
X180222800Y-77806541D02*
X180175180Y-77711303D01*
X180175180Y-77711303D02*
X180175180Y-77520827D01*
X180175180Y-77520827D02*
X180222800Y-77425589D01*
X180222800Y-77425589D02*
X180270419Y-77377970D01*
X180270419Y-77377970D02*
X180365657Y-77330351D01*
X180365657Y-77330351D02*
X180651371Y-77330351D01*
X180651371Y-77330351D02*
X180746609Y-77377970D01*
X180746609Y-77377970D02*
X180794228Y-77425589D01*
X180794228Y-77425589D02*
X180841847Y-77520827D01*
X180841847Y-77520827D02*
X180841847Y-77711303D01*
X180841847Y-77711303D02*
X180794228Y-77806541D01*
X180841847Y-78711303D02*
X180175180Y-78711303D01*
X180841847Y-78282732D02*
X180318038Y-78282732D01*
X180318038Y-78282732D02*
X180222800Y-78330351D01*
X180222800Y-78330351D02*
X180175180Y-78425589D01*
X180175180Y-78425589D02*
X180175180Y-78568446D01*
X180175180Y-78568446D02*
X180222800Y-78663684D01*
X180222800Y-78663684D02*
X180270419Y-78711303D01*
X180175180Y-79187494D02*
X180841847Y-79187494D01*
X181175180Y-79187494D02*
X181127561Y-79139875D01*
X181127561Y-79139875D02*
X181079942Y-79187494D01*
X181079942Y-79187494D02*
X181127561Y-79235113D01*
X181127561Y-79235113D02*
X181175180Y-79187494D01*
X181175180Y-79187494D02*
X181079942Y-79187494D01*
X180841847Y-79663684D02*
X180175180Y-79663684D01*
X180746609Y-79663684D02*
X180794228Y-79711303D01*
X180794228Y-79711303D02*
X180841847Y-79806541D01*
X180841847Y-79806541D02*
X180841847Y-79949398D01*
X180841847Y-79949398D02*
X180794228Y-80044636D01*
X180794228Y-80044636D02*
X180698990Y-80092255D01*
X180698990Y-80092255D02*
X180175180Y-80092255D01*
X180175180Y-80711303D02*
X180222800Y-80616065D01*
X180222800Y-80616065D02*
X180270419Y-80568446D01*
X180270419Y-80568446D02*
X180365657Y-80520827D01*
X180365657Y-80520827D02*
X180651371Y-80520827D01*
X180651371Y-80520827D02*
X180746609Y-80568446D01*
X180746609Y-80568446D02*
X180794228Y-80616065D01*
X180794228Y-80616065D02*
X180841847Y-80711303D01*
X180841847Y-80711303D02*
X180841847Y-80854160D01*
X180841847Y-80854160D02*
X180794228Y-80949398D01*
X180794228Y-80949398D02*
X180746609Y-80997017D01*
X180746609Y-80997017D02*
X180651371Y-81044636D01*
X180651371Y-81044636D02*
X180365657Y-81044636D01*
X180365657Y-81044636D02*
X180270419Y-80997017D01*
X180270419Y-80997017D02*
X180222800Y-80949398D01*
X180222800Y-80949398D02*
X180175180Y-80854160D01*
X180175180Y-80854160D02*
X180175180Y-80711303D01*
X180175180Y-82235113D02*
X181175180Y-82235113D01*
X181175180Y-82235113D02*
X180460895Y-82568446D01*
X180460895Y-82568446D02*
X181175180Y-82901779D01*
X181175180Y-82901779D02*
X180175180Y-82901779D01*
X180222800Y-83758922D02*
X180175180Y-83663684D01*
X180175180Y-83663684D02*
X180175180Y-83473208D01*
X180175180Y-83473208D02*
X180222800Y-83377970D01*
X180222800Y-83377970D02*
X180318038Y-83330351D01*
X180318038Y-83330351D02*
X180698990Y-83330351D01*
X180698990Y-83330351D02*
X180794228Y-83377970D01*
X180794228Y-83377970D02*
X180841847Y-83473208D01*
X180841847Y-83473208D02*
X180841847Y-83663684D01*
X180841847Y-83663684D02*
X180794228Y-83758922D01*
X180794228Y-83758922D02*
X180698990Y-83806541D01*
X180698990Y-83806541D02*
X180603752Y-83806541D01*
X180603752Y-83806541D02*
X180508514Y-83330351D01*
X180841847Y-84663684D02*
X180032323Y-84663684D01*
X180032323Y-84663684D02*
X179937085Y-84616065D01*
X179937085Y-84616065D02*
X179889466Y-84568446D01*
X179889466Y-84568446D02*
X179841847Y-84473208D01*
X179841847Y-84473208D02*
X179841847Y-84330351D01*
X179841847Y-84330351D02*
X179889466Y-84235113D01*
X180222800Y-84663684D02*
X180175180Y-84568446D01*
X180175180Y-84568446D02*
X180175180Y-84377970D01*
X180175180Y-84377970D02*
X180222800Y-84282732D01*
X180222800Y-84282732D02*
X180270419Y-84235113D01*
X180270419Y-84235113D02*
X180365657Y-84187494D01*
X180365657Y-84187494D02*
X180651371Y-84187494D01*
X180651371Y-84187494D02*
X180746609Y-84235113D01*
X180746609Y-84235113D02*
X180794228Y-84282732D01*
X180794228Y-84282732D02*
X180841847Y-84377970D01*
X180841847Y-84377970D02*
X180841847Y-84568446D01*
X180841847Y-84568446D02*
X180794228Y-84663684D01*
X180175180Y-85568446D02*
X180698990Y-85568446D01*
X180698990Y-85568446D02*
X180794228Y-85520827D01*
X180794228Y-85520827D02*
X180841847Y-85425589D01*
X180841847Y-85425589D02*
X180841847Y-85235113D01*
X180841847Y-85235113D02*
X180794228Y-85139875D01*
X180222800Y-85568446D02*
X180175180Y-85473208D01*
X180175180Y-85473208D02*
X180175180Y-85235113D01*
X180175180Y-85235113D02*
X180222800Y-85139875D01*
X180222800Y-85139875D02*
X180318038Y-85092256D01*
X180318038Y-85092256D02*
X180413276Y-85092256D01*
X180413276Y-85092256D02*
X180508514Y-85139875D01*
X180508514Y-85139875D02*
X180556133Y-85235113D01*
X180556133Y-85235113D02*
X180556133Y-85473208D01*
X180556133Y-85473208D02*
X180603752Y-85568446D01*
X180460895Y-86758923D02*
X180460895Y-87235113D01*
X180175180Y-86663685D02*
X181175180Y-86997018D01*
X181175180Y-86997018D02*
X180175180Y-87330351D01*
X180175180Y-88092256D02*
X181175180Y-88092256D01*
X180222800Y-88092256D02*
X180175180Y-87997018D01*
X180175180Y-87997018D02*
X180175180Y-87806542D01*
X180175180Y-87806542D02*
X180222800Y-87711304D01*
X180222800Y-87711304D02*
X180270419Y-87663685D01*
X180270419Y-87663685D02*
X180365657Y-87616066D01*
X180365657Y-87616066D02*
X180651371Y-87616066D01*
X180651371Y-87616066D02*
X180746609Y-87663685D01*
X180746609Y-87663685D02*
X180794228Y-87711304D01*
X180794228Y-87711304D02*
X180841847Y-87806542D01*
X180841847Y-87806542D02*
X180841847Y-87997018D01*
X180841847Y-87997018D02*
X180794228Y-88092256D01*
X180175180Y-88997018D02*
X180698990Y-88997018D01*
X180698990Y-88997018D02*
X180794228Y-88949399D01*
X180794228Y-88949399D02*
X180841847Y-88854161D01*
X180841847Y-88854161D02*
X180841847Y-88663685D01*
X180841847Y-88663685D02*
X180794228Y-88568447D01*
X180222800Y-88997018D02*
X180175180Y-88901780D01*
X180175180Y-88901780D02*
X180175180Y-88663685D01*
X180175180Y-88663685D02*
X180222800Y-88568447D01*
X180222800Y-88568447D02*
X180318038Y-88520828D01*
X180318038Y-88520828D02*
X180413276Y-88520828D01*
X180413276Y-88520828D02*
X180508514Y-88568447D01*
X180508514Y-88568447D02*
X180556133Y-88663685D01*
X180556133Y-88663685D02*
X180556133Y-88901780D01*
X180556133Y-88901780D02*
X180603752Y-88997018D01*
X180841847Y-89473209D02*
X179841847Y-89473209D01*
X180794228Y-89473209D02*
X180841847Y-89568447D01*
X180841847Y-89568447D02*
X180841847Y-89758923D01*
X180841847Y-89758923D02*
X180794228Y-89854161D01*
X180794228Y-89854161D02*
X180746609Y-89901780D01*
X180746609Y-89901780D02*
X180651371Y-89949399D01*
X180651371Y-89949399D02*
X180365657Y-89949399D01*
X180365657Y-89949399D02*
X180270419Y-89901780D01*
X180270419Y-89901780D02*
X180222800Y-89854161D01*
X180222800Y-89854161D02*
X180175180Y-89758923D01*
X180175180Y-89758923D02*
X180175180Y-89568447D01*
X180175180Y-89568447D02*
X180222800Y-89473209D01*
X180841847Y-90235114D02*
X180841847Y-90616066D01*
X181175180Y-90377971D02*
X180318038Y-90377971D01*
X180318038Y-90377971D02*
X180222800Y-90425590D01*
X180222800Y-90425590D02*
X180175180Y-90520828D01*
X180175180Y-90520828D02*
X180175180Y-90616066D01*
X180222800Y-91330352D02*
X180175180Y-91235114D01*
X180175180Y-91235114D02*
X180175180Y-91044638D01*
X180175180Y-91044638D02*
X180222800Y-90949400D01*
X180222800Y-90949400D02*
X180318038Y-90901781D01*
X180318038Y-90901781D02*
X180698990Y-90901781D01*
X180698990Y-90901781D02*
X180794228Y-90949400D01*
X180794228Y-90949400D02*
X180841847Y-91044638D01*
X180841847Y-91044638D02*
X180841847Y-91235114D01*
X180841847Y-91235114D02*
X180794228Y-91330352D01*
X180794228Y-91330352D02*
X180698990Y-91377971D01*
X180698990Y-91377971D02*
X180603752Y-91377971D01*
X180603752Y-91377971D02*
X180508514Y-90901781D01*
X180175180Y-91806543D02*
X180841847Y-91806543D01*
X180651371Y-91806543D02*
X180746609Y-91854162D01*
X180746609Y-91854162D02*
X180794228Y-91901781D01*
X180794228Y-91901781D02*
X180841847Y-91997019D01*
X180841847Y-91997019D02*
X180841847Y-92092257D01*
X178565180Y-76473207D02*
X179041371Y-76139874D01*
X178565180Y-75901779D02*
X179565180Y-75901779D01*
X179565180Y-75901779D02*
X179565180Y-76282731D01*
X179565180Y-76282731D02*
X179517561Y-76377969D01*
X179517561Y-76377969D02*
X179469942Y-76425588D01*
X179469942Y-76425588D02*
X179374704Y-76473207D01*
X179374704Y-76473207D02*
X179231847Y-76473207D01*
X179231847Y-76473207D02*
X179136609Y-76425588D01*
X179136609Y-76425588D02*
X179088990Y-76377969D01*
X179088990Y-76377969D02*
X179041371Y-76282731D01*
X179041371Y-76282731D02*
X179041371Y-75901779D01*
X178565180Y-77044636D02*
X178612800Y-76949398D01*
X178612800Y-76949398D02*
X178660419Y-76901779D01*
X178660419Y-76901779D02*
X178755657Y-76854160D01*
X178755657Y-76854160D02*
X179041371Y-76854160D01*
X179041371Y-76854160D02*
X179136609Y-76901779D01*
X179136609Y-76901779D02*
X179184228Y-76949398D01*
X179184228Y-76949398D02*
X179231847Y-77044636D01*
X179231847Y-77044636D02*
X179231847Y-77187493D01*
X179231847Y-77187493D02*
X179184228Y-77282731D01*
X179184228Y-77282731D02*
X179136609Y-77330350D01*
X179136609Y-77330350D02*
X179041371Y-77377969D01*
X179041371Y-77377969D02*
X178755657Y-77377969D01*
X178755657Y-77377969D02*
X178660419Y-77330350D01*
X178660419Y-77330350D02*
X178612800Y-77282731D01*
X178612800Y-77282731D02*
X178565180Y-77187493D01*
X178565180Y-77187493D02*
X178565180Y-77044636D01*
X179231847Y-77711303D02*
X178565180Y-77949398D01*
X178565180Y-77949398D02*
X179231847Y-78187493D01*
X178612800Y-78949398D02*
X178565180Y-78854160D01*
X178565180Y-78854160D02*
X178565180Y-78663684D01*
X178565180Y-78663684D02*
X178612800Y-78568446D01*
X178612800Y-78568446D02*
X178708038Y-78520827D01*
X178708038Y-78520827D02*
X179088990Y-78520827D01*
X179088990Y-78520827D02*
X179184228Y-78568446D01*
X179184228Y-78568446D02*
X179231847Y-78663684D01*
X179231847Y-78663684D02*
X179231847Y-78854160D01*
X179231847Y-78854160D02*
X179184228Y-78949398D01*
X179184228Y-78949398D02*
X179088990Y-78997017D01*
X179088990Y-78997017D02*
X178993752Y-78997017D01*
X178993752Y-78997017D02*
X178898514Y-78520827D01*
X178565180Y-79425589D02*
X179231847Y-79425589D01*
X179041371Y-79425589D02*
X179136609Y-79473208D01*
X179136609Y-79473208D02*
X179184228Y-79520827D01*
X179184228Y-79520827D02*
X179231847Y-79616065D01*
X179231847Y-79616065D02*
X179231847Y-79711303D01*
X178565180Y-80806542D02*
X179565180Y-80806542D01*
X178565180Y-81377970D02*
X179136609Y-80949399D01*
X179565180Y-81377970D02*
X178993752Y-80806542D01*
X178565180Y-81806542D02*
X179231847Y-81806542D01*
X179565180Y-81806542D02*
X179517561Y-81758923D01*
X179517561Y-81758923D02*
X179469942Y-81806542D01*
X179469942Y-81806542D02*
X179517561Y-81854161D01*
X179517561Y-81854161D02*
X179565180Y-81806542D01*
X179565180Y-81806542D02*
X179469942Y-81806542D01*
X178565180Y-82425589D02*
X178612800Y-82330351D01*
X178612800Y-82330351D02*
X178660419Y-82282732D01*
X178660419Y-82282732D02*
X178755657Y-82235113D01*
X178755657Y-82235113D02*
X179041371Y-82235113D01*
X179041371Y-82235113D02*
X179136609Y-82282732D01*
X179136609Y-82282732D02*
X179184228Y-82330351D01*
X179184228Y-82330351D02*
X179231847Y-82425589D01*
X179231847Y-82425589D02*
X179231847Y-82568446D01*
X179231847Y-82568446D02*
X179184228Y-82663684D01*
X179184228Y-82663684D02*
X179136609Y-82711303D01*
X179136609Y-82711303D02*
X179041371Y-82758922D01*
X179041371Y-82758922D02*
X178755657Y-82758922D01*
X178755657Y-82758922D02*
X178660419Y-82711303D01*
X178660419Y-82711303D02*
X178612800Y-82663684D01*
X178612800Y-82663684D02*
X178565180Y-82568446D01*
X178565180Y-82568446D02*
X178565180Y-82425589D01*
X178612800Y-83139875D02*
X178565180Y-83235113D01*
X178565180Y-83235113D02*
X178565180Y-83425589D01*
X178565180Y-83425589D02*
X178612800Y-83520827D01*
X178612800Y-83520827D02*
X178708038Y-83568446D01*
X178708038Y-83568446D02*
X178755657Y-83568446D01*
X178755657Y-83568446D02*
X178850895Y-83520827D01*
X178850895Y-83520827D02*
X178898514Y-83425589D01*
X178898514Y-83425589D02*
X178898514Y-83282732D01*
X178898514Y-83282732D02*
X178946133Y-83187494D01*
X178946133Y-83187494D02*
X179041371Y-83139875D01*
X179041371Y-83139875D02*
X179088990Y-83139875D01*
X179088990Y-83139875D02*
X179184228Y-83187494D01*
X179184228Y-83187494D02*
X179231847Y-83282732D01*
X179231847Y-83282732D02*
X179231847Y-83425589D01*
X179231847Y-83425589D02*
X179184228Y-83520827D01*
X178565180Y-83997018D02*
X179565180Y-83997018D01*
X178946133Y-84092256D02*
X178565180Y-84377970D01*
X179231847Y-84377970D02*
X178850895Y-83997018D01*
X178612800Y-84854161D02*
X178565180Y-84854161D01*
X178565180Y-84854161D02*
X178469942Y-84806542D01*
X178469942Y-84806542D02*
X178422323Y-84758923D01*
X178565180Y-86616065D02*
X179041371Y-86282732D01*
X178565180Y-86044637D02*
X179565180Y-86044637D01*
X179565180Y-86044637D02*
X179565180Y-86425589D01*
X179565180Y-86425589D02*
X179517561Y-86520827D01*
X179517561Y-86520827D02*
X179469942Y-86568446D01*
X179469942Y-86568446D02*
X179374704Y-86616065D01*
X179374704Y-86616065D02*
X179231847Y-86616065D01*
X179231847Y-86616065D02*
X179136609Y-86568446D01*
X179136609Y-86568446D02*
X179088990Y-86520827D01*
X179088990Y-86520827D02*
X179041371Y-86425589D01*
X179041371Y-86425589D02*
X179041371Y-86044637D01*
X178612800Y-87425589D02*
X178565180Y-87330351D01*
X178565180Y-87330351D02*
X178565180Y-87139875D01*
X178565180Y-87139875D02*
X178612800Y-87044637D01*
X178612800Y-87044637D02*
X178708038Y-86997018D01*
X178708038Y-86997018D02*
X179088990Y-86997018D01*
X179088990Y-86997018D02*
X179184228Y-87044637D01*
X179184228Y-87044637D02*
X179231847Y-87139875D01*
X179231847Y-87139875D02*
X179231847Y-87330351D01*
X179231847Y-87330351D02*
X179184228Y-87425589D01*
X179184228Y-87425589D02*
X179088990Y-87473208D01*
X179088990Y-87473208D02*
X178993752Y-87473208D01*
X178993752Y-87473208D02*
X178898514Y-86997018D01*
X179231847Y-87806542D02*
X178565180Y-88044637D01*
X178565180Y-88044637D02*
X179231847Y-88282732D01*
X179565180Y-89616066D02*
X179565180Y-89711304D01*
X179565180Y-89711304D02*
X179517561Y-89806542D01*
X179517561Y-89806542D02*
X179469942Y-89854161D01*
X179469942Y-89854161D02*
X179374704Y-89901780D01*
X179374704Y-89901780D02*
X179184228Y-89949399D01*
X179184228Y-89949399D02*
X178946133Y-89949399D01*
X178946133Y-89949399D02*
X178755657Y-89901780D01*
X178755657Y-89901780D02*
X178660419Y-89854161D01*
X178660419Y-89854161D02*
X178612800Y-89806542D01*
X178612800Y-89806542D02*
X178565180Y-89711304D01*
X178565180Y-89711304D02*
X178565180Y-89616066D01*
X178565180Y-89616066D02*
X178612800Y-89520828D01*
X178612800Y-89520828D02*
X178660419Y-89473209D01*
X178660419Y-89473209D02*
X178755657Y-89425590D01*
X178755657Y-89425590D02*
X178946133Y-89377971D01*
X178946133Y-89377971D02*
X179184228Y-89377971D01*
X179184228Y-89377971D02*
X179374704Y-89425590D01*
X179374704Y-89425590D02*
X179469942Y-89473209D01*
X179469942Y-89473209D02*
X179517561Y-89520828D01*
X179517561Y-89520828D02*
X179565180Y-89616066D01*
X193860180Y-101486905D02*
X194860180Y-101486905D01*
X194860180Y-101486905D02*
X194860180Y-101725000D01*
X194860180Y-101725000D02*
X194812561Y-101867857D01*
X194812561Y-101867857D02*
X194717323Y-101963095D01*
X194717323Y-101963095D02*
X194622085Y-102010714D01*
X194622085Y-102010714D02*
X194431609Y-102058333D01*
X194431609Y-102058333D02*
X194288752Y-102058333D01*
X194288752Y-102058333D02*
X194098276Y-102010714D01*
X194098276Y-102010714D02*
X194003038Y-101963095D01*
X194003038Y-101963095D02*
X193907800Y-101867857D01*
X193907800Y-101867857D02*
X193860180Y-101725000D01*
X193860180Y-101725000D02*
X193860180Y-101486905D01*
X194860180Y-102677381D02*
X194860180Y-102772619D01*
X194860180Y-102772619D02*
X194812561Y-102867857D01*
X194812561Y-102867857D02*
X194764942Y-102915476D01*
X194764942Y-102915476D02*
X194669704Y-102963095D01*
X194669704Y-102963095D02*
X194479228Y-103010714D01*
X194479228Y-103010714D02*
X194241133Y-103010714D01*
X194241133Y-103010714D02*
X194050657Y-102963095D01*
X194050657Y-102963095D02*
X193955419Y-102915476D01*
X193955419Y-102915476D02*
X193907800Y-102867857D01*
X193907800Y-102867857D02*
X193860180Y-102772619D01*
X193860180Y-102772619D02*
X193860180Y-102677381D01*
X193860180Y-102677381D02*
X193907800Y-102582143D01*
X193907800Y-102582143D02*
X193955419Y-102534524D01*
X193955419Y-102534524D02*
X194050657Y-102486905D01*
X194050657Y-102486905D02*
X194241133Y-102439286D01*
X194241133Y-102439286D02*
X194479228Y-102439286D01*
X194479228Y-102439286D02*
X194669704Y-102486905D01*
X194669704Y-102486905D02*
X194764942Y-102534524D01*
X194764942Y-102534524D02*
X194812561Y-102582143D01*
X194812561Y-102582143D02*
X194860180Y-102677381D01*
X160956666Y-66974819D02*
X160956666Y-67689104D01*
X160956666Y-67689104D02*
X160909047Y-67831961D01*
X160909047Y-67831961D02*
X160813809Y-67927200D01*
X160813809Y-67927200D02*
X160670952Y-67974819D01*
X160670952Y-67974819D02*
X160575714Y-67974819D01*
X161956666Y-67974819D02*
X161385238Y-67974819D01*
X161670952Y-67974819D02*
X161670952Y-66974819D01*
X161670952Y-66974819D02*
X161575714Y-67117676D01*
X161575714Y-67117676D02*
X161480476Y-67212914D01*
X161480476Y-67212914D02*
X161385238Y-67260533D01*
%TO.C,G\u002A\u002A\u002A*%
G36*
X179317548Y-69018995D02*
G01*
X179323712Y-69053383D01*
X179326314Y-69074981D01*
X179326314Y-69075096D01*
X179313085Y-69079302D01*
X179276575Y-69082887D01*
X179221555Y-69085581D01*
X179152793Y-69087116D01*
X179108920Y-69087369D01*
X178891527Y-69087369D01*
X178891527Y-68975165D01*
X179308782Y-68975165D01*
X179317548Y-69018995D01*
G37*
G36*
X179466198Y-68969712D02*
G01*
X179477788Y-68977970D01*
X179490748Y-69004197D01*
X179494619Y-69031267D01*
X179484331Y-69074237D01*
X179454782Y-69097633D01*
X179429701Y-69101394D01*
X179388393Y-69089969D01*
X179363037Y-69060543D01*
X179357415Y-69020385D01*
X179369514Y-68985684D01*
X179394287Y-68967210D01*
X179431005Y-68961566D01*
X179466198Y-68969712D01*
G37*
G36*
X182478541Y-68781516D02*
G01*
X182525201Y-68819767D01*
X182529536Y-68825330D01*
X182553414Y-68877821D01*
X182553701Y-68932704D01*
X182532986Y-68982909D01*
X182493861Y-69021367D01*
X182451291Y-69038870D01*
X182395488Y-69039127D01*
X182347788Y-69017936D01*
X182311596Y-68981042D01*
X182290315Y-68934192D01*
X182287350Y-68883132D01*
X182306106Y-68833608D01*
X182319542Y-68816488D01*
X182369811Y-68779629D01*
X182424777Y-68768054D01*
X182478541Y-68781516D01*
G37*
G36*
X182192522Y-68824978D02*
G01*
X182198664Y-68856798D01*
X182205762Y-68903947D01*
X182209999Y-68937181D01*
X182219409Y-69017242D01*
X181891387Y-69017550D01*
X181784565Y-69017871D01*
X181701828Y-69018791D01*
X181639209Y-69020581D01*
X181592746Y-69023511D01*
X181558472Y-69027854D01*
X181532422Y-69033879D01*
X181510633Y-69041858D01*
X181506019Y-69043902D01*
X181448672Y-69069947D01*
X181404334Y-68995820D01*
X181380922Y-68954747D01*
X181364854Y-68922866D01*
X181359997Y-68908977D01*
X181369493Y-68892017D01*
X181392903Y-68866502D01*
X181398567Y-68861219D01*
X181422703Y-68840637D01*
X181446863Y-68824647D01*
X181474849Y-68812672D01*
X181510468Y-68804137D01*
X181557523Y-68798465D01*
X181619819Y-68795079D01*
X181701160Y-68793404D01*
X181805350Y-68792863D01*
X181850026Y-68792835D01*
X182184455Y-68792835D01*
X182192522Y-68824978D01*
G37*
G36*
X179101908Y-71200821D02*
G01*
X179181812Y-71211062D01*
X179247957Y-71240646D01*
X179295666Y-71286899D01*
X179321975Y-71347370D01*
X179326262Y-71387753D01*
X179313975Y-71458914D01*
X179278795Y-71516322D01*
X179223484Y-71557563D01*
X179150808Y-71580218D01*
X179101908Y-71583890D01*
X179021890Y-71573196D01*
X178957088Y-71543495D01*
X178910050Y-71498356D01*
X178883323Y-71441349D01*
X178880601Y-71395387D01*
X178975679Y-71395387D01*
X178986039Y-71427625D01*
X179011656Y-71443983D01*
X179050397Y-71453238D01*
X179097035Y-71457609D01*
X179101908Y-71457661D01*
X179168304Y-71451419D01*
X179210422Y-71432874D01*
X179227705Y-71402301D01*
X179228136Y-71395387D01*
X179218645Y-71362610D01*
X179188573Y-71342044D01*
X179135529Y-71332476D01*
X179101908Y-71331433D01*
X179037215Y-71336242D01*
X178996623Y-71351477D01*
X178977737Y-71378353D01*
X178975679Y-71395387D01*
X178880601Y-71395387D01*
X178879455Y-71376045D01*
X178900993Y-71306013D01*
X178902067Y-71303859D01*
X178944511Y-71249031D01*
X179005945Y-71214593D01*
X179085766Y-71200857D01*
X179100193Y-71200601D01*
X179101908Y-71200821D01*
G37*
G36*
X179038159Y-67077031D02*
G01*
X179120313Y-67088578D01*
X179194276Y-67119247D01*
X179254411Y-67165097D01*
X179297444Y-67222520D01*
X179320101Y-67287908D01*
X179319111Y-67357652D01*
X179312717Y-67381983D01*
X179288032Y-67430830D01*
X179250031Y-67460234D01*
X179193818Y-67473188D01*
X179161451Y-67474447D01*
X179070254Y-67463562D01*
X178993447Y-67432539D01*
X178933877Y-67383830D01*
X178894389Y-67319888D01*
X178879284Y-67249893D01*
X178963491Y-67249893D01*
X178975519Y-67277793D01*
X179001373Y-67302562D01*
X179045774Y-67324480D01*
X179099220Y-67340163D01*
X179152212Y-67346226D01*
X179166130Y-67345702D01*
X179202016Y-67340440D01*
X179217724Y-67328827D01*
X179221124Y-67306143D01*
X179214963Y-67280701D01*
X179192540Y-67258845D01*
X179158544Y-67239522D01*
X179107012Y-67219850D01*
X179053660Y-67208852D01*
X179038159Y-67207965D01*
X178989169Y-67211748D01*
X178965065Y-67224849D01*
X178963491Y-67249893D01*
X178879284Y-67249893D01*
X178877832Y-67243163D01*
X178877501Y-67229921D01*
X178882613Y-67179880D01*
X178901903Y-67140701D01*
X178918043Y-67120957D01*
X178944810Y-67094338D01*
X178970662Y-67081007D01*
X179006881Y-67076726D01*
X179035793Y-67076698D01*
X179038159Y-67077031D01*
G37*
G36*
X179314427Y-69269092D02*
G01*
X179323238Y-69303505D01*
X179319122Y-69322402D01*
X179308754Y-69331230D01*
X179295700Y-69343162D01*
X179296117Y-69360524D01*
X179309225Y-69391273D01*
X179322873Y-69444048D01*
X179317589Y-69496548D01*
X179295449Y-69539794D01*
X179270212Y-69560171D01*
X179238207Y-69568861D01*
X179185243Y-69575092D01*
X179118359Y-69578107D01*
X179101908Y-69578266D01*
X179041695Y-69579749D01*
X178990893Y-69583378D01*
X178956895Y-69588512D01*
X178948310Y-69591564D01*
X178929475Y-69593772D01*
X178909261Y-69573149D01*
X178902728Y-69562960D01*
X178884505Y-69532345D01*
X178880236Y-69515295D01*
X178890534Y-69500697D01*
X178906991Y-69485760D01*
X178926713Y-69472644D01*
X178955373Y-69463844D01*
X178999047Y-69458221D01*
X179063807Y-69454638D01*
X179075296Y-69454221D01*
X179139145Y-69451477D01*
X179179943Y-69447864D01*
X179202692Y-69442287D01*
X179212389Y-69433651D01*
X179214111Y-69423811D01*
X179212521Y-69394397D01*
X179204666Y-69374629D01*
X179185916Y-69362600D01*
X179151641Y-69356402D01*
X179097212Y-69354129D01*
X179044305Y-69353851D01*
X178891527Y-69353851D01*
X178891527Y-69229064D01*
X179298451Y-69220610D01*
X179314427Y-69269092D01*
G37*
G36*
X179314427Y-69774007D02*
G01*
X179323238Y-69808420D01*
X179319122Y-69827317D01*
X179308754Y-69836145D01*
X179295700Y-69848077D01*
X179296117Y-69865439D01*
X179309225Y-69896187D01*
X179322873Y-69948962D01*
X179317589Y-70001462D01*
X179295449Y-70044708D01*
X179270212Y-70065085D01*
X179238207Y-70073775D01*
X179185243Y-70080006D01*
X179118359Y-70083021D01*
X179101908Y-70083180D01*
X179041695Y-70084664D01*
X178990893Y-70088292D01*
X178956895Y-70093426D01*
X178948310Y-70096479D01*
X178929475Y-70098686D01*
X178909261Y-70078064D01*
X178902728Y-70067874D01*
X178884505Y-70037259D01*
X178880236Y-70020209D01*
X178890534Y-70005611D01*
X178906991Y-69990674D01*
X178926713Y-69977558D01*
X178955373Y-69968758D01*
X178999047Y-69963136D01*
X179063807Y-69959553D01*
X179075296Y-69959135D01*
X179139145Y-69956391D01*
X179179943Y-69952778D01*
X179202692Y-69947201D01*
X179212389Y-69938566D01*
X179214111Y-69928725D01*
X179212521Y-69899311D01*
X179204666Y-69879543D01*
X179185916Y-69867514D01*
X179151641Y-69861317D01*
X179097212Y-69859043D01*
X179044305Y-69858766D01*
X178891527Y-69858766D01*
X178891527Y-69733978D01*
X179298451Y-69725524D01*
X179314427Y-69774007D01*
G37*
G36*
X179305051Y-71688647D02*
G01*
X179321242Y-71703106D01*
X179340111Y-71718766D01*
X179369063Y-71724144D01*
X179397795Y-71726130D01*
X179414320Y-71736697D01*
X179424520Y-71762759D01*
X179431792Y-71797884D01*
X179441639Y-71850372D01*
X179383977Y-71850372D01*
X179347360Y-71851919D01*
X179330830Y-71860422D01*
X179326448Y-71881675D01*
X179326314Y-71892449D01*
X179320456Y-71925252D01*
X179304354Y-71934525D01*
X179265474Y-71925217D01*
X179236993Y-71902095D01*
X179228136Y-71877403D01*
X179226277Y-71864284D01*
X179217180Y-71856313D01*
X179195565Y-71852511D01*
X179156154Y-71851900D01*
X179098401Y-71853352D01*
X178968666Y-71857385D01*
X178971111Y-71894523D01*
X178967263Y-71923437D01*
X178945274Y-71936805D01*
X178936047Y-71938867D01*
X178906634Y-71942396D01*
X178893004Y-71940607D01*
X178888582Y-71924662D01*
X178883447Y-71890063D01*
X178880801Y-71865753D01*
X178878684Y-71820921D01*
X178885416Y-71791733D01*
X178904307Y-71766331D01*
X178910243Y-71760254D01*
X178928559Y-71743748D01*
X178947990Y-71733219D01*
X178975080Y-71727333D01*
X179016371Y-71724754D01*
X179078406Y-71724147D01*
X179087245Y-71724144D01*
X179152818Y-71723453D01*
X179194969Y-71720924D01*
X179218305Y-71715867D01*
X179227432Y-71707596D01*
X179228136Y-71703106D01*
X179240546Y-71686481D01*
X179270653Y-71682068D01*
X179305051Y-71688647D01*
G37*
G36*
X178954502Y-70734447D02*
G01*
X178974888Y-70742038D01*
X179002742Y-70756348D01*
X179008553Y-70771559D01*
X179001195Y-70789178D01*
X178980335Y-70841305D01*
X178972526Y-70890683D01*
X178978984Y-70928046D01*
X178982254Y-70933483D01*
X179005771Y-70950953D01*
X179028532Y-70943205D01*
X179046795Y-70912911D01*
X179054568Y-70881855D01*
X179074499Y-70818466D01*
X179109181Y-70771724D01*
X179154652Y-70745993D01*
X179181216Y-70742366D01*
X179222937Y-70746486D01*
X179256253Y-70756435D01*
X179256964Y-70756807D01*
X179292630Y-70790626D01*
X179315880Y-70842803D01*
X179325309Y-70905897D01*
X179319512Y-70972466D01*
X179305983Y-71016333D01*
X179290950Y-71047445D01*
X179276489Y-71057152D01*
X179254006Y-71050557D01*
X179250800Y-71049113D01*
X179230857Y-71037211D01*
X179220841Y-71019527D01*
X179217925Y-70987760D01*
X179218536Y-70954420D01*
X179216402Y-70901961D01*
X179206922Y-70876048D01*
X179191949Y-70876732D01*
X179173337Y-70904060D01*
X179154604Y-70952747D01*
X179135870Y-71000007D01*
X179113916Y-71038817D01*
X179100455Y-71054431D01*
X179053161Y-71076703D01*
X178999293Y-71075272D01*
X178946166Y-71050806D01*
X178931364Y-71038984D01*
X178905205Y-71012143D01*
X178890936Y-70984375D01*
X178884263Y-70944921D01*
X178882371Y-70916262D01*
X178882972Y-70862225D01*
X178889069Y-70812436D01*
X178895350Y-70788955D01*
X178912878Y-70749609D01*
X178930133Y-70732891D01*
X178954502Y-70734447D01*
G37*
G36*
X181902931Y-68017122D02*
G01*
X182005555Y-68046523D01*
X182089456Y-68096027D01*
X182155459Y-68166045D01*
X182180755Y-68206565D01*
X182213572Y-68292300D01*
X182224187Y-68383345D01*
X182213148Y-68472917D01*
X182181007Y-68554229D01*
X182148945Y-68599568D01*
X182135030Y-68612155D01*
X182119681Y-68612860D01*
X182095409Y-68599826D01*
X182065330Y-68578830D01*
X182029258Y-68551803D01*
X182003377Y-68530335D01*
X181995568Y-68522170D01*
X181997330Y-68503894D01*
X182010033Y-68470757D01*
X182019910Y-68450747D01*
X182042379Y-68391914D01*
X182040659Y-68344335D01*
X182014088Y-68307176D01*
X181962003Y-68279602D01*
X181883744Y-68260780D01*
X181867221Y-68258311D01*
X181776416Y-68251514D01*
X181693514Y-68256258D01*
X181624056Y-68271625D01*
X181573582Y-68296694D01*
X181559859Y-68309336D01*
X181534172Y-68353214D01*
X181531910Y-68401963D01*
X181553181Y-68460009D01*
X181564072Y-68479734D01*
X181583285Y-68516814D01*
X181592925Y-68544234D01*
X181592737Y-68552267D01*
X181577807Y-68566458D01*
X181547869Y-68589572D01*
X181529041Y-68602980D01*
X181491711Y-68625026D01*
X181463246Y-68629467D01*
X181438894Y-68613871D01*
X181413907Y-68575810D01*
X181392966Y-68533365D01*
X181369251Y-68458504D01*
X181359709Y-68373145D01*
X181364577Y-68288430D01*
X181384088Y-68215500D01*
X181386164Y-68210781D01*
X181436228Y-68133431D01*
X181507189Y-68073925D01*
X181597778Y-68032917D01*
X181706726Y-68011061D01*
X181780759Y-68007413D01*
X181902931Y-68017122D01*
G37*
G36*
X179154505Y-70232668D02*
G01*
X179170888Y-70237931D01*
X179222520Y-70254516D01*
X179279065Y-70295473D01*
X179302638Y-70324053D01*
X179314749Y-70353515D01*
X179318996Y-70394961D01*
X179319301Y-70419573D01*
X179317011Y-70471303D01*
X179308140Y-70505653D01*
X179289685Y-70533063D01*
X179285279Y-70537889D01*
X179234321Y-70573958D01*
X179165956Y-70596212D01*
X179105414Y-70602034D01*
X179059831Y-70602112D01*
X179059831Y-70482896D01*
X179059196Y-70424600D01*
X179058836Y-70419782D01*
X179158009Y-70419782D01*
X179160866Y-70454916D01*
X179168003Y-70474455D01*
X179170888Y-70475883D01*
X179208484Y-70465164D01*
X179226767Y-70434653D01*
X179228136Y-70419782D01*
X179217197Y-70382939D01*
X179186064Y-70365022D01*
X179170888Y-70363680D01*
X179162822Y-70376125D01*
X179158337Y-70407215D01*
X179158009Y-70419782D01*
X179058836Y-70419782D01*
X179056530Y-70388961D01*
X179050694Y-70370601D01*
X179040550Y-70364139D01*
X179034586Y-70363680D01*
X179003474Y-70372560D01*
X178992509Y-70380510D01*
X178979766Y-70409068D01*
X178976310Y-70451820D01*
X178982234Y-70496463D01*
X178991480Y-70521277D01*
X178999496Y-70547384D01*
X178985370Y-70566737D01*
X178981787Y-70569444D01*
X178951019Y-70585794D01*
X178927894Y-70579801D01*
X178906415Y-70549169D01*
X178901137Y-70538522D01*
X178881179Y-70470903D01*
X178880559Y-70399897D01*
X178899077Y-70336475D01*
X178904984Y-70325791D01*
X178950310Y-70276540D01*
X179011563Y-70244234D01*
X179081907Y-70229425D01*
X179154505Y-70232668D01*
G37*
G36*
X180752648Y-72285160D02*
G01*
X180760553Y-72334560D01*
X180764473Y-72374027D01*
X180763731Y-72393857D01*
X180754797Y-72399828D01*
X180730807Y-72404391D01*
X180689140Y-72407688D01*
X180627173Y-72409859D01*
X180542287Y-72411045D01*
X180437566Y-72411388D01*
X180323045Y-72411893D01*
X180234516Y-72413475D01*
X180169938Y-72416235D01*
X180127269Y-72420277D01*
X180104469Y-72425702D01*
X180100516Y-72428219D01*
X180086244Y-72459529D01*
X180084641Y-72504180D01*
X180094831Y-72550948D01*
X180112754Y-72584814D01*
X180141823Y-72621769D01*
X180726606Y-72621769D01*
X180748768Y-72719210D01*
X180759689Y-72768240D01*
X180767604Y-72805706D01*
X180770912Y-72824011D01*
X180770930Y-72824400D01*
X180757543Y-72826559D01*
X180719936Y-72828486D01*
X180661940Y-72830094D01*
X180587383Y-72831294D01*
X180500097Y-72831999D01*
X180433870Y-72832150D01*
X180321638Y-72832480D01*
X180233854Y-72833601D01*
X180166922Y-72835714D01*
X180117245Y-72839021D01*
X180081228Y-72843720D01*
X180055274Y-72850014D01*
X180044941Y-72853823D01*
X180014255Y-72864856D01*
X179992044Y-72864764D01*
X179972854Y-72849810D01*
X179951230Y-72816259D01*
X179928959Y-72774376D01*
X179902656Y-72723615D01*
X179936419Y-72691896D01*
X179970182Y-72660178D01*
X179941225Y-72603419D01*
X179917035Y-72534202D01*
X179906443Y-72455092D01*
X179910370Y-72378466D01*
X179921332Y-72335341D01*
X179945598Y-72288284D01*
X179978900Y-72243521D01*
X179984937Y-72237164D01*
X180028088Y-72193995D01*
X180735619Y-72193995D01*
X180752648Y-72285160D01*
G37*
G36*
X181908478Y-70960742D02*
G01*
X182011991Y-70993251D01*
X182098073Y-71047159D01*
X182123363Y-71070287D01*
X182173449Y-71136555D01*
X182210106Y-71217026D01*
X182228401Y-71299902D01*
X182229572Y-71324267D01*
X182220984Y-71385798D01*
X182198343Y-71454702D01*
X182166331Y-71517476D01*
X182158593Y-71528985D01*
X182129100Y-71570404D01*
X182070639Y-71525562D01*
X182034935Y-71497963D01*
X182007885Y-71476671D01*
X181999413Y-71469750D01*
X181997795Y-71451581D01*
X182009421Y-71417447D01*
X182019096Y-71397617D01*
X182041526Y-71337679D01*
X182038609Y-71288719D01*
X182010038Y-71249079D01*
X181988976Y-71233989D01*
X181935720Y-71212580D01*
X181863385Y-71198873D01*
X181780126Y-71193847D01*
X181694100Y-71198482D01*
X181693828Y-71198514D01*
X181638235Y-71207731D01*
X181600024Y-71222470D01*
X181568554Y-71246981D01*
X181565870Y-71249630D01*
X181539216Y-71280997D01*
X181530429Y-71309922D01*
X181533197Y-71342139D01*
X181547523Y-71389615D01*
X181570503Y-71432770D01*
X181571121Y-71433615D01*
X181590220Y-71464950D01*
X181591665Y-71489826D01*
X181573127Y-71514710D01*
X181532275Y-71546069D01*
X181530023Y-71547633D01*
X181493856Y-71569797D01*
X181466938Y-71575674D01*
X181444103Y-71562731D01*
X181420185Y-71528437D01*
X181395741Y-71481805D01*
X181369759Y-71405413D01*
X181359219Y-71318441D01*
X181364447Y-71231947D01*
X181385768Y-71156988D01*
X181386164Y-71156115D01*
X181436265Y-71078833D01*
X181507400Y-71018665D01*
X181597654Y-70976601D01*
X181705107Y-70953628D01*
X181786934Y-70949417D01*
X181908478Y-70960742D01*
G37*
G36*
X180390561Y-71309117D02*
G01*
X180434321Y-71316793D01*
X180490576Y-71326661D01*
X180579915Y-71359452D01*
X180623332Y-71384736D01*
X180690840Y-71446884D01*
X180737153Y-71521549D01*
X180762703Y-71604085D01*
X180767922Y-71689843D01*
X180753241Y-71774178D01*
X180719092Y-71852442D01*
X180665908Y-71919988D01*
X180594121Y-71972168D01*
X180567562Y-71984748D01*
X180526936Y-71996603D01*
X180469122Y-72007080D01*
X180404982Y-72014316D01*
X180388738Y-72015429D01*
X180266016Y-72022568D01*
X180266016Y-71552169D01*
X180434321Y-71552169D01*
X180434321Y-71790504D01*
X180493420Y-71779697D01*
X180548876Y-71759038D01*
X180584122Y-71724962D01*
X180599330Y-71683320D01*
X180594674Y-71639964D01*
X180570328Y-71600746D01*
X180526466Y-71571518D01*
X180486916Y-71560543D01*
X180434321Y-71552169D01*
X180266016Y-71552169D01*
X180266016Y-71552146D01*
X180208826Y-71559816D01*
X180165304Y-71570569D01*
X180130259Y-71587419D01*
X180125201Y-71591410D01*
X180090887Y-71640231D01*
X180075572Y-71702801D01*
X180079362Y-71772135D01*
X180102361Y-71841247D01*
X180120933Y-71873295D01*
X180141530Y-71907507D01*
X180145219Y-71927226D01*
X180137264Y-71936852D01*
X180086014Y-71970359D01*
X180052648Y-71990331D01*
X180031636Y-71998676D01*
X180017447Y-71997304D01*
X180004550Y-71988123D01*
X180000154Y-71984175D01*
X179961925Y-71933688D01*
X179932683Y-71863901D01*
X179913686Y-71782482D01*
X179906195Y-71697097D01*
X179911469Y-71615414D01*
X179928794Y-71549835D01*
X179978340Y-71462257D01*
X180048353Y-71393362D01*
X180137758Y-71343870D01*
X180245477Y-71314501D01*
X180289174Y-71308933D01*
X180390561Y-71309117D01*
G37*
G36*
X178951135Y-68239401D02*
G01*
X178984536Y-68243045D01*
X179036635Y-68248375D01*
X179101823Y-68254854D01*
X179174492Y-68261944D01*
X179249034Y-68269107D01*
X179319839Y-68275805D01*
X179381300Y-68281501D01*
X179427808Y-68285658D01*
X179453754Y-68287736D01*
X179456749Y-68287875D01*
X179462118Y-68300576D01*
X179464470Y-68333416D01*
X179463762Y-68368164D01*
X179459555Y-68448407D01*
X179293009Y-68491744D01*
X179126462Y-68535081D01*
X179297162Y-68581579D01*
X179467862Y-68628076D01*
X179463709Y-68706949D01*
X179459555Y-68785822D01*
X179207098Y-68809341D01*
X179104892Y-68819005D01*
X179027302Y-68826202D01*
X178970973Y-68830554D01*
X178932548Y-68831684D01*
X178908671Y-68829212D01*
X178895986Y-68822763D01*
X178891136Y-68811957D01*
X178890766Y-68796418D01*
X178891518Y-68775767D01*
X178891527Y-68773825D01*
X178891527Y-68712739D01*
X178986198Y-68703798D01*
X179048274Y-68698956D01*
X179111056Y-68695669D01*
X179149828Y-68694757D01*
X179187051Y-68692851D01*
X179207306Y-68688078D01*
X179208347Y-68684219D01*
X179191319Y-68676363D01*
X179153194Y-68663095D01*
X179099936Y-68646388D01*
X179048224Y-68631242D01*
X178898539Y-68588703D01*
X178894375Y-68532512D01*
X178890210Y-68476322D01*
X179045898Y-68435163D01*
X179116730Y-68415127D01*
X179160051Y-68399498D01*
X179175984Y-68387873D01*
X179164654Y-68379852D01*
X179126185Y-68375032D01*
X179065091Y-68373059D01*
X179010475Y-68371056D01*
X178960472Y-68366938D01*
X178935356Y-68363307D01*
X178907952Y-68355493D01*
X178895256Y-68340748D01*
X178891668Y-68310147D01*
X178891527Y-68293449D01*
X178891527Y-68232356D01*
X178951135Y-68239401D01*
G37*
G36*
X179020067Y-72063132D02*
G01*
X179070188Y-72072591D01*
X179117291Y-72106804D01*
X179147111Y-72161441D01*
X179157991Y-72234550D01*
X179158009Y-72237959D01*
X179160367Y-72270717D01*
X179170869Y-72282899D01*
X179189423Y-72282629D01*
X179217682Y-72267760D01*
X179225150Y-72234623D01*
X179211727Y-72183890D01*
X179206190Y-72170942D01*
X179191541Y-72136046D01*
X179189205Y-72116660D01*
X179199462Y-72102953D01*
X179208338Y-72095960D01*
X179239591Y-72078385D01*
X179263830Y-72082242D01*
X179285887Y-72109836D01*
X179300635Y-72139988D01*
X179319981Y-72205136D01*
X179323733Y-72271428D01*
X179312384Y-72330339D01*
X179287185Y-72372599D01*
X179270066Y-72386472D01*
X179248248Y-72394872D01*
X179215089Y-72398917D01*
X179163947Y-72399724D01*
X179128848Y-72399250D01*
X179054322Y-72399794D01*
X179003423Y-72404916D01*
X178972032Y-72415070D01*
X178968829Y-72417005D01*
X178945281Y-72428662D01*
X178924578Y-72424203D01*
X178900357Y-72406716D01*
X178875950Y-72384716D01*
X178871454Y-72368123D01*
X178884064Y-72345889D01*
X178884682Y-72345012D01*
X178898908Y-72313475D01*
X178892151Y-72286326D01*
X178883140Y-72255718D01*
X178880846Y-72236071D01*
X178961654Y-72236071D01*
X178970649Y-72258709D01*
X178978484Y-72268329D01*
X179004268Y-72281995D01*
X179036095Y-72285204D01*
X179062958Y-72278548D01*
X179073857Y-72263200D01*
X179065169Y-72225816D01*
X179043918Y-72197050D01*
X179020067Y-72186982D01*
X178988217Y-72197065D01*
X178965723Y-72220641D01*
X178961654Y-72236071D01*
X178880846Y-72236071D01*
X178877977Y-72211502D01*
X178877501Y-72194279D01*
X178887466Y-72131182D01*
X178917188Y-72087950D01*
X178966409Y-72064850D01*
X179007460Y-72060753D01*
X179020067Y-72063132D01*
G37*
G36*
X182193656Y-70168244D02*
G01*
X182208106Y-70222670D01*
X182213374Y-70256604D01*
X182208517Y-70276370D01*
X182192590Y-70288288D01*
X182174713Y-70295221D01*
X182133880Y-70309456D01*
X182174713Y-70387081D01*
X182207332Y-70472976D01*
X182214664Y-70555787D01*
X182197087Y-70632047D01*
X182154978Y-70698292D01*
X182139123Y-70714315D01*
X182125216Y-70726343D01*
X182110413Y-70735370D01*
X182090545Y-70741955D01*
X182061444Y-70746658D01*
X182018944Y-70750036D01*
X181958876Y-70752648D01*
X181877073Y-70755054D01*
X181825251Y-70756391D01*
X181725726Y-70759311D01*
X181650146Y-70762604D01*
X181594403Y-70766674D01*
X181554390Y-70771924D01*
X181526001Y-70778759D01*
X181505128Y-70787582D01*
X181504454Y-70787948D01*
X181473290Y-70804083D01*
X181454280Y-70812247D01*
X181452888Y-70812493D01*
X181442612Y-70801283D01*
X181424256Y-70772961D01*
X181402319Y-70735486D01*
X181381301Y-70696818D01*
X181365701Y-70664916D01*
X181359997Y-70648161D01*
X181369511Y-70629046D01*
X181384542Y-70612990D01*
X181415480Y-70588095D01*
X181446901Y-70569317D01*
X181483509Y-70555641D01*
X181530007Y-70546053D01*
X181591099Y-70539540D01*
X181671489Y-70535088D01*
X181759721Y-70532133D01*
X182012178Y-70524972D01*
X182016000Y-70475883D01*
X182008506Y-70418163D01*
X181991835Y-70381497D01*
X181963849Y-70336201D01*
X181672442Y-70332409D01*
X181381035Y-70328616D01*
X181376935Y-70219707D01*
X181376190Y-70159118D01*
X181379829Y-70122451D01*
X181388319Y-70105853D01*
X181390960Y-70104485D01*
X181409309Y-70102677D01*
X181451876Y-70100775D01*
X181514827Y-70098878D01*
X181594330Y-70097086D01*
X181686552Y-70095496D01*
X181787661Y-70094208D01*
X181790426Y-70094179D01*
X182171765Y-70090185D01*
X182193656Y-70168244D01*
G37*
G36*
X179240917Y-72561866D02*
G01*
X179284824Y-72589750D01*
X179316698Y-72630878D01*
X179331307Y-72683130D01*
X179325629Y-72736982D01*
X179300149Y-72791915D01*
X179257969Y-72826123D01*
X179195651Y-72842419D01*
X179152191Y-72844124D01*
X179120790Y-72833835D01*
X179089025Y-72809204D01*
X179053525Y-72762296D01*
X179036159Y-72706419D01*
X179036847Y-72693013D01*
X179074651Y-72693013D01*
X179075454Y-72725594D01*
X179082792Y-72745742D01*
X179087882Y-72747998D01*
X179101516Y-72738984D01*
X179101908Y-72736224D01*
X179113180Y-72722463D01*
X179138266Y-72707091D01*
X179200085Y-72707091D01*
X179206786Y-72728466D01*
X179217617Y-72730473D01*
X179235081Y-72715381D01*
X179239380Y-72694173D01*
X179229441Y-72679287D01*
X179222152Y-72677871D01*
X179203944Y-72689669D01*
X179200085Y-72707091D01*
X179138266Y-72707091D01*
X179140303Y-72705843D01*
X179140477Y-72705758D01*
X179179047Y-72687066D01*
X179137766Y-72678962D01*
X179104333Y-72668814D01*
X179097006Y-72657971D01*
X179113943Y-72648092D01*
X179153298Y-72640840D01*
X179182554Y-72638632D01*
X179222152Y-72636746D01*
X179270212Y-72634456D01*
X179270212Y-72690734D01*
X179262714Y-72737207D01*
X179242572Y-72763579D01*
X179213318Y-72766893D01*
X179192151Y-72756071D01*
X179165079Y-72746083D01*
X179137224Y-72748701D01*
X179117179Y-72760552D01*
X179113537Y-72778264D01*
X179117760Y-72785263D01*
X179147945Y-72802012D01*
X179190231Y-72803302D01*
X179234095Y-72790257D01*
X179263837Y-72769674D01*
X179292282Y-72728615D01*
X179295545Y-72683747D01*
X179282305Y-72644166D01*
X179252752Y-72609340D01*
X179209259Y-72591595D01*
X179160552Y-72591482D01*
X179115354Y-72609553D01*
X179091389Y-72632094D01*
X179080067Y-72658385D01*
X179074651Y-72693013D01*
X179036847Y-72693013D01*
X179038993Y-72651214D01*
X179049604Y-72625155D01*
X179089320Y-72578869D01*
X179137933Y-72554305D01*
X179160552Y-72552158D01*
X179190209Y-72549344D01*
X179240917Y-72561866D01*
G37*
G36*
X178681145Y-67452675D02*
G01*
X178681146Y-67452921D01*
X178691882Y-67481094D01*
X178719125Y-67516285D01*
X178755426Y-67550920D01*
X178793339Y-67577422D01*
X178811582Y-67585595D01*
X178836351Y-67592184D01*
X178880702Y-67602627D01*
X178938309Y-67615567D01*
X179002848Y-67629648D01*
X179067995Y-67643515D01*
X179127423Y-67655811D01*
X179174810Y-67665182D01*
X179203829Y-67670269D01*
X179209027Y-67670803D01*
X179212818Y-67658738D01*
X179214111Y-67634851D01*
X179217398Y-67610441D01*
X179232924Y-67602210D01*
X179259632Y-67603294D01*
X179292894Y-67611067D01*
X179308285Y-67631161D01*
X179312227Y-67647607D01*
X179324403Y-67678061D01*
X179352850Y-67698181D01*
X179372029Y-67705608D01*
X179423430Y-67727195D01*
X179455320Y-67753222D01*
X179476055Y-67791374D01*
X179481265Y-67806080D01*
X179489378Y-67850271D01*
X179488535Y-67897474D01*
X179479821Y-67937380D01*
X179465141Y-67959206D01*
X179443649Y-67958524D01*
X179420501Y-67939038D01*
X179402536Y-67908681D01*
X179396441Y-67879504D01*
X179386241Y-67841482D01*
X179369312Y-67825576D01*
X179335561Y-67812489D01*
X179317953Y-67821139D01*
X179312351Y-67854034D01*
X179312289Y-67860146D01*
X179310927Y-67894454D01*
X179302372Y-67906649D01*
X179279917Y-67900113D01*
X179256434Y-67888325D01*
X179221177Y-67857427D01*
X179211548Y-67829009D01*
X179208870Y-67813813D01*
X179202040Y-67802264D01*
X179186762Y-67792751D01*
X179158742Y-67783661D01*
X179113683Y-67773384D01*
X179047290Y-67760308D01*
X179009026Y-67753027D01*
X178933513Y-67737671D01*
X178864079Y-67721674D01*
X178807301Y-67706680D01*
X178769752Y-67694337D01*
X178763582Y-67691582D01*
X178717698Y-67662397D01*
X178669982Y-67622277D01*
X178626003Y-67577201D01*
X178591329Y-67533152D01*
X178571528Y-67496109D01*
X178568942Y-67482517D01*
X178580036Y-67471785D01*
X178607072Y-67455473D01*
X178610322Y-67453770D01*
X178651644Y-67435830D01*
X178674224Y-67435478D01*
X178681145Y-67452675D01*
G37*
G36*
X181842465Y-69205189D02*
G01*
X181914697Y-69218741D01*
X181955086Y-69226318D01*
X182049435Y-69266229D01*
X182124033Y-69323517D01*
X182177398Y-69396778D01*
X182208049Y-69484608D01*
X182215238Y-69558633D01*
X182205290Y-69662300D01*
X182174432Y-69747703D01*
X182122367Y-69815118D01*
X182048798Y-69864822D01*
X181953426Y-69897090D01*
X181835953Y-69912198D01*
X181833354Y-69912328D01*
X181710632Y-69918298D01*
X181710632Y-69572881D01*
X181878937Y-69572881D01*
X181879251Y-69630980D01*
X181881151Y-69666146D01*
X181886073Y-69683496D01*
X181895455Y-69688145D01*
X181910494Y-69685275D01*
X181946929Y-69678256D01*
X181966596Y-69676627D01*
X182003073Y-69663843D01*
X182030465Y-69631157D01*
X182045389Y-69586128D01*
X182044464Y-69536318D01*
X182038529Y-69515772D01*
X182016642Y-69489975D01*
X181977972Y-69467379D01*
X181933675Y-69453726D01*
X181914697Y-69452029D01*
X181897474Y-69453027D01*
X181886919Y-69459697D01*
X181881400Y-69477558D01*
X181879283Y-69512126D01*
X181878937Y-69568918D01*
X181878937Y-69572881D01*
X181710632Y-69572881D01*
X181710632Y-69452029D01*
X181674872Y-69452029D01*
X181615478Y-69463875D01*
X181570149Y-69496531D01*
X181540488Y-69545675D01*
X181528103Y-69606986D01*
X181534598Y-69676142D01*
X181561578Y-69748820D01*
X181563365Y-69752228D01*
X181582941Y-69789800D01*
X181595668Y-69815679D01*
X181598429Y-69822580D01*
X181586977Y-69835835D01*
X181558778Y-69854706D01*
X181523070Y-69874242D01*
X181489088Y-69889488D01*
X181466071Y-69895492D01*
X181463296Y-69895044D01*
X181444260Y-69876491D01*
X181421434Y-69838070D01*
X181397937Y-69787098D01*
X181376884Y-69730894D01*
X181361393Y-69676777D01*
X181355241Y-69641372D01*
X181353648Y-69584093D01*
X181358116Y-69525389D01*
X181360889Y-69508761D01*
X181388183Y-69429374D01*
X181433998Y-69353959D01*
X181491524Y-69293090D01*
X181507596Y-69280926D01*
X181586761Y-69240075D01*
X181682048Y-69213412D01*
X181784279Y-69203013D01*
X181842465Y-69205189D01*
G37*
G36*
X181828368Y-71684584D02*
G01*
X181878937Y-71687837D01*
X181895754Y-71688919D01*
X181944906Y-71696329D01*
X181985631Y-71709071D01*
X182027733Y-71729402D01*
X182031190Y-71731279D01*
X182111559Y-71786201D01*
X182167663Y-71851553D01*
X182201503Y-71930818D01*
X182215080Y-72027480D01*
X182215546Y-72052312D01*
X182203475Y-72149670D01*
X182167606Y-72232523D01*
X182108461Y-72299994D01*
X182042826Y-72343295D01*
X182004447Y-72357719D01*
X181950309Y-72371542D01*
X181888557Y-72383451D01*
X181827338Y-72392136D01*
X181774801Y-72396283D01*
X181739092Y-72394581D01*
X181733704Y-72393071D01*
X181725077Y-72386695D01*
X181718875Y-72372545D01*
X181714714Y-72346611D01*
X181712209Y-72304885D01*
X181710977Y-72243359D01*
X181710633Y-72158023D01*
X181710632Y-72152359D01*
X181710523Y-72063097D01*
X181709273Y-71998609D01*
X181705497Y-71955620D01*
X181697808Y-71930853D01*
X181684823Y-71921032D01*
X181665154Y-71922881D01*
X181637418Y-71933126D01*
X181620850Y-71940056D01*
X181569280Y-71972433D01*
X181539227Y-72019361D01*
X181528415Y-72084616D01*
X181528302Y-72093533D01*
X181538862Y-72167907D01*
X181565633Y-72230737D01*
X181585052Y-72268801D01*
X181596183Y-72295404D01*
X181597190Y-72303345D01*
X181561280Y-72327221D01*
X181523076Y-72350959D01*
X181490014Y-72370153D01*
X181469528Y-72380395D01*
X181466371Y-72380882D01*
X181400329Y-72269506D01*
X181362166Y-72159394D01*
X181351927Y-72050717D01*
X181360215Y-71981179D01*
X181378543Y-71918271D01*
X181878937Y-71918271D01*
X181878937Y-72162625D01*
X181936127Y-72154954D01*
X181995363Y-72139175D01*
X182030928Y-72109795D01*
X182044649Y-72064905D01*
X182044406Y-72041843D01*
X182028972Y-71988969D01*
X181991123Y-71951565D01*
X181929753Y-71928578D01*
X181924519Y-71927476D01*
X181878937Y-71918271D01*
X181378543Y-71918271D01*
X181380612Y-71911168D01*
X181413463Y-71852607D01*
X181464858Y-71795203D01*
X181477058Y-71783730D01*
X181542318Y-71735007D01*
X181616526Y-71703120D01*
X181704886Y-71686599D01*
X181812602Y-71683977D01*
X181828368Y-71684584D01*
G37*
G36*
X180713544Y-73063796D02*
G01*
X180725895Y-73096820D01*
X180735929Y-73131991D01*
X180750370Y-73197555D01*
X180751528Y-73240388D01*
X180739192Y-73262574D01*
X180722282Y-73266938D01*
X180703489Y-73272868D01*
X180705776Y-73292533D01*
X180721080Y-73317696D01*
X180753517Y-73386980D01*
X180763849Y-73464801D01*
X180752460Y-73542928D01*
X180719733Y-73613132D01*
X180706480Y-73630628D01*
X180670818Y-73673010D01*
X180705794Y-73718925D01*
X180744380Y-73788706D01*
X180763042Y-73865900D01*
X180761914Y-73943650D01*
X180741126Y-74015101D01*
X180700811Y-74073395D01*
X180698918Y-74075238D01*
X180656955Y-74115475D01*
X180373827Y-74122754D01*
X180273568Y-74125684D01*
X180197236Y-74128904D01*
X180140707Y-74132821D01*
X180099857Y-74137843D01*
X180070563Y-74144377D01*
X180048700Y-74152831D01*
X180043812Y-74155345D01*
X180013017Y-74170500D01*
X179995109Y-74176519D01*
X179993683Y-74176117D01*
X179982087Y-74157962D01*
X179962779Y-74126094D01*
X179940426Y-74088427D01*
X179919695Y-74052876D01*
X179905254Y-74027356D01*
X179901355Y-74019531D01*
X179910512Y-74008097D01*
X179932568Y-73986634D01*
X179932913Y-73986319D01*
X179964491Y-73959810D01*
X179996039Y-73940419D01*
X180032615Y-73927058D01*
X180079276Y-73918642D01*
X180141079Y-73914085D01*
X180223082Y-73912300D01*
X180278432Y-73912106D01*
X180357661Y-73911269D01*
X180429339Y-73908961D01*
X180487713Y-73905482D01*
X180527027Y-73901137D01*
X180538598Y-73898428D01*
X180567039Y-73874902D01*
X180574361Y-73836443D01*
X180560341Y-73786834D01*
X180546678Y-73761333D01*
X180518885Y-73715751D01*
X179929406Y-73715751D01*
X179929406Y-73491871D01*
X180248484Y-73488101D01*
X180567562Y-73484332D01*
X180572285Y-73435243D01*
X180567853Y-73383097D01*
X180552544Y-73340571D01*
X180528081Y-73294989D01*
X179929406Y-73294989D01*
X179929406Y-73071890D01*
X180297573Y-73067662D01*
X180397384Y-73066110D01*
X180488660Y-73063916D01*
X180567429Y-73061240D01*
X180629716Y-73058239D01*
X180671550Y-73055069D01*
X180688505Y-73052165D01*
X180702010Y-73050474D01*
X180713544Y-73063796D01*
G37*
G36*
X180544813Y-69690536D02*
G01*
X180615312Y-69691037D01*
X180665219Y-69692376D01*
X180698265Y-69694966D01*
X180718178Y-69699217D01*
X180728688Y-69705544D01*
X180733526Y-69714357D01*
X180735486Y-69722018D01*
X180754166Y-69806265D01*
X180765820Y-69863576D01*
X180770491Y-69894160D01*
X180770587Y-69896187D01*
X180761878Y-69902025D01*
X180734164Y-69906806D01*
X180685464Y-69910661D01*
X180613800Y-69913720D01*
X180517192Y-69916113D01*
X180450474Y-69917226D01*
X180340108Y-69919230D01*
X180254858Y-69921782D01*
X180191793Y-69925084D01*
X180147981Y-69929341D01*
X180120488Y-69934756D01*
X180106852Y-69941129D01*
X180089602Y-69971182D01*
X180084221Y-70015206D01*
X180090808Y-70061710D01*
X180105519Y-70094077D01*
X180113693Y-70104466D01*
X180124198Y-70112246D01*
X180140847Y-70117794D01*
X180167452Y-70121486D01*
X180207824Y-70123700D01*
X180265776Y-70124814D01*
X180345121Y-70125204D01*
X180420597Y-70125248D01*
X180521370Y-70125199D01*
X180597713Y-70125823D01*
X180653244Y-70128280D01*
X180691580Y-70133728D01*
X180716339Y-70143326D01*
X180731136Y-70158232D01*
X180739591Y-70179604D01*
X180745319Y-70208603D01*
X180749004Y-70230439D01*
X180757344Y-70275190D01*
X180765242Y-70313141D01*
X180766396Y-70318097D01*
X180773971Y-70349655D01*
X180425322Y-70350152D01*
X180310923Y-70350642D01*
X180221396Y-70351860D01*
X180153567Y-70353977D01*
X180104263Y-70357163D01*
X180070311Y-70361586D01*
X180048537Y-70367418D01*
X180041609Y-70370693D01*
X180013128Y-70385421D01*
X179997056Y-70391234D01*
X179985789Y-70380269D01*
X179965584Y-70351111D01*
X179942133Y-70312322D01*
X179896700Y-70232913D01*
X179934965Y-70202401D01*
X179973230Y-70171890D01*
X179942986Y-70120629D01*
X179918424Y-70058060D01*
X179906683Y-69982507D01*
X179908769Y-69906425D01*
X179921332Y-69852846D01*
X179959821Y-69782285D01*
X180015311Y-69733821D01*
X180089364Y-69706131D01*
X180096119Y-69704777D01*
X180134006Y-69700279D01*
X180194060Y-69696361D01*
X180270396Y-69693260D01*
X180357132Y-69691214D01*
X180448386Y-69690461D01*
X180449993Y-69690461D01*
X180544813Y-69690536D01*
G37*
G36*
X180020010Y-70509617D02*
G01*
X180052087Y-70523816D01*
X180089920Y-70542255D01*
X180124943Y-70560656D01*
X180148593Y-70574744D01*
X180153813Y-70579615D01*
X180148438Y-70594015D01*
X180134448Y-70626413D01*
X180117740Y-70663490D01*
X180095865Y-70721678D01*
X180079246Y-70784608D01*
X180073885Y-70817685D01*
X180070913Y-70864700D01*
X180075606Y-70894358D01*
X180090089Y-70916800D01*
X180095932Y-70922917D01*
X180135560Y-70947888D01*
X180176195Y-70949850D01*
X180210001Y-70928917D01*
X180215784Y-70921190D01*
X180228778Y-70891985D01*
X180243531Y-70845015D01*
X180256967Y-70790147D01*
X180257627Y-70786998D01*
X180272507Y-70728506D01*
X180290977Y-70674119D01*
X180308890Y-70635884D01*
X180356871Y-70582778D01*
X180419127Y-70549471D01*
X180489740Y-70536288D01*
X180562793Y-70543556D01*
X180632372Y-70571599D01*
X180687302Y-70615050D01*
X180732294Y-70676328D01*
X180759385Y-70749324D01*
X180770448Y-70839683D01*
X180770930Y-70867158D01*
X180766866Y-70920174D01*
X180756124Y-70981765D01*
X180740884Y-71043521D01*
X180723323Y-71097032D01*
X180705620Y-71133889D01*
X180699976Y-71141111D01*
X180680005Y-71144404D01*
X180646961Y-71135306D01*
X180609362Y-71118153D01*
X180575726Y-71097281D01*
X180554571Y-71077025D01*
X180551716Y-71065638D01*
X180560966Y-71039206D01*
X180575426Y-71000038D01*
X180580050Y-70987810D01*
X180597537Y-70921502D01*
X180598321Y-70863572D01*
X180583628Y-70818550D01*
X180554681Y-70790966D01*
X180525051Y-70784442D01*
X180496407Y-70793469D01*
X180472395Y-70822426D01*
X180451382Y-70874122D01*
X180433905Y-70941430D01*
X180407373Y-71030319D01*
X180371157Y-71096234D01*
X180322584Y-71143364D01*
X180294009Y-71160587D01*
X180218484Y-71185008D01*
X180141787Y-71183719D01*
X180068564Y-71158452D01*
X180003458Y-71110939D01*
X179951114Y-71042910D01*
X179944198Y-71030167D01*
X179917322Y-70954153D01*
X179904283Y-70863444D01*
X179905529Y-70767994D01*
X179921506Y-70677756D01*
X179927503Y-70658213D01*
X179955552Y-70580956D01*
X179978713Y-70530036D01*
X179996749Y-70505949D01*
X180002251Y-70503934D01*
X180020010Y-70509617D01*
G37*
G36*
X180010052Y-68338612D02*
G01*
X180043335Y-68341873D01*
X180100587Y-68347350D01*
X180177846Y-68354671D01*
X180271150Y-68363461D01*
X180376536Y-68373348D01*
X180490043Y-68383957D01*
X180567562Y-68391180D01*
X181044426Y-68435563D01*
X181048425Y-68579387D01*
X181049734Y-68645059D01*
X181048795Y-68688022D01*
X181044880Y-68713574D01*
X181037263Y-68727014D01*
X181027387Y-68732854D01*
X181007225Y-68739035D01*
X180963999Y-68751232D01*
X180901777Y-68768333D01*
X180824624Y-68789227D01*
X180736609Y-68812803D01*
X180672752Y-68829767D01*
X180583282Y-68853791D01*
X180505284Y-68875384D01*
X180442041Y-68893584D01*
X180396833Y-68907426D01*
X180372942Y-68915948D01*
X180371206Y-68918282D01*
X180392258Y-68922238D01*
X180436187Y-68932668D01*
X180498850Y-68948511D01*
X180576105Y-68968707D01*
X180663808Y-68992196D01*
X180721841Y-69008011D01*
X181044426Y-69096492D01*
X181044426Y-69388915D01*
X180553537Y-69433207D01*
X180435999Y-69443819D01*
X180324704Y-69453880D01*
X180223404Y-69463049D01*
X180135850Y-69470987D01*
X180065793Y-69477354D01*
X180016984Y-69481809D01*
X179996027Y-69483744D01*
X179929406Y-69489987D01*
X179929406Y-69259701D01*
X180024078Y-69251294D01*
X180069259Y-69247634D01*
X180135789Y-69242702D01*
X180217020Y-69236971D01*
X180306305Y-69230910D01*
X180382445Y-69225922D01*
X180646141Y-69208958D01*
X180382445Y-69134411D01*
X180293096Y-69109048D01*
X180205976Y-69084130D01*
X180127399Y-69061476D01*
X180063680Y-69042907D01*
X180023475Y-69030954D01*
X179928201Y-69002043D01*
X179932310Y-68900945D01*
X179936419Y-68799848D01*
X180280041Y-68706173D01*
X180371497Y-68680914D01*
X180451643Y-68658143D01*
X180517261Y-68638827D01*
X180565129Y-68623936D01*
X180592026Y-68614437D01*
X180595613Y-68611298D01*
X180573522Y-68609959D01*
X180528138Y-68606919D01*
X180464149Y-68602501D01*
X180386238Y-68597031D01*
X180299092Y-68590832D01*
X180280041Y-68589467D01*
X180191269Y-68583195D01*
X180110478Y-68577670D01*
X180042427Y-68573204D01*
X179991871Y-68570106D01*
X179963567Y-68568688D01*
X179960963Y-68568633D01*
X179945655Y-68566966D01*
X179936315Y-68558508D01*
X179931474Y-68537705D01*
X179929663Y-68499005D01*
X179929406Y-68449428D01*
X179929406Y-68330427D01*
X180010052Y-68338612D01*
G37*
G36*
X181464253Y-67016957D02*
G01*
X181496626Y-67031058D01*
X181541157Y-67050997D01*
X181546705Y-67053510D01*
X181639114Y-67095410D01*
X181604172Y-67171733D01*
X181579384Y-67237283D01*
X181560671Y-67308774D01*
X181549869Y-67376799D01*
X181548810Y-67431954D01*
X181550821Y-67445313D01*
X181569335Y-67511559D01*
X181593472Y-67554192D01*
X181627678Y-67577627D01*
X181676401Y-67586277D01*
X181693240Y-67586651D01*
X181736619Y-67580461D01*
X181771404Y-67559543D01*
X181800420Y-67520377D01*
X181826494Y-67459442D01*
X181846155Y-67396143D01*
X181876383Y-67298869D01*
X181906874Y-67224988D01*
X181940678Y-67169983D01*
X181980844Y-67129335D01*
X182030423Y-67098526D01*
X182054446Y-67087576D01*
X182141861Y-67064979D01*
X182230071Y-67067738D01*
X182314355Y-67093703D01*
X182389992Y-67140726D01*
X182452260Y-67206660D01*
X182496145Y-67288565D01*
X182515751Y-67367286D01*
X182523629Y-67460207D01*
X182519485Y-67555915D01*
X182505040Y-67635740D01*
X182488695Y-67686694D01*
X182467391Y-67739648D01*
X182444792Y-67786716D01*
X182424568Y-67820011D01*
X182414474Y-67830506D01*
X182397463Y-67827337D01*
X182360926Y-67808160D01*
X182303969Y-67772460D01*
X182247764Y-67734841D01*
X182251925Y-67722378D01*
X182265609Y-67691941D01*
X182282319Y-67657329D01*
X182316969Y-67556091D01*
X182325335Y-67493561D01*
X182327422Y-67443961D01*
X182323930Y-67412351D01*
X182312053Y-67388804D01*
X182288984Y-67363397D01*
X182288353Y-67362766D01*
X182254869Y-67335999D01*
X182223305Y-67321200D01*
X182215703Y-67320168D01*
X182180629Y-67324575D01*
X182153678Y-67340728D01*
X182131366Y-67373025D01*
X182110210Y-67425864D01*
X182096035Y-67471243D01*
X182056767Y-67590147D01*
X182015462Y-67683468D01*
X181969708Y-67753672D01*
X181917095Y-67803221D01*
X181855211Y-67834583D01*
X181781646Y-67850221D01*
X181722523Y-67853133D01*
X181626155Y-67841619D01*
X181543338Y-67806176D01*
X181470978Y-67745454D01*
X181467773Y-67741946D01*
X181417483Y-67667987D01*
X181380286Y-67575411D01*
X181357756Y-67471177D01*
X181351469Y-67362245D01*
X181360581Y-67268253D01*
X181369192Y-67231904D01*
X181383304Y-67184127D01*
X181400507Y-67131786D01*
X181418391Y-67081741D01*
X181434546Y-67040855D01*
X181446563Y-67015988D01*
X181450714Y-67011609D01*
X181464253Y-67016957D01*
G37*
G36*
X179659510Y-59196800D02*
G01*
X179774720Y-59239007D01*
X179828168Y-59263773D01*
X179977479Y-59350663D01*
X180125492Y-59464378D01*
X180271305Y-59603697D01*
X180414015Y-59767396D01*
X180552717Y-59954253D01*
X180686509Y-60163045D01*
X180814486Y-60392550D01*
X180935745Y-60641546D01*
X181049383Y-60908809D01*
X181055619Y-60924586D01*
X181170856Y-61235709D01*
X181269782Y-61543717D01*
X181353766Y-61854309D01*
X181424182Y-62173188D01*
X181482398Y-62506054D01*
X181529787Y-62858609D01*
X181537892Y-62930218D01*
X181546855Y-63033299D01*
X181553905Y-63158518D01*
X181559039Y-63300517D01*
X181562259Y-63453935D01*
X181563564Y-63613414D01*
X181562953Y-63773594D01*
X181560426Y-63929117D01*
X181555984Y-64074622D01*
X181549625Y-64204751D01*
X181541349Y-64314145D01*
X181537973Y-64346783D01*
X181493661Y-64672078D01*
X181436894Y-64974399D01*
X181367810Y-65253289D01*
X181286546Y-65508289D01*
X181193240Y-65738941D01*
X181088028Y-65944790D01*
X181029983Y-66039839D01*
X180958994Y-66138287D01*
X180876809Y-66234176D01*
X180788777Y-66322301D01*
X180700244Y-66397458D01*
X180616560Y-66454443D01*
X180588190Y-66469735D01*
X180449551Y-66525229D01*
X180310648Y-66553809D01*
X180166853Y-66556270D01*
X180114673Y-66551128D01*
X179930864Y-66514273D01*
X179744311Y-66450079D01*
X179555642Y-66359053D01*
X179365481Y-66241704D01*
X179174454Y-66098540D01*
X178983188Y-65930069D01*
X178792308Y-65736800D01*
X178602439Y-65519241D01*
X178414209Y-65277899D01*
X178237186Y-65026626D01*
X177989137Y-64641592D01*
X177760089Y-64253534D01*
X177551667Y-63865529D01*
X177365496Y-63480658D01*
X177203202Y-63101998D01*
X177152641Y-62972294D01*
X177119459Y-62882312D01*
X177083837Y-62781239D01*
X177046929Y-62672781D01*
X177009889Y-62560643D01*
X176973873Y-62448531D01*
X176940034Y-62340149D01*
X176909527Y-62239203D01*
X176883506Y-62149399D01*
X176863126Y-62074441D01*
X176849542Y-62018034D01*
X176843907Y-61983885D01*
X176843818Y-61981113D01*
X176857048Y-61967359D01*
X176896278Y-61962473D01*
X176898434Y-61962465D01*
X176971281Y-61965415D01*
X177061566Y-61973432D01*
X177159397Y-61985268D01*
X177254881Y-61999676D01*
X177338126Y-62015407D01*
X177362758Y-62021047D01*
X177511115Y-62063150D01*
X177646503Y-62115218D01*
X177774858Y-62180468D01*
X177902117Y-62262114D01*
X178034217Y-62363371D01*
X178104323Y-62422695D01*
X178186597Y-62489206D01*
X178260620Y-62536184D01*
X178334324Y-62567008D01*
X178415639Y-62585059D01*
X178504771Y-62593330D01*
X178643969Y-62600621D01*
X178730683Y-62825027D01*
X178870054Y-63170918D01*
X179010064Y-63488886D01*
X179150699Y-63778906D01*
X179291946Y-64040951D01*
X179433791Y-64274994D01*
X179522531Y-64406741D01*
X179577776Y-64479381D01*
X179645526Y-64559346D01*
X179720793Y-64641526D01*
X179798589Y-64720811D01*
X179873928Y-64792093D01*
X179941822Y-64850262D01*
X179989919Y-64885556D01*
X180119518Y-64955956D01*
X180252830Y-65002292D01*
X180386578Y-65024167D01*
X180517483Y-65021186D01*
X180642267Y-64992955D01*
X180697689Y-64970933D01*
X180789824Y-64913842D01*
X180874847Y-64831023D01*
X180952023Y-64724062D01*
X181020618Y-64594546D01*
X181079898Y-64444063D01*
X181129129Y-64274199D01*
X181167577Y-64086542D01*
X181192680Y-63900651D01*
X181198433Y-63821710D01*
X181201988Y-63720685D01*
X181203462Y-63603448D01*
X181202973Y-63475872D01*
X181200641Y-63343827D01*
X181196584Y-63213185D01*
X181190919Y-63089818D01*
X181183766Y-62979598D01*
X181175243Y-62888396D01*
X181171690Y-62860091D01*
X181131812Y-62608100D01*
X181082015Y-62355932D01*
X181023379Y-62106928D01*
X180956985Y-61864425D01*
X180883913Y-61631765D01*
X180805244Y-61412287D01*
X180722059Y-61209331D01*
X180635438Y-61026237D01*
X180546463Y-60866344D01*
X180506059Y-60803024D01*
X180412137Y-60677138D01*
X180316579Y-60577517D01*
X180219960Y-60504500D01*
X180122853Y-60458426D01*
X180025832Y-60439632D01*
X179929474Y-60448457D01*
X179912218Y-60453012D01*
X179831493Y-60488479D01*
X179764708Y-60544488D01*
X179711290Y-60622098D01*
X179670666Y-60722369D01*
X179642265Y-60846361D01*
X179626484Y-60981690D01*
X179623639Y-61107705D01*
X179631684Y-61254539D01*
X179649614Y-61417608D01*
X179676423Y-61592328D01*
X179711107Y-61774114D01*
X179752660Y-61958381D01*
X179800076Y-62140547D01*
X179852350Y-62316025D01*
X179908478Y-62480233D01*
X179967453Y-62628585D01*
X180006097Y-62712824D01*
X180079353Y-62846858D01*
X180155494Y-62955416D01*
X180233926Y-63037932D01*
X180314055Y-63093836D01*
X180395287Y-63122562D01*
X180439057Y-63126573D01*
X180517890Y-63114447D01*
X180582646Y-63078251D01*
X180633182Y-63018264D01*
X180669357Y-62934761D01*
X180691026Y-62828019D01*
X180698047Y-62698315D01*
X180696206Y-62628672D01*
X180684160Y-62492182D01*
X180661970Y-62352888D01*
X180630993Y-62214490D01*
X180592584Y-62080687D01*
X180548100Y-61955179D01*
X180498897Y-61841665D01*
X180446331Y-61743845D01*
X180391757Y-61665418D01*
X180336532Y-61610083D01*
X180318187Y-61597393D01*
X180261110Y-61572156D01*
X180215044Y-61572696D01*
X180180058Y-61598960D01*
X180156226Y-61650894D01*
X180143688Y-61727543D01*
X180142827Y-61789441D01*
X180148194Y-61860784D01*
X180158626Y-61936437D01*
X180172958Y-62011271D01*
X180190028Y-62080152D01*
X180208672Y-62137947D01*
X180227726Y-62179526D01*
X180246027Y-62199756D01*
X180250997Y-62200897D01*
X180254889Y-62189240D01*
X180247876Y-62158348D01*
X180238727Y-62132704D01*
X180216382Y-62065158D01*
X180195956Y-61984250D01*
X180179682Y-61900848D01*
X180169790Y-61825825D01*
X180167838Y-61787288D01*
X180173336Y-61726726D01*
X180188101Y-61675555D01*
X180209541Y-61639898D01*
X180235064Y-61625880D01*
X180236173Y-61625856D01*
X180277187Y-61639388D01*
X180321028Y-61678566D01*
X180366602Y-61741260D01*
X180412815Y-61825339D01*
X180458571Y-61928673D01*
X180502775Y-62049134D01*
X180544334Y-62184591D01*
X180566754Y-62269025D01*
X180600430Y-62418227D01*
X180620796Y-62546471D01*
X180628126Y-62657343D01*
X180622691Y-62754429D01*
X180609078Y-62825587D01*
X180578078Y-62906892D01*
X180535026Y-62963977D01*
X180482510Y-62996551D01*
X180423116Y-63004322D01*
X180359432Y-62986997D01*
X180294046Y-62944286D01*
X180229544Y-62875896D01*
X180224263Y-62868992D01*
X180167684Y-62781350D01*
X180110450Y-62668991D01*
X180053667Y-62535191D01*
X179998442Y-62383227D01*
X179945883Y-62216376D01*
X179897096Y-62037916D01*
X179853188Y-61851124D01*
X179815265Y-61659277D01*
X179814829Y-61656833D01*
X179801017Y-61561779D01*
X179790660Y-61454409D01*
X179783810Y-61340266D01*
X179780520Y-61224893D01*
X179780842Y-61113833D01*
X179784828Y-61012630D01*
X179792530Y-60926827D01*
X179803999Y-60861967D01*
X179807244Y-60850372D01*
X179838611Y-60776867D01*
X179881586Y-60715213D01*
X179931447Y-60670861D01*
X179981122Y-60649672D01*
X180057426Y-60649171D01*
X180134501Y-60676195D01*
X180212387Y-60730802D01*
X180291121Y-60813050D01*
X180370743Y-60922998D01*
X180451291Y-61060703D01*
X180532805Y-61226224D01*
X180615323Y-61419618D01*
X180698884Y-61640943D01*
X180756574Y-61808186D01*
X180849377Y-62109737D01*
X180921517Y-62397223D01*
X180973666Y-62674790D01*
X181006498Y-62946584D01*
X181020683Y-63216751D01*
X181019265Y-63428120D01*
X181006639Y-63638160D01*
X180982946Y-63830992D01*
X180948732Y-64005539D01*
X180904543Y-64160723D01*
X180850924Y-64295469D01*
X180788424Y-64408699D01*
X180717587Y-64499337D01*
X180638961Y-64566306D01*
X180553092Y-64608529D01*
X180460525Y-64624930D01*
X180412868Y-64623211D01*
X180336217Y-64608195D01*
X180261597Y-64577793D01*
X180184764Y-64529494D01*
X180101471Y-64460784D01*
X180040838Y-64402973D01*
X179921425Y-64271105D01*
X179806279Y-64116992D01*
X179694480Y-63939174D01*
X179585111Y-63736194D01*
X179479762Y-63512272D01*
X179358739Y-63224204D01*
X179252763Y-62939655D01*
X179160624Y-62653956D01*
X179081113Y-62362437D01*
X179013021Y-62060431D01*
X178955138Y-61743267D01*
X178906255Y-61406278D01*
X178882129Y-61205094D01*
X178873388Y-61108717D01*
X178866396Y-60994730D01*
X178861154Y-60867719D01*
X178857663Y-60732268D01*
X178855925Y-60592962D01*
X178855940Y-60454387D01*
X178857710Y-60321126D01*
X178861235Y-60197766D01*
X178866516Y-60088891D01*
X178873555Y-59999086D01*
X178881839Y-59935795D01*
X178919729Y-59759314D01*
X178966976Y-59608329D01*
X179024362Y-59481626D01*
X179092667Y-59377992D01*
X179172675Y-59296216D01*
X179265165Y-59235084D01*
X179357729Y-59197332D01*
X179455511Y-59176598D01*
X179554605Y-59176209D01*
X179659510Y-59196800D01*
G37*
D11*
%TO.C,J1*%
X158690000Y-68520000D02*
X160020000Y-68520000D01*
X158690000Y-69850000D02*
X158690000Y-68520000D01*
X158690000Y-71120000D02*
X161290000Y-71120000D01*
D12*
X158690000Y-119440000D02*
X158750000Y-96520000D01*
D11*
X158690000Y-119440000D02*
X163890000Y-119440000D01*
D12*
X158750000Y-91440000D02*
X158690000Y-71120000D01*
D11*
X161290000Y-68520000D02*
X163890000Y-68520000D01*
X161290000Y-71120000D02*
X161290000Y-68520000D01*
D12*
X161290000Y-93980000D02*
X157480000Y-93980000D01*
D11*
X163890000Y-68520000D02*
X163890000Y-119440000D01*
%TD*%
%LPC*%
D13*
%TO.C,A1*%
X147960000Y-84445000D03*
X196220000Y-60061000D03*
X196220000Y-57521000D03*
X173360000Y-102352000D03*
X170820000Y-102352000D03*
X147960000Y-71745000D03*
X173360000Y-104892000D03*
X175900000Y-102352000D03*
X147960000Y-69205000D03*
D14*
X153040000Y-135245000D03*
X153040000Y-132705000D03*
X170820000Y-104892000D03*
X147960000Y-81905000D03*
X147960000Y-79365000D03*
X196220000Y-65141000D03*
D13*
X155580000Y-135245000D03*
X155580000Y-132705000D03*
X158120000Y-135245000D03*
X158120000Y-132705000D03*
X160660000Y-135245000D03*
X160660000Y-132705000D03*
X163200000Y-135245000D03*
X163200000Y-132705000D03*
X165740000Y-135245000D03*
X165740000Y-132705000D03*
X168280000Y-135245000D03*
X168280000Y-132705000D03*
X170820000Y-135245000D03*
X170820000Y-132705000D03*
X173360000Y-135245000D03*
X173360000Y-132705000D03*
X175900000Y-135245000D03*
X175900000Y-132705000D03*
X178440000Y-135245000D03*
X178440000Y-132705000D03*
X180980000Y-135245000D03*
X180980000Y-132705000D03*
X183520000Y-135245000D03*
X183520000Y-132705000D03*
X186060000Y-135245000D03*
X186060000Y-132705000D03*
X188600000Y-135245000D03*
X188600000Y-132705000D03*
X191140000Y-135245000D03*
X191140000Y-132705000D03*
X193680000Y-135245000D03*
X193680000Y-132705000D03*
X196220000Y-125085000D03*
X196220000Y-122545000D03*
X196220000Y-120005000D03*
X196220000Y-117465000D03*
X196220000Y-114925000D03*
X196220000Y-112385000D03*
X196220000Y-109845000D03*
X196220000Y-107305000D03*
X196220000Y-67681000D03*
X196220000Y-70221000D03*
X196220000Y-72761000D03*
X196220000Y-75301000D03*
X196220000Y-77841000D03*
X196220000Y-80381000D03*
X196220000Y-84445000D03*
X196220000Y-86985000D03*
X196220000Y-89525000D03*
X196220000Y-92065000D03*
X196220000Y-94605000D03*
X196220000Y-97145000D03*
X196220000Y-99685000D03*
X196220000Y-102225000D03*
X196220000Y-62601000D03*
X147960000Y-130165000D03*
X147960000Y-127625000D03*
X147960000Y-125085000D03*
X147960000Y-122545000D03*
X147960000Y-120005000D03*
X147960000Y-117465000D03*
X147960000Y-114925000D03*
X147960000Y-112385000D03*
X147960000Y-107305000D03*
X147960000Y-104765000D03*
X147960000Y-102225000D03*
X147960000Y-99685000D03*
X147960000Y-97145000D03*
X147960000Y-94605000D03*
X147960000Y-92065000D03*
X147960000Y-89525000D03*
X196220000Y-135245000D03*
X196220000Y-132705000D03*
X175900000Y-104892000D03*
X147960000Y-76825000D03*
X147960000Y-74285000D03*
D15*
X147960000Y-135245000D03*
X196220000Y-128895000D03*
X153040000Y-104765000D03*
X180980000Y-104765000D03*
D13*
X147960000Y-66665000D03*
D15*
X196220000Y-53965000D03*
X147960000Y-52695000D03*
%TD*%
D16*
%TO.C,J1*%
X160020000Y-69850000D03*
D17*
X162560000Y-69850000D03*
X160020000Y-72390000D03*
X162560000Y-72390000D03*
X160020000Y-74930000D03*
X162560000Y-74930000D03*
X160020000Y-77470000D03*
X162560000Y-77470000D03*
X160020000Y-80010000D03*
X162560000Y-80010000D03*
X160020000Y-82550000D03*
X162560000Y-82550000D03*
X160020000Y-85090000D03*
X162560000Y-85090000D03*
X160020000Y-87630000D03*
X162560000Y-87630000D03*
X160020000Y-90170000D03*
X162560000Y-90170000D03*
X160020000Y-92710000D03*
X162560000Y-92710000D03*
X160020000Y-95250000D03*
X162560000Y-95250000D03*
X160020000Y-97790000D03*
X162560000Y-97790000D03*
X160020000Y-100330000D03*
X162560000Y-100330000D03*
X160020000Y-102870000D03*
X162560000Y-102870000D03*
X160020000Y-105410000D03*
X162560000Y-105410000D03*
X160020000Y-107950000D03*
X162560000Y-107950000D03*
X160020000Y-110490000D03*
X162560000Y-110490000D03*
X160020000Y-113030000D03*
X162560000Y-113030000D03*
X160020000Y-115570000D03*
X162560000Y-115570000D03*
X160020000Y-118110000D03*
X162560000Y-118110000D03*
%TD*%
%LPD*%
M02*
