M48
; DRILL file {KiCad 7.0.7} date Thu Sep 28 15:46:02 2023
; FORMAT={-:-/ absolute / metric / decimal}
; #@! TF.CreationDate,2023-09-28T15:46:02-05:00
; #@! TF.GenerationSoftware,Kicad,Pcbnew,7.0.7
; #@! TF.FileFunction,Plated,1,2,PTH
FMAT,2
METRIC
; #@! TA.AperFunction,Plated,PTH,ViaDrill
T1C0.400
; #@! TA.AperFunction,Plated,PTH,ComponentDrill
T2C1.000
; #@! TA.AperFunction,Plated,PTH,ComponentDrill
T3C1.016
%
G90
G05
T1
X180.975Y-127.635
T2
X160.02Y-69.85
X160.02Y-72.39
X160.02Y-74.93
X160.02Y-77.47
X160.02Y-80.01
X160.02Y-82.55
X160.02Y-85.09
X160.02Y-87.63
X160.02Y-90.17
X160.02Y-92.71
X160.02Y-95.25
X160.02Y-97.79
X160.02Y-100.33
X160.02Y-102.87
X160.02Y-105.41
X160.02Y-107.95
X160.02Y-110.49
X160.02Y-113.03
X160.02Y-115.57
X160.02Y-118.11
X162.56Y-69.85
X162.56Y-72.39
X162.56Y-74.93
X162.56Y-77.47
X162.56Y-80.01
X162.56Y-82.55
X162.56Y-85.09
X162.56Y-87.63
X162.56Y-90.17
X162.56Y-92.71
X162.56Y-95.25
X162.56Y-97.79
X162.56Y-100.33
X162.56Y-102.87
X162.56Y-105.41
X162.56Y-107.95
X162.56Y-110.49
X162.56Y-113.03
X162.56Y-115.57
X162.56Y-118.11
T3
X147.96Y-66.665
X147.96Y-69.205
X147.96Y-71.745
X147.96Y-74.285
X147.96Y-76.825
X147.96Y-79.365
X147.96Y-81.905
X147.96Y-84.445
X147.96Y-89.525
X147.96Y-92.065
X147.96Y-94.605
X147.96Y-97.145
X147.96Y-99.685
X147.96Y-102.225
X147.96Y-104.765
X147.96Y-107.305
X147.96Y-112.385
X147.96Y-114.925
X147.96Y-117.465
X147.96Y-120.005
X147.96Y-122.545
X147.96Y-125.085
X147.96Y-127.625
X147.96Y-130.165
X153.04Y-132.705
X153.04Y-135.245
X155.58Y-132.705
X155.58Y-135.245
X158.12Y-132.705
X158.12Y-135.245
X160.66Y-132.705
X160.66Y-135.245
X163.2Y-132.705
X163.2Y-135.245
X165.74Y-132.705
X165.74Y-135.245
X168.28Y-132.705
X168.28Y-135.245
X170.82Y-102.352
X170.82Y-104.892
X170.82Y-132.705
X170.82Y-135.245
X173.36Y-102.352
X173.36Y-104.892
X173.36Y-132.705
X173.36Y-135.245
X175.9Y-102.352
X175.9Y-104.892
X175.9Y-132.705
X175.9Y-135.245
X178.44Y-132.705
X178.44Y-135.245
X180.98Y-132.705
X180.98Y-135.245
X183.52Y-132.705
X183.52Y-135.245
X186.06Y-132.705
X186.06Y-135.245
X188.6Y-132.705
X188.6Y-135.245
X191.14Y-132.705
X191.14Y-135.245
X193.68Y-132.705
X193.68Y-135.245
X196.22Y-57.521
X196.22Y-60.061
X196.22Y-62.601
X196.22Y-65.141
X196.22Y-67.681
X196.22Y-70.221
X196.22Y-72.761
X196.22Y-75.301
X196.22Y-77.841
X196.22Y-80.381
X196.22Y-84.445
X196.22Y-86.985
X196.22Y-89.525
X196.22Y-92.065
X196.22Y-94.605
X196.22Y-97.145
X196.22Y-99.685
X196.22Y-102.225
X196.22Y-107.305
X196.22Y-109.845
X196.22Y-112.385
X196.22Y-114.925
X196.22Y-117.465
X196.22Y-120.005
X196.22Y-122.545
X196.22Y-125.085
X196.22Y-132.705
X196.22Y-135.245
T0
M30
