%TF.GenerationSoftware,KiCad,Pcbnew,7.0.7*%
%TF.CreationDate,2023-09-28T15:46:00-05:00*%
%TF.ProjectId,iowa-rover-kiosk-mega-adapter,696f7761-2d72-46f7-9665-722d6b696f73,rev?*%
%TF.SameCoordinates,Original*%
%TF.FileFunction,Copper,L1,Top*%
%TF.FilePolarity,Positive*%
%FSLAX46Y46*%
G04 Gerber Fmt 4.6, Leading zero omitted, Abs format (unit mm)*
G04 Created by KiCad (PCBNEW 7.0.7) date 2023-09-28 15:46:00*
%MOMM*%
%LPD*%
G01*
G04 APERTURE LIST*
%TA.AperFunction,ComponentPad*%
%ADD10O,1.727200X1.727200*%
%TD*%
%TA.AperFunction,ComponentPad*%
%ADD11R,1.727200X1.727200*%
%TD*%
%TA.AperFunction,ComponentPad*%
%ADD12R,1.700000X1.700000*%
%TD*%
%TA.AperFunction,ComponentPad*%
%ADD13O,1.700000X1.700000*%
%TD*%
%TA.AperFunction,ViaPad*%
%ADD14C,0.800000*%
%TD*%
%TA.AperFunction,Conductor*%
%ADD15C,0.250000*%
%TD*%
G04 APERTURE END LIST*
D10*
%TO.P,A1,VIN,VIN*%
%TO.N,+12V*%
X147960000Y-84445000D03*
%TO.P,A1,SDA,SDA*%
%TO.N,unconnected-(A1-PadSDA)*%
X196220000Y-60061000D03*
%TO.P,A1,SCL,SCL*%
%TO.N,unconnected-(A1-PadSCL)*%
X196220000Y-57521000D03*
%TO.P,A1,SCK,SPI_SCK*%
%TO.N,unconnected-(A1-SPI_SCK-PadSCK)*%
X173360000Y-102352000D03*
%TO.P,A1,RST2,SPI_RESET*%
%TO.N,unconnected-(A1-SPI_RESET-PadRST2)*%
X170820000Y-102352000D03*
%TO.P,A1,RST1,RESET*%
%TO.N,unconnected-(A1-RESET-PadRST1)*%
X147960000Y-71745000D03*
%TO.P,A1,MOSI,SPI_MOSI*%
%TO.N,unconnected-(A1-SPI_MOSI-PadMOSI)*%
X173360000Y-104892000D03*
%TO.P,A1,MISO,SPI_MISO*%
%TO.N,unconnected-(A1-SPI_MISO-PadMISO)*%
X175900000Y-102352000D03*
%TO.P,A1,IORF,IOREF*%
%TO.N,unconnected-(A1-IOREF-PadIORF)*%
X147960000Y-69205000D03*
D11*
%TO.P,A1,GND6,GND*%
%TO.N,GND*%
X153040000Y-135245000D03*
%TO.P,A1,GND5,GND*%
X153040000Y-132705000D03*
%TO.P,A1,GND4,SPI_GND*%
X170820000Y-104892000D03*
%TO.P,A1,GND3,GND*%
X147960000Y-81905000D03*
%TO.P,A1,GND2,GND*%
X147960000Y-79365000D03*
%TO.P,A1,GND1,GND*%
X196220000Y-65141000D03*
D10*
%TO.P,A1,D53,D53_CS*%
%TO.N,/CS*%
X155580000Y-135245000D03*
%TO.P,A1,D52,D52_SCK*%
%TO.N,/SCK*%
X155580000Y-132705000D03*
%TO.P,A1,D51,D51_MOSI*%
%TO.N,/COPI*%
X158120000Y-135245000D03*
%TO.P,A1,D50,D50_MISO*%
%TO.N,/CIPO*%
X158120000Y-132705000D03*
%TO.P,A1,D49,D49*%
%TO.N,unconnected-(A1-PadD49)*%
X160660000Y-135245000D03*
%TO.P,A1,D48,D48*%
%TO.N,unconnected-(A1-PadD48)*%
X160660000Y-132705000D03*
%TO.P,A1,D47,D47*%
%TO.N,unconnected-(A1-PadD47)*%
X163200000Y-135245000D03*
%TO.P,A1,D46,D46*%
%TO.N,unconnected-(A1-PadD46)*%
X163200000Y-132705000D03*
%TO.P,A1,D45,D45*%
%TO.N,Net-(J1-D45_RST)*%
X165740000Y-135245000D03*
%TO.P,A1,D44,D44*%
%TO.N,unconnected-(A1-PadD44)*%
X165740000Y-132705000D03*
%TO.P,A1,D43,D43*%
%TO.N,unconnected-(A1-PadD43)*%
X168280000Y-135245000D03*
%TO.P,A1,D42,D42*%
%TO.N,unconnected-(A1-PadD42)*%
X168280000Y-132705000D03*
%TO.P,A1,D41,D41*%
%TO.N,Net-(J1-LP4)*%
X170820000Y-135245000D03*
%TO.P,A1,D40,D40*%
%TO.N,Net-(J1-LP3)*%
X170820000Y-132705000D03*
%TO.P,A1,D39,D39*%
%TO.N,Net-(J1-LP2)*%
X173360000Y-135245000D03*
%TO.P,A1,D38,D38*%
%TO.N,Net-(J1-LP1)*%
X173360000Y-132705000D03*
%TO.P,A1,D37,D37*%
%TO.N,Net-(J1-BP5)*%
X175900000Y-135245000D03*
%TO.P,A1,D36,D36*%
%TO.N,Net-(J1-BP4)*%
X175900000Y-132705000D03*
%TO.P,A1,D35,D35*%
%TO.N,Net-(J1-BP3)*%
X178440000Y-135245000D03*
%TO.P,A1,D34,D34*%
%TO.N,Net-(J1-BP2)*%
X178440000Y-132705000D03*
%TO.P,A1,D33,D33*%
%TO.N,Net-(J1-BP1)*%
X180980000Y-135245000D03*
%TO.P,A1,D32,D32*%
%TO.N,Net-(J1-KIOSK)*%
X180980000Y-132705000D03*
%TO.P,A1,D31,D31*%
%TO.N,unconnected-(A1-PadD31)*%
X183520000Y-135245000D03*
%TO.P,A1,D30,D30*%
%TO.N,Net-(J1-BTX)*%
X183520000Y-132705000D03*
%TO.P,A1,D29,D29*%
%TO.N,Net-(J1-B4_DOWN)*%
X186060000Y-135245000D03*
%TO.P,A1,D28,D28*%
%TO.N,Net-(J1-B4_UP)*%
X186060000Y-132705000D03*
%TO.P,A1,D27,D27*%
%TO.N,Net-(J1-B3_DOWN)*%
X188600000Y-135245000D03*
%TO.P,A1,D26,D26*%
%TO.N,Net-(J1-B3_UP)*%
X188600000Y-132705000D03*
%TO.P,A1,D25,D25*%
%TO.N,Net-(J1-B2_DOWN)*%
X191140000Y-135245000D03*
%TO.P,A1,D24,D24*%
%TO.N,Net-(J1-B2_UP)*%
X191140000Y-132705000D03*
%TO.P,A1,D23,D23*%
%TO.N,Net-(J1-B1_DOWN)*%
X193680000Y-135245000D03*
%TO.P,A1,D22,D22*%
%TO.N,Net-(J1-B1_UP)*%
X193680000Y-132705000D03*
%TO.P,A1,D21,D21/SCL*%
%TO.N,Net-(A1-D21{slash}SCL)*%
X196220000Y-125085000D03*
%TO.P,A1,D20,D20/SDA*%
%TO.N,Net-(A1-D20{slash}SDA)*%
X196220000Y-122545000D03*
%TO.P,A1,D19,D19/RX1*%
%TO.N,Net-(A1-D19{slash}RX1)*%
X196220000Y-120005000D03*
%TO.P,A1,D18,D18/TX1*%
%TO.N,unconnected-(A1-D18{slash}TX1-PadD18)*%
X196220000Y-117465000D03*
%TO.P,A1,D17,D17/RX2*%
%TO.N,unconnected-(A1-D17{slash}RX2-PadD17)*%
X196220000Y-114925000D03*
%TO.P,A1,D16,D16/TX2*%
%TO.N,unconnected-(A1-D16{slash}TX2-PadD16)*%
X196220000Y-112385000D03*
%TO.P,A1,D15,D15/RX3*%
%TO.N,unconnected-(A1-D15{slash}RX3-PadD15)*%
X196220000Y-109845000D03*
%TO.P,A1,D14,D14/TX3*%
%TO.N,unconnected-(A1-D14{slash}TX3-PadD14)*%
X196220000Y-107305000D03*
%TO.P,A1,D13,D13*%
%TO.N,unconnected-(A1-PadD13)*%
X196220000Y-67681000D03*
%TO.P,A1,D12,D12*%
%TO.N,/DATA*%
X196220000Y-70221000D03*
%TO.P,A1,D11,D11*%
%TO.N,unconnected-(A1-PadD11)*%
X196220000Y-72761000D03*
%TO.P,A1,D10,D10*%
%TO.N,/CLOCK*%
X196220000Y-75301000D03*
%TO.P,A1,D9,D9*%
%TO.N,/LATCH*%
X196220000Y-77841000D03*
%TO.P,A1,D8,D8*%
%TO.N,unconnected-(A1-PadD8)*%
X196220000Y-80381000D03*
%TO.P,A1,D7,D7*%
%TO.N,unconnected-(A1-PadD7)*%
X196220000Y-84445000D03*
%TO.P,A1,D6,D6*%
%TO.N,/NEO*%
X196220000Y-86985000D03*
%TO.P,A1,D5,D5*%
%TO.N,unconnected-(A1-PadD5)*%
X196220000Y-89525000D03*
%TO.P,A1,D4,D4*%
%TO.N,unconnected-(A1-PadD4)*%
X196220000Y-92065000D03*
%TO.P,A1,D3,D3_INT1*%
%TO.N,unconnected-(A1-D3_INT1-PadD3)*%
X196220000Y-94605000D03*
%TO.P,A1,D2,D2_INT0*%
%TO.N,unconnected-(A1-D2_INT0-PadD2)*%
X196220000Y-97145000D03*
%TO.P,A1,D1,D1/TX0*%
%TO.N,unconnected-(A1-D1{slash}TX0-PadD1)*%
X196220000Y-99685000D03*
%TO.P,A1,D0,D0/RX0*%
%TO.N,unconnected-(A1-D0{slash}RX0-PadD0)*%
X196220000Y-102225000D03*
%TO.P,A1,AREF,AREF*%
%TO.N,unconnected-(A1-PadAREF)*%
X196220000Y-62601000D03*
%TO.P,A1,A15,A15*%
%TO.N,unconnected-(A1-PadA15)*%
X147960000Y-130165000D03*
%TO.P,A1,A14,A14*%
%TO.N,unconnected-(A1-PadA14)*%
X147960000Y-127625000D03*
%TO.P,A1,A13,A13*%
%TO.N,unconnected-(A1-PadA13)*%
X147960000Y-125085000D03*
%TO.P,A1,A12,A12*%
%TO.N,unconnected-(A1-PadA12)*%
X147960000Y-122545000D03*
%TO.P,A1,A11,A11*%
%TO.N,unconnected-(A1-PadA11)*%
X147960000Y-120005000D03*
%TO.P,A1,A10,A10*%
%TO.N,unconnected-(A1-PadA10)*%
X147960000Y-117465000D03*
%TO.P,A1,A9,A9*%
%TO.N,unconnected-(A1-PadA9)*%
X147960000Y-114925000D03*
%TO.P,A1,A8,A8*%
%TO.N,unconnected-(A1-PadA8)*%
X147960000Y-112385000D03*
%TO.P,A1,A7,A7*%
%TO.N,unconnected-(A1-PadA7)*%
X147960000Y-107305000D03*
%TO.P,A1,A6,A6*%
%TO.N,unconnected-(A1-PadA6)*%
X147960000Y-104765000D03*
%TO.P,A1,A5,A5*%
%TO.N,unconnected-(A1-PadA5)*%
X147960000Y-102225000D03*
%TO.P,A1,A4,A4*%
%TO.N,unconnected-(A1-PadA4)*%
X147960000Y-99685000D03*
%TO.P,A1,A3,A3*%
%TO.N,unconnected-(A1-PadA3)*%
X147960000Y-97145000D03*
%TO.P,A1,A2,A2*%
%TO.N,unconnected-(A1-PadA2)*%
X147960000Y-94605000D03*
%TO.P,A1,A1,A1*%
%TO.N,unconnected-(A1-PadA1)*%
X147960000Y-92065000D03*
%TO.P,A1,A0,A0*%
%TO.N,unconnected-(A1-PadA0)*%
X147960000Y-89525000D03*
%TO.P,A1,5V4,5V*%
%TO.N,unconnected-(A1-5V-Pad5V4)*%
X196220000Y-135245000D03*
%TO.P,A1,5V3,5V*%
%TO.N,unconnected-(A1-5V-Pad5V3)*%
X196220000Y-132705000D03*
%TO.P,A1,5V2,SPI_5V*%
%TO.N,unconnected-(A1-SPI_5V-Pad5V2)*%
X175900000Y-104892000D03*
%TO.P,A1,5V1,5V*%
%TO.N,unconnected-(A1-5V-Pad5V1)*%
X147960000Y-76825000D03*
%TO.P,A1,3V3,3.3V*%
%TO.N,unconnected-(A1-3.3V-Pad3V3)*%
X147960000Y-74285000D03*
%TO.P,A1,*%
%TO.N,*%
X147960000Y-66665000D03*
%TD*%
D12*
%TO.P,J1,1,GND*%
%TO.N,GND*%
X160020000Y-69850000D03*
D13*
%TO.P,J1,2,VIN*%
%TO.N,+12V*%
X162560000Y-69850000D03*
%TO.P,J1,3,D50_CIPO*%
%TO.N,/CIPO*%
X160020000Y-72390000D03*
%TO.P,J1,4,D51_COPI*%
%TO.N,/COPI*%
X162560000Y-72390000D03*
%TO.P,J1,5,D52_SCK*%
%TO.N,/SCK*%
X160020000Y-74930000D03*
%TO.P,J1,6,D53_CS*%
%TO.N,/CS*%
X162560000Y-74930000D03*
%TO.P,J1,7,D45_RST*%
%TO.N,Net-(J1-D45_RST)*%
X160020000Y-77470000D03*
%TO.P,J1,8,D19_INT*%
%TO.N,Net-(A1-D19{slash}RX1)*%
X162560000Y-77470000D03*
%TO.P,J1,9,D20_SDA*%
%TO.N,Net-(A1-D20{slash}SDA)*%
X160020000Y-80010000D03*
%TO.P,J1,10,D21_SCL*%
%TO.N,Net-(A1-D21{slash}SCL)*%
X162560000Y-80010000D03*
%TO.P,J1,11,D12_DATA*%
%TO.N,/DATA*%
X160020000Y-82550000D03*
%TO.P,J1,12,D10_CLOCK*%
%TO.N,/CLOCK*%
X162560000Y-82550000D03*
%TO.P,J1,13,D9_LATCH*%
%TO.N,/LATCH*%
X160020000Y-85090000D03*
%TO.P,J1,14,D6_NEO*%
%TO.N,/NEO*%
X162560000Y-85090000D03*
%TO.P,J1,15,B1_DOWN*%
%TO.N,Net-(J1-B1_DOWN)*%
X160020000Y-87630000D03*
%TO.P,J1,16,B1_UP*%
%TO.N,Net-(J1-B1_UP)*%
X162560000Y-87630000D03*
%TO.P,J1,17,B2_DOWN*%
%TO.N,Net-(J1-B2_DOWN)*%
X160020000Y-90170000D03*
%TO.P,J1,18,B2_UP*%
%TO.N,Net-(J1-B2_UP)*%
X162560000Y-90170000D03*
%TO.P,J1,19,B3_DOWN*%
%TO.N,Net-(J1-B3_DOWN)*%
X160020000Y-92710000D03*
%TO.P,J1,20,B3_UP*%
%TO.N,Net-(J1-B3_UP)*%
X162560000Y-92710000D03*
%TO.P,J1,21,B4_DOWN*%
%TO.N,Net-(J1-B4_DOWN)*%
X160020000Y-95250000D03*
%TO.P,J1,22,B4_UP*%
%TO.N,Net-(J1-B4_UP)*%
X162560000Y-95250000D03*
%TO.P,J1,23,BTX*%
%TO.N,Net-(J1-BTX)*%
X160020000Y-97790000D03*
%TO.P,J1,24,BP1*%
%TO.N,Net-(J1-BP1)*%
X162560000Y-97790000D03*
%TO.P,J1,25,BP2*%
%TO.N,Net-(J1-BP2)*%
X160020000Y-100330000D03*
%TO.P,J1,26,BP3*%
%TO.N,Net-(J1-BP3)*%
X162560000Y-100330000D03*
%TO.P,J1,27,BP4*%
%TO.N,Net-(J1-BP4)*%
X160020000Y-102870000D03*
%TO.P,J1,28,BP5*%
%TO.N,Net-(J1-BP5)*%
X162560000Y-102870000D03*
%TO.P,J1,29,LP1*%
%TO.N,Net-(J1-LP1)*%
X160020000Y-105410000D03*
%TO.P,J1,30,LP2*%
%TO.N,Net-(J1-LP2)*%
X162560000Y-105410000D03*
%TO.P,J1,31,LP3*%
%TO.N,Net-(J1-LP3)*%
X160020000Y-107950000D03*
%TO.P,J1,32,LP4*%
%TO.N,Net-(J1-LP4)*%
X162560000Y-107950000D03*
%TO.P,J1,33,KIOSK*%
%TO.N,Net-(J1-KIOSK)*%
X160020000Y-110490000D03*
%TO.P,J1,34,NC*%
%TO.N,unconnected-(J1-NC-Pad34)*%
X162560000Y-110490000D03*
%TO.P,J1,35,NC*%
%TO.N,unconnected-(J1-NC-Pad35)*%
X160020000Y-113030000D03*
%TO.P,J1,36,NC*%
%TO.N,unconnected-(J1-NC-Pad36)*%
X162560000Y-113030000D03*
%TO.P,J1,37,NC*%
%TO.N,unconnected-(J1-NC-Pad37)*%
X160020000Y-115570000D03*
%TO.P,J1,38,NC*%
%TO.N,unconnected-(J1-NC-Pad38)*%
X162560000Y-115570000D03*
%TO.P,J1,39,NC*%
%TO.N,unconnected-(J1-NC-Pad39)*%
X160020000Y-118110000D03*
%TO.P,J1,40,NC*%
%TO.N,unconnected-(J1-NC-Pad40)*%
X162560000Y-118110000D03*
%TD*%
D14*
%TO.N,Net-(J1-KIOSK)*%
X180975000Y-127635000D03*
%TD*%
D15*
%TO.N,GND*%
X153040000Y-132705000D02*
X153040000Y-135245000D01*
%TO.N,+12V*%
X161290000Y-68580000D02*
X158940000Y-68580000D01*
X149148600Y-78371400D02*
X149148600Y-83256400D01*
X149148600Y-83256400D02*
X147960000Y-84445000D01*
X158940000Y-68580000D02*
X149148600Y-78371400D01*
X162560000Y-69850000D02*
X161290000Y-68580000D01*
%TO.N,Net-(J1-D45_RST)*%
X165740000Y-135245000D02*
X164551400Y-134056400D01*
X164551400Y-124303101D02*
X158845000Y-118596701D01*
X158845000Y-78645000D02*
X160020000Y-77470000D01*
X158845000Y-118596701D02*
X158845000Y-78645000D01*
X164551400Y-134056400D02*
X164551400Y-124303101D01*
%TO.N,/DATA*%
X161290000Y-81280000D02*
X160020000Y-82550000D01*
X185161000Y-81280000D02*
X161290000Y-81280000D01*
X196220000Y-70221000D02*
X185161000Y-81280000D01*
%TO.N,/CLOCK*%
X162560000Y-82550000D02*
X188971000Y-82550000D01*
X188971000Y-82550000D02*
X196220000Y-75301000D01*
%TO.N,/LATCH*%
X190336000Y-83725000D02*
X196220000Y-77841000D01*
X160020000Y-85090000D02*
X161385000Y-83725000D01*
X161385000Y-83725000D02*
X190336000Y-83725000D01*
%TO.N,/NEO*%
X194325000Y-85090000D02*
X196220000Y-86985000D01*
X162560000Y-85090000D02*
X194325000Y-85090000D01*
%TO.N,Net-(J1-B1_DOWN)*%
X194868600Y-131368600D02*
X194245000Y-130745000D01*
X170789772Y-86455000D02*
X161195000Y-86455000D01*
X194245000Y-109910228D02*
X170789772Y-86455000D01*
X193680000Y-135245000D02*
X194868600Y-134056400D01*
X161195000Y-86455000D02*
X160020000Y-87630000D01*
X194868600Y-134056400D02*
X194868600Y-131368600D01*
X194245000Y-130745000D02*
X194245000Y-109910228D01*
%TO.N,Net-(J1-B1_UP)*%
X193680000Y-132705000D02*
X193680000Y-109981624D01*
X193680000Y-109981624D02*
X171328376Y-87630000D01*
X171328376Y-87630000D02*
X162560000Y-87630000D01*
%TO.N,Net-(J1-B2_DOWN)*%
X192328600Y-134056400D02*
X192328600Y-109266620D01*
X161290000Y-88900000D02*
X160020000Y-90170000D01*
X171961980Y-88900000D02*
X161290000Y-88900000D01*
X191140000Y-135245000D02*
X192328600Y-134056400D01*
X192328600Y-109266620D02*
X171961980Y-88900000D01*
%TO.N,Net-(J1-B2_UP)*%
X191140000Y-132705000D02*
X191140000Y-108714416D01*
X191140000Y-108714416D02*
X172595584Y-90170000D01*
X172595584Y-90170000D02*
X162560000Y-90170000D01*
%TO.N,Net-(J1-B3_DOWN)*%
X161290000Y-91440000D02*
X160020000Y-92710000D01*
X188600000Y-135245000D02*
X189788600Y-134056400D01*
X189788600Y-134056400D02*
X189788600Y-107999412D01*
X189788600Y-107999412D02*
X173229188Y-91440000D01*
X173229188Y-91440000D02*
X161290000Y-91440000D01*
%TO.N,Net-(J1-B3_UP)*%
X188600000Y-132705000D02*
X188600000Y-107447208D01*
X188600000Y-107447208D02*
X173862792Y-92710000D01*
X173862792Y-92710000D02*
X162560000Y-92710000D01*
%TO.N,Net-(J1-B4_DOWN)*%
X187248600Y-106732204D02*
X174496396Y-93980000D01*
X174496396Y-93980000D02*
X161290000Y-93980000D01*
X187248600Y-134056400D02*
X187248600Y-106732204D01*
X186060000Y-135245000D02*
X187248600Y-134056400D01*
X161290000Y-93980000D02*
X160020000Y-95250000D01*
%TO.N,Net-(J1-B4_UP)*%
X186060000Y-106180000D02*
X175130000Y-95250000D01*
X186060000Y-132705000D02*
X186060000Y-106180000D01*
X175130000Y-95250000D02*
X162560000Y-95250000D01*
%TO.N,Net-(J1-BTX)*%
X163735000Y-100184200D02*
X163735000Y-99843299D01*
X183520000Y-132705000D02*
X183520000Y-119969200D01*
X163735000Y-99843299D02*
X162951701Y-99060000D01*
X183520000Y-119969200D02*
X163735000Y-100184200D01*
X161290000Y-99060000D02*
X160020000Y-97790000D01*
X162951701Y-99060000D02*
X161290000Y-99060000D01*
%TO.N,Net-(J1-BP1)*%
X184708600Y-133197335D02*
X184708600Y-118110000D01*
X180980000Y-135245000D02*
X182331400Y-133893600D01*
X172008600Y-103703400D02*
X168473400Y-103703400D01*
X172008600Y-105410000D02*
X172008600Y-103703400D01*
X182331400Y-133893600D02*
X184012335Y-133893600D01*
X184708600Y-118110000D02*
X172008600Y-105410000D01*
X184012335Y-133893600D02*
X184708600Y-133197335D01*
X168473400Y-103703400D02*
X162560000Y-97790000D01*
%TO.N,Net-(J1-BP2)*%
X162073299Y-104045000D02*
X161290000Y-103261701D01*
X161290000Y-103261701D02*
X161290000Y-101600000D01*
X163046701Y-104045000D02*
X162073299Y-104045000D01*
X178440000Y-119438299D02*
X163046701Y-104045000D01*
X178440000Y-132705000D02*
X178440000Y-119438299D01*
X161290000Y-101600000D02*
X160020000Y-100330000D01*
%TO.N,Net-(J1-BP3)*%
X179791400Y-133893600D02*
X181472335Y-133893600D01*
X182168600Y-119938600D02*
X162560000Y-100330000D01*
X178440000Y-135245000D02*
X179791400Y-133893600D01*
X182168600Y-133197335D02*
X182168600Y-119938600D01*
X181472335Y-133893600D02*
X182168600Y-133197335D01*
%TO.N,Net-(J1-BP4)*%
X175900000Y-119628299D02*
X175900000Y-132705000D01*
X160020000Y-102870000D02*
X161385000Y-104235000D01*
X162168299Y-106680000D02*
X162951701Y-106680000D01*
X161385000Y-105896701D02*
X162168299Y-106680000D01*
X161385000Y-104235000D02*
X161385000Y-105896701D01*
X162951701Y-106680000D02*
X175900000Y-119628299D01*
%TO.N,Net-(J1-BP5)*%
X175900000Y-135245000D02*
X176759065Y-135245000D01*
X179628600Y-133197335D02*
X179628600Y-119938600D01*
X178932335Y-133893600D02*
X179628600Y-133197335D01*
X179628600Y-119938600D02*
X162560000Y-102870000D01*
X178110465Y-133893600D02*
X178932335Y-133893600D01*
X176759065Y-135245000D02*
X178110465Y-133893600D01*
%TO.N,Net-(J1-LP1)*%
X162951701Y-109220000D02*
X162168299Y-109220000D01*
X173360000Y-132705000D02*
X173360000Y-119628299D01*
X161290000Y-108341701D02*
X161290000Y-106680000D01*
X173360000Y-119628299D02*
X162951701Y-109220000D01*
X161290000Y-106680000D02*
X160020000Y-105410000D01*
X162168299Y-109220000D02*
X161290000Y-108341701D01*
%TO.N,Net-(J1-LP2)*%
X173360000Y-135245000D02*
X174711400Y-133893600D01*
X177088600Y-133197335D02*
X177088600Y-119938600D01*
X174711400Y-133893600D02*
X176392335Y-133893600D01*
X177088600Y-119938600D02*
X162560000Y-105410000D01*
X176392335Y-133893600D02*
X177088600Y-133197335D01*
%TO.N,Net-(J1-LP3)*%
X161290000Y-110881701D02*
X161290000Y-109220000D01*
X170820000Y-132705000D02*
X170820000Y-119628299D01*
X170820000Y-119628299D02*
X162951701Y-111760000D01*
X161290000Y-109220000D02*
X160020000Y-107950000D01*
X162168299Y-111760000D02*
X161290000Y-110881701D01*
X162951701Y-111760000D02*
X162168299Y-111760000D01*
%TO.N,Net-(J1-LP4)*%
X173852335Y-133893600D02*
X174548600Y-133197335D01*
X174548600Y-119938600D02*
X162560000Y-107950000D01*
X170820000Y-135245000D02*
X172171400Y-133893600D01*
X172171400Y-133893600D02*
X173852335Y-133893600D01*
X174548600Y-133197335D02*
X174548600Y-119938600D01*
%TO.N,Net-(J1-KIOSK)*%
X180980000Y-132705000D02*
X180980000Y-127640000D01*
X180980000Y-127640000D02*
X180975000Y-127635000D01*
%TD*%
M02*
