%TF.GenerationSoftware,KiCad,Pcbnew,7.0.7*%
%TF.CreationDate,2023-09-28T15:46:03-05:00*%
%TF.ProjectId,iowa-rover-kiosk-mega-adapter,696f7761-2d72-46f7-9665-722d6b696f73,rev?*%
%TF.SameCoordinates,Original*%
%TF.FileFunction,Drillmap*%
%TF.FilePolarity,Positive*%
%FSLAX45Y45*%
G04 Gerber Fmt 4.5, Leading zero omitted, Abs format (unit mm)*
G04 Created by KiCad (PCBNEW 7.0.7) date 2023-09-28 15:46:03*
%MOMM*%
%LPD*%
G01*
G04 APERTURE LIST*
%ADD10C,0.100000*%
%ADD11C,0.200000*%
%ADD12C,0.040000*%
%ADD13C,0.101600*%
G04 APERTURE END LIST*
D10*
X19748500Y-4572000D02*
X14732000Y-4572000D01*
X14732000Y-14033500D02*
X19748500Y-14033500D01*
X19748500Y-14033500D02*
G75*
G03*
X19939000Y-13843000I0J190500D01*
G01*
X14541500Y-4762500D02*
X14541500Y-13843000D01*
X19939000Y-4762500D02*
G75*
G03*
X19748500Y-4572000I-190500J0D01*
G01*
X19939000Y-13843000D02*
X19939000Y-4762500D01*
X14732000Y-4572000D02*
G75*
G03*
X14541500Y-4762500I0J-190500D01*
G01*
X14541500Y-13843000D02*
G75*
G03*
X14732000Y-14033500I190500J0D01*
G01*
D11*
D12*
X18077500Y-12743500D02*
X18117500Y-12783500D01*
X18117500Y-12743500D02*
X18077500Y-12783500D01*
D10*
X16052000Y-6985000D02*
G75*
G03*
X16052000Y-6985000I-50000J0D01*
G01*
X16052000Y-7239000D02*
G75*
G03*
X16052000Y-7239000I-50000J0D01*
G01*
X16052000Y-7493000D02*
G75*
G03*
X16052000Y-7493000I-50000J0D01*
G01*
X16052000Y-7747000D02*
G75*
G03*
X16052000Y-7747000I-50000J0D01*
G01*
X16052000Y-8001000D02*
G75*
G03*
X16052000Y-8001000I-50000J0D01*
G01*
X16052000Y-8255000D02*
G75*
G03*
X16052000Y-8255000I-50000J0D01*
G01*
X16052000Y-8509000D02*
G75*
G03*
X16052000Y-8509000I-50000J0D01*
G01*
X16052000Y-8763000D02*
G75*
G03*
X16052000Y-8763000I-50000J0D01*
G01*
X16052000Y-9017000D02*
G75*
G03*
X16052000Y-9017000I-50000J0D01*
G01*
X16052000Y-9271000D02*
G75*
G03*
X16052000Y-9271000I-50000J0D01*
G01*
X16052000Y-9525000D02*
G75*
G03*
X16052000Y-9525000I-50000J0D01*
G01*
X16052000Y-9779000D02*
G75*
G03*
X16052000Y-9779000I-50000J0D01*
G01*
X16052000Y-10033000D02*
G75*
G03*
X16052000Y-10033000I-50000J0D01*
G01*
X16052000Y-10287000D02*
G75*
G03*
X16052000Y-10287000I-50000J0D01*
G01*
X16052000Y-10541000D02*
G75*
G03*
X16052000Y-10541000I-50000J0D01*
G01*
X16052000Y-10795000D02*
G75*
G03*
X16052000Y-10795000I-50000J0D01*
G01*
X16052000Y-11049000D02*
G75*
G03*
X16052000Y-11049000I-50000J0D01*
G01*
X16052000Y-11303000D02*
G75*
G03*
X16052000Y-11303000I-50000J0D01*
G01*
X16052000Y-11557000D02*
G75*
G03*
X16052000Y-11557000I-50000J0D01*
G01*
X16052000Y-11811000D02*
G75*
G03*
X16052000Y-11811000I-50000J0D01*
G01*
X16306000Y-6985000D02*
G75*
G03*
X16306000Y-6985000I-50000J0D01*
G01*
X16306000Y-7239000D02*
G75*
G03*
X16306000Y-7239000I-50000J0D01*
G01*
X16306000Y-7493000D02*
G75*
G03*
X16306000Y-7493000I-50000J0D01*
G01*
X16306000Y-7747000D02*
G75*
G03*
X16306000Y-7747000I-50000J0D01*
G01*
X16306000Y-8001000D02*
G75*
G03*
X16306000Y-8001000I-50000J0D01*
G01*
X16306000Y-8255000D02*
G75*
G03*
X16306000Y-8255000I-50000J0D01*
G01*
X16306000Y-8509000D02*
G75*
G03*
X16306000Y-8509000I-50000J0D01*
G01*
X16306000Y-8763000D02*
G75*
G03*
X16306000Y-8763000I-50000J0D01*
G01*
X16306000Y-9017000D02*
G75*
G03*
X16306000Y-9017000I-50000J0D01*
G01*
X16306000Y-9271000D02*
G75*
G03*
X16306000Y-9271000I-50000J0D01*
G01*
X16306000Y-9525000D02*
G75*
G03*
X16306000Y-9525000I-50000J0D01*
G01*
X16306000Y-9779000D02*
G75*
G03*
X16306000Y-9779000I-50000J0D01*
G01*
X16306000Y-10033000D02*
G75*
G03*
X16306000Y-10033000I-50000J0D01*
G01*
X16306000Y-10287000D02*
G75*
G03*
X16306000Y-10287000I-50000J0D01*
G01*
X16306000Y-10541000D02*
G75*
G03*
X16306000Y-10541000I-50000J0D01*
G01*
X16306000Y-10795000D02*
G75*
G03*
X16306000Y-10795000I-50000J0D01*
G01*
X16306000Y-11049000D02*
G75*
G03*
X16306000Y-11049000I-50000J0D01*
G01*
X16306000Y-11303000D02*
G75*
G03*
X16306000Y-11303000I-50000J0D01*
G01*
X16306000Y-11557000D02*
G75*
G03*
X16306000Y-11557000I-50000J0D01*
G01*
X16306000Y-11811000D02*
G75*
G03*
X16306000Y-11811000I-50000J0D01*
G01*
D13*
X14796000Y-6615700D02*
X14796000Y-6717300D01*
X14745200Y-6666500D02*
X14846800Y-6666500D01*
X14796000Y-6869700D02*
X14796000Y-6971300D01*
X14745200Y-6920500D02*
X14846800Y-6920500D01*
X14796000Y-7123700D02*
X14796000Y-7225300D01*
X14745200Y-7174500D02*
X14846800Y-7174500D01*
X14796000Y-7377700D02*
X14796000Y-7479300D01*
X14745200Y-7428500D02*
X14846800Y-7428500D01*
X14796000Y-7631700D02*
X14796000Y-7733300D01*
X14745200Y-7682500D02*
X14846800Y-7682500D01*
X14796000Y-7885700D02*
X14796000Y-7987300D01*
X14745200Y-7936500D02*
X14846800Y-7936500D01*
X14796000Y-8139700D02*
X14796000Y-8241300D01*
X14745200Y-8190500D02*
X14846800Y-8190500D01*
X14796000Y-8393700D02*
X14796000Y-8495300D01*
X14745200Y-8444500D02*
X14846800Y-8444500D01*
X14796000Y-8901700D02*
X14796000Y-9003300D01*
X14745200Y-8952500D02*
X14846800Y-8952500D01*
X14796000Y-9155700D02*
X14796000Y-9257300D01*
X14745200Y-9206500D02*
X14846800Y-9206500D01*
X14796000Y-9409700D02*
X14796000Y-9511300D01*
X14745200Y-9460500D02*
X14846800Y-9460500D01*
X14796000Y-9663700D02*
X14796000Y-9765300D01*
X14745200Y-9714500D02*
X14846800Y-9714500D01*
X14796000Y-9917700D02*
X14796000Y-10019300D01*
X14745200Y-9968500D02*
X14846800Y-9968500D01*
X14796000Y-10171700D02*
X14796000Y-10273300D01*
X14745200Y-10222500D02*
X14846800Y-10222500D01*
X14796000Y-10425700D02*
X14796000Y-10527300D01*
X14745200Y-10476500D02*
X14846800Y-10476500D01*
X14796000Y-10679700D02*
X14796000Y-10781300D01*
X14745200Y-10730500D02*
X14846800Y-10730500D01*
X14796000Y-11187700D02*
X14796000Y-11289300D01*
X14745200Y-11238500D02*
X14846800Y-11238500D01*
X14796000Y-11441700D02*
X14796000Y-11543300D01*
X14745200Y-11492500D02*
X14846800Y-11492500D01*
X14796000Y-11695700D02*
X14796000Y-11797300D01*
X14745200Y-11746500D02*
X14846800Y-11746500D01*
X14796000Y-11949700D02*
X14796000Y-12051300D01*
X14745200Y-12000500D02*
X14846800Y-12000500D01*
X14796000Y-12203700D02*
X14796000Y-12305300D01*
X14745200Y-12254500D02*
X14846800Y-12254500D01*
X14796000Y-12457700D02*
X14796000Y-12559300D01*
X14745200Y-12508500D02*
X14846800Y-12508500D01*
X14796000Y-12711700D02*
X14796000Y-12813300D01*
X14745200Y-12762500D02*
X14846800Y-12762500D01*
X14796000Y-12965700D02*
X14796000Y-13067300D01*
X14745200Y-13016500D02*
X14846800Y-13016500D01*
X15304000Y-13219700D02*
X15304000Y-13321300D01*
X15253200Y-13270500D02*
X15354800Y-13270500D01*
X15304000Y-13473700D02*
X15304000Y-13575300D01*
X15253200Y-13524500D02*
X15354800Y-13524500D01*
X15558000Y-13219700D02*
X15558000Y-13321300D01*
X15507200Y-13270500D02*
X15608800Y-13270500D01*
X15558000Y-13473700D02*
X15558000Y-13575300D01*
X15507200Y-13524500D02*
X15608800Y-13524500D01*
X15812000Y-13219700D02*
X15812000Y-13321300D01*
X15761200Y-13270500D02*
X15862800Y-13270500D01*
X15812000Y-13473700D02*
X15812000Y-13575300D01*
X15761200Y-13524500D02*
X15862800Y-13524500D01*
X16066000Y-13219700D02*
X16066000Y-13321300D01*
X16015200Y-13270500D02*
X16116800Y-13270500D01*
X16066000Y-13473700D02*
X16066000Y-13575300D01*
X16015200Y-13524500D02*
X16116800Y-13524500D01*
X16320000Y-13219700D02*
X16320000Y-13321300D01*
X16269200Y-13270500D02*
X16370800Y-13270500D01*
X16320000Y-13473700D02*
X16320000Y-13575300D01*
X16269200Y-13524500D02*
X16370800Y-13524500D01*
X16574000Y-13219700D02*
X16574000Y-13321300D01*
X16523200Y-13270500D02*
X16624800Y-13270500D01*
X16574000Y-13473700D02*
X16574000Y-13575300D01*
X16523200Y-13524500D02*
X16624800Y-13524500D01*
X16828000Y-13219700D02*
X16828000Y-13321300D01*
X16777200Y-13270500D02*
X16878800Y-13270500D01*
X16828000Y-13473700D02*
X16828000Y-13575300D01*
X16777200Y-13524500D02*
X16878800Y-13524500D01*
X17082000Y-10184400D02*
X17082000Y-10286000D01*
X17031200Y-10235200D02*
X17132800Y-10235200D01*
X17082000Y-10438400D02*
X17082000Y-10540000D01*
X17031200Y-10489200D02*
X17132800Y-10489200D01*
X17082000Y-13219700D02*
X17082000Y-13321300D01*
X17031200Y-13270500D02*
X17132800Y-13270500D01*
X17082000Y-13473700D02*
X17082000Y-13575300D01*
X17031200Y-13524500D02*
X17132800Y-13524500D01*
X17336000Y-10184400D02*
X17336000Y-10286000D01*
X17285200Y-10235200D02*
X17386800Y-10235200D01*
X17336000Y-10438400D02*
X17336000Y-10540000D01*
X17285200Y-10489200D02*
X17386800Y-10489200D01*
X17336000Y-13219700D02*
X17336000Y-13321300D01*
X17285200Y-13270500D02*
X17386800Y-13270500D01*
X17336000Y-13473700D02*
X17336000Y-13575300D01*
X17285200Y-13524500D02*
X17386800Y-13524500D01*
X17590000Y-10184400D02*
X17590000Y-10286000D01*
X17539200Y-10235200D02*
X17640800Y-10235200D01*
X17590000Y-10438400D02*
X17590000Y-10540000D01*
X17539200Y-10489200D02*
X17640800Y-10489200D01*
X17590000Y-13219700D02*
X17590000Y-13321300D01*
X17539200Y-13270500D02*
X17640800Y-13270500D01*
X17590000Y-13473700D02*
X17590000Y-13575300D01*
X17539200Y-13524500D02*
X17640800Y-13524500D01*
X17844000Y-13219700D02*
X17844000Y-13321300D01*
X17793200Y-13270500D02*
X17894800Y-13270500D01*
X17844000Y-13473700D02*
X17844000Y-13575300D01*
X17793200Y-13524500D02*
X17894800Y-13524500D01*
X18098000Y-13219700D02*
X18098000Y-13321300D01*
X18047200Y-13270500D02*
X18148800Y-13270500D01*
X18098000Y-13473700D02*
X18098000Y-13575300D01*
X18047200Y-13524500D02*
X18148800Y-13524500D01*
X18352000Y-13219700D02*
X18352000Y-13321300D01*
X18301200Y-13270500D02*
X18402800Y-13270500D01*
X18352000Y-13473700D02*
X18352000Y-13575300D01*
X18301200Y-13524500D02*
X18402800Y-13524500D01*
X18606000Y-13219700D02*
X18606000Y-13321300D01*
X18555200Y-13270500D02*
X18656800Y-13270500D01*
X18606000Y-13473700D02*
X18606000Y-13575300D01*
X18555200Y-13524500D02*
X18656800Y-13524500D01*
X18860000Y-13219700D02*
X18860000Y-13321300D01*
X18809200Y-13270500D02*
X18910800Y-13270500D01*
X18860000Y-13473700D02*
X18860000Y-13575300D01*
X18809200Y-13524500D02*
X18910800Y-13524500D01*
X19114000Y-13219700D02*
X19114000Y-13321300D01*
X19063200Y-13270500D02*
X19164800Y-13270500D01*
X19114000Y-13473700D02*
X19114000Y-13575300D01*
X19063200Y-13524500D02*
X19164800Y-13524500D01*
X19368000Y-13219700D02*
X19368000Y-13321300D01*
X19317200Y-13270500D02*
X19418800Y-13270500D01*
X19368000Y-13473700D02*
X19368000Y-13575300D01*
X19317200Y-13524500D02*
X19418800Y-13524500D01*
X19622000Y-5701300D02*
X19622000Y-5802900D01*
X19571200Y-5752100D02*
X19672800Y-5752100D01*
X19622000Y-5955300D02*
X19622000Y-6056900D01*
X19571200Y-6006100D02*
X19672800Y-6006100D01*
X19622000Y-6209300D02*
X19622000Y-6310900D01*
X19571200Y-6260100D02*
X19672800Y-6260100D01*
X19622000Y-6463300D02*
X19622000Y-6564900D01*
X19571200Y-6514100D02*
X19672800Y-6514100D01*
X19622000Y-6717300D02*
X19622000Y-6818900D01*
X19571200Y-6768100D02*
X19672800Y-6768100D01*
X19622000Y-6971300D02*
X19622000Y-7072900D01*
X19571200Y-7022100D02*
X19672800Y-7022100D01*
X19622000Y-7225300D02*
X19622000Y-7326900D01*
X19571200Y-7276100D02*
X19672800Y-7276100D01*
X19622000Y-7479300D02*
X19622000Y-7580900D01*
X19571200Y-7530100D02*
X19672800Y-7530100D01*
X19622000Y-7733300D02*
X19622000Y-7834900D01*
X19571200Y-7784100D02*
X19672800Y-7784100D01*
X19622000Y-7987300D02*
X19622000Y-8088900D01*
X19571200Y-8038100D02*
X19672800Y-8038100D01*
X19622000Y-8393700D02*
X19622000Y-8495300D01*
X19571200Y-8444500D02*
X19672800Y-8444500D01*
X19622000Y-8647700D02*
X19622000Y-8749300D01*
X19571200Y-8698500D02*
X19672800Y-8698500D01*
X19622000Y-8901700D02*
X19622000Y-9003300D01*
X19571200Y-8952500D02*
X19672800Y-8952500D01*
X19622000Y-9155700D02*
X19622000Y-9257300D01*
X19571200Y-9206500D02*
X19672800Y-9206500D01*
X19622000Y-9409700D02*
X19622000Y-9511300D01*
X19571200Y-9460500D02*
X19672800Y-9460500D01*
X19622000Y-9663700D02*
X19622000Y-9765300D01*
X19571200Y-9714500D02*
X19672800Y-9714500D01*
X19622000Y-9917700D02*
X19622000Y-10019300D01*
X19571200Y-9968500D02*
X19672800Y-9968500D01*
X19622000Y-10171700D02*
X19622000Y-10273300D01*
X19571200Y-10222500D02*
X19672800Y-10222500D01*
X19622000Y-10679700D02*
X19622000Y-10781300D01*
X19571200Y-10730500D02*
X19672800Y-10730500D01*
X19622000Y-10933700D02*
X19622000Y-11035300D01*
X19571200Y-10984500D02*
X19672800Y-10984500D01*
X19622000Y-11187700D02*
X19622000Y-11289300D01*
X19571200Y-11238500D02*
X19672800Y-11238500D01*
X19622000Y-11441700D02*
X19622000Y-11543300D01*
X19571200Y-11492500D02*
X19672800Y-11492500D01*
X19622000Y-11695700D02*
X19622000Y-11797300D01*
X19571200Y-11746500D02*
X19672800Y-11746500D01*
X19622000Y-11949700D02*
X19622000Y-12051300D01*
X19571200Y-12000500D02*
X19672800Y-12000500D01*
X19622000Y-12203700D02*
X19622000Y-12305300D01*
X19571200Y-12254500D02*
X19672800Y-12254500D01*
X19622000Y-12457700D02*
X19622000Y-12559300D01*
X19571200Y-12508500D02*
X19672800Y-12508500D01*
X19622000Y-13219700D02*
X19622000Y-13321300D01*
X19571200Y-13270500D02*
X19672800Y-13270500D01*
X19622000Y-13473700D02*
X19622000Y-13575300D01*
X19571200Y-13524500D02*
X19672800Y-13524500D01*
D11*
X14797277Y-14349984D02*
X14797277Y-14149984D01*
X14797277Y-14149984D02*
X14844896Y-14149984D01*
X14844896Y-14149984D02*
X14873467Y-14159508D01*
X14873467Y-14159508D02*
X14892515Y-14178555D01*
X14892515Y-14178555D02*
X14902039Y-14197603D01*
X14902039Y-14197603D02*
X14911562Y-14235698D01*
X14911562Y-14235698D02*
X14911562Y-14264269D01*
X14911562Y-14264269D02*
X14902039Y-14302365D01*
X14902039Y-14302365D02*
X14892515Y-14321412D01*
X14892515Y-14321412D02*
X14873467Y-14340460D01*
X14873467Y-14340460D02*
X14844896Y-14349984D01*
X14844896Y-14349984D02*
X14797277Y-14349984D01*
X14997277Y-14349984D02*
X14997277Y-14216650D01*
X14997277Y-14254746D02*
X15006801Y-14235698D01*
X15006801Y-14235698D02*
X15016324Y-14226174D01*
X15016324Y-14226174D02*
X15035372Y-14216650D01*
X15035372Y-14216650D02*
X15054420Y-14216650D01*
X15121086Y-14349984D02*
X15121086Y-14216650D01*
X15121086Y-14149984D02*
X15111562Y-14159508D01*
X15111562Y-14159508D02*
X15121086Y-14169031D01*
X15121086Y-14169031D02*
X15130610Y-14159508D01*
X15130610Y-14159508D02*
X15121086Y-14149984D01*
X15121086Y-14149984D02*
X15121086Y-14169031D01*
X15244896Y-14349984D02*
X15225848Y-14340460D01*
X15225848Y-14340460D02*
X15216324Y-14321412D01*
X15216324Y-14321412D02*
X15216324Y-14149984D01*
X15349658Y-14349984D02*
X15330610Y-14340460D01*
X15330610Y-14340460D02*
X15321086Y-14321412D01*
X15321086Y-14321412D02*
X15321086Y-14149984D01*
X15578229Y-14349984D02*
X15578229Y-14149984D01*
X15578229Y-14149984D02*
X15644896Y-14292841D01*
X15644896Y-14292841D02*
X15711562Y-14149984D01*
X15711562Y-14149984D02*
X15711562Y-14349984D01*
X15892515Y-14349984D02*
X15892515Y-14245222D01*
X15892515Y-14245222D02*
X15882991Y-14226174D01*
X15882991Y-14226174D02*
X15863943Y-14216650D01*
X15863943Y-14216650D02*
X15825848Y-14216650D01*
X15825848Y-14216650D02*
X15806801Y-14226174D01*
X15892515Y-14340460D02*
X15873467Y-14349984D01*
X15873467Y-14349984D02*
X15825848Y-14349984D01*
X15825848Y-14349984D02*
X15806801Y-14340460D01*
X15806801Y-14340460D02*
X15797277Y-14321412D01*
X15797277Y-14321412D02*
X15797277Y-14302365D01*
X15797277Y-14302365D02*
X15806801Y-14283317D01*
X15806801Y-14283317D02*
X15825848Y-14273793D01*
X15825848Y-14273793D02*
X15873467Y-14273793D01*
X15873467Y-14273793D02*
X15892515Y-14264269D01*
X15987753Y-14216650D02*
X15987753Y-14416650D01*
X15987753Y-14226174D02*
X16006801Y-14216650D01*
X16006801Y-14216650D02*
X16044896Y-14216650D01*
X16044896Y-14216650D02*
X16063943Y-14226174D01*
X16063943Y-14226174D02*
X16073467Y-14235698D01*
X16073467Y-14235698D02*
X16082991Y-14254746D01*
X16082991Y-14254746D02*
X16082991Y-14311888D01*
X16082991Y-14311888D02*
X16073467Y-14330936D01*
X16073467Y-14330936D02*
X16063943Y-14340460D01*
X16063943Y-14340460D02*
X16044896Y-14349984D01*
X16044896Y-14349984D02*
X16006801Y-14349984D01*
X16006801Y-14349984D02*
X15987753Y-14340460D01*
X16168705Y-14330936D02*
X16178229Y-14340460D01*
X16178229Y-14340460D02*
X16168705Y-14349984D01*
X16168705Y-14349984D02*
X16159182Y-14340460D01*
X16159182Y-14340460D02*
X16168705Y-14330936D01*
X16168705Y-14330936D02*
X16168705Y-14349984D01*
X16168705Y-14226174D02*
X16178229Y-14235698D01*
X16178229Y-14235698D02*
X16168705Y-14245222D01*
X16168705Y-14245222D02*
X16159182Y-14235698D01*
X16159182Y-14235698D02*
X16168705Y-14226174D01*
X16168705Y-14226174D02*
X16168705Y-14245222D01*
D12*
X14496500Y-14658500D02*
X14536500Y-14698500D01*
X14536500Y-14658500D02*
X14496500Y-14698500D01*
D11*
X14835372Y-14569984D02*
X14854420Y-14569984D01*
X14854420Y-14569984D02*
X14873467Y-14579508D01*
X14873467Y-14579508D02*
X14882991Y-14589031D01*
X14882991Y-14589031D02*
X14892515Y-14608079D01*
X14892515Y-14608079D02*
X14902039Y-14646174D01*
X14902039Y-14646174D02*
X14902039Y-14693793D01*
X14902039Y-14693793D02*
X14892515Y-14731888D01*
X14892515Y-14731888D02*
X14882991Y-14750936D01*
X14882991Y-14750936D02*
X14873467Y-14760460D01*
X14873467Y-14760460D02*
X14854420Y-14769984D01*
X14854420Y-14769984D02*
X14835372Y-14769984D01*
X14835372Y-14769984D02*
X14816324Y-14760460D01*
X14816324Y-14760460D02*
X14806801Y-14750936D01*
X14806801Y-14750936D02*
X14797277Y-14731888D01*
X14797277Y-14731888D02*
X14787753Y-14693793D01*
X14787753Y-14693793D02*
X14787753Y-14646174D01*
X14787753Y-14646174D02*
X14797277Y-14608079D01*
X14797277Y-14608079D02*
X14806801Y-14589031D01*
X14806801Y-14589031D02*
X14816324Y-14579508D01*
X14816324Y-14579508D02*
X14835372Y-14569984D01*
X14987753Y-14750936D02*
X14997277Y-14760460D01*
X14997277Y-14760460D02*
X14987753Y-14769984D01*
X14987753Y-14769984D02*
X14978229Y-14760460D01*
X14978229Y-14760460D02*
X14987753Y-14750936D01*
X14987753Y-14750936D02*
X14987753Y-14769984D01*
X15168705Y-14636650D02*
X15168705Y-14769984D01*
X15121086Y-14560460D02*
X15073467Y-14703317D01*
X15073467Y-14703317D02*
X15197277Y-14703317D01*
X15311562Y-14569984D02*
X15330610Y-14569984D01*
X15330610Y-14569984D02*
X15349658Y-14579508D01*
X15349658Y-14579508D02*
X15359182Y-14589031D01*
X15359182Y-14589031D02*
X15368705Y-14608079D01*
X15368705Y-14608079D02*
X15378229Y-14646174D01*
X15378229Y-14646174D02*
X15378229Y-14693793D01*
X15378229Y-14693793D02*
X15368705Y-14731888D01*
X15368705Y-14731888D02*
X15359182Y-14750936D01*
X15359182Y-14750936D02*
X15349658Y-14760460D01*
X15349658Y-14760460D02*
X15330610Y-14769984D01*
X15330610Y-14769984D02*
X15311562Y-14769984D01*
X15311562Y-14769984D02*
X15292515Y-14760460D01*
X15292515Y-14760460D02*
X15282991Y-14750936D01*
X15282991Y-14750936D02*
X15273467Y-14731888D01*
X15273467Y-14731888D02*
X15263943Y-14693793D01*
X15263943Y-14693793D02*
X15263943Y-14646174D01*
X15263943Y-14646174D02*
X15273467Y-14608079D01*
X15273467Y-14608079D02*
X15282991Y-14589031D01*
X15282991Y-14589031D02*
X15292515Y-14579508D01*
X15292515Y-14579508D02*
X15311562Y-14569984D01*
X15502039Y-14569984D02*
X15521086Y-14569984D01*
X15521086Y-14569984D02*
X15540134Y-14579508D01*
X15540134Y-14579508D02*
X15549658Y-14589031D01*
X15549658Y-14589031D02*
X15559182Y-14608079D01*
X15559182Y-14608079D02*
X15568705Y-14646174D01*
X15568705Y-14646174D02*
X15568705Y-14693793D01*
X15568705Y-14693793D02*
X15559182Y-14731888D01*
X15559182Y-14731888D02*
X15549658Y-14750936D01*
X15549658Y-14750936D02*
X15540134Y-14760460D01*
X15540134Y-14760460D02*
X15521086Y-14769984D01*
X15521086Y-14769984D02*
X15502039Y-14769984D01*
X15502039Y-14769984D02*
X15482991Y-14760460D01*
X15482991Y-14760460D02*
X15473467Y-14750936D01*
X15473467Y-14750936D02*
X15463943Y-14731888D01*
X15463943Y-14731888D02*
X15454420Y-14693793D01*
X15454420Y-14693793D02*
X15454420Y-14646174D01*
X15454420Y-14646174D02*
X15463943Y-14608079D01*
X15463943Y-14608079D02*
X15473467Y-14589031D01*
X15473467Y-14589031D02*
X15482991Y-14579508D01*
X15482991Y-14579508D02*
X15502039Y-14569984D01*
X15654420Y-14769984D02*
X15654420Y-14636650D01*
X15654420Y-14655698D02*
X15663943Y-14646174D01*
X15663943Y-14646174D02*
X15682991Y-14636650D01*
X15682991Y-14636650D02*
X15711563Y-14636650D01*
X15711563Y-14636650D02*
X15730610Y-14646174D01*
X15730610Y-14646174D02*
X15740134Y-14665222D01*
X15740134Y-14665222D02*
X15740134Y-14769984D01*
X15740134Y-14665222D02*
X15749658Y-14646174D01*
X15749658Y-14646174D02*
X15768705Y-14636650D01*
X15768705Y-14636650D02*
X15797277Y-14636650D01*
X15797277Y-14636650D02*
X15816324Y-14646174D01*
X15816324Y-14646174D02*
X15825848Y-14665222D01*
X15825848Y-14665222D02*
X15825848Y-14769984D01*
X15921086Y-14769984D02*
X15921086Y-14636650D01*
X15921086Y-14655698D02*
X15930610Y-14646174D01*
X15930610Y-14646174D02*
X15949658Y-14636650D01*
X15949658Y-14636650D02*
X15978229Y-14636650D01*
X15978229Y-14636650D02*
X15997277Y-14646174D01*
X15997277Y-14646174D02*
X16006801Y-14665222D01*
X16006801Y-14665222D02*
X16006801Y-14769984D01*
X16006801Y-14665222D02*
X16016324Y-14646174D01*
X16016324Y-14646174D02*
X16035372Y-14636650D01*
X16035372Y-14636650D02*
X16063943Y-14636650D01*
X16063943Y-14636650D02*
X16082991Y-14646174D01*
X16082991Y-14646174D02*
X16092515Y-14665222D01*
X16092515Y-14665222D02*
X16092515Y-14769984D01*
X16482991Y-14560460D02*
X16311563Y-14817603D01*
X16740134Y-14569984D02*
X16759182Y-14569984D01*
X16759182Y-14569984D02*
X16778229Y-14579508D01*
X16778229Y-14579508D02*
X16787753Y-14589031D01*
X16787753Y-14589031D02*
X16797277Y-14608079D01*
X16797277Y-14608079D02*
X16806801Y-14646174D01*
X16806801Y-14646174D02*
X16806801Y-14693793D01*
X16806801Y-14693793D02*
X16797277Y-14731888D01*
X16797277Y-14731888D02*
X16787753Y-14750936D01*
X16787753Y-14750936D02*
X16778229Y-14760460D01*
X16778229Y-14760460D02*
X16759182Y-14769984D01*
X16759182Y-14769984D02*
X16740134Y-14769984D01*
X16740134Y-14769984D02*
X16721086Y-14760460D01*
X16721086Y-14760460D02*
X16711563Y-14750936D01*
X16711563Y-14750936D02*
X16702039Y-14731888D01*
X16702039Y-14731888D02*
X16692515Y-14693793D01*
X16692515Y-14693793D02*
X16692515Y-14646174D01*
X16692515Y-14646174D02*
X16702039Y-14608079D01*
X16702039Y-14608079D02*
X16711563Y-14589031D01*
X16711563Y-14589031D02*
X16721086Y-14579508D01*
X16721086Y-14579508D02*
X16740134Y-14569984D01*
X16892515Y-14750936D02*
X16902039Y-14760460D01*
X16902039Y-14760460D02*
X16892515Y-14769984D01*
X16892515Y-14769984D02*
X16882991Y-14760460D01*
X16882991Y-14760460D02*
X16892515Y-14750936D01*
X16892515Y-14750936D02*
X16892515Y-14769984D01*
X17025848Y-14569984D02*
X17044896Y-14569984D01*
X17044896Y-14569984D02*
X17063944Y-14579508D01*
X17063944Y-14579508D02*
X17073468Y-14589031D01*
X17073468Y-14589031D02*
X17082991Y-14608079D01*
X17082991Y-14608079D02*
X17092515Y-14646174D01*
X17092515Y-14646174D02*
X17092515Y-14693793D01*
X17092515Y-14693793D02*
X17082991Y-14731888D01*
X17082991Y-14731888D02*
X17073468Y-14750936D01*
X17073468Y-14750936D02*
X17063944Y-14760460D01*
X17063944Y-14760460D02*
X17044896Y-14769984D01*
X17044896Y-14769984D02*
X17025848Y-14769984D01*
X17025848Y-14769984D02*
X17006801Y-14760460D01*
X17006801Y-14760460D02*
X16997277Y-14750936D01*
X16997277Y-14750936D02*
X16987753Y-14731888D01*
X16987753Y-14731888D02*
X16978229Y-14693793D01*
X16978229Y-14693793D02*
X16978229Y-14646174D01*
X16978229Y-14646174D02*
X16987753Y-14608079D01*
X16987753Y-14608079D02*
X16997277Y-14589031D01*
X16997277Y-14589031D02*
X17006801Y-14579508D01*
X17006801Y-14579508D02*
X17025848Y-14569984D01*
X17282991Y-14769984D02*
X17168706Y-14769984D01*
X17225848Y-14769984D02*
X17225848Y-14569984D01*
X17225848Y-14569984D02*
X17206801Y-14598555D01*
X17206801Y-14598555D02*
X17187753Y-14617603D01*
X17187753Y-14617603D02*
X17168706Y-14627127D01*
X17463944Y-14569984D02*
X17368706Y-14569984D01*
X17368706Y-14569984D02*
X17359182Y-14665222D01*
X17359182Y-14665222D02*
X17368706Y-14655698D01*
X17368706Y-14655698D02*
X17387753Y-14646174D01*
X17387753Y-14646174D02*
X17435372Y-14646174D01*
X17435372Y-14646174D02*
X17454420Y-14655698D01*
X17454420Y-14655698D02*
X17463944Y-14665222D01*
X17463944Y-14665222D02*
X17473468Y-14684269D01*
X17473468Y-14684269D02*
X17473468Y-14731888D01*
X17473468Y-14731888D02*
X17463944Y-14750936D01*
X17463944Y-14750936D02*
X17454420Y-14760460D01*
X17454420Y-14760460D02*
X17435372Y-14769984D01*
X17435372Y-14769984D02*
X17387753Y-14769984D01*
X17387753Y-14769984D02*
X17368706Y-14760460D01*
X17368706Y-14760460D02*
X17359182Y-14750936D01*
X17540134Y-14569984D02*
X17673468Y-14569984D01*
X17673468Y-14569984D02*
X17587753Y-14769984D01*
X17740134Y-14569984D02*
X17740134Y-14608079D01*
X17816325Y-14569984D02*
X17816325Y-14608079D01*
X18111563Y-14846174D02*
X18102039Y-14836650D01*
X18102039Y-14836650D02*
X18082991Y-14808079D01*
X18082991Y-14808079D02*
X18073468Y-14789031D01*
X18073468Y-14789031D02*
X18063944Y-14760460D01*
X18063944Y-14760460D02*
X18054420Y-14712841D01*
X18054420Y-14712841D02*
X18054420Y-14674746D01*
X18054420Y-14674746D02*
X18063944Y-14627127D01*
X18063944Y-14627127D02*
X18073468Y-14598555D01*
X18073468Y-14598555D02*
X18082991Y-14579508D01*
X18082991Y-14579508D02*
X18102039Y-14550936D01*
X18102039Y-14550936D02*
X18111563Y-14541412D01*
X18292515Y-14769984D02*
X18178230Y-14769984D01*
X18235372Y-14769984D02*
X18235372Y-14569984D01*
X18235372Y-14569984D02*
X18216325Y-14598555D01*
X18216325Y-14598555D02*
X18197277Y-14617603D01*
X18197277Y-14617603D02*
X18178230Y-14627127D01*
X18530611Y-14769984D02*
X18530611Y-14569984D01*
X18616325Y-14769984D02*
X18616325Y-14665222D01*
X18616325Y-14665222D02*
X18606801Y-14646174D01*
X18606801Y-14646174D02*
X18587753Y-14636650D01*
X18587753Y-14636650D02*
X18559182Y-14636650D01*
X18559182Y-14636650D02*
X18540134Y-14646174D01*
X18540134Y-14646174D02*
X18530611Y-14655698D01*
X18740134Y-14769984D02*
X18721087Y-14760460D01*
X18721087Y-14760460D02*
X18711563Y-14750936D01*
X18711563Y-14750936D02*
X18702039Y-14731888D01*
X18702039Y-14731888D02*
X18702039Y-14674746D01*
X18702039Y-14674746D02*
X18711563Y-14655698D01*
X18711563Y-14655698D02*
X18721087Y-14646174D01*
X18721087Y-14646174D02*
X18740134Y-14636650D01*
X18740134Y-14636650D02*
X18768706Y-14636650D01*
X18768706Y-14636650D02*
X18787753Y-14646174D01*
X18787753Y-14646174D02*
X18797277Y-14655698D01*
X18797277Y-14655698D02*
X18806801Y-14674746D01*
X18806801Y-14674746D02*
X18806801Y-14731888D01*
X18806801Y-14731888D02*
X18797277Y-14750936D01*
X18797277Y-14750936D02*
X18787753Y-14760460D01*
X18787753Y-14760460D02*
X18768706Y-14769984D01*
X18768706Y-14769984D02*
X18740134Y-14769984D01*
X18921087Y-14769984D02*
X18902039Y-14760460D01*
X18902039Y-14760460D02*
X18892515Y-14741412D01*
X18892515Y-14741412D02*
X18892515Y-14569984D01*
X19073468Y-14760460D02*
X19054420Y-14769984D01*
X19054420Y-14769984D02*
X19016325Y-14769984D01*
X19016325Y-14769984D02*
X18997277Y-14760460D01*
X18997277Y-14760460D02*
X18987753Y-14741412D01*
X18987753Y-14741412D02*
X18987753Y-14665222D01*
X18987753Y-14665222D02*
X18997277Y-14646174D01*
X18997277Y-14646174D02*
X19016325Y-14636650D01*
X19016325Y-14636650D02*
X19054420Y-14636650D01*
X19054420Y-14636650D02*
X19073468Y-14646174D01*
X19073468Y-14646174D02*
X19082992Y-14665222D01*
X19082992Y-14665222D02*
X19082992Y-14684269D01*
X19082992Y-14684269D02*
X18987753Y-14703317D01*
X19149658Y-14846174D02*
X19159182Y-14836650D01*
X19159182Y-14836650D02*
X19178230Y-14808079D01*
X19178230Y-14808079D02*
X19187753Y-14789031D01*
X19187753Y-14789031D02*
X19197277Y-14760460D01*
X19197277Y-14760460D02*
X19206801Y-14712841D01*
X19206801Y-14712841D02*
X19206801Y-14674746D01*
X19206801Y-14674746D02*
X19197277Y-14627127D01*
X19197277Y-14627127D02*
X19187753Y-14598555D01*
X19187753Y-14598555D02*
X19178230Y-14579508D01*
X19178230Y-14579508D02*
X19159182Y-14550936D01*
X19159182Y-14550936D02*
X19149658Y-14541412D01*
D10*
X14536500Y-14942500D02*
G75*
G03*
X14536500Y-14942500I-50000J0D01*
G01*
D11*
X14902039Y-15033984D02*
X14787753Y-15033984D01*
X14844896Y-15033984D02*
X14844896Y-14833984D01*
X14844896Y-14833984D02*
X14825848Y-14862555D01*
X14825848Y-14862555D02*
X14806801Y-14881603D01*
X14806801Y-14881603D02*
X14787753Y-14891127D01*
X14987753Y-15014936D02*
X14997277Y-15024460D01*
X14997277Y-15024460D02*
X14987753Y-15033984D01*
X14987753Y-15033984D02*
X14978229Y-15024460D01*
X14978229Y-15024460D02*
X14987753Y-15014936D01*
X14987753Y-15014936D02*
X14987753Y-15033984D01*
X15121086Y-14833984D02*
X15140134Y-14833984D01*
X15140134Y-14833984D02*
X15159182Y-14843508D01*
X15159182Y-14843508D02*
X15168705Y-14853031D01*
X15168705Y-14853031D02*
X15178229Y-14872079D01*
X15178229Y-14872079D02*
X15187753Y-14910174D01*
X15187753Y-14910174D02*
X15187753Y-14957793D01*
X15187753Y-14957793D02*
X15178229Y-14995888D01*
X15178229Y-14995888D02*
X15168705Y-15014936D01*
X15168705Y-15014936D02*
X15159182Y-15024460D01*
X15159182Y-15024460D02*
X15140134Y-15033984D01*
X15140134Y-15033984D02*
X15121086Y-15033984D01*
X15121086Y-15033984D02*
X15102039Y-15024460D01*
X15102039Y-15024460D02*
X15092515Y-15014936D01*
X15092515Y-15014936D02*
X15082991Y-14995888D01*
X15082991Y-14995888D02*
X15073467Y-14957793D01*
X15073467Y-14957793D02*
X15073467Y-14910174D01*
X15073467Y-14910174D02*
X15082991Y-14872079D01*
X15082991Y-14872079D02*
X15092515Y-14853031D01*
X15092515Y-14853031D02*
X15102039Y-14843508D01*
X15102039Y-14843508D02*
X15121086Y-14833984D01*
X15311562Y-14833984D02*
X15330610Y-14833984D01*
X15330610Y-14833984D02*
X15349658Y-14843508D01*
X15349658Y-14843508D02*
X15359182Y-14853031D01*
X15359182Y-14853031D02*
X15368705Y-14872079D01*
X15368705Y-14872079D02*
X15378229Y-14910174D01*
X15378229Y-14910174D02*
X15378229Y-14957793D01*
X15378229Y-14957793D02*
X15368705Y-14995888D01*
X15368705Y-14995888D02*
X15359182Y-15014936D01*
X15359182Y-15014936D02*
X15349658Y-15024460D01*
X15349658Y-15024460D02*
X15330610Y-15033984D01*
X15330610Y-15033984D02*
X15311562Y-15033984D01*
X15311562Y-15033984D02*
X15292515Y-15024460D01*
X15292515Y-15024460D02*
X15282991Y-15014936D01*
X15282991Y-15014936D02*
X15273467Y-14995888D01*
X15273467Y-14995888D02*
X15263943Y-14957793D01*
X15263943Y-14957793D02*
X15263943Y-14910174D01*
X15263943Y-14910174D02*
X15273467Y-14872079D01*
X15273467Y-14872079D02*
X15282991Y-14853031D01*
X15282991Y-14853031D02*
X15292515Y-14843508D01*
X15292515Y-14843508D02*
X15311562Y-14833984D01*
X15502039Y-14833984D02*
X15521086Y-14833984D01*
X15521086Y-14833984D02*
X15540134Y-14843508D01*
X15540134Y-14843508D02*
X15549658Y-14853031D01*
X15549658Y-14853031D02*
X15559182Y-14872079D01*
X15559182Y-14872079D02*
X15568705Y-14910174D01*
X15568705Y-14910174D02*
X15568705Y-14957793D01*
X15568705Y-14957793D02*
X15559182Y-14995888D01*
X15559182Y-14995888D02*
X15549658Y-15014936D01*
X15549658Y-15014936D02*
X15540134Y-15024460D01*
X15540134Y-15024460D02*
X15521086Y-15033984D01*
X15521086Y-15033984D02*
X15502039Y-15033984D01*
X15502039Y-15033984D02*
X15482991Y-15024460D01*
X15482991Y-15024460D02*
X15473467Y-15014936D01*
X15473467Y-15014936D02*
X15463943Y-14995888D01*
X15463943Y-14995888D02*
X15454420Y-14957793D01*
X15454420Y-14957793D02*
X15454420Y-14910174D01*
X15454420Y-14910174D02*
X15463943Y-14872079D01*
X15463943Y-14872079D02*
X15473467Y-14853031D01*
X15473467Y-14853031D02*
X15482991Y-14843508D01*
X15482991Y-14843508D02*
X15502039Y-14833984D01*
X15654420Y-15033984D02*
X15654420Y-14900650D01*
X15654420Y-14919698D02*
X15663943Y-14910174D01*
X15663943Y-14910174D02*
X15682991Y-14900650D01*
X15682991Y-14900650D02*
X15711563Y-14900650D01*
X15711563Y-14900650D02*
X15730610Y-14910174D01*
X15730610Y-14910174D02*
X15740134Y-14929222D01*
X15740134Y-14929222D02*
X15740134Y-15033984D01*
X15740134Y-14929222D02*
X15749658Y-14910174D01*
X15749658Y-14910174D02*
X15768705Y-14900650D01*
X15768705Y-14900650D02*
X15797277Y-14900650D01*
X15797277Y-14900650D02*
X15816324Y-14910174D01*
X15816324Y-14910174D02*
X15825848Y-14929222D01*
X15825848Y-14929222D02*
X15825848Y-15033984D01*
X15921086Y-15033984D02*
X15921086Y-14900650D01*
X15921086Y-14919698D02*
X15930610Y-14910174D01*
X15930610Y-14910174D02*
X15949658Y-14900650D01*
X15949658Y-14900650D02*
X15978229Y-14900650D01*
X15978229Y-14900650D02*
X15997277Y-14910174D01*
X15997277Y-14910174D02*
X16006801Y-14929222D01*
X16006801Y-14929222D02*
X16006801Y-15033984D01*
X16006801Y-14929222D02*
X16016324Y-14910174D01*
X16016324Y-14910174D02*
X16035372Y-14900650D01*
X16035372Y-14900650D02*
X16063943Y-14900650D01*
X16063943Y-14900650D02*
X16082991Y-14910174D01*
X16082991Y-14910174D02*
X16092515Y-14929222D01*
X16092515Y-14929222D02*
X16092515Y-15033984D01*
X16482991Y-14824460D02*
X16311563Y-15081603D01*
X16740134Y-14833984D02*
X16759182Y-14833984D01*
X16759182Y-14833984D02*
X16778229Y-14843508D01*
X16778229Y-14843508D02*
X16787753Y-14853031D01*
X16787753Y-14853031D02*
X16797277Y-14872079D01*
X16797277Y-14872079D02*
X16806801Y-14910174D01*
X16806801Y-14910174D02*
X16806801Y-14957793D01*
X16806801Y-14957793D02*
X16797277Y-14995888D01*
X16797277Y-14995888D02*
X16787753Y-15014936D01*
X16787753Y-15014936D02*
X16778229Y-15024460D01*
X16778229Y-15024460D02*
X16759182Y-15033984D01*
X16759182Y-15033984D02*
X16740134Y-15033984D01*
X16740134Y-15033984D02*
X16721086Y-15024460D01*
X16721086Y-15024460D02*
X16711563Y-15014936D01*
X16711563Y-15014936D02*
X16702039Y-14995888D01*
X16702039Y-14995888D02*
X16692515Y-14957793D01*
X16692515Y-14957793D02*
X16692515Y-14910174D01*
X16692515Y-14910174D02*
X16702039Y-14872079D01*
X16702039Y-14872079D02*
X16711563Y-14853031D01*
X16711563Y-14853031D02*
X16721086Y-14843508D01*
X16721086Y-14843508D02*
X16740134Y-14833984D01*
X16892515Y-15014936D02*
X16902039Y-15024460D01*
X16902039Y-15024460D02*
X16892515Y-15033984D01*
X16892515Y-15033984D02*
X16882991Y-15024460D01*
X16882991Y-15024460D02*
X16892515Y-15014936D01*
X16892515Y-15014936D02*
X16892515Y-15033984D01*
X17025848Y-14833984D02*
X17044896Y-14833984D01*
X17044896Y-14833984D02*
X17063944Y-14843508D01*
X17063944Y-14843508D02*
X17073468Y-14853031D01*
X17073468Y-14853031D02*
X17082991Y-14872079D01*
X17082991Y-14872079D02*
X17092515Y-14910174D01*
X17092515Y-14910174D02*
X17092515Y-14957793D01*
X17092515Y-14957793D02*
X17082991Y-14995888D01*
X17082991Y-14995888D02*
X17073468Y-15014936D01*
X17073468Y-15014936D02*
X17063944Y-15024460D01*
X17063944Y-15024460D02*
X17044896Y-15033984D01*
X17044896Y-15033984D02*
X17025848Y-15033984D01*
X17025848Y-15033984D02*
X17006801Y-15024460D01*
X17006801Y-15024460D02*
X16997277Y-15014936D01*
X16997277Y-15014936D02*
X16987753Y-14995888D01*
X16987753Y-14995888D02*
X16978229Y-14957793D01*
X16978229Y-14957793D02*
X16978229Y-14910174D01*
X16978229Y-14910174D02*
X16987753Y-14872079D01*
X16987753Y-14872079D02*
X16997277Y-14853031D01*
X16997277Y-14853031D02*
X17006801Y-14843508D01*
X17006801Y-14843508D02*
X17025848Y-14833984D01*
X17159182Y-14833984D02*
X17282991Y-14833984D01*
X17282991Y-14833984D02*
X17216325Y-14910174D01*
X17216325Y-14910174D02*
X17244896Y-14910174D01*
X17244896Y-14910174D02*
X17263944Y-14919698D01*
X17263944Y-14919698D02*
X17273468Y-14929222D01*
X17273468Y-14929222D02*
X17282991Y-14948269D01*
X17282991Y-14948269D02*
X17282991Y-14995888D01*
X17282991Y-14995888D02*
X17273468Y-15014936D01*
X17273468Y-15014936D02*
X17263944Y-15024460D01*
X17263944Y-15024460D02*
X17244896Y-15033984D01*
X17244896Y-15033984D02*
X17187753Y-15033984D01*
X17187753Y-15033984D02*
X17168706Y-15024460D01*
X17168706Y-15024460D02*
X17159182Y-15014936D01*
X17378229Y-15033984D02*
X17416325Y-15033984D01*
X17416325Y-15033984D02*
X17435372Y-15024460D01*
X17435372Y-15024460D02*
X17444896Y-15014936D01*
X17444896Y-15014936D02*
X17463944Y-14986365D01*
X17463944Y-14986365D02*
X17473468Y-14948269D01*
X17473468Y-14948269D02*
X17473468Y-14872079D01*
X17473468Y-14872079D02*
X17463944Y-14853031D01*
X17463944Y-14853031D02*
X17454420Y-14843508D01*
X17454420Y-14843508D02*
X17435372Y-14833984D01*
X17435372Y-14833984D02*
X17397277Y-14833984D01*
X17397277Y-14833984D02*
X17378229Y-14843508D01*
X17378229Y-14843508D02*
X17368706Y-14853031D01*
X17368706Y-14853031D02*
X17359182Y-14872079D01*
X17359182Y-14872079D02*
X17359182Y-14919698D01*
X17359182Y-14919698D02*
X17368706Y-14938746D01*
X17368706Y-14938746D02*
X17378229Y-14948269D01*
X17378229Y-14948269D02*
X17397277Y-14957793D01*
X17397277Y-14957793D02*
X17435372Y-14957793D01*
X17435372Y-14957793D02*
X17454420Y-14948269D01*
X17454420Y-14948269D02*
X17463944Y-14938746D01*
X17463944Y-14938746D02*
X17473468Y-14919698D01*
X17644896Y-14900650D02*
X17644896Y-15033984D01*
X17597277Y-14824460D02*
X17549658Y-14967317D01*
X17549658Y-14967317D02*
X17673468Y-14967317D01*
X17740134Y-14833984D02*
X17740134Y-14872079D01*
X17816325Y-14833984D02*
X17816325Y-14872079D01*
X18111563Y-15110174D02*
X18102039Y-15100650D01*
X18102039Y-15100650D02*
X18082991Y-15072079D01*
X18082991Y-15072079D02*
X18073468Y-15053031D01*
X18073468Y-15053031D02*
X18063944Y-15024460D01*
X18063944Y-15024460D02*
X18054420Y-14976841D01*
X18054420Y-14976841D02*
X18054420Y-14938746D01*
X18054420Y-14938746D02*
X18063944Y-14891127D01*
X18063944Y-14891127D02*
X18073468Y-14862555D01*
X18073468Y-14862555D02*
X18082991Y-14843508D01*
X18082991Y-14843508D02*
X18102039Y-14814936D01*
X18102039Y-14814936D02*
X18111563Y-14805412D01*
X18273468Y-14900650D02*
X18273468Y-15033984D01*
X18225849Y-14824460D02*
X18178230Y-14967317D01*
X18178230Y-14967317D02*
X18302039Y-14967317D01*
X18416325Y-14833984D02*
X18435372Y-14833984D01*
X18435372Y-14833984D02*
X18454420Y-14843508D01*
X18454420Y-14843508D02*
X18463944Y-14853031D01*
X18463944Y-14853031D02*
X18473468Y-14872079D01*
X18473468Y-14872079D02*
X18482991Y-14910174D01*
X18482991Y-14910174D02*
X18482991Y-14957793D01*
X18482991Y-14957793D02*
X18473468Y-14995888D01*
X18473468Y-14995888D02*
X18463944Y-15014936D01*
X18463944Y-15014936D02*
X18454420Y-15024460D01*
X18454420Y-15024460D02*
X18435372Y-15033984D01*
X18435372Y-15033984D02*
X18416325Y-15033984D01*
X18416325Y-15033984D02*
X18397277Y-15024460D01*
X18397277Y-15024460D02*
X18387753Y-15014936D01*
X18387753Y-15014936D02*
X18378230Y-14995888D01*
X18378230Y-14995888D02*
X18368706Y-14957793D01*
X18368706Y-14957793D02*
X18368706Y-14910174D01*
X18368706Y-14910174D02*
X18378230Y-14872079D01*
X18378230Y-14872079D02*
X18387753Y-14853031D01*
X18387753Y-14853031D02*
X18397277Y-14843508D01*
X18397277Y-14843508D02*
X18416325Y-14833984D01*
X18721087Y-15033984D02*
X18721087Y-14833984D01*
X18806801Y-15033984D02*
X18806801Y-14929222D01*
X18806801Y-14929222D02*
X18797277Y-14910174D01*
X18797277Y-14910174D02*
X18778230Y-14900650D01*
X18778230Y-14900650D02*
X18749658Y-14900650D01*
X18749658Y-14900650D02*
X18730611Y-14910174D01*
X18730611Y-14910174D02*
X18721087Y-14919698D01*
X18930611Y-15033984D02*
X18911563Y-15024460D01*
X18911563Y-15024460D02*
X18902039Y-15014936D01*
X18902039Y-15014936D02*
X18892515Y-14995888D01*
X18892515Y-14995888D02*
X18892515Y-14938746D01*
X18892515Y-14938746D02*
X18902039Y-14919698D01*
X18902039Y-14919698D02*
X18911563Y-14910174D01*
X18911563Y-14910174D02*
X18930611Y-14900650D01*
X18930611Y-14900650D02*
X18959182Y-14900650D01*
X18959182Y-14900650D02*
X18978230Y-14910174D01*
X18978230Y-14910174D02*
X18987753Y-14919698D01*
X18987753Y-14919698D02*
X18997277Y-14938746D01*
X18997277Y-14938746D02*
X18997277Y-14995888D01*
X18997277Y-14995888D02*
X18987753Y-15014936D01*
X18987753Y-15014936D02*
X18978230Y-15024460D01*
X18978230Y-15024460D02*
X18959182Y-15033984D01*
X18959182Y-15033984D02*
X18930611Y-15033984D01*
X19111563Y-15033984D02*
X19092515Y-15024460D01*
X19092515Y-15024460D02*
X19082992Y-15005412D01*
X19082992Y-15005412D02*
X19082992Y-14833984D01*
X19263944Y-15024460D02*
X19244896Y-15033984D01*
X19244896Y-15033984D02*
X19206801Y-15033984D01*
X19206801Y-15033984D02*
X19187753Y-15024460D01*
X19187753Y-15024460D02*
X19178230Y-15005412D01*
X19178230Y-15005412D02*
X19178230Y-14929222D01*
X19178230Y-14929222D02*
X19187753Y-14910174D01*
X19187753Y-14910174D02*
X19206801Y-14900650D01*
X19206801Y-14900650D02*
X19244896Y-14900650D01*
X19244896Y-14900650D02*
X19263944Y-14910174D01*
X19263944Y-14910174D02*
X19273468Y-14929222D01*
X19273468Y-14929222D02*
X19273468Y-14948269D01*
X19273468Y-14948269D02*
X19178230Y-14967317D01*
X19349658Y-15024460D02*
X19368706Y-15033984D01*
X19368706Y-15033984D02*
X19406801Y-15033984D01*
X19406801Y-15033984D02*
X19425849Y-15024460D01*
X19425849Y-15024460D02*
X19435373Y-15005412D01*
X19435373Y-15005412D02*
X19435373Y-14995888D01*
X19435373Y-14995888D02*
X19425849Y-14976841D01*
X19425849Y-14976841D02*
X19406801Y-14967317D01*
X19406801Y-14967317D02*
X19378230Y-14967317D01*
X19378230Y-14967317D02*
X19359182Y-14957793D01*
X19359182Y-14957793D02*
X19349658Y-14938746D01*
X19349658Y-14938746D02*
X19349658Y-14929222D01*
X19349658Y-14929222D02*
X19359182Y-14910174D01*
X19359182Y-14910174D02*
X19378230Y-14900650D01*
X19378230Y-14900650D02*
X19406801Y-14900650D01*
X19406801Y-14900650D02*
X19425849Y-14910174D01*
X19502039Y-15110174D02*
X19511563Y-15100650D01*
X19511563Y-15100650D02*
X19530611Y-15072079D01*
X19530611Y-15072079D02*
X19540134Y-15053031D01*
X19540134Y-15053031D02*
X19549658Y-15024460D01*
X19549658Y-15024460D02*
X19559182Y-14976841D01*
X19559182Y-14976841D02*
X19559182Y-14938746D01*
X19559182Y-14938746D02*
X19549658Y-14891127D01*
X19549658Y-14891127D02*
X19540134Y-14862555D01*
X19540134Y-14862555D02*
X19530611Y-14843508D01*
X19530611Y-14843508D02*
X19511563Y-14814936D01*
X19511563Y-14814936D02*
X19502039Y-14805412D01*
D13*
X14485700Y-15155700D02*
X14485700Y-15257300D01*
X14434900Y-15206500D02*
X14536500Y-15206500D01*
D11*
X14902039Y-15297984D02*
X14787753Y-15297984D01*
X14844896Y-15297984D02*
X14844896Y-15097984D01*
X14844896Y-15097984D02*
X14825848Y-15126555D01*
X14825848Y-15126555D02*
X14806801Y-15145603D01*
X14806801Y-15145603D02*
X14787753Y-15155127D01*
X14987753Y-15278936D02*
X14997277Y-15288460D01*
X14997277Y-15288460D02*
X14987753Y-15297984D01*
X14987753Y-15297984D02*
X14978229Y-15288460D01*
X14978229Y-15288460D02*
X14987753Y-15278936D01*
X14987753Y-15278936D02*
X14987753Y-15297984D01*
X15121086Y-15097984D02*
X15140134Y-15097984D01*
X15140134Y-15097984D02*
X15159182Y-15107508D01*
X15159182Y-15107508D02*
X15168705Y-15117031D01*
X15168705Y-15117031D02*
X15178229Y-15136079D01*
X15178229Y-15136079D02*
X15187753Y-15174174D01*
X15187753Y-15174174D02*
X15187753Y-15221793D01*
X15187753Y-15221793D02*
X15178229Y-15259888D01*
X15178229Y-15259888D02*
X15168705Y-15278936D01*
X15168705Y-15278936D02*
X15159182Y-15288460D01*
X15159182Y-15288460D02*
X15140134Y-15297984D01*
X15140134Y-15297984D02*
X15121086Y-15297984D01*
X15121086Y-15297984D02*
X15102039Y-15288460D01*
X15102039Y-15288460D02*
X15092515Y-15278936D01*
X15092515Y-15278936D02*
X15082991Y-15259888D01*
X15082991Y-15259888D02*
X15073467Y-15221793D01*
X15073467Y-15221793D02*
X15073467Y-15174174D01*
X15073467Y-15174174D02*
X15082991Y-15136079D01*
X15082991Y-15136079D02*
X15092515Y-15117031D01*
X15092515Y-15117031D02*
X15102039Y-15107508D01*
X15102039Y-15107508D02*
X15121086Y-15097984D01*
X15378229Y-15297984D02*
X15263943Y-15297984D01*
X15321086Y-15297984D02*
X15321086Y-15097984D01*
X15321086Y-15097984D02*
X15302039Y-15126555D01*
X15302039Y-15126555D02*
X15282991Y-15145603D01*
X15282991Y-15145603D02*
X15263943Y-15155127D01*
X15549658Y-15097984D02*
X15511562Y-15097984D01*
X15511562Y-15097984D02*
X15492515Y-15107508D01*
X15492515Y-15107508D02*
X15482991Y-15117031D01*
X15482991Y-15117031D02*
X15463943Y-15145603D01*
X15463943Y-15145603D02*
X15454420Y-15183698D01*
X15454420Y-15183698D02*
X15454420Y-15259888D01*
X15454420Y-15259888D02*
X15463943Y-15278936D01*
X15463943Y-15278936D02*
X15473467Y-15288460D01*
X15473467Y-15288460D02*
X15492515Y-15297984D01*
X15492515Y-15297984D02*
X15530610Y-15297984D01*
X15530610Y-15297984D02*
X15549658Y-15288460D01*
X15549658Y-15288460D02*
X15559182Y-15278936D01*
X15559182Y-15278936D02*
X15568705Y-15259888D01*
X15568705Y-15259888D02*
X15568705Y-15212269D01*
X15568705Y-15212269D02*
X15559182Y-15193222D01*
X15559182Y-15193222D02*
X15549658Y-15183698D01*
X15549658Y-15183698D02*
X15530610Y-15174174D01*
X15530610Y-15174174D02*
X15492515Y-15174174D01*
X15492515Y-15174174D02*
X15473467Y-15183698D01*
X15473467Y-15183698D02*
X15463943Y-15193222D01*
X15463943Y-15193222D02*
X15454420Y-15212269D01*
X15654420Y-15297984D02*
X15654420Y-15164650D01*
X15654420Y-15183698D02*
X15663943Y-15174174D01*
X15663943Y-15174174D02*
X15682991Y-15164650D01*
X15682991Y-15164650D02*
X15711563Y-15164650D01*
X15711563Y-15164650D02*
X15730610Y-15174174D01*
X15730610Y-15174174D02*
X15740134Y-15193222D01*
X15740134Y-15193222D02*
X15740134Y-15297984D01*
X15740134Y-15193222D02*
X15749658Y-15174174D01*
X15749658Y-15174174D02*
X15768705Y-15164650D01*
X15768705Y-15164650D02*
X15797277Y-15164650D01*
X15797277Y-15164650D02*
X15816324Y-15174174D01*
X15816324Y-15174174D02*
X15825848Y-15193222D01*
X15825848Y-15193222D02*
X15825848Y-15297984D01*
X15921086Y-15297984D02*
X15921086Y-15164650D01*
X15921086Y-15183698D02*
X15930610Y-15174174D01*
X15930610Y-15174174D02*
X15949658Y-15164650D01*
X15949658Y-15164650D02*
X15978229Y-15164650D01*
X15978229Y-15164650D02*
X15997277Y-15174174D01*
X15997277Y-15174174D02*
X16006801Y-15193222D01*
X16006801Y-15193222D02*
X16006801Y-15297984D01*
X16006801Y-15193222D02*
X16016324Y-15174174D01*
X16016324Y-15174174D02*
X16035372Y-15164650D01*
X16035372Y-15164650D02*
X16063943Y-15164650D01*
X16063943Y-15164650D02*
X16082991Y-15174174D01*
X16082991Y-15174174D02*
X16092515Y-15193222D01*
X16092515Y-15193222D02*
X16092515Y-15297984D01*
X16482991Y-15088460D02*
X16311563Y-15345603D01*
X16740134Y-15097984D02*
X16759182Y-15097984D01*
X16759182Y-15097984D02*
X16778229Y-15107508D01*
X16778229Y-15107508D02*
X16787753Y-15117031D01*
X16787753Y-15117031D02*
X16797277Y-15136079D01*
X16797277Y-15136079D02*
X16806801Y-15174174D01*
X16806801Y-15174174D02*
X16806801Y-15221793D01*
X16806801Y-15221793D02*
X16797277Y-15259888D01*
X16797277Y-15259888D02*
X16787753Y-15278936D01*
X16787753Y-15278936D02*
X16778229Y-15288460D01*
X16778229Y-15288460D02*
X16759182Y-15297984D01*
X16759182Y-15297984D02*
X16740134Y-15297984D01*
X16740134Y-15297984D02*
X16721086Y-15288460D01*
X16721086Y-15288460D02*
X16711563Y-15278936D01*
X16711563Y-15278936D02*
X16702039Y-15259888D01*
X16702039Y-15259888D02*
X16692515Y-15221793D01*
X16692515Y-15221793D02*
X16692515Y-15174174D01*
X16692515Y-15174174D02*
X16702039Y-15136079D01*
X16702039Y-15136079D02*
X16711563Y-15117031D01*
X16711563Y-15117031D02*
X16721086Y-15107508D01*
X16721086Y-15107508D02*
X16740134Y-15097984D01*
X16892515Y-15278936D02*
X16902039Y-15288460D01*
X16902039Y-15288460D02*
X16892515Y-15297984D01*
X16892515Y-15297984D02*
X16882991Y-15288460D01*
X16882991Y-15288460D02*
X16892515Y-15278936D01*
X16892515Y-15278936D02*
X16892515Y-15297984D01*
X17025848Y-15097984D02*
X17044896Y-15097984D01*
X17044896Y-15097984D02*
X17063944Y-15107508D01*
X17063944Y-15107508D02*
X17073468Y-15117031D01*
X17073468Y-15117031D02*
X17082991Y-15136079D01*
X17082991Y-15136079D02*
X17092515Y-15174174D01*
X17092515Y-15174174D02*
X17092515Y-15221793D01*
X17092515Y-15221793D02*
X17082991Y-15259888D01*
X17082991Y-15259888D02*
X17073468Y-15278936D01*
X17073468Y-15278936D02*
X17063944Y-15288460D01*
X17063944Y-15288460D02*
X17044896Y-15297984D01*
X17044896Y-15297984D02*
X17025848Y-15297984D01*
X17025848Y-15297984D02*
X17006801Y-15288460D01*
X17006801Y-15288460D02*
X16997277Y-15278936D01*
X16997277Y-15278936D02*
X16987753Y-15259888D01*
X16987753Y-15259888D02*
X16978229Y-15221793D01*
X16978229Y-15221793D02*
X16978229Y-15174174D01*
X16978229Y-15174174D02*
X16987753Y-15136079D01*
X16987753Y-15136079D02*
X16997277Y-15117031D01*
X16997277Y-15117031D02*
X17006801Y-15107508D01*
X17006801Y-15107508D02*
X17025848Y-15097984D01*
X17263944Y-15164650D02*
X17263944Y-15297984D01*
X17216325Y-15088460D02*
X17168706Y-15231317D01*
X17168706Y-15231317D02*
X17292515Y-15231317D01*
X17406801Y-15097984D02*
X17425849Y-15097984D01*
X17425849Y-15097984D02*
X17444896Y-15107508D01*
X17444896Y-15107508D02*
X17454420Y-15117031D01*
X17454420Y-15117031D02*
X17463944Y-15136079D01*
X17463944Y-15136079D02*
X17473468Y-15174174D01*
X17473468Y-15174174D02*
X17473468Y-15221793D01*
X17473468Y-15221793D02*
X17463944Y-15259888D01*
X17463944Y-15259888D02*
X17454420Y-15278936D01*
X17454420Y-15278936D02*
X17444896Y-15288460D01*
X17444896Y-15288460D02*
X17425849Y-15297984D01*
X17425849Y-15297984D02*
X17406801Y-15297984D01*
X17406801Y-15297984D02*
X17387753Y-15288460D01*
X17387753Y-15288460D02*
X17378229Y-15278936D01*
X17378229Y-15278936D02*
X17368706Y-15259888D01*
X17368706Y-15259888D02*
X17359182Y-15221793D01*
X17359182Y-15221793D02*
X17359182Y-15174174D01*
X17359182Y-15174174D02*
X17368706Y-15136079D01*
X17368706Y-15136079D02*
X17378229Y-15117031D01*
X17378229Y-15117031D02*
X17387753Y-15107508D01*
X17387753Y-15107508D02*
X17406801Y-15097984D01*
X17597277Y-15097984D02*
X17616325Y-15097984D01*
X17616325Y-15097984D02*
X17635372Y-15107508D01*
X17635372Y-15107508D02*
X17644896Y-15117031D01*
X17644896Y-15117031D02*
X17654420Y-15136079D01*
X17654420Y-15136079D02*
X17663944Y-15174174D01*
X17663944Y-15174174D02*
X17663944Y-15221793D01*
X17663944Y-15221793D02*
X17654420Y-15259888D01*
X17654420Y-15259888D02*
X17644896Y-15278936D01*
X17644896Y-15278936D02*
X17635372Y-15288460D01*
X17635372Y-15288460D02*
X17616325Y-15297984D01*
X17616325Y-15297984D02*
X17597277Y-15297984D01*
X17597277Y-15297984D02*
X17578229Y-15288460D01*
X17578229Y-15288460D02*
X17568706Y-15278936D01*
X17568706Y-15278936D02*
X17559182Y-15259888D01*
X17559182Y-15259888D02*
X17549658Y-15221793D01*
X17549658Y-15221793D02*
X17549658Y-15174174D01*
X17549658Y-15174174D02*
X17559182Y-15136079D01*
X17559182Y-15136079D02*
X17568706Y-15117031D01*
X17568706Y-15117031D02*
X17578229Y-15107508D01*
X17578229Y-15107508D02*
X17597277Y-15097984D01*
X17740134Y-15097984D02*
X17740134Y-15136079D01*
X17816325Y-15097984D02*
X17816325Y-15136079D01*
X18111563Y-15374174D02*
X18102039Y-15364650D01*
X18102039Y-15364650D02*
X18082991Y-15336079D01*
X18082991Y-15336079D02*
X18073468Y-15317031D01*
X18073468Y-15317031D02*
X18063944Y-15288460D01*
X18063944Y-15288460D02*
X18054420Y-15240841D01*
X18054420Y-15240841D02*
X18054420Y-15202746D01*
X18054420Y-15202746D02*
X18063944Y-15155127D01*
X18063944Y-15155127D02*
X18073468Y-15126555D01*
X18073468Y-15126555D02*
X18082991Y-15107508D01*
X18082991Y-15107508D02*
X18102039Y-15078936D01*
X18102039Y-15078936D02*
X18111563Y-15069412D01*
X18197277Y-15297984D02*
X18235372Y-15297984D01*
X18235372Y-15297984D02*
X18254420Y-15288460D01*
X18254420Y-15288460D02*
X18263944Y-15278936D01*
X18263944Y-15278936D02*
X18282991Y-15250365D01*
X18282991Y-15250365D02*
X18292515Y-15212269D01*
X18292515Y-15212269D02*
X18292515Y-15136079D01*
X18292515Y-15136079D02*
X18282991Y-15117031D01*
X18282991Y-15117031D02*
X18273468Y-15107508D01*
X18273468Y-15107508D02*
X18254420Y-15097984D01*
X18254420Y-15097984D02*
X18216325Y-15097984D01*
X18216325Y-15097984D02*
X18197277Y-15107508D01*
X18197277Y-15107508D02*
X18187753Y-15117031D01*
X18187753Y-15117031D02*
X18178230Y-15136079D01*
X18178230Y-15136079D02*
X18178230Y-15183698D01*
X18178230Y-15183698D02*
X18187753Y-15202746D01*
X18187753Y-15202746D02*
X18197277Y-15212269D01*
X18197277Y-15212269D02*
X18216325Y-15221793D01*
X18216325Y-15221793D02*
X18254420Y-15221793D01*
X18254420Y-15221793D02*
X18273468Y-15212269D01*
X18273468Y-15212269D02*
X18282991Y-15202746D01*
X18282991Y-15202746D02*
X18292515Y-15183698D01*
X18368706Y-15117031D02*
X18378230Y-15107508D01*
X18378230Y-15107508D02*
X18397277Y-15097984D01*
X18397277Y-15097984D02*
X18444896Y-15097984D01*
X18444896Y-15097984D02*
X18463944Y-15107508D01*
X18463944Y-15107508D02*
X18473468Y-15117031D01*
X18473468Y-15117031D02*
X18482991Y-15136079D01*
X18482991Y-15136079D02*
X18482991Y-15155127D01*
X18482991Y-15155127D02*
X18473468Y-15183698D01*
X18473468Y-15183698D02*
X18359182Y-15297984D01*
X18359182Y-15297984D02*
X18482991Y-15297984D01*
X18721087Y-15297984D02*
X18721087Y-15097984D01*
X18806801Y-15297984D02*
X18806801Y-15193222D01*
X18806801Y-15193222D02*
X18797277Y-15174174D01*
X18797277Y-15174174D02*
X18778230Y-15164650D01*
X18778230Y-15164650D02*
X18749658Y-15164650D01*
X18749658Y-15164650D02*
X18730611Y-15174174D01*
X18730611Y-15174174D02*
X18721087Y-15183698D01*
X18930611Y-15297984D02*
X18911563Y-15288460D01*
X18911563Y-15288460D02*
X18902039Y-15278936D01*
X18902039Y-15278936D02*
X18892515Y-15259888D01*
X18892515Y-15259888D02*
X18892515Y-15202746D01*
X18892515Y-15202746D02*
X18902039Y-15183698D01*
X18902039Y-15183698D02*
X18911563Y-15174174D01*
X18911563Y-15174174D02*
X18930611Y-15164650D01*
X18930611Y-15164650D02*
X18959182Y-15164650D01*
X18959182Y-15164650D02*
X18978230Y-15174174D01*
X18978230Y-15174174D02*
X18987753Y-15183698D01*
X18987753Y-15183698D02*
X18997277Y-15202746D01*
X18997277Y-15202746D02*
X18997277Y-15259888D01*
X18997277Y-15259888D02*
X18987753Y-15278936D01*
X18987753Y-15278936D02*
X18978230Y-15288460D01*
X18978230Y-15288460D02*
X18959182Y-15297984D01*
X18959182Y-15297984D02*
X18930611Y-15297984D01*
X19111563Y-15297984D02*
X19092515Y-15288460D01*
X19092515Y-15288460D02*
X19082992Y-15269412D01*
X19082992Y-15269412D02*
X19082992Y-15097984D01*
X19263944Y-15288460D02*
X19244896Y-15297984D01*
X19244896Y-15297984D02*
X19206801Y-15297984D01*
X19206801Y-15297984D02*
X19187753Y-15288460D01*
X19187753Y-15288460D02*
X19178230Y-15269412D01*
X19178230Y-15269412D02*
X19178230Y-15193222D01*
X19178230Y-15193222D02*
X19187753Y-15174174D01*
X19187753Y-15174174D02*
X19206801Y-15164650D01*
X19206801Y-15164650D02*
X19244896Y-15164650D01*
X19244896Y-15164650D02*
X19263944Y-15174174D01*
X19263944Y-15174174D02*
X19273468Y-15193222D01*
X19273468Y-15193222D02*
X19273468Y-15212269D01*
X19273468Y-15212269D02*
X19178230Y-15231317D01*
X19349658Y-15288460D02*
X19368706Y-15297984D01*
X19368706Y-15297984D02*
X19406801Y-15297984D01*
X19406801Y-15297984D02*
X19425849Y-15288460D01*
X19425849Y-15288460D02*
X19435373Y-15269412D01*
X19435373Y-15269412D02*
X19435373Y-15259888D01*
X19435373Y-15259888D02*
X19425849Y-15240841D01*
X19425849Y-15240841D02*
X19406801Y-15231317D01*
X19406801Y-15231317D02*
X19378230Y-15231317D01*
X19378230Y-15231317D02*
X19359182Y-15221793D01*
X19359182Y-15221793D02*
X19349658Y-15202746D01*
X19349658Y-15202746D02*
X19349658Y-15193222D01*
X19349658Y-15193222D02*
X19359182Y-15174174D01*
X19359182Y-15174174D02*
X19378230Y-15164650D01*
X19378230Y-15164650D02*
X19406801Y-15164650D01*
X19406801Y-15164650D02*
X19425849Y-15174174D01*
X19502039Y-15374174D02*
X19511563Y-15364650D01*
X19511563Y-15364650D02*
X19530611Y-15336079D01*
X19530611Y-15336079D02*
X19540134Y-15317031D01*
X19540134Y-15317031D02*
X19549658Y-15288460D01*
X19549658Y-15288460D02*
X19559182Y-15240841D01*
X19559182Y-15240841D02*
X19559182Y-15202746D01*
X19559182Y-15202746D02*
X19549658Y-15155127D01*
X19549658Y-15155127D02*
X19540134Y-15126555D01*
X19540134Y-15126555D02*
X19530611Y-15107508D01*
X19530611Y-15107508D02*
X19511563Y-15078936D01*
X19511563Y-15078936D02*
X19502039Y-15069412D01*
M02*
