%TF.GenerationSoftware,KiCad,Pcbnew,7.0.7*%
%TF.CreationDate,2023-09-28T15:46:00-05:00*%
%TF.ProjectId,iowa-rover-kiosk-mega-adapter,696f7761-2d72-46f7-9665-722d6b696f73,rev?*%
%TF.SameCoordinates,Original*%
%TF.FileFunction,Legend,Bot*%
%TF.FilePolarity,Positive*%
%FSLAX46Y46*%
G04 Gerber Fmt 4.6, Leading zero omitted, Abs format (unit mm)*
G04 Created by KiCad (PCBNEW 7.0.7) date 2023-09-28 15:46:00*
%MOMM*%
%LPD*%
G01*
G04 APERTURE LIST*
%ADD10C,0.150000*%
%ADD11O,1.727200X1.727200*%
%ADD12R,1.727200X1.727200*%
%ADD13C,3.200000*%
%ADD14R,1.700000X1.700000*%
%ADD15O,1.700000X1.700000*%
G04 APERTURE END LIST*
D10*
X193860180Y-102963094D02*
X194860180Y-102963094D01*
X194860180Y-102963094D02*
X194860180Y-102724999D01*
X194860180Y-102724999D02*
X194812561Y-102582142D01*
X194812561Y-102582142D02*
X194717323Y-102486904D01*
X194717323Y-102486904D02*
X194622085Y-102439285D01*
X194622085Y-102439285D02*
X194431609Y-102391666D01*
X194431609Y-102391666D02*
X194288752Y-102391666D01*
X194288752Y-102391666D02*
X194098276Y-102439285D01*
X194098276Y-102439285D02*
X194003038Y-102486904D01*
X194003038Y-102486904D02*
X193907800Y-102582142D01*
X193907800Y-102582142D02*
X193860180Y-102724999D01*
X193860180Y-102724999D02*
X193860180Y-102963094D01*
X194860180Y-101772618D02*
X194860180Y-101677380D01*
X194860180Y-101677380D02*
X194812561Y-101582142D01*
X194812561Y-101582142D02*
X194764942Y-101534523D01*
X194764942Y-101534523D02*
X194669704Y-101486904D01*
X194669704Y-101486904D02*
X194479228Y-101439285D01*
X194479228Y-101439285D02*
X194241133Y-101439285D01*
X194241133Y-101439285D02*
X194050657Y-101486904D01*
X194050657Y-101486904D02*
X193955419Y-101534523D01*
X193955419Y-101534523D02*
X193907800Y-101582142D01*
X193907800Y-101582142D02*
X193860180Y-101677380D01*
X193860180Y-101677380D02*
X193860180Y-101772618D01*
X193860180Y-101772618D02*
X193907800Y-101867856D01*
X193907800Y-101867856D02*
X193955419Y-101915475D01*
X193955419Y-101915475D02*
X194050657Y-101963094D01*
X194050657Y-101963094D02*
X194241133Y-102010713D01*
X194241133Y-102010713D02*
X194479228Y-102010713D01*
X194479228Y-102010713D02*
X194669704Y-101963094D01*
X194669704Y-101963094D02*
X194764942Y-101915475D01*
X194764942Y-101915475D02*
X194812561Y-101867856D01*
X194812561Y-101867856D02*
X194860180Y-101772618D01*
X178418580Y-85333999D02*
X178466200Y-85286380D01*
X178466200Y-85286380D02*
X178513819Y-85333999D01*
X178513819Y-85333999D02*
X178466200Y-85381618D01*
X178466200Y-85381618D02*
X178418580Y-85333999D01*
X178418580Y-85333999D02*
X178513819Y-85333999D01*
%LPC*%
D11*
%TO.C,A1*%
X147960000Y-84445000D03*
X196220000Y-60061000D03*
X196220000Y-57521000D03*
X173360000Y-102352000D03*
X170820000Y-102352000D03*
X147960000Y-71745000D03*
X173360000Y-104892000D03*
X175900000Y-102352000D03*
X147960000Y-69205000D03*
D12*
X153040000Y-135245000D03*
X153040000Y-132705000D03*
X170820000Y-104892000D03*
X147960000Y-81905000D03*
X147960000Y-79365000D03*
X196220000Y-65141000D03*
D11*
X155580000Y-135245000D03*
X155580000Y-132705000D03*
X158120000Y-135245000D03*
X158120000Y-132705000D03*
X160660000Y-135245000D03*
X160660000Y-132705000D03*
X163200000Y-135245000D03*
X163200000Y-132705000D03*
X165740000Y-135245000D03*
X165740000Y-132705000D03*
X168280000Y-135245000D03*
X168280000Y-132705000D03*
X170820000Y-135245000D03*
X170820000Y-132705000D03*
X173360000Y-135245000D03*
X173360000Y-132705000D03*
X175900000Y-135245000D03*
X175900000Y-132705000D03*
X178440000Y-135245000D03*
X178440000Y-132705000D03*
X180980000Y-135245000D03*
X180980000Y-132705000D03*
X183520000Y-135245000D03*
X183520000Y-132705000D03*
X186060000Y-135245000D03*
X186060000Y-132705000D03*
X188600000Y-135245000D03*
X188600000Y-132705000D03*
X191140000Y-135245000D03*
X191140000Y-132705000D03*
X193680000Y-135245000D03*
X193680000Y-132705000D03*
X196220000Y-125085000D03*
X196220000Y-122545000D03*
X196220000Y-120005000D03*
X196220000Y-117465000D03*
X196220000Y-114925000D03*
X196220000Y-112385000D03*
X196220000Y-109845000D03*
X196220000Y-107305000D03*
X196220000Y-67681000D03*
X196220000Y-70221000D03*
X196220000Y-72761000D03*
X196220000Y-75301000D03*
X196220000Y-77841000D03*
X196220000Y-80381000D03*
X196220000Y-84445000D03*
X196220000Y-86985000D03*
X196220000Y-89525000D03*
X196220000Y-92065000D03*
X196220000Y-94605000D03*
X196220000Y-97145000D03*
X196220000Y-99685000D03*
X196220000Y-102225000D03*
X196220000Y-62601000D03*
X147960000Y-130165000D03*
X147960000Y-127625000D03*
X147960000Y-125085000D03*
X147960000Y-122545000D03*
X147960000Y-120005000D03*
X147960000Y-117465000D03*
X147960000Y-114925000D03*
X147960000Y-112385000D03*
X147960000Y-107305000D03*
X147960000Y-104765000D03*
X147960000Y-102225000D03*
X147960000Y-99685000D03*
X147960000Y-97145000D03*
X147960000Y-94605000D03*
X147960000Y-92065000D03*
X147960000Y-89525000D03*
X196220000Y-135245000D03*
X196220000Y-132705000D03*
X175900000Y-104892000D03*
X147960000Y-76825000D03*
X147960000Y-74285000D03*
D13*
X147960000Y-135245000D03*
X196220000Y-128895000D03*
X153040000Y-104765000D03*
X180980000Y-104765000D03*
D11*
X147960000Y-66665000D03*
D13*
X196220000Y-53965000D03*
X147960000Y-52695000D03*
%TD*%
D14*
%TO.C,J1*%
X160020000Y-69850000D03*
D15*
X162560000Y-69850000D03*
X160020000Y-72390000D03*
X162560000Y-72390000D03*
X160020000Y-74930000D03*
X162560000Y-74930000D03*
X160020000Y-77470000D03*
X162560000Y-77470000D03*
X160020000Y-80010000D03*
X162560000Y-80010000D03*
X160020000Y-82550000D03*
X162560000Y-82550000D03*
X160020000Y-85090000D03*
X162560000Y-85090000D03*
X160020000Y-87630000D03*
X162560000Y-87630000D03*
X160020000Y-90170000D03*
X162560000Y-90170000D03*
X160020000Y-92710000D03*
X162560000Y-92710000D03*
X160020000Y-95250000D03*
X162560000Y-95250000D03*
X160020000Y-97790000D03*
X162560000Y-97790000D03*
X160020000Y-100330000D03*
X162560000Y-100330000D03*
X160020000Y-102870000D03*
X162560000Y-102870000D03*
X160020000Y-105410000D03*
X162560000Y-105410000D03*
X160020000Y-107950000D03*
X162560000Y-107950000D03*
X160020000Y-110490000D03*
X162560000Y-110490000D03*
X160020000Y-113030000D03*
X162560000Y-113030000D03*
X160020000Y-115570000D03*
X162560000Y-115570000D03*
X160020000Y-118110000D03*
X162560000Y-118110000D03*
%TD*%
%LPD*%
M02*
