%TF.GenerationSoftware,KiCad,Pcbnew,7.0.7*%
%TF.CreationDate,2023-09-28T16:31:27-05:00*%
%TF.ProjectId,iowa-rover-kiosk-main,696f7761-2d72-46f7-9665-722d6b696f73,rev?*%
%TF.SameCoordinates,Original*%
%TF.FileFunction,Legend,Top*%
%TF.FilePolarity,Positive*%
%FSLAX46Y46*%
G04 Gerber Fmt 4.6, Leading zero omitted, Abs format (unit mm)*
G04 Created by KiCad (PCBNEW 7.0.7) date 2023-09-28 16:31:27*
%MOMM*%
%LPD*%
G01*
G04 APERTURE LIST*
G04 Aperture macros list*
%AMRoundRect*
0 Rectangle with rounded corners*
0 $1 Rounding radius*
0 $2 $3 $4 $5 $6 $7 $8 $9 X,Y pos of 4 corners*
0 Add a 4 corners polygon primitive as box body*
4,1,4,$2,$3,$4,$5,$6,$7,$8,$9,$2,$3,0*
0 Add four circle primitives for the rounded corners*
1,1,$1+$1,$2,$3*
1,1,$1+$1,$4,$5*
1,1,$1+$1,$6,$7*
1,1,$1+$1,$8,$9*
0 Add four rect primitives between the rounded corners*
20,1,$1+$1,$2,$3,$4,$5,0*
20,1,$1+$1,$4,$5,$6,$7,0*
20,1,$1+$1,$6,$7,$8,$9,0*
20,1,$1+$1,$8,$9,$2,$3,0*%
G04 Aperture macros list end*
%ADD10C,0.100000*%
%ADD11C,0.150000*%
%ADD12C,0.120000*%
%ADD13C,2.500000*%
%ADD14C,1.524000*%
%ADD15R,1.700000X1.700000*%
%ADD16O,1.700000X1.700000*%
%ADD17R,3.500000X3.500000*%
%ADD18RoundRect,0.750000X-1.000000X0.750000X-1.000000X-0.750000X1.000000X-0.750000X1.000000X0.750000X0*%
%ADD19RoundRect,0.875000X-0.875000X0.875000X-0.875000X-0.875000X0.875000X-0.875000X0.875000X0.875000X0*%
%ADD20R,1.800000X1.800000*%
%ADD21C,1.800000*%
%ADD22C,1.600000*%
%ADD23O,1.600000X1.600000*%
%ADD24RoundRect,0.250000X0.845000X-0.620000X0.845000X0.620000X-0.845000X0.620000X-0.845000X-0.620000X0*%
%ADD25O,2.190000X1.740000*%
%ADD26R,1.600000X1.600000*%
G04 APERTURE END LIST*
D10*
X80313884Y-58292419D02*
X80313884Y-57292419D01*
X80313884Y-57292419D02*
X80694836Y-57292419D01*
X80694836Y-57292419D02*
X80790074Y-57340038D01*
X80790074Y-57340038D02*
X80837693Y-57387657D01*
X80837693Y-57387657D02*
X80885312Y-57482895D01*
X80885312Y-57482895D02*
X80885312Y-57625752D01*
X80885312Y-57625752D02*
X80837693Y-57720990D01*
X80837693Y-57720990D02*
X80790074Y-57768609D01*
X80790074Y-57768609D02*
X80694836Y-57816228D01*
X80694836Y-57816228D02*
X80313884Y-57816228D01*
X81313884Y-58292419D02*
X81313884Y-57625752D01*
X81313884Y-57816228D02*
X81361503Y-57720990D01*
X81361503Y-57720990D02*
X81409122Y-57673371D01*
X81409122Y-57673371D02*
X81504360Y-57625752D01*
X81504360Y-57625752D02*
X81599598Y-57625752D01*
X82075789Y-58292419D02*
X81980551Y-58244800D01*
X81980551Y-58244800D02*
X81932932Y-58197180D01*
X81932932Y-58197180D02*
X81885313Y-58101942D01*
X81885313Y-58101942D02*
X81885313Y-57816228D01*
X81885313Y-57816228D02*
X81932932Y-57720990D01*
X81932932Y-57720990D02*
X81980551Y-57673371D01*
X81980551Y-57673371D02*
X82075789Y-57625752D01*
X82075789Y-57625752D02*
X82218646Y-57625752D01*
X82218646Y-57625752D02*
X82313884Y-57673371D01*
X82313884Y-57673371D02*
X82361503Y-57720990D01*
X82361503Y-57720990D02*
X82409122Y-57816228D01*
X82409122Y-57816228D02*
X82409122Y-58101942D01*
X82409122Y-58101942D02*
X82361503Y-58197180D01*
X82361503Y-58197180D02*
X82313884Y-58244800D01*
X82313884Y-58244800D02*
X82218646Y-58292419D01*
X82218646Y-58292419D02*
X82075789Y-58292419D01*
X83266265Y-57625752D02*
X83266265Y-58435276D01*
X83266265Y-58435276D02*
X83218646Y-58530514D01*
X83218646Y-58530514D02*
X83171027Y-58578133D01*
X83171027Y-58578133D02*
X83075789Y-58625752D01*
X83075789Y-58625752D02*
X82932932Y-58625752D01*
X82932932Y-58625752D02*
X82837694Y-58578133D01*
X83266265Y-58244800D02*
X83171027Y-58292419D01*
X83171027Y-58292419D02*
X82980551Y-58292419D01*
X82980551Y-58292419D02*
X82885313Y-58244800D01*
X82885313Y-58244800D02*
X82837694Y-58197180D01*
X82837694Y-58197180D02*
X82790075Y-58101942D01*
X82790075Y-58101942D02*
X82790075Y-57816228D01*
X82790075Y-57816228D02*
X82837694Y-57720990D01*
X82837694Y-57720990D02*
X82885313Y-57673371D01*
X82885313Y-57673371D02*
X82980551Y-57625752D01*
X82980551Y-57625752D02*
X83171027Y-57625752D01*
X83171027Y-57625752D02*
X83266265Y-57673371D01*
X83742456Y-58292419D02*
X83742456Y-57625752D01*
X83742456Y-57816228D02*
X83790075Y-57720990D01*
X83790075Y-57720990D02*
X83837694Y-57673371D01*
X83837694Y-57673371D02*
X83932932Y-57625752D01*
X83932932Y-57625752D02*
X84028170Y-57625752D01*
X84790075Y-58292419D02*
X84790075Y-57768609D01*
X84790075Y-57768609D02*
X84742456Y-57673371D01*
X84742456Y-57673371D02*
X84647218Y-57625752D01*
X84647218Y-57625752D02*
X84456742Y-57625752D01*
X84456742Y-57625752D02*
X84361504Y-57673371D01*
X84790075Y-58244800D02*
X84694837Y-58292419D01*
X84694837Y-58292419D02*
X84456742Y-58292419D01*
X84456742Y-58292419D02*
X84361504Y-58244800D01*
X84361504Y-58244800D02*
X84313885Y-58149561D01*
X84313885Y-58149561D02*
X84313885Y-58054323D01*
X84313885Y-58054323D02*
X84361504Y-57959085D01*
X84361504Y-57959085D02*
X84456742Y-57911466D01*
X84456742Y-57911466D02*
X84694837Y-57911466D01*
X84694837Y-57911466D02*
X84790075Y-57863847D01*
X85266266Y-58292419D02*
X85266266Y-57625752D01*
X85266266Y-57720990D02*
X85313885Y-57673371D01*
X85313885Y-57673371D02*
X85409123Y-57625752D01*
X85409123Y-57625752D02*
X85551980Y-57625752D01*
X85551980Y-57625752D02*
X85647218Y-57673371D01*
X85647218Y-57673371D02*
X85694837Y-57768609D01*
X85694837Y-57768609D02*
X85694837Y-58292419D01*
X85694837Y-57768609D02*
X85742456Y-57673371D01*
X85742456Y-57673371D02*
X85837694Y-57625752D01*
X85837694Y-57625752D02*
X85980551Y-57625752D01*
X85980551Y-57625752D02*
X86075790Y-57673371D01*
X86075790Y-57673371D02*
X86123409Y-57768609D01*
X86123409Y-57768609D02*
X86123409Y-58292419D01*
X86599599Y-58292419D02*
X86599599Y-57625752D01*
X86599599Y-57720990D02*
X86647218Y-57673371D01*
X86647218Y-57673371D02*
X86742456Y-57625752D01*
X86742456Y-57625752D02*
X86885313Y-57625752D01*
X86885313Y-57625752D02*
X86980551Y-57673371D01*
X86980551Y-57673371D02*
X87028170Y-57768609D01*
X87028170Y-57768609D02*
X87028170Y-58292419D01*
X87028170Y-57768609D02*
X87075789Y-57673371D01*
X87075789Y-57673371D02*
X87171027Y-57625752D01*
X87171027Y-57625752D02*
X87313884Y-57625752D01*
X87313884Y-57625752D02*
X87409123Y-57673371D01*
X87409123Y-57673371D02*
X87456742Y-57768609D01*
X87456742Y-57768609D02*
X87456742Y-58292419D01*
X88313884Y-58244800D02*
X88218646Y-58292419D01*
X88218646Y-58292419D02*
X88028170Y-58292419D01*
X88028170Y-58292419D02*
X87932932Y-58244800D01*
X87932932Y-58244800D02*
X87885313Y-58149561D01*
X87885313Y-58149561D02*
X87885313Y-57768609D01*
X87885313Y-57768609D02*
X87932932Y-57673371D01*
X87932932Y-57673371D02*
X88028170Y-57625752D01*
X88028170Y-57625752D02*
X88218646Y-57625752D01*
X88218646Y-57625752D02*
X88313884Y-57673371D01*
X88313884Y-57673371D02*
X88361503Y-57768609D01*
X88361503Y-57768609D02*
X88361503Y-57863847D01*
X88361503Y-57863847D02*
X87885313Y-57959085D01*
X88790075Y-58292419D02*
X88790075Y-57625752D01*
X88790075Y-57816228D02*
X88837694Y-57720990D01*
X88837694Y-57720990D02*
X88885313Y-57673371D01*
X88885313Y-57673371D02*
X88980551Y-57625752D01*
X88980551Y-57625752D02*
X89075789Y-57625752D01*
X100633884Y-83692419D02*
X100633884Y-82692419D01*
X100633884Y-82692419D02*
X101205312Y-83692419D01*
X101205312Y-83692419D02*
X101205312Y-82692419D01*
X102062455Y-83644800D02*
X101967217Y-83692419D01*
X101967217Y-83692419D02*
X101776741Y-83692419D01*
X101776741Y-83692419D02*
X101681503Y-83644800D01*
X101681503Y-83644800D02*
X101633884Y-83549561D01*
X101633884Y-83549561D02*
X101633884Y-83168609D01*
X101633884Y-83168609D02*
X101681503Y-83073371D01*
X101681503Y-83073371D02*
X101776741Y-83025752D01*
X101776741Y-83025752D02*
X101967217Y-83025752D01*
X101967217Y-83025752D02*
X102062455Y-83073371D01*
X102062455Y-83073371D02*
X102110074Y-83168609D01*
X102110074Y-83168609D02*
X102110074Y-83263847D01*
X102110074Y-83263847D02*
X101633884Y-83359085D01*
X102681503Y-83692419D02*
X102586265Y-83644800D01*
X102586265Y-83644800D02*
X102538646Y-83597180D01*
X102538646Y-83597180D02*
X102491027Y-83501942D01*
X102491027Y-83501942D02*
X102491027Y-83216228D01*
X102491027Y-83216228D02*
X102538646Y-83120990D01*
X102538646Y-83120990D02*
X102586265Y-83073371D01*
X102586265Y-83073371D02*
X102681503Y-83025752D01*
X102681503Y-83025752D02*
X102824360Y-83025752D01*
X102824360Y-83025752D02*
X102919598Y-83073371D01*
X102919598Y-83073371D02*
X102967217Y-83120990D01*
X102967217Y-83120990D02*
X103014836Y-83216228D01*
X103014836Y-83216228D02*
X103014836Y-83501942D01*
X103014836Y-83501942D02*
X102967217Y-83597180D01*
X102967217Y-83597180D02*
X102919598Y-83644800D01*
X102919598Y-83644800D02*
X102824360Y-83692419D01*
X102824360Y-83692419D02*
X102681503Y-83692419D01*
X100202419Y-105804687D02*
X99726228Y-106138020D01*
X100202419Y-106376115D02*
X99202419Y-106376115D01*
X99202419Y-106376115D02*
X99202419Y-105995163D01*
X99202419Y-105995163D02*
X99250038Y-105899925D01*
X99250038Y-105899925D02*
X99297657Y-105852306D01*
X99297657Y-105852306D02*
X99392895Y-105804687D01*
X99392895Y-105804687D02*
X99535752Y-105804687D01*
X99535752Y-105804687D02*
X99630990Y-105852306D01*
X99630990Y-105852306D02*
X99678609Y-105899925D01*
X99678609Y-105899925D02*
X99726228Y-105995163D01*
X99726228Y-105995163D02*
X99726228Y-106376115D01*
X99678609Y-105042782D02*
X99678609Y-105376115D01*
X100202419Y-105376115D02*
X99202419Y-105376115D01*
X99202419Y-105376115D02*
X99202419Y-104899925D01*
X100202419Y-104518972D02*
X99202419Y-104518972D01*
X100202419Y-104042782D02*
X99202419Y-104042782D01*
X99202419Y-104042782D02*
X99202419Y-103804687D01*
X99202419Y-103804687D02*
X99250038Y-103661830D01*
X99250038Y-103661830D02*
X99345276Y-103566592D01*
X99345276Y-103566592D02*
X99440514Y-103518973D01*
X99440514Y-103518973D02*
X99630990Y-103471354D01*
X99630990Y-103471354D02*
X99773847Y-103471354D01*
X99773847Y-103471354D02*
X99964323Y-103518973D01*
X99964323Y-103518973D02*
X100059561Y-103566592D01*
X100059561Y-103566592D02*
X100154800Y-103661830D01*
X100154800Y-103661830D02*
X100202419Y-103804687D01*
X100202419Y-103804687D02*
X100202419Y-104042782D01*
X102380074Y-125602419D02*
X101903884Y-125602419D01*
X101903884Y-125602419D02*
X101903884Y-124602419D01*
X103141979Y-125602419D02*
X103141979Y-125078609D01*
X103141979Y-125078609D02*
X103094360Y-124983371D01*
X103094360Y-124983371D02*
X102999122Y-124935752D01*
X102999122Y-124935752D02*
X102808646Y-124935752D01*
X102808646Y-124935752D02*
X102713408Y-124983371D01*
X103141979Y-125554800D02*
X103046741Y-125602419D01*
X103046741Y-125602419D02*
X102808646Y-125602419D01*
X102808646Y-125602419D02*
X102713408Y-125554800D01*
X102713408Y-125554800D02*
X102665789Y-125459561D01*
X102665789Y-125459561D02*
X102665789Y-125364323D01*
X102665789Y-125364323D02*
X102713408Y-125269085D01*
X102713408Y-125269085D02*
X102808646Y-125221466D01*
X102808646Y-125221466D02*
X103046741Y-125221466D01*
X103046741Y-125221466D02*
X103141979Y-125173847D01*
X103618170Y-125602419D02*
X103618170Y-124935752D01*
X103618170Y-125030990D02*
X103665789Y-124983371D01*
X103665789Y-124983371D02*
X103761027Y-124935752D01*
X103761027Y-124935752D02*
X103903884Y-124935752D01*
X103903884Y-124935752D02*
X103999122Y-124983371D01*
X103999122Y-124983371D02*
X104046741Y-125078609D01*
X104046741Y-125078609D02*
X104046741Y-125602419D01*
X104046741Y-125078609D02*
X104094360Y-124983371D01*
X104094360Y-124983371D02*
X104189598Y-124935752D01*
X104189598Y-124935752D02*
X104332455Y-124935752D01*
X104332455Y-124935752D02*
X104427694Y-124983371D01*
X104427694Y-124983371D02*
X104475313Y-125078609D01*
X104475313Y-125078609D02*
X104475313Y-125602419D01*
X104951503Y-124935752D02*
X104951503Y-125935752D01*
X104951503Y-124983371D02*
X105046741Y-124935752D01*
X105046741Y-124935752D02*
X105237217Y-124935752D01*
X105237217Y-124935752D02*
X105332455Y-124983371D01*
X105332455Y-124983371D02*
X105380074Y-125030990D01*
X105380074Y-125030990D02*
X105427693Y-125126228D01*
X105427693Y-125126228D02*
X105427693Y-125411942D01*
X105427693Y-125411942D02*
X105380074Y-125507180D01*
X105380074Y-125507180D02*
X105332455Y-125554800D01*
X105332455Y-125554800D02*
X105237217Y-125602419D01*
X105237217Y-125602419D02*
X105046741Y-125602419D01*
X105046741Y-125602419D02*
X104951503Y-125554800D01*
X105808646Y-125554800D02*
X105903884Y-125602419D01*
X105903884Y-125602419D02*
X106094360Y-125602419D01*
X106094360Y-125602419D02*
X106189598Y-125554800D01*
X106189598Y-125554800D02*
X106237217Y-125459561D01*
X106237217Y-125459561D02*
X106237217Y-125411942D01*
X106237217Y-125411942D02*
X106189598Y-125316704D01*
X106189598Y-125316704D02*
X106094360Y-125269085D01*
X106094360Y-125269085D02*
X105951503Y-125269085D01*
X105951503Y-125269085D02*
X105856265Y-125221466D01*
X105856265Y-125221466D02*
X105808646Y-125126228D01*
X105808646Y-125126228D02*
X105808646Y-125078609D01*
X105808646Y-125078609D02*
X105856265Y-124983371D01*
X105856265Y-124983371D02*
X105951503Y-124935752D01*
X105951503Y-124935752D02*
X106094360Y-124935752D01*
X106094360Y-124935752D02*
X106189598Y-124983371D01*
X97662419Y-72879925D02*
X97662419Y-73356115D01*
X97662419Y-73356115D02*
X96662419Y-73356115D01*
X97614800Y-72165639D02*
X97662419Y-72260877D01*
X97662419Y-72260877D02*
X97662419Y-72451353D01*
X97662419Y-72451353D02*
X97614800Y-72546591D01*
X97614800Y-72546591D02*
X97519561Y-72594210D01*
X97519561Y-72594210D02*
X97138609Y-72594210D01*
X97138609Y-72594210D02*
X97043371Y-72546591D01*
X97043371Y-72546591D02*
X96995752Y-72451353D01*
X96995752Y-72451353D02*
X96995752Y-72260877D01*
X96995752Y-72260877D02*
X97043371Y-72165639D01*
X97043371Y-72165639D02*
X97138609Y-72118020D01*
X97138609Y-72118020D02*
X97233847Y-72118020D01*
X97233847Y-72118020D02*
X97329085Y-72594210D01*
X96995752Y-71784686D02*
X97662419Y-71546591D01*
X97662419Y-71546591D02*
X96995752Y-71308496D01*
X97614800Y-70546591D02*
X97662419Y-70641829D01*
X97662419Y-70641829D02*
X97662419Y-70832305D01*
X97662419Y-70832305D02*
X97614800Y-70927543D01*
X97614800Y-70927543D02*
X97519561Y-70975162D01*
X97519561Y-70975162D02*
X97138609Y-70975162D01*
X97138609Y-70975162D02*
X97043371Y-70927543D01*
X97043371Y-70927543D02*
X96995752Y-70832305D01*
X96995752Y-70832305D02*
X96995752Y-70641829D01*
X96995752Y-70641829D02*
X97043371Y-70546591D01*
X97043371Y-70546591D02*
X97138609Y-70498972D01*
X97138609Y-70498972D02*
X97233847Y-70498972D01*
X97233847Y-70498972D02*
X97329085Y-70975162D01*
X97662419Y-69927543D02*
X97614800Y-70022781D01*
X97614800Y-70022781D02*
X97519561Y-70070400D01*
X97519561Y-70070400D02*
X96662419Y-70070400D01*
X97138609Y-68451352D02*
X97186228Y-68308495D01*
X97186228Y-68308495D02*
X97233847Y-68260876D01*
X97233847Y-68260876D02*
X97329085Y-68213257D01*
X97329085Y-68213257D02*
X97471942Y-68213257D01*
X97471942Y-68213257D02*
X97567180Y-68260876D01*
X97567180Y-68260876D02*
X97614800Y-68308495D01*
X97614800Y-68308495D02*
X97662419Y-68403733D01*
X97662419Y-68403733D02*
X97662419Y-68784685D01*
X97662419Y-68784685D02*
X96662419Y-68784685D01*
X96662419Y-68784685D02*
X96662419Y-68451352D01*
X96662419Y-68451352D02*
X96710038Y-68356114D01*
X96710038Y-68356114D02*
X96757657Y-68308495D01*
X96757657Y-68308495D02*
X96852895Y-68260876D01*
X96852895Y-68260876D02*
X96948133Y-68260876D01*
X96948133Y-68260876D02*
X97043371Y-68308495D01*
X97043371Y-68308495D02*
X97090990Y-68356114D01*
X97090990Y-68356114D02*
X97138609Y-68451352D01*
X97138609Y-68451352D02*
X97138609Y-68784685D01*
X96995752Y-67356114D02*
X97662419Y-67356114D01*
X96995752Y-67784685D02*
X97519561Y-67784685D01*
X97519561Y-67784685D02*
X97614800Y-67737066D01*
X97614800Y-67737066D02*
X97662419Y-67641828D01*
X97662419Y-67641828D02*
X97662419Y-67498971D01*
X97662419Y-67498971D02*
X97614800Y-67403733D01*
X97614800Y-67403733D02*
X97567180Y-67356114D01*
X96995752Y-67022780D02*
X96995752Y-66641828D01*
X96662419Y-66879923D02*
X97519561Y-66879923D01*
X97519561Y-66879923D02*
X97614800Y-66832304D01*
X97614800Y-66832304D02*
X97662419Y-66737066D01*
X97662419Y-66737066D02*
X97662419Y-66641828D01*
X96995752Y-66451351D02*
X96995752Y-66070399D01*
X96662419Y-66308494D02*
X97519561Y-66308494D01*
X97519561Y-66308494D02*
X97614800Y-66260875D01*
X97614800Y-66260875D02*
X97662419Y-66165637D01*
X97662419Y-66165637D02*
X97662419Y-66070399D01*
X97662419Y-65594208D02*
X97614800Y-65689446D01*
X97614800Y-65689446D02*
X97567180Y-65737065D01*
X97567180Y-65737065D02*
X97471942Y-65784684D01*
X97471942Y-65784684D02*
X97186228Y-65784684D01*
X97186228Y-65784684D02*
X97090990Y-65737065D01*
X97090990Y-65737065D02*
X97043371Y-65689446D01*
X97043371Y-65689446D02*
X96995752Y-65594208D01*
X96995752Y-65594208D02*
X96995752Y-65451351D01*
X96995752Y-65451351D02*
X97043371Y-65356113D01*
X97043371Y-65356113D02*
X97090990Y-65308494D01*
X97090990Y-65308494D02*
X97186228Y-65260875D01*
X97186228Y-65260875D02*
X97471942Y-65260875D01*
X97471942Y-65260875D02*
X97567180Y-65308494D01*
X97567180Y-65308494D02*
X97614800Y-65356113D01*
X97614800Y-65356113D02*
X97662419Y-65451351D01*
X97662419Y-65451351D02*
X97662419Y-65594208D01*
X96995752Y-64832303D02*
X97662419Y-64832303D01*
X97090990Y-64832303D02*
X97043371Y-64784684D01*
X97043371Y-64784684D02*
X96995752Y-64689446D01*
X96995752Y-64689446D02*
X96995752Y-64546589D01*
X96995752Y-64546589D02*
X97043371Y-64451351D01*
X97043371Y-64451351D02*
X97138609Y-64403732D01*
X97138609Y-64403732D02*
X97662419Y-64403732D01*
X97614800Y-63975160D02*
X97662419Y-63879922D01*
X97662419Y-63879922D02*
X97662419Y-63689446D01*
X97662419Y-63689446D02*
X97614800Y-63594208D01*
X97614800Y-63594208D02*
X97519561Y-63546589D01*
X97519561Y-63546589D02*
X97471942Y-63546589D01*
X97471942Y-63546589D02*
X97376704Y-63594208D01*
X97376704Y-63594208D02*
X97329085Y-63689446D01*
X97329085Y-63689446D02*
X97329085Y-63832303D01*
X97329085Y-63832303D02*
X97281466Y-63927541D01*
X97281466Y-63927541D02*
X97186228Y-63975160D01*
X97186228Y-63975160D02*
X97138609Y-63975160D01*
X97138609Y-63975160D02*
X97043371Y-63927541D01*
X97043371Y-63927541D02*
X96995752Y-63832303D01*
X96995752Y-63832303D02*
X96995752Y-63689446D01*
X96995752Y-63689446D02*
X97043371Y-63594208D01*
D11*
X58645588Y-68449819D02*
X58074160Y-68449819D01*
X58359874Y-68449819D02*
X58359874Y-67449819D01*
X58359874Y-67449819D02*
X58264636Y-67592676D01*
X58264636Y-67592676D02*
X58169398Y-67687914D01*
X58169398Y-67687914D02*
X58074160Y-67735533D01*
X72028207Y-74459819D02*
X71694874Y-73983628D01*
X71456779Y-74459819D02*
X71456779Y-73459819D01*
X71456779Y-73459819D02*
X71837731Y-73459819D01*
X71837731Y-73459819D02*
X71932969Y-73507438D01*
X71932969Y-73507438D02*
X71980588Y-73555057D01*
X71980588Y-73555057D02*
X72028207Y-73650295D01*
X72028207Y-73650295D02*
X72028207Y-73793152D01*
X72028207Y-73793152D02*
X71980588Y-73888390D01*
X71980588Y-73888390D02*
X71932969Y-73936009D01*
X71932969Y-73936009D02*
X71837731Y-73983628D01*
X71837731Y-73983628D02*
X71456779Y-73983628D01*
X72599636Y-74459819D02*
X72504398Y-74412200D01*
X72504398Y-74412200D02*
X72456779Y-74364580D01*
X72456779Y-74364580D02*
X72409160Y-74269342D01*
X72409160Y-74269342D02*
X72409160Y-73983628D01*
X72409160Y-73983628D02*
X72456779Y-73888390D01*
X72456779Y-73888390D02*
X72504398Y-73840771D01*
X72504398Y-73840771D02*
X72599636Y-73793152D01*
X72599636Y-73793152D02*
X72742493Y-73793152D01*
X72742493Y-73793152D02*
X72837731Y-73840771D01*
X72837731Y-73840771D02*
X72885350Y-73888390D01*
X72885350Y-73888390D02*
X72932969Y-73983628D01*
X72932969Y-73983628D02*
X72932969Y-74269342D01*
X72932969Y-74269342D02*
X72885350Y-74364580D01*
X72885350Y-74364580D02*
X72837731Y-74412200D01*
X72837731Y-74412200D02*
X72742493Y-74459819D01*
X72742493Y-74459819D02*
X72599636Y-74459819D01*
X73266303Y-73793152D02*
X73504398Y-74459819D01*
X73504398Y-74459819D02*
X73742493Y-73793152D01*
X74504398Y-74412200D02*
X74409160Y-74459819D01*
X74409160Y-74459819D02*
X74218684Y-74459819D01*
X74218684Y-74459819D02*
X74123446Y-74412200D01*
X74123446Y-74412200D02*
X74075827Y-74316961D01*
X74075827Y-74316961D02*
X74075827Y-73936009D01*
X74075827Y-73936009D02*
X74123446Y-73840771D01*
X74123446Y-73840771D02*
X74218684Y-73793152D01*
X74218684Y-73793152D02*
X74409160Y-73793152D01*
X74409160Y-73793152D02*
X74504398Y-73840771D01*
X74504398Y-73840771D02*
X74552017Y-73936009D01*
X74552017Y-73936009D02*
X74552017Y-74031247D01*
X74552017Y-74031247D02*
X74075827Y-74126485D01*
X74980589Y-74459819D02*
X74980589Y-73793152D01*
X74980589Y-73983628D02*
X75028208Y-73888390D01*
X75028208Y-73888390D02*
X75075827Y-73840771D01*
X75075827Y-73840771D02*
X75171065Y-73793152D01*
X75171065Y-73793152D02*
X75266303Y-73793152D01*
X76361542Y-74459819D02*
X76361542Y-73459819D01*
X76932970Y-74459819D02*
X76504399Y-73888390D01*
X76932970Y-73459819D02*
X76361542Y-74031247D01*
X77361542Y-74459819D02*
X77361542Y-73793152D01*
X77361542Y-73459819D02*
X77313923Y-73507438D01*
X77313923Y-73507438D02*
X77361542Y-73555057D01*
X77361542Y-73555057D02*
X77409161Y-73507438D01*
X77409161Y-73507438D02*
X77361542Y-73459819D01*
X77361542Y-73459819D02*
X77361542Y-73555057D01*
X77980589Y-74459819D02*
X77885351Y-74412200D01*
X77885351Y-74412200D02*
X77837732Y-74364580D01*
X77837732Y-74364580D02*
X77790113Y-74269342D01*
X77790113Y-74269342D02*
X77790113Y-73983628D01*
X77790113Y-73983628D02*
X77837732Y-73888390D01*
X77837732Y-73888390D02*
X77885351Y-73840771D01*
X77885351Y-73840771D02*
X77980589Y-73793152D01*
X77980589Y-73793152D02*
X78123446Y-73793152D01*
X78123446Y-73793152D02*
X78218684Y-73840771D01*
X78218684Y-73840771D02*
X78266303Y-73888390D01*
X78266303Y-73888390D02*
X78313922Y-73983628D01*
X78313922Y-73983628D02*
X78313922Y-74269342D01*
X78313922Y-74269342D02*
X78266303Y-74364580D01*
X78266303Y-74364580D02*
X78218684Y-74412200D01*
X78218684Y-74412200D02*
X78123446Y-74459819D01*
X78123446Y-74459819D02*
X77980589Y-74459819D01*
X78694875Y-74412200D02*
X78790113Y-74459819D01*
X78790113Y-74459819D02*
X78980589Y-74459819D01*
X78980589Y-74459819D02*
X79075827Y-74412200D01*
X79075827Y-74412200D02*
X79123446Y-74316961D01*
X79123446Y-74316961D02*
X79123446Y-74269342D01*
X79123446Y-74269342D02*
X79075827Y-74174104D01*
X79075827Y-74174104D02*
X78980589Y-74126485D01*
X78980589Y-74126485D02*
X78837732Y-74126485D01*
X78837732Y-74126485D02*
X78742494Y-74078866D01*
X78742494Y-74078866D02*
X78694875Y-73983628D01*
X78694875Y-73983628D02*
X78694875Y-73936009D01*
X78694875Y-73936009D02*
X78742494Y-73840771D01*
X78742494Y-73840771D02*
X78837732Y-73793152D01*
X78837732Y-73793152D02*
X78980589Y-73793152D01*
X78980589Y-73793152D02*
X79075827Y-73840771D01*
X79552018Y-74459819D02*
X79552018Y-73459819D01*
X79647256Y-74078866D02*
X79932970Y-74459819D01*
X79932970Y-73793152D02*
X79552018Y-74174104D01*
X81123447Y-74078866D02*
X81885352Y-74078866D01*
X83123447Y-74459819D02*
X83123447Y-73459819D01*
X83123447Y-73459819D02*
X83456780Y-74174104D01*
X83456780Y-74174104D02*
X83790113Y-73459819D01*
X83790113Y-73459819D02*
X83790113Y-74459819D01*
X84694875Y-74459819D02*
X84694875Y-73936009D01*
X84694875Y-73936009D02*
X84647256Y-73840771D01*
X84647256Y-73840771D02*
X84552018Y-73793152D01*
X84552018Y-73793152D02*
X84361542Y-73793152D01*
X84361542Y-73793152D02*
X84266304Y-73840771D01*
X84694875Y-74412200D02*
X84599637Y-74459819D01*
X84599637Y-74459819D02*
X84361542Y-74459819D01*
X84361542Y-74459819D02*
X84266304Y-74412200D01*
X84266304Y-74412200D02*
X84218685Y-74316961D01*
X84218685Y-74316961D02*
X84218685Y-74221723D01*
X84218685Y-74221723D02*
X84266304Y-74126485D01*
X84266304Y-74126485D02*
X84361542Y-74078866D01*
X84361542Y-74078866D02*
X84599637Y-74078866D01*
X84599637Y-74078866D02*
X84694875Y-74031247D01*
X85171066Y-74459819D02*
X85171066Y-73793152D01*
X85171066Y-73459819D02*
X85123447Y-73507438D01*
X85123447Y-73507438D02*
X85171066Y-73555057D01*
X85171066Y-73555057D02*
X85218685Y-73507438D01*
X85218685Y-73507438D02*
X85171066Y-73459819D01*
X85171066Y-73459819D02*
X85171066Y-73555057D01*
X85647256Y-73793152D02*
X85647256Y-74459819D01*
X85647256Y-73888390D02*
X85694875Y-73840771D01*
X85694875Y-73840771D02*
X85790113Y-73793152D01*
X85790113Y-73793152D02*
X85932970Y-73793152D01*
X85932970Y-73793152D02*
X86028208Y-73840771D01*
X86028208Y-73840771D02*
X86075827Y-73936009D01*
X86075827Y-73936009D02*
X86075827Y-74459819D01*
X87647256Y-73936009D02*
X87790113Y-73983628D01*
X87790113Y-73983628D02*
X87837732Y-74031247D01*
X87837732Y-74031247D02*
X87885351Y-74126485D01*
X87885351Y-74126485D02*
X87885351Y-74269342D01*
X87885351Y-74269342D02*
X87837732Y-74364580D01*
X87837732Y-74364580D02*
X87790113Y-74412200D01*
X87790113Y-74412200D02*
X87694875Y-74459819D01*
X87694875Y-74459819D02*
X87313923Y-74459819D01*
X87313923Y-74459819D02*
X87313923Y-73459819D01*
X87313923Y-73459819D02*
X87647256Y-73459819D01*
X87647256Y-73459819D02*
X87742494Y-73507438D01*
X87742494Y-73507438D02*
X87790113Y-73555057D01*
X87790113Y-73555057D02*
X87837732Y-73650295D01*
X87837732Y-73650295D02*
X87837732Y-73745533D01*
X87837732Y-73745533D02*
X87790113Y-73840771D01*
X87790113Y-73840771D02*
X87742494Y-73888390D01*
X87742494Y-73888390D02*
X87647256Y-73936009D01*
X87647256Y-73936009D02*
X87313923Y-73936009D01*
X88456780Y-74459819D02*
X88361542Y-74412200D01*
X88361542Y-74412200D02*
X88313923Y-74364580D01*
X88313923Y-74364580D02*
X88266304Y-74269342D01*
X88266304Y-74269342D02*
X88266304Y-73983628D01*
X88266304Y-73983628D02*
X88313923Y-73888390D01*
X88313923Y-73888390D02*
X88361542Y-73840771D01*
X88361542Y-73840771D02*
X88456780Y-73793152D01*
X88456780Y-73793152D02*
X88599637Y-73793152D01*
X88599637Y-73793152D02*
X88694875Y-73840771D01*
X88694875Y-73840771D02*
X88742494Y-73888390D01*
X88742494Y-73888390D02*
X88790113Y-73983628D01*
X88790113Y-73983628D02*
X88790113Y-74269342D01*
X88790113Y-74269342D02*
X88742494Y-74364580D01*
X88742494Y-74364580D02*
X88694875Y-74412200D01*
X88694875Y-74412200D02*
X88599637Y-74459819D01*
X88599637Y-74459819D02*
X88456780Y-74459819D01*
X89647256Y-74459819D02*
X89647256Y-73936009D01*
X89647256Y-73936009D02*
X89599637Y-73840771D01*
X89599637Y-73840771D02*
X89504399Y-73793152D01*
X89504399Y-73793152D02*
X89313923Y-73793152D01*
X89313923Y-73793152D02*
X89218685Y-73840771D01*
X89647256Y-74412200D02*
X89552018Y-74459819D01*
X89552018Y-74459819D02*
X89313923Y-74459819D01*
X89313923Y-74459819D02*
X89218685Y-74412200D01*
X89218685Y-74412200D02*
X89171066Y-74316961D01*
X89171066Y-74316961D02*
X89171066Y-74221723D01*
X89171066Y-74221723D02*
X89218685Y-74126485D01*
X89218685Y-74126485D02*
X89313923Y-74078866D01*
X89313923Y-74078866D02*
X89552018Y-74078866D01*
X89552018Y-74078866D02*
X89647256Y-74031247D01*
X90123447Y-74459819D02*
X90123447Y-73793152D01*
X90123447Y-73983628D02*
X90171066Y-73888390D01*
X90171066Y-73888390D02*
X90218685Y-73840771D01*
X90218685Y-73840771D02*
X90313923Y-73793152D01*
X90313923Y-73793152D02*
X90409161Y-73793152D01*
X91171066Y-74459819D02*
X91171066Y-73459819D01*
X91171066Y-74412200D02*
X91075828Y-74459819D01*
X91075828Y-74459819D02*
X90885352Y-74459819D01*
X90885352Y-74459819D02*
X90790114Y-74412200D01*
X90790114Y-74412200D02*
X90742495Y-74364580D01*
X90742495Y-74364580D02*
X90694876Y-74269342D01*
X90694876Y-74269342D02*
X90694876Y-73983628D01*
X90694876Y-73983628D02*
X90742495Y-73888390D01*
X90742495Y-73888390D02*
X90790114Y-73840771D01*
X90790114Y-73840771D02*
X90885352Y-73793152D01*
X90885352Y-73793152D02*
X91075828Y-73793152D01*
X91075828Y-73793152D02*
X91171066Y-73840771D01*
X72028207Y-76069819D02*
X71694874Y-75593628D01*
X71456779Y-76069819D02*
X71456779Y-75069819D01*
X71456779Y-75069819D02*
X71837731Y-75069819D01*
X71837731Y-75069819D02*
X71932969Y-75117438D01*
X71932969Y-75117438D02*
X71980588Y-75165057D01*
X71980588Y-75165057D02*
X72028207Y-75260295D01*
X72028207Y-75260295D02*
X72028207Y-75403152D01*
X72028207Y-75403152D02*
X71980588Y-75498390D01*
X71980588Y-75498390D02*
X71932969Y-75546009D01*
X71932969Y-75546009D02*
X71837731Y-75593628D01*
X71837731Y-75593628D02*
X71456779Y-75593628D01*
X72837731Y-76022200D02*
X72742493Y-76069819D01*
X72742493Y-76069819D02*
X72552017Y-76069819D01*
X72552017Y-76069819D02*
X72456779Y-76022200D01*
X72456779Y-76022200D02*
X72409160Y-75926961D01*
X72409160Y-75926961D02*
X72409160Y-75546009D01*
X72409160Y-75546009D02*
X72456779Y-75450771D01*
X72456779Y-75450771D02*
X72552017Y-75403152D01*
X72552017Y-75403152D02*
X72742493Y-75403152D01*
X72742493Y-75403152D02*
X72837731Y-75450771D01*
X72837731Y-75450771D02*
X72885350Y-75546009D01*
X72885350Y-75546009D02*
X72885350Y-75641247D01*
X72885350Y-75641247D02*
X72409160Y-75736485D01*
X73218684Y-75403152D02*
X73456779Y-76069819D01*
X73456779Y-76069819D02*
X73694874Y-75403152D01*
X75028208Y-75069819D02*
X75123446Y-75069819D01*
X75123446Y-75069819D02*
X75218684Y-75117438D01*
X75218684Y-75117438D02*
X75266303Y-75165057D01*
X75266303Y-75165057D02*
X75313922Y-75260295D01*
X75313922Y-75260295D02*
X75361541Y-75450771D01*
X75361541Y-75450771D02*
X75361541Y-75688866D01*
X75361541Y-75688866D02*
X75313922Y-75879342D01*
X75313922Y-75879342D02*
X75266303Y-75974580D01*
X75266303Y-75974580D02*
X75218684Y-76022200D01*
X75218684Y-76022200D02*
X75123446Y-76069819D01*
X75123446Y-76069819D02*
X75028208Y-76069819D01*
X75028208Y-76069819D02*
X74932970Y-76022200D01*
X74932970Y-76022200D02*
X74885351Y-75974580D01*
X74885351Y-75974580D02*
X74837732Y-75879342D01*
X74837732Y-75879342D02*
X74790113Y-75688866D01*
X74790113Y-75688866D02*
X74790113Y-75450771D01*
X74790113Y-75450771D02*
X74837732Y-75260295D01*
X74837732Y-75260295D02*
X74885351Y-75165057D01*
X74885351Y-75165057D02*
X74932970Y-75117438D01*
X74932970Y-75117438D02*
X75028208Y-75069819D01*
X65059160Y-67545057D02*
X65106779Y-67497438D01*
X65106779Y-67497438D02*
X65202017Y-67449819D01*
X65202017Y-67449819D02*
X65440112Y-67449819D01*
X65440112Y-67449819D02*
X65535350Y-67497438D01*
X65535350Y-67497438D02*
X65582969Y-67545057D01*
X65582969Y-67545057D02*
X65630588Y-67640295D01*
X65630588Y-67640295D02*
X65630588Y-67735533D01*
X65630588Y-67735533D02*
X65582969Y-67878390D01*
X65582969Y-67878390D02*
X65011541Y-68449819D01*
X65011541Y-68449819D02*
X65630588Y-68449819D01*
X58756779Y-70354819D02*
X58756779Y-69354819D01*
X59328207Y-70354819D02*
X58899636Y-69783390D01*
X59328207Y-69354819D02*
X58756779Y-69926247D01*
X59756779Y-70354819D02*
X59756779Y-69688152D01*
X59756779Y-69354819D02*
X59709160Y-69402438D01*
X59709160Y-69402438D02*
X59756779Y-69450057D01*
X59756779Y-69450057D02*
X59804398Y-69402438D01*
X59804398Y-69402438D02*
X59756779Y-69354819D01*
X59756779Y-69354819D02*
X59756779Y-69450057D01*
X60375826Y-70354819D02*
X60280588Y-70307200D01*
X60280588Y-70307200D02*
X60232969Y-70259580D01*
X60232969Y-70259580D02*
X60185350Y-70164342D01*
X60185350Y-70164342D02*
X60185350Y-69878628D01*
X60185350Y-69878628D02*
X60232969Y-69783390D01*
X60232969Y-69783390D02*
X60280588Y-69735771D01*
X60280588Y-69735771D02*
X60375826Y-69688152D01*
X60375826Y-69688152D02*
X60518683Y-69688152D01*
X60518683Y-69688152D02*
X60613921Y-69735771D01*
X60613921Y-69735771D02*
X60661540Y-69783390D01*
X60661540Y-69783390D02*
X60709159Y-69878628D01*
X60709159Y-69878628D02*
X60709159Y-70164342D01*
X60709159Y-70164342D02*
X60661540Y-70259580D01*
X60661540Y-70259580D02*
X60613921Y-70307200D01*
X60613921Y-70307200D02*
X60518683Y-70354819D01*
X60518683Y-70354819D02*
X60375826Y-70354819D01*
X61090112Y-70307200D02*
X61185350Y-70354819D01*
X61185350Y-70354819D02*
X61375826Y-70354819D01*
X61375826Y-70354819D02*
X61471064Y-70307200D01*
X61471064Y-70307200D02*
X61518683Y-70211961D01*
X61518683Y-70211961D02*
X61518683Y-70164342D01*
X61518683Y-70164342D02*
X61471064Y-70069104D01*
X61471064Y-70069104D02*
X61375826Y-70021485D01*
X61375826Y-70021485D02*
X61232969Y-70021485D01*
X61232969Y-70021485D02*
X61137731Y-69973866D01*
X61137731Y-69973866D02*
X61090112Y-69878628D01*
X61090112Y-69878628D02*
X61090112Y-69831009D01*
X61090112Y-69831009D02*
X61137731Y-69735771D01*
X61137731Y-69735771D02*
X61232969Y-69688152D01*
X61232969Y-69688152D02*
X61375826Y-69688152D01*
X61375826Y-69688152D02*
X61471064Y-69735771D01*
X61947255Y-70354819D02*
X61947255Y-69354819D01*
X62042493Y-69973866D02*
X62328207Y-70354819D01*
X62328207Y-69688152D02*
X61947255Y-70069104D01*
X63518684Y-70354819D02*
X63518684Y-69354819D01*
X63994874Y-70354819D02*
X63994874Y-69354819D01*
X63994874Y-69354819D02*
X64232969Y-69354819D01*
X64232969Y-69354819D02*
X64375826Y-69402438D01*
X64375826Y-69402438D02*
X64471064Y-69497676D01*
X64471064Y-69497676D02*
X64518683Y-69592914D01*
X64518683Y-69592914D02*
X64566302Y-69783390D01*
X64566302Y-69783390D02*
X64566302Y-69926247D01*
X64566302Y-69926247D02*
X64518683Y-70116723D01*
X64518683Y-70116723D02*
X64471064Y-70211961D01*
X64471064Y-70211961D02*
X64375826Y-70307200D01*
X64375826Y-70307200D02*
X64232969Y-70354819D01*
X64232969Y-70354819D02*
X63994874Y-70354819D01*
X69341904Y-109765180D02*
X69341904Y-108955657D01*
X69341904Y-108955657D02*
X69294285Y-108860419D01*
X69294285Y-108860419D02*
X69246666Y-108812800D01*
X69246666Y-108812800D02*
X69151428Y-108765180D01*
X69151428Y-108765180D02*
X68960952Y-108765180D01*
X68960952Y-108765180D02*
X68865714Y-108812800D01*
X68865714Y-108812800D02*
X68818095Y-108860419D01*
X68818095Y-108860419D02*
X68770476Y-108955657D01*
X68770476Y-108955657D02*
X68770476Y-109765180D01*
X67770476Y-108765180D02*
X68341904Y-108765180D01*
X68056190Y-108765180D02*
X68056190Y-109765180D01*
X68056190Y-109765180D02*
X68151428Y-109622323D01*
X68151428Y-109622323D02*
X68246666Y-109527085D01*
X68246666Y-109527085D02*
X68341904Y-109479466D01*
X56194819Y-66238333D02*
X56909104Y-66238333D01*
X56909104Y-66238333D02*
X57051961Y-66285952D01*
X57051961Y-66285952D02*
X57147200Y-66381190D01*
X57147200Y-66381190D02*
X57194819Y-66524047D01*
X57194819Y-66524047D02*
X57194819Y-66619285D01*
X57194819Y-65762142D02*
X56194819Y-65762142D01*
X56194819Y-65762142D02*
X56194819Y-65381190D01*
X56194819Y-65381190D02*
X56242438Y-65285952D01*
X56242438Y-65285952D02*
X56290057Y-65238333D01*
X56290057Y-65238333D02*
X56385295Y-65190714D01*
X56385295Y-65190714D02*
X56528152Y-65190714D01*
X56528152Y-65190714D02*
X56623390Y-65238333D01*
X56623390Y-65238333D02*
X56671009Y-65285952D01*
X56671009Y-65285952D02*
X56718628Y-65381190D01*
X56718628Y-65381190D02*
X56718628Y-65762142D01*
X57194819Y-64238333D02*
X57194819Y-64809761D01*
X57194819Y-64524047D02*
X56194819Y-64524047D01*
X56194819Y-64524047D02*
X56337676Y-64619285D01*
X56337676Y-64619285D02*
X56432914Y-64714523D01*
X56432914Y-64714523D02*
X56480533Y-64809761D01*
X48561666Y-61684819D02*
X48561666Y-62399104D01*
X48561666Y-62399104D02*
X48514047Y-62541961D01*
X48514047Y-62541961D02*
X48418809Y-62637200D01*
X48418809Y-62637200D02*
X48275952Y-62684819D01*
X48275952Y-62684819D02*
X48180714Y-62684819D01*
X49561666Y-62684819D02*
X48990238Y-62684819D01*
X49275952Y-62684819D02*
X49275952Y-61684819D01*
X49275952Y-61684819D02*
X49180714Y-61827676D01*
X49180714Y-61827676D02*
X49085476Y-61922914D01*
X49085476Y-61922914D02*
X48990238Y-61970533D01*
X43869819Y-49033333D02*
X44584104Y-49033333D01*
X44584104Y-49033333D02*
X44726961Y-49080952D01*
X44726961Y-49080952D02*
X44822200Y-49176190D01*
X44822200Y-49176190D02*
X44869819Y-49319047D01*
X44869819Y-49319047D02*
X44869819Y-49414285D01*
X43965057Y-48604761D02*
X43917438Y-48557142D01*
X43917438Y-48557142D02*
X43869819Y-48461904D01*
X43869819Y-48461904D02*
X43869819Y-48223809D01*
X43869819Y-48223809D02*
X43917438Y-48128571D01*
X43917438Y-48128571D02*
X43965057Y-48080952D01*
X43965057Y-48080952D02*
X44060295Y-48033333D01*
X44060295Y-48033333D02*
X44155533Y-48033333D01*
X44155533Y-48033333D02*
X44298390Y-48080952D01*
X44298390Y-48080952D02*
X44869819Y-48652380D01*
X44869819Y-48652380D02*
X44869819Y-48033333D01*
X93881905Y-126604819D02*
X93881905Y-125604819D01*
X93881905Y-125604819D02*
X94120000Y-125604819D01*
X94120000Y-125604819D02*
X94262857Y-125652438D01*
X94262857Y-125652438D02*
X94358095Y-125747676D01*
X94358095Y-125747676D02*
X94405714Y-125842914D01*
X94405714Y-125842914D02*
X94453333Y-126033390D01*
X94453333Y-126033390D02*
X94453333Y-126176247D01*
X94453333Y-126176247D02*
X94405714Y-126366723D01*
X94405714Y-126366723D02*
X94358095Y-126461961D01*
X94358095Y-126461961D02*
X94262857Y-126557200D01*
X94262857Y-126557200D02*
X94120000Y-126604819D01*
X94120000Y-126604819D02*
X93881905Y-126604819D01*
X95405714Y-126604819D02*
X94834286Y-126604819D01*
X95120000Y-126604819D02*
X95120000Y-125604819D01*
X95120000Y-125604819D02*
X95024762Y-125747676D01*
X95024762Y-125747676D02*
X94929524Y-125842914D01*
X94929524Y-125842914D02*
X94834286Y-125890533D01*
X90003333Y-121739819D02*
X89670000Y-121263628D01*
X89431905Y-121739819D02*
X89431905Y-120739819D01*
X89431905Y-120739819D02*
X89812857Y-120739819D01*
X89812857Y-120739819D02*
X89908095Y-120787438D01*
X89908095Y-120787438D02*
X89955714Y-120835057D01*
X89955714Y-120835057D02*
X90003333Y-120930295D01*
X90003333Y-120930295D02*
X90003333Y-121073152D01*
X90003333Y-121073152D02*
X89955714Y-121168390D01*
X89955714Y-121168390D02*
X89908095Y-121216009D01*
X89908095Y-121216009D02*
X89812857Y-121263628D01*
X89812857Y-121263628D02*
X89431905Y-121263628D01*
X90955714Y-121739819D02*
X90384286Y-121739819D01*
X90670000Y-121739819D02*
X90670000Y-120739819D01*
X90670000Y-120739819D02*
X90574762Y-120882676D01*
X90574762Y-120882676D02*
X90479524Y-120977914D01*
X90479524Y-120977914D02*
X90384286Y-121025533D01*
X98819819Y-89233333D02*
X99534104Y-89233333D01*
X99534104Y-89233333D02*
X99676961Y-89280952D01*
X99676961Y-89280952D02*
X99772200Y-89376190D01*
X99772200Y-89376190D02*
X99819819Y-89519047D01*
X99819819Y-89519047D02*
X99819819Y-89614285D01*
X98819819Y-88852380D02*
X98819819Y-88185714D01*
X98819819Y-88185714D02*
X99819819Y-88614285D01*
X65278095Y-56731819D02*
X65278095Y-57541342D01*
X65278095Y-57541342D02*
X65325714Y-57636580D01*
X65325714Y-57636580D02*
X65373333Y-57684200D01*
X65373333Y-57684200D02*
X65468571Y-57731819D01*
X65468571Y-57731819D02*
X65659047Y-57731819D01*
X65659047Y-57731819D02*
X65754285Y-57684200D01*
X65754285Y-57684200D02*
X65801904Y-57636580D01*
X65801904Y-57636580D02*
X65849523Y-57541342D01*
X65849523Y-57541342D02*
X65849523Y-56731819D01*
X66278095Y-56827057D02*
X66325714Y-56779438D01*
X66325714Y-56779438D02*
X66420952Y-56731819D01*
X66420952Y-56731819D02*
X66659047Y-56731819D01*
X66659047Y-56731819D02*
X66754285Y-56779438D01*
X66754285Y-56779438D02*
X66801904Y-56827057D01*
X66801904Y-56827057D02*
X66849523Y-56922295D01*
X66849523Y-56922295D02*
X66849523Y-57017533D01*
X66849523Y-57017533D02*
X66801904Y-57160390D01*
X66801904Y-57160390D02*
X66230476Y-57731819D01*
X66230476Y-57731819D02*
X66849523Y-57731819D01*
X98839819Y-100663333D02*
X99554104Y-100663333D01*
X99554104Y-100663333D02*
X99696961Y-100710952D01*
X99696961Y-100710952D02*
X99792200Y-100806190D01*
X99792200Y-100806190D02*
X99839819Y-100949047D01*
X99839819Y-100949047D02*
X99839819Y-101044285D01*
X99173152Y-99758571D02*
X99839819Y-99758571D01*
X98792200Y-99996666D02*
X99506485Y-100234761D01*
X99506485Y-100234761D02*
X99506485Y-99615714D01*
X103171666Y-54909819D02*
X103171666Y-55624104D01*
X103171666Y-55624104D02*
X103124047Y-55766961D01*
X103124047Y-55766961D02*
X103028809Y-55862200D01*
X103028809Y-55862200D02*
X102885952Y-55909819D01*
X102885952Y-55909819D02*
X102790714Y-55909819D01*
X104124047Y-54909819D02*
X103647857Y-54909819D01*
X103647857Y-54909819D02*
X103600238Y-55386009D01*
X103600238Y-55386009D02*
X103647857Y-55338390D01*
X103647857Y-55338390D02*
X103743095Y-55290771D01*
X103743095Y-55290771D02*
X103981190Y-55290771D01*
X103981190Y-55290771D02*
X104076428Y-55338390D01*
X104076428Y-55338390D02*
X104124047Y-55386009D01*
X104124047Y-55386009D02*
X104171666Y-55481247D01*
X104171666Y-55481247D02*
X104171666Y-55719342D01*
X104171666Y-55719342D02*
X104124047Y-55814580D01*
X104124047Y-55814580D02*
X104076428Y-55862200D01*
X104076428Y-55862200D02*
X103981190Y-55909819D01*
X103981190Y-55909819D02*
X103743095Y-55909819D01*
X103743095Y-55909819D02*
X103647857Y-55862200D01*
X103647857Y-55862200D02*
X103600238Y-55814580D01*
X75229819Y-53673333D02*
X75944104Y-53673333D01*
X75944104Y-53673333D02*
X76086961Y-53720952D01*
X76086961Y-53720952D02*
X76182200Y-53816190D01*
X76182200Y-53816190D02*
X76229819Y-53959047D01*
X76229819Y-53959047D02*
X76229819Y-54054285D01*
X75229819Y-53292380D02*
X75229819Y-52673333D01*
X75229819Y-52673333D02*
X75610771Y-53006666D01*
X75610771Y-53006666D02*
X75610771Y-52863809D01*
X75610771Y-52863809D02*
X75658390Y-52768571D01*
X75658390Y-52768571D02*
X75706009Y-52720952D01*
X75706009Y-52720952D02*
X75801247Y-52673333D01*
X75801247Y-52673333D02*
X76039342Y-52673333D01*
X76039342Y-52673333D02*
X76134580Y-52720952D01*
X76134580Y-52720952D02*
X76182200Y-52768571D01*
X76182200Y-52768571D02*
X76229819Y-52863809D01*
X76229819Y-52863809D02*
X76229819Y-53149523D01*
X76229819Y-53149523D02*
X76182200Y-53244761D01*
X76182200Y-53244761D02*
X76134580Y-53292380D01*
X90043095Y-96819819D02*
X90043095Y-97629342D01*
X90043095Y-97629342D02*
X90090714Y-97724580D01*
X90090714Y-97724580D02*
X90138333Y-97772200D01*
X90138333Y-97772200D02*
X90233571Y-97819819D01*
X90233571Y-97819819D02*
X90424047Y-97819819D01*
X90424047Y-97819819D02*
X90519285Y-97772200D01*
X90519285Y-97772200D02*
X90566904Y-97724580D01*
X90566904Y-97724580D02*
X90614523Y-97629342D01*
X90614523Y-97629342D02*
X90614523Y-96819819D01*
X90995476Y-96819819D02*
X91614523Y-96819819D01*
X91614523Y-96819819D02*
X91281190Y-97200771D01*
X91281190Y-97200771D02*
X91424047Y-97200771D01*
X91424047Y-97200771D02*
X91519285Y-97248390D01*
X91519285Y-97248390D02*
X91566904Y-97296009D01*
X91566904Y-97296009D02*
X91614523Y-97391247D01*
X91614523Y-97391247D02*
X91614523Y-97629342D01*
X91614523Y-97629342D02*
X91566904Y-97724580D01*
X91566904Y-97724580D02*
X91519285Y-97772200D01*
X91519285Y-97772200D02*
X91424047Y-97819819D01*
X91424047Y-97819819D02*
X91138333Y-97819819D01*
X91138333Y-97819819D02*
X91043095Y-97772200D01*
X91043095Y-97772200D02*
X90995476Y-97724580D01*
X103171666Y-109519819D02*
X103171666Y-110234104D01*
X103171666Y-110234104D02*
X103124047Y-110376961D01*
X103124047Y-110376961D02*
X103028809Y-110472200D01*
X103028809Y-110472200D02*
X102885952Y-110519819D01*
X102885952Y-110519819D02*
X102790714Y-110519819D01*
X104076428Y-109519819D02*
X103885952Y-109519819D01*
X103885952Y-109519819D02*
X103790714Y-109567438D01*
X103790714Y-109567438D02*
X103743095Y-109615057D01*
X103743095Y-109615057D02*
X103647857Y-109757914D01*
X103647857Y-109757914D02*
X103600238Y-109948390D01*
X103600238Y-109948390D02*
X103600238Y-110329342D01*
X103600238Y-110329342D02*
X103647857Y-110424580D01*
X103647857Y-110424580D02*
X103695476Y-110472200D01*
X103695476Y-110472200D02*
X103790714Y-110519819D01*
X103790714Y-110519819D02*
X103981190Y-110519819D01*
X103981190Y-110519819D02*
X104076428Y-110472200D01*
X104076428Y-110472200D02*
X104124047Y-110424580D01*
X104124047Y-110424580D02*
X104171666Y-110329342D01*
X104171666Y-110329342D02*
X104171666Y-110091247D01*
X104171666Y-110091247D02*
X104124047Y-109996009D01*
X104124047Y-109996009D02*
X104076428Y-109948390D01*
X104076428Y-109948390D02*
X103981190Y-109900771D01*
X103981190Y-109900771D02*
X103790714Y-109900771D01*
X103790714Y-109900771D02*
X103695476Y-109948390D01*
X103695476Y-109948390D02*
X103647857Y-109996009D01*
X103647857Y-109996009D02*
X103600238Y-110091247D01*
D12*
%TO.C,U1*%
X81280000Y-91440000D02*
X55880000Y-91440000D01*
X55880000Y-91440000D02*
X55880000Y-121920000D01*
X55880000Y-121920000D02*
X81280000Y-121920000D01*
X81280000Y-121920000D02*
X81280000Y-91440000D01*
%TO.C,JP1*%
X57740000Y-66735000D02*
X57740000Y-65405000D01*
X59070000Y-66735000D02*
X57740000Y-66735000D01*
X60340000Y-66735000D02*
X65480000Y-66735000D01*
X60340000Y-66735000D02*
X60340000Y-64075000D01*
X65480000Y-66735000D02*
X65480000Y-64075000D01*
X60340000Y-64075000D02*
X65480000Y-64075000D01*
%TO.C,J1*%
X46295000Y-67250000D02*
X47625000Y-67250000D01*
X46295000Y-68580000D02*
X46295000Y-67250000D01*
X46355000Y-69850000D02*
X48895000Y-69850000D01*
D10*
X46355000Y-90170000D02*
X46355000Y-69850000D01*
X46355000Y-118170000D02*
X46355000Y-95250000D01*
D12*
X46355000Y-118170000D02*
X51495000Y-118170000D01*
X48895000Y-67250000D02*
X51495000Y-67250000D01*
X48895000Y-69850000D02*
X48895000Y-67250000D01*
X51495000Y-67250000D02*
X51495000Y-118170000D01*
D10*
X44450000Y-63500000D02*
X53340000Y-63500000D01*
X53340000Y-63500000D02*
X53340000Y-121920000D01*
X53340000Y-121920000D02*
X44450000Y-121920000D01*
X44450000Y-121920000D02*
X44450000Y-63500000D01*
X43815000Y-68580000D02*
X42545000Y-69215000D01*
X42545000Y-67945000D01*
X43815000Y-68580000D01*
G36*
X43815000Y-68580000D02*
G01*
X42545000Y-69215000D01*
X42545000Y-67945000D01*
X43815000Y-68580000D01*
G37*
D12*
%TO.C,J2*%
X54765000Y-43350000D02*
X54765000Y-58050000D01*
X45565000Y-43350000D02*
X54765000Y-43350000D01*
X45565000Y-52150000D02*
X45565000Y-43350000D01*
X54965000Y-57200000D02*
X54965000Y-58250000D01*
X54765000Y-58050000D02*
X52165000Y-58050000D01*
X48265000Y-58050000D02*
X45565000Y-58050000D01*
X45565000Y-58050000D02*
X45565000Y-56150000D01*
X53915000Y-58250000D02*
X54965000Y-58250000D01*
%TO.C,D1*%
X96180000Y-124426000D02*
X96180000Y-124270000D01*
X96180000Y-122110000D02*
X96180000Y-121954000D01*
X92947666Y-124268608D02*
G75*
G03*
X96179999Y-124425515I1672334J1078608D01*
G01*
X93578871Y-124269836D02*
G75*
G03*
X95660960Y-124269999I1041129J1079836D01*
G01*
X95660960Y-122110001D02*
G75*
G03*
X93578871Y-122110164I-1040960J-1079999D01*
G01*
X96179999Y-121954485D02*
G75*
G03*
X92947666Y-122111392I-1559999J-1235515D01*
G01*
%TO.C,R1*%
X86130000Y-118745000D02*
X86900000Y-118745000D01*
X86900000Y-117375000D02*
X86900000Y-120115000D01*
X86900000Y-120115000D02*
X93440000Y-120115000D01*
X93440000Y-117375000D02*
X86900000Y-117375000D01*
X93440000Y-120115000D02*
X93440000Y-117375000D01*
X94210000Y-118745000D02*
X93440000Y-118745000D01*
%TO.C,G\u002A\u002A\u002A*%
G36*
X64634302Y-75956915D02*
G01*
X64637887Y-75993425D01*
X64640581Y-76048445D01*
X64642116Y-76117207D01*
X64642369Y-76161080D01*
X64642369Y-76378473D01*
X64530165Y-76378473D01*
X64530165Y-75961218D01*
X64573995Y-75952452D01*
X64608383Y-75946288D01*
X64629981Y-75943686D01*
X64630096Y-75943686D01*
X64634302Y-75956915D01*
G37*
G36*
X64629237Y-75785669D02*
G01*
X64652633Y-75815218D01*
X64656394Y-75840299D01*
X64644969Y-75881607D01*
X64615543Y-75906963D01*
X64575385Y-75912585D01*
X64540684Y-75900486D01*
X64522210Y-75875713D01*
X64516566Y-75838995D01*
X64524712Y-75803802D01*
X64532970Y-75792212D01*
X64559197Y-75779252D01*
X64586267Y-75775381D01*
X64629237Y-75785669D01*
G37*
G36*
X64537909Y-72737014D02*
G01*
X64576367Y-72776139D01*
X64593870Y-72818709D01*
X64594127Y-72874512D01*
X64572936Y-72922212D01*
X64536042Y-72958404D01*
X64489192Y-72979685D01*
X64438132Y-72982650D01*
X64388608Y-72963894D01*
X64371488Y-72950458D01*
X64334629Y-72900189D01*
X64323054Y-72845223D01*
X64336516Y-72791459D01*
X64374767Y-72744799D01*
X64380330Y-72740464D01*
X64432821Y-72716586D01*
X64487704Y-72716299D01*
X64537909Y-72737014D01*
G37*
G36*
X64572550Y-73378613D02*
G01*
X64572871Y-73485435D01*
X64573791Y-73568172D01*
X64575581Y-73630791D01*
X64578511Y-73677254D01*
X64582854Y-73711528D01*
X64588879Y-73737578D01*
X64596858Y-73759367D01*
X64598902Y-73763981D01*
X64624947Y-73821328D01*
X64550820Y-73865666D01*
X64509747Y-73889078D01*
X64477866Y-73905146D01*
X64463977Y-73910003D01*
X64447017Y-73900507D01*
X64421502Y-73877097D01*
X64416219Y-73871433D01*
X64395637Y-73847297D01*
X64379647Y-73823137D01*
X64367672Y-73795151D01*
X64359137Y-73759532D01*
X64353465Y-73712477D01*
X64350079Y-73650181D01*
X64348404Y-73568840D01*
X64347863Y-73464650D01*
X64347835Y-73419974D01*
X64347835Y-73085545D01*
X64379978Y-73077478D01*
X64411798Y-73071336D01*
X64458947Y-73064238D01*
X64492181Y-73060001D01*
X64572242Y-73050591D01*
X64572550Y-73378613D01*
G37*
G36*
X67013914Y-75956025D02*
G01*
X67071322Y-75991205D01*
X67112563Y-76046516D01*
X67135218Y-76119192D01*
X67138890Y-76168092D01*
X67128196Y-76248110D01*
X67098495Y-76312912D01*
X67053356Y-76359950D01*
X66996349Y-76386677D01*
X66931045Y-76390545D01*
X66861013Y-76369007D01*
X66858859Y-76367933D01*
X66804031Y-76325489D01*
X66769593Y-76264055D01*
X66755857Y-76184234D01*
X66755601Y-76169807D01*
X66755821Y-76168092D01*
X66886433Y-76168092D01*
X66891242Y-76232785D01*
X66906477Y-76273377D01*
X66933353Y-76292263D01*
X66950387Y-76294321D01*
X66982625Y-76283961D01*
X66998983Y-76258344D01*
X67008238Y-76219603D01*
X67012609Y-76172965D01*
X67012661Y-76168092D01*
X67006419Y-76101696D01*
X66987874Y-76059578D01*
X66957301Y-76042295D01*
X66950387Y-76041864D01*
X66917610Y-76051355D01*
X66897044Y-76081427D01*
X66887476Y-76134471D01*
X66886433Y-76168092D01*
X66755821Y-76168092D01*
X66766062Y-76088188D01*
X66795646Y-76022043D01*
X66841899Y-75974334D01*
X66902370Y-75948025D01*
X66942753Y-75943738D01*
X67013914Y-75956025D01*
G37*
G36*
X62912652Y-75950889D02*
G01*
X62936983Y-75957283D01*
X62985830Y-75981968D01*
X63015234Y-76019969D01*
X63028188Y-76076182D01*
X63029447Y-76108549D01*
X63018562Y-76199746D01*
X62987539Y-76276553D01*
X62938830Y-76336123D01*
X62874888Y-76375611D01*
X62798163Y-76392168D01*
X62784921Y-76392499D01*
X62734880Y-76387387D01*
X62695701Y-76368097D01*
X62675957Y-76351957D01*
X62649338Y-76325190D01*
X62636007Y-76299338D01*
X62631726Y-76263119D01*
X62631698Y-76234207D01*
X62632031Y-76231841D01*
X62762965Y-76231841D01*
X62766748Y-76280831D01*
X62779849Y-76304935D01*
X62804893Y-76306509D01*
X62832793Y-76294481D01*
X62857562Y-76268627D01*
X62879480Y-76224226D01*
X62895163Y-76170780D01*
X62901226Y-76117788D01*
X62900702Y-76103870D01*
X62895440Y-76067984D01*
X62883827Y-76052276D01*
X62861143Y-76048876D01*
X62835701Y-76055037D01*
X62813845Y-76077460D01*
X62794522Y-76111456D01*
X62774850Y-76162988D01*
X62763852Y-76216340D01*
X62762965Y-76231841D01*
X62632031Y-76231841D01*
X62643578Y-76149687D01*
X62674247Y-76075724D01*
X62720097Y-76015589D01*
X62777520Y-75972556D01*
X62842908Y-75949899D01*
X62912652Y-75950889D01*
G37*
G36*
X64877402Y-75950878D02*
G01*
X64886230Y-75961246D01*
X64898162Y-75974300D01*
X64915524Y-75973883D01*
X64946273Y-75960775D01*
X64999048Y-75947127D01*
X65051548Y-75952411D01*
X65094794Y-75974551D01*
X65115171Y-75999788D01*
X65123861Y-76031793D01*
X65130092Y-76084757D01*
X65133107Y-76151641D01*
X65133266Y-76168092D01*
X65134749Y-76228305D01*
X65138378Y-76279107D01*
X65143512Y-76313105D01*
X65146564Y-76321690D01*
X65148772Y-76340525D01*
X65128149Y-76360739D01*
X65117960Y-76367272D01*
X65087345Y-76385495D01*
X65070295Y-76389764D01*
X65055697Y-76379466D01*
X65040760Y-76363009D01*
X65027644Y-76343287D01*
X65018844Y-76314627D01*
X65013221Y-76270953D01*
X65009638Y-76206193D01*
X65009221Y-76194704D01*
X65006477Y-76130855D01*
X65002864Y-76090057D01*
X64997287Y-76067308D01*
X64988651Y-76057611D01*
X64978811Y-76055889D01*
X64949397Y-76057479D01*
X64929629Y-76065334D01*
X64917600Y-76084084D01*
X64911402Y-76118359D01*
X64909129Y-76172788D01*
X64908851Y-76225695D01*
X64908851Y-76378473D01*
X64784064Y-76378473D01*
X64775610Y-75971549D01*
X64824092Y-75955573D01*
X64858505Y-75946762D01*
X64877402Y-75950878D01*
G37*
G36*
X65382317Y-75950878D02*
G01*
X65391145Y-75961246D01*
X65403077Y-75974300D01*
X65420439Y-75973883D01*
X65451187Y-75960775D01*
X65503962Y-75947127D01*
X65556462Y-75952411D01*
X65599708Y-75974551D01*
X65620085Y-75999788D01*
X65628775Y-76031793D01*
X65635006Y-76084757D01*
X65638021Y-76151641D01*
X65638180Y-76168092D01*
X65639664Y-76228305D01*
X65643292Y-76279107D01*
X65648426Y-76313105D01*
X65651479Y-76321690D01*
X65653686Y-76340525D01*
X65633064Y-76360739D01*
X65622874Y-76367272D01*
X65592259Y-76385495D01*
X65575209Y-76389764D01*
X65560611Y-76379466D01*
X65545674Y-76363009D01*
X65532558Y-76343287D01*
X65523758Y-76314627D01*
X65518136Y-76270953D01*
X65514553Y-76206193D01*
X65514135Y-76194704D01*
X65511391Y-76130855D01*
X65507778Y-76090057D01*
X65502201Y-76067308D01*
X65493566Y-76057611D01*
X65483725Y-76055889D01*
X65454311Y-76057479D01*
X65434543Y-76065334D01*
X65422514Y-76084084D01*
X65416317Y-76118359D01*
X65414043Y-76172788D01*
X65413766Y-76225695D01*
X65413766Y-76378473D01*
X65288978Y-76378473D01*
X65280524Y-75971549D01*
X65329007Y-75955573D01*
X65363420Y-75946762D01*
X65382317Y-75950878D01*
G37*
G36*
X67405372Y-75886023D02*
G01*
X67406919Y-75922640D01*
X67415422Y-75939170D01*
X67436675Y-75943552D01*
X67447449Y-75943686D01*
X67480252Y-75949544D01*
X67489525Y-75965646D01*
X67480217Y-76004526D01*
X67457095Y-76033007D01*
X67432403Y-76041864D01*
X67419284Y-76043723D01*
X67411313Y-76052820D01*
X67407511Y-76074435D01*
X67406900Y-76113846D01*
X67408352Y-76171599D01*
X67412385Y-76301334D01*
X67449523Y-76298889D01*
X67478437Y-76302737D01*
X67491805Y-76324726D01*
X67493867Y-76333953D01*
X67497396Y-76363366D01*
X67495607Y-76376996D01*
X67479662Y-76381418D01*
X67445063Y-76386553D01*
X67420753Y-76389199D01*
X67375921Y-76391316D01*
X67346733Y-76384584D01*
X67321331Y-76365693D01*
X67315254Y-76359757D01*
X67298748Y-76341441D01*
X67288219Y-76322010D01*
X67282333Y-76294920D01*
X67279754Y-76253629D01*
X67279147Y-76191594D01*
X67279144Y-76182755D01*
X67278453Y-76117182D01*
X67275924Y-76075031D01*
X67270867Y-76051695D01*
X67262596Y-76042568D01*
X67258106Y-76041864D01*
X67241481Y-76029454D01*
X67237068Y-75999347D01*
X67243647Y-75964949D01*
X67258106Y-75948758D01*
X67273766Y-75929889D01*
X67279144Y-75900937D01*
X67281130Y-75872205D01*
X67291697Y-75855680D01*
X67317759Y-75845480D01*
X67352884Y-75838208D01*
X67405372Y-75828361D01*
X67405372Y-75886023D01*
G37*
G36*
X66527466Y-75950488D02*
G01*
X66571333Y-75964017D01*
X66602445Y-75979050D01*
X66612152Y-75993511D01*
X66605557Y-76015994D01*
X66604113Y-76019200D01*
X66592211Y-76039143D01*
X66574527Y-76049159D01*
X66542760Y-76052075D01*
X66509420Y-76051464D01*
X66456961Y-76053598D01*
X66431048Y-76063078D01*
X66431732Y-76078051D01*
X66459060Y-76096663D01*
X66507747Y-76115396D01*
X66555007Y-76134130D01*
X66593817Y-76156084D01*
X66609431Y-76169545D01*
X66631703Y-76216839D01*
X66630272Y-76270707D01*
X66605806Y-76323834D01*
X66593984Y-76338636D01*
X66567143Y-76364795D01*
X66539375Y-76379064D01*
X66499921Y-76385737D01*
X66471262Y-76387629D01*
X66417225Y-76387028D01*
X66367436Y-76380931D01*
X66343955Y-76374650D01*
X66304609Y-76357122D01*
X66287891Y-76339867D01*
X66289447Y-76315498D01*
X66297038Y-76295112D01*
X66311348Y-76267258D01*
X66326559Y-76261447D01*
X66344178Y-76268805D01*
X66396305Y-76289665D01*
X66445683Y-76297474D01*
X66483046Y-76291016D01*
X66488483Y-76287746D01*
X66505953Y-76264229D01*
X66498205Y-76241468D01*
X66467911Y-76223205D01*
X66436855Y-76215432D01*
X66373466Y-76195501D01*
X66326724Y-76160819D01*
X66300993Y-76115348D01*
X66297366Y-76088784D01*
X66301486Y-76047063D01*
X66311435Y-76013747D01*
X66311807Y-76013036D01*
X66345626Y-75977370D01*
X66397803Y-75954120D01*
X66460897Y-75944691D01*
X66527466Y-75950488D01*
G37*
G36*
X64027917Y-73056852D02*
G01*
X64109229Y-73088993D01*
X64154568Y-73121055D01*
X64167155Y-73134970D01*
X64167860Y-73150319D01*
X64154826Y-73174591D01*
X64133830Y-73204670D01*
X64106803Y-73240742D01*
X64085335Y-73266623D01*
X64077170Y-73274432D01*
X64058894Y-73272670D01*
X64025757Y-73259967D01*
X64005747Y-73250090D01*
X63946914Y-73227621D01*
X63899335Y-73229341D01*
X63862176Y-73255912D01*
X63834602Y-73307997D01*
X63815780Y-73386256D01*
X63813311Y-73402779D01*
X63806514Y-73493584D01*
X63811258Y-73576486D01*
X63826625Y-73645944D01*
X63851694Y-73696418D01*
X63864336Y-73710141D01*
X63908214Y-73735828D01*
X63956963Y-73738090D01*
X64015009Y-73716819D01*
X64034734Y-73705928D01*
X64071814Y-73686715D01*
X64099234Y-73677075D01*
X64107267Y-73677263D01*
X64121458Y-73692193D01*
X64144572Y-73722131D01*
X64157980Y-73740959D01*
X64180026Y-73778289D01*
X64184467Y-73806754D01*
X64168871Y-73831106D01*
X64130810Y-73856093D01*
X64088365Y-73877034D01*
X64013504Y-73900749D01*
X63928145Y-73910291D01*
X63843430Y-73905423D01*
X63770500Y-73885912D01*
X63765781Y-73883836D01*
X63688431Y-73833772D01*
X63628925Y-73762811D01*
X63587917Y-73672222D01*
X63566061Y-73563274D01*
X63562413Y-73489241D01*
X63572122Y-73367069D01*
X63601523Y-73264445D01*
X63651027Y-73180544D01*
X63721045Y-73114541D01*
X63761565Y-73089245D01*
X63847300Y-73056428D01*
X63938345Y-73045813D01*
X64027917Y-73056852D01*
G37*
G36*
X66026303Y-75952989D02*
G01*
X66060653Y-75961860D01*
X66088063Y-75980315D01*
X66092889Y-75984721D01*
X66128958Y-76035679D01*
X66151212Y-76104044D01*
X66157034Y-76164586D01*
X66157112Y-76210169D01*
X66037896Y-76210169D01*
X65979600Y-76210804D01*
X65943961Y-76213470D01*
X65925601Y-76219306D01*
X65919139Y-76229450D01*
X65918680Y-76235414D01*
X65927560Y-76266526D01*
X65935510Y-76277491D01*
X65964068Y-76290234D01*
X66006820Y-76293690D01*
X66051463Y-76287766D01*
X66076277Y-76278520D01*
X66102384Y-76270504D01*
X66121737Y-76284630D01*
X66124444Y-76288213D01*
X66140794Y-76318981D01*
X66134801Y-76342106D01*
X66104169Y-76363585D01*
X66093522Y-76368863D01*
X66025903Y-76388821D01*
X65954897Y-76389441D01*
X65891475Y-76370923D01*
X65880791Y-76365016D01*
X65831540Y-76319690D01*
X65799234Y-76258437D01*
X65784425Y-76188093D01*
X65787668Y-76115495D01*
X65792931Y-76099112D01*
X65918680Y-76099112D01*
X65931125Y-76107178D01*
X65962215Y-76111663D01*
X65974782Y-76111991D01*
X66009916Y-76109134D01*
X66029455Y-76101997D01*
X66030883Y-76099112D01*
X66020164Y-76061516D01*
X65989653Y-76043233D01*
X65974782Y-76041864D01*
X65937939Y-76052803D01*
X65920022Y-76083936D01*
X65918680Y-76099112D01*
X65792931Y-76099112D01*
X65809516Y-76047480D01*
X65850473Y-75990935D01*
X65879053Y-75967362D01*
X65908515Y-75955251D01*
X65949961Y-75951004D01*
X65974573Y-75950699D01*
X66026303Y-75952989D01*
G37*
G36*
X68381559Y-74512457D02*
G01*
X68383486Y-74550064D01*
X68385094Y-74608060D01*
X68386294Y-74682617D01*
X68386999Y-74769903D01*
X68387150Y-74836130D01*
X68387480Y-74948362D01*
X68388601Y-75036146D01*
X68390714Y-75103078D01*
X68394021Y-75152755D01*
X68398720Y-75188772D01*
X68405014Y-75214726D01*
X68408823Y-75225059D01*
X68419856Y-75255745D01*
X68419764Y-75277956D01*
X68404810Y-75297146D01*
X68371259Y-75318770D01*
X68329376Y-75341041D01*
X68278615Y-75367344D01*
X68246896Y-75333581D01*
X68215178Y-75299818D01*
X68158419Y-75328775D01*
X68089202Y-75352965D01*
X68010092Y-75363557D01*
X67933466Y-75359630D01*
X67890341Y-75348668D01*
X67843284Y-75324402D01*
X67798521Y-75291100D01*
X67792164Y-75285063D01*
X67748995Y-75241912D01*
X67748995Y-74534381D01*
X67840160Y-74517352D01*
X67889560Y-74509447D01*
X67929027Y-74505527D01*
X67948857Y-74506269D01*
X67954828Y-74515203D01*
X67959391Y-74539193D01*
X67962688Y-74580860D01*
X67964859Y-74642827D01*
X67966045Y-74727713D01*
X67966388Y-74832434D01*
X67966893Y-74946955D01*
X67968475Y-75035484D01*
X67971235Y-75100062D01*
X67975277Y-75142731D01*
X67980702Y-75165531D01*
X67983219Y-75169484D01*
X68014529Y-75183756D01*
X68059180Y-75185359D01*
X68105948Y-75175169D01*
X68139814Y-75157246D01*
X68176769Y-75128177D01*
X68176769Y-74543394D01*
X68274210Y-74521232D01*
X68323240Y-74510311D01*
X68360706Y-74502396D01*
X68379011Y-74499088D01*
X68379400Y-74499070D01*
X68381559Y-74512457D01*
G37*
G36*
X66940798Y-73049016D02*
G01*
X67009702Y-73071657D01*
X67072476Y-73103669D01*
X67083985Y-73111407D01*
X67125404Y-73140900D01*
X67080562Y-73199361D01*
X67052963Y-73235065D01*
X67031671Y-73262115D01*
X67024750Y-73270587D01*
X67006581Y-73272205D01*
X66972447Y-73260579D01*
X66952617Y-73250904D01*
X66892679Y-73228474D01*
X66843719Y-73231391D01*
X66804079Y-73259962D01*
X66788989Y-73281024D01*
X66767580Y-73334280D01*
X66753873Y-73406615D01*
X66748847Y-73489874D01*
X66753482Y-73575900D01*
X66753514Y-73576172D01*
X66762731Y-73631765D01*
X66777470Y-73669976D01*
X66801981Y-73701446D01*
X66804630Y-73704130D01*
X66835997Y-73730784D01*
X66864922Y-73739571D01*
X66897139Y-73736803D01*
X66944615Y-73722477D01*
X66987770Y-73699497D01*
X66988615Y-73698879D01*
X67019950Y-73679780D01*
X67044826Y-73678335D01*
X67069710Y-73696873D01*
X67101069Y-73737725D01*
X67102633Y-73739977D01*
X67124797Y-73776144D01*
X67130674Y-73803062D01*
X67117731Y-73825897D01*
X67083437Y-73849815D01*
X67036805Y-73874259D01*
X66960413Y-73900241D01*
X66873441Y-73910781D01*
X66786947Y-73905553D01*
X66711988Y-73884232D01*
X66711115Y-73883836D01*
X66633833Y-73833735D01*
X66573665Y-73762600D01*
X66531601Y-73672346D01*
X66508628Y-73564893D01*
X66504417Y-73483066D01*
X66515742Y-73361522D01*
X66548251Y-73258009D01*
X66602159Y-73171927D01*
X66625287Y-73146637D01*
X66691555Y-73096551D01*
X66772026Y-73059894D01*
X66854902Y-73041599D01*
X66879267Y-73040428D01*
X66940798Y-73049016D01*
G37*
G36*
X67329178Y-74516759D02*
G01*
X67407442Y-74550908D01*
X67474988Y-74604092D01*
X67527168Y-74675879D01*
X67539748Y-74702438D01*
X67551603Y-74743064D01*
X67562080Y-74800878D01*
X67569316Y-74865018D01*
X67570429Y-74881262D01*
X67577568Y-75003984D01*
X67107146Y-75003984D01*
X67114816Y-75061174D01*
X67125569Y-75104696D01*
X67142419Y-75139741D01*
X67146410Y-75144799D01*
X67195231Y-75179113D01*
X67257801Y-75194428D01*
X67327135Y-75190638D01*
X67396247Y-75167639D01*
X67428295Y-75149067D01*
X67462507Y-75128470D01*
X67482226Y-75124781D01*
X67491852Y-75132736D01*
X67525359Y-75183986D01*
X67545331Y-75217352D01*
X67553676Y-75238364D01*
X67552304Y-75252553D01*
X67543123Y-75265450D01*
X67539175Y-75269846D01*
X67488688Y-75308075D01*
X67418901Y-75337317D01*
X67337482Y-75356314D01*
X67252097Y-75363805D01*
X67170414Y-75358531D01*
X67104835Y-75341206D01*
X67017257Y-75291660D01*
X66948362Y-75221647D01*
X66898870Y-75132242D01*
X66869501Y-75024523D01*
X66863933Y-74980826D01*
X66864117Y-74879439D01*
X66871793Y-74835679D01*
X67107169Y-74835679D01*
X67345504Y-74835679D01*
X67334697Y-74776580D01*
X67314038Y-74721124D01*
X67279962Y-74685878D01*
X67238320Y-74670670D01*
X67194964Y-74675326D01*
X67155746Y-74699672D01*
X67126518Y-74743534D01*
X67115543Y-74783084D01*
X67107169Y-74835679D01*
X66871793Y-74835679D01*
X66881661Y-74779424D01*
X66914452Y-74690085D01*
X66939736Y-74646668D01*
X67001884Y-74579160D01*
X67076549Y-74532847D01*
X67159085Y-74507297D01*
X67244843Y-74502078D01*
X67329178Y-74516759D01*
G37*
G36*
X64261949Y-75806291D02*
G01*
X64340822Y-75810445D01*
X64364341Y-76062902D01*
X64374005Y-76165108D01*
X64381202Y-76242698D01*
X64385554Y-76299027D01*
X64386684Y-76337452D01*
X64384212Y-76361329D01*
X64377763Y-76374014D01*
X64366957Y-76378864D01*
X64351418Y-76379234D01*
X64330767Y-76378482D01*
X64328825Y-76378473D01*
X64267739Y-76378473D01*
X64258798Y-76283802D01*
X64253956Y-76221726D01*
X64250669Y-76158944D01*
X64249757Y-76120172D01*
X64247851Y-76082949D01*
X64243078Y-76062694D01*
X64239219Y-76061653D01*
X64231363Y-76078681D01*
X64218095Y-76116806D01*
X64201388Y-76170064D01*
X64186242Y-76221776D01*
X64143703Y-76371461D01*
X64087512Y-76375625D01*
X64031322Y-76379790D01*
X63990163Y-76224102D01*
X63970127Y-76153270D01*
X63954498Y-76109949D01*
X63942873Y-76094016D01*
X63934852Y-76105346D01*
X63930032Y-76143815D01*
X63928059Y-76204909D01*
X63926056Y-76259525D01*
X63921938Y-76309528D01*
X63918307Y-76334644D01*
X63910493Y-76362048D01*
X63895748Y-76374744D01*
X63865147Y-76378332D01*
X63848449Y-76378473D01*
X63787356Y-76378473D01*
X63794401Y-76318865D01*
X63798045Y-76285464D01*
X63803375Y-76233365D01*
X63809854Y-76168177D01*
X63816944Y-76095508D01*
X63824107Y-76020966D01*
X63830805Y-75950161D01*
X63836501Y-75888700D01*
X63840658Y-75842192D01*
X63842736Y-75816246D01*
X63842875Y-75813251D01*
X63855576Y-75807882D01*
X63888416Y-75805530D01*
X63923164Y-75806238D01*
X64003407Y-75810445D01*
X64046744Y-75976991D01*
X64090081Y-76143538D01*
X64136579Y-75972838D01*
X64183076Y-75802138D01*
X64261949Y-75806291D01*
G37*
G36*
X67885339Y-75957616D02*
G01*
X67927599Y-75982815D01*
X67941472Y-75999934D01*
X67949872Y-76021752D01*
X67953917Y-76054911D01*
X67954724Y-76106053D01*
X67954250Y-76141152D01*
X67954794Y-76215678D01*
X67959916Y-76266577D01*
X67970070Y-76297968D01*
X67972005Y-76301171D01*
X67983662Y-76324719D01*
X67979203Y-76345422D01*
X67961716Y-76369643D01*
X67939716Y-76394050D01*
X67923123Y-76398546D01*
X67900889Y-76385936D01*
X67900012Y-76385318D01*
X67868475Y-76371092D01*
X67841326Y-76377849D01*
X67810718Y-76386860D01*
X67766502Y-76392023D01*
X67749279Y-76392499D01*
X67686182Y-76382534D01*
X67642950Y-76352812D01*
X67619850Y-76303591D01*
X67615753Y-76262540D01*
X67618132Y-76249933D01*
X67741982Y-76249933D01*
X67752065Y-76281783D01*
X67775641Y-76304277D01*
X67791071Y-76308346D01*
X67813709Y-76299351D01*
X67823329Y-76291516D01*
X67836995Y-76265732D01*
X67840204Y-76233905D01*
X67833548Y-76207042D01*
X67818200Y-76196143D01*
X67780816Y-76204831D01*
X67752050Y-76226082D01*
X67741982Y-76249933D01*
X67618132Y-76249933D01*
X67627591Y-76199812D01*
X67661804Y-76152709D01*
X67716441Y-76122889D01*
X67789550Y-76112009D01*
X67792959Y-76111991D01*
X67825717Y-76109633D01*
X67837899Y-76099131D01*
X67837629Y-76080577D01*
X67822760Y-76052318D01*
X67789623Y-76044850D01*
X67738890Y-76058273D01*
X67725942Y-76063810D01*
X67691046Y-76078459D01*
X67671660Y-76080795D01*
X67657953Y-76070538D01*
X67650960Y-76061662D01*
X67633385Y-76030409D01*
X67637242Y-76006170D01*
X67664836Y-75984113D01*
X67694988Y-75969365D01*
X67760136Y-75950019D01*
X67826428Y-75946267D01*
X67885339Y-75957616D01*
G37*
G36*
X66187047Y-73072913D02*
G01*
X66253292Y-73115022D01*
X66269315Y-73130877D01*
X66281343Y-73144784D01*
X66290370Y-73159587D01*
X66296955Y-73179455D01*
X66301658Y-73208556D01*
X66305036Y-73251056D01*
X66307648Y-73311124D01*
X66310054Y-73392927D01*
X66311391Y-73444749D01*
X66314311Y-73544274D01*
X66317604Y-73619854D01*
X66321674Y-73675597D01*
X66326924Y-73715610D01*
X66333759Y-73743999D01*
X66342582Y-73764872D01*
X66342948Y-73765546D01*
X66359083Y-73796710D01*
X66367247Y-73815720D01*
X66367493Y-73817112D01*
X66356283Y-73827388D01*
X66327961Y-73845744D01*
X66290486Y-73867681D01*
X66251818Y-73888699D01*
X66219916Y-73904299D01*
X66203161Y-73910003D01*
X66184046Y-73900489D01*
X66167990Y-73885458D01*
X66143095Y-73854520D01*
X66124317Y-73823099D01*
X66110641Y-73786491D01*
X66101053Y-73739993D01*
X66094540Y-73678901D01*
X66090088Y-73598511D01*
X66087133Y-73510279D01*
X66079972Y-73257822D01*
X66030883Y-73254000D01*
X65973163Y-73261494D01*
X65936497Y-73278165D01*
X65891201Y-73306151D01*
X65887409Y-73597558D01*
X65883616Y-73888965D01*
X65774707Y-73893065D01*
X65714118Y-73893810D01*
X65677451Y-73890171D01*
X65660853Y-73881681D01*
X65659485Y-73879040D01*
X65657677Y-73860691D01*
X65655775Y-73818124D01*
X65653878Y-73755173D01*
X65652086Y-73675670D01*
X65650496Y-73583448D01*
X65649208Y-73482339D01*
X65649179Y-73479574D01*
X65645185Y-73098235D01*
X65723244Y-73076344D01*
X65777670Y-73061894D01*
X65811604Y-73056626D01*
X65831370Y-73061483D01*
X65843288Y-73077410D01*
X65850221Y-73095287D01*
X65864456Y-73136120D01*
X65942081Y-73095287D01*
X66027976Y-73062668D01*
X66110787Y-73055336D01*
X66187047Y-73072913D01*
G37*
G36*
X68291982Y-75944371D02*
G01*
X68346915Y-75969851D01*
X68381123Y-76012031D01*
X68397419Y-76074349D01*
X68399124Y-76117809D01*
X68388835Y-76149210D01*
X68364204Y-76180975D01*
X68317296Y-76216475D01*
X68261419Y-76233841D01*
X68206214Y-76231007D01*
X68180155Y-76220396D01*
X68133869Y-76180680D01*
X68109305Y-76132067D01*
X68107158Y-76109448D01*
X68146482Y-76109448D01*
X68164553Y-76154646D01*
X68187094Y-76178611D01*
X68213385Y-76189933D01*
X68248013Y-76195349D01*
X68280594Y-76194546D01*
X68300742Y-76187208D01*
X68302998Y-76182118D01*
X68293984Y-76168484D01*
X68291224Y-76168092D01*
X68277463Y-76156820D01*
X68260843Y-76129697D01*
X68260758Y-76129523D01*
X68242066Y-76090953D01*
X68233962Y-76132234D01*
X68223814Y-76165667D01*
X68212971Y-76172994D01*
X68203092Y-76156057D01*
X68195840Y-76116702D01*
X68193632Y-76087446D01*
X68191746Y-76047848D01*
X68232871Y-76047848D01*
X68244669Y-76066056D01*
X68262091Y-76069915D01*
X68283466Y-76063214D01*
X68285473Y-76052383D01*
X68270381Y-76034919D01*
X68249173Y-76030620D01*
X68234287Y-76040559D01*
X68232871Y-76047848D01*
X68191746Y-76047848D01*
X68189456Y-75999788D01*
X68245734Y-75999788D01*
X68292207Y-76007286D01*
X68318579Y-76027428D01*
X68321893Y-76056682D01*
X68311071Y-76077849D01*
X68301083Y-76104921D01*
X68303701Y-76132776D01*
X68315552Y-76152821D01*
X68333264Y-76156463D01*
X68340263Y-76152240D01*
X68357012Y-76122055D01*
X68358302Y-76079769D01*
X68345257Y-76035905D01*
X68324674Y-76006163D01*
X68283615Y-75977718D01*
X68238747Y-75974455D01*
X68199166Y-75987695D01*
X68164340Y-76017248D01*
X68146595Y-76060741D01*
X68146482Y-76109448D01*
X68107158Y-76109448D01*
X68104344Y-76079791D01*
X68116866Y-76029083D01*
X68144750Y-75985176D01*
X68185878Y-75953302D01*
X68238130Y-75938693D01*
X68291982Y-75944371D01*
G37*
G36*
X63452474Y-75781465D02*
G01*
X63492380Y-75790179D01*
X63514206Y-75804859D01*
X63513524Y-75826351D01*
X63494038Y-75849499D01*
X63463681Y-75867464D01*
X63434504Y-75873559D01*
X63396482Y-75883759D01*
X63380576Y-75900688D01*
X63367489Y-75934439D01*
X63376139Y-75952047D01*
X63409034Y-75957649D01*
X63415146Y-75957711D01*
X63449454Y-75959073D01*
X63461649Y-75967628D01*
X63455113Y-75990083D01*
X63443325Y-76013566D01*
X63412427Y-76048823D01*
X63384009Y-76058452D01*
X63368813Y-76061130D01*
X63357264Y-76067960D01*
X63347751Y-76083238D01*
X63338661Y-76111258D01*
X63328384Y-76156317D01*
X63315308Y-76222710D01*
X63308027Y-76260974D01*
X63292671Y-76336487D01*
X63276674Y-76405921D01*
X63261680Y-76462699D01*
X63249337Y-76500248D01*
X63246582Y-76506418D01*
X63217397Y-76552302D01*
X63177277Y-76600018D01*
X63132201Y-76643997D01*
X63088152Y-76678671D01*
X63051109Y-76698472D01*
X63037517Y-76701058D01*
X63026785Y-76689964D01*
X63010473Y-76662928D01*
X63008770Y-76659678D01*
X62990830Y-76618356D01*
X62990478Y-76595776D01*
X63007675Y-76588855D01*
X63007921Y-76588854D01*
X63036094Y-76578118D01*
X63071285Y-76550875D01*
X63105920Y-76514574D01*
X63132422Y-76476661D01*
X63140595Y-76458418D01*
X63147184Y-76433649D01*
X63157627Y-76389298D01*
X63170567Y-76331691D01*
X63184648Y-76267152D01*
X63198515Y-76202005D01*
X63210811Y-76142577D01*
X63220182Y-76095190D01*
X63225269Y-76066171D01*
X63225803Y-76060973D01*
X63213738Y-76057182D01*
X63189851Y-76055889D01*
X63165441Y-76052602D01*
X63157210Y-76037076D01*
X63158294Y-76010368D01*
X63166067Y-75977106D01*
X63186161Y-75961715D01*
X63202607Y-75957773D01*
X63233061Y-75945597D01*
X63253181Y-75917150D01*
X63260608Y-75897971D01*
X63282195Y-75846570D01*
X63308222Y-75814680D01*
X63346374Y-75793945D01*
X63361080Y-75788735D01*
X63405271Y-75780622D01*
X63452474Y-75781465D01*
G37*
G36*
X65217300Y-73064710D02*
G01*
X65302703Y-73095568D01*
X65370118Y-73147633D01*
X65419822Y-73221202D01*
X65452090Y-73316574D01*
X65467198Y-73434047D01*
X65467328Y-73436646D01*
X65473298Y-73559368D01*
X65007029Y-73559368D01*
X65007029Y-73595128D01*
X65018875Y-73654522D01*
X65051531Y-73699851D01*
X65100675Y-73729512D01*
X65161986Y-73741897D01*
X65231142Y-73735402D01*
X65303820Y-73708422D01*
X65307228Y-73706635D01*
X65344800Y-73687059D01*
X65370679Y-73674332D01*
X65377580Y-73671571D01*
X65390835Y-73683023D01*
X65409706Y-73711222D01*
X65429242Y-73746930D01*
X65444488Y-73780912D01*
X65450492Y-73803929D01*
X65450044Y-73806704D01*
X65431491Y-73825740D01*
X65393070Y-73848566D01*
X65342098Y-73872063D01*
X65285894Y-73893116D01*
X65231777Y-73908607D01*
X65196372Y-73914759D01*
X65139093Y-73916352D01*
X65080389Y-73911884D01*
X65063761Y-73909111D01*
X64984374Y-73881817D01*
X64908959Y-73836002D01*
X64848090Y-73778476D01*
X64835926Y-73762404D01*
X64795075Y-73683239D01*
X64768412Y-73587952D01*
X64758013Y-73485721D01*
X64760189Y-73427535D01*
X64773741Y-73355303D01*
X65007029Y-73355303D01*
X65008027Y-73372526D01*
X65014697Y-73383081D01*
X65032558Y-73388600D01*
X65067126Y-73390717D01*
X65123918Y-73391063D01*
X65127881Y-73391063D01*
X65185980Y-73390749D01*
X65221146Y-73388849D01*
X65238496Y-73383927D01*
X65243145Y-73374545D01*
X65240275Y-73359506D01*
X65233256Y-73323071D01*
X65231627Y-73303404D01*
X65218843Y-73266927D01*
X65186157Y-73239535D01*
X65141128Y-73224611D01*
X65091318Y-73225536D01*
X65070772Y-73231471D01*
X65044975Y-73253358D01*
X65022379Y-73292028D01*
X65008726Y-73336325D01*
X65007029Y-73355303D01*
X64773741Y-73355303D01*
X64781318Y-73314914D01*
X64821229Y-73220565D01*
X64878517Y-73145967D01*
X64951778Y-73092602D01*
X65039608Y-73061951D01*
X65113633Y-73054762D01*
X65217300Y-73064710D01*
G37*
G36*
X67704670Y-73066525D02*
G01*
X67787523Y-73102394D01*
X67854994Y-73161539D01*
X67898295Y-73227174D01*
X67912719Y-73265553D01*
X67926542Y-73319691D01*
X67938451Y-73381443D01*
X67947136Y-73442662D01*
X67951283Y-73495199D01*
X67949581Y-73530908D01*
X67948071Y-73536296D01*
X67941695Y-73544923D01*
X67927545Y-73551125D01*
X67901611Y-73555286D01*
X67859885Y-73557791D01*
X67798359Y-73559023D01*
X67713023Y-73559367D01*
X67707359Y-73559368D01*
X67618097Y-73559477D01*
X67553609Y-73560727D01*
X67510620Y-73564503D01*
X67485853Y-73572192D01*
X67476032Y-73585177D01*
X67477881Y-73604846D01*
X67488126Y-73632582D01*
X67495056Y-73649150D01*
X67527433Y-73700720D01*
X67574361Y-73730773D01*
X67639616Y-73741585D01*
X67648533Y-73741698D01*
X67722907Y-73731138D01*
X67785737Y-73704367D01*
X67823801Y-73684948D01*
X67850404Y-73673817D01*
X67858345Y-73672810D01*
X67882221Y-73708720D01*
X67905959Y-73746924D01*
X67925153Y-73779986D01*
X67935395Y-73800472D01*
X67935882Y-73803629D01*
X67824506Y-73869671D01*
X67714394Y-73907834D01*
X67605717Y-73918073D01*
X67536179Y-73909785D01*
X67466168Y-73889388D01*
X67407607Y-73856537D01*
X67350203Y-73805142D01*
X67338730Y-73792942D01*
X67290007Y-73727682D01*
X67258120Y-73653474D01*
X67241599Y-73565114D01*
X67238977Y-73457398D01*
X67239584Y-73441632D01*
X67242837Y-73391063D01*
X67473271Y-73391063D01*
X67717625Y-73391063D01*
X67709954Y-73333873D01*
X67694175Y-73274637D01*
X67664795Y-73239072D01*
X67619905Y-73225351D01*
X67596843Y-73225594D01*
X67543969Y-73241028D01*
X67506565Y-73278877D01*
X67483578Y-73340247D01*
X67482476Y-73345481D01*
X67473271Y-73391063D01*
X67242837Y-73391063D01*
X67243919Y-73374246D01*
X67251329Y-73325094D01*
X67264071Y-73284369D01*
X67284402Y-73242267D01*
X67286279Y-73238810D01*
X67341201Y-73158441D01*
X67406553Y-73102337D01*
X67485818Y-73068497D01*
X67582480Y-73054920D01*
X67607312Y-73054454D01*
X67704670Y-73066525D01*
G37*
G36*
X69097928Y-74517540D02*
G01*
X69168132Y-74550267D01*
X69185628Y-74563520D01*
X69228010Y-74599182D01*
X69273925Y-74564206D01*
X69343706Y-74525620D01*
X69420900Y-74506958D01*
X69498650Y-74508086D01*
X69570101Y-74528874D01*
X69628395Y-74569189D01*
X69630238Y-74571082D01*
X69670475Y-74613045D01*
X69677754Y-74896173D01*
X69680684Y-74996432D01*
X69683904Y-75072764D01*
X69687821Y-75129293D01*
X69692843Y-75170143D01*
X69699377Y-75199437D01*
X69707831Y-75221300D01*
X69710345Y-75226188D01*
X69725500Y-75256983D01*
X69731519Y-75274891D01*
X69731117Y-75276317D01*
X69712962Y-75287913D01*
X69681094Y-75307221D01*
X69643427Y-75329574D01*
X69607876Y-75350305D01*
X69582356Y-75364746D01*
X69574531Y-75368645D01*
X69563097Y-75359488D01*
X69541634Y-75337432D01*
X69541319Y-75337087D01*
X69514810Y-75305509D01*
X69495419Y-75273961D01*
X69482058Y-75237385D01*
X69473642Y-75190724D01*
X69469085Y-75128921D01*
X69467300Y-75046918D01*
X69467106Y-74991568D01*
X69466269Y-74912339D01*
X69463961Y-74840661D01*
X69460482Y-74782287D01*
X69456137Y-74742973D01*
X69453428Y-74731402D01*
X69429902Y-74702961D01*
X69391443Y-74695639D01*
X69341834Y-74709659D01*
X69316333Y-74723322D01*
X69270751Y-74751115D01*
X69270751Y-75340594D01*
X69046871Y-75340594D01*
X69043101Y-75021516D01*
X69039332Y-74702438D01*
X68990243Y-74697715D01*
X68938097Y-74702147D01*
X68895571Y-74717456D01*
X68849989Y-74741919D01*
X68849989Y-75340594D01*
X68626890Y-75340594D01*
X68622662Y-74972427D01*
X68621110Y-74872616D01*
X68618916Y-74781340D01*
X68616240Y-74702571D01*
X68613239Y-74640284D01*
X68610069Y-74598450D01*
X68607165Y-74581495D01*
X68605474Y-74567990D01*
X68618796Y-74556456D01*
X68651820Y-74544105D01*
X68686991Y-74534071D01*
X68752555Y-74519630D01*
X68795388Y-74518472D01*
X68817574Y-74530808D01*
X68821938Y-74547718D01*
X68827868Y-74566511D01*
X68847533Y-74564224D01*
X68872696Y-74548920D01*
X68941980Y-74516483D01*
X69019801Y-74506151D01*
X69097928Y-74517540D01*
G37*
G36*
X65905152Y-74844678D02*
G01*
X65905642Y-74959077D01*
X65906860Y-75048604D01*
X65908977Y-75116433D01*
X65912163Y-75165737D01*
X65916586Y-75199689D01*
X65922418Y-75221463D01*
X65925693Y-75228391D01*
X65940421Y-75256872D01*
X65946234Y-75272944D01*
X65935269Y-75284211D01*
X65906111Y-75304416D01*
X65867322Y-75327867D01*
X65787913Y-75373300D01*
X65757401Y-75335035D01*
X65726890Y-75296770D01*
X65675629Y-75327014D01*
X65613060Y-75351576D01*
X65537507Y-75363317D01*
X65461425Y-75361231D01*
X65407846Y-75348668D01*
X65337285Y-75310179D01*
X65288821Y-75254689D01*
X65261131Y-75180636D01*
X65259777Y-75173881D01*
X65255279Y-75135994D01*
X65251361Y-75075940D01*
X65248260Y-74999604D01*
X65246214Y-74912868D01*
X65245461Y-74821614D01*
X65245461Y-74820007D01*
X65245536Y-74725187D01*
X65246037Y-74654688D01*
X65247376Y-74604781D01*
X65249966Y-74571735D01*
X65254217Y-74551822D01*
X65260544Y-74541312D01*
X65269357Y-74536474D01*
X65277018Y-74534514D01*
X65361265Y-74515834D01*
X65418576Y-74504180D01*
X65449160Y-74499509D01*
X65451187Y-74499413D01*
X65457025Y-74508122D01*
X65461806Y-74535836D01*
X65465661Y-74584536D01*
X65468720Y-74656200D01*
X65471113Y-74752808D01*
X65472226Y-74819526D01*
X65474230Y-74929892D01*
X65476782Y-75015142D01*
X65480084Y-75078207D01*
X65484341Y-75122019D01*
X65489756Y-75149512D01*
X65496129Y-75163148D01*
X65526182Y-75180398D01*
X65570206Y-75185779D01*
X65616710Y-75179192D01*
X65649077Y-75164481D01*
X65659466Y-75156307D01*
X65667246Y-75145802D01*
X65672794Y-75129153D01*
X65676486Y-75102548D01*
X65678700Y-75062176D01*
X65679814Y-75004224D01*
X65680204Y-74924879D01*
X65680248Y-74849403D01*
X65680199Y-74748630D01*
X65680823Y-74672287D01*
X65683280Y-74616756D01*
X65688728Y-74578420D01*
X65698326Y-74553661D01*
X65713232Y-74538864D01*
X65734604Y-74530409D01*
X65763603Y-74524681D01*
X65785439Y-74520996D01*
X65830190Y-74512656D01*
X65868141Y-74504758D01*
X65873097Y-74503604D01*
X65904655Y-74496029D01*
X65905152Y-74844678D01*
G37*
G36*
X66475174Y-74503134D02*
G01*
X66536765Y-74513876D01*
X66598521Y-74529116D01*
X66652032Y-74546677D01*
X66688889Y-74564380D01*
X66696111Y-74570024D01*
X66699404Y-74589995D01*
X66690306Y-74623039D01*
X66673153Y-74660638D01*
X66652281Y-74694274D01*
X66632025Y-74715429D01*
X66620638Y-74718284D01*
X66594206Y-74709034D01*
X66555038Y-74694574D01*
X66542810Y-74689950D01*
X66476502Y-74672463D01*
X66418572Y-74671679D01*
X66373550Y-74686372D01*
X66345966Y-74715319D01*
X66339442Y-74744949D01*
X66348469Y-74773593D01*
X66377426Y-74797605D01*
X66429122Y-74818618D01*
X66496430Y-74836095D01*
X66585319Y-74862627D01*
X66651234Y-74898843D01*
X66698364Y-74947416D01*
X66715587Y-74975991D01*
X66740008Y-75051516D01*
X66738719Y-75128213D01*
X66713452Y-75201436D01*
X66665939Y-75266542D01*
X66597910Y-75318886D01*
X66585167Y-75325802D01*
X66509153Y-75352678D01*
X66418444Y-75365717D01*
X66322994Y-75364471D01*
X66232756Y-75348494D01*
X66213213Y-75342497D01*
X66135956Y-75314448D01*
X66085036Y-75291287D01*
X66060949Y-75273251D01*
X66058934Y-75267749D01*
X66064617Y-75249990D01*
X66078816Y-75217913D01*
X66097255Y-75180080D01*
X66115656Y-75145057D01*
X66129744Y-75121407D01*
X66134615Y-75116187D01*
X66149015Y-75121562D01*
X66181413Y-75135552D01*
X66218490Y-75152260D01*
X66276678Y-75174135D01*
X66339608Y-75190754D01*
X66372685Y-75196115D01*
X66419700Y-75199087D01*
X66449358Y-75194394D01*
X66471800Y-75179911D01*
X66477917Y-75174068D01*
X66502888Y-75134440D01*
X66504850Y-75093805D01*
X66483917Y-75059999D01*
X66476190Y-75054216D01*
X66446985Y-75041222D01*
X66400015Y-75026469D01*
X66345147Y-75013033D01*
X66341998Y-75012373D01*
X66283506Y-74997493D01*
X66229119Y-74979023D01*
X66190884Y-74961110D01*
X66137778Y-74913129D01*
X66104471Y-74850873D01*
X66091288Y-74780260D01*
X66098556Y-74707207D01*
X66126599Y-74637628D01*
X66170050Y-74582698D01*
X66231328Y-74537706D01*
X66304324Y-74510615D01*
X66394683Y-74499552D01*
X66422158Y-74499070D01*
X66475174Y-74503134D01*
G37*
G36*
X64243022Y-74221205D02*
G01*
X64268574Y-74225120D01*
X64282014Y-74232737D01*
X64287854Y-74242613D01*
X64294035Y-74262775D01*
X64306232Y-74306001D01*
X64323333Y-74368223D01*
X64344227Y-74445376D01*
X64367803Y-74533391D01*
X64384767Y-74597248D01*
X64408791Y-74686718D01*
X64430384Y-74764716D01*
X64448584Y-74827959D01*
X64462426Y-74873167D01*
X64470948Y-74897058D01*
X64473282Y-74898794D01*
X64477238Y-74877742D01*
X64487668Y-74833813D01*
X64503511Y-74771150D01*
X64523707Y-74693895D01*
X64547196Y-74606192D01*
X64563011Y-74548159D01*
X64651492Y-74225574D01*
X64943915Y-74225574D01*
X64988207Y-74716463D01*
X64998819Y-74834001D01*
X65008880Y-74945296D01*
X65018049Y-75046596D01*
X65025987Y-75134150D01*
X65032354Y-75204207D01*
X65036809Y-75253016D01*
X65038744Y-75273973D01*
X65044987Y-75340594D01*
X64814701Y-75340594D01*
X64806294Y-75245922D01*
X64802634Y-75200741D01*
X64797702Y-75134211D01*
X64791971Y-75052980D01*
X64785910Y-74963695D01*
X64780922Y-74887555D01*
X64763958Y-74623859D01*
X64689411Y-74887555D01*
X64664048Y-74976904D01*
X64639130Y-75064024D01*
X64616476Y-75142601D01*
X64597907Y-75206320D01*
X64585954Y-75246525D01*
X64557043Y-75341799D01*
X64455945Y-75337690D01*
X64354848Y-75333581D01*
X64261173Y-74989959D01*
X64235914Y-74898503D01*
X64213143Y-74818357D01*
X64193827Y-74752739D01*
X64178936Y-74704871D01*
X64169437Y-74677974D01*
X64166298Y-74674387D01*
X64164959Y-74696478D01*
X64161919Y-74741862D01*
X64157501Y-74805851D01*
X64152031Y-74883762D01*
X64145832Y-74970908D01*
X64144467Y-74989959D01*
X64138195Y-75078731D01*
X64132670Y-75159522D01*
X64128204Y-75227573D01*
X64125106Y-75278129D01*
X64123688Y-75306433D01*
X64123633Y-75309037D01*
X64121966Y-75324345D01*
X64113508Y-75333685D01*
X64092705Y-75338526D01*
X64054005Y-75340337D01*
X64004428Y-75340594D01*
X63885427Y-75340594D01*
X63893612Y-75259948D01*
X63896873Y-75226665D01*
X63902350Y-75169413D01*
X63909671Y-75092154D01*
X63918461Y-74998850D01*
X63928348Y-74893464D01*
X63938957Y-74779957D01*
X63946180Y-74702438D01*
X63990563Y-74225574D01*
X64134387Y-74221575D01*
X64200059Y-74220266D01*
X64243022Y-74221205D01*
G37*
G36*
X63110915Y-72750515D02*
G01*
X63190740Y-72764960D01*
X63241694Y-72781305D01*
X63294648Y-72802609D01*
X63341716Y-72825208D01*
X63375011Y-72845432D01*
X63385506Y-72855526D01*
X63382337Y-72872537D01*
X63363160Y-72909074D01*
X63327460Y-72966031D01*
X63289841Y-73022236D01*
X63277378Y-73018075D01*
X63246941Y-73004391D01*
X63212329Y-72987681D01*
X63111091Y-72953031D01*
X63048561Y-72944665D01*
X62998961Y-72942578D01*
X62967351Y-72946070D01*
X62943804Y-72957947D01*
X62918397Y-72981016D01*
X62917766Y-72981647D01*
X62890999Y-73015131D01*
X62876200Y-73046695D01*
X62875168Y-73054297D01*
X62879575Y-73089371D01*
X62895728Y-73116322D01*
X62928025Y-73138634D01*
X62980864Y-73159790D01*
X63026243Y-73173965D01*
X63145147Y-73213233D01*
X63238468Y-73254538D01*
X63308672Y-73300292D01*
X63358221Y-73352905D01*
X63389583Y-73414789D01*
X63405221Y-73488354D01*
X63408133Y-73547477D01*
X63396619Y-73643845D01*
X63361176Y-73726662D01*
X63300454Y-73799022D01*
X63296946Y-73802227D01*
X63222987Y-73852517D01*
X63130411Y-73889714D01*
X63026177Y-73912244D01*
X62917245Y-73918531D01*
X62823253Y-73909419D01*
X62786904Y-73900808D01*
X62739127Y-73886696D01*
X62686786Y-73869493D01*
X62636741Y-73851609D01*
X62595855Y-73835454D01*
X62570988Y-73823437D01*
X62566609Y-73819286D01*
X62571957Y-73805747D01*
X62586058Y-73773374D01*
X62605997Y-73728843D01*
X62608510Y-73723295D01*
X62650410Y-73630886D01*
X62726733Y-73665828D01*
X62792283Y-73690616D01*
X62863774Y-73709329D01*
X62931799Y-73720131D01*
X62986954Y-73721190D01*
X63000313Y-73719179D01*
X63066559Y-73700665D01*
X63109192Y-73676528D01*
X63132627Y-73642322D01*
X63141277Y-73593599D01*
X63141651Y-73576760D01*
X63135461Y-73533381D01*
X63114543Y-73498596D01*
X63075377Y-73469580D01*
X63014442Y-73443506D01*
X62951143Y-73423845D01*
X62853869Y-73393617D01*
X62779988Y-73363126D01*
X62724983Y-73329322D01*
X62684335Y-73289156D01*
X62653526Y-73239577D01*
X62642576Y-73215554D01*
X62619979Y-73128139D01*
X62622738Y-73039929D01*
X62648703Y-72955645D01*
X62695726Y-72880008D01*
X62761660Y-72817740D01*
X62843565Y-72773855D01*
X62922286Y-72754249D01*
X63015207Y-72746371D01*
X63110915Y-72750515D01*
G37*
G36*
X59328594Y-73707047D02*
G01*
X59484117Y-73709574D01*
X59629622Y-73714016D01*
X59759751Y-73720375D01*
X59869145Y-73728651D01*
X59901783Y-73732027D01*
X60227078Y-73776339D01*
X60529399Y-73833106D01*
X60808289Y-73902190D01*
X61063289Y-73983454D01*
X61293941Y-74076760D01*
X61499790Y-74181972D01*
X61594839Y-74240017D01*
X61693287Y-74311006D01*
X61789176Y-74393191D01*
X61877301Y-74481223D01*
X61952458Y-74569756D01*
X62009443Y-74653440D01*
X62024735Y-74681810D01*
X62080229Y-74820449D01*
X62108809Y-74959352D01*
X62111270Y-75103147D01*
X62106128Y-75155327D01*
X62069273Y-75339136D01*
X62005079Y-75525689D01*
X61914053Y-75714358D01*
X61796704Y-75904519D01*
X61653540Y-76095546D01*
X61485069Y-76286812D01*
X61291800Y-76477692D01*
X61074241Y-76667561D01*
X60832899Y-76855791D01*
X60581626Y-77032814D01*
X60196592Y-77280863D01*
X59808534Y-77509911D01*
X59420529Y-77718333D01*
X59035658Y-77904504D01*
X58656998Y-78066798D01*
X58527294Y-78117359D01*
X58437312Y-78150541D01*
X58336239Y-78186163D01*
X58227781Y-78223071D01*
X58115643Y-78260111D01*
X58003531Y-78296127D01*
X57895149Y-78329966D01*
X57794203Y-78360473D01*
X57704399Y-78386494D01*
X57629441Y-78406874D01*
X57573034Y-78420458D01*
X57538885Y-78426093D01*
X57536113Y-78426182D01*
X57522359Y-78412952D01*
X57517473Y-78373722D01*
X57517465Y-78371566D01*
X57520415Y-78298719D01*
X57528432Y-78208434D01*
X57540268Y-78110603D01*
X57554676Y-78015119D01*
X57570407Y-77931874D01*
X57576047Y-77907242D01*
X57618150Y-77758885D01*
X57670218Y-77623497D01*
X57735468Y-77495142D01*
X57817114Y-77367883D01*
X57918371Y-77235783D01*
X57977695Y-77165677D01*
X58044206Y-77083403D01*
X58091184Y-77009380D01*
X58122008Y-76935676D01*
X58140059Y-76854361D01*
X58148330Y-76765229D01*
X58155621Y-76626031D01*
X58380027Y-76539317D01*
X58725918Y-76399946D01*
X59043886Y-76259936D01*
X59333906Y-76119301D01*
X59595951Y-75978054D01*
X59829994Y-75836209D01*
X59961741Y-75747469D01*
X60034381Y-75692224D01*
X60114346Y-75624474D01*
X60196526Y-75549207D01*
X60275811Y-75471411D01*
X60347093Y-75396072D01*
X60405262Y-75328178D01*
X60440556Y-75280081D01*
X60510956Y-75150482D01*
X60557292Y-75017170D01*
X60579167Y-74883422D01*
X60576186Y-74752517D01*
X60547955Y-74627733D01*
X60525933Y-74572311D01*
X60468842Y-74480176D01*
X60386023Y-74395153D01*
X60279062Y-74317977D01*
X60149546Y-74249382D01*
X59999063Y-74190102D01*
X59829199Y-74140871D01*
X59641542Y-74102423D01*
X59455651Y-74077320D01*
X59376710Y-74071567D01*
X59275685Y-74068012D01*
X59158448Y-74066538D01*
X59030872Y-74067027D01*
X58898827Y-74069359D01*
X58768185Y-74073416D01*
X58644818Y-74079081D01*
X58534598Y-74086234D01*
X58443396Y-74094757D01*
X58415091Y-74098310D01*
X58163100Y-74138188D01*
X57910932Y-74187985D01*
X57661928Y-74246621D01*
X57419425Y-74313015D01*
X57186765Y-74386087D01*
X56967287Y-74464756D01*
X56764331Y-74547941D01*
X56581237Y-74634562D01*
X56421344Y-74723537D01*
X56358024Y-74763941D01*
X56232138Y-74857863D01*
X56132517Y-74953421D01*
X56059500Y-75050040D01*
X56013426Y-75147147D01*
X55994632Y-75244168D01*
X56003457Y-75340526D01*
X56008012Y-75357782D01*
X56043479Y-75438507D01*
X56099488Y-75505292D01*
X56177098Y-75558710D01*
X56277369Y-75599334D01*
X56401361Y-75627735D01*
X56536690Y-75643516D01*
X56662705Y-75646361D01*
X56809539Y-75638316D01*
X56972608Y-75620386D01*
X57147328Y-75593577D01*
X57329114Y-75558893D01*
X57513381Y-75517340D01*
X57695547Y-75469924D01*
X57871025Y-75417650D01*
X58035233Y-75361522D01*
X58183585Y-75302547D01*
X58267824Y-75263903D01*
X58401858Y-75190647D01*
X58510416Y-75114506D01*
X58592932Y-75036074D01*
X58648836Y-74955945D01*
X58677562Y-74874713D01*
X58681573Y-74830943D01*
X58669447Y-74752110D01*
X58633251Y-74687354D01*
X58573264Y-74636818D01*
X58489761Y-74600643D01*
X58383019Y-74578974D01*
X58253315Y-74571953D01*
X58183672Y-74573794D01*
X58047182Y-74585840D01*
X57907888Y-74608030D01*
X57769490Y-74639007D01*
X57635687Y-74677416D01*
X57510179Y-74721900D01*
X57396665Y-74771103D01*
X57298845Y-74823669D01*
X57220418Y-74878243D01*
X57165083Y-74933468D01*
X57152393Y-74951813D01*
X57127156Y-75008890D01*
X57127696Y-75054956D01*
X57153960Y-75089942D01*
X57205894Y-75113774D01*
X57282543Y-75126312D01*
X57344441Y-75127173D01*
X57415784Y-75121806D01*
X57491437Y-75111374D01*
X57566271Y-75097042D01*
X57635152Y-75079972D01*
X57692947Y-75061328D01*
X57734526Y-75042274D01*
X57754756Y-75023973D01*
X57755897Y-75019003D01*
X57744240Y-75015111D01*
X57713348Y-75022124D01*
X57687704Y-75031273D01*
X57620158Y-75053618D01*
X57539250Y-75074044D01*
X57455848Y-75090318D01*
X57380825Y-75100210D01*
X57342288Y-75102162D01*
X57281726Y-75096664D01*
X57230555Y-75081899D01*
X57194898Y-75060459D01*
X57180880Y-75034936D01*
X57180856Y-75033827D01*
X57194388Y-74992813D01*
X57233566Y-74948972D01*
X57296260Y-74903398D01*
X57380339Y-74857185D01*
X57483673Y-74811429D01*
X57604134Y-74767225D01*
X57739591Y-74725666D01*
X57824025Y-74703246D01*
X57973227Y-74669570D01*
X58101471Y-74649204D01*
X58212343Y-74641874D01*
X58309429Y-74647309D01*
X58380587Y-74660922D01*
X58461892Y-74691922D01*
X58518977Y-74734974D01*
X58551551Y-74787490D01*
X58559322Y-74846884D01*
X58541997Y-74910568D01*
X58499286Y-74975954D01*
X58430896Y-75040456D01*
X58423992Y-75045737D01*
X58336350Y-75102316D01*
X58223991Y-75159550D01*
X58090191Y-75216333D01*
X57938227Y-75271558D01*
X57771376Y-75324117D01*
X57592916Y-75372904D01*
X57406124Y-75416812D01*
X57214277Y-75454735D01*
X57211833Y-75455171D01*
X57116779Y-75468983D01*
X57009409Y-75479340D01*
X56895266Y-75486190D01*
X56779893Y-75489480D01*
X56668833Y-75489158D01*
X56567630Y-75485172D01*
X56481827Y-75477470D01*
X56416967Y-75466001D01*
X56405372Y-75462756D01*
X56331867Y-75431389D01*
X56270213Y-75388414D01*
X56225861Y-75338553D01*
X56204672Y-75288878D01*
X56204171Y-75212574D01*
X56231195Y-75135499D01*
X56285802Y-75057613D01*
X56368050Y-74978879D01*
X56477998Y-74899257D01*
X56615703Y-74818709D01*
X56781224Y-74737195D01*
X56974618Y-74654677D01*
X57195943Y-74571116D01*
X57363186Y-74513426D01*
X57664737Y-74420623D01*
X57952223Y-74348483D01*
X58229790Y-74296334D01*
X58501584Y-74263502D01*
X58771751Y-74249317D01*
X58983120Y-74250735D01*
X59193160Y-74263361D01*
X59385992Y-74287054D01*
X59560539Y-74321268D01*
X59715723Y-74365457D01*
X59850469Y-74419076D01*
X59963699Y-74481576D01*
X60054337Y-74552413D01*
X60121306Y-74631039D01*
X60163529Y-74716908D01*
X60179930Y-74809475D01*
X60178211Y-74857132D01*
X60163195Y-74933783D01*
X60132793Y-75008403D01*
X60084494Y-75085236D01*
X60015784Y-75168529D01*
X59957973Y-75229162D01*
X59826105Y-75348575D01*
X59671992Y-75463721D01*
X59494174Y-75575520D01*
X59291194Y-75684889D01*
X59067272Y-75790238D01*
X58779204Y-75911261D01*
X58494655Y-76017237D01*
X58208956Y-76109376D01*
X57917437Y-76188887D01*
X57615431Y-76256979D01*
X57298267Y-76314862D01*
X56961278Y-76363745D01*
X56760094Y-76387871D01*
X56663717Y-76396612D01*
X56549730Y-76403604D01*
X56422719Y-76408846D01*
X56287268Y-76412337D01*
X56147962Y-76414075D01*
X56009387Y-76414060D01*
X55876126Y-76412290D01*
X55752766Y-76408765D01*
X55643891Y-76403484D01*
X55554086Y-76396445D01*
X55490795Y-76388161D01*
X55314314Y-76350271D01*
X55163329Y-76303024D01*
X55036626Y-76245638D01*
X54932992Y-76177333D01*
X54851216Y-76097325D01*
X54790084Y-76004835D01*
X54752332Y-75912271D01*
X54731598Y-75814489D01*
X54731209Y-75715395D01*
X54751800Y-75610490D01*
X54794007Y-75495280D01*
X54818773Y-75441832D01*
X54905663Y-75292521D01*
X55019378Y-75144508D01*
X55158697Y-74998695D01*
X55322396Y-74855985D01*
X55509253Y-74717283D01*
X55718045Y-74583491D01*
X55947550Y-74455514D01*
X56196546Y-74334255D01*
X56463809Y-74220617D01*
X56479586Y-74214381D01*
X56790709Y-74099144D01*
X57098717Y-74000218D01*
X57409309Y-73916234D01*
X57728188Y-73845818D01*
X58061054Y-73787602D01*
X58413609Y-73740213D01*
X58485218Y-73732108D01*
X58588299Y-73723145D01*
X58713518Y-73716095D01*
X58855517Y-73710961D01*
X59008935Y-73707741D01*
X59168414Y-73706436D01*
X59328594Y-73707047D01*
G37*
%TO.C,J7*%
X101485000Y-93110000D02*
X105485000Y-93110000D01*
X100455000Y-92820000D02*
X106475000Y-92820000D01*
X106475000Y-92820000D02*
X106475000Y-84980000D01*
X100455000Y-92240000D02*
X101055000Y-92240000D01*
X101055000Y-92240000D02*
X101055000Y-90640000D01*
X105475000Y-91440000D02*
X104945000Y-91190000D01*
X105475000Y-91440000D02*
X105475000Y-86360000D01*
X106475000Y-91440000D02*
X105475000Y-91440000D01*
X104945000Y-91190000D02*
X104945000Y-86610000D01*
X106475000Y-91190000D02*
X105475000Y-91190000D01*
X101055000Y-90640000D02*
X100455000Y-90640000D01*
X100455000Y-89700000D02*
X101055000Y-89700000D01*
X101055000Y-89700000D02*
X101055000Y-88100000D01*
X101055000Y-88100000D02*
X100455000Y-88100000D01*
X100455000Y-87160000D02*
X101055000Y-87160000D01*
X101055000Y-87160000D02*
X101055000Y-85560000D01*
X104945000Y-86610000D02*
X105475000Y-86360000D01*
X106475000Y-86610000D02*
X105475000Y-86610000D01*
X105475000Y-86360000D02*
X106475000Y-86360000D01*
X101055000Y-85560000D02*
X100455000Y-85560000D01*
X100455000Y-84980000D02*
X100455000Y-92820000D01*
X106475000Y-84980000D02*
X100455000Y-84980000D01*
%TO.C,U2*%
X60960000Y-52197000D02*
X71120000Y-52197000D01*
X60960000Y-58293000D02*
X60960000Y-49657000D01*
X66040000Y-53721000D02*
X60960000Y-53721000D01*
X66040000Y-53721000D02*
X71120000Y-53721000D01*
X66040000Y-58293000D02*
X60960000Y-58293000D01*
X66040000Y-58293000D02*
X71120000Y-58293000D01*
X71120000Y-49657000D02*
X60960000Y-49657000D01*
X71120000Y-58293000D02*
X71120000Y-49657000D01*
%TO.C,J4*%
X101505000Y-105810000D02*
X105505000Y-105810000D01*
X100475000Y-105520000D02*
X106495000Y-105520000D01*
X106495000Y-105520000D02*
X106495000Y-95140000D01*
X100475000Y-104940000D02*
X101075000Y-104940000D01*
X101075000Y-104940000D02*
X101075000Y-103340000D01*
X105495000Y-104140000D02*
X104965000Y-103890000D01*
X105495000Y-104140000D02*
X105495000Y-96520000D01*
X106495000Y-104140000D02*
X105495000Y-104140000D01*
X104965000Y-103890000D02*
X104965000Y-96770000D01*
X106495000Y-103890000D02*
X105495000Y-103890000D01*
X101075000Y-103340000D02*
X100475000Y-103340000D01*
X100475000Y-102400000D02*
X101075000Y-102400000D01*
X101075000Y-102400000D02*
X101075000Y-100800000D01*
X101075000Y-100800000D02*
X100475000Y-100800000D01*
X100475000Y-99860000D02*
X101075000Y-99860000D01*
X101075000Y-99860000D02*
X101075000Y-98260000D01*
X101075000Y-98260000D02*
X100475000Y-98260000D01*
X100475000Y-97320000D02*
X101075000Y-97320000D01*
X101075000Y-97320000D02*
X101075000Y-95720000D01*
X104965000Y-96770000D02*
X105495000Y-96520000D01*
X106495000Y-96770000D02*
X105495000Y-96770000D01*
X105495000Y-96520000D02*
X106495000Y-96520000D01*
X101075000Y-95720000D02*
X100475000Y-95720000D01*
X100475000Y-95140000D02*
X100475000Y-105520000D01*
X106495000Y-95140000D02*
X100475000Y-95140000D01*
%TO.C,J5*%
X100905000Y-56455000D02*
X102235000Y-56455000D01*
X100905000Y-57785000D02*
X100905000Y-56455000D01*
X100905000Y-59055000D02*
X100905000Y-76895000D01*
X100905000Y-59055000D02*
X103505000Y-59055000D01*
X100905000Y-76895000D02*
X106105000Y-76895000D01*
X103505000Y-56455000D02*
X106105000Y-56455000D01*
X103505000Y-59055000D02*
X103505000Y-56455000D01*
X106105000Y-56455000D02*
X106105000Y-76895000D01*
%TO.C,J3*%
X76775000Y-55940000D02*
X76775000Y-54610000D01*
X78105000Y-55940000D02*
X76775000Y-55940000D01*
X79375000Y-55940000D02*
X92135000Y-55940000D01*
X79375000Y-55940000D02*
X79375000Y-53340000D01*
X92135000Y-55940000D02*
X92135000Y-50740000D01*
X76775000Y-53340000D02*
X76775000Y-50740000D01*
X79375000Y-53340000D02*
X76775000Y-53340000D01*
X76775000Y-50740000D02*
X92135000Y-50740000D01*
%TO.C,U3*%
X88155000Y-98365000D02*
X88155000Y-116265000D01*
X88155000Y-116265000D02*
X93455000Y-116265000D01*
X89805000Y-98365000D02*
X88155000Y-98365000D01*
X93455000Y-98365000D02*
X91805000Y-98365000D01*
X93455000Y-116265000D02*
X93455000Y-98365000D01*
X89805000Y-98365000D02*
G75*
G03*
X91805000Y-98365000I1000000J0D01*
G01*
%TO.C,J6*%
X100905000Y-111065000D02*
X102235000Y-111065000D01*
X100905000Y-112395000D02*
X100905000Y-111065000D01*
X100905000Y-113665000D02*
X100905000Y-121345000D01*
X100905000Y-113665000D02*
X103505000Y-113665000D01*
X100905000Y-121345000D02*
X106105000Y-121345000D01*
X103505000Y-111065000D02*
X106105000Y-111065000D01*
X103505000Y-113665000D02*
X103505000Y-111065000D01*
X106105000Y-111065000D02*
X106105000Y-121345000D01*
%TD*%
%LPC*%
D13*
%TO.C,REF\u002A\u002A*%
X40562962Y-123825000D03*
%TD*%
D14*
%TO.C,U1*%
X78740000Y-93980000D03*
X76200000Y-93980000D03*
X73660000Y-93980000D03*
X71120000Y-93980000D03*
X68580000Y-93980000D03*
X66040000Y-93980000D03*
X63500000Y-93980000D03*
X60960000Y-93980000D03*
X58420000Y-93980000D03*
X78740000Y-119380000D03*
X76200000Y-119380000D03*
X73660000Y-119380000D03*
X71120000Y-119380000D03*
X68580000Y-119380000D03*
%TD*%
D13*
%TO.C,REF\u002A\u002A*%
X111125000Y-123825000D03*
%TD*%
D15*
%TO.C,JP1*%
X59070000Y-65405000D03*
D16*
X61610000Y-65405000D03*
X64150000Y-65405000D03*
%TD*%
D15*
%TO.C,J1*%
X47625000Y-68580000D03*
D16*
X50165000Y-68580000D03*
X47625000Y-71120000D03*
X50165000Y-71120000D03*
X47625000Y-73660000D03*
X50165000Y-73660000D03*
X47625000Y-76200000D03*
X50165000Y-76200000D03*
X47625000Y-78740000D03*
X50165000Y-78740000D03*
X47625000Y-81280000D03*
X50165000Y-81280000D03*
X47625000Y-83820000D03*
X50165000Y-83820000D03*
X47625000Y-86360000D03*
X50165000Y-86360000D03*
X47625000Y-88900000D03*
X50165000Y-88900000D03*
X47625000Y-91440000D03*
X50165000Y-91440000D03*
X47625000Y-93980000D03*
X50165000Y-93980000D03*
X47625000Y-96520000D03*
X50165000Y-96520000D03*
X47625000Y-99060000D03*
X50165000Y-99060000D03*
X47625000Y-101600000D03*
X50165000Y-101600000D03*
X47625000Y-104140000D03*
X50165000Y-104140000D03*
X47625000Y-106680000D03*
X50165000Y-106680000D03*
X47625000Y-109220000D03*
X50165000Y-109220000D03*
X47625000Y-111760000D03*
X50165000Y-111760000D03*
X47625000Y-114300000D03*
X50165000Y-114300000D03*
X47625000Y-116840000D03*
X50165000Y-116840000D03*
%TD*%
D17*
%TO.C,J2*%
X50165000Y-57150000D03*
D18*
X50165000Y-51150000D03*
D19*
X45465000Y-54150000D03*
%TD*%
D20*
%TO.C,D1*%
X95890000Y-123190000D03*
D21*
X93350000Y-123190000D03*
%TD*%
D22*
%TO.C,R1*%
X85090000Y-118745000D03*
D23*
X95250000Y-118745000D03*
%TD*%
D13*
%TO.C,REF\u002A\u002A*%
X40562962Y-50165000D03*
%TD*%
%TO.C,REF\u002A\u002A*%
X111125000Y-50165000D03*
%TD*%
D24*
%TO.C,J7*%
X103485000Y-91440000D03*
D25*
X103485000Y-88900000D03*
X103485000Y-86360000D03*
%TD*%
D14*
%TO.C,U2*%
X63500000Y-54991000D03*
X66040000Y-54991000D03*
X68580000Y-54991000D03*
%TD*%
D24*
%TO.C,J4*%
X103505000Y-104140000D03*
D25*
X103505000Y-101600000D03*
X103505000Y-99060000D03*
X103505000Y-96520000D03*
%TD*%
D15*
%TO.C,J5*%
X102235000Y-57785000D03*
D16*
X104775000Y-57785000D03*
X102235000Y-60325000D03*
X104775000Y-60325000D03*
X102235000Y-62865000D03*
X104775000Y-62865000D03*
X102235000Y-65405000D03*
X104775000Y-65405000D03*
X102235000Y-67945000D03*
X104775000Y-67945000D03*
X102235000Y-70485000D03*
X104775000Y-70485000D03*
X102235000Y-73025000D03*
X104775000Y-73025000D03*
X102235000Y-75565000D03*
X104775000Y-75565000D03*
%TD*%
D15*
%TO.C,J3*%
X78105000Y-54610000D03*
D16*
X78105000Y-52070000D03*
X80645000Y-54610000D03*
X80645000Y-52070000D03*
X83185000Y-54610000D03*
X83185000Y-52070000D03*
X85725000Y-54610000D03*
X85725000Y-52070000D03*
X88265000Y-54610000D03*
X88265000Y-52070000D03*
X90805000Y-54610000D03*
X90805000Y-52070000D03*
%TD*%
D26*
%TO.C,U3*%
X86995000Y-99695000D03*
D23*
X86995000Y-102235000D03*
X86995000Y-104775000D03*
X86995000Y-107315000D03*
X86995000Y-109855000D03*
X86995000Y-112395000D03*
X86995000Y-114935000D03*
X94615000Y-114935000D03*
X94615000Y-112395000D03*
X94615000Y-109855000D03*
X94615000Y-107315000D03*
X94615000Y-104775000D03*
X94615000Y-102235000D03*
X94615000Y-99695000D03*
%TD*%
D15*
%TO.C,J6*%
X102235000Y-112395000D03*
D16*
X104775000Y-112395000D03*
X102235000Y-114935000D03*
X104775000Y-114935000D03*
X102235000Y-117475000D03*
X104775000Y-117475000D03*
X102235000Y-120015000D03*
X104775000Y-120015000D03*
%TD*%
%LPD*%
M02*
