%TF.GenerationSoftware,KiCad,Pcbnew,7.0.7*%
%TF.CreationDate,2023-09-28T16:31:27-05:00*%
%TF.ProjectId,iowa-rover-kiosk-main,696f7761-2d72-46f7-9665-722d6b696f73,rev?*%
%TF.SameCoordinates,Original*%
%TF.FileFunction,Copper,L2,Bot*%
%TF.FilePolarity,Positive*%
%FSLAX46Y46*%
G04 Gerber Fmt 4.6, Leading zero omitted, Abs format (unit mm)*
G04 Created by KiCad (PCBNEW 7.0.7) date 2023-09-28 16:31:27*
%MOMM*%
%LPD*%
G01*
G04 APERTURE LIST*
G04 Aperture macros list*
%AMRoundRect*
0 Rectangle with rounded corners*
0 $1 Rounding radius*
0 $2 $3 $4 $5 $6 $7 $8 $9 X,Y pos of 4 corners*
0 Add a 4 corners polygon primitive as box body*
4,1,4,$2,$3,$4,$5,$6,$7,$8,$9,$2,$3,0*
0 Add four circle primitives for the rounded corners*
1,1,$1+$1,$2,$3*
1,1,$1+$1,$4,$5*
1,1,$1+$1,$6,$7*
1,1,$1+$1,$8,$9*
0 Add four rect primitives between the rounded corners*
20,1,$1+$1,$2,$3,$4,$5,0*
20,1,$1+$1,$4,$5,$6,$7,0*
20,1,$1+$1,$6,$7,$8,$9,0*
20,1,$1+$1,$8,$9,$2,$3,0*%
G04 Aperture macros list end*
%TA.AperFunction,ComponentPad*%
%ADD10C,1.524000*%
%TD*%
%TA.AperFunction,ComponentPad*%
%ADD11R,1.700000X1.700000*%
%TD*%
%TA.AperFunction,ComponentPad*%
%ADD12O,1.700000X1.700000*%
%TD*%
%TA.AperFunction,ComponentPad*%
%ADD13R,3.500000X3.500000*%
%TD*%
%TA.AperFunction,ComponentPad*%
%ADD14RoundRect,0.750000X-1.000000X0.750000X-1.000000X-0.750000X1.000000X-0.750000X1.000000X0.750000X0*%
%TD*%
%TA.AperFunction,ComponentPad*%
%ADD15RoundRect,0.875000X-0.875000X0.875000X-0.875000X-0.875000X0.875000X-0.875000X0.875000X0.875000X0*%
%TD*%
%TA.AperFunction,ComponentPad*%
%ADD16R,1.800000X1.800000*%
%TD*%
%TA.AperFunction,ComponentPad*%
%ADD17C,1.800000*%
%TD*%
%TA.AperFunction,ComponentPad*%
%ADD18C,1.600000*%
%TD*%
%TA.AperFunction,ComponentPad*%
%ADD19O,1.600000X1.600000*%
%TD*%
%TA.AperFunction,ComponentPad*%
%ADD20RoundRect,0.250000X0.845000X-0.620000X0.845000X0.620000X-0.845000X0.620000X-0.845000X-0.620000X0*%
%TD*%
%TA.AperFunction,ComponentPad*%
%ADD21O,2.190000X1.740000*%
%TD*%
%TA.AperFunction,ComponentPad*%
%ADD22R,1.600000X1.600000*%
%TD*%
%TA.AperFunction,ViaPad*%
%ADD23C,0.800000*%
%TD*%
%TA.AperFunction,Conductor*%
%ADD24C,0.250000*%
%TD*%
%TA.AperFunction,Conductor*%
%ADD25C,2.000000*%
%TD*%
G04 APERTURE END LIST*
D10*
%TO.P,U1,1,Vin*%
%TO.N,+5V*%
X78740000Y-93980000D03*
%TO.P,U1,2,GND*%
%TO.N,GND*%
X76200000Y-93980000D03*
%TO.P,U1,3,EN*%
%TO.N,unconnected-(U1-EN-Pad3)*%
X73660000Y-93980000D03*
%TO.P,U1,4,G0*%
%TO.N,Net-(J1-D19_INT)*%
X71120000Y-93980000D03*
%TO.P,U1,5,SCK*%
%TO.N,Net-(J1-D52_SCK)*%
X68580000Y-93980000D03*
%TO.P,U1,6,MISO*%
%TO.N,Net-(J1-D50_CIPO)*%
X66040000Y-93980000D03*
%TO.P,U1,7,MOSI*%
%TO.N,Net-(J1-D51_COPI)*%
X63500000Y-93980000D03*
%TO.P,U1,8,CS*%
%TO.N,Net-(J1-D53_CS)*%
X60960000Y-93980000D03*
%TO.P,U1,9,RST*%
%TO.N,Net-(J1-D45_RST)*%
X58420000Y-93980000D03*
%TO.P,U1,10,G1*%
%TO.N,unconnected-(U1-G1-Pad10)*%
X78740000Y-119380000D03*
%TO.P,U1,11,G2*%
%TO.N,unconnected-(U1-G2-Pad11)*%
X76200000Y-119380000D03*
%TO.P,U1,12,G3*%
%TO.N,unconnected-(U1-G3-Pad12)*%
X73660000Y-119380000D03*
%TO.P,U1,13,G4*%
%TO.N,unconnected-(U1-G4-Pad13)*%
X71120000Y-119380000D03*
%TO.P,U1,14,G5*%
%TO.N,unconnected-(U1-G5-Pad14)*%
X68580000Y-119380000D03*
%TD*%
D11*
%TO.P,JP1,1,A*%
%TO.N,+5V*%
X59070000Y-65405000D03*
D12*
%TO.P,JP1,2,C*%
%TO.N,Net-(J1-KIOSK)*%
X61610000Y-65405000D03*
%TO.P,JP1,3,B*%
%TO.N,GND*%
X64150000Y-65405000D03*
%TD*%
D11*
%TO.P,J1,1,GND*%
%TO.N,GND*%
X47625000Y-68580000D03*
D12*
%TO.P,J1,2,VIN*%
%TO.N,+12V*%
X50165000Y-68580000D03*
%TO.P,J1,3,D50_CIPO*%
%TO.N,Net-(J1-D50_CIPO)*%
X47625000Y-71120000D03*
%TO.P,J1,4,D51_COPI*%
%TO.N,Net-(J1-D51_COPI)*%
X50165000Y-71120000D03*
%TO.P,J1,5,D52_SCK*%
%TO.N,Net-(J1-D52_SCK)*%
X47625000Y-73660000D03*
%TO.P,J1,6,D53_CS*%
%TO.N,Net-(J1-D53_CS)*%
X50165000Y-73660000D03*
%TO.P,J1,7,D45_RST*%
%TO.N,Net-(J1-D45_RST)*%
X47625000Y-76200000D03*
%TO.P,J1,8,D19_INT*%
%TO.N,Net-(J1-D19_INT)*%
X50165000Y-76200000D03*
%TO.P,J1,9,D20_SDA*%
%TO.N,/SDA*%
X47625000Y-78740000D03*
%TO.P,J1,10,D21_SCL*%
%TO.N,/SCL*%
X50165000Y-78740000D03*
%TO.P,J1,11,D12_DATA*%
%TO.N,/DATA*%
X47625000Y-81280000D03*
%TO.P,J1,12,D10_CLOCK*%
%TO.N,/CLOCK*%
X50165000Y-81280000D03*
%TO.P,J1,13,D9_LATCH*%
%TO.N,/LATCH*%
X47625000Y-83820000D03*
%TO.P,J1,14,D6_NEO*%
%TO.N,Net-(J1-D6_NEO)*%
X50165000Y-83820000D03*
%TO.P,J1,15,B1_DOWN*%
%TO.N,/B1_DOWN*%
X47625000Y-86360000D03*
%TO.P,J1,16,B1_UP*%
%TO.N,/B1_UP*%
X50165000Y-86360000D03*
%TO.P,J1,17,B2_DOWN*%
%TO.N,/B2_DOWN*%
X47625000Y-88900000D03*
%TO.P,J1,18,B2_UP*%
%TO.N,/B2_UP*%
X50165000Y-88900000D03*
%TO.P,J1,19,B3_DOWN*%
%TO.N,/B3_DOWN*%
X47625000Y-91440000D03*
%TO.P,J1,20,B3_UP*%
%TO.N,/B3_UP*%
X50165000Y-91440000D03*
%TO.P,J1,21,B4_DOWN*%
%TO.N,/B4_DOWN*%
X47625000Y-93980000D03*
%TO.P,J1,22,B4_UP*%
%TO.N,/B4_UP*%
X50165000Y-93980000D03*
%TO.P,J1,23,BTX*%
%TO.N,/BTX*%
X47625000Y-96520000D03*
%TO.P,J1,24,BP1*%
%TO.N,/B1*%
X50165000Y-96520000D03*
%TO.P,J1,25,BP2*%
%TO.N,/B2*%
X47625000Y-99060000D03*
%TO.P,J1,26,BP3*%
%TO.N,/B3*%
X50165000Y-99060000D03*
%TO.P,J1,27,BP4*%
%TO.N,/B4*%
X47625000Y-101600000D03*
%TO.P,J1,28,BP5*%
%TO.N,/B5*%
X50165000Y-101600000D03*
%TO.P,J1,29,LP1*%
%TO.N,/LED1*%
X47625000Y-104140000D03*
%TO.P,J1,30,LP2*%
%TO.N,/LED2*%
X50165000Y-104140000D03*
%TO.P,J1,31,LP3*%
%TO.N,/LED3*%
X47625000Y-106680000D03*
%TO.P,J1,32,LP4*%
%TO.N,/LED4*%
X50165000Y-106680000D03*
%TO.P,J1,33,KIOSK*%
%TO.N,Net-(J1-KIOSK)*%
X47625000Y-109220000D03*
%TO.P,J1,34,NC*%
%TO.N,unconnected-(J1-NC-Pad34)*%
X50165000Y-109220000D03*
%TO.P,J1,35,NC*%
%TO.N,unconnected-(J1-NC-Pad35)*%
X47625000Y-111760000D03*
%TO.P,J1,36,NC*%
%TO.N,unconnected-(J1-NC-Pad36)*%
X50165000Y-111760000D03*
%TO.P,J1,37,NC*%
%TO.N,unconnected-(J1-NC-Pad37)*%
X47625000Y-114300000D03*
%TO.P,J1,38,NC*%
%TO.N,unconnected-(J1-NC-Pad38)*%
X50165000Y-114300000D03*
%TO.P,J1,39,NC*%
%TO.N,unconnected-(J1-NC-Pad39)*%
X47625000Y-116840000D03*
%TO.P,J1,40,NC*%
%TO.N,unconnected-(J1-NC-Pad40)*%
X50165000Y-116840000D03*
%TD*%
D13*
%TO.P,J2,1*%
%TO.N,+12V*%
X50165000Y-57150000D03*
D14*
%TO.P,J2,2*%
%TO.N,GND*%
X50165000Y-51150000D03*
D15*
%TO.P,J2,3*%
%TO.N,N/C*%
X45465000Y-54150000D03*
%TD*%
D16*
%TO.P,D1,1,K*%
%TO.N,GND*%
X95890000Y-123190000D03*
D17*
%TO.P,D1,2,A*%
%TO.N,Net-(D1-A)*%
X93350000Y-123190000D03*
%TD*%
D18*
%TO.P,R1,1*%
%TO.N,Net-(U3-XTAL1{slash}PB0)*%
X85090000Y-118745000D03*
D19*
%TO.P,R1,2*%
%TO.N,Net-(D1-A)*%
X95250000Y-118745000D03*
%TD*%
D20*
%TO.P,J7,1,Pin_1*%
%TO.N,GND*%
X103485000Y-91440000D03*
D21*
%TO.P,J7,2,Pin_2*%
%TO.N,+5V*%
X103485000Y-88900000D03*
%TO.P,J7,3,Pin_3*%
%TO.N,Net-(J1-D6_NEO)*%
X103485000Y-86360000D03*
%TD*%
D10*
%TO.P,U2,1,PWR*%
%TO.N,+12V*%
X63500000Y-54991000D03*
%TO.P,U2,2,GND*%
%TO.N,GND*%
X66040000Y-54991000D03*
%TO.P,U2,3,+5V*%
%TO.N,+5V*%
X68580000Y-54991000D03*
%TD*%
D20*
%TO.P,J4,1,Pin_1*%
%TO.N,+5V*%
X103505000Y-104140000D03*
D21*
%TO.P,J4,2,Pin_2*%
%TO.N,GND*%
X103505000Y-101600000D03*
%TO.P,J4,3,Pin_3*%
%TO.N,/SDA*%
X103505000Y-99060000D03*
%TO.P,J4,4,Pin_4*%
%TO.N,/SCL*%
X103505000Y-96520000D03*
%TD*%
D11*
%TO.P,J5,1,Pin_1*%
%TO.N,GND*%
X102235000Y-57785000D03*
D12*
%TO.P,J5,2,Pin_2*%
%TO.N,+12V*%
X104775000Y-57785000D03*
%TO.P,J5,3,Pin_3*%
%TO.N,+5V*%
X102235000Y-60325000D03*
%TO.P,J5,4,Pin_4*%
%TO.N,/DATA*%
X104775000Y-60325000D03*
%TO.P,J5,5,Pin_5*%
%TO.N,Net-(J5-Pin_5)*%
X102235000Y-62865000D03*
%TO.P,J5,6,Pin_6*%
%TO.N,/LATCH*%
X104775000Y-62865000D03*
%TO.P,J5,7,Pin_7*%
%TO.N,/CLOCK*%
X102235000Y-65405000D03*
%TO.P,J5,8,Pin_8*%
%TO.N,unconnected-(J5-Pin_8-Pad8)*%
X104775000Y-65405000D03*
%TO.P,J5,9,Pin_9*%
%TO.N,/B1_UP*%
X102235000Y-67945000D03*
%TO.P,J5,10,Pin_10*%
%TO.N,/B1_DOWN*%
X104775000Y-67945000D03*
%TO.P,J5,11,Pin_11*%
%TO.N,/B2_UP*%
X102235000Y-70485000D03*
%TO.P,J5,12,Pin_12*%
%TO.N,/B2_DOWN*%
X104775000Y-70485000D03*
%TO.P,J5,13,Pin_13*%
%TO.N,/B3_UP*%
X102235000Y-73025000D03*
%TO.P,J5,14,Pin_14*%
%TO.N,/B3_DOWN*%
X104775000Y-73025000D03*
%TO.P,J5,15,Pin_15*%
%TO.N,/B4_UP*%
X102235000Y-75565000D03*
%TO.P,J5,16,Pin_16*%
%TO.N,/B4_DOWN*%
X104775000Y-75565000D03*
%TD*%
D11*
%TO.P,J3,1,Pin_1*%
%TO.N,GND*%
X78105000Y-54610000D03*
D12*
%TO.P,J3,2,Pin_2*%
%TO.N,/B1*%
X78105000Y-52070000D03*
%TO.P,J3,3,Pin_3*%
%TO.N,+5V*%
X80645000Y-54610000D03*
%TO.P,J3,4,Pin_4*%
%TO.N,/B2*%
X80645000Y-52070000D03*
%TO.P,J3,5,Pin_5*%
%TO.N,/LED1*%
X83185000Y-54610000D03*
%TO.P,J3,6,Pin_6*%
%TO.N,/B3*%
X83185000Y-52070000D03*
%TO.P,J3,7,Pin_7*%
%TO.N,/LED2*%
X85725000Y-54610000D03*
%TO.P,J3,8,Pin_8*%
%TO.N,/B4*%
X85725000Y-52070000D03*
%TO.P,J3,9,Pin_9*%
%TO.N,/LED3*%
X88265000Y-54610000D03*
%TO.P,J3,10,Pin_10*%
%TO.N,/B5*%
X88265000Y-52070000D03*
%TO.P,J3,11,Pin_11*%
%TO.N,/LED4*%
X90805000Y-54610000D03*
%TO.P,J3,12,Pin_12*%
%TO.N,Net-(J3-Pin_12)*%
X90805000Y-52070000D03*
%TD*%
D22*
%TO.P,U3,1,VCC*%
%TO.N,+5V*%
X86995000Y-99695000D03*
D19*
%TO.P,U3,2,XTAL1/PB0*%
%TO.N,Net-(U3-XTAL1{slash}PB0)*%
X86995000Y-102235000D03*
%TO.P,U3,3,XTAL2/PB1*%
%TO.N,unconnected-(U3-XTAL2{slash}PB1-Pad3)*%
X86995000Y-104775000D03*
%TO.P,U3,4,~{RESET}/PB3*%
%TO.N,unconnected-(U3-~{RESET}{slash}PB3-Pad4)*%
X86995000Y-107315000D03*
%TO.P,U3,5,PB2*%
%TO.N,unconnected-(U3-PB2-Pad5)*%
X86995000Y-109855000D03*
%TO.P,U3,6,PA7*%
%TO.N,unconnected-(U3-PA7-Pad6)*%
X86995000Y-112395000D03*
%TO.P,U3,7,PA6*%
%TO.N,/SDA*%
X86995000Y-114935000D03*
%TO.P,U3,8,PA5*%
%TO.N,unconnected-(U3-PA5-Pad8)*%
X94615000Y-114935000D03*
%TO.P,U3,9,PA4*%
%TO.N,/SCL*%
X94615000Y-112395000D03*
%TO.P,U3,10,PA3*%
%TO.N,unconnected-(U3-PA3-Pad10)*%
X94615000Y-109855000D03*
%TO.P,U3,11,PA2*%
%TO.N,unconnected-(U3-PA2-Pad11)*%
X94615000Y-107315000D03*
%TO.P,U3,12,PA1*%
%TO.N,unconnected-(U3-PA1-Pad12)*%
X94615000Y-104775000D03*
%TO.P,U3,13,AREF/PA0*%
%TO.N,Net-(J3-Pin_12)*%
X94615000Y-102235000D03*
%TO.P,U3,14,GND*%
%TO.N,GND*%
X94615000Y-99695000D03*
%TD*%
D11*
%TO.P,J6,1,Pin_1*%
%TO.N,GND*%
X102235000Y-112395000D03*
D12*
%TO.P,J6,2,Pin_2*%
%TO.N,+12V*%
X104775000Y-112395000D03*
%TO.P,J6,3,Pin_3*%
%TO.N,+5V*%
X102235000Y-114935000D03*
%TO.P,J6,4,Pin_4*%
%TO.N,Net-(J5-Pin_5)*%
X104775000Y-114935000D03*
%TO.P,J6,5,Pin_5*%
%TO.N,/LATCH*%
X102235000Y-117475000D03*
%TO.P,J6,6,Pin_6*%
%TO.N,/CLOCK*%
X104775000Y-117475000D03*
%TO.P,J6,7,Pin_7*%
%TO.N,unconnected-(J6-Pin_7-Pad7)*%
X102235000Y-120015000D03*
%TO.P,J6,8,Pin_8*%
%TO.N,/BTX*%
X104775000Y-120015000D03*
%TD*%
D23*
%TO.N,Net-(J1-D45_RST)*%
X55245000Y-93980000D03*
%TO.N,/SCL*%
X45720000Y-82550000D03*
%TO.N,Net-(J1-D6_NEO)*%
X58420000Y-75565000D03*
X65405000Y-82550000D03*
%TO.N,Net-(J1-KIOSK)*%
X66040000Y-79375000D03*
%TD*%
D24*
%TO.N,Net-(J1-D50_CIPO)*%
X66040000Y-93980000D02*
X66040000Y-85090000D01*
X66040000Y-85090000D02*
X50895000Y-69945000D01*
X50895000Y-69945000D02*
X48800000Y-69945000D01*
X48800000Y-69945000D02*
X47625000Y-71120000D01*
%TO.N,Net-(J1-D51_COPI)*%
X63500000Y-93980000D02*
X63500000Y-84455000D01*
X63500000Y-84455000D02*
X50165000Y-71120000D01*
%TO.N,Net-(J1-D52_SCK)*%
X59873000Y-94430251D02*
X59873000Y-84004396D01*
X50798604Y-74930000D02*
X48895000Y-74930000D01*
X60692749Y-95250000D02*
X59873000Y-94430251D01*
X67310000Y-95250000D02*
X60692749Y-95250000D01*
X48895000Y-74930000D02*
X47625000Y-73660000D01*
X68580000Y-93980000D02*
X67310000Y-95250000D01*
X59873000Y-84004396D02*
X50798604Y-74930000D01*
%TO.N,Net-(J1-D53_CS)*%
X60960000Y-84455000D02*
X60960000Y-93980000D01*
X50165000Y-73660000D02*
X60960000Y-84455000D01*
%TO.N,Net-(J1-D45_RST)*%
X47233299Y-90170000D02*
X51435000Y-90170000D01*
X51435000Y-90170000D02*
X55245000Y-93980000D01*
X47625000Y-76200000D02*
X44995000Y-78830000D01*
X44995000Y-78830000D02*
X44995000Y-87931701D01*
X44995000Y-87931701D02*
X47233299Y-90170000D01*
%TO.N,Net-(J1-D19_INT)*%
X69400000Y-95700000D02*
X58602749Y-95700000D01*
X71120000Y-93980000D02*
X69400000Y-95700000D01*
X52069302Y-78104302D02*
X50165000Y-76200000D01*
X58602749Y-95700000D02*
X52069302Y-89166553D01*
X52069302Y-89166553D02*
X52069302Y-78104302D01*
%TO.N,/SCL*%
X47233299Y-80010000D02*
X48895000Y-80010000D01*
X45720000Y-81523299D02*
X47233299Y-80010000D01*
X45720000Y-82550000D02*
X45720000Y-81523299D01*
X48895000Y-80010000D02*
X50165000Y-78740000D01*
%TO.N,/CLOCK*%
X102235000Y-65405000D02*
X103600000Y-66770000D01*
X105261701Y-66770000D02*
X106400000Y-67908299D01*
X106400000Y-67908299D02*
X106400000Y-115850000D01*
X103600000Y-66770000D02*
X105261701Y-66770000D01*
X106400000Y-115850000D02*
X104775000Y-117475000D01*
%TO.N,/LATCH*%
X106850000Y-64940000D02*
X104775000Y-62865000D01*
X105505000Y-118650000D02*
X106850000Y-117305000D01*
X106850000Y-117305000D02*
X106850000Y-64940000D01*
X102235000Y-117475000D02*
X103410000Y-118650000D01*
X103410000Y-118650000D02*
X105505000Y-118650000D01*
%TO.N,Net-(J1-D6_NEO)*%
X58420000Y-75565000D02*
X65405000Y-82550000D01*
%TO.N,/BTX*%
X103505000Y-121285000D02*
X104775000Y-120015000D01*
X46000000Y-98145000D02*
X46000000Y-111796701D01*
X83280000Y-113125000D02*
X91440000Y-121285000D01*
X47625000Y-96520000D02*
X46000000Y-98145000D01*
X46000000Y-111796701D02*
X47328299Y-113125000D01*
X91440000Y-121285000D02*
X103505000Y-121285000D01*
X47328299Y-113125000D02*
X83280000Y-113125000D01*
%TO.N,/B1*%
X78105000Y-96520000D02*
X50165000Y-96520000D01*
X78105000Y-52070000D02*
X76930000Y-53245000D01*
X80065000Y-94560000D02*
X78105000Y-96520000D01*
X76930000Y-61055000D02*
X80065000Y-64190000D01*
X76930000Y-53245000D02*
X76930000Y-61055000D01*
X80065000Y-64190000D02*
X80065000Y-94560000D01*
%TO.N,/B2*%
X80645000Y-56271701D02*
X79375000Y-55001701D01*
X48800000Y-97885000D02*
X77376396Y-97885000D01*
X77376396Y-97885000D02*
X80645000Y-94616396D01*
X47625000Y-99060000D02*
X48800000Y-97885000D01*
X80645000Y-94616396D02*
X80645000Y-56271701D01*
X79375000Y-53340000D02*
X80645000Y-52070000D01*
X79375000Y-55001701D02*
X79375000Y-53340000D01*
%TO.N,/B3*%
X76837792Y-99060000D02*
X50165000Y-99060000D01*
X81820000Y-53435000D02*
X81820000Y-94077792D01*
X83185000Y-52070000D02*
X81820000Y-53435000D01*
X81820000Y-94077792D02*
X76837792Y-99060000D01*
%TO.N,/B4*%
X91980000Y-88360000D02*
X91980000Y-54123299D01*
X47625000Y-101600000D02*
X46450000Y-102775000D01*
X72485000Y-107855000D02*
X91980000Y-88360000D01*
X86995000Y-53340000D02*
X85725000Y-52070000D01*
X46450000Y-107166701D02*
X47138299Y-107855000D01*
X46450000Y-102775000D02*
X46450000Y-107166701D01*
X91980000Y-54123299D02*
X91196701Y-53340000D01*
X47138299Y-107855000D02*
X72485000Y-107855000D01*
X91196701Y-53340000D02*
X86995000Y-53340000D01*
%TO.N,/B5*%
X84455000Y-93029493D02*
X84455000Y-51678299D01*
X84455000Y-51678299D02*
X85238299Y-50895000D01*
X87090000Y-50895000D02*
X88265000Y-52070000D01*
X85238299Y-50895000D02*
X87090000Y-50895000D01*
X75884493Y-101600000D02*
X84455000Y-93029493D01*
X50165000Y-101600000D02*
X75884493Y-101600000D01*
%TO.N,/LED1*%
X48990000Y-102775000D02*
X48990000Y-100870000D01*
X83185000Y-93663097D02*
X83185000Y-54610000D01*
X49530000Y-100330000D02*
X76518097Y-100330000D01*
X76518097Y-100330000D02*
X83185000Y-93663097D01*
X47625000Y-104140000D02*
X48990000Y-102775000D01*
X48990000Y-100870000D02*
X49530000Y-100330000D01*
%TO.N,/LED2*%
X85725000Y-92395889D02*
X85725000Y-54610000D01*
X73980889Y-104140000D02*
X85725000Y-92395889D01*
X50165000Y-104140000D02*
X73980889Y-104140000D01*
%TO.N,/LED3*%
X48800000Y-105505000D02*
X73252285Y-105505000D01*
X88265000Y-90492285D02*
X88265000Y-54610000D01*
X47625000Y-106680000D02*
X48800000Y-105505000D01*
X73252285Y-105505000D02*
X88265000Y-90492285D01*
%TO.N,/LED4*%
X72713681Y-106680000D02*
X90805000Y-88588681D01*
X50165000Y-106680000D02*
X72713681Y-106680000D01*
X90805000Y-88588681D02*
X90805000Y-54610000D01*
%TO.N,Net-(J1-KIOSK)*%
X66040000Y-79375000D02*
X66040000Y-69835000D01*
X66040000Y-69835000D02*
X61610000Y-65405000D01*
D25*
%TO.N,+5V*%
X102892578Y-104140000D02*
X99825000Y-101072422D01*
X86995000Y-99695000D02*
X90075000Y-96615000D01*
X99825000Y-101072422D02*
X99825000Y-96615000D01*
X99825000Y-89465000D02*
X100390000Y-88900000D01*
X68580000Y-54991000D02*
X78740000Y-65151000D01*
X90075000Y-96615000D02*
X99825000Y-96615000D01*
X99825000Y-96615000D02*
X99825000Y-89465000D01*
X100390000Y-88900000D02*
X103485000Y-88900000D01*
X78740000Y-65151000D02*
X78740000Y-93980000D01*
X103505000Y-104140000D02*
X102892578Y-104140000D01*
D24*
%TO.N,Net-(J3-Pin_12)*%
X84455000Y-97155000D02*
X84455000Y-99405000D01*
X92430000Y-89180000D02*
X84455000Y-97155000D01*
X84455000Y-99405000D02*
X86160000Y-101110000D01*
X93490000Y-101110000D02*
X94615000Y-102235000D01*
X86160000Y-101110000D02*
X93490000Y-101110000D01*
X92430000Y-53695000D02*
X92430000Y-89180000D01*
X90805000Y-52070000D02*
X92430000Y-53695000D01*
%TO.N,Net-(J5-Pin_5)*%
X105950000Y-80941701D02*
X101060000Y-76051701D01*
X105950000Y-113760000D02*
X105950000Y-80941701D01*
X101060000Y-76051701D02*
X101060000Y-64040000D01*
X101060000Y-64040000D02*
X102235000Y-62865000D01*
X104775000Y-114935000D02*
X105950000Y-113760000D01*
%TD*%
%TA.AperFunction,Conductor*%
%TO.N,GND*%
G36*
X98267539Y-98135185D02*
G01*
X98313294Y-98187989D01*
X98324500Y-98239500D01*
X98324500Y-100975403D01*
X98324024Y-100983073D01*
X98322637Y-100994205D01*
X98320643Y-101010201D01*
X98324500Y-101103457D01*
X98324500Y-101134486D01*
X98327062Y-101165412D01*
X98330918Y-101258655D01*
X98336526Y-101285405D01*
X98337635Y-101293012D01*
X98339891Y-101320240D01*
X98339891Y-101320241D01*
X98349433Y-101357922D01*
X98362801Y-101410710D01*
X98381951Y-101502036D01*
X98381952Y-101502038D01*
X98391882Y-101527489D01*
X98394227Y-101534809D01*
X98400937Y-101561303D01*
X98417911Y-101600000D01*
X98438420Y-101646757D01*
X98472344Y-101733697D01*
X98486332Y-101757172D01*
X98489852Y-101764010D01*
X98500825Y-101789026D01*
X98500827Y-101789029D01*
X98551860Y-101867142D01*
X98599634Y-101947316D01*
X98617296Y-101968169D01*
X98621887Y-101974326D01*
X98636836Y-101997207D01*
X98636837Y-101997208D01*
X98700033Y-102065857D01*
X98720100Y-102089551D01*
X98742049Y-102111500D01*
X98805257Y-102180161D01*
X98826822Y-102196946D01*
X98832587Y-102202037D01*
X101762970Y-105132419D01*
X101768054Y-105138177D01*
X101784836Y-105159739D01*
X101784843Y-105159747D01*
X101853511Y-105222961D01*
X101875449Y-105244899D01*
X101899130Y-105264955D01*
X101967793Y-105328164D01*
X101967795Y-105328165D01*
X101967796Y-105328166D01*
X101990664Y-105343106D01*
X101996828Y-105347702D01*
X102017684Y-105365366D01*
X102097850Y-105413134D01*
X102175971Y-105464173D01*
X102200992Y-105475148D01*
X102207823Y-105478664D01*
X102231304Y-105492655D01*
X102250123Y-105499998D01*
X102318229Y-105526574D01*
X102380694Y-105553973D01*
X102403697Y-105564063D01*
X102403701Y-105564064D01*
X102430187Y-105570771D01*
X102437510Y-105573116D01*
X102462964Y-105583049D01*
X102554280Y-105602196D01*
X102644757Y-105625108D01*
X102671993Y-105627364D01*
X102679596Y-105628471D01*
X102706341Y-105634080D01*
X102799572Y-105637936D01*
X102830511Y-105640500D01*
X102830513Y-105640500D01*
X102861552Y-105640500D01*
X102954799Y-105644357D01*
X102971492Y-105642276D01*
X102981920Y-105640977D01*
X102989596Y-105640500D01*
X103567065Y-105640500D01*
X103567067Y-105640500D01*
X103644545Y-105634080D01*
X103752813Y-105625109D01*
X103752816Y-105625108D01*
X103752821Y-105625108D01*
X103993881Y-105564063D01*
X104092185Y-105520942D01*
X104141994Y-105510499D01*
X104400002Y-105510499D01*
X104400008Y-105510499D01*
X104502797Y-105499999D01*
X104669334Y-105444814D01*
X104818656Y-105352712D01*
X104942712Y-105228656D01*
X105034814Y-105079334D01*
X105082794Y-104934537D01*
X105122567Y-104877094D01*
X105187082Y-104850271D01*
X105255858Y-104862586D01*
X105307058Y-104910129D01*
X105324500Y-104973543D01*
X105324500Y-110982496D01*
X105304815Y-111049535D01*
X105252011Y-111095290D01*
X105182853Y-111105234D01*
X105168408Y-111102271D01*
X105010416Y-111059939D01*
X105010412Y-111059938D01*
X105010408Y-111059937D01*
X105010406Y-111059936D01*
X105010403Y-111059936D01*
X104775001Y-111039341D01*
X104774999Y-111039341D01*
X104539596Y-111059936D01*
X104539586Y-111059938D01*
X104311344Y-111121094D01*
X104311335Y-111121098D01*
X104097171Y-111220964D01*
X104097169Y-111220965D01*
X103903600Y-111356503D01*
X103781284Y-111478819D01*
X103719961Y-111512303D01*
X103650269Y-111507319D01*
X103594336Y-111465447D01*
X103577421Y-111434470D01*
X103528354Y-111302913D01*
X103528350Y-111302906D01*
X103442190Y-111187812D01*
X103442187Y-111187809D01*
X103327093Y-111101649D01*
X103327086Y-111101645D01*
X103192379Y-111051403D01*
X103192372Y-111051401D01*
X103132844Y-111045000D01*
X102485000Y-111045000D01*
X102485000Y-111782698D01*
X102465315Y-111849737D01*
X102412511Y-111895492D01*
X102343355Y-111905436D01*
X102270766Y-111895000D01*
X102270763Y-111895000D01*
X102199237Y-111895000D01*
X102199233Y-111895000D01*
X102126645Y-111905436D01*
X102057487Y-111895492D01*
X102004684Y-111849736D01*
X101985000Y-111782698D01*
X101985000Y-111045000D01*
X101337155Y-111045000D01*
X101277627Y-111051401D01*
X101277620Y-111051403D01*
X101142913Y-111101645D01*
X101142906Y-111101649D01*
X101027812Y-111187809D01*
X101027809Y-111187812D01*
X100941649Y-111302906D01*
X100941645Y-111302913D01*
X100891403Y-111437620D01*
X100891401Y-111437627D01*
X100885000Y-111497155D01*
X100885000Y-112145000D01*
X101621653Y-112145000D01*
X101688692Y-112164685D01*
X101734447Y-112217489D01*
X101744391Y-112286647D01*
X101740631Y-112303933D01*
X101735000Y-112323111D01*
X101735000Y-112466888D01*
X101740631Y-112486067D01*
X101740630Y-112555936D01*
X101702855Y-112614714D01*
X101639299Y-112643738D01*
X101621653Y-112645000D01*
X100885000Y-112645000D01*
X100885000Y-113292844D01*
X100891401Y-113352372D01*
X100891403Y-113352379D01*
X100941645Y-113487086D01*
X100941649Y-113487093D01*
X101027809Y-113602187D01*
X101027812Y-113602190D01*
X101142906Y-113688350D01*
X101142913Y-113688354D01*
X101274470Y-113737421D01*
X101330403Y-113779292D01*
X101354821Y-113844756D01*
X101339970Y-113913029D01*
X101318819Y-113941284D01*
X101196503Y-114063600D01*
X101060965Y-114257169D01*
X101060964Y-114257171D01*
X100961098Y-114471335D01*
X100961094Y-114471344D01*
X100899938Y-114699586D01*
X100899936Y-114699596D01*
X100879341Y-114934999D01*
X100879341Y-114935000D01*
X100899936Y-115170403D01*
X100899938Y-115170413D01*
X100961094Y-115398655D01*
X100961096Y-115398659D01*
X100961097Y-115398663D01*
X101030500Y-115547498D01*
X101060965Y-115612830D01*
X101060967Y-115612834D01*
X101169281Y-115767521D01*
X101196501Y-115806396D01*
X101196506Y-115806402D01*
X101363597Y-115973493D01*
X101363603Y-115973498D01*
X101549158Y-116103425D01*
X101592783Y-116158002D01*
X101599977Y-116227500D01*
X101568454Y-116289855D01*
X101549158Y-116306575D01*
X101363597Y-116436505D01*
X101196505Y-116603597D01*
X101060965Y-116797169D01*
X101060964Y-116797171D01*
X100961098Y-117011335D01*
X100961094Y-117011344D01*
X100899938Y-117239586D01*
X100899936Y-117239596D01*
X100879341Y-117474999D01*
X100879341Y-117475000D01*
X100899936Y-117710403D01*
X100899938Y-117710413D01*
X100961094Y-117938655D01*
X100961096Y-117938659D01*
X100961097Y-117938663D01*
X101032724Y-118092267D01*
X101060965Y-118152830D01*
X101060967Y-118152834D01*
X101196501Y-118346395D01*
X101196506Y-118346402D01*
X101363597Y-118513493D01*
X101363603Y-118513498D01*
X101549158Y-118643425D01*
X101592783Y-118698002D01*
X101599977Y-118767500D01*
X101568454Y-118829855D01*
X101549158Y-118846575D01*
X101363597Y-118976505D01*
X101196505Y-119143597D01*
X101060965Y-119337169D01*
X101060964Y-119337171D01*
X100961098Y-119551335D01*
X100961094Y-119551344D01*
X100899938Y-119779586D01*
X100899936Y-119779596D01*
X100879341Y-120014999D01*
X100879341Y-120015000D01*
X100899936Y-120250403D01*
X100899938Y-120250413D01*
X100961094Y-120478655D01*
X100961099Y-120478669D01*
X100963163Y-120483094D01*
X100973656Y-120552171D01*
X100945137Y-120615955D01*
X100886661Y-120654196D01*
X100850782Y-120659500D01*
X91750452Y-120659500D01*
X91683413Y-120639815D01*
X91662771Y-120623181D01*
X89784591Y-118745001D01*
X93944532Y-118745001D01*
X93964364Y-118971686D01*
X93964366Y-118971697D01*
X94023258Y-119191488D01*
X94023261Y-119191497D01*
X94119431Y-119397732D01*
X94119432Y-119397734D01*
X94249954Y-119584141D01*
X94410858Y-119745045D01*
X94410861Y-119745047D01*
X94597266Y-119875568D01*
X94803504Y-119971739D01*
X95023308Y-120030635D01*
X95185230Y-120044801D01*
X95249998Y-120050468D01*
X95250000Y-120050468D01*
X95250002Y-120050468D01*
X95306672Y-120045509D01*
X95476692Y-120030635D01*
X95696496Y-119971739D01*
X95902734Y-119875568D01*
X96089139Y-119745047D01*
X96250047Y-119584139D01*
X96380568Y-119397734D01*
X96476739Y-119191496D01*
X96535635Y-118971692D01*
X96555468Y-118745000D01*
X96535635Y-118518308D01*
X96476739Y-118298504D01*
X96380568Y-118092266D01*
X96250047Y-117905861D01*
X96250045Y-117905858D01*
X96089141Y-117744954D01*
X95902734Y-117614432D01*
X95902732Y-117614431D01*
X95696497Y-117518261D01*
X95696488Y-117518258D01*
X95476697Y-117459366D01*
X95476693Y-117459365D01*
X95476692Y-117459365D01*
X95476691Y-117459364D01*
X95476686Y-117459364D01*
X95250002Y-117439532D01*
X95249998Y-117439532D01*
X95023313Y-117459364D01*
X95023302Y-117459366D01*
X94803511Y-117518258D01*
X94803502Y-117518261D01*
X94597267Y-117614431D01*
X94597265Y-117614432D01*
X94410858Y-117744954D01*
X94249954Y-117905858D01*
X94119432Y-118092265D01*
X94119431Y-118092267D01*
X94023261Y-118298502D01*
X94023258Y-118298511D01*
X93964366Y-118518302D01*
X93964364Y-118518313D01*
X93944532Y-118744998D01*
X93944532Y-118745001D01*
X89784591Y-118745001D01*
X87402927Y-116363336D01*
X87369442Y-116302013D01*
X87374426Y-116232321D01*
X87416298Y-116176388D01*
X87438204Y-116163273D01*
X87441490Y-116161740D01*
X87441496Y-116161739D01*
X87647734Y-116065568D01*
X87834139Y-115935047D01*
X87995047Y-115774139D01*
X88125568Y-115587734D01*
X88221739Y-115381496D01*
X88280635Y-115161692D01*
X88300468Y-114935000D01*
X88280635Y-114708308D01*
X88221739Y-114488504D01*
X88125568Y-114282266D01*
X87995047Y-114095861D01*
X87995045Y-114095858D01*
X87834141Y-113934954D01*
X87647734Y-113804432D01*
X87647728Y-113804429D01*
X87589725Y-113777382D01*
X87537285Y-113731210D01*
X87518133Y-113664017D01*
X87538348Y-113597135D01*
X87589725Y-113552618D01*
X87647734Y-113525568D01*
X87834139Y-113395047D01*
X87995047Y-113234139D01*
X88125568Y-113047734D01*
X88221739Y-112841496D01*
X88280635Y-112621692D01*
X88300468Y-112395000D01*
X88280635Y-112168308D01*
X88221739Y-111948504D01*
X88125568Y-111742266D01*
X87995047Y-111555861D01*
X87995045Y-111555858D01*
X87834141Y-111394954D01*
X87647734Y-111264432D01*
X87647728Y-111264429D01*
X87589725Y-111237382D01*
X87537285Y-111191210D01*
X87518133Y-111124017D01*
X87538348Y-111057135D01*
X87589725Y-111012618D01*
X87647734Y-110985568D01*
X87834139Y-110855047D01*
X87995047Y-110694139D01*
X88125568Y-110507734D01*
X88221739Y-110301496D01*
X88280635Y-110081692D01*
X88300468Y-109855000D01*
X88280635Y-109628308D01*
X88221739Y-109408504D01*
X88125568Y-109202266D01*
X87995047Y-109015861D01*
X87995045Y-109015858D01*
X87834141Y-108854954D01*
X87647734Y-108724432D01*
X87647728Y-108724429D01*
X87589725Y-108697382D01*
X87537285Y-108651210D01*
X87518133Y-108584017D01*
X87538348Y-108517135D01*
X87589725Y-108472618D01*
X87647734Y-108445568D01*
X87834139Y-108315047D01*
X87995047Y-108154139D01*
X88125568Y-107967734D01*
X88221739Y-107761496D01*
X88280635Y-107541692D01*
X88300468Y-107315000D01*
X88280635Y-107088308D01*
X88221739Y-106868504D01*
X88125568Y-106662266D01*
X87995047Y-106475861D01*
X87995045Y-106475858D01*
X87834141Y-106314954D01*
X87647734Y-106184432D01*
X87647728Y-106184429D01*
X87589725Y-106157382D01*
X87537285Y-106111210D01*
X87518133Y-106044017D01*
X87538348Y-105977135D01*
X87589725Y-105932618D01*
X87647734Y-105905568D01*
X87834139Y-105775047D01*
X87995047Y-105614139D01*
X88125568Y-105427734D01*
X88221739Y-105221496D01*
X88280635Y-105001692D01*
X88300468Y-104775000D01*
X88280635Y-104548308D01*
X88221739Y-104328504D01*
X88125568Y-104122266D01*
X87995047Y-103935861D01*
X87995045Y-103935858D01*
X87834141Y-103774954D01*
X87647734Y-103644432D01*
X87647728Y-103644429D01*
X87589725Y-103617382D01*
X87537285Y-103571210D01*
X87518133Y-103504017D01*
X87538348Y-103437135D01*
X87589725Y-103392618D01*
X87647734Y-103365568D01*
X87834139Y-103235047D01*
X87995047Y-103074139D01*
X88125568Y-102887734D01*
X88221739Y-102681496D01*
X88280635Y-102461692D01*
X88300468Y-102235000D01*
X88296968Y-102195000D01*
X88287743Y-102089551D01*
X88280635Y-102008308D01*
X88262319Y-101939951D01*
X88249362Y-101891593D01*
X88251025Y-101821743D01*
X88290188Y-101763881D01*
X88354417Y-101736377D01*
X88369137Y-101735500D01*
X93179547Y-101735500D01*
X93246586Y-101755185D01*
X93267229Y-101771820D01*
X93315587Y-101820179D01*
X93349071Y-101881502D01*
X93347680Y-101939951D01*
X93329367Y-102008300D01*
X93329364Y-102008313D01*
X93309532Y-102234999D01*
X93309532Y-102235001D01*
X93329364Y-102461686D01*
X93329366Y-102461697D01*
X93388258Y-102681488D01*
X93388261Y-102681497D01*
X93484431Y-102887732D01*
X93484432Y-102887734D01*
X93614954Y-103074141D01*
X93775858Y-103235045D01*
X93775861Y-103235047D01*
X93962266Y-103365568D01*
X94020275Y-103392618D01*
X94072714Y-103438791D01*
X94091866Y-103505984D01*
X94071650Y-103572865D01*
X94020275Y-103617382D01*
X93962267Y-103644431D01*
X93962265Y-103644432D01*
X93775858Y-103774954D01*
X93614954Y-103935858D01*
X93484432Y-104122265D01*
X93484431Y-104122267D01*
X93388261Y-104328502D01*
X93388258Y-104328511D01*
X93329366Y-104548302D01*
X93329364Y-104548313D01*
X93309532Y-104774998D01*
X93309532Y-104775001D01*
X93329364Y-105001686D01*
X93329366Y-105001697D01*
X93388258Y-105221488D01*
X93388261Y-105221497D01*
X93484431Y-105427732D01*
X93484432Y-105427734D01*
X93614954Y-105614141D01*
X93775858Y-105775045D01*
X93775861Y-105775047D01*
X93962266Y-105905568D01*
X94020275Y-105932618D01*
X94072714Y-105978791D01*
X94091866Y-106045984D01*
X94071650Y-106112865D01*
X94020275Y-106157382D01*
X93962267Y-106184431D01*
X93962265Y-106184432D01*
X93775858Y-106314954D01*
X93614954Y-106475858D01*
X93484432Y-106662265D01*
X93484431Y-106662267D01*
X93388261Y-106868502D01*
X93388258Y-106868511D01*
X93329366Y-107088302D01*
X93329364Y-107088313D01*
X93309532Y-107314998D01*
X93309532Y-107315001D01*
X93329364Y-107541686D01*
X93329366Y-107541697D01*
X93388258Y-107761488D01*
X93388261Y-107761497D01*
X93484431Y-107967732D01*
X93484432Y-107967734D01*
X93614954Y-108154141D01*
X93775858Y-108315045D01*
X93775861Y-108315047D01*
X93962266Y-108445568D01*
X94020275Y-108472618D01*
X94072714Y-108518791D01*
X94091866Y-108585984D01*
X94071650Y-108652865D01*
X94020275Y-108697382D01*
X93962267Y-108724431D01*
X93962265Y-108724432D01*
X93775858Y-108854954D01*
X93614954Y-109015858D01*
X93484432Y-109202265D01*
X93484431Y-109202267D01*
X93388261Y-109408502D01*
X93388258Y-109408511D01*
X93329366Y-109628302D01*
X93329364Y-109628313D01*
X93309532Y-109854998D01*
X93309532Y-109855001D01*
X93329364Y-110081686D01*
X93329366Y-110081697D01*
X93388258Y-110301488D01*
X93388261Y-110301497D01*
X93484431Y-110507732D01*
X93484432Y-110507734D01*
X93614954Y-110694141D01*
X93775858Y-110855045D01*
X93775861Y-110855047D01*
X93962266Y-110985568D01*
X94020275Y-111012618D01*
X94072714Y-111058791D01*
X94091866Y-111125984D01*
X94071650Y-111192865D01*
X94020275Y-111237382D01*
X93962267Y-111264431D01*
X93962265Y-111264432D01*
X93775858Y-111394954D01*
X93614954Y-111555858D01*
X93484432Y-111742265D01*
X93484431Y-111742267D01*
X93388261Y-111948502D01*
X93388258Y-111948511D01*
X93329366Y-112168302D01*
X93329364Y-112168313D01*
X93309532Y-112394998D01*
X93309532Y-112395001D01*
X93329364Y-112621686D01*
X93329366Y-112621697D01*
X93388258Y-112841488D01*
X93388261Y-112841497D01*
X93484431Y-113047732D01*
X93484432Y-113047734D01*
X93614954Y-113234141D01*
X93775858Y-113395045D01*
X93775861Y-113395047D01*
X93962266Y-113525568D01*
X94020275Y-113552618D01*
X94072714Y-113598791D01*
X94091866Y-113665984D01*
X94071650Y-113732865D01*
X94020275Y-113777382D01*
X93962267Y-113804431D01*
X93962265Y-113804432D01*
X93775858Y-113934954D01*
X93614954Y-114095858D01*
X93484432Y-114282265D01*
X93484431Y-114282267D01*
X93388261Y-114488502D01*
X93388258Y-114488511D01*
X93329366Y-114708302D01*
X93329364Y-114708313D01*
X93309532Y-114934998D01*
X93309532Y-114935001D01*
X93329364Y-115161686D01*
X93329366Y-115161697D01*
X93388258Y-115381488D01*
X93388261Y-115381497D01*
X93484431Y-115587732D01*
X93484432Y-115587734D01*
X93614954Y-115774141D01*
X93775858Y-115935045D01*
X93775861Y-115935047D01*
X93962266Y-116065568D01*
X94168504Y-116161739D01*
X94168509Y-116161740D01*
X94168511Y-116161741D01*
X94170116Y-116162171D01*
X94388308Y-116220635D01*
X94550230Y-116234801D01*
X94614998Y-116240468D01*
X94615000Y-116240468D01*
X94615002Y-116240468D01*
X94671672Y-116235509D01*
X94841692Y-116220635D01*
X95061496Y-116161739D01*
X95267734Y-116065568D01*
X95454139Y-115935047D01*
X95615047Y-115774139D01*
X95745568Y-115587734D01*
X95841739Y-115381496D01*
X95900635Y-115161692D01*
X95920468Y-114935000D01*
X95900635Y-114708308D01*
X95841739Y-114488504D01*
X95745568Y-114282266D01*
X95615047Y-114095861D01*
X95615045Y-114095858D01*
X95454141Y-113934954D01*
X95267734Y-113804432D01*
X95267728Y-113804429D01*
X95209725Y-113777382D01*
X95157285Y-113731210D01*
X95138133Y-113664017D01*
X95158348Y-113597135D01*
X95209725Y-113552618D01*
X95267734Y-113525568D01*
X95454139Y-113395047D01*
X95615047Y-113234139D01*
X95745568Y-113047734D01*
X95841739Y-112841496D01*
X95900635Y-112621692D01*
X95920468Y-112395000D01*
X95900635Y-112168308D01*
X95841739Y-111948504D01*
X95745568Y-111742266D01*
X95615047Y-111555861D01*
X95615045Y-111555858D01*
X95454141Y-111394954D01*
X95267734Y-111264432D01*
X95267728Y-111264429D01*
X95209725Y-111237382D01*
X95157285Y-111191210D01*
X95138133Y-111124017D01*
X95158348Y-111057135D01*
X95209725Y-111012618D01*
X95267734Y-110985568D01*
X95454139Y-110855047D01*
X95615047Y-110694139D01*
X95745568Y-110507734D01*
X95841739Y-110301496D01*
X95900635Y-110081692D01*
X95920468Y-109855000D01*
X95900635Y-109628308D01*
X95841739Y-109408504D01*
X95745568Y-109202266D01*
X95615047Y-109015861D01*
X95615045Y-109015858D01*
X95454141Y-108854954D01*
X95267734Y-108724432D01*
X95267728Y-108724429D01*
X95209725Y-108697382D01*
X95157285Y-108651210D01*
X95138133Y-108584017D01*
X95158348Y-108517135D01*
X95209725Y-108472618D01*
X95267734Y-108445568D01*
X95454139Y-108315047D01*
X95615047Y-108154139D01*
X95745568Y-107967734D01*
X95841739Y-107761496D01*
X95900635Y-107541692D01*
X95920468Y-107315000D01*
X95900635Y-107088308D01*
X95841739Y-106868504D01*
X95745568Y-106662266D01*
X95615047Y-106475861D01*
X95615045Y-106475858D01*
X95454141Y-106314954D01*
X95267734Y-106184432D01*
X95267728Y-106184429D01*
X95209725Y-106157382D01*
X95157285Y-106111210D01*
X95138133Y-106044017D01*
X95158348Y-105977135D01*
X95209725Y-105932618D01*
X95267734Y-105905568D01*
X95454139Y-105775047D01*
X95615047Y-105614139D01*
X95745568Y-105427734D01*
X95841739Y-105221496D01*
X95900635Y-105001692D01*
X95920468Y-104775000D01*
X95900635Y-104548308D01*
X95841739Y-104328504D01*
X95745568Y-104122266D01*
X95615047Y-103935861D01*
X95615045Y-103935858D01*
X95454141Y-103774954D01*
X95267734Y-103644432D01*
X95267728Y-103644429D01*
X95209725Y-103617382D01*
X95157285Y-103571210D01*
X95138133Y-103504017D01*
X95158348Y-103437135D01*
X95209725Y-103392618D01*
X95267734Y-103365568D01*
X95454139Y-103235047D01*
X95615047Y-103074139D01*
X95745568Y-102887734D01*
X95841739Y-102681496D01*
X95900635Y-102461692D01*
X95920468Y-102235000D01*
X95916968Y-102195000D01*
X95907743Y-102089551D01*
X95900635Y-102008308D01*
X95841739Y-101788504D01*
X95745568Y-101582266D01*
X95615047Y-101395861D01*
X95615045Y-101395858D01*
X95454141Y-101234954D01*
X95267734Y-101104432D01*
X95267732Y-101104431D01*
X95256275Y-101099088D01*
X95209132Y-101077105D01*
X95156694Y-101030934D01*
X95137542Y-100963740D01*
X95157758Y-100896859D01*
X95209134Y-100852341D01*
X95267484Y-100825132D01*
X95453820Y-100694657D01*
X95614657Y-100533820D01*
X95745134Y-100347482D01*
X95841265Y-100141326D01*
X95841269Y-100141317D01*
X95893872Y-99945000D01*
X95125576Y-99945000D01*
X95058537Y-99925315D01*
X95012782Y-99872511D01*
X95002838Y-99803353D01*
X95003103Y-99801603D01*
X95019986Y-99695003D01*
X95019986Y-99694996D01*
X95003103Y-99588397D01*
X95012058Y-99519104D01*
X95057054Y-99465652D01*
X95123806Y-99445013D01*
X95125576Y-99445000D01*
X95893872Y-99445000D01*
X95893872Y-99444999D01*
X95841269Y-99248682D01*
X95841265Y-99248673D01*
X95745134Y-99042517D01*
X95614657Y-98856179D01*
X95453820Y-98695342D01*
X95267482Y-98564865D01*
X95061328Y-98468734D01*
X94865000Y-98416127D01*
X94865000Y-99184424D01*
X94845315Y-99251463D01*
X94792511Y-99297218D01*
X94723353Y-99307162D01*
X94721602Y-99306897D01*
X94646486Y-99295000D01*
X94646481Y-99295000D01*
X94583519Y-99295000D01*
X94583514Y-99295000D01*
X94508398Y-99306897D01*
X94439104Y-99297942D01*
X94385652Y-99252946D01*
X94365013Y-99186194D01*
X94365000Y-99184424D01*
X94365000Y-98416127D01*
X94168671Y-98468734D01*
X93962517Y-98564865D01*
X93776179Y-98695342D01*
X93615342Y-98856179D01*
X93484865Y-99042517D01*
X93388734Y-99248673D01*
X93388730Y-99248682D01*
X93336127Y-99444999D01*
X93336128Y-99445000D01*
X94104424Y-99445000D01*
X94171463Y-99464685D01*
X94217218Y-99517489D01*
X94227162Y-99586647D01*
X94226897Y-99588397D01*
X94210014Y-99694996D01*
X94210014Y-99695003D01*
X94226897Y-99801603D01*
X94217942Y-99870896D01*
X94172946Y-99924348D01*
X94106194Y-99944987D01*
X94104424Y-99945000D01*
X93336128Y-99945000D01*
X93388730Y-100141317D01*
X93388734Y-100141326D01*
X93466499Y-100308095D01*
X93476991Y-100377173D01*
X93448471Y-100440957D01*
X93389994Y-100479196D01*
X93354117Y-100484500D01*
X88626890Y-100484500D01*
X88559851Y-100464815D01*
X88514096Y-100412011D01*
X88504152Y-100342853D01*
X88533177Y-100279297D01*
X88539209Y-100272819D01*
X90660209Y-98151819D01*
X90721532Y-98118334D01*
X90747890Y-98115500D01*
X98200500Y-98115500D01*
X98267539Y-98135185D01*
G37*
%TD.AperFunction*%
%TA.AperFunction,Conductor*%
G36*
X101884223Y-90420185D02*
G01*
X101929978Y-90472989D01*
X101939922Y-90542147D01*
X101934890Y-90563504D01*
X101900494Y-90667302D01*
X101900493Y-90667309D01*
X101890000Y-90770013D01*
X101890000Y-91190000D01*
X102776384Y-91190000D01*
X102843423Y-91209685D01*
X102889178Y-91262489D01*
X102899323Y-91330185D01*
X102884866Y-91439998D01*
X102884866Y-91440001D01*
X102899323Y-91549815D01*
X102888557Y-91618850D01*
X102842177Y-91671106D01*
X102776384Y-91690000D01*
X101890001Y-91690000D01*
X101890001Y-92109986D01*
X101900494Y-92212697D01*
X101955641Y-92379119D01*
X101955643Y-92379124D01*
X102047684Y-92528345D01*
X102171654Y-92652315D01*
X102320875Y-92744356D01*
X102320880Y-92744358D01*
X102487302Y-92799505D01*
X102487309Y-92799506D01*
X102590019Y-92809999D01*
X103234999Y-92809999D01*
X103235000Y-92809998D01*
X103235000Y-92148615D01*
X103254685Y-92081576D01*
X103307489Y-92035821D01*
X103375183Y-92025676D01*
X103446003Y-92035000D01*
X103446010Y-92035000D01*
X103523990Y-92035000D01*
X103523997Y-92035000D01*
X103594816Y-92025676D01*
X103663849Y-92036441D01*
X103716105Y-92082820D01*
X103735000Y-92148615D01*
X103735000Y-92809999D01*
X104379972Y-92809999D01*
X104379986Y-92809998D01*
X104482697Y-92799505D01*
X104649119Y-92744358D01*
X104649124Y-92744356D01*
X104798345Y-92652315D01*
X104922315Y-92528345D01*
X105014356Y-92379124D01*
X105014358Y-92379119D01*
X105069505Y-92212697D01*
X105069506Y-92212690D01*
X105077142Y-92137954D01*
X105103538Y-92073263D01*
X105160719Y-92033111D01*
X105230530Y-92030248D01*
X105290807Y-92065582D01*
X105322412Y-92127895D01*
X105324500Y-92150557D01*
X105324500Y-96249424D01*
X105304815Y-96316463D01*
X105252011Y-96362218D01*
X105182853Y-96372162D01*
X105119297Y-96343137D01*
X105081523Y-96284359D01*
X105079283Y-96275548D01*
X105069514Y-96230220D01*
X105045164Y-96117235D01*
X104958179Y-95900765D01*
X104835862Y-95702109D01*
X104681731Y-95526982D01*
X104681729Y-95526980D01*
X104681726Y-95526977D01*
X104500226Y-95380426D01*
X104500220Y-95380421D01*
X104296554Y-95266646D01*
X104076591Y-95188929D01*
X104076586Y-95188927D01*
X104076584Y-95188927D01*
X104076580Y-95188926D01*
X104076579Y-95188926D01*
X103846655Y-95149500D01*
X103846647Y-95149500D01*
X103221784Y-95149500D01*
X103221779Y-95149500D01*
X103047553Y-95164328D01*
X103047551Y-95164329D01*
X102821781Y-95223114D01*
X102609197Y-95319208D01*
X102415911Y-95449847D01*
X102415909Y-95449849D01*
X102247483Y-95611272D01*
X102247482Y-95611273D01*
X102108762Y-95798834D01*
X102003733Y-96007147D01*
X102003730Y-96007153D01*
X101935416Y-96230223D01*
X101905784Y-96461624D01*
X101915685Y-96694700D01*
X101915686Y-96694709D01*
X101964836Y-96922766D01*
X101964837Y-96922769D01*
X102051819Y-97139231D01*
X102051821Y-97139235D01*
X102174138Y-97337891D01*
X102254083Y-97428726D01*
X102328270Y-97513019D01*
X102328273Y-97513022D01*
X102509773Y-97659573D01*
X102509775Y-97659574D01*
X102509780Y-97659578D01*
X102550102Y-97682103D01*
X102599028Y-97731983D01*
X102613220Y-97800396D01*
X102588172Y-97865622D01*
X102559065Y-97893092D01*
X102415907Y-97989850D01*
X102247483Y-98151272D01*
X102247482Y-98151273D01*
X102108762Y-98338834D01*
X102003733Y-98547147D01*
X102003730Y-98547153D01*
X101935416Y-98770223D01*
X101905784Y-99001624D01*
X101915685Y-99234700D01*
X101915686Y-99234709D01*
X101964836Y-99462766D01*
X101964837Y-99462769D01*
X102024260Y-99610647D01*
X102051821Y-99679235D01*
X102174138Y-99877891D01*
X102254083Y-99968726D01*
X102328270Y-100053019D01*
X102328273Y-100053022D01*
X102509773Y-100199573D01*
X102509779Y-100199578D01*
X102550590Y-100222376D01*
X102599517Y-100272256D01*
X102613709Y-100340669D01*
X102588661Y-100405895D01*
X102559553Y-100433365D01*
X102416228Y-100530235D01*
X102247860Y-100691603D01*
X102247859Y-100691604D01*
X102109189Y-100879097D01*
X102067215Y-100962349D01*
X102019456Y-101013348D01*
X101951707Y-101030432D01*
X101885477Y-101008175D01*
X101868811Y-100994205D01*
X101361819Y-100487213D01*
X101328334Y-100425890D01*
X101325500Y-100399532D01*
X101325500Y-90524500D01*
X101345185Y-90457461D01*
X101397989Y-90411706D01*
X101449500Y-90400500D01*
X101817184Y-90400500D01*
X101884223Y-90420185D01*
G37*
%TD.AperFunction*%
%TA.AperFunction,Conductor*%
G36*
X76703099Y-94134135D02*
G01*
X76725322Y-94151769D01*
X77251740Y-94678187D01*
X77275122Y-94676141D01*
X77279838Y-94672372D01*
X77349336Y-94665176D01*
X77411692Y-94696695D01*
X77430650Y-94719296D01*
X77477495Y-94790998D01*
X77551836Y-94904785D01*
X77720256Y-95087738D01*
X77916491Y-95240474D01*
X77916493Y-95240475D01*
X78135188Y-95358827D01*
X78139885Y-95360887D01*
X78138903Y-95363125D01*
X78187645Y-95397555D01*
X78213861Y-95462320D01*
X78200900Y-95530977D01*
X78178149Y-95562259D01*
X77882228Y-95858181D01*
X77820905Y-95891666D01*
X77794547Y-95894500D01*
X70389452Y-95894500D01*
X70322413Y-95874815D01*
X70276658Y-95822011D01*
X70266714Y-95752853D01*
X70295739Y-95689297D01*
X70301771Y-95682819D01*
X70503089Y-95481501D01*
X70736205Y-95248384D01*
X70797526Y-95214901D01*
X70855976Y-95216291D01*
X70899932Y-95228070D01*
X71057123Y-95241822D01*
X71119998Y-95247323D01*
X71120000Y-95247323D01*
X71120002Y-95247323D01*
X71175017Y-95242509D01*
X71340068Y-95228070D01*
X71553450Y-95170894D01*
X71753662Y-95077534D01*
X71934620Y-94950826D01*
X72090826Y-94794620D01*
X72217534Y-94613662D01*
X72277617Y-94484811D01*
X72323790Y-94432371D01*
X72390983Y-94413219D01*
X72457865Y-94433435D01*
X72502382Y-94484811D01*
X72562464Y-94613658D01*
X72562468Y-94613666D01*
X72689170Y-94794615D01*
X72689175Y-94794621D01*
X72845378Y-94950824D01*
X72845384Y-94950829D01*
X73026333Y-95077531D01*
X73026335Y-95077532D01*
X73026338Y-95077534D01*
X73226550Y-95170894D01*
X73439932Y-95228070D01*
X73597123Y-95241822D01*
X73659998Y-95247323D01*
X73660000Y-95247323D01*
X73660002Y-95247323D01*
X73715016Y-95242509D01*
X73880068Y-95228070D01*
X74093450Y-95170894D01*
X74293662Y-95077534D01*
X74474620Y-94950826D01*
X74630826Y-94794620D01*
X74757534Y-94613662D01*
X74817894Y-94484218D01*
X74864066Y-94431779D01*
X74931259Y-94412627D01*
X74998141Y-94432843D01*
X75042658Y-94484219D01*
X75102899Y-94613407D01*
X75102900Y-94613409D01*
X75148258Y-94678187D01*
X75677050Y-94149395D01*
X75738373Y-94115910D01*
X75808064Y-94120894D01*
X75863998Y-94162765D01*
X75868539Y-94169254D01*
X75915813Y-94241612D01*
X76016157Y-94319713D01*
X76016160Y-94319714D01*
X76016511Y-94319987D01*
X76057324Y-94376697D01*
X76060999Y-94446470D01*
X76028030Y-94505522D01*
X75501811Y-95031741D01*
X75566582Y-95077094D01*
X75566592Y-95077100D01*
X75766715Y-95170419D01*
X75766729Y-95170424D01*
X75980013Y-95227573D01*
X75980023Y-95227575D01*
X76199999Y-95246821D01*
X76200001Y-95246821D01*
X76419976Y-95227575D01*
X76419986Y-95227573D01*
X76633270Y-95170424D01*
X76633284Y-95170419D01*
X76833408Y-95077100D01*
X76833420Y-95077093D01*
X76898186Y-95031742D01*
X76898187Y-95031740D01*
X76369276Y-94502829D01*
X76335791Y-94441506D01*
X76340775Y-94371814D01*
X76382647Y-94315881D01*
X76397933Y-94306097D01*
X76437251Y-94284820D01*
X76523371Y-94191269D01*
X76524083Y-94189643D01*
X76525652Y-94187777D01*
X76528992Y-94182666D01*
X76529609Y-94183069D01*
X76569036Y-94136158D01*
X76635770Y-94115464D01*
X76703099Y-94134135D01*
G37*
%TD.AperFunction*%
%TA.AperFunction,Conductor*%
G36*
X78282512Y-55109507D02*
G01*
X78335315Y-55155262D01*
X78355000Y-55222301D01*
X78355000Y-55960000D01*
X79002828Y-55960000D01*
X79002844Y-55959999D01*
X79062372Y-55953598D01*
X79062376Y-55953597D01*
X79197088Y-55903352D01*
X79197090Y-55903351D01*
X79222573Y-55884274D01*
X79288036Y-55859855D01*
X79356310Y-55874705D01*
X79384567Y-55895858D01*
X79983181Y-56494472D01*
X80016666Y-56555795D01*
X80019500Y-56582153D01*
X80019500Y-62960546D01*
X79999815Y-63027585D01*
X79947011Y-63073340D01*
X79877853Y-63083284D01*
X79814297Y-63054259D01*
X79807819Y-63048227D01*
X77591819Y-60832228D01*
X77558334Y-60770905D01*
X77555500Y-60744547D01*
X77555500Y-56084000D01*
X77575185Y-56016961D01*
X77627989Y-55971206D01*
X77679500Y-55960000D01*
X77855000Y-55960000D01*
X77855000Y-55222301D01*
X77874685Y-55155262D01*
X77927489Y-55109507D01*
X77996647Y-55099563D01*
X78069237Y-55110000D01*
X78069238Y-55110000D01*
X78140762Y-55110000D01*
X78140763Y-55110000D01*
X78213353Y-55099563D01*
X78282512Y-55109507D01*
G37*
%TD.AperFunction*%
%TA.AperFunction,Conductor*%
G36*
X109163039Y-47087223D02*
G01*
X109208794Y-47140027D01*
X109220000Y-47191538D01*
X109220000Y-126798462D01*
X109200315Y-126865501D01*
X109147511Y-126911256D01*
X109096000Y-126922462D01*
X42669000Y-126922462D01*
X42601961Y-126902777D01*
X42556206Y-126849973D01*
X42545000Y-126798462D01*
X42545000Y-119380002D01*
X67312677Y-119380002D01*
X67331929Y-119600062D01*
X67331930Y-119600070D01*
X67389104Y-119813445D01*
X67389105Y-119813447D01*
X67389106Y-119813450D01*
X67418072Y-119875567D01*
X67482466Y-120013662D01*
X67482468Y-120013666D01*
X67609170Y-120194615D01*
X67609175Y-120194621D01*
X67765378Y-120350824D01*
X67765384Y-120350829D01*
X67946333Y-120477531D01*
X67946335Y-120477532D01*
X67946338Y-120477534D01*
X68146550Y-120570894D01*
X68359932Y-120628070D01*
X68517123Y-120641822D01*
X68579998Y-120647323D01*
X68580000Y-120647323D01*
X68580002Y-120647323D01*
X68635017Y-120642509D01*
X68800068Y-120628070D01*
X69013450Y-120570894D01*
X69213662Y-120477534D01*
X69394620Y-120350826D01*
X69550826Y-120194620D01*
X69677534Y-120013662D01*
X69737617Y-119884811D01*
X69783790Y-119832371D01*
X69850983Y-119813219D01*
X69917865Y-119833435D01*
X69962382Y-119884811D01*
X70022464Y-120013658D01*
X70022468Y-120013666D01*
X70149170Y-120194615D01*
X70149175Y-120194621D01*
X70305378Y-120350824D01*
X70305384Y-120350829D01*
X70486333Y-120477531D01*
X70486335Y-120477532D01*
X70486338Y-120477534D01*
X70686550Y-120570894D01*
X70899932Y-120628070D01*
X71057123Y-120641822D01*
X71119998Y-120647323D01*
X71120000Y-120647323D01*
X71120002Y-120647323D01*
X71175017Y-120642509D01*
X71340068Y-120628070D01*
X71553450Y-120570894D01*
X71753662Y-120477534D01*
X71934620Y-120350826D01*
X72090826Y-120194620D01*
X72217534Y-120013662D01*
X72277617Y-119884811D01*
X72323790Y-119832371D01*
X72390983Y-119813219D01*
X72457865Y-119833435D01*
X72502382Y-119884811D01*
X72562464Y-120013658D01*
X72562468Y-120013666D01*
X72689170Y-120194615D01*
X72689175Y-120194621D01*
X72845378Y-120350824D01*
X72845384Y-120350829D01*
X73026333Y-120477531D01*
X73026335Y-120477532D01*
X73026338Y-120477534D01*
X73226550Y-120570894D01*
X73439932Y-120628070D01*
X73597123Y-120641822D01*
X73659998Y-120647323D01*
X73660000Y-120647323D01*
X73660002Y-120647323D01*
X73715016Y-120642509D01*
X73880068Y-120628070D01*
X74093450Y-120570894D01*
X74293662Y-120477534D01*
X74474620Y-120350826D01*
X74630826Y-120194620D01*
X74757534Y-120013662D01*
X74817617Y-119884811D01*
X74863790Y-119832371D01*
X74930983Y-119813219D01*
X74997865Y-119833435D01*
X75042382Y-119884811D01*
X75102464Y-120013658D01*
X75102468Y-120013666D01*
X75229170Y-120194615D01*
X75229175Y-120194621D01*
X75385378Y-120350824D01*
X75385384Y-120350829D01*
X75566333Y-120477531D01*
X75566335Y-120477532D01*
X75566338Y-120477534D01*
X75766550Y-120570894D01*
X75979932Y-120628070D01*
X76137123Y-120641822D01*
X76199998Y-120647323D01*
X76200000Y-120647323D01*
X76200002Y-120647323D01*
X76255017Y-120642509D01*
X76420068Y-120628070D01*
X76633450Y-120570894D01*
X76833662Y-120477534D01*
X77014620Y-120350826D01*
X77170826Y-120194620D01*
X77297534Y-120013662D01*
X77357617Y-119884811D01*
X77403790Y-119832371D01*
X77470983Y-119813219D01*
X77537865Y-119833435D01*
X77582382Y-119884811D01*
X77642464Y-120013658D01*
X77642468Y-120013666D01*
X77769170Y-120194615D01*
X77769175Y-120194621D01*
X77925378Y-120350824D01*
X77925384Y-120350829D01*
X78106333Y-120477531D01*
X78106335Y-120477532D01*
X78106338Y-120477534D01*
X78306550Y-120570894D01*
X78519932Y-120628070D01*
X78677123Y-120641822D01*
X78739998Y-120647323D01*
X78740000Y-120647323D01*
X78740002Y-120647323D01*
X78795017Y-120642509D01*
X78960068Y-120628070D01*
X79173450Y-120570894D01*
X79373662Y-120477534D01*
X79554620Y-120350826D01*
X79710826Y-120194620D01*
X79837534Y-120013662D01*
X79930894Y-119813450D01*
X79988070Y-119600068D01*
X80007323Y-119380000D01*
X79988070Y-119159932D01*
X79930894Y-118946550D01*
X79837534Y-118746339D01*
X79836597Y-118745001D01*
X83784532Y-118745001D01*
X83804364Y-118971686D01*
X83804366Y-118971697D01*
X83863258Y-119191488D01*
X83863261Y-119191497D01*
X83959431Y-119397732D01*
X83959432Y-119397734D01*
X84089954Y-119584141D01*
X84250858Y-119745045D01*
X84250861Y-119745047D01*
X84437266Y-119875568D01*
X84643504Y-119971739D01*
X84863308Y-120030635D01*
X85025230Y-120044801D01*
X85089998Y-120050468D01*
X85090000Y-120050468D01*
X85090002Y-120050468D01*
X85146672Y-120045509D01*
X85316692Y-120030635D01*
X85536496Y-119971739D01*
X85742734Y-119875568D01*
X85929139Y-119745047D01*
X86090047Y-119584139D01*
X86220568Y-119397734D01*
X86316739Y-119191496D01*
X86375635Y-118971692D01*
X86395468Y-118745000D01*
X86375635Y-118518308D01*
X86316739Y-118298504D01*
X86220568Y-118092266D01*
X86090047Y-117905861D01*
X86090045Y-117905858D01*
X85929141Y-117744954D01*
X85742734Y-117614432D01*
X85742732Y-117614431D01*
X85536497Y-117518261D01*
X85536488Y-117518258D01*
X85316697Y-117459366D01*
X85316693Y-117459365D01*
X85316692Y-117459365D01*
X85316691Y-117459364D01*
X85316686Y-117459364D01*
X85090002Y-117439532D01*
X85089998Y-117439532D01*
X84863313Y-117459364D01*
X84863302Y-117459366D01*
X84643511Y-117518258D01*
X84643502Y-117518261D01*
X84437267Y-117614431D01*
X84437265Y-117614432D01*
X84250858Y-117744954D01*
X84089954Y-117905858D01*
X83959432Y-118092265D01*
X83959431Y-118092267D01*
X83863261Y-118298502D01*
X83863258Y-118298511D01*
X83804366Y-118518302D01*
X83804364Y-118518313D01*
X83784532Y-118744998D01*
X83784532Y-118745001D01*
X79836597Y-118745001D01*
X79710826Y-118565380D01*
X79554620Y-118409174D01*
X79554616Y-118409171D01*
X79554615Y-118409170D01*
X79373666Y-118282468D01*
X79373662Y-118282466D01*
X79373660Y-118282465D01*
X79173450Y-118189106D01*
X79173447Y-118189105D01*
X79173445Y-118189104D01*
X78960070Y-118131930D01*
X78960062Y-118131929D01*
X78740002Y-118112677D01*
X78739998Y-118112677D01*
X78519937Y-118131929D01*
X78519929Y-118131930D01*
X78306554Y-118189104D01*
X78306548Y-118189107D01*
X78106340Y-118282465D01*
X78106338Y-118282466D01*
X77925377Y-118409175D01*
X77769175Y-118565377D01*
X77642466Y-118746338D01*
X77642465Y-118746340D01*
X77582382Y-118875189D01*
X77536209Y-118927628D01*
X77469016Y-118946780D01*
X77402135Y-118926564D01*
X77357618Y-118875189D01*
X77336478Y-118829855D01*
X77297534Y-118746339D01*
X77170826Y-118565380D01*
X77014620Y-118409174D01*
X77014616Y-118409171D01*
X77014615Y-118409170D01*
X76833666Y-118282468D01*
X76833662Y-118282466D01*
X76833660Y-118282465D01*
X76633450Y-118189106D01*
X76633447Y-118189105D01*
X76633445Y-118189104D01*
X76420070Y-118131930D01*
X76420062Y-118131929D01*
X76200002Y-118112677D01*
X76199998Y-118112677D01*
X75979937Y-118131929D01*
X75979929Y-118131930D01*
X75766554Y-118189104D01*
X75766548Y-118189107D01*
X75566340Y-118282465D01*
X75566338Y-118282466D01*
X75385377Y-118409175D01*
X75229175Y-118565377D01*
X75102466Y-118746338D01*
X75102465Y-118746340D01*
X75042382Y-118875189D01*
X74996209Y-118927628D01*
X74929016Y-118946780D01*
X74862135Y-118926564D01*
X74817618Y-118875189D01*
X74796478Y-118829855D01*
X74757534Y-118746339D01*
X74630826Y-118565380D01*
X74474620Y-118409174D01*
X74474616Y-118409171D01*
X74474615Y-118409170D01*
X74293666Y-118282468D01*
X74293662Y-118282466D01*
X74293660Y-118282465D01*
X74093450Y-118189106D01*
X74093447Y-118189105D01*
X74093445Y-118189104D01*
X73880070Y-118131930D01*
X73880062Y-118131929D01*
X73660002Y-118112677D01*
X73659998Y-118112677D01*
X73439937Y-118131929D01*
X73439929Y-118131930D01*
X73226554Y-118189104D01*
X73226548Y-118189107D01*
X73026340Y-118282465D01*
X73026338Y-118282466D01*
X72845377Y-118409175D01*
X72689175Y-118565377D01*
X72562466Y-118746338D01*
X72562465Y-118746340D01*
X72502382Y-118875189D01*
X72456209Y-118927628D01*
X72389016Y-118946780D01*
X72322135Y-118926564D01*
X72277618Y-118875189D01*
X72256478Y-118829855D01*
X72217534Y-118746339D01*
X72090826Y-118565380D01*
X71934620Y-118409174D01*
X71934616Y-118409171D01*
X71934615Y-118409170D01*
X71753666Y-118282468D01*
X71753662Y-118282466D01*
X71753660Y-118282465D01*
X71553450Y-118189106D01*
X71553447Y-118189105D01*
X71553445Y-118189104D01*
X71340070Y-118131930D01*
X71340062Y-118131929D01*
X71120002Y-118112677D01*
X71119998Y-118112677D01*
X70899937Y-118131929D01*
X70899929Y-118131930D01*
X70686554Y-118189104D01*
X70686548Y-118189107D01*
X70486340Y-118282465D01*
X70486338Y-118282466D01*
X70305377Y-118409175D01*
X70149175Y-118565377D01*
X70022466Y-118746338D01*
X70022465Y-118746340D01*
X69962382Y-118875189D01*
X69916209Y-118927628D01*
X69849016Y-118946780D01*
X69782135Y-118926564D01*
X69737618Y-118875189D01*
X69716478Y-118829855D01*
X69677534Y-118746339D01*
X69550826Y-118565380D01*
X69394620Y-118409174D01*
X69394616Y-118409171D01*
X69394615Y-118409170D01*
X69213666Y-118282468D01*
X69213662Y-118282466D01*
X69213660Y-118282465D01*
X69013450Y-118189106D01*
X69013447Y-118189105D01*
X69013445Y-118189104D01*
X68800070Y-118131930D01*
X68800062Y-118131929D01*
X68580002Y-118112677D01*
X68579998Y-118112677D01*
X68359937Y-118131929D01*
X68359929Y-118131930D01*
X68146554Y-118189104D01*
X68146548Y-118189107D01*
X67946340Y-118282465D01*
X67946338Y-118282466D01*
X67765377Y-118409175D01*
X67609175Y-118565377D01*
X67482466Y-118746338D01*
X67482465Y-118746340D01*
X67389107Y-118946548D01*
X67389104Y-118946554D01*
X67331930Y-119159929D01*
X67331929Y-119159937D01*
X67312677Y-119379997D01*
X67312677Y-119380002D01*
X42545000Y-119380002D01*
X42545000Y-78810195D01*
X44364840Y-78810195D01*
X44369225Y-78856583D01*
X44369500Y-78862421D01*
X44369500Y-87848956D01*
X44367775Y-87864573D01*
X44368061Y-87864600D01*
X44367326Y-87872366D01*
X44369500Y-87941515D01*
X44369500Y-87971044D01*
X44369501Y-87971061D01*
X44370368Y-87977932D01*
X44370826Y-87983751D01*
X44372290Y-88030325D01*
X44372291Y-88030328D01*
X44377880Y-88049568D01*
X44381824Y-88068612D01*
X44383530Y-88082109D01*
X44384336Y-88088492D01*
X44401490Y-88131820D01*
X44403382Y-88137348D01*
X44416381Y-88182089D01*
X44426580Y-88199335D01*
X44435138Y-88216804D01*
X44442514Y-88235433D01*
X44469898Y-88273124D01*
X44473106Y-88278008D01*
X44496827Y-88318117D01*
X44496833Y-88318125D01*
X44510990Y-88332281D01*
X44523628Y-88347077D01*
X44535405Y-88363287D01*
X44535406Y-88363288D01*
X44571309Y-88392989D01*
X44575620Y-88396911D01*
X45581642Y-89402933D01*
X46579527Y-90400818D01*
X46613012Y-90462141D01*
X46608028Y-90531833D01*
X46589311Y-90563955D01*
X46589610Y-90564164D01*
X46587106Y-90567738D01*
X46586837Y-90568202D01*
X46586508Y-90568593D01*
X46450965Y-90762169D01*
X46450964Y-90762171D01*
X46351098Y-90976335D01*
X46351094Y-90976344D01*
X46289938Y-91204586D01*
X46289936Y-91204596D01*
X46269341Y-91439999D01*
X46269341Y-91440000D01*
X46289936Y-91675403D01*
X46289938Y-91675413D01*
X46351094Y-91903655D01*
X46351096Y-91903659D01*
X46351097Y-91903663D01*
X46434358Y-92082217D01*
X46450965Y-92117830D01*
X46450967Y-92117834D01*
X46559281Y-92272521D01*
X46586501Y-92311396D01*
X46586506Y-92311402D01*
X46753597Y-92478493D01*
X46753603Y-92478498D01*
X46939158Y-92608425D01*
X46982783Y-92663002D01*
X46989977Y-92732500D01*
X46958454Y-92794855D01*
X46939158Y-92811575D01*
X46753597Y-92941505D01*
X46586505Y-93108597D01*
X46450965Y-93302169D01*
X46450964Y-93302171D01*
X46351098Y-93516335D01*
X46351094Y-93516344D01*
X46289938Y-93744586D01*
X46289936Y-93744596D01*
X46269341Y-93979999D01*
X46269341Y-93980000D01*
X46289936Y-94215403D01*
X46289938Y-94215413D01*
X46351094Y-94443655D01*
X46351096Y-94443659D01*
X46351097Y-94443663D01*
X46383063Y-94512214D01*
X46450965Y-94657830D01*
X46450967Y-94657834D01*
X46525412Y-94764151D01*
X46586504Y-94851400D01*
X46586506Y-94851402D01*
X46753597Y-95018493D01*
X46753603Y-95018498D01*
X46939158Y-95148425D01*
X46982783Y-95203002D01*
X46989977Y-95272500D01*
X46958454Y-95334855D01*
X46939158Y-95351575D01*
X46753597Y-95481505D01*
X46586505Y-95648597D01*
X46450965Y-95842169D01*
X46450964Y-95842171D01*
X46351098Y-96056335D01*
X46351094Y-96056344D01*
X46289938Y-96284586D01*
X46289936Y-96284596D01*
X46269341Y-96519999D01*
X46269341Y-96520000D01*
X46289936Y-96755403D01*
X46289938Y-96755413D01*
X46316856Y-96855872D01*
X46315193Y-96925722D01*
X46284762Y-96975646D01*
X45616208Y-97644199D01*
X45603951Y-97654020D01*
X45604134Y-97654241D01*
X45598123Y-97659213D01*
X45550772Y-97709636D01*
X45529889Y-97730519D01*
X45529877Y-97730532D01*
X45525621Y-97736017D01*
X45521837Y-97740447D01*
X45489937Y-97774418D01*
X45489936Y-97774420D01*
X45480284Y-97791976D01*
X45469610Y-97808226D01*
X45457329Y-97824061D01*
X45457324Y-97824068D01*
X45438815Y-97866838D01*
X45436245Y-97872084D01*
X45413803Y-97912906D01*
X45408822Y-97932307D01*
X45402521Y-97950710D01*
X45394562Y-97969102D01*
X45394561Y-97969105D01*
X45387271Y-98015127D01*
X45386087Y-98020846D01*
X45374501Y-98065972D01*
X45374500Y-98065982D01*
X45374500Y-98086016D01*
X45372973Y-98105415D01*
X45369840Y-98125194D01*
X45369840Y-98125195D01*
X45374225Y-98171583D01*
X45374500Y-98177421D01*
X45374500Y-111713956D01*
X45372775Y-111729573D01*
X45373061Y-111729600D01*
X45372326Y-111737366D01*
X45374500Y-111806515D01*
X45374500Y-111836044D01*
X45374501Y-111836061D01*
X45375368Y-111842932D01*
X45375826Y-111848751D01*
X45377290Y-111895325D01*
X45377291Y-111895328D01*
X45382880Y-111914568D01*
X45386824Y-111933612D01*
X45389336Y-111953493D01*
X45405929Y-111995403D01*
X45406490Y-111996820D01*
X45408382Y-112002348D01*
X45421381Y-112047089D01*
X45431580Y-112064335D01*
X45440138Y-112081804D01*
X45447514Y-112100433D01*
X45474898Y-112138124D01*
X45478106Y-112143008D01*
X45501827Y-112183117D01*
X45501833Y-112183125D01*
X45515990Y-112197281D01*
X45528628Y-112212077D01*
X45540405Y-112228287D01*
X45540406Y-112228288D01*
X45576309Y-112257989D01*
X45580620Y-112261911D01*
X46138661Y-112819952D01*
X46579527Y-113260818D01*
X46613012Y-113322141D01*
X46608028Y-113391833D01*
X46589311Y-113423955D01*
X46589610Y-113424164D01*
X46587106Y-113427738D01*
X46586837Y-113428202D01*
X46586508Y-113428593D01*
X46450965Y-113622169D01*
X46450964Y-113622171D01*
X46351098Y-113836335D01*
X46351094Y-113836344D01*
X46289938Y-114064586D01*
X46289936Y-114064596D01*
X46269341Y-114299999D01*
X46269341Y-114300000D01*
X46289936Y-114535403D01*
X46289938Y-114535413D01*
X46351094Y-114763655D01*
X46351096Y-114763659D01*
X46351097Y-114763663D01*
X46431004Y-114935023D01*
X46450965Y-114977830D01*
X46450967Y-114977834D01*
X46559281Y-115132521D01*
X46586504Y-115171400D01*
X46586506Y-115171402D01*
X46753597Y-115338493D01*
X46753603Y-115338498D01*
X46939158Y-115468425D01*
X46982783Y-115523002D01*
X46989977Y-115592500D01*
X46958454Y-115654855D01*
X46939158Y-115671575D01*
X46753597Y-115801505D01*
X46586505Y-115968597D01*
X46450965Y-116162169D01*
X46450964Y-116162171D01*
X46351098Y-116376335D01*
X46351094Y-116376344D01*
X46289938Y-116604586D01*
X46289936Y-116604596D01*
X46269341Y-116839999D01*
X46269341Y-116840000D01*
X46289936Y-117075403D01*
X46289938Y-117075413D01*
X46351094Y-117303655D01*
X46351096Y-117303659D01*
X46351097Y-117303663D01*
X46410936Y-117431988D01*
X46450965Y-117517830D01*
X46450967Y-117517834D01*
X46526662Y-117625937D01*
X46586505Y-117711401D01*
X46753599Y-117878495D01*
X46792682Y-117905861D01*
X46947165Y-118014032D01*
X46947167Y-118014033D01*
X46947170Y-118014035D01*
X47161337Y-118113903D01*
X47389592Y-118175063D01*
X47577918Y-118191539D01*
X47624999Y-118195659D01*
X47625000Y-118195659D01*
X47625001Y-118195659D01*
X47664234Y-118192226D01*
X47860408Y-118175063D01*
X48088663Y-118113903D01*
X48302830Y-118014035D01*
X48496401Y-117878495D01*
X48663495Y-117711401D01*
X48793426Y-117525840D01*
X48848001Y-117482217D01*
X48917499Y-117475023D01*
X48979854Y-117506546D01*
X48996574Y-117525841D01*
X49033038Y-117577917D01*
X49126505Y-117711401D01*
X49293599Y-117878495D01*
X49332682Y-117905861D01*
X49487165Y-118014032D01*
X49487167Y-118014033D01*
X49487170Y-118014035D01*
X49701337Y-118113903D01*
X49929592Y-118175063D01*
X50117918Y-118191539D01*
X50164999Y-118195659D01*
X50165000Y-118195659D01*
X50165001Y-118195659D01*
X50204234Y-118192226D01*
X50400408Y-118175063D01*
X50628663Y-118113903D01*
X50842830Y-118014035D01*
X51036401Y-117878495D01*
X51203495Y-117711401D01*
X51339035Y-117517830D01*
X51438903Y-117303663D01*
X51500063Y-117075408D01*
X51520659Y-116840000D01*
X51500063Y-116604592D01*
X51438903Y-116376337D01*
X51339035Y-116162171D01*
X51333425Y-116154158D01*
X51203494Y-115968597D01*
X51036402Y-115801506D01*
X51036401Y-115801505D01*
X50850842Y-115671575D01*
X50850841Y-115671574D01*
X50807216Y-115616997D01*
X50800024Y-115547498D01*
X50831546Y-115485144D01*
X50850836Y-115468428D01*
X51036401Y-115338495D01*
X51203495Y-115171401D01*
X51339035Y-114977830D01*
X51438903Y-114763663D01*
X51500063Y-114535408D01*
X51520659Y-114300000D01*
X51500063Y-114064592D01*
X51457727Y-113906593D01*
X51459391Y-113836743D01*
X51498554Y-113778881D01*
X51562782Y-113751377D01*
X51577503Y-113750500D01*
X82969548Y-113750500D01*
X83036587Y-113770185D01*
X83057229Y-113786819D01*
X90939194Y-121668784D01*
X90949019Y-121681048D01*
X90949240Y-121680866D01*
X90954210Y-121686873D01*
X90954213Y-121686876D01*
X90954214Y-121686877D01*
X91004651Y-121734241D01*
X91025530Y-121755120D01*
X91031004Y-121759366D01*
X91035442Y-121763156D01*
X91069418Y-121795062D01*
X91069422Y-121795064D01*
X91086973Y-121804713D01*
X91103231Y-121815392D01*
X91119064Y-121827674D01*
X91141015Y-121837172D01*
X91161837Y-121846183D01*
X91167081Y-121848752D01*
X91207908Y-121871197D01*
X91227312Y-121876179D01*
X91245710Y-121882478D01*
X91264105Y-121890438D01*
X91310129Y-121897726D01*
X91315832Y-121898907D01*
X91360981Y-121910500D01*
X91381016Y-121910500D01*
X91400413Y-121912026D01*
X91420196Y-121915160D01*
X91466583Y-121910775D01*
X91472422Y-121910500D01*
X92352547Y-121910500D01*
X92419586Y-121930185D01*
X92465341Y-121982989D01*
X92475285Y-122052147D01*
X92446260Y-122115703D01*
X92428712Y-122132350D01*
X92406911Y-122149318D01*
X92398217Y-122156086D01*
X92241016Y-122326852D01*
X92114075Y-122521151D01*
X92020842Y-122733699D01*
X91963866Y-122958691D01*
X91963864Y-122958702D01*
X91944700Y-123189993D01*
X91944700Y-123190006D01*
X91963864Y-123421297D01*
X91963866Y-123421308D01*
X92020842Y-123646300D01*
X92114075Y-123858848D01*
X92241016Y-124053147D01*
X92241019Y-124053151D01*
X92241021Y-124053153D01*
X92398216Y-124223913D01*
X92398219Y-124223915D01*
X92398222Y-124223918D01*
X92581365Y-124366464D01*
X92581371Y-124366468D01*
X92581374Y-124366470D01*
X92785497Y-124476936D01*
X92899487Y-124516068D01*
X93005015Y-124552297D01*
X93005017Y-124552297D01*
X93005019Y-124552298D01*
X93233951Y-124590500D01*
X93233952Y-124590500D01*
X93466048Y-124590500D01*
X93466049Y-124590500D01*
X93694981Y-124552298D01*
X93914503Y-124476936D01*
X94118626Y-124366470D01*
X94301784Y-124223913D01*
X94310511Y-124214432D01*
X94370394Y-124178441D01*
X94440232Y-124180538D01*
X94497850Y-124220060D01*
X94517924Y-124255080D01*
X94546645Y-124332086D01*
X94546649Y-124332093D01*
X94632809Y-124447187D01*
X94632812Y-124447190D01*
X94747906Y-124533350D01*
X94747913Y-124533354D01*
X94882620Y-124583596D01*
X94882627Y-124583598D01*
X94942155Y-124589999D01*
X94942172Y-124590000D01*
X95640000Y-124590000D01*
X95640000Y-123751821D01*
X95659685Y-123684782D01*
X95712489Y-123639027D01*
X95781647Y-123629083D01*
X95800547Y-123633329D01*
X95822173Y-123640000D01*
X95923723Y-123640000D01*
X95923724Y-123640000D01*
X95997519Y-123628877D01*
X96066742Y-123638350D01*
X96119857Y-123683744D01*
X96139997Y-123750648D01*
X96140000Y-123751492D01*
X96140000Y-124590000D01*
X96837828Y-124590000D01*
X96837844Y-124589999D01*
X96897372Y-124583598D01*
X96897379Y-124583596D01*
X97032086Y-124533354D01*
X97032093Y-124533350D01*
X97147187Y-124447190D01*
X97147190Y-124447187D01*
X97233350Y-124332093D01*
X97233354Y-124332086D01*
X97283596Y-124197379D01*
X97283598Y-124197372D01*
X97289999Y-124137844D01*
X97290000Y-124137827D01*
X97290000Y-123440000D01*
X96450003Y-123440000D01*
X96382964Y-123420315D01*
X96337209Y-123367511D01*
X96327265Y-123298353D01*
X96329112Y-123288408D01*
X96343810Y-123224007D01*
X96343810Y-123224006D01*
X96332979Y-123079468D01*
X96335079Y-123079310D01*
X96338595Y-123021861D01*
X96379890Y-122965501D01*
X96445101Y-122940413D01*
X96455216Y-122940000D01*
X97290000Y-122940000D01*
X97290000Y-122242172D01*
X97289999Y-122242155D01*
X97283598Y-122182627D01*
X97283596Y-122182619D01*
X97244514Y-122077833D01*
X97239530Y-122008141D01*
X97273015Y-121946818D01*
X97334339Y-121913334D01*
X97360696Y-121910500D01*
X103422257Y-121910500D01*
X103437877Y-121912224D01*
X103437904Y-121911939D01*
X103445660Y-121912671D01*
X103445667Y-121912673D01*
X103514814Y-121910500D01*
X103544350Y-121910500D01*
X103551228Y-121909630D01*
X103557041Y-121909172D01*
X103603627Y-121907709D01*
X103622869Y-121902117D01*
X103641912Y-121898174D01*
X103661792Y-121895664D01*
X103705122Y-121878507D01*
X103710646Y-121876617D01*
X103714396Y-121875527D01*
X103755390Y-121863618D01*
X103772629Y-121853422D01*
X103790103Y-121844862D01*
X103808727Y-121837488D01*
X103808727Y-121837487D01*
X103808732Y-121837486D01*
X103846449Y-121810082D01*
X103851305Y-121806892D01*
X103891420Y-121783170D01*
X103905589Y-121768999D01*
X103920379Y-121756368D01*
X103936587Y-121744594D01*
X103966299Y-121708676D01*
X103970212Y-121704376D01*
X104319353Y-121355235D01*
X104380674Y-121321752D01*
X104439125Y-121323143D01*
X104473780Y-121332428D01*
X104539592Y-121350063D01*
X104727918Y-121366539D01*
X104774999Y-121370659D01*
X104775000Y-121370659D01*
X104775001Y-121370659D01*
X104814234Y-121367226D01*
X105010408Y-121350063D01*
X105238663Y-121288903D01*
X105452830Y-121189035D01*
X105646401Y-121053495D01*
X105813495Y-120886401D01*
X105949035Y-120692830D01*
X106048903Y-120478663D01*
X106110063Y-120250408D01*
X106130659Y-120015000D01*
X106110063Y-119779592D01*
X106048903Y-119551337D01*
X105949035Y-119337171D01*
X105949034Y-119337169D01*
X105909111Y-119280153D01*
X105886784Y-119213947D01*
X105903794Y-119146180D01*
X105931537Y-119115617D01*
X105930898Y-119114937D01*
X105936584Y-119109597D01*
X105936585Y-119109594D01*
X105936587Y-119109594D01*
X105966299Y-119073676D01*
X105970212Y-119069376D01*
X107233787Y-117805802D01*
X107246042Y-117795986D01*
X107245859Y-117795764D01*
X107251866Y-117790792D01*
X107251877Y-117790786D01*
X107294917Y-117744953D01*
X107299227Y-117740364D01*
X107309671Y-117729918D01*
X107320120Y-117719471D01*
X107324379Y-117713978D01*
X107328152Y-117709561D01*
X107360062Y-117675582D01*
X107369713Y-117658024D01*
X107380396Y-117641761D01*
X107392673Y-117625936D01*
X107411185Y-117583153D01*
X107413738Y-117577941D01*
X107436197Y-117537092D01*
X107441180Y-117517680D01*
X107447481Y-117499280D01*
X107455437Y-117480896D01*
X107462729Y-117434852D01*
X107463906Y-117429171D01*
X107475500Y-117384019D01*
X107475500Y-117363982D01*
X107477027Y-117344582D01*
X107480160Y-117324804D01*
X107475775Y-117278415D01*
X107475500Y-117272577D01*
X107475500Y-65022738D01*
X107477224Y-65007125D01*
X107476938Y-65007098D01*
X107477671Y-64999336D01*
X107477672Y-64999333D01*
X107475499Y-64930203D01*
X107475500Y-64900650D01*
X107474629Y-64893758D01*
X107474172Y-64887946D01*
X107472709Y-64841372D01*
X107467122Y-64822144D01*
X107463174Y-64803084D01*
X107460664Y-64783208D01*
X107443507Y-64739875D01*
X107441619Y-64734359D01*
X107428619Y-64689612D01*
X107418418Y-64672363D01*
X107409860Y-64654894D01*
X107402486Y-64636268D01*
X107402483Y-64636264D01*
X107402483Y-64636263D01*
X107375098Y-64598571D01*
X107371890Y-64593687D01*
X107348172Y-64553582D01*
X107348163Y-64553571D01*
X107334005Y-64539413D01*
X107321370Y-64524620D01*
X107309593Y-64508412D01*
X107273693Y-64478713D01*
X107269381Y-64474790D01*
X106115237Y-63320646D01*
X106081752Y-63259323D01*
X106083142Y-63200876D01*
X106110063Y-63100408D01*
X106130659Y-62865000D01*
X106110063Y-62629592D01*
X106048903Y-62401337D01*
X105949035Y-62187171D01*
X105943425Y-62179158D01*
X105813494Y-61993597D01*
X105646402Y-61826506D01*
X105646396Y-61826501D01*
X105460842Y-61696575D01*
X105417217Y-61641998D01*
X105410023Y-61572500D01*
X105441546Y-61510145D01*
X105460842Y-61493425D01*
X105483026Y-61477891D01*
X105646401Y-61363495D01*
X105813495Y-61196401D01*
X105949035Y-61002830D01*
X106048903Y-60788663D01*
X106110063Y-60560408D01*
X106130659Y-60325000D01*
X106110063Y-60089592D01*
X106048903Y-59861337D01*
X105949035Y-59647171D01*
X105943425Y-59639158D01*
X105813494Y-59453597D01*
X105646402Y-59286506D01*
X105646396Y-59286501D01*
X105460842Y-59156575D01*
X105417217Y-59101998D01*
X105410023Y-59032500D01*
X105441546Y-58970145D01*
X105460842Y-58953425D01*
X105569865Y-58877086D01*
X105646401Y-58823495D01*
X105813495Y-58656401D01*
X105949035Y-58462830D01*
X106048903Y-58248663D01*
X106110063Y-58020408D01*
X106130659Y-57785000D01*
X106110063Y-57549592D01*
X106048903Y-57321337D01*
X105949035Y-57107171D01*
X105813495Y-56913599D01*
X105813494Y-56913597D01*
X105646402Y-56746506D01*
X105646395Y-56746501D01*
X105452834Y-56610967D01*
X105452830Y-56610965D01*
X105452828Y-56610964D01*
X105238663Y-56511097D01*
X105238659Y-56511096D01*
X105238655Y-56511094D01*
X105010413Y-56449938D01*
X105010403Y-56449936D01*
X104775001Y-56429341D01*
X104774999Y-56429341D01*
X104539596Y-56449936D01*
X104539586Y-56449938D01*
X104311344Y-56511094D01*
X104311335Y-56511098D01*
X104097171Y-56610964D01*
X104097169Y-56610965D01*
X103903600Y-56746503D01*
X103781284Y-56868819D01*
X103719961Y-56902303D01*
X103650269Y-56897319D01*
X103594336Y-56855447D01*
X103577421Y-56824470D01*
X103528354Y-56692913D01*
X103528350Y-56692906D01*
X103442190Y-56577812D01*
X103442187Y-56577809D01*
X103327093Y-56491649D01*
X103327086Y-56491645D01*
X103192379Y-56441403D01*
X103192372Y-56441401D01*
X103132844Y-56435000D01*
X102485000Y-56435000D01*
X102485000Y-57172698D01*
X102465315Y-57239737D01*
X102412511Y-57285492D01*
X102343355Y-57295436D01*
X102270766Y-57285000D01*
X102270763Y-57285000D01*
X102199237Y-57285000D01*
X102199233Y-57285000D01*
X102126645Y-57295436D01*
X102057487Y-57285492D01*
X102004684Y-57239736D01*
X101985000Y-57172698D01*
X101985000Y-56435000D01*
X101337155Y-56435000D01*
X101277627Y-56441401D01*
X101277620Y-56441403D01*
X101142913Y-56491645D01*
X101142906Y-56491649D01*
X101027812Y-56577809D01*
X101027809Y-56577812D01*
X100941649Y-56692906D01*
X100941645Y-56692913D01*
X100891403Y-56827620D01*
X100891401Y-56827627D01*
X100885000Y-56887155D01*
X100885000Y-57535000D01*
X101621653Y-57535000D01*
X101688692Y-57554685D01*
X101734447Y-57607489D01*
X101744391Y-57676647D01*
X101740631Y-57693933D01*
X101735000Y-57713111D01*
X101735000Y-57856888D01*
X101740631Y-57876067D01*
X101740630Y-57945936D01*
X101702855Y-58004714D01*
X101639299Y-58033738D01*
X101621653Y-58035000D01*
X100885000Y-58035000D01*
X100885000Y-58682844D01*
X100891401Y-58742372D01*
X100891403Y-58742379D01*
X100941645Y-58877086D01*
X100941649Y-58877093D01*
X101027809Y-58992187D01*
X101027812Y-58992190D01*
X101142906Y-59078350D01*
X101142913Y-59078354D01*
X101274470Y-59127421D01*
X101330403Y-59169292D01*
X101354821Y-59234756D01*
X101339970Y-59303029D01*
X101318819Y-59331284D01*
X101196503Y-59453600D01*
X101060965Y-59647169D01*
X101060964Y-59647171D01*
X100961098Y-59861335D01*
X100961094Y-59861344D01*
X100899938Y-60089586D01*
X100899936Y-60089596D01*
X100879341Y-60324999D01*
X100879341Y-60325000D01*
X100899936Y-60560403D01*
X100899938Y-60560413D01*
X100961094Y-60788655D01*
X100961096Y-60788659D01*
X100961097Y-60788663D01*
X100964476Y-60795909D01*
X101060965Y-61002830D01*
X101060967Y-61002834D01*
X101169281Y-61157521D01*
X101196501Y-61196396D01*
X101196506Y-61196402D01*
X101363597Y-61363493D01*
X101363603Y-61363498D01*
X101549158Y-61493425D01*
X101592783Y-61548002D01*
X101599977Y-61617500D01*
X101568454Y-61679855D01*
X101549158Y-61696575D01*
X101363597Y-61826505D01*
X101196505Y-61993597D01*
X101060965Y-62187169D01*
X101060964Y-62187171D01*
X100961098Y-62401335D01*
X100961094Y-62401344D01*
X100899938Y-62629586D01*
X100899936Y-62629596D01*
X100879341Y-62864999D01*
X100879341Y-62865000D01*
X100899937Y-63100408D01*
X100926855Y-63200873D01*
X100925192Y-63270723D01*
X100894761Y-63320646D01*
X100676208Y-63539199D01*
X100663951Y-63549020D01*
X100664134Y-63549241D01*
X100658123Y-63554213D01*
X100610772Y-63604636D01*
X100589889Y-63625519D01*
X100589877Y-63625532D01*
X100585621Y-63631017D01*
X100581837Y-63635447D01*
X100549937Y-63669418D01*
X100549936Y-63669420D01*
X100540284Y-63686976D01*
X100529610Y-63703226D01*
X100517329Y-63719061D01*
X100517324Y-63719068D01*
X100498815Y-63761838D01*
X100496245Y-63767084D01*
X100473803Y-63807906D01*
X100468822Y-63827307D01*
X100462521Y-63845710D01*
X100454562Y-63864102D01*
X100454561Y-63864105D01*
X100447271Y-63910127D01*
X100446087Y-63915846D01*
X100434501Y-63960972D01*
X100434500Y-63960982D01*
X100434500Y-63981016D01*
X100432973Y-64000415D01*
X100429840Y-64020194D01*
X100429839Y-64020197D01*
X100434224Y-64066585D01*
X100434499Y-64072421D01*
X100434499Y-75968962D01*
X100432776Y-75984579D01*
X100433060Y-75984606D01*
X100432326Y-75992365D01*
X100434500Y-76061515D01*
X100434500Y-76091044D01*
X100434501Y-76091061D01*
X100435368Y-76097932D01*
X100435826Y-76103751D01*
X100437290Y-76150325D01*
X100437291Y-76150328D01*
X100442880Y-76169568D01*
X100446824Y-76188612D01*
X100448263Y-76199999D01*
X100449336Y-76208492D01*
X100466490Y-76251820D01*
X100468382Y-76257348D01*
X100481381Y-76302089D01*
X100491580Y-76319335D01*
X100500138Y-76336804D01*
X100507514Y-76355433D01*
X100534898Y-76393124D01*
X100538106Y-76398008D01*
X100561827Y-76438117D01*
X100561833Y-76438125D01*
X100575990Y-76452281D01*
X100588628Y-76467077D01*
X100600405Y-76483287D01*
X100600406Y-76483288D01*
X100636309Y-76512989D01*
X100640620Y-76516911D01*
X102966493Y-78842784D01*
X105288181Y-81164472D01*
X105321666Y-81225795D01*
X105324500Y-81252153D01*
X105324500Y-86234109D01*
X105304815Y-86301148D01*
X105252011Y-86346903D01*
X105182853Y-86356847D01*
X105119297Y-86327822D01*
X105081523Y-86269044D01*
X105076612Y-86239372D01*
X105074314Y-86185299D01*
X105074314Y-86185293D01*
X105025164Y-85957235D01*
X104938179Y-85740765D01*
X104815862Y-85542109D01*
X104661731Y-85366982D01*
X104661729Y-85366980D01*
X104661726Y-85366977D01*
X104480226Y-85220426D01*
X104480220Y-85220421D01*
X104276554Y-85106646D01*
X104056591Y-85028929D01*
X104056586Y-85028927D01*
X104056584Y-85028927D01*
X104056580Y-85028926D01*
X104056579Y-85028926D01*
X103826655Y-84989500D01*
X103826647Y-84989500D01*
X103201784Y-84989500D01*
X103201779Y-84989500D01*
X103027553Y-85004328D01*
X103027551Y-85004329D01*
X102801781Y-85063114D01*
X102589197Y-85159208D01*
X102395911Y-85289847D01*
X102395909Y-85289849D01*
X102227483Y-85451272D01*
X102227482Y-85451273D01*
X102088762Y-85638834D01*
X101983733Y-85847147D01*
X101983730Y-85847153D01*
X101915416Y-86070223D01*
X101885784Y-86301624D01*
X101895685Y-86534700D01*
X101895686Y-86534709D01*
X101944836Y-86762766D01*
X101944837Y-86762769D01*
X102031819Y-86979231D01*
X102031821Y-86979235D01*
X102154138Y-87177891D01*
X102167944Y-87193578D01*
X102197458Y-87256907D01*
X102188048Y-87326141D01*
X102142702Y-87379296D01*
X102075816Y-87399496D01*
X102074860Y-87399500D01*
X100487019Y-87399500D01*
X100479347Y-87399024D01*
X100452221Y-87395643D01*
X100452219Y-87395643D01*
X100358965Y-87399500D01*
X100327933Y-87399500D01*
X100297008Y-87402062D01*
X100297009Y-87402062D01*
X100203765Y-87405918D01*
X100203751Y-87405920D01*
X100177017Y-87411526D01*
X100169409Y-87412635D01*
X100142185Y-87414890D01*
X100142175Y-87414892D01*
X100069815Y-87433216D01*
X100051725Y-87437797D01*
X100037755Y-87440726D01*
X99960390Y-87456948D01*
X99960375Y-87456953D01*
X99934920Y-87466886D01*
X99927599Y-87469231D01*
X99901119Y-87475937D01*
X99901113Y-87475939D01*
X99815667Y-87513419D01*
X99728723Y-87547345D01*
X99705247Y-87561333D01*
X99698413Y-87564851D01*
X99673388Y-87575829D01*
X99673385Y-87575830D01*
X99595275Y-87626862D01*
X99515101Y-87674637D01*
X99494250Y-87692297D01*
X99488087Y-87696892D01*
X99465215Y-87711835D01*
X99465212Y-87711838D01*
X99396554Y-87775042D01*
X99372871Y-87795101D01*
X99350934Y-87817038D01*
X99282261Y-87880257D01*
X99282256Y-87880262D01*
X99265472Y-87901826D01*
X99260383Y-87907589D01*
X98832588Y-88335384D01*
X98826824Y-88340474D01*
X98805256Y-88357260D01*
X98768746Y-88396922D01*
X98742050Y-88425921D01*
X98731074Y-88436896D01*
X98720100Y-88447871D01*
X98714384Y-88454620D01*
X98700033Y-88471564D01*
X98669641Y-88504578D01*
X98636834Y-88540216D01*
X98621892Y-88563087D01*
X98617297Y-88569250D01*
X98599635Y-88590104D01*
X98551860Y-88670278D01*
X98500828Y-88748390D01*
X98500824Y-88748397D01*
X98489853Y-88773409D01*
X98486335Y-88780244D01*
X98472348Y-88803717D01*
X98472343Y-88803726D01*
X98438420Y-88890663D01*
X98400935Y-88976123D01*
X98394226Y-89002616D01*
X98391881Y-89009935D01*
X98381953Y-89035379D01*
X98381948Y-89035395D01*
X98362801Y-89126711D01*
X98339892Y-89217175D01*
X98339890Y-89217185D01*
X98337635Y-89244408D01*
X98336526Y-89252016D01*
X98330920Y-89278750D01*
X98330919Y-89278763D01*
X98327062Y-89372009D01*
X98325279Y-89393538D01*
X98324500Y-89402936D01*
X98324500Y-89433964D01*
X98320642Y-89527219D01*
X98320642Y-89527220D01*
X98324023Y-89554342D01*
X98324500Y-89562018D01*
X98324500Y-94990500D01*
X98304815Y-95057539D01*
X98252011Y-95103294D01*
X98200500Y-95114500D01*
X90172019Y-95114500D01*
X90164347Y-95114024D01*
X90137221Y-95110643D01*
X90137219Y-95110643D01*
X90043965Y-95114500D01*
X90012933Y-95114500D01*
X89982008Y-95117062D01*
X89982009Y-95117062D01*
X89888765Y-95120918D01*
X89888751Y-95120920D01*
X89862017Y-95126526D01*
X89854409Y-95127635D01*
X89827185Y-95129890D01*
X89827175Y-95129892D01*
X89754815Y-95148216D01*
X89736725Y-95152797D01*
X89722755Y-95155726D01*
X89645390Y-95171948D01*
X89645375Y-95171953D01*
X89619920Y-95181886D01*
X89612599Y-95184231D01*
X89586119Y-95190937D01*
X89586113Y-95190939D01*
X89500667Y-95228419D01*
X89413723Y-95262345D01*
X89390247Y-95276333D01*
X89383413Y-95279851D01*
X89358388Y-95290829D01*
X89358385Y-95290830D01*
X89280275Y-95341862D01*
X89200101Y-95389637D01*
X89179250Y-95407297D01*
X89173087Y-95411892D01*
X89150216Y-95426834D01*
X89125218Y-95449847D01*
X89081564Y-95490033D01*
X89062376Y-95506284D01*
X89057869Y-95510102D01*
X89035922Y-95532049D01*
X88967262Y-95595256D01*
X88950471Y-95616827D01*
X88945382Y-95622588D01*
X86207575Y-98360395D01*
X86146252Y-98393880D01*
X86133148Y-98396003D01*
X86129883Y-98396354D01*
X86087516Y-98400908D01*
X85952671Y-98451202D01*
X85952664Y-98451206D01*
X85837455Y-98537452D01*
X85837452Y-98537455D01*
X85751206Y-98652664D01*
X85751202Y-98652671D01*
X85700908Y-98787517D01*
X85694501Y-98847116D01*
X85694500Y-98847135D01*
X85694500Y-98912053D01*
X85677023Y-98975525D01*
X85642346Y-99033721D01*
X85642343Y-99033728D01*
X85551953Y-99265376D01*
X85551952Y-99265381D01*
X85537963Y-99332097D01*
X85504939Y-99393670D01*
X85443869Y-99427614D01*
X85374142Y-99423153D01*
X85328921Y-99394330D01*
X85116819Y-99182227D01*
X85083334Y-99120904D01*
X85080500Y-99094546D01*
X85080500Y-97465451D01*
X85100185Y-97398412D01*
X85116814Y-97377775D01*
X92813788Y-89680801D01*
X92826042Y-89670986D01*
X92825859Y-89670764D01*
X92831866Y-89665792D01*
X92831877Y-89665786D01*
X92873779Y-89621165D01*
X92879227Y-89615364D01*
X92889671Y-89604918D01*
X92900120Y-89594471D01*
X92904379Y-89588978D01*
X92908152Y-89584561D01*
X92940062Y-89550582D01*
X92949713Y-89533024D01*
X92960396Y-89516761D01*
X92972673Y-89500936D01*
X92991185Y-89458153D01*
X92993738Y-89452941D01*
X93016197Y-89412092D01*
X93021180Y-89392680D01*
X93027481Y-89374280D01*
X93035437Y-89355896D01*
X93042729Y-89309852D01*
X93043906Y-89304171D01*
X93055500Y-89259019D01*
X93055500Y-89238982D01*
X93057027Y-89219582D01*
X93057408Y-89217179D01*
X93060160Y-89199804D01*
X93055775Y-89153415D01*
X93055500Y-89147577D01*
X93055500Y-53777738D01*
X93057223Y-53762121D01*
X93056938Y-53762094D01*
X93057672Y-53754332D01*
X93055500Y-53685203D01*
X93055500Y-53655651D01*
X93055500Y-53655650D01*
X93054629Y-53648759D01*
X93054172Y-53642945D01*
X93054027Y-53638344D01*
X93052709Y-53596373D01*
X93047122Y-53577144D01*
X93043174Y-53558084D01*
X93040664Y-53538208D01*
X93040663Y-53538206D01*
X93040663Y-53538204D01*
X93023512Y-53494887D01*
X93021619Y-53489358D01*
X93008618Y-53444609D01*
X93008616Y-53444606D01*
X92998423Y-53427371D01*
X92989861Y-53409894D01*
X92982487Y-53391270D01*
X92982486Y-53391268D01*
X92955079Y-53353545D01*
X92951888Y-53348686D01*
X92949059Y-53343903D01*
X92928170Y-53308580D01*
X92928168Y-53308578D01*
X92928165Y-53308574D01*
X92914006Y-53294415D01*
X92901368Y-53279619D01*
X92897643Y-53274492D01*
X92889594Y-53263413D01*
X92886654Y-53260981D01*
X92853688Y-53233709D01*
X92849376Y-53229786D01*
X92145236Y-52525646D01*
X92111752Y-52464324D01*
X92113143Y-52405872D01*
X92140063Y-52305408D01*
X92160659Y-52070000D01*
X92140063Y-51834592D01*
X92078903Y-51606337D01*
X91979035Y-51392171D01*
X91973425Y-51384158D01*
X91843494Y-51198597D01*
X91676402Y-51031506D01*
X91676395Y-51031501D01*
X91482834Y-50895967D01*
X91482830Y-50895965D01*
X91482828Y-50895964D01*
X91268663Y-50796097D01*
X91268659Y-50796096D01*
X91268655Y-50796094D01*
X91040413Y-50734938D01*
X91040403Y-50734936D01*
X90805001Y-50714341D01*
X90804999Y-50714341D01*
X90569596Y-50734936D01*
X90569586Y-50734938D01*
X90341344Y-50796094D01*
X90341335Y-50796098D01*
X90127171Y-50895964D01*
X90127169Y-50895965D01*
X89933597Y-51031505D01*
X89766505Y-51198597D01*
X89636575Y-51384158D01*
X89581998Y-51427783D01*
X89512500Y-51434977D01*
X89450145Y-51403454D01*
X89433425Y-51384158D01*
X89303494Y-51198597D01*
X89136402Y-51031506D01*
X89136395Y-51031501D01*
X88942834Y-50895967D01*
X88942830Y-50895965D01*
X88942828Y-50895964D01*
X88728663Y-50796097D01*
X88728659Y-50796096D01*
X88728655Y-50796094D01*
X88500413Y-50734938D01*
X88500403Y-50734936D01*
X88265001Y-50714341D01*
X88264999Y-50714341D01*
X88029590Y-50734937D01*
X88029589Y-50734937D01*
X87929124Y-50761855D01*
X87859274Y-50760191D01*
X87809352Y-50729761D01*
X87590803Y-50511212D01*
X87580980Y-50498950D01*
X87580759Y-50499134D01*
X87575786Y-50493123D01*
X87557159Y-50475631D01*
X87525364Y-50445773D01*
X87514919Y-50435328D01*
X87504475Y-50424883D01*
X87498986Y-50420625D01*
X87494561Y-50416847D01*
X87460582Y-50384938D01*
X87460580Y-50384936D01*
X87460577Y-50384935D01*
X87443029Y-50375288D01*
X87426763Y-50364604D01*
X87410933Y-50352325D01*
X87368168Y-50333818D01*
X87362922Y-50331248D01*
X87322093Y-50308803D01*
X87322092Y-50308802D01*
X87302693Y-50303822D01*
X87284281Y-50297518D01*
X87265898Y-50289562D01*
X87265892Y-50289560D01*
X87219874Y-50282272D01*
X87214152Y-50281087D01*
X87169021Y-50269500D01*
X87169019Y-50269500D01*
X87148984Y-50269500D01*
X87129586Y-50267973D01*
X87122162Y-50266797D01*
X87109805Y-50264840D01*
X87109804Y-50264840D01*
X87063416Y-50269225D01*
X87057578Y-50269500D01*
X85321037Y-50269500D01*
X85305420Y-50267776D01*
X85305393Y-50268062D01*
X85297631Y-50267327D01*
X85228503Y-50269500D01*
X85198949Y-50269500D01*
X85198228Y-50269590D01*
X85192056Y-50270369D01*
X85186244Y-50270826D01*
X85139672Y-50272290D01*
X85139671Y-50272290D01*
X85120428Y-50277881D01*
X85101378Y-50281825D01*
X85081510Y-50284334D01*
X85038183Y-50301488D01*
X85032657Y-50303379D01*
X84987913Y-50316379D01*
X84987909Y-50316381D01*
X84970665Y-50326579D01*
X84953204Y-50335133D01*
X84934573Y-50342510D01*
X84934561Y-50342517D01*
X84896869Y-50369902D01*
X84891986Y-50373109D01*
X84851879Y-50396829D01*
X84837713Y-50410995D01*
X84822923Y-50423627D01*
X84806713Y-50435404D01*
X84806710Y-50435407D01*
X84777009Y-50471309D01*
X84773076Y-50475631D01*
X84224181Y-51024526D01*
X84162858Y-51058011D01*
X84093166Y-51053027D01*
X84061044Y-51034311D01*
X84060836Y-51034610D01*
X84057264Y-51032109D01*
X84056799Y-51031838D01*
X84056404Y-51031507D01*
X83862834Y-50895967D01*
X83862830Y-50895965D01*
X83862828Y-50895964D01*
X83648663Y-50796097D01*
X83648659Y-50796096D01*
X83648655Y-50796094D01*
X83420413Y-50734938D01*
X83420403Y-50734936D01*
X83185001Y-50714341D01*
X83184999Y-50714341D01*
X82949596Y-50734936D01*
X82949586Y-50734938D01*
X82721344Y-50796094D01*
X82721335Y-50796098D01*
X82507171Y-50895964D01*
X82507169Y-50895965D01*
X82313597Y-51031505D01*
X82146508Y-51198594D01*
X82016574Y-51384160D01*
X81961997Y-51427784D01*
X81892498Y-51434977D01*
X81830144Y-51403455D01*
X81813429Y-51384164D01*
X81683495Y-51198599D01*
X81683493Y-51198596D01*
X81516402Y-51031506D01*
X81516395Y-51031501D01*
X81322834Y-50895967D01*
X81322830Y-50895965D01*
X81322828Y-50895964D01*
X81108663Y-50796097D01*
X81108659Y-50796096D01*
X81108655Y-50796094D01*
X80880413Y-50734938D01*
X80880403Y-50734936D01*
X80645001Y-50714341D01*
X80644999Y-50714341D01*
X80409596Y-50734936D01*
X80409586Y-50734938D01*
X80181344Y-50796094D01*
X80181335Y-50796098D01*
X79967171Y-50895964D01*
X79967169Y-50895965D01*
X79773597Y-51031505D01*
X79606505Y-51198597D01*
X79476575Y-51384158D01*
X79421998Y-51427783D01*
X79352500Y-51434977D01*
X79290145Y-51403454D01*
X79273425Y-51384158D01*
X79143494Y-51198597D01*
X78976402Y-51031506D01*
X78976395Y-51031501D01*
X78782834Y-50895967D01*
X78782830Y-50895965D01*
X78782828Y-50895964D01*
X78568663Y-50796097D01*
X78568659Y-50796096D01*
X78568655Y-50796094D01*
X78340413Y-50734938D01*
X78340403Y-50734936D01*
X78105001Y-50714341D01*
X78104999Y-50714341D01*
X77869596Y-50734936D01*
X77869586Y-50734938D01*
X77641344Y-50796094D01*
X77641335Y-50796098D01*
X77427171Y-50895964D01*
X77427169Y-50895965D01*
X77233597Y-51031505D01*
X77066505Y-51198597D01*
X76930965Y-51392169D01*
X76930964Y-51392171D01*
X76831098Y-51606335D01*
X76831094Y-51606344D01*
X76769938Y-51834586D01*
X76769936Y-51834596D01*
X76749341Y-52069999D01*
X76749341Y-52070000D01*
X76769937Y-52305408D01*
X76796855Y-52405873D01*
X76795192Y-52475723D01*
X76764761Y-52525646D01*
X76546208Y-52744199D01*
X76533951Y-52754020D01*
X76534134Y-52754241D01*
X76528123Y-52759213D01*
X76480772Y-52809636D01*
X76459889Y-52830519D01*
X76459877Y-52830532D01*
X76455621Y-52836017D01*
X76451837Y-52840447D01*
X76419937Y-52874418D01*
X76419936Y-52874420D01*
X76410284Y-52891976D01*
X76399610Y-52908226D01*
X76387329Y-52924061D01*
X76387324Y-52924068D01*
X76368815Y-52966838D01*
X76366245Y-52972084D01*
X76343803Y-53012906D01*
X76338822Y-53032307D01*
X76332521Y-53050710D01*
X76324562Y-53069102D01*
X76324561Y-53069105D01*
X76317271Y-53115127D01*
X76316087Y-53120846D01*
X76304501Y-53165972D01*
X76304500Y-53165982D01*
X76304500Y-53186016D01*
X76302973Y-53205415D01*
X76299840Y-53225194D01*
X76299840Y-53225195D01*
X76304225Y-53271583D01*
X76304500Y-53277421D01*
X76304500Y-60294109D01*
X76284815Y-60361148D01*
X76232011Y-60406903D01*
X76162853Y-60416847D01*
X76099297Y-60387822D01*
X76092819Y-60381790D01*
X69597129Y-53886100D01*
X69534825Y-53833332D01*
X69454894Y-53765634D01*
X69241274Y-53638344D01*
X69241272Y-53638343D01*
X69241270Y-53638342D01*
X69009623Y-53547953D01*
X69009616Y-53547951D01*
X68766234Y-53496918D01*
X68517782Y-53486643D01*
X68517781Y-53486643D01*
X68517779Y-53486643D01*
X68332709Y-53509711D01*
X68271018Y-53517401D01*
X68032684Y-53588356D01*
X67809291Y-53697566D01*
X67809284Y-53697570D01*
X67606901Y-53842069D01*
X67431069Y-54017901D01*
X67286570Y-54220284D01*
X67286568Y-54220288D01*
X67277947Y-54237923D01*
X67230818Y-54289504D01*
X67163284Y-54307417D01*
X67127761Y-54295962D01*
X67091740Y-54292811D01*
X66562949Y-54821602D01*
X66501626Y-54855087D01*
X66431934Y-54850103D01*
X66376001Y-54808231D01*
X66371460Y-54801743D01*
X66324189Y-54729391D01*
X66324187Y-54729388D01*
X66268673Y-54686180D01*
X66223843Y-54651287D01*
X66223840Y-54651285D01*
X66223488Y-54651012D01*
X66182675Y-54594301D01*
X66179000Y-54524529D01*
X66211969Y-54465477D01*
X66738187Y-53939258D01*
X66673409Y-53893900D01*
X66673407Y-53893899D01*
X66473284Y-53800580D01*
X66473270Y-53800575D01*
X66259986Y-53743426D01*
X66259976Y-53743424D01*
X66040001Y-53724179D01*
X66039999Y-53724179D01*
X65820023Y-53743424D01*
X65820013Y-53743426D01*
X65606729Y-53800575D01*
X65606720Y-53800579D01*
X65406586Y-53893903D01*
X65341812Y-53939257D01*
X65341811Y-53939258D01*
X65870723Y-54468170D01*
X65904208Y-54529493D01*
X65899224Y-54599185D01*
X65857352Y-54655118D01*
X65842059Y-54664906D01*
X65802749Y-54686179D01*
X65802748Y-54686179D01*
X65716626Y-54779733D01*
X65716626Y-54779734D01*
X65715911Y-54781365D01*
X65714340Y-54783233D01*
X65711008Y-54788334D01*
X65710391Y-54787931D01*
X65670952Y-54834849D01*
X65604215Y-54855535D01*
X65536888Y-54836857D01*
X65514677Y-54819230D01*
X64988258Y-54292811D01*
X64988257Y-54292812D01*
X64942903Y-54357586D01*
X64882658Y-54486781D01*
X64836485Y-54539220D01*
X64769292Y-54558372D01*
X64702411Y-54538156D01*
X64657894Y-54486781D01*
X64597534Y-54357340D01*
X64597533Y-54357338D01*
X64470827Y-54176381D01*
X64404446Y-54110000D01*
X64314620Y-54020174D01*
X64314616Y-54020171D01*
X64314615Y-54020170D01*
X64133666Y-53893468D01*
X64133662Y-53893466D01*
X64023438Y-53842068D01*
X63933450Y-53800106D01*
X63933447Y-53800105D01*
X63933445Y-53800104D01*
X63720070Y-53742930D01*
X63720062Y-53742929D01*
X63500002Y-53723677D01*
X63499998Y-53723677D01*
X63279937Y-53742929D01*
X63279929Y-53742930D01*
X63066554Y-53800104D01*
X63066548Y-53800107D01*
X62866340Y-53893465D01*
X62866338Y-53893466D01*
X62685377Y-54020175D01*
X62529175Y-54176377D01*
X62402466Y-54357338D01*
X62402465Y-54357340D01*
X62309107Y-54557548D01*
X62309104Y-54557554D01*
X62251930Y-54770929D01*
X62251929Y-54770937D01*
X62232677Y-54990997D01*
X62232677Y-54991002D01*
X62251929Y-55211062D01*
X62251930Y-55211070D01*
X62309104Y-55424445D01*
X62309105Y-55424447D01*
X62309106Y-55424450D01*
X62335663Y-55481401D01*
X62402466Y-55624662D01*
X62402468Y-55624666D01*
X62529170Y-55805615D01*
X62529175Y-55805621D01*
X62685378Y-55961824D01*
X62685384Y-55961829D01*
X62866333Y-56088531D01*
X62866335Y-56088532D01*
X62866338Y-56088534D01*
X63066550Y-56181894D01*
X63279932Y-56239070D01*
X63437123Y-56252822D01*
X63499998Y-56258323D01*
X63500000Y-56258323D01*
X63500002Y-56258323D01*
X63555016Y-56253509D01*
X63720068Y-56239070D01*
X63933450Y-56181894D01*
X64133662Y-56088534D01*
X64314620Y-55961826D01*
X64470826Y-55805620D01*
X64597534Y-55624662D01*
X64657894Y-55495218D01*
X64704066Y-55442779D01*
X64771259Y-55423627D01*
X64838141Y-55443843D01*
X64882658Y-55495219D01*
X64942899Y-55624407D01*
X64942900Y-55624409D01*
X64988258Y-55689187D01*
X65517050Y-55160395D01*
X65578373Y-55126910D01*
X65648064Y-55131894D01*
X65703998Y-55173765D01*
X65708539Y-55180254D01*
X65755813Y-55252612D01*
X65856157Y-55330713D01*
X65856160Y-55330714D01*
X65856511Y-55330987D01*
X65897324Y-55387697D01*
X65900999Y-55457470D01*
X65868030Y-55516522D01*
X65341811Y-56042741D01*
X65406582Y-56088094D01*
X65406592Y-56088100D01*
X65606715Y-56181419D01*
X65606729Y-56181424D01*
X65820013Y-56238573D01*
X65820023Y-56238575D01*
X66039999Y-56257821D01*
X66040001Y-56257821D01*
X66259976Y-56238575D01*
X66259986Y-56238573D01*
X66473270Y-56181424D01*
X66473284Y-56181419D01*
X66673408Y-56088100D01*
X66673420Y-56088093D01*
X66738186Y-56042742D01*
X66738187Y-56042740D01*
X66209276Y-55513829D01*
X66175791Y-55452506D01*
X66180775Y-55382814D01*
X66222647Y-55326881D01*
X66237933Y-55317097D01*
X66277251Y-55295820D01*
X66363371Y-55202269D01*
X66364083Y-55200643D01*
X66365652Y-55198777D01*
X66368992Y-55193666D01*
X66369609Y-55194069D01*
X66409036Y-55147158D01*
X66475770Y-55126464D01*
X66543099Y-55145135D01*
X66565322Y-55162769D01*
X67091740Y-55689187D01*
X67113658Y-55687269D01*
X67121489Y-55681010D01*
X67190987Y-55673812D01*
X67253344Y-55705330D01*
X67275017Y-55732280D01*
X67354634Y-55865894D01*
X67407156Y-55927907D01*
X67475100Y-56008129D01*
X77203181Y-65736208D01*
X77236666Y-65797531D01*
X77239500Y-65823889D01*
X77239500Y-93242690D01*
X77219815Y-93309729D01*
X77203181Y-93330371D01*
X76722949Y-93810603D01*
X76661626Y-93844088D01*
X76591934Y-93839104D01*
X76536001Y-93797232D01*
X76531459Y-93790744D01*
X76522698Y-93777334D01*
X76484187Y-93718388D01*
X76383843Y-93640287D01*
X76383839Y-93640285D01*
X76383488Y-93640012D01*
X76342675Y-93583301D01*
X76339000Y-93513529D01*
X76371969Y-93454477D01*
X76898187Y-92928258D01*
X76833409Y-92882900D01*
X76833407Y-92882899D01*
X76633284Y-92789580D01*
X76633270Y-92789575D01*
X76419986Y-92732426D01*
X76419976Y-92732424D01*
X76200001Y-92713179D01*
X76199999Y-92713179D01*
X75980023Y-92732424D01*
X75980013Y-92732426D01*
X75766729Y-92789575D01*
X75766720Y-92789579D01*
X75566586Y-92882903D01*
X75501812Y-92928257D01*
X75501811Y-92928258D01*
X76030723Y-93457170D01*
X76064208Y-93518493D01*
X76059224Y-93588185D01*
X76017352Y-93644118D01*
X76002059Y-93653906D01*
X75962749Y-93675179D01*
X75962748Y-93675179D01*
X75876626Y-93768733D01*
X75876626Y-93768734D01*
X75875911Y-93770365D01*
X75874340Y-93772233D01*
X75871008Y-93777334D01*
X75870391Y-93776931D01*
X75830952Y-93823849D01*
X75764215Y-93844535D01*
X75696888Y-93825857D01*
X75674677Y-93808230D01*
X75148258Y-93281811D01*
X75148257Y-93281812D01*
X75102903Y-93346586D01*
X75042658Y-93475781D01*
X74996485Y-93528220D01*
X74929292Y-93547372D01*
X74862411Y-93527156D01*
X74817894Y-93475781D01*
X74802906Y-93443639D01*
X74757534Y-93346339D01*
X74630826Y-93165380D01*
X74474620Y-93009174D01*
X74474616Y-93009171D01*
X74474615Y-93009170D01*
X74293666Y-92882468D01*
X74293662Y-92882466D01*
X74243763Y-92859198D01*
X74093450Y-92789106D01*
X74093447Y-92789105D01*
X74093445Y-92789104D01*
X73880070Y-92731930D01*
X73880062Y-92731929D01*
X73660002Y-92712677D01*
X73659998Y-92712677D01*
X73439937Y-92731929D01*
X73439929Y-92731930D01*
X73226554Y-92789104D01*
X73226548Y-92789107D01*
X73026340Y-92882465D01*
X73026338Y-92882466D01*
X72845377Y-93009175D01*
X72689175Y-93165377D01*
X72562466Y-93346338D01*
X72562465Y-93346340D01*
X72502382Y-93475189D01*
X72456209Y-93527628D01*
X72389016Y-93546780D01*
X72322135Y-93526564D01*
X72277618Y-93475189D01*
X72259059Y-93435390D01*
X72217534Y-93346339D01*
X72090826Y-93165380D01*
X71934620Y-93009174D01*
X71934616Y-93009171D01*
X71934615Y-93009170D01*
X71753666Y-92882468D01*
X71753662Y-92882466D01*
X71703763Y-92859198D01*
X71553450Y-92789106D01*
X71553447Y-92789105D01*
X71553445Y-92789104D01*
X71340070Y-92731930D01*
X71340062Y-92731929D01*
X71120002Y-92712677D01*
X71119998Y-92712677D01*
X70899937Y-92731929D01*
X70899929Y-92731930D01*
X70686554Y-92789104D01*
X70686548Y-92789107D01*
X70486340Y-92882465D01*
X70486338Y-92882466D01*
X70305377Y-93009175D01*
X70149175Y-93165377D01*
X70022466Y-93346338D01*
X70022465Y-93346340D01*
X69962382Y-93475189D01*
X69916209Y-93527628D01*
X69849016Y-93546780D01*
X69782135Y-93526564D01*
X69737618Y-93475189D01*
X69719059Y-93435390D01*
X69677534Y-93346339D01*
X69550826Y-93165380D01*
X69394620Y-93009174D01*
X69394616Y-93009171D01*
X69394615Y-93009170D01*
X69213666Y-92882468D01*
X69213662Y-92882466D01*
X69163763Y-92859198D01*
X69013450Y-92789106D01*
X69013447Y-92789105D01*
X69013445Y-92789104D01*
X68800070Y-92731930D01*
X68800062Y-92731929D01*
X68580002Y-92712677D01*
X68579998Y-92712677D01*
X68359937Y-92731929D01*
X68359929Y-92731930D01*
X68146554Y-92789104D01*
X68146548Y-92789107D01*
X67946340Y-92882465D01*
X67946338Y-92882466D01*
X67765377Y-93009175D01*
X67609175Y-93165377D01*
X67482466Y-93346338D01*
X67482465Y-93346340D01*
X67422382Y-93475189D01*
X67376209Y-93527628D01*
X67309016Y-93546780D01*
X67242135Y-93526564D01*
X67197618Y-93475189D01*
X67179059Y-93435390D01*
X67137534Y-93346339D01*
X67010826Y-93165380D01*
X66854620Y-93009174D01*
X66854616Y-93009171D01*
X66854615Y-93009170D01*
X66718376Y-92913775D01*
X66674751Y-92859198D01*
X66665499Y-92812205D01*
X66665499Y-85172743D01*
X66667224Y-85157128D01*
X66666937Y-85157101D01*
X66667670Y-85149340D01*
X66667672Y-85149332D01*
X66665500Y-85080202D01*
X66665500Y-85050650D01*
X66664629Y-85043759D01*
X66664172Y-85037945D01*
X66662709Y-84991374D01*
X66662709Y-84991372D01*
X66657120Y-84972137D01*
X66653174Y-84953084D01*
X66650664Y-84933208D01*
X66633501Y-84889859D01*
X66631614Y-84884346D01*
X66624104Y-84858498D01*
X66618617Y-84839610D01*
X66608421Y-84822369D01*
X66599860Y-84804893D01*
X66592486Y-84786269D01*
X66592486Y-84786267D01*
X66577362Y-84765452D01*
X66565083Y-84748550D01*
X66561900Y-84743705D01*
X66538170Y-84703579D01*
X66538165Y-84703573D01*
X66524005Y-84689413D01*
X66511370Y-84674620D01*
X66499593Y-84658412D01*
X66463693Y-84628713D01*
X66459381Y-84624790D01*
X65484189Y-83649599D01*
X65450705Y-83588276D01*
X65455689Y-83518584D01*
X65497561Y-83462651D01*
X65546089Y-83440628D01*
X65684803Y-83411144D01*
X65857730Y-83334151D01*
X66010871Y-83222888D01*
X66137533Y-83082216D01*
X66232179Y-82918284D01*
X66290674Y-82738256D01*
X66310460Y-82550000D01*
X66290674Y-82361744D01*
X66232179Y-82181716D01*
X66137533Y-82017784D01*
X66010871Y-81877112D01*
X66010870Y-81877111D01*
X65857734Y-81765851D01*
X65857729Y-81765848D01*
X65684807Y-81688857D01*
X65684802Y-81688855D01*
X65539001Y-81657865D01*
X65499646Y-81649500D01*
X65499645Y-81649500D01*
X65440452Y-81649500D01*
X65373413Y-81629815D01*
X65352771Y-81613181D01*
X59358960Y-75619369D01*
X59325475Y-75558046D01*
X59323323Y-75544668D01*
X59305674Y-75376744D01*
X59247179Y-75196716D01*
X59152533Y-75032784D01*
X59025871Y-74892112D01*
X59025870Y-74892111D01*
X58872734Y-74780851D01*
X58872729Y-74780848D01*
X58699807Y-74703857D01*
X58699802Y-74703855D01*
X58554000Y-74672865D01*
X58514646Y-74664500D01*
X58325354Y-74664500D01*
X58292897Y-74671398D01*
X58140197Y-74703855D01*
X58140192Y-74703857D01*
X57967270Y-74780848D01*
X57967265Y-74780851D01*
X57814129Y-74892111D01*
X57687466Y-75032785D01*
X57592821Y-75196715D01*
X57592818Y-75196722D01*
X57549970Y-75328597D01*
X57534326Y-75376744D01*
X57530781Y-75410472D01*
X57504197Y-75475084D01*
X57446900Y-75515069D01*
X57377081Y-75517729D01*
X57319780Y-75485189D01*
X51395803Y-69561212D01*
X51385980Y-69548950D01*
X51385759Y-69549134D01*
X51380786Y-69543123D01*
X51368162Y-69531268D01*
X51330364Y-69495773D01*
X51311040Y-69476449D01*
X51277557Y-69415125D01*
X51282543Y-69345433D01*
X51297147Y-69317651D01*
X51339035Y-69257830D01*
X51438903Y-69043663D01*
X51500063Y-68815408D01*
X51520659Y-68580000D01*
X51500063Y-68344592D01*
X51438903Y-68116337D01*
X51339035Y-67902171D01*
X51203495Y-67708599D01*
X51203494Y-67708597D01*
X51036402Y-67541506D01*
X51036395Y-67541501D01*
X50842834Y-67405967D01*
X50842830Y-67405965D01*
X50771727Y-67372809D01*
X50628663Y-67306097D01*
X50628659Y-67306096D01*
X50628655Y-67306094D01*
X50400413Y-67244938D01*
X50400403Y-67244936D01*
X50165001Y-67224341D01*
X50164999Y-67224341D01*
X49929596Y-67244936D01*
X49929586Y-67244938D01*
X49701344Y-67306094D01*
X49701335Y-67306098D01*
X49487171Y-67405964D01*
X49487169Y-67405965D01*
X49293600Y-67541503D01*
X49171284Y-67663819D01*
X49109961Y-67697303D01*
X49040269Y-67692319D01*
X48984336Y-67650447D01*
X48967421Y-67619470D01*
X48918354Y-67487913D01*
X48918350Y-67487906D01*
X48832190Y-67372812D01*
X48832187Y-67372809D01*
X48717093Y-67286649D01*
X48717086Y-67286645D01*
X48582379Y-67236403D01*
X48582372Y-67236401D01*
X48522844Y-67230000D01*
X47875000Y-67230000D01*
X47875000Y-67967698D01*
X47855315Y-68034737D01*
X47802511Y-68080492D01*
X47733355Y-68090436D01*
X47660766Y-68080000D01*
X47660763Y-68080000D01*
X47589237Y-68080000D01*
X47589233Y-68080000D01*
X47516644Y-68090436D01*
X47447486Y-68080492D01*
X47394683Y-68034736D01*
X47374999Y-67967698D01*
X47375000Y-67230000D01*
X46727155Y-67230000D01*
X46667627Y-67236401D01*
X46667620Y-67236403D01*
X46532913Y-67286645D01*
X46532906Y-67286649D01*
X46417812Y-67372809D01*
X46417809Y-67372812D01*
X46331649Y-67487906D01*
X46331645Y-67487913D01*
X46281403Y-67622620D01*
X46281401Y-67622627D01*
X46275000Y-67682155D01*
X46275000Y-68330000D01*
X47011653Y-68330000D01*
X47078692Y-68349685D01*
X47124447Y-68402489D01*
X47134391Y-68471647D01*
X47130631Y-68488933D01*
X47125000Y-68508111D01*
X47125000Y-68651888D01*
X47130631Y-68671067D01*
X47130630Y-68740936D01*
X47092855Y-68799714D01*
X47029299Y-68828738D01*
X47011653Y-68830000D01*
X46275000Y-68830000D01*
X46275000Y-69477844D01*
X46281401Y-69537372D01*
X46281403Y-69537379D01*
X46331645Y-69672086D01*
X46331649Y-69672093D01*
X46417809Y-69787187D01*
X46417812Y-69787190D01*
X46532906Y-69873350D01*
X46532913Y-69873354D01*
X46664470Y-69922421D01*
X46720403Y-69964292D01*
X46744821Y-70029756D01*
X46729970Y-70098029D01*
X46708819Y-70126284D01*
X46586503Y-70248600D01*
X46450965Y-70442169D01*
X46450964Y-70442171D01*
X46351098Y-70656335D01*
X46351094Y-70656344D01*
X46289938Y-70884586D01*
X46289936Y-70884596D01*
X46269341Y-71119999D01*
X46269341Y-71120000D01*
X46289936Y-71355403D01*
X46289938Y-71355413D01*
X46351094Y-71583655D01*
X46351096Y-71583659D01*
X46351097Y-71583663D01*
X46414148Y-71718876D01*
X46450965Y-71797830D01*
X46450967Y-71797834D01*
X46526032Y-71905037D01*
X46586501Y-71991396D01*
X46586506Y-71991402D01*
X46753597Y-72158493D01*
X46753603Y-72158498D01*
X46939158Y-72288425D01*
X46982783Y-72343002D01*
X46989977Y-72412500D01*
X46958454Y-72474855D01*
X46939158Y-72491575D01*
X46753597Y-72621505D01*
X46586505Y-72788597D01*
X46450965Y-72982169D01*
X46450964Y-72982171D01*
X46351098Y-73196335D01*
X46351094Y-73196344D01*
X46289938Y-73424586D01*
X46289936Y-73424596D01*
X46269341Y-73659999D01*
X46269341Y-73660000D01*
X46289936Y-73895403D01*
X46289938Y-73895413D01*
X46351094Y-74123655D01*
X46351096Y-74123659D01*
X46351097Y-74123663D01*
X46414148Y-74258876D01*
X46450965Y-74337830D01*
X46450967Y-74337834D01*
X46526032Y-74445037D01*
X46583077Y-74526506D01*
X46586501Y-74531395D01*
X46586506Y-74531402D01*
X46753597Y-74698493D01*
X46753603Y-74698498D01*
X46939158Y-74828425D01*
X46982783Y-74883002D01*
X46989977Y-74952500D01*
X46958454Y-75014855D01*
X46939158Y-75031575D01*
X46753597Y-75161505D01*
X46586505Y-75328597D01*
X46450965Y-75522169D01*
X46450964Y-75522171D01*
X46351098Y-75736335D01*
X46351094Y-75736344D01*
X46289938Y-75964586D01*
X46289936Y-75964596D01*
X46269341Y-76199999D01*
X46269341Y-76200000D01*
X46289936Y-76435403D01*
X46289938Y-76435413D01*
X46316856Y-76535872D01*
X46315193Y-76605722D01*
X46284762Y-76655646D01*
X44611208Y-78329199D01*
X44598951Y-78339020D01*
X44599134Y-78339241D01*
X44593123Y-78344213D01*
X44545772Y-78394636D01*
X44524889Y-78415519D01*
X44524877Y-78415532D01*
X44520621Y-78421017D01*
X44516837Y-78425447D01*
X44484937Y-78459418D01*
X44484936Y-78459420D01*
X44475284Y-78476976D01*
X44464610Y-78493226D01*
X44452329Y-78509061D01*
X44452324Y-78509068D01*
X44433815Y-78551838D01*
X44431245Y-78557084D01*
X44408803Y-78597906D01*
X44403822Y-78617307D01*
X44397521Y-78635710D01*
X44389562Y-78654102D01*
X44389561Y-78654106D01*
X44382271Y-78700127D01*
X44381087Y-78705846D01*
X44369499Y-78750983D01*
X44369499Y-78771019D01*
X44367973Y-78790407D01*
X44364840Y-78810192D01*
X44364840Y-78810195D01*
X42545000Y-78810195D01*
X42545000Y-66302870D01*
X57719500Y-66302870D01*
X57719501Y-66302876D01*
X57725908Y-66362483D01*
X57776202Y-66497328D01*
X57776206Y-66497335D01*
X57862452Y-66612544D01*
X57862455Y-66612547D01*
X57977664Y-66698793D01*
X57977671Y-66698797D01*
X58112517Y-66749091D01*
X58112516Y-66749091D01*
X58119444Y-66749835D01*
X58172127Y-66755500D01*
X59967872Y-66755499D01*
X60027483Y-66749091D01*
X60162331Y-66698796D01*
X60277546Y-66612546D01*
X60363796Y-66497331D01*
X60412810Y-66365916D01*
X60454681Y-66309984D01*
X60520145Y-66285566D01*
X60588418Y-66300417D01*
X60616673Y-66321569D01*
X60738599Y-66443495D01*
X60835384Y-66511265D01*
X60932165Y-66579032D01*
X60932167Y-66579033D01*
X60932170Y-66579035D01*
X61146337Y-66678903D01*
X61374592Y-66740063D01*
X61551034Y-66755500D01*
X61609999Y-66760659D01*
X61610000Y-66760659D01*
X61610001Y-66760659D01*
X61668966Y-66755500D01*
X61845408Y-66740063D01*
X61945873Y-66713143D01*
X62015722Y-66714806D01*
X62065647Y-66745237D01*
X65378181Y-70057771D01*
X65411666Y-70119094D01*
X65414500Y-70145452D01*
X65414500Y-78676312D01*
X65394815Y-78743351D01*
X65382650Y-78759284D01*
X65307466Y-78842784D01*
X65212821Y-79006715D01*
X65212818Y-79006722D01*
X65154327Y-79186740D01*
X65154326Y-79186744D01*
X65134540Y-79375000D01*
X65154326Y-79563256D01*
X65154327Y-79563259D01*
X65212818Y-79743277D01*
X65212821Y-79743284D01*
X65307467Y-79907216D01*
X65434129Y-80047888D01*
X65587265Y-80159148D01*
X65587270Y-80159151D01*
X65760192Y-80236142D01*
X65760197Y-80236144D01*
X65945354Y-80275500D01*
X65945355Y-80275500D01*
X66134644Y-80275500D01*
X66134646Y-80275500D01*
X66319803Y-80236144D01*
X66492730Y-80159151D01*
X66645871Y-80047888D01*
X66772533Y-79907216D01*
X66867179Y-79743284D01*
X66925674Y-79563256D01*
X66945460Y-79375000D01*
X66925674Y-79186744D01*
X66867179Y-79006716D01*
X66772533Y-78842784D01*
X66743187Y-78810192D01*
X66697350Y-78759284D01*
X66667120Y-78696292D01*
X66665500Y-78676312D01*
X66665500Y-69917738D01*
X66667224Y-69902125D01*
X66666938Y-69902098D01*
X66667671Y-69894336D01*
X66667672Y-69894333D01*
X66665499Y-69825203D01*
X66665500Y-69795650D01*
X66664629Y-69788758D01*
X66664172Y-69782946D01*
X66662709Y-69736372D01*
X66657122Y-69717144D01*
X66653174Y-69698084D01*
X66650663Y-69678204D01*
X66633512Y-69634887D01*
X66631619Y-69629358D01*
X66618618Y-69584609D01*
X66618616Y-69584606D01*
X66608423Y-69567371D01*
X66599861Y-69549894D01*
X66592487Y-69531270D01*
X66592486Y-69531268D01*
X66565079Y-69493545D01*
X66561888Y-69488686D01*
X66559948Y-69485406D01*
X66538170Y-69448580D01*
X66538168Y-69448578D01*
X66538165Y-69448574D01*
X66524006Y-69434415D01*
X66511368Y-69419619D01*
X66504955Y-69410792D01*
X66499594Y-69403413D01*
X66494952Y-69399573D01*
X66463688Y-69373709D01*
X66459376Y-69369786D01*
X63936319Y-66846728D01*
X63902834Y-66785405D01*
X63900000Y-66759047D01*
X63899999Y-66017301D01*
X63919683Y-65950262D01*
X63972487Y-65904507D01*
X64041646Y-65894563D01*
X64048380Y-65895531D01*
X64114237Y-65905000D01*
X64114238Y-65905000D01*
X64185762Y-65905000D01*
X64185763Y-65905000D01*
X64258353Y-65894563D01*
X64327512Y-65904507D01*
X64380315Y-65950262D01*
X64400000Y-66017301D01*
X64400000Y-66735634D01*
X64613483Y-66678433D01*
X64613492Y-66678429D01*
X64827578Y-66578600D01*
X65021082Y-66443105D01*
X65188105Y-66276082D01*
X65323600Y-66082578D01*
X65423429Y-65868492D01*
X65423432Y-65868486D01*
X65480636Y-65655000D01*
X64763347Y-65655000D01*
X64696308Y-65635315D01*
X64650553Y-65582511D01*
X64640609Y-65513353D01*
X64644369Y-65496067D01*
X64650000Y-65476888D01*
X64650000Y-65333111D01*
X64644369Y-65313933D01*
X64644370Y-65244064D01*
X64682145Y-65185286D01*
X64745701Y-65156262D01*
X64763347Y-65155000D01*
X65480636Y-65155000D01*
X65480635Y-65154999D01*
X65423432Y-64941513D01*
X65423429Y-64941507D01*
X65323600Y-64727422D01*
X65323599Y-64727420D01*
X65188113Y-64533926D01*
X65188108Y-64533920D01*
X65021082Y-64366894D01*
X64827578Y-64231399D01*
X64613492Y-64131570D01*
X64613486Y-64131567D01*
X64400000Y-64074364D01*
X64399999Y-64074364D01*
X64400000Y-64792698D01*
X64380315Y-64859737D01*
X64327511Y-64905492D01*
X64258355Y-64915436D01*
X64185766Y-64905000D01*
X64185763Y-64905000D01*
X64114237Y-64905000D01*
X64114233Y-64905000D01*
X64041644Y-64915436D01*
X63972486Y-64905492D01*
X63919683Y-64859736D01*
X63899999Y-64792698D01*
X63899999Y-64074364D01*
X63686513Y-64131567D01*
X63686507Y-64131570D01*
X63472422Y-64231399D01*
X63472420Y-64231400D01*
X63278926Y-64366886D01*
X63278920Y-64366891D01*
X63111891Y-64533920D01*
X63111890Y-64533922D01*
X62981880Y-64719595D01*
X62927303Y-64763219D01*
X62857804Y-64770412D01*
X62795450Y-64738890D01*
X62778730Y-64719594D01*
X62648494Y-64533597D01*
X62481402Y-64366506D01*
X62481395Y-64366501D01*
X62287834Y-64230967D01*
X62287830Y-64230965D01*
X62287828Y-64230964D01*
X62073663Y-64131097D01*
X62073659Y-64131096D01*
X62073655Y-64131094D01*
X61845413Y-64069938D01*
X61845403Y-64069936D01*
X61610001Y-64049341D01*
X61609999Y-64049341D01*
X61374596Y-64069936D01*
X61374586Y-64069938D01*
X61146344Y-64131094D01*
X61146335Y-64131098D01*
X60932171Y-64230964D01*
X60932169Y-64230965D01*
X60738600Y-64366503D01*
X60616673Y-64488430D01*
X60555350Y-64521914D01*
X60485658Y-64516930D01*
X60429725Y-64475058D01*
X60412810Y-64444081D01*
X60363797Y-64312671D01*
X60363793Y-64312664D01*
X60277547Y-64197455D01*
X60277544Y-64197452D01*
X60162335Y-64111206D01*
X60162328Y-64111202D01*
X60027482Y-64060908D01*
X60027483Y-64060908D01*
X59967883Y-64054501D01*
X59967881Y-64054500D01*
X59967873Y-64054500D01*
X59967864Y-64054500D01*
X58172129Y-64054500D01*
X58172123Y-64054501D01*
X58112516Y-64060908D01*
X57977671Y-64111202D01*
X57977664Y-64111206D01*
X57862455Y-64197452D01*
X57862452Y-64197455D01*
X57776206Y-64312664D01*
X57776202Y-64312671D01*
X57725908Y-64447517D01*
X57719501Y-64507116D01*
X57719500Y-64507135D01*
X57719500Y-66302870D01*
X42545000Y-66302870D01*
X42545000Y-55118626D01*
X43214500Y-55118626D01*
X43217295Y-55171243D01*
X43217295Y-55171244D01*
X43252279Y-55352128D01*
X43261755Y-55401126D01*
X43310326Y-55529832D01*
X43344425Y-55620189D01*
X43462929Y-55822131D01*
X43462934Y-55822138D01*
X43613856Y-56001141D01*
X43613858Y-56001143D01*
X43792861Y-56152065D01*
X43792868Y-56152070D01*
X43994810Y-56270574D01*
X44213874Y-56353245D01*
X44443759Y-56397705D01*
X44485193Y-56399905D01*
X44496374Y-56400500D01*
X44496378Y-56400500D01*
X46433626Y-56400500D01*
X46443731Y-56399962D01*
X46486241Y-56397705D01*
X46716126Y-56353245D01*
X46935190Y-56270574D01*
X47137132Y-56152070D01*
X47212493Y-56088531D01*
X47316141Y-56001143D01*
X47316143Y-56001141D01*
X47467065Y-55822138D01*
X47467065Y-55822137D01*
X47467070Y-55822132D01*
X47585574Y-55620190D01*
X47668245Y-55401126D01*
X47668755Y-55398485D01*
X47669281Y-55397467D01*
X47669683Y-55396050D01*
X47669971Y-55396131D01*
X47700812Y-55336403D01*
X47761343Y-55301507D01*
X47831131Y-55304876D01*
X47888019Y-55345440D01*
X47913946Y-55410322D01*
X47914500Y-55422030D01*
X47914500Y-58947870D01*
X47914501Y-58947876D01*
X47920908Y-59007483D01*
X47971202Y-59142328D01*
X47971206Y-59142335D01*
X48057452Y-59257544D01*
X48057455Y-59257547D01*
X48172664Y-59343793D01*
X48172671Y-59343797D01*
X48307517Y-59394091D01*
X48307516Y-59394091D01*
X48314444Y-59394835D01*
X48367127Y-59400500D01*
X51962872Y-59400499D01*
X52022483Y-59394091D01*
X52157331Y-59343796D01*
X52272546Y-59257546D01*
X52358796Y-59142331D01*
X52409091Y-59007483D01*
X52415500Y-58947873D01*
X52415499Y-55352128D01*
X52410057Y-55301507D01*
X52409091Y-55292516D01*
X52358797Y-55157671D01*
X52358793Y-55157664D01*
X52272547Y-55042455D01*
X52272544Y-55042452D01*
X52157335Y-54956206D01*
X52157328Y-54956202D01*
X52022482Y-54905908D01*
X52022483Y-54905908D01*
X51962883Y-54899501D01*
X51962881Y-54899500D01*
X51962873Y-54899500D01*
X51962864Y-54899500D01*
X48367129Y-54899500D01*
X48367123Y-54899501D01*
X48307516Y-54905908D01*
X48172671Y-54956202D01*
X48172664Y-54956206D01*
X48057455Y-55042452D01*
X48057452Y-55042455D01*
X47971206Y-55157664D01*
X47971203Y-55157669D01*
X47953573Y-55204939D01*
X47911701Y-55260872D01*
X47846237Y-55285289D01*
X47777964Y-55270437D01*
X47728559Y-55221032D01*
X47713566Y-55155025D01*
X47714092Y-55145135D01*
X47715060Y-55126910D01*
X47715500Y-55118626D01*
X47715500Y-53181374D01*
X47713833Y-53149998D01*
X47712705Y-53128759D01*
X47668245Y-52898874D01*
X47585574Y-52679810D01*
X47467070Y-52477868D01*
X47467065Y-52477861D01*
X47316143Y-52298858D01*
X47316141Y-52298856D01*
X47137138Y-52147934D01*
X47137131Y-52147929D01*
X46935189Y-52029425D01*
X46844832Y-51995326D01*
X46716126Y-51946755D01*
X46716121Y-51946754D01*
X46486244Y-51902295D01*
X46433626Y-51899500D01*
X46433622Y-51899500D01*
X44496378Y-51899500D01*
X44496374Y-51899500D01*
X44443756Y-51902295D01*
X44443755Y-51902295D01*
X44213878Y-51946754D01*
X44213876Y-51946754D01*
X44213874Y-51946755D01*
X44167669Y-51964192D01*
X43994810Y-52029425D01*
X43792868Y-52147929D01*
X43792861Y-52147934D01*
X43613858Y-52298856D01*
X43613856Y-52298858D01*
X43462934Y-52477861D01*
X43462929Y-52477868D01*
X43344425Y-52679810D01*
X43314460Y-52759214D01*
X43261755Y-52898874D01*
X43261754Y-52898876D01*
X43261754Y-52898878D01*
X43217295Y-53128755D01*
X43217295Y-53128756D01*
X43214500Y-53181374D01*
X43214500Y-55118626D01*
X42545000Y-55118626D01*
X42545000Y-50900000D01*
X47915000Y-50900000D01*
X48551653Y-50900000D01*
X48618692Y-50919685D01*
X48664447Y-50972489D01*
X48674391Y-51041647D01*
X48670631Y-51058933D01*
X48665000Y-51078111D01*
X48665000Y-51221888D01*
X48670631Y-51241067D01*
X48670630Y-51310936D01*
X48632855Y-51369714D01*
X48569299Y-51398738D01*
X48551653Y-51400000D01*
X47915001Y-51400000D01*
X47915001Y-51964192D01*
X47925400Y-52096332D01*
X47980377Y-52314519D01*
X48073428Y-52519374D01*
X48073431Y-52519380D01*
X48201559Y-52704323D01*
X48201569Y-52704335D01*
X48360664Y-52863430D01*
X48360676Y-52863440D01*
X48545619Y-52991568D01*
X48545625Y-52991571D01*
X48750480Y-53084622D01*
X48968667Y-53139599D01*
X49100807Y-53150000D01*
X49914999Y-53149999D01*
X49915000Y-53149998D01*
X49915000Y-51774000D01*
X49934685Y-51706961D01*
X49987489Y-51661206D01*
X50039000Y-51650000D01*
X50291000Y-51650000D01*
X50358039Y-51669685D01*
X50403794Y-51722489D01*
X50415000Y-51774000D01*
X50415000Y-53149999D01*
X51229192Y-53149999D01*
X51361332Y-53139599D01*
X51579519Y-53084622D01*
X51784374Y-52991571D01*
X51784380Y-52991568D01*
X51969323Y-52863440D01*
X51969335Y-52863430D01*
X52128430Y-52704335D01*
X52128440Y-52704323D01*
X52256568Y-52519380D01*
X52256571Y-52519374D01*
X52349622Y-52314519D01*
X52404599Y-52096332D01*
X52415000Y-51964194D01*
X52415000Y-51400000D01*
X51778347Y-51400000D01*
X51711308Y-51380315D01*
X51665553Y-51327511D01*
X51655609Y-51258353D01*
X51659369Y-51241067D01*
X51665000Y-51221888D01*
X51665000Y-51078111D01*
X51659369Y-51058933D01*
X51659370Y-50989064D01*
X51697145Y-50930286D01*
X51760701Y-50901262D01*
X51778347Y-50900000D01*
X52414999Y-50900000D01*
X52414999Y-50335808D01*
X52404599Y-50203667D01*
X52349622Y-49985480D01*
X52256571Y-49780625D01*
X52256568Y-49780619D01*
X52128440Y-49595676D01*
X52128430Y-49595664D01*
X51969335Y-49436569D01*
X51969323Y-49436559D01*
X51784380Y-49308431D01*
X51784374Y-49308428D01*
X51579519Y-49215377D01*
X51361332Y-49160400D01*
X51229194Y-49150000D01*
X50415000Y-49150000D01*
X50415000Y-50526000D01*
X50395315Y-50593039D01*
X50342511Y-50638794D01*
X50291000Y-50650000D01*
X50039000Y-50650000D01*
X49971961Y-50630315D01*
X49926206Y-50577511D01*
X49915000Y-50526000D01*
X49915000Y-49150000D01*
X49914999Y-49150000D01*
X49100808Y-49150001D01*
X48968667Y-49160400D01*
X48750480Y-49215377D01*
X48545625Y-49308428D01*
X48545619Y-49308431D01*
X48360676Y-49436559D01*
X48360664Y-49436569D01*
X48201569Y-49595664D01*
X48201559Y-49595676D01*
X48073431Y-49780619D01*
X48073428Y-49780625D01*
X47980377Y-49985480D01*
X47925400Y-50203667D01*
X47915000Y-50335806D01*
X47915000Y-50900000D01*
X42545000Y-50900000D01*
X42545000Y-47191538D01*
X42564685Y-47124499D01*
X42617489Y-47078744D01*
X42669000Y-47067538D01*
X109096000Y-47067538D01*
X109163039Y-47087223D01*
G37*
%TD.AperFunction*%
%TD*%
M02*
