%TF.GenerationSoftware,KiCad,Pcbnew,7.0.7*%
%TF.CreationDate,2023-09-28T16:31:28-05:00*%
%TF.ProjectId,iowa-rover-kiosk-main,696f7761-2d72-46f7-9665-722d6b696f73,rev?*%
%TF.SameCoordinates,Original*%
%TF.FileFunction,Soldermask,Bot*%
%TF.FilePolarity,Negative*%
%FSLAX46Y46*%
G04 Gerber Fmt 4.6, Leading zero omitted, Abs format (unit mm)*
G04 Created by KiCad (PCBNEW 7.0.7) date 2023-09-28 16:31:28*
%MOMM*%
%LPD*%
G01*
G04 APERTURE LIST*
G04 Aperture macros list*
%AMRoundRect*
0 Rectangle with rounded corners*
0 $1 Rounding radius*
0 $2 $3 $4 $5 $6 $7 $8 $9 X,Y pos of 4 corners*
0 Add a 4 corners polygon primitive as box body*
4,1,4,$2,$3,$4,$5,$6,$7,$8,$9,$2,$3,0*
0 Add four circle primitives for the rounded corners*
1,1,$1+$1,$2,$3*
1,1,$1+$1,$4,$5*
1,1,$1+$1,$6,$7*
1,1,$1+$1,$8,$9*
0 Add four rect primitives between the rounded corners*
20,1,$1+$1,$2,$3,$4,$5,0*
20,1,$1+$1,$4,$5,$6,$7,0*
20,1,$1+$1,$6,$7,$8,$9,0*
20,1,$1+$1,$8,$9,$2,$3,0*%
G04 Aperture macros list end*
%ADD10C,2.500000*%
%ADD11C,1.524000*%
%ADD12R,1.700000X1.700000*%
%ADD13O,1.700000X1.700000*%
%ADD14R,3.500000X3.500000*%
%ADD15RoundRect,0.750000X-1.000000X0.750000X-1.000000X-0.750000X1.000000X-0.750000X1.000000X0.750000X0*%
%ADD16RoundRect,0.875000X-0.875000X0.875000X-0.875000X-0.875000X0.875000X-0.875000X0.875000X0.875000X0*%
%ADD17R,1.800000X1.800000*%
%ADD18C,1.800000*%
%ADD19C,1.600000*%
%ADD20O,1.600000X1.600000*%
%ADD21RoundRect,0.250000X0.845000X-0.620000X0.845000X0.620000X-0.845000X0.620000X-0.845000X-0.620000X0*%
%ADD22O,2.190000X1.740000*%
%ADD23R,1.600000X1.600000*%
G04 APERTURE END LIST*
D10*
%TO.C,REF\u002A\u002A*%
X40562962Y-123825000D03*
%TD*%
D11*
%TO.C,U1*%
X78740000Y-93980000D03*
X76200000Y-93980000D03*
X73660000Y-93980000D03*
X71120000Y-93980000D03*
X68580000Y-93980000D03*
X66040000Y-93980000D03*
X63500000Y-93980000D03*
X60960000Y-93980000D03*
X58420000Y-93980000D03*
X78740000Y-119380000D03*
X76200000Y-119380000D03*
X73660000Y-119380000D03*
X71120000Y-119380000D03*
X68580000Y-119380000D03*
%TD*%
D10*
%TO.C,REF\u002A\u002A*%
X111125000Y-123825000D03*
%TD*%
D12*
%TO.C,JP1*%
X59070000Y-65405000D03*
D13*
X61610000Y-65405000D03*
X64150000Y-65405000D03*
%TD*%
D12*
%TO.C,J1*%
X47625000Y-68580000D03*
D13*
X50165000Y-68580000D03*
X47625000Y-71120000D03*
X50165000Y-71120000D03*
X47625000Y-73660000D03*
X50165000Y-73660000D03*
X47625000Y-76200000D03*
X50165000Y-76200000D03*
X47625000Y-78740000D03*
X50165000Y-78740000D03*
X47625000Y-81280000D03*
X50165000Y-81280000D03*
X47625000Y-83820000D03*
X50165000Y-83820000D03*
X47625000Y-86360000D03*
X50165000Y-86360000D03*
X47625000Y-88900000D03*
X50165000Y-88900000D03*
X47625000Y-91440000D03*
X50165000Y-91440000D03*
X47625000Y-93980000D03*
X50165000Y-93980000D03*
X47625000Y-96520000D03*
X50165000Y-96520000D03*
X47625000Y-99060000D03*
X50165000Y-99060000D03*
X47625000Y-101600000D03*
X50165000Y-101600000D03*
X47625000Y-104140000D03*
X50165000Y-104140000D03*
X47625000Y-106680000D03*
X50165000Y-106680000D03*
X47625000Y-109220000D03*
X50165000Y-109220000D03*
X47625000Y-111760000D03*
X50165000Y-111760000D03*
X47625000Y-114300000D03*
X50165000Y-114300000D03*
X47625000Y-116840000D03*
X50165000Y-116840000D03*
%TD*%
D14*
%TO.C,J2*%
X50165000Y-57150000D03*
D15*
X50165000Y-51150000D03*
D16*
X45465000Y-54150000D03*
%TD*%
D17*
%TO.C,D1*%
X95890000Y-123190000D03*
D18*
X93350000Y-123190000D03*
%TD*%
D19*
%TO.C,R1*%
X85090000Y-118745000D03*
D20*
X95250000Y-118745000D03*
%TD*%
D10*
%TO.C,REF\u002A\u002A*%
X40562962Y-50165000D03*
%TD*%
%TO.C,REF\u002A\u002A*%
X111125000Y-50165000D03*
%TD*%
D21*
%TO.C,J7*%
X103485000Y-91440000D03*
D22*
X103485000Y-88900000D03*
X103485000Y-86360000D03*
%TD*%
D11*
%TO.C,U2*%
X63500000Y-54991000D03*
X66040000Y-54991000D03*
X68580000Y-54991000D03*
%TD*%
D21*
%TO.C,J4*%
X103505000Y-104140000D03*
D22*
X103505000Y-101600000D03*
X103505000Y-99060000D03*
X103505000Y-96520000D03*
%TD*%
D12*
%TO.C,J5*%
X102235000Y-57785000D03*
D13*
X104775000Y-57785000D03*
X102235000Y-60325000D03*
X104775000Y-60325000D03*
X102235000Y-62865000D03*
X104775000Y-62865000D03*
X102235000Y-65405000D03*
X104775000Y-65405000D03*
X102235000Y-67945000D03*
X104775000Y-67945000D03*
X102235000Y-70485000D03*
X104775000Y-70485000D03*
X102235000Y-73025000D03*
X104775000Y-73025000D03*
X102235000Y-75565000D03*
X104775000Y-75565000D03*
%TD*%
D12*
%TO.C,J3*%
X78105000Y-54610000D03*
D13*
X78105000Y-52070000D03*
X80645000Y-54610000D03*
X80645000Y-52070000D03*
X83185000Y-54610000D03*
X83185000Y-52070000D03*
X85725000Y-54610000D03*
X85725000Y-52070000D03*
X88265000Y-54610000D03*
X88265000Y-52070000D03*
X90805000Y-54610000D03*
X90805000Y-52070000D03*
%TD*%
D23*
%TO.C,U3*%
X86995000Y-99695000D03*
D20*
X86995000Y-102235000D03*
X86995000Y-104775000D03*
X86995000Y-107315000D03*
X86995000Y-109855000D03*
X86995000Y-112395000D03*
X86995000Y-114935000D03*
X94615000Y-114935000D03*
X94615000Y-112395000D03*
X94615000Y-109855000D03*
X94615000Y-107315000D03*
X94615000Y-104775000D03*
X94615000Y-102235000D03*
X94615000Y-99695000D03*
%TD*%
D12*
%TO.C,J6*%
X102235000Y-112395000D03*
D13*
X104775000Y-112395000D03*
X102235000Y-114935000D03*
X104775000Y-114935000D03*
X102235000Y-117475000D03*
X104775000Y-117475000D03*
X102235000Y-120015000D03*
X104775000Y-120015000D03*
%TD*%
M02*
