M48
; DRILL file {KiCad 7.0.7} date Thu Sep 28 16:31:29 2023
; FORMAT={-:-/ absolute / metric / decimal}
; #@! TF.CreationDate,2023-09-28T16:31:29-05:00
; #@! TF.GenerationSoftware,Kicad,Pcbnew,7.0.7
; #@! TF.FileFunction,Plated,1,2,PTH
FMAT,2
METRIC
; #@! TA.AperFunction,Plated,PTH,ViaDrill
T1C0.400
; #@! TA.AperFunction,Plated,PTH,ComponentDrill
T2C0.762
; #@! TA.AperFunction,Plated,PTH,ComponentDrill
T3C0.800
; #@! TA.AperFunction,Plated,PTH,ComponentDrill
T4C0.900
; #@! TA.AperFunction,Plated,PTH,ComponentDrill
T5C1.000
; #@! TA.AperFunction,Plated,PTH,ComponentDrill
T6C1.190
%
G90
G05
T1
X45.72Y-82.55
X55.245Y-93.98
X58.42Y-75.565
X65.405Y-82.55
X66.04Y-79.375
T2
X58.42Y-93.98
X60.96Y-93.98
X63.5Y-54.991
X63.5Y-93.98
X66.04Y-54.991
X66.04Y-93.98
X68.58Y-54.991
X68.58Y-93.98
X68.58Y-119.38
X71.12Y-93.98
X71.12Y-119.38
X73.66Y-93.98
X73.66Y-119.38
X76.2Y-93.98
X76.2Y-119.38
X78.74Y-93.98
X78.74Y-119.38
T3
X85.09Y-118.745
X86.995Y-99.695
X86.995Y-102.235
X86.995Y-104.775
X86.995Y-107.315
X86.995Y-109.855
X86.995Y-112.395
X86.995Y-114.935
X94.615Y-99.695
X94.615Y-102.235
X94.615Y-104.775
X94.615Y-107.315
X94.615Y-109.855
X94.615Y-112.395
X94.615Y-114.935
X95.25Y-118.745
T4
X93.35Y-123.19
X95.89Y-123.19
T5
X47.625Y-68.58
X47.625Y-71.12
X47.625Y-73.66
X47.625Y-76.2
X47.625Y-78.74
X47.625Y-81.28
X47.625Y-83.82
X47.625Y-86.36
X47.625Y-88.9
X47.625Y-91.44
X47.625Y-93.98
X47.625Y-96.52
X47.625Y-99.06
X47.625Y-101.6
X47.625Y-104.14
X47.625Y-106.68
X47.625Y-109.22
X47.625Y-111.76
X47.625Y-114.3
X47.625Y-116.84
X50.165Y-68.58
X50.165Y-71.12
X50.165Y-73.66
X50.165Y-76.2
X50.165Y-78.74
X50.165Y-81.28
X50.165Y-83.82
X50.165Y-86.36
X50.165Y-88.9
X50.165Y-91.44
X50.165Y-93.98
X50.165Y-96.52
X50.165Y-99.06
X50.165Y-101.6
X50.165Y-104.14
X50.165Y-106.68
X50.165Y-109.22
X50.165Y-111.76
X50.165Y-114.3
X50.165Y-116.84
X59.07Y-65.405
X61.61Y-65.405
X64.15Y-65.405
X78.105Y-52.07
X78.105Y-54.61
X80.645Y-52.07
X80.645Y-54.61
X83.185Y-52.07
X83.185Y-54.61
X85.725Y-52.07
X85.725Y-54.61
X88.265Y-52.07
X88.265Y-54.61
X90.805Y-52.07
X90.805Y-54.61
X102.235Y-57.785
X102.235Y-60.325
X102.235Y-62.865
X102.235Y-65.405
X102.235Y-67.945
X102.235Y-70.485
X102.235Y-73.025
X102.235Y-75.565
X102.235Y-112.395
X102.235Y-114.935
X102.235Y-117.475
X102.235Y-120.015
X104.775Y-57.785
X104.775Y-60.325
X104.775Y-62.865
X104.775Y-65.405
X104.775Y-67.945
X104.775Y-70.485
X104.775Y-73.025
X104.775Y-75.565
X104.775Y-112.395
X104.775Y-114.935
X104.775Y-117.475
X104.775Y-120.015
T6
X103.485Y-86.36
X103.485Y-88.9
X103.485Y-91.44
X103.505Y-96.52
X103.505Y-99.06
X103.505Y-101.6
X103.505Y-104.14
T5
X45.465Y-53.15G85X45.465Y-55.15
G05
X51.165Y-51.15G85X49.165Y-51.15
G05
X51.165Y-57.15G85X49.165Y-57.15
G05
T0
M30
