%TF.GenerationSoftware,KiCad,Pcbnew,7.0.7*%
%TF.CreationDate,2023-09-28T15:42:35-05:00*%
%TF.ProjectId,iowa-rover-kiosk-lamps,696f7761-2d72-46f7-9665-722d6b696f73,rev?*%
%TF.SameCoordinates,Original*%
%TF.FileFunction,Soldermask,Bot*%
%TF.FilePolarity,Negative*%
%FSLAX46Y46*%
G04 Gerber Fmt 4.6, Leading zero omitted, Abs format (unit mm)*
G04 Created by KiCad (PCBNEW 7.0.7) date 2023-09-28 15:42:35*
%MOMM*%
%LPD*%
G01*
G04 APERTURE LIST*
%ADD10R,3.000000X3.000000*%
%ADD11C,3.000000*%
%ADD12R,1.600000X1.600000*%
%ADD13O,1.600000X1.600000*%
%ADD14R,1.700000X1.700000*%
%ADD15O,1.700000X1.700000*%
%ADD16C,1.600000*%
%ADD17C,2.500000*%
G04 APERTURE END LIST*
D10*
%TO.C,RFID Lamp 2*%
X96520000Y-46355000D03*
D11*
X91440000Y-46355000D03*
%TD*%
D10*
%TO.C,RFID Lamp 4*%
X112395000Y-46355000D03*
D11*
X107315000Y-46355000D03*
%TD*%
D12*
%TO.C,U1*%
X98425000Y-64135000D03*
D13*
X100965000Y-64135000D03*
X103505000Y-64135000D03*
X106045000Y-64135000D03*
X108585000Y-64135000D03*
X111125000Y-64135000D03*
X113665000Y-64135000D03*
X116205000Y-64135000D03*
X118745000Y-64135000D03*
X121285000Y-64135000D03*
X121285000Y-56515000D03*
X118745000Y-56515000D03*
X116205000Y-56515000D03*
X113665000Y-56515000D03*
X111125000Y-56515000D03*
X108585000Y-56515000D03*
X106045000Y-56515000D03*
X103505000Y-56515000D03*
X100965000Y-56515000D03*
X98425000Y-56515000D03*
%TD*%
D10*
%TO.C,Error Lamp*%
X128270000Y-46355000D03*
D11*
X123190000Y-46355000D03*
%TD*%
D14*
%TO.C,J1*%
X134630000Y-60965000D03*
D15*
X134630000Y-58425000D03*
X137170000Y-60965000D03*
X137170000Y-58425000D03*
X139710000Y-60965000D03*
X139710000Y-58425000D03*
X142250000Y-60965000D03*
X142250000Y-58425000D03*
%TD*%
D16*
%TO.C,R1*%
X152400000Y-51435000D03*
D13*
X152400000Y-41275000D03*
%TD*%
D10*
%TO.C,Tx Btn*%
X152400000Y-34290000D03*
D11*
X147320000Y-34290000D03*
%TD*%
D10*
%TO.C,Tx Btn Lamp*%
X144145000Y-46355000D03*
D11*
X139065000Y-46355000D03*
%TD*%
D17*
%TO.C,REF\u002A\u002A*%
X158750000Y-33020000D03*
%TD*%
%TO.C,REF\u002A\u002A*%
X77470000Y-63500000D03*
%TD*%
D10*
%TO.C,Ready Lamp*%
X120650000Y-34290000D03*
D11*
X115570000Y-34290000D03*
%TD*%
D10*
%TO.C,Running Lamp*%
X136525000Y-34290000D03*
D11*
X131445000Y-34290000D03*
%TD*%
D17*
%TO.C,REF\u002A\u002A*%
X77470000Y-33020000D03*
%TD*%
%TO.C,REF\u002A\u002A*%
X158750000Y-63500000D03*
%TD*%
D10*
%TO.C,RFID Lamp 1*%
X88900000Y-34290000D03*
D11*
X83820000Y-34290000D03*
%TD*%
D10*
%TO.C,RFID Lamp 3*%
X104775000Y-34290000D03*
D11*
X99695000Y-34290000D03*
%TD*%
M02*
