%TF.GenerationSoftware,KiCad,Pcbnew,7.0.7*%
%TF.CreationDate,2023-09-28T15:42:40-05:00*%
%TF.ProjectId,iowa-rover-kiosk-lamps,696f7761-2d72-46f7-9665-722d6b696f73,rev?*%
%TF.SameCoordinates,Original*%
%TF.FileFunction,Drillmap*%
%TF.FilePolarity,Positive*%
%FSLAX45Y45*%
G04 Gerber Fmt 4.5, Leading zero omitted, Abs format (unit mm)*
G04 Created by KiCad (PCBNEW 7.0.7) date 2023-09-28 15:42:40*
%MOMM*%
%LPD*%
G01*
G04 APERTURE LIST*
%ADD10C,0.100000*%
%ADD11C,0.200000*%
%ADD12C,0.080000*%
%ADD13C,0.152000*%
G04 APERTURE END LIST*
D10*
X15875000Y-6667500D02*
G75*
G03*
X16192500Y-6350000I0J317500D01*
G01*
X16192500Y-3302000D02*
G75*
G03*
X15875000Y-2984500I-317500J0D01*
G01*
X15875000Y-2984500D02*
X7747000Y-2984500D01*
X7429500Y-6350000D02*
G75*
G03*
X7747000Y-6667500I317500J0D01*
G01*
X16192500Y-6350000D02*
X16192500Y-3302000D01*
X7747000Y-6667500D02*
X15875000Y-6667500D01*
X7747000Y-2984500D02*
G75*
G03*
X7429500Y-3302000I0J-317500D01*
G01*
X7429500Y-3302000D02*
X7429500Y-6350000D01*
D11*
D12*
X9802500Y-5611500D02*
X9882500Y-5691500D01*
X9882500Y-5611500D02*
X9802500Y-5691500D01*
X9802500Y-6373500D02*
X9882500Y-6453500D01*
X9882500Y-6373500D02*
X9802500Y-6453500D01*
X10056500Y-5611500D02*
X10136500Y-5691500D01*
X10136500Y-5611500D02*
X10056500Y-5691500D01*
X10056500Y-6373500D02*
X10136500Y-6453500D01*
X10136500Y-6373500D02*
X10056500Y-6453500D01*
X10310500Y-5611500D02*
X10390500Y-5691500D01*
X10390500Y-5611500D02*
X10310500Y-5691500D01*
X10310500Y-6373500D02*
X10390500Y-6453500D01*
X10390500Y-6373500D02*
X10310500Y-6453500D01*
X10564500Y-5611500D02*
X10644500Y-5691500D01*
X10644500Y-5611500D02*
X10564500Y-5691500D01*
X10564500Y-6373500D02*
X10644500Y-6453500D01*
X10644500Y-6373500D02*
X10564500Y-6453500D01*
X10818500Y-5611500D02*
X10898500Y-5691500D01*
X10898500Y-5611500D02*
X10818500Y-5691500D01*
X10818500Y-6373500D02*
X10898500Y-6453500D01*
X10898500Y-6373500D02*
X10818500Y-6453500D01*
X11072500Y-5611500D02*
X11152500Y-5691500D01*
X11152500Y-5611500D02*
X11072500Y-5691500D01*
X11072500Y-6373500D02*
X11152500Y-6453500D01*
X11152500Y-6373500D02*
X11072500Y-6453500D01*
X11326500Y-5611500D02*
X11406500Y-5691500D01*
X11406500Y-5611500D02*
X11326500Y-5691500D01*
X11326500Y-6373500D02*
X11406500Y-6453500D01*
X11406500Y-6373500D02*
X11326500Y-6453500D01*
X11580500Y-5611500D02*
X11660500Y-5691500D01*
X11660500Y-5611500D02*
X11580500Y-5691500D01*
X11580500Y-6373500D02*
X11660500Y-6453500D01*
X11660500Y-6373500D02*
X11580500Y-6453500D01*
X11834500Y-5611500D02*
X11914500Y-5691500D01*
X11914500Y-5611500D02*
X11834500Y-5691500D01*
X11834500Y-6373500D02*
X11914500Y-6453500D01*
X11914500Y-6373500D02*
X11834500Y-6453500D01*
X12088500Y-5611500D02*
X12168500Y-5691500D01*
X12168500Y-5611500D02*
X12088500Y-5691500D01*
X12088500Y-6373500D02*
X12168500Y-6453500D01*
X12168500Y-6373500D02*
X12088500Y-6453500D01*
X15200000Y-4087500D02*
X15280000Y-4167500D01*
X15280000Y-4087500D02*
X15200000Y-4167500D01*
X15200000Y-5103500D02*
X15280000Y-5183500D01*
X15280000Y-5103500D02*
X15200000Y-5183500D01*
D10*
X13513000Y-5842500D02*
G75*
G03*
X13513000Y-5842500I-50000J0D01*
G01*
X13513000Y-6096500D02*
G75*
G03*
X13513000Y-6096500I-50000J0D01*
G01*
X13767000Y-5842500D02*
G75*
G03*
X13767000Y-5842500I-50000J0D01*
G01*
X13767000Y-6096500D02*
G75*
G03*
X13767000Y-6096500I-50000J0D01*
G01*
X14021000Y-5842500D02*
G75*
G03*
X14021000Y-5842500I-50000J0D01*
G01*
X14021000Y-6096500D02*
G75*
G03*
X14021000Y-6096500I-50000J0D01*
G01*
X14275000Y-5842500D02*
G75*
G03*
X14275000Y-5842500I-50000J0D01*
G01*
X14275000Y-6096500D02*
G75*
G03*
X14275000Y-6096500I-50000J0D01*
G01*
D13*
X8382000Y-3353000D02*
X8382000Y-3505000D01*
X8306000Y-3429000D02*
X8458000Y-3429000D01*
X8890000Y-3353000D02*
X8890000Y-3505000D01*
X8814000Y-3429000D02*
X8966000Y-3429000D01*
X9144000Y-4559500D02*
X9144000Y-4711500D01*
X9068000Y-4635500D02*
X9220000Y-4635500D01*
X9652000Y-4559500D02*
X9652000Y-4711500D01*
X9576000Y-4635500D02*
X9728000Y-4635500D01*
X9969500Y-3353000D02*
X9969500Y-3505000D01*
X9893500Y-3429000D02*
X10045500Y-3429000D01*
X10477500Y-3353000D02*
X10477500Y-3505000D01*
X10401500Y-3429000D02*
X10553500Y-3429000D01*
X10731500Y-4559500D02*
X10731500Y-4711500D01*
X10655500Y-4635500D02*
X10807500Y-4635500D01*
X11239500Y-4559500D02*
X11239500Y-4711500D01*
X11163500Y-4635500D02*
X11315500Y-4635500D01*
X11557000Y-3353000D02*
X11557000Y-3505000D01*
X11481000Y-3429000D02*
X11633000Y-3429000D01*
X12065000Y-3353000D02*
X12065000Y-3505000D01*
X11989000Y-3429000D02*
X12141000Y-3429000D01*
X12319000Y-4559500D02*
X12319000Y-4711500D01*
X12243000Y-4635500D02*
X12395000Y-4635500D01*
X12827000Y-4559500D02*
X12827000Y-4711500D01*
X12751000Y-4635500D02*
X12903000Y-4635500D01*
X13144500Y-3353000D02*
X13144500Y-3505000D01*
X13068500Y-3429000D02*
X13220500Y-3429000D01*
X13652500Y-3353000D02*
X13652500Y-3505000D01*
X13576500Y-3429000D02*
X13728500Y-3429000D01*
X13906500Y-4559500D02*
X13906500Y-4711500D01*
X13830500Y-4635500D02*
X13982500Y-4635500D01*
X14414500Y-4559500D02*
X14414500Y-4711500D01*
X14338500Y-4635500D02*
X14490500Y-4635500D01*
X14732000Y-3353000D02*
X14732000Y-3505000D01*
X14656000Y-3429000D02*
X14808000Y-3429000D01*
X15240000Y-3353000D02*
X15240000Y-3505000D01*
X15164000Y-3429000D02*
X15316000Y-3429000D01*
D11*
X7685277Y-6983984D02*
X7685277Y-6783984D01*
X7685277Y-6783984D02*
X7732896Y-6783984D01*
X7732896Y-6783984D02*
X7761467Y-6793508D01*
X7761467Y-6793508D02*
X7780515Y-6812555D01*
X7780515Y-6812555D02*
X7790039Y-6831603D01*
X7790039Y-6831603D02*
X7799562Y-6869698D01*
X7799562Y-6869698D02*
X7799562Y-6898269D01*
X7799562Y-6898269D02*
X7790039Y-6936365D01*
X7790039Y-6936365D02*
X7780515Y-6955412D01*
X7780515Y-6955412D02*
X7761467Y-6974460D01*
X7761467Y-6974460D02*
X7732896Y-6983984D01*
X7732896Y-6983984D02*
X7685277Y-6983984D01*
X7885277Y-6983984D02*
X7885277Y-6850650D01*
X7885277Y-6888746D02*
X7894801Y-6869698D01*
X7894801Y-6869698D02*
X7904324Y-6860174D01*
X7904324Y-6860174D02*
X7923372Y-6850650D01*
X7923372Y-6850650D02*
X7942420Y-6850650D01*
X8009086Y-6983984D02*
X8009086Y-6850650D01*
X8009086Y-6783984D02*
X7999562Y-6793508D01*
X7999562Y-6793508D02*
X8009086Y-6803031D01*
X8009086Y-6803031D02*
X8018610Y-6793508D01*
X8018610Y-6793508D02*
X8009086Y-6783984D01*
X8009086Y-6783984D02*
X8009086Y-6803031D01*
X8132896Y-6983984D02*
X8113848Y-6974460D01*
X8113848Y-6974460D02*
X8104324Y-6955412D01*
X8104324Y-6955412D02*
X8104324Y-6783984D01*
X8237658Y-6983984D02*
X8218610Y-6974460D01*
X8218610Y-6974460D02*
X8209086Y-6955412D01*
X8209086Y-6955412D02*
X8209086Y-6783984D01*
X8466229Y-6983984D02*
X8466229Y-6783984D01*
X8466229Y-6783984D02*
X8532896Y-6926841D01*
X8532896Y-6926841D02*
X8599563Y-6783984D01*
X8599563Y-6783984D02*
X8599563Y-6983984D01*
X8780515Y-6983984D02*
X8780515Y-6879222D01*
X8780515Y-6879222D02*
X8770991Y-6860174D01*
X8770991Y-6860174D02*
X8751944Y-6850650D01*
X8751944Y-6850650D02*
X8713848Y-6850650D01*
X8713848Y-6850650D02*
X8694801Y-6860174D01*
X8780515Y-6974460D02*
X8761467Y-6983984D01*
X8761467Y-6983984D02*
X8713848Y-6983984D01*
X8713848Y-6983984D02*
X8694801Y-6974460D01*
X8694801Y-6974460D02*
X8685277Y-6955412D01*
X8685277Y-6955412D02*
X8685277Y-6936365D01*
X8685277Y-6936365D02*
X8694801Y-6917317D01*
X8694801Y-6917317D02*
X8713848Y-6907793D01*
X8713848Y-6907793D02*
X8761467Y-6907793D01*
X8761467Y-6907793D02*
X8780515Y-6898269D01*
X8875753Y-6850650D02*
X8875753Y-7050650D01*
X8875753Y-6860174D02*
X8894801Y-6850650D01*
X8894801Y-6850650D02*
X8932896Y-6850650D01*
X8932896Y-6850650D02*
X8951944Y-6860174D01*
X8951944Y-6860174D02*
X8961467Y-6869698D01*
X8961467Y-6869698D02*
X8970991Y-6888746D01*
X8970991Y-6888746D02*
X8970991Y-6945888D01*
X8970991Y-6945888D02*
X8961467Y-6964936D01*
X8961467Y-6964936D02*
X8951944Y-6974460D01*
X8951944Y-6974460D02*
X8932896Y-6983984D01*
X8932896Y-6983984D02*
X8894801Y-6983984D01*
X8894801Y-6983984D02*
X8875753Y-6974460D01*
X9056705Y-6964936D02*
X9066229Y-6974460D01*
X9066229Y-6974460D02*
X9056705Y-6983984D01*
X9056705Y-6983984D02*
X9047182Y-6974460D01*
X9047182Y-6974460D02*
X9056705Y-6964936D01*
X9056705Y-6964936D02*
X9056705Y-6983984D01*
X9056705Y-6860174D02*
X9066229Y-6869698D01*
X9066229Y-6869698D02*
X9056705Y-6879222D01*
X9056705Y-6879222D02*
X9047182Y-6869698D01*
X9047182Y-6869698D02*
X9056705Y-6860174D01*
X9056705Y-6860174D02*
X9056705Y-6879222D01*
D12*
X7344500Y-7272500D02*
X7424500Y-7352500D01*
X7424500Y-7272500D02*
X7344500Y-7352500D01*
D11*
X7723372Y-7203984D02*
X7742420Y-7203984D01*
X7742420Y-7203984D02*
X7761467Y-7213508D01*
X7761467Y-7213508D02*
X7770991Y-7223031D01*
X7770991Y-7223031D02*
X7780515Y-7242079D01*
X7780515Y-7242079D02*
X7790039Y-7280174D01*
X7790039Y-7280174D02*
X7790039Y-7327793D01*
X7790039Y-7327793D02*
X7780515Y-7365888D01*
X7780515Y-7365888D02*
X7770991Y-7384936D01*
X7770991Y-7384936D02*
X7761467Y-7394460D01*
X7761467Y-7394460D02*
X7742420Y-7403984D01*
X7742420Y-7403984D02*
X7723372Y-7403984D01*
X7723372Y-7403984D02*
X7704324Y-7394460D01*
X7704324Y-7394460D02*
X7694801Y-7384936D01*
X7694801Y-7384936D02*
X7685277Y-7365888D01*
X7685277Y-7365888D02*
X7675753Y-7327793D01*
X7675753Y-7327793D02*
X7675753Y-7280174D01*
X7675753Y-7280174D02*
X7685277Y-7242079D01*
X7685277Y-7242079D02*
X7694801Y-7223031D01*
X7694801Y-7223031D02*
X7704324Y-7213508D01*
X7704324Y-7213508D02*
X7723372Y-7203984D01*
X7875753Y-7384936D02*
X7885277Y-7394460D01*
X7885277Y-7394460D02*
X7875753Y-7403984D01*
X7875753Y-7403984D02*
X7866229Y-7394460D01*
X7866229Y-7394460D02*
X7875753Y-7384936D01*
X7875753Y-7384936D02*
X7875753Y-7403984D01*
X7999562Y-7289698D02*
X7980515Y-7280174D01*
X7980515Y-7280174D02*
X7970991Y-7270650D01*
X7970991Y-7270650D02*
X7961467Y-7251603D01*
X7961467Y-7251603D02*
X7961467Y-7242079D01*
X7961467Y-7242079D02*
X7970991Y-7223031D01*
X7970991Y-7223031D02*
X7980515Y-7213508D01*
X7980515Y-7213508D02*
X7999562Y-7203984D01*
X7999562Y-7203984D02*
X8037658Y-7203984D01*
X8037658Y-7203984D02*
X8056705Y-7213508D01*
X8056705Y-7213508D02*
X8066229Y-7223031D01*
X8066229Y-7223031D02*
X8075753Y-7242079D01*
X8075753Y-7242079D02*
X8075753Y-7251603D01*
X8075753Y-7251603D02*
X8066229Y-7270650D01*
X8066229Y-7270650D02*
X8056705Y-7280174D01*
X8056705Y-7280174D02*
X8037658Y-7289698D01*
X8037658Y-7289698D02*
X7999562Y-7289698D01*
X7999562Y-7289698D02*
X7980515Y-7299222D01*
X7980515Y-7299222D02*
X7970991Y-7308746D01*
X7970991Y-7308746D02*
X7961467Y-7327793D01*
X7961467Y-7327793D02*
X7961467Y-7365888D01*
X7961467Y-7365888D02*
X7970991Y-7384936D01*
X7970991Y-7384936D02*
X7980515Y-7394460D01*
X7980515Y-7394460D02*
X7999562Y-7403984D01*
X7999562Y-7403984D02*
X8037658Y-7403984D01*
X8037658Y-7403984D02*
X8056705Y-7394460D01*
X8056705Y-7394460D02*
X8066229Y-7384936D01*
X8066229Y-7384936D02*
X8075753Y-7365888D01*
X8075753Y-7365888D02*
X8075753Y-7327793D01*
X8075753Y-7327793D02*
X8066229Y-7308746D01*
X8066229Y-7308746D02*
X8056705Y-7299222D01*
X8056705Y-7299222D02*
X8037658Y-7289698D01*
X8199562Y-7203984D02*
X8218610Y-7203984D01*
X8218610Y-7203984D02*
X8237658Y-7213508D01*
X8237658Y-7213508D02*
X8247182Y-7223031D01*
X8247182Y-7223031D02*
X8256705Y-7242079D01*
X8256705Y-7242079D02*
X8266229Y-7280174D01*
X8266229Y-7280174D02*
X8266229Y-7327793D01*
X8266229Y-7327793D02*
X8256705Y-7365888D01*
X8256705Y-7365888D02*
X8247182Y-7384936D01*
X8247182Y-7384936D02*
X8237658Y-7394460D01*
X8237658Y-7394460D02*
X8218610Y-7403984D01*
X8218610Y-7403984D02*
X8199562Y-7403984D01*
X8199562Y-7403984D02*
X8180515Y-7394460D01*
X8180515Y-7394460D02*
X8170991Y-7384936D01*
X8170991Y-7384936D02*
X8161467Y-7365888D01*
X8161467Y-7365888D02*
X8151943Y-7327793D01*
X8151943Y-7327793D02*
X8151943Y-7280174D01*
X8151943Y-7280174D02*
X8161467Y-7242079D01*
X8161467Y-7242079D02*
X8170991Y-7223031D01*
X8170991Y-7223031D02*
X8180515Y-7213508D01*
X8180515Y-7213508D02*
X8199562Y-7203984D01*
X8390039Y-7203984D02*
X8409086Y-7203984D01*
X8409086Y-7203984D02*
X8428134Y-7213508D01*
X8428134Y-7213508D02*
X8437658Y-7223031D01*
X8437658Y-7223031D02*
X8447182Y-7242079D01*
X8447182Y-7242079D02*
X8456705Y-7280174D01*
X8456705Y-7280174D02*
X8456705Y-7327793D01*
X8456705Y-7327793D02*
X8447182Y-7365888D01*
X8447182Y-7365888D02*
X8437658Y-7384936D01*
X8437658Y-7384936D02*
X8428134Y-7394460D01*
X8428134Y-7394460D02*
X8409086Y-7403984D01*
X8409086Y-7403984D02*
X8390039Y-7403984D01*
X8390039Y-7403984D02*
X8370991Y-7394460D01*
X8370991Y-7394460D02*
X8361467Y-7384936D01*
X8361467Y-7384936D02*
X8351943Y-7365888D01*
X8351943Y-7365888D02*
X8342420Y-7327793D01*
X8342420Y-7327793D02*
X8342420Y-7280174D01*
X8342420Y-7280174D02*
X8351943Y-7242079D01*
X8351943Y-7242079D02*
X8361467Y-7223031D01*
X8361467Y-7223031D02*
X8370991Y-7213508D01*
X8370991Y-7213508D02*
X8390039Y-7203984D01*
X8542420Y-7403984D02*
X8542420Y-7270650D01*
X8542420Y-7289698D02*
X8551944Y-7280174D01*
X8551944Y-7280174D02*
X8570991Y-7270650D01*
X8570991Y-7270650D02*
X8599563Y-7270650D01*
X8599563Y-7270650D02*
X8618610Y-7280174D01*
X8618610Y-7280174D02*
X8628134Y-7299222D01*
X8628134Y-7299222D02*
X8628134Y-7403984D01*
X8628134Y-7299222D02*
X8637658Y-7280174D01*
X8637658Y-7280174D02*
X8656705Y-7270650D01*
X8656705Y-7270650D02*
X8685277Y-7270650D01*
X8685277Y-7270650D02*
X8704325Y-7280174D01*
X8704325Y-7280174D02*
X8713848Y-7299222D01*
X8713848Y-7299222D02*
X8713848Y-7403984D01*
X8809086Y-7403984D02*
X8809086Y-7270650D01*
X8809086Y-7289698D02*
X8818610Y-7280174D01*
X8818610Y-7280174D02*
X8837658Y-7270650D01*
X8837658Y-7270650D02*
X8866229Y-7270650D01*
X8866229Y-7270650D02*
X8885277Y-7280174D01*
X8885277Y-7280174D02*
X8894801Y-7299222D01*
X8894801Y-7299222D02*
X8894801Y-7403984D01*
X8894801Y-7299222D02*
X8904325Y-7280174D01*
X8904325Y-7280174D02*
X8923372Y-7270650D01*
X8923372Y-7270650D02*
X8951944Y-7270650D01*
X8951944Y-7270650D02*
X8970991Y-7280174D01*
X8970991Y-7280174D02*
X8980515Y-7299222D01*
X8980515Y-7299222D02*
X8980515Y-7403984D01*
X9370991Y-7194460D02*
X9199563Y-7451603D01*
X9628134Y-7203984D02*
X9647182Y-7203984D01*
X9647182Y-7203984D02*
X9666229Y-7213508D01*
X9666229Y-7213508D02*
X9675753Y-7223031D01*
X9675753Y-7223031D02*
X9685277Y-7242079D01*
X9685277Y-7242079D02*
X9694801Y-7280174D01*
X9694801Y-7280174D02*
X9694801Y-7327793D01*
X9694801Y-7327793D02*
X9685277Y-7365888D01*
X9685277Y-7365888D02*
X9675753Y-7384936D01*
X9675753Y-7384936D02*
X9666229Y-7394460D01*
X9666229Y-7394460D02*
X9647182Y-7403984D01*
X9647182Y-7403984D02*
X9628134Y-7403984D01*
X9628134Y-7403984D02*
X9609087Y-7394460D01*
X9609087Y-7394460D02*
X9599563Y-7384936D01*
X9599563Y-7384936D02*
X9590039Y-7365888D01*
X9590039Y-7365888D02*
X9580515Y-7327793D01*
X9580515Y-7327793D02*
X9580515Y-7280174D01*
X9580515Y-7280174D02*
X9590039Y-7242079D01*
X9590039Y-7242079D02*
X9599563Y-7223031D01*
X9599563Y-7223031D02*
X9609087Y-7213508D01*
X9609087Y-7213508D02*
X9628134Y-7203984D01*
X9780515Y-7384936D02*
X9790039Y-7394460D01*
X9790039Y-7394460D02*
X9780515Y-7403984D01*
X9780515Y-7403984D02*
X9770991Y-7394460D01*
X9770991Y-7394460D02*
X9780515Y-7384936D01*
X9780515Y-7384936D02*
X9780515Y-7403984D01*
X9913848Y-7203984D02*
X9932896Y-7203984D01*
X9932896Y-7203984D02*
X9951944Y-7213508D01*
X9951944Y-7213508D02*
X9961468Y-7223031D01*
X9961468Y-7223031D02*
X9970991Y-7242079D01*
X9970991Y-7242079D02*
X9980515Y-7280174D01*
X9980515Y-7280174D02*
X9980515Y-7327793D01*
X9980515Y-7327793D02*
X9970991Y-7365888D01*
X9970991Y-7365888D02*
X9961468Y-7384936D01*
X9961468Y-7384936D02*
X9951944Y-7394460D01*
X9951944Y-7394460D02*
X9932896Y-7403984D01*
X9932896Y-7403984D02*
X9913848Y-7403984D01*
X9913848Y-7403984D02*
X9894801Y-7394460D01*
X9894801Y-7394460D02*
X9885277Y-7384936D01*
X9885277Y-7384936D02*
X9875753Y-7365888D01*
X9875753Y-7365888D02*
X9866229Y-7327793D01*
X9866229Y-7327793D02*
X9866229Y-7280174D01*
X9866229Y-7280174D02*
X9875753Y-7242079D01*
X9875753Y-7242079D02*
X9885277Y-7223031D01*
X9885277Y-7223031D02*
X9894801Y-7213508D01*
X9894801Y-7213508D02*
X9913848Y-7203984D01*
X10047182Y-7203984D02*
X10170991Y-7203984D01*
X10170991Y-7203984D02*
X10104325Y-7280174D01*
X10104325Y-7280174D02*
X10132896Y-7280174D01*
X10132896Y-7280174D02*
X10151944Y-7289698D01*
X10151944Y-7289698D02*
X10161468Y-7299222D01*
X10161468Y-7299222D02*
X10170991Y-7318269D01*
X10170991Y-7318269D02*
X10170991Y-7365888D01*
X10170991Y-7365888D02*
X10161468Y-7384936D01*
X10161468Y-7384936D02*
X10151944Y-7394460D01*
X10151944Y-7394460D02*
X10132896Y-7403984D01*
X10132896Y-7403984D02*
X10075753Y-7403984D01*
X10075753Y-7403984D02*
X10056706Y-7394460D01*
X10056706Y-7394460D02*
X10047182Y-7384936D01*
X10361468Y-7403984D02*
X10247182Y-7403984D01*
X10304325Y-7403984D02*
X10304325Y-7203984D01*
X10304325Y-7203984D02*
X10285277Y-7232555D01*
X10285277Y-7232555D02*
X10266229Y-7251603D01*
X10266229Y-7251603D02*
X10247182Y-7261127D01*
X10542420Y-7203984D02*
X10447182Y-7203984D01*
X10447182Y-7203984D02*
X10437658Y-7299222D01*
X10437658Y-7299222D02*
X10447182Y-7289698D01*
X10447182Y-7289698D02*
X10466229Y-7280174D01*
X10466229Y-7280174D02*
X10513849Y-7280174D01*
X10513849Y-7280174D02*
X10532896Y-7289698D01*
X10532896Y-7289698D02*
X10542420Y-7299222D01*
X10542420Y-7299222D02*
X10551944Y-7318269D01*
X10551944Y-7318269D02*
X10551944Y-7365888D01*
X10551944Y-7365888D02*
X10542420Y-7384936D01*
X10542420Y-7384936D02*
X10532896Y-7394460D01*
X10532896Y-7394460D02*
X10513849Y-7403984D01*
X10513849Y-7403984D02*
X10466229Y-7403984D01*
X10466229Y-7403984D02*
X10447182Y-7394460D01*
X10447182Y-7394460D02*
X10437658Y-7384936D01*
X10628134Y-7203984D02*
X10628134Y-7242079D01*
X10704325Y-7203984D02*
X10704325Y-7242079D01*
X10999563Y-7480174D02*
X10990039Y-7470650D01*
X10990039Y-7470650D02*
X10970991Y-7442079D01*
X10970991Y-7442079D02*
X10961468Y-7423031D01*
X10961468Y-7423031D02*
X10951944Y-7394460D01*
X10951944Y-7394460D02*
X10942420Y-7346841D01*
X10942420Y-7346841D02*
X10942420Y-7308746D01*
X10942420Y-7308746D02*
X10951944Y-7261127D01*
X10951944Y-7261127D02*
X10961468Y-7232555D01*
X10961468Y-7232555D02*
X10970991Y-7213508D01*
X10970991Y-7213508D02*
X10990039Y-7184936D01*
X10990039Y-7184936D02*
X10999563Y-7175412D01*
X11066230Y-7223031D02*
X11075753Y-7213508D01*
X11075753Y-7213508D02*
X11094801Y-7203984D01*
X11094801Y-7203984D02*
X11142420Y-7203984D01*
X11142420Y-7203984D02*
X11161468Y-7213508D01*
X11161468Y-7213508D02*
X11170991Y-7223031D01*
X11170991Y-7223031D02*
X11180515Y-7242079D01*
X11180515Y-7242079D02*
X11180515Y-7261127D01*
X11180515Y-7261127D02*
X11170991Y-7289698D01*
X11170991Y-7289698D02*
X11056706Y-7403984D01*
X11056706Y-7403984D02*
X11180515Y-7403984D01*
X11256706Y-7223031D02*
X11266229Y-7213508D01*
X11266229Y-7213508D02*
X11285277Y-7203984D01*
X11285277Y-7203984D02*
X11332896Y-7203984D01*
X11332896Y-7203984D02*
X11351944Y-7213508D01*
X11351944Y-7213508D02*
X11361468Y-7223031D01*
X11361468Y-7223031D02*
X11370991Y-7242079D01*
X11370991Y-7242079D02*
X11370991Y-7261127D01*
X11370991Y-7261127D02*
X11361468Y-7289698D01*
X11361468Y-7289698D02*
X11247182Y-7403984D01*
X11247182Y-7403984D02*
X11370991Y-7403984D01*
X11609087Y-7403984D02*
X11609087Y-7203984D01*
X11694801Y-7403984D02*
X11694801Y-7299222D01*
X11694801Y-7299222D02*
X11685277Y-7280174D01*
X11685277Y-7280174D02*
X11666230Y-7270650D01*
X11666230Y-7270650D02*
X11637658Y-7270650D01*
X11637658Y-7270650D02*
X11618610Y-7280174D01*
X11618610Y-7280174D02*
X11609087Y-7289698D01*
X11818610Y-7403984D02*
X11799563Y-7394460D01*
X11799563Y-7394460D02*
X11790039Y-7384936D01*
X11790039Y-7384936D02*
X11780515Y-7365888D01*
X11780515Y-7365888D02*
X11780515Y-7308746D01*
X11780515Y-7308746D02*
X11790039Y-7289698D01*
X11790039Y-7289698D02*
X11799563Y-7280174D01*
X11799563Y-7280174D02*
X11818610Y-7270650D01*
X11818610Y-7270650D02*
X11847182Y-7270650D01*
X11847182Y-7270650D02*
X11866230Y-7280174D01*
X11866230Y-7280174D02*
X11875753Y-7289698D01*
X11875753Y-7289698D02*
X11885277Y-7308746D01*
X11885277Y-7308746D02*
X11885277Y-7365888D01*
X11885277Y-7365888D02*
X11875753Y-7384936D01*
X11875753Y-7384936D02*
X11866230Y-7394460D01*
X11866230Y-7394460D02*
X11847182Y-7403984D01*
X11847182Y-7403984D02*
X11818610Y-7403984D01*
X11999563Y-7403984D02*
X11980515Y-7394460D01*
X11980515Y-7394460D02*
X11970991Y-7375412D01*
X11970991Y-7375412D02*
X11970991Y-7203984D01*
X12151944Y-7394460D02*
X12132896Y-7403984D01*
X12132896Y-7403984D02*
X12094801Y-7403984D01*
X12094801Y-7403984D02*
X12075753Y-7394460D01*
X12075753Y-7394460D02*
X12066230Y-7375412D01*
X12066230Y-7375412D02*
X12066230Y-7299222D01*
X12066230Y-7299222D02*
X12075753Y-7280174D01*
X12075753Y-7280174D02*
X12094801Y-7270650D01*
X12094801Y-7270650D02*
X12132896Y-7270650D01*
X12132896Y-7270650D02*
X12151944Y-7280174D01*
X12151944Y-7280174D02*
X12161468Y-7299222D01*
X12161468Y-7299222D02*
X12161468Y-7318269D01*
X12161468Y-7318269D02*
X12066230Y-7337317D01*
X12237658Y-7394460D02*
X12256706Y-7403984D01*
X12256706Y-7403984D02*
X12294801Y-7403984D01*
X12294801Y-7403984D02*
X12313849Y-7394460D01*
X12313849Y-7394460D02*
X12323372Y-7375412D01*
X12323372Y-7375412D02*
X12323372Y-7365888D01*
X12323372Y-7365888D02*
X12313849Y-7346841D01*
X12313849Y-7346841D02*
X12294801Y-7337317D01*
X12294801Y-7337317D02*
X12266230Y-7337317D01*
X12266230Y-7337317D02*
X12247182Y-7327793D01*
X12247182Y-7327793D02*
X12237658Y-7308746D01*
X12237658Y-7308746D02*
X12237658Y-7299222D01*
X12237658Y-7299222D02*
X12247182Y-7280174D01*
X12247182Y-7280174D02*
X12266230Y-7270650D01*
X12266230Y-7270650D02*
X12294801Y-7270650D01*
X12294801Y-7270650D02*
X12313849Y-7280174D01*
X12390039Y-7480174D02*
X12399563Y-7470650D01*
X12399563Y-7470650D02*
X12418611Y-7442079D01*
X12418611Y-7442079D02*
X12428134Y-7423031D01*
X12428134Y-7423031D02*
X12437658Y-7394460D01*
X12437658Y-7394460D02*
X12447182Y-7346841D01*
X12447182Y-7346841D02*
X12447182Y-7308746D01*
X12447182Y-7308746D02*
X12437658Y-7261127D01*
X12437658Y-7261127D02*
X12428134Y-7232555D01*
X12428134Y-7232555D02*
X12418611Y-7213508D01*
X12418611Y-7213508D02*
X12399563Y-7184936D01*
X12399563Y-7184936D02*
X12390039Y-7175412D01*
D10*
X7424500Y-7576500D02*
G75*
G03*
X7424500Y-7576500I-50000J0D01*
G01*
D11*
X7790039Y-7667984D02*
X7675753Y-7667984D01*
X7732896Y-7667984D02*
X7732896Y-7467984D01*
X7732896Y-7467984D02*
X7713848Y-7496555D01*
X7713848Y-7496555D02*
X7694801Y-7515603D01*
X7694801Y-7515603D02*
X7675753Y-7525127D01*
X7875753Y-7648936D02*
X7885277Y-7658460D01*
X7885277Y-7658460D02*
X7875753Y-7667984D01*
X7875753Y-7667984D02*
X7866229Y-7658460D01*
X7866229Y-7658460D02*
X7875753Y-7648936D01*
X7875753Y-7648936D02*
X7875753Y-7667984D01*
X8009086Y-7467984D02*
X8028134Y-7467984D01*
X8028134Y-7467984D02*
X8047182Y-7477508D01*
X8047182Y-7477508D02*
X8056705Y-7487031D01*
X8056705Y-7487031D02*
X8066229Y-7506079D01*
X8066229Y-7506079D02*
X8075753Y-7544174D01*
X8075753Y-7544174D02*
X8075753Y-7591793D01*
X8075753Y-7591793D02*
X8066229Y-7629888D01*
X8066229Y-7629888D02*
X8056705Y-7648936D01*
X8056705Y-7648936D02*
X8047182Y-7658460D01*
X8047182Y-7658460D02*
X8028134Y-7667984D01*
X8028134Y-7667984D02*
X8009086Y-7667984D01*
X8009086Y-7667984D02*
X7990039Y-7658460D01*
X7990039Y-7658460D02*
X7980515Y-7648936D01*
X7980515Y-7648936D02*
X7970991Y-7629888D01*
X7970991Y-7629888D02*
X7961467Y-7591793D01*
X7961467Y-7591793D02*
X7961467Y-7544174D01*
X7961467Y-7544174D02*
X7970991Y-7506079D01*
X7970991Y-7506079D02*
X7980515Y-7487031D01*
X7980515Y-7487031D02*
X7990039Y-7477508D01*
X7990039Y-7477508D02*
X8009086Y-7467984D01*
X8199562Y-7467984D02*
X8218610Y-7467984D01*
X8218610Y-7467984D02*
X8237658Y-7477508D01*
X8237658Y-7477508D02*
X8247182Y-7487031D01*
X8247182Y-7487031D02*
X8256705Y-7506079D01*
X8256705Y-7506079D02*
X8266229Y-7544174D01*
X8266229Y-7544174D02*
X8266229Y-7591793D01*
X8266229Y-7591793D02*
X8256705Y-7629888D01*
X8256705Y-7629888D02*
X8247182Y-7648936D01*
X8247182Y-7648936D02*
X8237658Y-7658460D01*
X8237658Y-7658460D02*
X8218610Y-7667984D01*
X8218610Y-7667984D02*
X8199562Y-7667984D01*
X8199562Y-7667984D02*
X8180515Y-7658460D01*
X8180515Y-7658460D02*
X8170991Y-7648936D01*
X8170991Y-7648936D02*
X8161467Y-7629888D01*
X8161467Y-7629888D02*
X8151943Y-7591793D01*
X8151943Y-7591793D02*
X8151943Y-7544174D01*
X8151943Y-7544174D02*
X8161467Y-7506079D01*
X8161467Y-7506079D02*
X8170991Y-7487031D01*
X8170991Y-7487031D02*
X8180515Y-7477508D01*
X8180515Y-7477508D02*
X8199562Y-7467984D01*
X8390039Y-7467984D02*
X8409086Y-7467984D01*
X8409086Y-7467984D02*
X8428134Y-7477508D01*
X8428134Y-7477508D02*
X8437658Y-7487031D01*
X8437658Y-7487031D02*
X8447182Y-7506079D01*
X8447182Y-7506079D02*
X8456705Y-7544174D01*
X8456705Y-7544174D02*
X8456705Y-7591793D01*
X8456705Y-7591793D02*
X8447182Y-7629888D01*
X8447182Y-7629888D02*
X8437658Y-7648936D01*
X8437658Y-7648936D02*
X8428134Y-7658460D01*
X8428134Y-7658460D02*
X8409086Y-7667984D01*
X8409086Y-7667984D02*
X8390039Y-7667984D01*
X8390039Y-7667984D02*
X8370991Y-7658460D01*
X8370991Y-7658460D02*
X8361467Y-7648936D01*
X8361467Y-7648936D02*
X8351943Y-7629888D01*
X8351943Y-7629888D02*
X8342420Y-7591793D01*
X8342420Y-7591793D02*
X8342420Y-7544174D01*
X8342420Y-7544174D02*
X8351943Y-7506079D01*
X8351943Y-7506079D02*
X8361467Y-7487031D01*
X8361467Y-7487031D02*
X8370991Y-7477508D01*
X8370991Y-7477508D02*
X8390039Y-7467984D01*
X8542420Y-7667984D02*
X8542420Y-7534650D01*
X8542420Y-7553698D02*
X8551944Y-7544174D01*
X8551944Y-7544174D02*
X8570991Y-7534650D01*
X8570991Y-7534650D02*
X8599563Y-7534650D01*
X8599563Y-7534650D02*
X8618610Y-7544174D01*
X8618610Y-7544174D02*
X8628134Y-7563222D01*
X8628134Y-7563222D02*
X8628134Y-7667984D01*
X8628134Y-7563222D02*
X8637658Y-7544174D01*
X8637658Y-7544174D02*
X8656705Y-7534650D01*
X8656705Y-7534650D02*
X8685277Y-7534650D01*
X8685277Y-7534650D02*
X8704325Y-7544174D01*
X8704325Y-7544174D02*
X8713848Y-7563222D01*
X8713848Y-7563222D02*
X8713848Y-7667984D01*
X8809086Y-7667984D02*
X8809086Y-7534650D01*
X8809086Y-7553698D02*
X8818610Y-7544174D01*
X8818610Y-7544174D02*
X8837658Y-7534650D01*
X8837658Y-7534650D02*
X8866229Y-7534650D01*
X8866229Y-7534650D02*
X8885277Y-7544174D01*
X8885277Y-7544174D02*
X8894801Y-7563222D01*
X8894801Y-7563222D02*
X8894801Y-7667984D01*
X8894801Y-7563222D02*
X8904325Y-7544174D01*
X8904325Y-7544174D02*
X8923372Y-7534650D01*
X8923372Y-7534650D02*
X8951944Y-7534650D01*
X8951944Y-7534650D02*
X8970991Y-7544174D01*
X8970991Y-7544174D02*
X8980515Y-7563222D01*
X8980515Y-7563222D02*
X8980515Y-7667984D01*
X9370991Y-7458460D02*
X9199563Y-7715603D01*
X9628134Y-7467984D02*
X9647182Y-7467984D01*
X9647182Y-7467984D02*
X9666229Y-7477508D01*
X9666229Y-7477508D02*
X9675753Y-7487031D01*
X9675753Y-7487031D02*
X9685277Y-7506079D01*
X9685277Y-7506079D02*
X9694801Y-7544174D01*
X9694801Y-7544174D02*
X9694801Y-7591793D01*
X9694801Y-7591793D02*
X9685277Y-7629888D01*
X9685277Y-7629888D02*
X9675753Y-7648936D01*
X9675753Y-7648936D02*
X9666229Y-7658460D01*
X9666229Y-7658460D02*
X9647182Y-7667984D01*
X9647182Y-7667984D02*
X9628134Y-7667984D01*
X9628134Y-7667984D02*
X9609087Y-7658460D01*
X9609087Y-7658460D02*
X9599563Y-7648936D01*
X9599563Y-7648936D02*
X9590039Y-7629888D01*
X9590039Y-7629888D02*
X9580515Y-7591793D01*
X9580515Y-7591793D02*
X9580515Y-7544174D01*
X9580515Y-7544174D02*
X9590039Y-7506079D01*
X9590039Y-7506079D02*
X9599563Y-7487031D01*
X9599563Y-7487031D02*
X9609087Y-7477508D01*
X9609087Y-7477508D02*
X9628134Y-7467984D01*
X9780515Y-7648936D02*
X9790039Y-7658460D01*
X9790039Y-7658460D02*
X9780515Y-7667984D01*
X9780515Y-7667984D02*
X9770991Y-7658460D01*
X9770991Y-7658460D02*
X9780515Y-7648936D01*
X9780515Y-7648936D02*
X9780515Y-7667984D01*
X9913848Y-7467984D02*
X9932896Y-7467984D01*
X9932896Y-7467984D02*
X9951944Y-7477508D01*
X9951944Y-7477508D02*
X9961468Y-7487031D01*
X9961468Y-7487031D02*
X9970991Y-7506079D01*
X9970991Y-7506079D02*
X9980515Y-7544174D01*
X9980515Y-7544174D02*
X9980515Y-7591793D01*
X9980515Y-7591793D02*
X9970991Y-7629888D01*
X9970991Y-7629888D02*
X9961468Y-7648936D01*
X9961468Y-7648936D02*
X9951944Y-7658460D01*
X9951944Y-7658460D02*
X9932896Y-7667984D01*
X9932896Y-7667984D02*
X9913848Y-7667984D01*
X9913848Y-7667984D02*
X9894801Y-7658460D01*
X9894801Y-7658460D02*
X9885277Y-7648936D01*
X9885277Y-7648936D02*
X9875753Y-7629888D01*
X9875753Y-7629888D02*
X9866229Y-7591793D01*
X9866229Y-7591793D02*
X9866229Y-7544174D01*
X9866229Y-7544174D02*
X9875753Y-7506079D01*
X9875753Y-7506079D02*
X9885277Y-7487031D01*
X9885277Y-7487031D02*
X9894801Y-7477508D01*
X9894801Y-7477508D02*
X9913848Y-7467984D01*
X10047182Y-7467984D02*
X10170991Y-7467984D01*
X10170991Y-7467984D02*
X10104325Y-7544174D01*
X10104325Y-7544174D02*
X10132896Y-7544174D01*
X10132896Y-7544174D02*
X10151944Y-7553698D01*
X10151944Y-7553698D02*
X10161468Y-7563222D01*
X10161468Y-7563222D02*
X10170991Y-7582269D01*
X10170991Y-7582269D02*
X10170991Y-7629888D01*
X10170991Y-7629888D02*
X10161468Y-7648936D01*
X10161468Y-7648936D02*
X10151944Y-7658460D01*
X10151944Y-7658460D02*
X10132896Y-7667984D01*
X10132896Y-7667984D02*
X10075753Y-7667984D01*
X10075753Y-7667984D02*
X10056706Y-7658460D01*
X10056706Y-7658460D02*
X10047182Y-7648936D01*
X10266229Y-7667984D02*
X10304325Y-7667984D01*
X10304325Y-7667984D02*
X10323372Y-7658460D01*
X10323372Y-7658460D02*
X10332896Y-7648936D01*
X10332896Y-7648936D02*
X10351944Y-7620365D01*
X10351944Y-7620365D02*
X10361468Y-7582269D01*
X10361468Y-7582269D02*
X10361468Y-7506079D01*
X10361468Y-7506079D02*
X10351944Y-7487031D01*
X10351944Y-7487031D02*
X10342420Y-7477508D01*
X10342420Y-7477508D02*
X10323372Y-7467984D01*
X10323372Y-7467984D02*
X10285277Y-7467984D01*
X10285277Y-7467984D02*
X10266229Y-7477508D01*
X10266229Y-7477508D02*
X10256706Y-7487031D01*
X10256706Y-7487031D02*
X10247182Y-7506079D01*
X10247182Y-7506079D02*
X10247182Y-7553698D01*
X10247182Y-7553698D02*
X10256706Y-7572746D01*
X10256706Y-7572746D02*
X10266229Y-7582269D01*
X10266229Y-7582269D02*
X10285277Y-7591793D01*
X10285277Y-7591793D02*
X10323372Y-7591793D01*
X10323372Y-7591793D02*
X10342420Y-7582269D01*
X10342420Y-7582269D02*
X10351944Y-7572746D01*
X10351944Y-7572746D02*
X10361468Y-7553698D01*
X10532896Y-7534650D02*
X10532896Y-7667984D01*
X10485277Y-7458460D02*
X10437658Y-7601317D01*
X10437658Y-7601317D02*
X10561468Y-7601317D01*
X10628134Y-7467984D02*
X10628134Y-7506079D01*
X10704325Y-7467984D02*
X10704325Y-7506079D01*
X10999563Y-7744174D02*
X10990039Y-7734650D01*
X10990039Y-7734650D02*
X10970991Y-7706079D01*
X10970991Y-7706079D02*
X10961468Y-7687031D01*
X10961468Y-7687031D02*
X10951944Y-7658460D01*
X10951944Y-7658460D02*
X10942420Y-7610841D01*
X10942420Y-7610841D02*
X10942420Y-7572746D01*
X10942420Y-7572746D02*
X10951944Y-7525127D01*
X10951944Y-7525127D02*
X10961468Y-7496555D01*
X10961468Y-7496555D02*
X10970991Y-7477508D01*
X10970991Y-7477508D02*
X10990039Y-7448936D01*
X10990039Y-7448936D02*
X10999563Y-7439412D01*
X11104325Y-7553698D02*
X11085277Y-7544174D01*
X11085277Y-7544174D02*
X11075753Y-7534650D01*
X11075753Y-7534650D02*
X11066230Y-7515603D01*
X11066230Y-7515603D02*
X11066230Y-7506079D01*
X11066230Y-7506079D02*
X11075753Y-7487031D01*
X11075753Y-7487031D02*
X11085277Y-7477508D01*
X11085277Y-7477508D02*
X11104325Y-7467984D01*
X11104325Y-7467984D02*
X11142420Y-7467984D01*
X11142420Y-7467984D02*
X11161468Y-7477508D01*
X11161468Y-7477508D02*
X11170991Y-7487031D01*
X11170991Y-7487031D02*
X11180515Y-7506079D01*
X11180515Y-7506079D02*
X11180515Y-7515603D01*
X11180515Y-7515603D02*
X11170991Y-7534650D01*
X11170991Y-7534650D02*
X11161468Y-7544174D01*
X11161468Y-7544174D02*
X11142420Y-7553698D01*
X11142420Y-7553698D02*
X11104325Y-7553698D01*
X11104325Y-7553698D02*
X11085277Y-7563222D01*
X11085277Y-7563222D02*
X11075753Y-7572746D01*
X11075753Y-7572746D02*
X11066230Y-7591793D01*
X11066230Y-7591793D02*
X11066230Y-7629888D01*
X11066230Y-7629888D02*
X11075753Y-7648936D01*
X11075753Y-7648936D02*
X11085277Y-7658460D01*
X11085277Y-7658460D02*
X11104325Y-7667984D01*
X11104325Y-7667984D02*
X11142420Y-7667984D01*
X11142420Y-7667984D02*
X11161468Y-7658460D01*
X11161468Y-7658460D02*
X11170991Y-7648936D01*
X11170991Y-7648936D02*
X11180515Y-7629888D01*
X11180515Y-7629888D02*
X11180515Y-7591793D01*
X11180515Y-7591793D02*
X11170991Y-7572746D01*
X11170991Y-7572746D02*
X11161468Y-7563222D01*
X11161468Y-7563222D02*
X11142420Y-7553698D01*
X11418610Y-7667984D02*
X11418610Y-7467984D01*
X11504325Y-7667984D02*
X11504325Y-7563222D01*
X11504325Y-7563222D02*
X11494801Y-7544174D01*
X11494801Y-7544174D02*
X11475753Y-7534650D01*
X11475753Y-7534650D02*
X11447182Y-7534650D01*
X11447182Y-7534650D02*
X11428134Y-7544174D01*
X11428134Y-7544174D02*
X11418610Y-7553698D01*
X11628134Y-7667984D02*
X11609087Y-7658460D01*
X11609087Y-7658460D02*
X11599563Y-7648936D01*
X11599563Y-7648936D02*
X11590039Y-7629888D01*
X11590039Y-7629888D02*
X11590039Y-7572746D01*
X11590039Y-7572746D02*
X11599563Y-7553698D01*
X11599563Y-7553698D02*
X11609087Y-7544174D01*
X11609087Y-7544174D02*
X11628134Y-7534650D01*
X11628134Y-7534650D02*
X11656706Y-7534650D01*
X11656706Y-7534650D02*
X11675753Y-7544174D01*
X11675753Y-7544174D02*
X11685277Y-7553698D01*
X11685277Y-7553698D02*
X11694801Y-7572746D01*
X11694801Y-7572746D02*
X11694801Y-7629888D01*
X11694801Y-7629888D02*
X11685277Y-7648936D01*
X11685277Y-7648936D02*
X11675753Y-7658460D01*
X11675753Y-7658460D02*
X11656706Y-7667984D01*
X11656706Y-7667984D02*
X11628134Y-7667984D01*
X11809087Y-7667984D02*
X11790039Y-7658460D01*
X11790039Y-7658460D02*
X11780515Y-7639412D01*
X11780515Y-7639412D02*
X11780515Y-7467984D01*
X11961468Y-7658460D02*
X11942420Y-7667984D01*
X11942420Y-7667984D02*
X11904325Y-7667984D01*
X11904325Y-7667984D02*
X11885277Y-7658460D01*
X11885277Y-7658460D02*
X11875753Y-7639412D01*
X11875753Y-7639412D02*
X11875753Y-7563222D01*
X11875753Y-7563222D02*
X11885277Y-7544174D01*
X11885277Y-7544174D02*
X11904325Y-7534650D01*
X11904325Y-7534650D02*
X11942420Y-7534650D01*
X11942420Y-7534650D02*
X11961468Y-7544174D01*
X11961468Y-7544174D02*
X11970991Y-7563222D01*
X11970991Y-7563222D02*
X11970991Y-7582269D01*
X11970991Y-7582269D02*
X11875753Y-7601317D01*
X12047182Y-7658460D02*
X12066230Y-7667984D01*
X12066230Y-7667984D02*
X12104325Y-7667984D01*
X12104325Y-7667984D02*
X12123372Y-7658460D01*
X12123372Y-7658460D02*
X12132896Y-7639412D01*
X12132896Y-7639412D02*
X12132896Y-7629888D01*
X12132896Y-7629888D02*
X12123372Y-7610841D01*
X12123372Y-7610841D02*
X12104325Y-7601317D01*
X12104325Y-7601317D02*
X12075753Y-7601317D01*
X12075753Y-7601317D02*
X12056706Y-7591793D01*
X12056706Y-7591793D02*
X12047182Y-7572746D01*
X12047182Y-7572746D02*
X12047182Y-7563222D01*
X12047182Y-7563222D02*
X12056706Y-7544174D01*
X12056706Y-7544174D02*
X12075753Y-7534650D01*
X12075753Y-7534650D02*
X12104325Y-7534650D01*
X12104325Y-7534650D02*
X12123372Y-7544174D01*
X12199563Y-7744174D02*
X12209087Y-7734650D01*
X12209087Y-7734650D02*
X12228134Y-7706079D01*
X12228134Y-7706079D02*
X12237658Y-7687031D01*
X12237658Y-7687031D02*
X12247182Y-7658460D01*
X12247182Y-7658460D02*
X12256706Y-7610841D01*
X12256706Y-7610841D02*
X12256706Y-7572746D01*
X12256706Y-7572746D02*
X12247182Y-7525127D01*
X12247182Y-7525127D02*
X12237658Y-7496555D01*
X12237658Y-7496555D02*
X12228134Y-7477508D01*
X12228134Y-7477508D02*
X12209087Y-7448936D01*
X12209087Y-7448936D02*
X12199563Y-7439412D01*
D13*
X7348500Y-7764500D02*
X7348500Y-7916500D01*
X7272500Y-7840500D02*
X7424500Y-7840500D01*
D11*
X7790039Y-7931984D02*
X7675753Y-7931984D01*
X7732896Y-7931984D02*
X7732896Y-7731984D01*
X7732896Y-7731984D02*
X7713848Y-7760555D01*
X7713848Y-7760555D02*
X7694801Y-7779603D01*
X7694801Y-7779603D02*
X7675753Y-7789127D01*
X7875753Y-7912936D02*
X7885277Y-7922460D01*
X7885277Y-7922460D02*
X7875753Y-7931984D01*
X7875753Y-7931984D02*
X7866229Y-7922460D01*
X7866229Y-7922460D02*
X7875753Y-7912936D01*
X7875753Y-7912936D02*
X7875753Y-7931984D01*
X8066229Y-7731984D02*
X7970991Y-7731984D01*
X7970991Y-7731984D02*
X7961467Y-7827222D01*
X7961467Y-7827222D02*
X7970991Y-7817698D01*
X7970991Y-7817698D02*
X7990039Y-7808174D01*
X7990039Y-7808174D02*
X8037658Y-7808174D01*
X8037658Y-7808174D02*
X8056705Y-7817698D01*
X8056705Y-7817698D02*
X8066229Y-7827222D01*
X8066229Y-7827222D02*
X8075753Y-7846269D01*
X8075753Y-7846269D02*
X8075753Y-7893888D01*
X8075753Y-7893888D02*
X8066229Y-7912936D01*
X8066229Y-7912936D02*
X8056705Y-7922460D01*
X8056705Y-7922460D02*
X8037658Y-7931984D01*
X8037658Y-7931984D02*
X7990039Y-7931984D01*
X7990039Y-7931984D02*
X7970991Y-7922460D01*
X7970991Y-7922460D02*
X7961467Y-7912936D01*
X8151943Y-7751031D02*
X8161467Y-7741508D01*
X8161467Y-7741508D02*
X8180515Y-7731984D01*
X8180515Y-7731984D02*
X8228134Y-7731984D01*
X8228134Y-7731984D02*
X8247182Y-7741508D01*
X8247182Y-7741508D02*
X8256705Y-7751031D01*
X8256705Y-7751031D02*
X8266229Y-7770079D01*
X8266229Y-7770079D02*
X8266229Y-7789127D01*
X8266229Y-7789127D02*
X8256705Y-7817698D01*
X8256705Y-7817698D02*
X8142420Y-7931984D01*
X8142420Y-7931984D02*
X8266229Y-7931984D01*
X8390039Y-7731984D02*
X8409086Y-7731984D01*
X8409086Y-7731984D02*
X8428134Y-7741508D01*
X8428134Y-7741508D02*
X8437658Y-7751031D01*
X8437658Y-7751031D02*
X8447182Y-7770079D01*
X8447182Y-7770079D02*
X8456705Y-7808174D01*
X8456705Y-7808174D02*
X8456705Y-7855793D01*
X8456705Y-7855793D02*
X8447182Y-7893888D01*
X8447182Y-7893888D02*
X8437658Y-7912936D01*
X8437658Y-7912936D02*
X8428134Y-7922460D01*
X8428134Y-7922460D02*
X8409086Y-7931984D01*
X8409086Y-7931984D02*
X8390039Y-7931984D01*
X8390039Y-7931984D02*
X8370991Y-7922460D01*
X8370991Y-7922460D02*
X8361467Y-7912936D01*
X8361467Y-7912936D02*
X8351943Y-7893888D01*
X8351943Y-7893888D02*
X8342420Y-7855793D01*
X8342420Y-7855793D02*
X8342420Y-7808174D01*
X8342420Y-7808174D02*
X8351943Y-7770079D01*
X8351943Y-7770079D02*
X8361467Y-7751031D01*
X8361467Y-7751031D02*
X8370991Y-7741508D01*
X8370991Y-7741508D02*
X8390039Y-7731984D01*
X8542420Y-7931984D02*
X8542420Y-7798650D01*
X8542420Y-7817698D02*
X8551944Y-7808174D01*
X8551944Y-7808174D02*
X8570991Y-7798650D01*
X8570991Y-7798650D02*
X8599563Y-7798650D01*
X8599563Y-7798650D02*
X8618610Y-7808174D01*
X8618610Y-7808174D02*
X8628134Y-7827222D01*
X8628134Y-7827222D02*
X8628134Y-7931984D01*
X8628134Y-7827222D02*
X8637658Y-7808174D01*
X8637658Y-7808174D02*
X8656705Y-7798650D01*
X8656705Y-7798650D02*
X8685277Y-7798650D01*
X8685277Y-7798650D02*
X8704325Y-7808174D01*
X8704325Y-7808174D02*
X8713848Y-7827222D01*
X8713848Y-7827222D02*
X8713848Y-7931984D01*
X8809086Y-7931984D02*
X8809086Y-7798650D01*
X8809086Y-7817698D02*
X8818610Y-7808174D01*
X8818610Y-7808174D02*
X8837658Y-7798650D01*
X8837658Y-7798650D02*
X8866229Y-7798650D01*
X8866229Y-7798650D02*
X8885277Y-7808174D01*
X8885277Y-7808174D02*
X8894801Y-7827222D01*
X8894801Y-7827222D02*
X8894801Y-7931984D01*
X8894801Y-7827222D02*
X8904325Y-7808174D01*
X8904325Y-7808174D02*
X8923372Y-7798650D01*
X8923372Y-7798650D02*
X8951944Y-7798650D01*
X8951944Y-7798650D02*
X8970991Y-7808174D01*
X8970991Y-7808174D02*
X8980515Y-7827222D01*
X8980515Y-7827222D02*
X8980515Y-7931984D01*
X9370991Y-7722460D02*
X9199563Y-7979603D01*
X9628134Y-7731984D02*
X9647182Y-7731984D01*
X9647182Y-7731984D02*
X9666229Y-7741508D01*
X9666229Y-7741508D02*
X9675753Y-7751031D01*
X9675753Y-7751031D02*
X9685277Y-7770079D01*
X9685277Y-7770079D02*
X9694801Y-7808174D01*
X9694801Y-7808174D02*
X9694801Y-7855793D01*
X9694801Y-7855793D02*
X9685277Y-7893888D01*
X9685277Y-7893888D02*
X9675753Y-7912936D01*
X9675753Y-7912936D02*
X9666229Y-7922460D01*
X9666229Y-7922460D02*
X9647182Y-7931984D01*
X9647182Y-7931984D02*
X9628134Y-7931984D01*
X9628134Y-7931984D02*
X9609087Y-7922460D01*
X9609087Y-7922460D02*
X9599563Y-7912936D01*
X9599563Y-7912936D02*
X9590039Y-7893888D01*
X9590039Y-7893888D02*
X9580515Y-7855793D01*
X9580515Y-7855793D02*
X9580515Y-7808174D01*
X9580515Y-7808174D02*
X9590039Y-7770079D01*
X9590039Y-7770079D02*
X9599563Y-7751031D01*
X9599563Y-7751031D02*
X9609087Y-7741508D01*
X9609087Y-7741508D02*
X9628134Y-7731984D01*
X9780515Y-7912936D02*
X9790039Y-7922460D01*
X9790039Y-7922460D02*
X9780515Y-7931984D01*
X9780515Y-7931984D02*
X9770991Y-7922460D01*
X9770991Y-7922460D02*
X9780515Y-7912936D01*
X9780515Y-7912936D02*
X9780515Y-7931984D01*
X9913848Y-7731984D02*
X9932896Y-7731984D01*
X9932896Y-7731984D02*
X9951944Y-7741508D01*
X9951944Y-7741508D02*
X9961468Y-7751031D01*
X9961468Y-7751031D02*
X9970991Y-7770079D01*
X9970991Y-7770079D02*
X9980515Y-7808174D01*
X9980515Y-7808174D02*
X9980515Y-7855793D01*
X9980515Y-7855793D02*
X9970991Y-7893888D01*
X9970991Y-7893888D02*
X9961468Y-7912936D01*
X9961468Y-7912936D02*
X9951944Y-7922460D01*
X9951944Y-7922460D02*
X9932896Y-7931984D01*
X9932896Y-7931984D02*
X9913848Y-7931984D01*
X9913848Y-7931984D02*
X9894801Y-7922460D01*
X9894801Y-7922460D02*
X9885277Y-7912936D01*
X9885277Y-7912936D02*
X9875753Y-7893888D01*
X9875753Y-7893888D02*
X9866229Y-7855793D01*
X9866229Y-7855793D02*
X9866229Y-7808174D01*
X9866229Y-7808174D02*
X9875753Y-7770079D01*
X9875753Y-7770079D02*
X9885277Y-7751031D01*
X9885277Y-7751031D02*
X9894801Y-7741508D01*
X9894801Y-7741508D02*
X9913848Y-7731984D01*
X10161468Y-7731984D02*
X10066229Y-7731984D01*
X10066229Y-7731984D02*
X10056706Y-7827222D01*
X10056706Y-7827222D02*
X10066229Y-7817698D01*
X10066229Y-7817698D02*
X10085277Y-7808174D01*
X10085277Y-7808174D02*
X10132896Y-7808174D01*
X10132896Y-7808174D02*
X10151944Y-7817698D01*
X10151944Y-7817698D02*
X10161468Y-7827222D01*
X10161468Y-7827222D02*
X10170991Y-7846269D01*
X10170991Y-7846269D02*
X10170991Y-7893888D01*
X10170991Y-7893888D02*
X10161468Y-7912936D01*
X10161468Y-7912936D02*
X10151944Y-7922460D01*
X10151944Y-7922460D02*
X10132896Y-7931984D01*
X10132896Y-7931984D02*
X10085277Y-7931984D01*
X10085277Y-7931984D02*
X10066229Y-7922460D01*
X10066229Y-7922460D02*
X10056706Y-7912936D01*
X10266229Y-7931984D02*
X10304325Y-7931984D01*
X10304325Y-7931984D02*
X10323372Y-7922460D01*
X10323372Y-7922460D02*
X10332896Y-7912936D01*
X10332896Y-7912936D02*
X10351944Y-7884365D01*
X10351944Y-7884365D02*
X10361468Y-7846269D01*
X10361468Y-7846269D02*
X10361468Y-7770079D01*
X10361468Y-7770079D02*
X10351944Y-7751031D01*
X10351944Y-7751031D02*
X10342420Y-7741508D01*
X10342420Y-7741508D02*
X10323372Y-7731984D01*
X10323372Y-7731984D02*
X10285277Y-7731984D01*
X10285277Y-7731984D02*
X10266229Y-7741508D01*
X10266229Y-7741508D02*
X10256706Y-7751031D01*
X10256706Y-7751031D02*
X10247182Y-7770079D01*
X10247182Y-7770079D02*
X10247182Y-7817698D01*
X10247182Y-7817698D02*
X10256706Y-7836746D01*
X10256706Y-7836746D02*
X10266229Y-7846269D01*
X10266229Y-7846269D02*
X10285277Y-7855793D01*
X10285277Y-7855793D02*
X10323372Y-7855793D01*
X10323372Y-7855793D02*
X10342420Y-7846269D01*
X10342420Y-7846269D02*
X10351944Y-7836746D01*
X10351944Y-7836746D02*
X10361468Y-7817698D01*
X10475753Y-7817698D02*
X10456706Y-7808174D01*
X10456706Y-7808174D02*
X10447182Y-7798650D01*
X10447182Y-7798650D02*
X10437658Y-7779603D01*
X10437658Y-7779603D02*
X10437658Y-7770079D01*
X10437658Y-7770079D02*
X10447182Y-7751031D01*
X10447182Y-7751031D02*
X10456706Y-7741508D01*
X10456706Y-7741508D02*
X10475753Y-7731984D01*
X10475753Y-7731984D02*
X10513849Y-7731984D01*
X10513849Y-7731984D02*
X10532896Y-7741508D01*
X10532896Y-7741508D02*
X10542420Y-7751031D01*
X10542420Y-7751031D02*
X10551944Y-7770079D01*
X10551944Y-7770079D02*
X10551944Y-7779603D01*
X10551944Y-7779603D02*
X10542420Y-7798650D01*
X10542420Y-7798650D02*
X10532896Y-7808174D01*
X10532896Y-7808174D02*
X10513849Y-7817698D01*
X10513849Y-7817698D02*
X10475753Y-7817698D01*
X10475753Y-7817698D02*
X10456706Y-7827222D01*
X10456706Y-7827222D02*
X10447182Y-7836746D01*
X10447182Y-7836746D02*
X10437658Y-7855793D01*
X10437658Y-7855793D02*
X10437658Y-7893888D01*
X10437658Y-7893888D02*
X10447182Y-7912936D01*
X10447182Y-7912936D02*
X10456706Y-7922460D01*
X10456706Y-7922460D02*
X10475753Y-7931984D01*
X10475753Y-7931984D02*
X10513849Y-7931984D01*
X10513849Y-7931984D02*
X10532896Y-7922460D01*
X10532896Y-7922460D02*
X10542420Y-7912936D01*
X10542420Y-7912936D02*
X10551944Y-7893888D01*
X10551944Y-7893888D02*
X10551944Y-7855793D01*
X10551944Y-7855793D02*
X10542420Y-7836746D01*
X10542420Y-7836746D02*
X10532896Y-7827222D01*
X10532896Y-7827222D02*
X10513849Y-7817698D01*
X10628134Y-7731984D02*
X10628134Y-7770079D01*
X10704325Y-7731984D02*
X10704325Y-7770079D01*
X10999563Y-8008174D02*
X10990039Y-7998650D01*
X10990039Y-7998650D02*
X10970991Y-7970079D01*
X10970991Y-7970079D02*
X10961468Y-7951031D01*
X10961468Y-7951031D02*
X10951944Y-7922460D01*
X10951944Y-7922460D02*
X10942420Y-7874841D01*
X10942420Y-7874841D02*
X10942420Y-7836746D01*
X10942420Y-7836746D02*
X10951944Y-7789127D01*
X10951944Y-7789127D02*
X10961468Y-7760555D01*
X10961468Y-7760555D02*
X10970991Y-7741508D01*
X10970991Y-7741508D02*
X10990039Y-7712936D01*
X10990039Y-7712936D02*
X10999563Y-7703412D01*
X11180515Y-7931984D02*
X11066230Y-7931984D01*
X11123372Y-7931984D02*
X11123372Y-7731984D01*
X11123372Y-7731984D02*
X11104325Y-7760555D01*
X11104325Y-7760555D02*
X11085277Y-7779603D01*
X11085277Y-7779603D02*
X11066230Y-7789127D01*
X11294801Y-7817698D02*
X11275753Y-7808174D01*
X11275753Y-7808174D02*
X11266229Y-7798650D01*
X11266229Y-7798650D02*
X11256706Y-7779603D01*
X11256706Y-7779603D02*
X11256706Y-7770079D01*
X11256706Y-7770079D02*
X11266229Y-7751031D01*
X11266229Y-7751031D02*
X11275753Y-7741508D01*
X11275753Y-7741508D02*
X11294801Y-7731984D01*
X11294801Y-7731984D02*
X11332896Y-7731984D01*
X11332896Y-7731984D02*
X11351944Y-7741508D01*
X11351944Y-7741508D02*
X11361468Y-7751031D01*
X11361468Y-7751031D02*
X11370991Y-7770079D01*
X11370991Y-7770079D02*
X11370991Y-7779603D01*
X11370991Y-7779603D02*
X11361468Y-7798650D01*
X11361468Y-7798650D02*
X11351944Y-7808174D01*
X11351944Y-7808174D02*
X11332896Y-7817698D01*
X11332896Y-7817698D02*
X11294801Y-7817698D01*
X11294801Y-7817698D02*
X11275753Y-7827222D01*
X11275753Y-7827222D02*
X11266229Y-7836746D01*
X11266229Y-7836746D02*
X11256706Y-7855793D01*
X11256706Y-7855793D02*
X11256706Y-7893888D01*
X11256706Y-7893888D02*
X11266229Y-7912936D01*
X11266229Y-7912936D02*
X11275753Y-7922460D01*
X11275753Y-7922460D02*
X11294801Y-7931984D01*
X11294801Y-7931984D02*
X11332896Y-7931984D01*
X11332896Y-7931984D02*
X11351944Y-7922460D01*
X11351944Y-7922460D02*
X11361468Y-7912936D01*
X11361468Y-7912936D02*
X11370991Y-7893888D01*
X11370991Y-7893888D02*
X11370991Y-7855793D01*
X11370991Y-7855793D02*
X11361468Y-7836746D01*
X11361468Y-7836746D02*
X11351944Y-7827222D01*
X11351944Y-7827222D02*
X11332896Y-7817698D01*
X11609087Y-7931984D02*
X11609087Y-7731984D01*
X11694801Y-7931984D02*
X11694801Y-7827222D01*
X11694801Y-7827222D02*
X11685277Y-7808174D01*
X11685277Y-7808174D02*
X11666230Y-7798650D01*
X11666230Y-7798650D02*
X11637658Y-7798650D01*
X11637658Y-7798650D02*
X11618610Y-7808174D01*
X11618610Y-7808174D02*
X11609087Y-7817698D01*
X11818610Y-7931984D02*
X11799563Y-7922460D01*
X11799563Y-7922460D02*
X11790039Y-7912936D01*
X11790039Y-7912936D02*
X11780515Y-7893888D01*
X11780515Y-7893888D02*
X11780515Y-7836746D01*
X11780515Y-7836746D02*
X11790039Y-7817698D01*
X11790039Y-7817698D02*
X11799563Y-7808174D01*
X11799563Y-7808174D02*
X11818610Y-7798650D01*
X11818610Y-7798650D02*
X11847182Y-7798650D01*
X11847182Y-7798650D02*
X11866230Y-7808174D01*
X11866230Y-7808174D02*
X11875753Y-7817698D01*
X11875753Y-7817698D02*
X11885277Y-7836746D01*
X11885277Y-7836746D02*
X11885277Y-7893888D01*
X11885277Y-7893888D02*
X11875753Y-7912936D01*
X11875753Y-7912936D02*
X11866230Y-7922460D01*
X11866230Y-7922460D02*
X11847182Y-7931984D01*
X11847182Y-7931984D02*
X11818610Y-7931984D01*
X11999563Y-7931984D02*
X11980515Y-7922460D01*
X11980515Y-7922460D02*
X11970991Y-7903412D01*
X11970991Y-7903412D02*
X11970991Y-7731984D01*
X12151944Y-7922460D02*
X12132896Y-7931984D01*
X12132896Y-7931984D02*
X12094801Y-7931984D01*
X12094801Y-7931984D02*
X12075753Y-7922460D01*
X12075753Y-7922460D02*
X12066230Y-7903412D01*
X12066230Y-7903412D02*
X12066230Y-7827222D01*
X12066230Y-7827222D02*
X12075753Y-7808174D01*
X12075753Y-7808174D02*
X12094801Y-7798650D01*
X12094801Y-7798650D02*
X12132896Y-7798650D01*
X12132896Y-7798650D02*
X12151944Y-7808174D01*
X12151944Y-7808174D02*
X12161468Y-7827222D01*
X12161468Y-7827222D02*
X12161468Y-7846269D01*
X12161468Y-7846269D02*
X12066230Y-7865317D01*
X12237658Y-7922460D02*
X12256706Y-7931984D01*
X12256706Y-7931984D02*
X12294801Y-7931984D01*
X12294801Y-7931984D02*
X12313849Y-7922460D01*
X12313849Y-7922460D02*
X12323372Y-7903412D01*
X12323372Y-7903412D02*
X12323372Y-7893888D01*
X12323372Y-7893888D02*
X12313849Y-7874841D01*
X12313849Y-7874841D02*
X12294801Y-7865317D01*
X12294801Y-7865317D02*
X12266230Y-7865317D01*
X12266230Y-7865317D02*
X12247182Y-7855793D01*
X12247182Y-7855793D02*
X12237658Y-7836746D01*
X12237658Y-7836746D02*
X12237658Y-7827222D01*
X12237658Y-7827222D02*
X12247182Y-7808174D01*
X12247182Y-7808174D02*
X12266230Y-7798650D01*
X12266230Y-7798650D02*
X12294801Y-7798650D01*
X12294801Y-7798650D02*
X12313849Y-7808174D01*
X12390039Y-8008174D02*
X12399563Y-7998650D01*
X12399563Y-7998650D02*
X12418611Y-7970079D01*
X12418611Y-7970079D02*
X12428134Y-7951031D01*
X12428134Y-7951031D02*
X12437658Y-7922460D01*
X12437658Y-7922460D02*
X12447182Y-7874841D01*
X12447182Y-7874841D02*
X12447182Y-7836746D01*
X12447182Y-7836746D02*
X12437658Y-7789127D01*
X12437658Y-7789127D02*
X12428134Y-7760555D01*
X12428134Y-7760555D02*
X12418611Y-7741508D01*
X12418611Y-7741508D02*
X12399563Y-7712936D01*
X12399563Y-7712936D02*
X12390039Y-7703412D01*
M02*
