M48
; DRILL file {KiCad 7.0.7} date Thu Sep 28 15:42:39 2023
; FORMAT={-:-/ absolute / metric / decimal}
; #@! TF.CreationDate,2023-09-28T15:42:39-05:00
; #@! TF.GenerationSoftware,Kicad,Pcbnew,7.0.7
; #@! TF.FileFunction,Plated,1,2,PTH
FMAT,2
METRIC
; #@! TA.AperFunction,Plated,PTH,ComponentDrill
T1C0.800
; #@! TA.AperFunction,Plated,PTH,ComponentDrill
T2C1.000
; #@! TA.AperFunction,Plated,PTH,ComponentDrill
T3C1.520
%
G90
G05
T1
X98.425Y-56.515
X98.425Y-64.135
X100.965Y-56.515
X100.965Y-64.135
X103.505Y-56.515
X103.505Y-64.135
X106.045Y-56.515
X106.045Y-64.135
X108.585Y-56.515
X108.585Y-64.135
X111.125Y-56.515
X111.125Y-64.135
X113.665Y-56.515
X113.665Y-64.135
X116.205Y-56.515
X116.205Y-64.135
X118.745Y-56.515
X118.745Y-64.135
X121.285Y-56.515
X121.285Y-64.135
X152.4Y-41.275
X152.4Y-51.435
T2
X134.63Y-58.425
X134.63Y-60.965
X137.17Y-58.425
X137.17Y-60.965
X139.71Y-58.425
X139.71Y-60.965
X142.25Y-58.425
X142.25Y-60.965
T3
X83.82Y-34.29
X88.9Y-34.29
X91.44Y-46.355
X96.52Y-46.355
X99.695Y-34.29
X104.775Y-34.29
X107.315Y-46.355
X112.395Y-46.355
X115.57Y-34.29
X120.65Y-34.29
X123.19Y-46.355
X128.27Y-46.355
X131.445Y-34.29
X136.525Y-34.29
X139.065Y-46.355
X144.145Y-46.355
X147.32Y-34.29
X152.4Y-34.29
T0
M30
