%TF.GenerationSoftware,KiCad,Pcbnew,7.0.7*%
%TF.CreationDate,2023-09-28T15:49:43-05:00*%
%TF.ProjectId,iowa-rover-kiosk-rfid,696f7761-2d72-46f7-9665-722d6b696f73,rev?*%
%TF.SameCoordinates,Original*%
%TF.FileFunction,Drillmap*%
%TF.FilePolarity,Positive*%
%FSLAX45Y45*%
G04 Gerber Fmt 4.5, Leading zero omitted, Abs format (unit mm)*
G04 Created by KiCad (PCBNEW 7.0.7) date 2023-09-28 15:49:43*
%MOMM*%
%LPD*%
G01*
G04 APERTURE LIST*
%ADD10C,0.100000*%
%ADD11C,0.200000*%
%ADD12C,0.040000*%
%ADD13C,0.076200*%
%ADD14C,0.080000*%
%ADD15C,0.090000*%
%ADD16C,0.119000*%
G04 APERTURE END LIST*
D10*
X10287000Y-2857500D02*
G75*
G03*
X9969500Y-3175000I0J-317500D01*
G01*
X10287000Y-2857500D02*
X13525500Y-2857500D01*
X13525500Y-7556500D02*
X10287000Y-7556500D01*
X13843000Y-3175000D02*
G75*
G03*
X13525500Y-2857500I-317500J0D01*
G01*
X13843000Y-3175000D02*
X13843000Y-7239000D01*
X9969500Y-7239000D02*
G75*
G03*
X10287000Y-7556500I317500J0D01*
G01*
X13525500Y-7556500D02*
G75*
G03*
X13843000Y-7239000I0J317500D01*
G01*
X9969500Y-7239000D02*
X9969500Y-3175000D01*
D11*
D12*
X12680000Y-3028000D02*
X12720000Y-3068000D01*
X12720000Y-3028000D02*
X12680000Y-3068000D01*
D13*
X11184600Y-5566500D02*
G75*
G03*
X11184600Y-5566500I-38100J0D01*
G01*
X11184600Y-5766500D02*
G75*
G03*
X11184600Y-5766500I-38100J0D01*
G01*
X11184600Y-5966500D02*
G75*
G03*
X11184600Y-5966500I-38100J0D01*
G01*
X11184600Y-6166500D02*
G75*
G03*
X11184600Y-6166500I-38100J0D01*
G01*
X11184600Y-6366500D02*
G75*
G03*
X11184600Y-6366500I-38100J0D01*
G01*
X12684600Y-5166500D02*
G75*
G03*
X12684600Y-5166500I-38100J0D01*
G01*
X12684600Y-5566500D02*
G75*
G03*
X12684600Y-5566500I-38100J0D01*
G01*
X12684600Y-5766500D02*
G75*
G03*
X12684600Y-5766500I-38100J0D01*
G01*
X12684600Y-5966500D02*
G75*
G03*
X12684600Y-5966500I-38100J0D01*
G01*
X12684600Y-6166500D02*
G75*
G03*
X12684600Y-6166500I-38100J0D01*
G01*
X12684600Y-6366500D02*
G75*
G03*
X12684600Y-6366500I-38100J0D01*
G01*
D14*
X11049000Y-3262000D02*
X11049000Y-3342000D01*
X11009000Y-3302000D02*
X11089000Y-3302000D01*
X11049000Y-4278000D02*
X11049000Y-4358000D01*
X11009000Y-4318000D02*
X11089000Y-4318000D01*
X11557500Y-3517000D02*
X11557500Y-3597000D01*
X11517500Y-3557000D02*
X11597500Y-3557000D01*
X11557500Y-4279000D02*
X11557500Y-4359000D01*
X11517500Y-4319000D02*
X11597500Y-4319000D01*
X11811500Y-3517000D02*
X11811500Y-3597000D01*
X11771500Y-3557000D02*
X11851500Y-3557000D01*
X11811500Y-4279000D02*
X11811500Y-4359000D01*
X11771500Y-4319000D02*
X11851500Y-4319000D01*
X12065500Y-3517000D02*
X12065500Y-3597000D01*
X12025500Y-3557000D02*
X12105500Y-3557000D01*
X12065500Y-4279000D02*
X12065500Y-4359000D01*
X12025500Y-4319000D02*
X12105500Y-4319000D01*
X12319500Y-3517000D02*
X12319500Y-3597000D01*
X12279500Y-3557000D02*
X12359500Y-3557000D01*
X12319500Y-4279000D02*
X12319500Y-4359000D01*
X12279500Y-4319000D02*
X12359500Y-4319000D01*
X12573500Y-3517000D02*
X12573500Y-3597000D01*
X12533500Y-3557000D02*
X12613500Y-3557000D01*
X12573500Y-4279000D02*
X12573500Y-4359000D01*
X12533500Y-4319000D02*
X12613500Y-4319000D01*
X12827500Y-3517000D02*
X12827500Y-3597000D01*
X12787500Y-3557000D02*
X12867500Y-3557000D01*
X12827500Y-4279000D02*
X12827500Y-4359000D01*
X12787500Y-4319000D02*
X12867500Y-4319000D01*
X13081500Y-3517000D02*
X13081500Y-3597000D01*
X13041500Y-3557000D02*
X13121500Y-3557000D01*
X13081500Y-4279000D02*
X13081500Y-4359000D01*
X13041500Y-4319000D02*
X13121500Y-4319000D01*
D15*
X10699820Y-4095820D02*
X10699820Y-4032180D01*
X10636180Y-4032180D01*
X10636180Y-4095820D01*
X10699820Y-4095820D01*
X10699820Y-4349820D02*
X10699820Y-4286180D01*
X10636180Y-4286180D01*
X10636180Y-4349820D01*
X10699820Y-4349820D01*
D16*
X10285000Y-5126000D02*
X10344500Y-5066500D01*
X10285000Y-5007000D01*
X10225500Y-5066500D01*
X10285000Y-5126000D01*
X10285000Y-5380000D02*
X10344500Y-5320500D01*
X10285000Y-5261000D01*
X10225500Y-5320500D01*
X10285000Y-5380000D01*
X10285000Y-5634000D02*
X10344500Y-5574500D01*
X10285000Y-5515000D01*
X10225500Y-5574500D01*
X10285000Y-5634000D01*
X10285000Y-5888000D02*
X10344500Y-5828500D01*
X10285000Y-5769000D01*
X10225500Y-5828500D01*
X10285000Y-5888000D01*
X13525500Y-5126000D02*
X13585000Y-5066500D01*
X13525500Y-5007000D01*
X13466000Y-5066500D01*
X13525500Y-5126000D01*
X13525500Y-5380000D02*
X13585000Y-5320500D01*
X13525500Y-5261000D01*
X13466000Y-5320500D01*
X13525500Y-5380000D01*
X13525500Y-5634000D02*
X13585000Y-5574500D01*
X13525500Y-5515000D01*
X13466000Y-5574500D01*
X13525500Y-5634000D01*
X13525500Y-5888000D02*
X13585000Y-5828500D01*
X13525500Y-5769000D01*
X13466000Y-5828500D01*
X13525500Y-5888000D01*
D11*
X10225277Y-7872984D02*
X10225277Y-7672984D01*
X10225277Y-7672984D02*
X10272896Y-7672984D01*
X10272896Y-7672984D02*
X10301467Y-7682508D01*
X10301467Y-7682508D02*
X10320515Y-7701555D01*
X10320515Y-7701555D02*
X10330039Y-7720603D01*
X10330039Y-7720603D02*
X10339563Y-7758698D01*
X10339563Y-7758698D02*
X10339563Y-7787269D01*
X10339563Y-7787269D02*
X10330039Y-7825365D01*
X10330039Y-7825365D02*
X10320515Y-7844412D01*
X10320515Y-7844412D02*
X10301467Y-7863460D01*
X10301467Y-7863460D02*
X10272896Y-7872984D01*
X10272896Y-7872984D02*
X10225277Y-7872984D01*
X10425277Y-7872984D02*
X10425277Y-7739650D01*
X10425277Y-7777746D02*
X10434801Y-7758698D01*
X10434801Y-7758698D02*
X10444324Y-7749174D01*
X10444324Y-7749174D02*
X10463372Y-7739650D01*
X10463372Y-7739650D02*
X10482420Y-7739650D01*
X10549086Y-7872984D02*
X10549086Y-7739650D01*
X10549086Y-7672984D02*
X10539563Y-7682508D01*
X10539563Y-7682508D02*
X10549086Y-7692031D01*
X10549086Y-7692031D02*
X10558610Y-7682508D01*
X10558610Y-7682508D02*
X10549086Y-7672984D01*
X10549086Y-7672984D02*
X10549086Y-7692031D01*
X10672896Y-7872984D02*
X10653848Y-7863460D01*
X10653848Y-7863460D02*
X10644324Y-7844412D01*
X10644324Y-7844412D02*
X10644324Y-7672984D01*
X10777658Y-7872984D02*
X10758610Y-7863460D01*
X10758610Y-7863460D02*
X10749086Y-7844412D01*
X10749086Y-7844412D02*
X10749086Y-7672984D01*
X11006229Y-7872984D02*
X11006229Y-7672984D01*
X11006229Y-7672984D02*
X11072896Y-7815841D01*
X11072896Y-7815841D02*
X11139563Y-7672984D01*
X11139563Y-7672984D02*
X11139563Y-7872984D01*
X11320515Y-7872984D02*
X11320515Y-7768222D01*
X11320515Y-7768222D02*
X11310991Y-7749174D01*
X11310991Y-7749174D02*
X11291943Y-7739650D01*
X11291943Y-7739650D02*
X11253848Y-7739650D01*
X11253848Y-7739650D02*
X11234801Y-7749174D01*
X11320515Y-7863460D02*
X11301467Y-7872984D01*
X11301467Y-7872984D02*
X11253848Y-7872984D01*
X11253848Y-7872984D02*
X11234801Y-7863460D01*
X11234801Y-7863460D02*
X11225277Y-7844412D01*
X11225277Y-7844412D02*
X11225277Y-7825365D01*
X11225277Y-7825365D02*
X11234801Y-7806317D01*
X11234801Y-7806317D02*
X11253848Y-7796793D01*
X11253848Y-7796793D02*
X11301467Y-7796793D01*
X11301467Y-7796793D02*
X11320515Y-7787269D01*
X11415753Y-7739650D02*
X11415753Y-7939650D01*
X11415753Y-7749174D02*
X11434801Y-7739650D01*
X11434801Y-7739650D02*
X11472896Y-7739650D01*
X11472896Y-7739650D02*
X11491943Y-7749174D01*
X11491943Y-7749174D02*
X11501467Y-7758698D01*
X11501467Y-7758698D02*
X11510991Y-7777746D01*
X11510991Y-7777746D02*
X11510991Y-7834888D01*
X11510991Y-7834888D02*
X11501467Y-7853936D01*
X11501467Y-7853936D02*
X11491943Y-7863460D01*
X11491943Y-7863460D02*
X11472896Y-7872984D01*
X11472896Y-7872984D02*
X11434801Y-7872984D01*
X11434801Y-7872984D02*
X11415753Y-7863460D01*
X11596705Y-7853936D02*
X11606229Y-7863460D01*
X11606229Y-7863460D02*
X11596705Y-7872984D01*
X11596705Y-7872984D02*
X11587182Y-7863460D01*
X11587182Y-7863460D02*
X11596705Y-7853936D01*
X11596705Y-7853936D02*
X11596705Y-7872984D01*
X11596705Y-7749174D02*
X11606229Y-7758698D01*
X11606229Y-7758698D02*
X11596705Y-7768222D01*
X11596705Y-7768222D02*
X11587182Y-7758698D01*
X11587182Y-7758698D02*
X11596705Y-7749174D01*
X11596705Y-7749174D02*
X11596705Y-7768222D01*
D12*
X9924500Y-8181500D02*
X9964500Y-8221500D01*
X9964500Y-8181500D02*
X9924500Y-8221500D01*
D11*
X10263372Y-8092984D02*
X10282420Y-8092984D01*
X10282420Y-8092984D02*
X10301467Y-8102508D01*
X10301467Y-8102508D02*
X10310991Y-8112031D01*
X10310991Y-8112031D02*
X10320515Y-8131079D01*
X10320515Y-8131079D02*
X10330039Y-8169174D01*
X10330039Y-8169174D02*
X10330039Y-8216793D01*
X10330039Y-8216793D02*
X10320515Y-8254888D01*
X10320515Y-8254888D02*
X10310991Y-8273936D01*
X10310991Y-8273936D02*
X10301467Y-8283460D01*
X10301467Y-8283460D02*
X10282420Y-8292984D01*
X10282420Y-8292984D02*
X10263372Y-8292984D01*
X10263372Y-8292984D02*
X10244324Y-8283460D01*
X10244324Y-8283460D02*
X10234801Y-8273936D01*
X10234801Y-8273936D02*
X10225277Y-8254888D01*
X10225277Y-8254888D02*
X10215753Y-8216793D01*
X10215753Y-8216793D02*
X10215753Y-8169174D01*
X10215753Y-8169174D02*
X10225277Y-8131079D01*
X10225277Y-8131079D02*
X10234801Y-8112031D01*
X10234801Y-8112031D02*
X10244324Y-8102508D01*
X10244324Y-8102508D02*
X10263372Y-8092984D01*
X10415753Y-8273936D02*
X10425277Y-8283460D01*
X10425277Y-8283460D02*
X10415753Y-8292984D01*
X10415753Y-8292984D02*
X10406229Y-8283460D01*
X10406229Y-8283460D02*
X10415753Y-8273936D01*
X10415753Y-8273936D02*
X10415753Y-8292984D01*
X10596705Y-8159650D02*
X10596705Y-8292984D01*
X10549086Y-8083460D02*
X10501467Y-8226317D01*
X10501467Y-8226317D02*
X10625277Y-8226317D01*
X10739563Y-8092984D02*
X10758610Y-8092984D01*
X10758610Y-8092984D02*
X10777658Y-8102508D01*
X10777658Y-8102508D02*
X10787182Y-8112031D01*
X10787182Y-8112031D02*
X10796705Y-8131079D01*
X10796705Y-8131079D02*
X10806229Y-8169174D01*
X10806229Y-8169174D02*
X10806229Y-8216793D01*
X10806229Y-8216793D02*
X10796705Y-8254888D01*
X10796705Y-8254888D02*
X10787182Y-8273936D01*
X10787182Y-8273936D02*
X10777658Y-8283460D01*
X10777658Y-8283460D02*
X10758610Y-8292984D01*
X10758610Y-8292984D02*
X10739563Y-8292984D01*
X10739563Y-8292984D02*
X10720515Y-8283460D01*
X10720515Y-8283460D02*
X10710991Y-8273936D01*
X10710991Y-8273936D02*
X10701467Y-8254888D01*
X10701467Y-8254888D02*
X10691944Y-8216793D01*
X10691944Y-8216793D02*
X10691944Y-8169174D01*
X10691944Y-8169174D02*
X10701467Y-8131079D01*
X10701467Y-8131079D02*
X10710991Y-8112031D01*
X10710991Y-8112031D02*
X10720515Y-8102508D01*
X10720515Y-8102508D02*
X10739563Y-8092984D01*
X10930039Y-8092984D02*
X10949086Y-8092984D01*
X10949086Y-8092984D02*
X10968134Y-8102508D01*
X10968134Y-8102508D02*
X10977658Y-8112031D01*
X10977658Y-8112031D02*
X10987182Y-8131079D01*
X10987182Y-8131079D02*
X10996705Y-8169174D01*
X10996705Y-8169174D02*
X10996705Y-8216793D01*
X10996705Y-8216793D02*
X10987182Y-8254888D01*
X10987182Y-8254888D02*
X10977658Y-8273936D01*
X10977658Y-8273936D02*
X10968134Y-8283460D01*
X10968134Y-8283460D02*
X10949086Y-8292984D01*
X10949086Y-8292984D02*
X10930039Y-8292984D01*
X10930039Y-8292984D02*
X10910991Y-8283460D01*
X10910991Y-8283460D02*
X10901467Y-8273936D01*
X10901467Y-8273936D02*
X10891944Y-8254888D01*
X10891944Y-8254888D02*
X10882420Y-8216793D01*
X10882420Y-8216793D02*
X10882420Y-8169174D01*
X10882420Y-8169174D02*
X10891944Y-8131079D01*
X10891944Y-8131079D02*
X10901467Y-8112031D01*
X10901467Y-8112031D02*
X10910991Y-8102508D01*
X10910991Y-8102508D02*
X10930039Y-8092984D01*
X11082420Y-8292984D02*
X11082420Y-8159650D01*
X11082420Y-8178698D02*
X11091944Y-8169174D01*
X11091944Y-8169174D02*
X11110991Y-8159650D01*
X11110991Y-8159650D02*
X11139563Y-8159650D01*
X11139563Y-8159650D02*
X11158610Y-8169174D01*
X11158610Y-8169174D02*
X11168134Y-8188222D01*
X11168134Y-8188222D02*
X11168134Y-8292984D01*
X11168134Y-8188222D02*
X11177658Y-8169174D01*
X11177658Y-8169174D02*
X11196705Y-8159650D01*
X11196705Y-8159650D02*
X11225277Y-8159650D01*
X11225277Y-8159650D02*
X11244324Y-8169174D01*
X11244324Y-8169174D02*
X11253848Y-8188222D01*
X11253848Y-8188222D02*
X11253848Y-8292984D01*
X11349086Y-8292984D02*
X11349086Y-8159650D01*
X11349086Y-8178698D02*
X11358610Y-8169174D01*
X11358610Y-8169174D02*
X11377658Y-8159650D01*
X11377658Y-8159650D02*
X11406229Y-8159650D01*
X11406229Y-8159650D02*
X11425277Y-8169174D01*
X11425277Y-8169174D02*
X11434801Y-8188222D01*
X11434801Y-8188222D02*
X11434801Y-8292984D01*
X11434801Y-8188222D02*
X11444324Y-8169174D01*
X11444324Y-8169174D02*
X11463372Y-8159650D01*
X11463372Y-8159650D02*
X11491943Y-8159650D01*
X11491943Y-8159650D02*
X11510991Y-8169174D01*
X11510991Y-8169174D02*
X11520515Y-8188222D01*
X11520515Y-8188222D02*
X11520515Y-8292984D01*
X11910991Y-8083460D02*
X11739563Y-8340603D01*
X12168134Y-8092984D02*
X12187182Y-8092984D01*
X12187182Y-8092984D02*
X12206229Y-8102508D01*
X12206229Y-8102508D02*
X12215753Y-8112031D01*
X12215753Y-8112031D02*
X12225277Y-8131079D01*
X12225277Y-8131079D02*
X12234801Y-8169174D01*
X12234801Y-8169174D02*
X12234801Y-8216793D01*
X12234801Y-8216793D02*
X12225277Y-8254888D01*
X12225277Y-8254888D02*
X12215753Y-8273936D01*
X12215753Y-8273936D02*
X12206229Y-8283460D01*
X12206229Y-8283460D02*
X12187182Y-8292984D01*
X12187182Y-8292984D02*
X12168134Y-8292984D01*
X12168134Y-8292984D02*
X12149086Y-8283460D01*
X12149086Y-8283460D02*
X12139563Y-8273936D01*
X12139563Y-8273936D02*
X12130039Y-8254888D01*
X12130039Y-8254888D02*
X12120515Y-8216793D01*
X12120515Y-8216793D02*
X12120515Y-8169174D01*
X12120515Y-8169174D02*
X12130039Y-8131079D01*
X12130039Y-8131079D02*
X12139563Y-8112031D01*
X12139563Y-8112031D02*
X12149086Y-8102508D01*
X12149086Y-8102508D02*
X12168134Y-8092984D01*
X12320515Y-8273936D02*
X12330039Y-8283460D01*
X12330039Y-8283460D02*
X12320515Y-8292984D01*
X12320515Y-8292984D02*
X12310991Y-8283460D01*
X12310991Y-8283460D02*
X12320515Y-8273936D01*
X12320515Y-8273936D02*
X12320515Y-8292984D01*
X12453848Y-8092984D02*
X12472896Y-8092984D01*
X12472896Y-8092984D02*
X12491944Y-8102508D01*
X12491944Y-8102508D02*
X12501467Y-8112031D01*
X12501467Y-8112031D02*
X12510991Y-8131079D01*
X12510991Y-8131079D02*
X12520515Y-8169174D01*
X12520515Y-8169174D02*
X12520515Y-8216793D01*
X12520515Y-8216793D02*
X12510991Y-8254888D01*
X12510991Y-8254888D02*
X12501467Y-8273936D01*
X12501467Y-8273936D02*
X12491944Y-8283460D01*
X12491944Y-8283460D02*
X12472896Y-8292984D01*
X12472896Y-8292984D02*
X12453848Y-8292984D01*
X12453848Y-8292984D02*
X12434801Y-8283460D01*
X12434801Y-8283460D02*
X12425277Y-8273936D01*
X12425277Y-8273936D02*
X12415753Y-8254888D01*
X12415753Y-8254888D02*
X12406229Y-8216793D01*
X12406229Y-8216793D02*
X12406229Y-8169174D01*
X12406229Y-8169174D02*
X12415753Y-8131079D01*
X12415753Y-8131079D02*
X12425277Y-8112031D01*
X12425277Y-8112031D02*
X12434801Y-8102508D01*
X12434801Y-8102508D02*
X12453848Y-8092984D01*
X12710991Y-8292984D02*
X12596706Y-8292984D01*
X12653848Y-8292984D02*
X12653848Y-8092984D01*
X12653848Y-8092984D02*
X12634801Y-8121555D01*
X12634801Y-8121555D02*
X12615753Y-8140603D01*
X12615753Y-8140603D02*
X12596706Y-8150127D01*
X12891944Y-8092984D02*
X12796706Y-8092984D01*
X12796706Y-8092984D02*
X12787182Y-8188222D01*
X12787182Y-8188222D02*
X12796706Y-8178698D01*
X12796706Y-8178698D02*
X12815753Y-8169174D01*
X12815753Y-8169174D02*
X12863372Y-8169174D01*
X12863372Y-8169174D02*
X12882420Y-8178698D01*
X12882420Y-8178698D02*
X12891944Y-8188222D01*
X12891944Y-8188222D02*
X12901467Y-8207269D01*
X12901467Y-8207269D02*
X12901467Y-8254888D01*
X12901467Y-8254888D02*
X12891944Y-8273936D01*
X12891944Y-8273936D02*
X12882420Y-8283460D01*
X12882420Y-8283460D02*
X12863372Y-8292984D01*
X12863372Y-8292984D02*
X12815753Y-8292984D01*
X12815753Y-8292984D02*
X12796706Y-8283460D01*
X12796706Y-8283460D02*
X12787182Y-8273936D01*
X12968134Y-8092984D02*
X13101467Y-8092984D01*
X13101467Y-8092984D02*
X13015753Y-8292984D01*
X13168134Y-8092984D02*
X13168134Y-8131079D01*
X13244325Y-8092984D02*
X13244325Y-8131079D01*
X13539563Y-8369174D02*
X13530039Y-8359650D01*
X13530039Y-8359650D02*
X13510991Y-8331079D01*
X13510991Y-8331079D02*
X13501468Y-8312031D01*
X13501468Y-8312031D02*
X13491944Y-8283460D01*
X13491944Y-8283460D02*
X13482420Y-8235841D01*
X13482420Y-8235841D02*
X13482420Y-8197746D01*
X13482420Y-8197746D02*
X13491944Y-8150127D01*
X13491944Y-8150127D02*
X13501468Y-8121555D01*
X13501468Y-8121555D02*
X13510991Y-8102508D01*
X13510991Y-8102508D02*
X13530039Y-8073936D01*
X13530039Y-8073936D02*
X13539563Y-8064412D01*
X13720515Y-8292984D02*
X13606229Y-8292984D01*
X13663372Y-8292984D02*
X13663372Y-8092984D01*
X13663372Y-8092984D02*
X13644325Y-8121555D01*
X13644325Y-8121555D02*
X13625277Y-8140603D01*
X13625277Y-8140603D02*
X13606229Y-8150127D01*
X13958610Y-8292984D02*
X13958610Y-8092984D01*
X14044325Y-8292984D02*
X14044325Y-8188222D01*
X14044325Y-8188222D02*
X14034801Y-8169174D01*
X14034801Y-8169174D02*
X14015753Y-8159650D01*
X14015753Y-8159650D02*
X13987182Y-8159650D01*
X13987182Y-8159650D02*
X13968134Y-8169174D01*
X13968134Y-8169174D02*
X13958610Y-8178698D01*
X14168134Y-8292984D02*
X14149087Y-8283460D01*
X14149087Y-8283460D02*
X14139563Y-8273936D01*
X14139563Y-8273936D02*
X14130039Y-8254888D01*
X14130039Y-8254888D02*
X14130039Y-8197746D01*
X14130039Y-8197746D02*
X14139563Y-8178698D01*
X14139563Y-8178698D02*
X14149087Y-8169174D01*
X14149087Y-8169174D02*
X14168134Y-8159650D01*
X14168134Y-8159650D02*
X14196706Y-8159650D01*
X14196706Y-8159650D02*
X14215753Y-8169174D01*
X14215753Y-8169174D02*
X14225277Y-8178698D01*
X14225277Y-8178698D02*
X14234801Y-8197746D01*
X14234801Y-8197746D02*
X14234801Y-8254888D01*
X14234801Y-8254888D02*
X14225277Y-8273936D01*
X14225277Y-8273936D02*
X14215753Y-8283460D01*
X14215753Y-8283460D02*
X14196706Y-8292984D01*
X14196706Y-8292984D02*
X14168134Y-8292984D01*
X14349087Y-8292984D02*
X14330039Y-8283460D01*
X14330039Y-8283460D02*
X14320515Y-8264412D01*
X14320515Y-8264412D02*
X14320515Y-8092984D01*
X14501468Y-8283460D02*
X14482420Y-8292984D01*
X14482420Y-8292984D02*
X14444325Y-8292984D01*
X14444325Y-8292984D02*
X14425277Y-8283460D01*
X14425277Y-8283460D02*
X14415753Y-8264412D01*
X14415753Y-8264412D02*
X14415753Y-8188222D01*
X14415753Y-8188222D02*
X14425277Y-8169174D01*
X14425277Y-8169174D02*
X14444325Y-8159650D01*
X14444325Y-8159650D02*
X14482420Y-8159650D01*
X14482420Y-8159650D02*
X14501468Y-8169174D01*
X14501468Y-8169174D02*
X14510991Y-8188222D01*
X14510991Y-8188222D02*
X14510991Y-8207269D01*
X14510991Y-8207269D02*
X14415753Y-8226317D01*
X14577658Y-8369174D02*
X14587182Y-8359650D01*
X14587182Y-8359650D02*
X14606230Y-8331079D01*
X14606230Y-8331079D02*
X14615753Y-8312031D01*
X14615753Y-8312031D02*
X14625277Y-8283460D01*
X14625277Y-8283460D02*
X14634801Y-8235841D01*
X14634801Y-8235841D02*
X14634801Y-8197746D01*
X14634801Y-8197746D02*
X14625277Y-8150127D01*
X14625277Y-8150127D02*
X14615753Y-8121555D01*
X14615753Y-8121555D02*
X14606230Y-8102508D01*
X14606230Y-8102508D02*
X14587182Y-8073936D01*
X14587182Y-8073936D02*
X14577658Y-8064412D01*
D13*
X9964500Y-8465500D02*
G75*
G03*
X9964500Y-8465500I-38100J0D01*
G01*
D11*
X10263372Y-8356984D02*
X10282420Y-8356984D01*
X10282420Y-8356984D02*
X10301467Y-8366508D01*
X10301467Y-8366508D02*
X10310991Y-8376031D01*
X10310991Y-8376031D02*
X10320515Y-8395079D01*
X10320515Y-8395079D02*
X10330039Y-8433174D01*
X10330039Y-8433174D02*
X10330039Y-8480793D01*
X10330039Y-8480793D02*
X10320515Y-8518889D01*
X10320515Y-8518889D02*
X10310991Y-8537936D01*
X10310991Y-8537936D02*
X10301467Y-8547460D01*
X10301467Y-8547460D02*
X10282420Y-8556984D01*
X10282420Y-8556984D02*
X10263372Y-8556984D01*
X10263372Y-8556984D02*
X10244324Y-8547460D01*
X10244324Y-8547460D02*
X10234801Y-8537936D01*
X10234801Y-8537936D02*
X10225277Y-8518889D01*
X10225277Y-8518889D02*
X10215753Y-8480793D01*
X10215753Y-8480793D02*
X10215753Y-8433174D01*
X10215753Y-8433174D02*
X10225277Y-8395079D01*
X10225277Y-8395079D02*
X10234801Y-8376031D01*
X10234801Y-8376031D02*
X10244324Y-8366508D01*
X10244324Y-8366508D02*
X10263372Y-8356984D01*
X10415753Y-8537936D02*
X10425277Y-8547460D01*
X10425277Y-8547460D02*
X10415753Y-8556984D01*
X10415753Y-8556984D02*
X10406229Y-8547460D01*
X10406229Y-8547460D02*
X10415753Y-8537936D01*
X10415753Y-8537936D02*
X10415753Y-8556984D01*
X10491944Y-8356984D02*
X10625277Y-8356984D01*
X10625277Y-8356984D02*
X10539563Y-8556984D01*
X10787182Y-8356984D02*
X10749086Y-8356984D01*
X10749086Y-8356984D02*
X10730039Y-8366508D01*
X10730039Y-8366508D02*
X10720515Y-8376031D01*
X10720515Y-8376031D02*
X10701467Y-8404603D01*
X10701467Y-8404603D02*
X10691944Y-8442698D01*
X10691944Y-8442698D02*
X10691944Y-8518889D01*
X10691944Y-8518889D02*
X10701467Y-8537936D01*
X10701467Y-8537936D02*
X10710991Y-8547460D01*
X10710991Y-8547460D02*
X10730039Y-8556984D01*
X10730039Y-8556984D02*
X10768134Y-8556984D01*
X10768134Y-8556984D02*
X10787182Y-8547460D01*
X10787182Y-8547460D02*
X10796705Y-8537936D01*
X10796705Y-8537936D02*
X10806229Y-8518889D01*
X10806229Y-8518889D02*
X10806229Y-8471270D01*
X10806229Y-8471270D02*
X10796705Y-8452222D01*
X10796705Y-8452222D02*
X10787182Y-8442698D01*
X10787182Y-8442698D02*
X10768134Y-8433174D01*
X10768134Y-8433174D02*
X10730039Y-8433174D01*
X10730039Y-8433174D02*
X10710991Y-8442698D01*
X10710991Y-8442698D02*
X10701467Y-8452222D01*
X10701467Y-8452222D02*
X10691944Y-8471270D01*
X10882420Y-8376031D02*
X10891944Y-8366508D01*
X10891944Y-8366508D02*
X10910991Y-8356984D01*
X10910991Y-8356984D02*
X10958610Y-8356984D01*
X10958610Y-8356984D02*
X10977658Y-8366508D01*
X10977658Y-8366508D02*
X10987182Y-8376031D01*
X10987182Y-8376031D02*
X10996705Y-8395079D01*
X10996705Y-8395079D02*
X10996705Y-8414127D01*
X10996705Y-8414127D02*
X10987182Y-8442698D01*
X10987182Y-8442698D02*
X10872896Y-8556984D01*
X10872896Y-8556984D02*
X10996705Y-8556984D01*
X11082420Y-8556984D02*
X11082420Y-8423650D01*
X11082420Y-8442698D02*
X11091944Y-8433174D01*
X11091944Y-8433174D02*
X11110991Y-8423650D01*
X11110991Y-8423650D02*
X11139563Y-8423650D01*
X11139563Y-8423650D02*
X11158610Y-8433174D01*
X11158610Y-8433174D02*
X11168134Y-8452222D01*
X11168134Y-8452222D02*
X11168134Y-8556984D01*
X11168134Y-8452222D02*
X11177658Y-8433174D01*
X11177658Y-8433174D02*
X11196705Y-8423650D01*
X11196705Y-8423650D02*
X11225277Y-8423650D01*
X11225277Y-8423650D02*
X11244324Y-8433174D01*
X11244324Y-8433174D02*
X11253848Y-8452222D01*
X11253848Y-8452222D02*
X11253848Y-8556984D01*
X11349086Y-8556984D02*
X11349086Y-8423650D01*
X11349086Y-8442698D02*
X11358610Y-8433174D01*
X11358610Y-8433174D02*
X11377658Y-8423650D01*
X11377658Y-8423650D02*
X11406229Y-8423650D01*
X11406229Y-8423650D02*
X11425277Y-8433174D01*
X11425277Y-8433174D02*
X11434801Y-8452222D01*
X11434801Y-8452222D02*
X11434801Y-8556984D01*
X11434801Y-8452222D02*
X11444324Y-8433174D01*
X11444324Y-8433174D02*
X11463372Y-8423650D01*
X11463372Y-8423650D02*
X11491943Y-8423650D01*
X11491943Y-8423650D02*
X11510991Y-8433174D01*
X11510991Y-8433174D02*
X11520515Y-8452222D01*
X11520515Y-8452222D02*
X11520515Y-8556984D01*
X11910991Y-8347460D02*
X11739563Y-8604603D01*
X12168134Y-8356984D02*
X12187182Y-8356984D01*
X12187182Y-8356984D02*
X12206229Y-8366508D01*
X12206229Y-8366508D02*
X12215753Y-8376031D01*
X12215753Y-8376031D02*
X12225277Y-8395079D01*
X12225277Y-8395079D02*
X12234801Y-8433174D01*
X12234801Y-8433174D02*
X12234801Y-8480793D01*
X12234801Y-8480793D02*
X12225277Y-8518889D01*
X12225277Y-8518889D02*
X12215753Y-8537936D01*
X12215753Y-8537936D02*
X12206229Y-8547460D01*
X12206229Y-8547460D02*
X12187182Y-8556984D01*
X12187182Y-8556984D02*
X12168134Y-8556984D01*
X12168134Y-8556984D02*
X12149086Y-8547460D01*
X12149086Y-8547460D02*
X12139563Y-8537936D01*
X12139563Y-8537936D02*
X12130039Y-8518889D01*
X12130039Y-8518889D02*
X12120515Y-8480793D01*
X12120515Y-8480793D02*
X12120515Y-8433174D01*
X12120515Y-8433174D02*
X12130039Y-8395079D01*
X12130039Y-8395079D02*
X12139563Y-8376031D01*
X12139563Y-8376031D02*
X12149086Y-8366508D01*
X12149086Y-8366508D02*
X12168134Y-8356984D01*
X12320515Y-8537936D02*
X12330039Y-8547460D01*
X12330039Y-8547460D02*
X12320515Y-8556984D01*
X12320515Y-8556984D02*
X12310991Y-8547460D01*
X12310991Y-8547460D02*
X12320515Y-8537936D01*
X12320515Y-8537936D02*
X12320515Y-8556984D01*
X12453848Y-8356984D02*
X12472896Y-8356984D01*
X12472896Y-8356984D02*
X12491944Y-8366508D01*
X12491944Y-8366508D02*
X12501467Y-8376031D01*
X12501467Y-8376031D02*
X12510991Y-8395079D01*
X12510991Y-8395079D02*
X12520515Y-8433174D01*
X12520515Y-8433174D02*
X12520515Y-8480793D01*
X12520515Y-8480793D02*
X12510991Y-8518889D01*
X12510991Y-8518889D02*
X12501467Y-8537936D01*
X12501467Y-8537936D02*
X12491944Y-8547460D01*
X12491944Y-8547460D02*
X12472896Y-8556984D01*
X12472896Y-8556984D02*
X12453848Y-8556984D01*
X12453848Y-8556984D02*
X12434801Y-8547460D01*
X12434801Y-8547460D02*
X12425277Y-8537936D01*
X12425277Y-8537936D02*
X12415753Y-8518889D01*
X12415753Y-8518889D02*
X12406229Y-8480793D01*
X12406229Y-8480793D02*
X12406229Y-8433174D01*
X12406229Y-8433174D02*
X12415753Y-8395079D01*
X12415753Y-8395079D02*
X12425277Y-8376031D01*
X12425277Y-8376031D02*
X12434801Y-8366508D01*
X12434801Y-8366508D02*
X12453848Y-8356984D01*
X12587182Y-8356984D02*
X12710991Y-8356984D01*
X12710991Y-8356984D02*
X12644325Y-8433174D01*
X12644325Y-8433174D02*
X12672896Y-8433174D01*
X12672896Y-8433174D02*
X12691944Y-8442698D01*
X12691944Y-8442698D02*
X12701467Y-8452222D01*
X12701467Y-8452222D02*
X12710991Y-8471270D01*
X12710991Y-8471270D02*
X12710991Y-8518889D01*
X12710991Y-8518889D02*
X12701467Y-8537936D01*
X12701467Y-8537936D02*
X12691944Y-8547460D01*
X12691944Y-8547460D02*
X12672896Y-8556984D01*
X12672896Y-8556984D02*
X12615753Y-8556984D01*
X12615753Y-8556984D02*
X12596706Y-8547460D01*
X12596706Y-8547460D02*
X12587182Y-8537936D01*
X12834801Y-8356984D02*
X12853848Y-8356984D01*
X12853848Y-8356984D02*
X12872896Y-8366508D01*
X12872896Y-8366508D02*
X12882420Y-8376031D01*
X12882420Y-8376031D02*
X12891944Y-8395079D01*
X12891944Y-8395079D02*
X12901467Y-8433174D01*
X12901467Y-8433174D02*
X12901467Y-8480793D01*
X12901467Y-8480793D02*
X12891944Y-8518889D01*
X12891944Y-8518889D02*
X12882420Y-8537936D01*
X12882420Y-8537936D02*
X12872896Y-8547460D01*
X12872896Y-8547460D02*
X12853848Y-8556984D01*
X12853848Y-8556984D02*
X12834801Y-8556984D01*
X12834801Y-8556984D02*
X12815753Y-8547460D01*
X12815753Y-8547460D02*
X12806229Y-8537936D01*
X12806229Y-8537936D02*
X12796706Y-8518889D01*
X12796706Y-8518889D02*
X12787182Y-8480793D01*
X12787182Y-8480793D02*
X12787182Y-8433174D01*
X12787182Y-8433174D02*
X12796706Y-8395079D01*
X12796706Y-8395079D02*
X12806229Y-8376031D01*
X12806229Y-8376031D02*
X12815753Y-8366508D01*
X12815753Y-8366508D02*
X12834801Y-8356984D01*
X13025277Y-8356984D02*
X13044325Y-8356984D01*
X13044325Y-8356984D02*
X13063372Y-8366508D01*
X13063372Y-8366508D02*
X13072896Y-8376031D01*
X13072896Y-8376031D02*
X13082420Y-8395079D01*
X13082420Y-8395079D02*
X13091944Y-8433174D01*
X13091944Y-8433174D02*
X13091944Y-8480793D01*
X13091944Y-8480793D02*
X13082420Y-8518889D01*
X13082420Y-8518889D02*
X13072896Y-8537936D01*
X13072896Y-8537936D02*
X13063372Y-8547460D01*
X13063372Y-8547460D02*
X13044325Y-8556984D01*
X13044325Y-8556984D02*
X13025277Y-8556984D01*
X13025277Y-8556984D02*
X13006229Y-8547460D01*
X13006229Y-8547460D02*
X12996706Y-8537936D01*
X12996706Y-8537936D02*
X12987182Y-8518889D01*
X12987182Y-8518889D02*
X12977658Y-8480793D01*
X12977658Y-8480793D02*
X12977658Y-8433174D01*
X12977658Y-8433174D02*
X12987182Y-8395079D01*
X12987182Y-8395079D02*
X12996706Y-8376031D01*
X12996706Y-8376031D02*
X13006229Y-8366508D01*
X13006229Y-8366508D02*
X13025277Y-8356984D01*
X13168134Y-8356984D02*
X13168134Y-8395079D01*
X13244325Y-8356984D02*
X13244325Y-8395079D01*
X13539563Y-8633174D02*
X13530039Y-8623650D01*
X13530039Y-8623650D02*
X13510991Y-8595079D01*
X13510991Y-8595079D02*
X13501468Y-8576031D01*
X13501468Y-8576031D02*
X13491944Y-8547460D01*
X13491944Y-8547460D02*
X13482420Y-8499841D01*
X13482420Y-8499841D02*
X13482420Y-8461746D01*
X13482420Y-8461746D02*
X13491944Y-8414127D01*
X13491944Y-8414127D02*
X13501468Y-8385555D01*
X13501468Y-8385555D02*
X13510991Y-8366508D01*
X13510991Y-8366508D02*
X13530039Y-8337936D01*
X13530039Y-8337936D02*
X13539563Y-8328412D01*
X13720515Y-8556984D02*
X13606229Y-8556984D01*
X13663372Y-8556984D02*
X13663372Y-8356984D01*
X13663372Y-8356984D02*
X13644325Y-8385555D01*
X13644325Y-8385555D02*
X13625277Y-8404603D01*
X13625277Y-8404603D02*
X13606229Y-8414127D01*
X13910991Y-8556984D02*
X13796706Y-8556984D01*
X13853848Y-8556984D02*
X13853848Y-8356984D01*
X13853848Y-8356984D02*
X13834801Y-8385555D01*
X13834801Y-8385555D02*
X13815753Y-8404603D01*
X13815753Y-8404603D02*
X13796706Y-8414127D01*
X14149087Y-8556984D02*
X14149087Y-8356984D01*
X14234801Y-8556984D02*
X14234801Y-8452222D01*
X14234801Y-8452222D02*
X14225277Y-8433174D01*
X14225277Y-8433174D02*
X14206230Y-8423650D01*
X14206230Y-8423650D02*
X14177658Y-8423650D01*
X14177658Y-8423650D02*
X14158610Y-8433174D01*
X14158610Y-8433174D02*
X14149087Y-8442698D01*
X14358610Y-8556984D02*
X14339563Y-8547460D01*
X14339563Y-8547460D02*
X14330039Y-8537936D01*
X14330039Y-8537936D02*
X14320515Y-8518889D01*
X14320515Y-8518889D02*
X14320515Y-8461746D01*
X14320515Y-8461746D02*
X14330039Y-8442698D01*
X14330039Y-8442698D02*
X14339563Y-8433174D01*
X14339563Y-8433174D02*
X14358610Y-8423650D01*
X14358610Y-8423650D02*
X14387182Y-8423650D01*
X14387182Y-8423650D02*
X14406230Y-8433174D01*
X14406230Y-8433174D02*
X14415753Y-8442698D01*
X14415753Y-8442698D02*
X14425277Y-8461746D01*
X14425277Y-8461746D02*
X14425277Y-8518889D01*
X14425277Y-8518889D02*
X14415753Y-8537936D01*
X14415753Y-8537936D02*
X14406230Y-8547460D01*
X14406230Y-8547460D02*
X14387182Y-8556984D01*
X14387182Y-8556984D02*
X14358610Y-8556984D01*
X14539563Y-8556984D02*
X14520515Y-8547460D01*
X14520515Y-8547460D02*
X14510991Y-8528412D01*
X14510991Y-8528412D02*
X14510991Y-8356984D01*
X14691944Y-8547460D02*
X14672896Y-8556984D01*
X14672896Y-8556984D02*
X14634801Y-8556984D01*
X14634801Y-8556984D02*
X14615753Y-8547460D01*
X14615753Y-8547460D02*
X14606230Y-8528412D01*
X14606230Y-8528412D02*
X14606230Y-8452222D01*
X14606230Y-8452222D02*
X14615753Y-8433174D01*
X14615753Y-8433174D02*
X14634801Y-8423650D01*
X14634801Y-8423650D02*
X14672896Y-8423650D01*
X14672896Y-8423650D02*
X14691944Y-8433174D01*
X14691944Y-8433174D02*
X14701468Y-8452222D01*
X14701468Y-8452222D02*
X14701468Y-8471270D01*
X14701468Y-8471270D02*
X14606230Y-8490317D01*
X14777658Y-8547460D02*
X14796706Y-8556984D01*
X14796706Y-8556984D02*
X14834801Y-8556984D01*
X14834801Y-8556984D02*
X14853849Y-8547460D01*
X14853849Y-8547460D02*
X14863372Y-8528412D01*
X14863372Y-8528412D02*
X14863372Y-8518889D01*
X14863372Y-8518889D02*
X14853849Y-8499841D01*
X14853849Y-8499841D02*
X14834801Y-8490317D01*
X14834801Y-8490317D02*
X14806230Y-8490317D01*
X14806230Y-8490317D02*
X14787182Y-8480793D01*
X14787182Y-8480793D02*
X14777658Y-8461746D01*
X14777658Y-8461746D02*
X14777658Y-8452222D01*
X14777658Y-8452222D02*
X14787182Y-8433174D01*
X14787182Y-8433174D02*
X14806230Y-8423650D01*
X14806230Y-8423650D02*
X14834801Y-8423650D01*
X14834801Y-8423650D02*
X14853849Y-8433174D01*
X14930039Y-8633174D02*
X14939563Y-8623650D01*
X14939563Y-8623650D02*
X14958611Y-8595079D01*
X14958611Y-8595079D02*
X14968134Y-8576031D01*
X14968134Y-8576031D02*
X14977658Y-8547460D01*
X14977658Y-8547460D02*
X14987182Y-8499841D01*
X14987182Y-8499841D02*
X14987182Y-8461746D01*
X14987182Y-8461746D02*
X14977658Y-8414127D01*
X14977658Y-8414127D02*
X14968134Y-8385555D01*
X14968134Y-8385555D02*
X14958611Y-8366508D01*
X14958611Y-8366508D02*
X14939563Y-8337936D01*
X14939563Y-8337936D02*
X14930039Y-8328412D01*
D14*
X9924500Y-8689500D02*
X9924500Y-8769500D01*
X9884500Y-8729500D02*
X9964500Y-8729500D01*
D11*
X10263372Y-8620984D02*
X10282420Y-8620984D01*
X10282420Y-8620984D02*
X10301467Y-8630508D01*
X10301467Y-8630508D02*
X10310991Y-8640031D01*
X10310991Y-8640031D02*
X10320515Y-8659079D01*
X10320515Y-8659079D02*
X10330039Y-8697174D01*
X10330039Y-8697174D02*
X10330039Y-8744793D01*
X10330039Y-8744793D02*
X10320515Y-8782889D01*
X10320515Y-8782889D02*
X10310991Y-8801936D01*
X10310991Y-8801936D02*
X10301467Y-8811460D01*
X10301467Y-8811460D02*
X10282420Y-8820984D01*
X10282420Y-8820984D02*
X10263372Y-8820984D01*
X10263372Y-8820984D02*
X10244324Y-8811460D01*
X10244324Y-8811460D02*
X10234801Y-8801936D01*
X10234801Y-8801936D02*
X10225277Y-8782889D01*
X10225277Y-8782889D02*
X10215753Y-8744793D01*
X10215753Y-8744793D02*
X10215753Y-8697174D01*
X10215753Y-8697174D02*
X10225277Y-8659079D01*
X10225277Y-8659079D02*
X10234801Y-8640031D01*
X10234801Y-8640031D02*
X10244324Y-8630508D01*
X10244324Y-8630508D02*
X10263372Y-8620984D01*
X10415753Y-8801936D02*
X10425277Y-8811460D01*
X10425277Y-8811460D02*
X10415753Y-8820984D01*
X10415753Y-8820984D02*
X10406229Y-8811460D01*
X10406229Y-8811460D02*
X10415753Y-8801936D01*
X10415753Y-8801936D02*
X10415753Y-8820984D01*
X10539563Y-8706698D02*
X10520515Y-8697174D01*
X10520515Y-8697174D02*
X10510991Y-8687650D01*
X10510991Y-8687650D02*
X10501467Y-8668603D01*
X10501467Y-8668603D02*
X10501467Y-8659079D01*
X10501467Y-8659079D02*
X10510991Y-8640031D01*
X10510991Y-8640031D02*
X10520515Y-8630508D01*
X10520515Y-8630508D02*
X10539563Y-8620984D01*
X10539563Y-8620984D02*
X10577658Y-8620984D01*
X10577658Y-8620984D02*
X10596705Y-8630508D01*
X10596705Y-8630508D02*
X10606229Y-8640031D01*
X10606229Y-8640031D02*
X10615753Y-8659079D01*
X10615753Y-8659079D02*
X10615753Y-8668603D01*
X10615753Y-8668603D02*
X10606229Y-8687650D01*
X10606229Y-8687650D02*
X10596705Y-8697174D01*
X10596705Y-8697174D02*
X10577658Y-8706698D01*
X10577658Y-8706698D02*
X10539563Y-8706698D01*
X10539563Y-8706698D02*
X10520515Y-8716222D01*
X10520515Y-8716222D02*
X10510991Y-8725746D01*
X10510991Y-8725746D02*
X10501467Y-8744793D01*
X10501467Y-8744793D02*
X10501467Y-8782889D01*
X10501467Y-8782889D02*
X10510991Y-8801936D01*
X10510991Y-8801936D02*
X10520515Y-8811460D01*
X10520515Y-8811460D02*
X10539563Y-8820984D01*
X10539563Y-8820984D02*
X10577658Y-8820984D01*
X10577658Y-8820984D02*
X10596705Y-8811460D01*
X10596705Y-8811460D02*
X10606229Y-8801936D01*
X10606229Y-8801936D02*
X10615753Y-8782889D01*
X10615753Y-8782889D02*
X10615753Y-8744793D01*
X10615753Y-8744793D02*
X10606229Y-8725746D01*
X10606229Y-8725746D02*
X10596705Y-8716222D01*
X10596705Y-8716222D02*
X10577658Y-8706698D01*
X10739563Y-8620984D02*
X10758610Y-8620984D01*
X10758610Y-8620984D02*
X10777658Y-8630508D01*
X10777658Y-8630508D02*
X10787182Y-8640031D01*
X10787182Y-8640031D02*
X10796705Y-8659079D01*
X10796705Y-8659079D02*
X10806229Y-8697174D01*
X10806229Y-8697174D02*
X10806229Y-8744793D01*
X10806229Y-8744793D02*
X10796705Y-8782889D01*
X10796705Y-8782889D02*
X10787182Y-8801936D01*
X10787182Y-8801936D02*
X10777658Y-8811460D01*
X10777658Y-8811460D02*
X10758610Y-8820984D01*
X10758610Y-8820984D02*
X10739563Y-8820984D01*
X10739563Y-8820984D02*
X10720515Y-8811460D01*
X10720515Y-8811460D02*
X10710991Y-8801936D01*
X10710991Y-8801936D02*
X10701467Y-8782889D01*
X10701467Y-8782889D02*
X10691944Y-8744793D01*
X10691944Y-8744793D02*
X10691944Y-8697174D01*
X10691944Y-8697174D02*
X10701467Y-8659079D01*
X10701467Y-8659079D02*
X10710991Y-8640031D01*
X10710991Y-8640031D02*
X10720515Y-8630508D01*
X10720515Y-8630508D02*
X10739563Y-8620984D01*
X10930039Y-8620984D02*
X10949086Y-8620984D01*
X10949086Y-8620984D02*
X10968134Y-8630508D01*
X10968134Y-8630508D02*
X10977658Y-8640031D01*
X10977658Y-8640031D02*
X10987182Y-8659079D01*
X10987182Y-8659079D02*
X10996705Y-8697174D01*
X10996705Y-8697174D02*
X10996705Y-8744793D01*
X10996705Y-8744793D02*
X10987182Y-8782889D01*
X10987182Y-8782889D02*
X10977658Y-8801936D01*
X10977658Y-8801936D02*
X10968134Y-8811460D01*
X10968134Y-8811460D02*
X10949086Y-8820984D01*
X10949086Y-8820984D02*
X10930039Y-8820984D01*
X10930039Y-8820984D02*
X10910991Y-8811460D01*
X10910991Y-8811460D02*
X10901467Y-8801936D01*
X10901467Y-8801936D02*
X10891944Y-8782889D01*
X10891944Y-8782889D02*
X10882420Y-8744793D01*
X10882420Y-8744793D02*
X10882420Y-8697174D01*
X10882420Y-8697174D02*
X10891944Y-8659079D01*
X10891944Y-8659079D02*
X10901467Y-8640031D01*
X10901467Y-8640031D02*
X10910991Y-8630508D01*
X10910991Y-8630508D02*
X10930039Y-8620984D01*
X11082420Y-8820984D02*
X11082420Y-8687650D01*
X11082420Y-8706698D02*
X11091944Y-8697174D01*
X11091944Y-8697174D02*
X11110991Y-8687650D01*
X11110991Y-8687650D02*
X11139563Y-8687650D01*
X11139563Y-8687650D02*
X11158610Y-8697174D01*
X11158610Y-8697174D02*
X11168134Y-8716222D01*
X11168134Y-8716222D02*
X11168134Y-8820984D01*
X11168134Y-8716222D02*
X11177658Y-8697174D01*
X11177658Y-8697174D02*
X11196705Y-8687650D01*
X11196705Y-8687650D02*
X11225277Y-8687650D01*
X11225277Y-8687650D02*
X11244324Y-8697174D01*
X11244324Y-8697174D02*
X11253848Y-8716222D01*
X11253848Y-8716222D02*
X11253848Y-8820984D01*
X11349086Y-8820984D02*
X11349086Y-8687650D01*
X11349086Y-8706698D02*
X11358610Y-8697174D01*
X11358610Y-8697174D02*
X11377658Y-8687650D01*
X11377658Y-8687650D02*
X11406229Y-8687650D01*
X11406229Y-8687650D02*
X11425277Y-8697174D01*
X11425277Y-8697174D02*
X11434801Y-8716222D01*
X11434801Y-8716222D02*
X11434801Y-8820984D01*
X11434801Y-8716222D02*
X11444324Y-8697174D01*
X11444324Y-8697174D02*
X11463372Y-8687650D01*
X11463372Y-8687650D02*
X11491943Y-8687650D01*
X11491943Y-8687650D02*
X11510991Y-8697174D01*
X11510991Y-8697174D02*
X11520515Y-8716222D01*
X11520515Y-8716222D02*
X11520515Y-8820984D01*
X11910991Y-8611460D02*
X11739563Y-8868603D01*
X12168134Y-8620984D02*
X12187182Y-8620984D01*
X12187182Y-8620984D02*
X12206229Y-8630508D01*
X12206229Y-8630508D02*
X12215753Y-8640031D01*
X12215753Y-8640031D02*
X12225277Y-8659079D01*
X12225277Y-8659079D02*
X12234801Y-8697174D01*
X12234801Y-8697174D02*
X12234801Y-8744793D01*
X12234801Y-8744793D02*
X12225277Y-8782889D01*
X12225277Y-8782889D02*
X12215753Y-8801936D01*
X12215753Y-8801936D02*
X12206229Y-8811460D01*
X12206229Y-8811460D02*
X12187182Y-8820984D01*
X12187182Y-8820984D02*
X12168134Y-8820984D01*
X12168134Y-8820984D02*
X12149086Y-8811460D01*
X12149086Y-8811460D02*
X12139563Y-8801936D01*
X12139563Y-8801936D02*
X12130039Y-8782889D01*
X12130039Y-8782889D02*
X12120515Y-8744793D01*
X12120515Y-8744793D02*
X12120515Y-8697174D01*
X12120515Y-8697174D02*
X12130039Y-8659079D01*
X12130039Y-8659079D02*
X12139563Y-8640031D01*
X12139563Y-8640031D02*
X12149086Y-8630508D01*
X12149086Y-8630508D02*
X12168134Y-8620984D01*
X12320515Y-8801936D02*
X12330039Y-8811460D01*
X12330039Y-8811460D02*
X12320515Y-8820984D01*
X12320515Y-8820984D02*
X12310991Y-8811460D01*
X12310991Y-8811460D02*
X12320515Y-8801936D01*
X12320515Y-8801936D02*
X12320515Y-8820984D01*
X12453848Y-8620984D02*
X12472896Y-8620984D01*
X12472896Y-8620984D02*
X12491944Y-8630508D01*
X12491944Y-8630508D02*
X12501467Y-8640031D01*
X12501467Y-8640031D02*
X12510991Y-8659079D01*
X12510991Y-8659079D02*
X12520515Y-8697174D01*
X12520515Y-8697174D02*
X12520515Y-8744793D01*
X12520515Y-8744793D02*
X12510991Y-8782889D01*
X12510991Y-8782889D02*
X12501467Y-8801936D01*
X12501467Y-8801936D02*
X12491944Y-8811460D01*
X12491944Y-8811460D02*
X12472896Y-8820984D01*
X12472896Y-8820984D02*
X12453848Y-8820984D01*
X12453848Y-8820984D02*
X12434801Y-8811460D01*
X12434801Y-8811460D02*
X12425277Y-8801936D01*
X12425277Y-8801936D02*
X12415753Y-8782889D01*
X12415753Y-8782889D02*
X12406229Y-8744793D01*
X12406229Y-8744793D02*
X12406229Y-8697174D01*
X12406229Y-8697174D02*
X12415753Y-8659079D01*
X12415753Y-8659079D02*
X12425277Y-8640031D01*
X12425277Y-8640031D02*
X12434801Y-8630508D01*
X12434801Y-8630508D02*
X12453848Y-8620984D01*
X12587182Y-8620984D02*
X12710991Y-8620984D01*
X12710991Y-8620984D02*
X12644325Y-8697174D01*
X12644325Y-8697174D02*
X12672896Y-8697174D01*
X12672896Y-8697174D02*
X12691944Y-8706698D01*
X12691944Y-8706698D02*
X12701467Y-8716222D01*
X12701467Y-8716222D02*
X12710991Y-8735270D01*
X12710991Y-8735270D02*
X12710991Y-8782889D01*
X12710991Y-8782889D02*
X12701467Y-8801936D01*
X12701467Y-8801936D02*
X12691944Y-8811460D01*
X12691944Y-8811460D02*
X12672896Y-8820984D01*
X12672896Y-8820984D02*
X12615753Y-8820984D01*
X12615753Y-8820984D02*
X12596706Y-8811460D01*
X12596706Y-8811460D02*
X12587182Y-8801936D01*
X12901467Y-8820984D02*
X12787182Y-8820984D01*
X12844325Y-8820984D02*
X12844325Y-8620984D01*
X12844325Y-8620984D02*
X12825277Y-8649555D01*
X12825277Y-8649555D02*
X12806229Y-8668603D01*
X12806229Y-8668603D02*
X12787182Y-8678127D01*
X13082420Y-8620984D02*
X12987182Y-8620984D01*
X12987182Y-8620984D02*
X12977658Y-8716222D01*
X12977658Y-8716222D02*
X12987182Y-8706698D01*
X12987182Y-8706698D02*
X13006229Y-8697174D01*
X13006229Y-8697174D02*
X13053848Y-8697174D01*
X13053848Y-8697174D02*
X13072896Y-8706698D01*
X13072896Y-8706698D02*
X13082420Y-8716222D01*
X13082420Y-8716222D02*
X13091944Y-8735270D01*
X13091944Y-8735270D02*
X13091944Y-8782889D01*
X13091944Y-8782889D02*
X13082420Y-8801936D01*
X13082420Y-8801936D02*
X13072896Y-8811460D01*
X13072896Y-8811460D02*
X13053848Y-8820984D01*
X13053848Y-8820984D02*
X13006229Y-8820984D01*
X13006229Y-8820984D02*
X12987182Y-8811460D01*
X12987182Y-8811460D02*
X12977658Y-8801936D01*
X13168134Y-8620984D02*
X13168134Y-8659079D01*
X13244325Y-8620984D02*
X13244325Y-8659079D01*
X13539563Y-8897174D02*
X13530039Y-8887650D01*
X13530039Y-8887650D02*
X13510991Y-8859079D01*
X13510991Y-8859079D02*
X13501468Y-8840031D01*
X13501468Y-8840031D02*
X13491944Y-8811460D01*
X13491944Y-8811460D02*
X13482420Y-8763841D01*
X13482420Y-8763841D02*
X13482420Y-8725746D01*
X13482420Y-8725746D02*
X13491944Y-8678127D01*
X13491944Y-8678127D02*
X13501468Y-8649555D01*
X13501468Y-8649555D02*
X13510991Y-8630508D01*
X13510991Y-8630508D02*
X13530039Y-8601936D01*
X13530039Y-8601936D02*
X13539563Y-8592412D01*
X13720515Y-8820984D02*
X13606229Y-8820984D01*
X13663372Y-8820984D02*
X13663372Y-8620984D01*
X13663372Y-8620984D02*
X13644325Y-8649555D01*
X13644325Y-8649555D02*
X13625277Y-8668603D01*
X13625277Y-8668603D02*
X13606229Y-8678127D01*
X13891944Y-8620984D02*
X13853848Y-8620984D01*
X13853848Y-8620984D02*
X13834801Y-8630508D01*
X13834801Y-8630508D02*
X13825277Y-8640031D01*
X13825277Y-8640031D02*
X13806229Y-8668603D01*
X13806229Y-8668603D02*
X13796706Y-8706698D01*
X13796706Y-8706698D02*
X13796706Y-8782889D01*
X13796706Y-8782889D02*
X13806229Y-8801936D01*
X13806229Y-8801936D02*
X13815753Y-8811460D01*
X13815753Y-8811460D02*
X13834801Y-8820984D01*
X13834801Y-8820984D02*
X13872896Y-8820984D01*
X13872896Y-8820984D02*
X13891944Y-8811460D01*
X13891944Y-8811460D02*
X13901468Y-8801936D01*
X13901468Y-8801936D02*
X13910991Y-8782889D01*
X13910991Y-8782889D02*
X13910991Y-8735270D01*
X13910991Y-8735270D02*
X13901468Y-8716222D01*
X13901468Y-8716222D02*
X13891944Y-8706698D01*
X13891944Y-8706698D02*
X13872896Y-8697174D01*
X13872896Y-8697174D02*
X13834801Y-8697174D01*
X13834801Y-8697174D02*
X13815753Y-8706698D01*
X13815753Y-8706698D02*
X13806229Y-8716222D01*
X13806229Y-8716222D02*
X13796706Y-8735270D01*
X14149087Y-8820984D02*
X14149087Y-8620984D01*
X14234801Y-8820984D02*
X14234801Y-8716222D01*
X14234801Y-8716222D02*
X14225277Y-8697174D01*
X14225277Y-8697174D02*
X14206230Y-8687650D01*
X14206230Y-8687650D02*
X14177658Y-8687650D01*
X14177658Y-8687650D02*
X14158610Y-8697174D01*
X14158610Y-8697174D02*
X14149087Y-8706698D01*
X14358610Y-8820984D02*
X14339563Y-8811460D01*
X14339563Y-8811460D02*
X14330039Y-8801936D01*
X14330039Y-8801936D02*
X14320515Y-8782889D01*
X14320515Y-8782889D02*
X14320515Y-8725746D01*
X14320515Y-8725746D02*
X14330039Y-8706698D01*
X14330039Y-8706698D02*
X14339563Y-8697174D01*
X14339563Y-8697174D02*
X14358610Y-8687650D01*
X14358610Y-8687650D02*
X14387182Y-8687650D01*
X14387182Y-8687650D02*
X14406230Y-8697174D01*
X14406230Y-8697174D02*
X14415753Y-8706698D01*
X14415753Y-8706698D02*
X14425277Y-8725746D01*
X14425277Y-8725746D02*
X14425277Y-8782889D01*
X14425277Y-8782889D02*
X14415753Y-8801936D01*
X14415753Y-8801936D02*
X14406230Y-8811460D01*
X14406230Y-8811460D02*
X14387182Y-8820984D01*
X14387182Y-8820984D02*
X14358610Y-8820984D01*
X14539563Y-8820984D02*
X14520515Y-8811460D01*
X14520515Y-8811460D02*
X14510991Y-8792412D01*
X14510991Y-8792412D02*
X14510991Y-8620984D01*
X14691944Y-8811460D02*
X14672896Y-8820984D01*
X14672896Y-8820984D02*
X14634801Y-8820984D01*
X14634801Y-8820984D02*
X14615753Y-8811460D01*
X14615753Y-8811460D02*
X14606230Y-8792412D01*
X14606230Y-8792412D02*
X14606230Y-8716222D01*
X14606230Y-8716222D02*
X14615753Y-8697174D01*
X14615753Y-8697174D02*
X14634801Y-8687650D01*
X14634801Y-8687650D02*
X14672896Y-8687650D01*
X14672896Y-8687650D02*
X14691944Y-8697174D01*
X14691944Y-8697174D02*
X14701468Y-8716222D01*
X14701468Y-8716222D02*
X14701468Y-8735270D01*
X14701468Y-8735270D02*
X14606230Y-8754317D01*
X14777658Y-8811460D02*
X14796706Y-8820984D01*
X14796706Y-8820984D02*
X14834801Y-8820984D01*
X14834801Y-8820984D02*
X14853849Y-8811460D01*
X14853849Y-8811460D02*
X14863372Y-8792412D01*
X14863372Y-8792412D02*
X14863372Y-8782889D01*
X14863372Y-8782889D02*
X14853849Y-8763841D01*
X14853849Y-8763841D02*
X14834801Y-8754317D01*
X14834801Y-8754317D02*
X14806230Y-8754317D01*
X14806230Y-8754317D02*
X14787182Y-8744793D01*
X14787182Y-8744793D02*
X14777658Y-8725746D01*
X14777658Y-8725746D02*
X14777658Y-8716222D01*
X14777658Y-8716222D02*
X14787182Y-8697174D01*
X14787182Y-8697174D02*
X14806230Y-8687650D01*
X14806230Y-8687650D02*
X14834801Y-8687650D01*
X14834801Y-8687650D02*
X14853849Y-8697174D01*
X14930039Y-8897174D02*
X14939563Y-8887650D01*
X14939563Y-8887650D02*
X14958611Y-8859079D01*
X14958611Y-8859079D02*
X14968134Y-8840031D01*
X14968134Y-8840031D02*
X14977658Y-8811460D01*
X14977658Y-8811460D02*
X14987182Y-8763841D01*
X14987182Y-8763841D02*
X14987182Y-8725746D01*
X14987182Y-8725746D02*
X14977658Y-8678127D01*
X14977658Y-8678127D02*
X14968134Y-8649555D01*
X14968134Y-8649555D02*
X14958611Y-8630508D01*
X14958611Y-8630508D02*
X14939563Y-8601936D01*
X14939563Y-8601936D02*
X14930039Y-8592412D01*
D15*
X9951320Y-9025320D02*
X9951320Y-8961680D01*
X9887680Y-8961680D01*
X9887680Y-9025320D01*
X9951320Y-9025320D01*
D11*
X10263372Y-8884984D02*
X10282420Y-8884984D01*
X10282420Y-8884984D02*
X10301467Y-8894508D01*
X10301467Y-8894508D02*
X10310991Y-8904031D01*
X10310991Y-8904031D02*
X10320515Y-8923079D01*
X10320515Y-8923079D02*
X10330039Y-8961174D01*
X10330039Y-8961174D02*
X10330039Y-9008793D01*
X10330039Y-9008793D02*
X10320515Y-9046889D01*
X10320515Y-9046889D02*
X10310991Y-9065936D01*
X10310991Y-9065936D02*
X10301467Y-9075460D01*
X10301467Y-9075460D02*
X10282420Y-9084984D01*
X10282420Y-9084984D02*
X10263372Y-9084984D01*
X10263372Y-9084984D02*
X10244324Y-9075460D01*
X10244324Y-9075460D02*
X10234801Y-9065936D01*
X10234801Y-9065936D02*
X10225277Y-9046889D01*
X10225277Y-9046889D02*
X10215753Y-9008793D01*
X10215753Y-9008793D02*
X10215753Y-8961174D01*
X10215753Y-8961174D02*
X10225277Y-8923079D01*
X10225277Y-8923079D02*
X10234801Y-8904031D01*
X10234801Y-8904031D02*
X10244324Y-8894508D01*
X10244324Y-8894508D02*
X10263372Y-8884984D01*
X10415753Y-9065936D02*
X10425277Y-9075460D01*
X10425277Y-9075460D02*
X10415753Y-9084984D01*
X10415753Y-9084984D02*
X10406229Y-9075460D01*
X10406229Y-9075460D02*
X10415753Y-9065936D01*
X10415753Y-9065936D02*
X10415753Y-9084984D01*
X10520515Y-9084984D02*
X10558610Y-9084984D01*
X10558610Y-9084984D02*
X10577658Y-9075460D01*
X10577658Y-9075460D02*
X10587182Y-9065936D01*
X10587182Y-9065936D02*
X10606229Y-9037365D01*
X10606229Y-9037365D02*
X10615753Y-8999270D01*
X10615753Y-8999270D02*
X10615753Y-8923079D01*
X10615753Y-8923079D02*
X10606229Y-8904031D01*
X10606229Y-8904031D02*
X10596705Y-8894508D01*
X10596705Y-8894508D02*
X10577658Y-8884984D01*
X10577658Y-8884984D02*
X10539563Y-8884984D01*
X10539563Y-8884984D02*
X10520515Y-8894508D01*
X10520515Y-8894508D02*
X10510991Y-8904031D01*
X10510991Y-8904031D02*
X10501467Y-8923079D01*
X10501467Y-8923079D02*
X10501467Y-8970698D01*
X10501467Y-8970698D02*
X10510991Y-8989746D01*
X10510991Y-8989746D02*
X10520515Y-8999270D01*
X10520515Y-8999270D02*
X10539563Y-9008793D01*
X10539563Y-9008793D02*
X10577658Y-9008793D01*
X10577658Y-9008793D02*
X10596705Y-8999270D01*
X10596705Y-8999270D02*
X10606229Y-8989746D01*
X10606229Y-8989746D02*
X10615753Y-8970698D01*
X10739563Y-8884984D02*
X10758610Y-8884984D01*
X10758610Y-8884984D02*
X10777658Y-8894508D01*
X10777658Y-8894508D02*
X10787182Y-8904031D01*
X10787182Y-8904031D02*
X10796705Y-8923079D01*
X10796705Y-8923079D02*
X10806229Y-8961174D01*
X10806229Y-8961174D02*
X10806229Y-9008793D01*
X10806229Y-9008793D02*
X10796705Y-9046889D01*
X10796705Y-9046889D02*
X10787182Y-9065936D01*
X10787182Y-9065936D02*
X10777658Y-9075460D01*
X10777658Y-9075460D02*
X10758610Y-9084984D01*
X10758610Y-9084984D02*
X10739563Y-9084984D01*
X10739563Y-9084984D02*
X10720515Y-9075460D01*
X10720515Y-9075460D02*
X10710991Y-9065936D01*
X10710991Y-9065936D02*
X10701467Y-9046889D01*
X10701467Y-9046889D02*
X10691944Y-9008793D01*
X10691944Y-9008793D02*
X10691944Y-8961174D01*
X10691944Y-8961174D02*
X10701467Y-8923079D01*
X10701467Y-8923079D02*
X10710991Y-8904031D01*
X10710991Y-8904031D02*
X10720515Y-8894508D01*
X10720515Y-8894508D02*
X10739563Y-8884984D01*
X10930039Y-8884984D02*
X10949086Y-8884984D01*
X10949086Y-8884984D02*
X10968134Y-8894508D01*
X10968134Y-8894508D02*
X10977658Y-8904031D01*
X10977658Y-8904031D02*
X10987182Y-8923079D01*
X10987182Y-8923079D02*
X10996705Y-8961174D01*
X10996705Y-8961174D02*
X10996705Y-9008793D01*
X10996705Y-9008793D02*
X10987182Y-9046889D01*
X10987182Y-9046889D02*
X10977658Y-9065936D01*
X10977658Y-9065936D02*
X10968134Y-9075460D01*
X10968134Y-9075460D02*
X10949086Y-9084984D01*
X10949086Y-9084984D02*
X10930039Y-9084984D01*
X10930039Y-9084984D02*
X10910991Y-9075460D01*
X10910991Y-9075460D02*
X10901467Y-9065936D01*
X10901467Y-9065936D02*
X10891944Y-9046889D01*
X10891944Y-9046889D02*
X10882420Y-9008793D01*
X10882420Y-9008793D02*
X10882420Y-8961174D01*
X10882420Y-8961174D02*
X10891944Y-8923079D01*
X10891944Y-8923079D02*
X10901467Y-8904031D01*
X10901467Y-8904031D02*
X10910991Y-8894508D01*
X10910991Y-8894508D02*
X10930039Y-8884984D01*
X11082420Y-9084984D02*
X11082420Y-8951650D01*
X11082420Y-8970698D02*
X11091944Y-8961174D01*
X11091944Y-8961174D02*
X11110991Y-8951650D01*
X11110991Y-8951650D02*
X11139563Y-8951650D01*
X11139563Y-8951650D02*
X11158610Y-8961174D01*
X11158610Y-8961174D02*
X11168134Y-8980222D01*
X11168134Y-8980222D02*
X11168134Y-9084984D01*
X11168134Y-8980222D02*
X11177658Y-8961174D01*
X11177658Y-8961174D02*
X11196705Y-8951650D01*
X11196705Y-8951650D02*
X11225277Y-8951650D01*
X11225277Y-8951650D02*
X11244324Y-8961174D01*
X11244324Y-8961174D02*
X11253848Y-8980222D01*
X11253848Y-8980222D02*
X11253848Y-9084984D01*
X11349086Y-9084984D02*
X11349086Y-8951650D01*
X11349086Y-8970698D02*
X11358610Y-8961174D01*
X11358610Y-8961174D02*
X11377658Y-8951650D01*
X11377658Y-8951650D02*
X11406229Y-8951650D01*
X11406229Y-8951650D02*
X11425277Y-8961174D01*
X11425277Y-8961174D02*
X11434801Y-8980222D01*
X11434801Y-8980222D02*
X11434801Y-9084984D01*
X11434801Y-8980222D02*
X11444324Y-8961174D01*
X11444324Y-8961174D02*
X11463372Y-8951650D01*
X11463372Y-8951650D02*
X11491943Y-8951650D01*
X11491943Y-8951650D02*
X11510991Y-8961174D01*
X11510991Y-8961174D02*
X11520515Y-8980222D01*
X11520515Y-8980222D02*
X11520515Y-9084984D01*
X11910991Y-8875460D02*
X11739563Y-9132603D01*
X12168134Y-8884984D02*
X12187182Y-8884984D01*
X12187182Y-8884984D02*
X12206229Y-8894508D01*
X12206229Y-8894508D02*
X12215753Y-8904031D01*
X12215753Y-8904031D02*
X12225277Y-8923079D01*
X12225277Y-8923079D02*
X12234801Y-8961174D01*
X12234801Y-8961174D02*
X12234801Y-9008793D01*
X12234801Y-9008793D02*
X12225277Y-9046889D01*
X12225277Y-9046889D02*
X12215753Y-9065936D01*
X12215753Y-9065936D02*
X12206229Y-9075460D01*
X12206229Y-9075460D02*
X12187182Y-9084984D01*
X12187182Y-9084984D02*
X12168134Y-9084984D01*
X12168134Y-9084984D02*
X12149086Y-9075460D01*
X12149086Y-9075460D02*
X12139563Y-9065936D01*
X12139563Y-9065936D02*
X12130039Y-9046889D01*
X12130039Y-9046889D02*
X12120515Y-9008793D01*
X12120515Y-9008793D02*
X12120515Y-8961174D01*
X12120515Y-8961174D02*
X12130039Y-8923079D01*
X12130039Y-8923079D02*
X12139563Y-8904031D01*
X12139563Y-8904031D02*
X12149086Y-8894508D01*
X12149086Y-8894508D02*
X12168134Y-8884984D01*
X12320515Y-9065936D02*
X12330039Y-9075460D01*
X12330039Y-9075460D02*
X12320515Y-9084984D01*
X12320515Y-9084984D02*
X12310991Y-9075460D01*
X12310991Y-9075460D02*
X12320515Y-9065936D01*
X12320515Y-9065936D02*
X12320515Y-9084984D01*
X12453848Y-8884984D02*
X12472896Y-8884984D01*
X12472896Y-8884984D02*
X12491944Y-8894508D01*
X12491944Y-8894508D02*
X12501467Y-8904031D01*
X12501467Y-8904031D02*
X12510991Y-8923079D01*
X12510991Y-8923079D02*
X12520515Y-8961174D01*
X12520515Y-8961174D02*
X12520515Y-9008793D01*
X12520515Y-9008793D02*
X12510991Y-9046889D01*
X12510991Y-9046889D02*
X12501467Y-9065936D01*
X12501467Y-9065936D02*
X12491944Y-9075460D01*
X12491944Y-9075460D02*
X12472896Y-9084984D01*
X12472896Y-9084984D02*
X12453848Y-9084984D01*
X12453848Y-9084984D02*
X12434801Y-9075460D01*
X12434801Y-9075460D02*
X12425277Y-9065936D01*
X12425277Y-9065936D02*
X12415753Y-9046889D01*
X12415753Y-9046889D02*
X12406229Y-9008793D01*
X12406229Y-9008793D02*
X12406229Y-8961174D01*
X12406229Y-8961174D02*
X12415753Y-8923079D01*
X12415753Y-8923079D02*
X12425277Y-8904031D01*
X12425277Y-8904031D02*
X12434801Y-8894508D01*
X12434801Y-8894508D02*
X12453848Y-8884984D01*
X12587182Y-8884984D02*
X12710991Y-8884984D01*
X12710991Y-8884984D02*
X12644325Y-8961174D01*
X12644325Y-8961174D02*
X12672896Y-8961174D01*
X12672896Y-8961174D02*
X12691944Y-8970698D01*
X12691944Y-8970698D02*
X12701467Y-8980222D01*
X12701467Y-8980222D02*
X12710991Y-8999270D01*
X12710991Y-8999270D02*
X12710991Y-9046889D01*
X12710991Y-9046889D02*
X12701467Y-9065936D01*
X12701467Y-9065936D02*
X12691944Y-9075460D01*
X12691944Y-9075460D02*
X12672896Y-9084984D01*
X12672896Y-9084984D02*
X12615753Y-9084984D01*
X12615753Y-9084984D02*
X12596706Y-9075460D01*
X12596706Y-9075460D02*
X12587182Y-9065936D01*
X12891944Y-8884984D02*
X12796706Y-8884984D01*
X12796706Y-8884984D02*
X12787182Y-8980222D01*
X12787182Y-8980222D02*
X12796706Y-8970698D01*
X12796706Y-8970698D02*
X12815753Y-8961174D01*
X12815753Y-8961174D02*
X12863372Y-8961174D01*
X12863372Y-8961174D02*
X12882420Y-8970698D01*
X12882420Y-8970698D02*
X12891944Y-8980222D01*
X12891944Y-8980222D02*
X12901467Y-8999270D01*
X12901467Y-8999270D02*
X12901467Y-9046889D01*
X12901467Y-9046889D02*
X12891944Y-9065936D01*
X12891944Y-9065936D02*
X12882420Y-9075460D01*
X12882420Y-9075460D02*
X12863372Y-9084984D01*
X12863372Y-9084984D02*
X12815753Y-9084984D01*
X12815753Y-9084984D02*
X12796706Y-9075460D01*
X12796706Y-9075460D02*
X12787182Y-9065936D01*
X13072896Y-8951650D02*
X13072896Y-9084984D01*
X13025277Y-8875460D02*
X12977658Y-9018317D01*
X12977658Y-9018317D02*
X13101467Y-9018317D01*
X13168134Y-8884984D02*
X13168134Y-8923079D01*
X13244325Y-8884984D02*
X13244325Y-8923079D01*
X13539563Y-9161174D02*
X13530039Y-9151650D01*
X13530039Y-9151650D02*
X13510991Y-9123079D01*
X13510991Y-9123079D02*
X13501468Y-9104031D01*
X13501468Y-9104031D02*
X13491944Y-9075460D01*
X13491944Y-9075460D02*
X13482420Y-9027841D01*
X13482420Y-9027841D02*
X13482420Y-8989746D01*
X13482420Y-8989746D02*
X13491944Y-8942127D01*
X13491944Y-8942127D02*
X13501468Y-8913555D01*
X13501468Y-8913555D02*
X13510991Y-8894508D01*
X13510991Y-8894508D02*
X13530039Y-8865936D01*
X13530039Y-8865936D02*
X13539563Y-8856412D01*
X13606229Y-8904031D02*
X13615753Y-8894508D01*
X13615753Y-8894508D02*
X13634801Y-8884984D01*
X13634801Y-8884984D02*
X13682420Y-8884984D01*
X13682420Y-8884984D02*
X13701468Y-8894508D01*
X13701468Y-8894508D02*
X13710991Y-8904031D01*
X13710991Y-8904031D02*
X13720515Y-8923079D01*
X13720515Y-8923079D02*
X13720515Y-8942127D01*
X13720515Y-8942127D02*
X13710991Y-8970698D01*
X13710991Y-8970698D02*
X13596706Y-9084984D01*
X13596706Y-9084984D02*
X13720515Y-9084984D01*
X13958610Y-9084984D02*
X13958610Y-8884984D01*
X14044325Y-9084984D02*
X14044325Y-8980222D01*
X14044325Y-8980222D02*
X14034801Y-8961174D01*
X14034801Y-8961174D02*
X14015753Y-8951650D01*
X14015753Y-8951650D02*
X13987182Y-8951650D01*
X13987182Y-8951650D02*
X13968134Y-8961174D01*
X13968134Y-8961174D02*
X13958610Y-8970698D01*
X14168134Y-9084984D02*
X14149087Y-9075460D01*
X14149087Y-9075460D02*
X14139563Y-9065936D01*
X14139563Y-9065936D02*
X14130039Y-9046889D01*
X14130039Y-9046889D02*
X14130039Y-8989746D01*
X14130039Y-8989746D02*
X14139563Y-8970698D01*
X14139563Y-8970698D02*
X14149087Y-8961174D01*
X14149087Y-8961174D02*
X14168134Y-8951650D01*
X14168134Y-8951650D02*
X14196706Y-8951650D01*
X14196706Y-8951650D02*
X14215753Y-8961174D01*
X14215753Y-8961174D02*
X14225277Y-8970698D01*
X14225277Y-8970698D02*
X14234801Y-8989746D01*
X14234801Y-8989746D02*
X14234801Y-9046889D01*
X14234801Y-9046889D02*
X14225277Y-9065936D01*
X14225277Y-9065936D02*
X14215753Y-9075460D01*
X14215753Y-9075460D02*
X14196706Y-9084984D01*
X14196706Y-9084984D02*
X14168134Y-9084984D01*
X14349087Y-9084984D02*
X14330039Y-9075460D01*
X14330039Y-9075460D02*
X14320515Y-9056412D01*
X14320515Y-9056412D02*
X14320515Y-8884984D01*
X14501468Y-9075460D02*
X14482420Y-9084984D01*
X14482420Y-9084984D02*
X14444325Y-9084984D01*
X14444325Y-9084984D02*
X14425277Y-9075460D01*
X14425277Y-9075460D02*
X14415753Y-9056412D01*
X14415753Y-9056412D02*
X14415753Y-8980222D01*
X14415753Y-8980222D02*
X14425277Y-8961174D01*
X14425277Y-8961174D02*
X14444325Y-8951650D01*
X14444325Y-8951650D02*
X14482420Y-8951650D01*
X14482420Y-8951650D02*
X14501468Y-8961174D01*
X14501468Y-8961174D02*
X14510991Y-8980222D01*
X14510991Y-8980222D02*
X14510991Y-8999270D01*
X14510991Y-8999270D02*
X14415753Y-9018317D01*
X14587182Y-9075460D02*
X14606230Y-9084984D01*
X14606230Y-9084984D02*
X14644325Y-9084984D01*
X14644325Y-9084984D02*
X14663372Y-9075460D01*
X14663372Y-9075460D02*
X14672896Y-9056412D01*
X14672896Y-9056412D02*
X14672896Y-9046889D01*
X14672896Y-9046889D02*
X14663372Y-9027841D01*
X14663372Y-9027841D02*
X14644325Y-9018317D01*
X14644325Y-9018317D02*
X14615753Y-9018317D01*
X14615753Y-9018317D02*
X14596706Y-9008793D01*
X14596706Y-9008793D02*
X14587182Y-8989746D01*
X14587182Y-8989746D02*
X14587182Y-8980222D01*
X14587182Y-8980222D02*
X14596706Y-8961174D01*
X14596706Y-8961174D02*
X14615753Y-8951650D01*
X14615753Y-8951650D02*
X14644325Y-8951650D01*
X14644325Y-8951650D02*
X14663372Y-8961174D01*
X14739563Y-9161174D02*
X14749087Y-9151650D01*
X14749087Y-9151650D02*
X14768134Y-9123079D01*
X14768134Y-9123079D02*
X14777658Y-9104031D01*
X14777658Y-9104031D02*
X14787182Y-9075460D01*
X14787182Y-9075460D02*
X14796706Y-9027841D01*
X14796706Y-9027841D02*
X14796706Y-8989746D01*
X14796706Y-8989746D02*
X14787182Y-8942127D01*
X14787182Y-8942127D02*
X14777658Y-8913555D01*
X14777658Y-8913555D02*
X14768134Y-8894508D01*
X14768134Y-8894508D02*
X14749087Y-8865936D01*
X14749087Y-8865936D02*
X14739563Y-8856412D01*
D16*
X9905000Y-9317000D02*
X9964500Y-9257500D01*
X9905000Y-9198000D01*
X9845500Y-9257500D01*
X9905000Y-9317000D01*
D11*
X10330039Y-9348984D02*
X10215753Y-9348984D01*
X10272896Y-9348984D02*
X10272896Y-9148984D01*
X10272896Y-9148984D02*
X10253848Y-9177555D01*
X10253848Y-9177555D02*
X10234801Y-9196603D01*
X10234801Y-9196603D02*
X10215753Y-9206127D01*
X10415753Y-9329936D02*
X10425277Y-9339460D01*
X10425277Y-9339460D02*
X10415753Y-9348984D01*
X10415753Y-9348984D02*
X10406229Y-9339460D01*
X10406229Y-9339460D02*
X10415753Y-9329936D01*
X10415753Y-9329936D02*
X10415753Y-9348984D01*
X10615753Y-9348984D02*
X10501467Y-9348984D01*
X10558610Y-9348984D02*
X10558610Y-9148984D01*
X10558610Y-9148984D02*
X10539563Y-9177555D01*
X10539563Y-9177555D02*
X10520515Y-9196603D01*
X10520515Y-9196603D02*
X10501467Y-9206127D01*
X10710991Y-9348984D02*
X10749086Y-9348984D01*
X10749086Y-9348984D02*
X10768134Y-9339460D01*
X10768134Y-9339460D02*
X10777658Y-9329936D01*
X10777658Y-9329936D02*
X10796705Y-9301365D01*
X10796705Y-9301365D02*
X10806229Y-9263270D01*
X10806229Y-9263270D02*
X10806229Y-9187079D01*
X10806229Y-9187079D02*
X10796705Y-9168031D01*
X10796705Y-9168031D02*
X10787182Y-9158508D01*
X10787182Y-9158508D02*
X10768134Y-9148984D01*
X10768134Y-9148984D02*
X10730039Y-9148984D01*
X10730039Y-9148984D02*
X10710991Y-9158508D01*
X10710991Y-9158508D02*
X10701467Y-9168031D01*
X10701467Y-9168031D02*
X10691944Y-9187079D01*
X10691944Y-9187079D02*
X10691944Y-9234698D01*
X10691944Y-9234698D02*
X10701467Y-9253746D01*
X10701467Y-9253746D02*
X10710991Y-9263270D01*
X10710991Y-9263270D02*
X10730039Y-9272793D01*
X10730039Y-9272793D02*
X10768134Y-9272793D01*
X10768134Y-9272793D02*
X10787182Y-9263270D01*
X10787182Y-9263270D02*
X10796705Y-9253746D01*
X10796705Y-9253746D02*
X10806229Y-9234698D01*
X10930039Y-9148984D02*
X10949086Y-9148984D01*
X10949086Y-9148984D02*
X10968134Y-9158508D01*
X10968134Y-9158508D02*
X10977658Y-9168031D01*
X10977658Y-9168031D02*
X10987182Y-9187079D01*
X10987182Y-9187079D02*
X10996705Y-9225174D01*
X10996705Y-9225174D02*
X10996705Y-9272793D01*
X10996705Y-9272793D02*
X10987182Y-9310889D01*
X10987182Y-9310889D02*
X10977658Y-9329936D01*
X10977658Y-9329936D02*
X10968134Y-9339460D01*
X10968134Y-9339460D02*
X10949086Y-9348984D01*
X10949086Y-9348984D02*
X10930039Y-9348984D01*
X10930039Y-9348984D02*
X10910991Y-9339460D01*
X10910991Y-9339460D02*
X10901467Y-9329936D01*
X10901467Y-9329936D02*
X10891944Y-9310889D01*
X10891944Y-9310889D02*
X10882420Y-9272793D01*
X10882420Y-9272793D02*
X10882420Y-9225174D01*
X10882420Y-9225174D02*
X10891944Y-9187079D01*
X10891944Y-9187079D02*
X10901467Y-9168031D01*
X10901467Y-9168031D02*
X10910991Y-9158508D01*
X10910991Y-9158508D02*
X10930039Y-9148984D01*
X11082420Y-9348984D02*
X11082420Y-9215650D01*
X11082420Y-9234698D02*
X11091944Y-9225174D01*
X11091944Y-9225174D02*
X11110991Y-9215650D01*
X11110991Y-9215650D02*
X11139563Y-9215650D01*
X11139563Y-9215650D02*
X11158610Y-9225174D01*
X11158610Y-9225174D02*
X11168134Y-9244222D01*
X11168134Y-9244222D02*
X11168134Y-9348984D01*
X11168134Y-9244222D02*
X11177658Y-9225174D01*
X11177658Y-9225174D02*
X11196705Y-9215650D01*
X11196705Y-9215650D02*
X11225277Y-9215650D01*
X11225277Y-9215650D02*
X11244324Y-9225174D01*
X11244324Y-9225174D02*
X11253848Y-9244222D01*
X11253848Y-9244222D02*
X11253848Y-9348984D01*
X11349086Y-9348984D02*
X11349086Y-9215650D01*
X11349086Y-9234698D02*
X11358610Y-9225174D01*
X11358610Y-9225174D02*
X11377658Y-9215650D01*
X11377658Y-9215650D02*
X11406229Y-9215650D01*
X11406229Y-9215650D02*
X11425277Y-9225174D01*
X11425277Y-9225174D02*
X11434801Y-9244222D01*
X11434801Y-9244222D02*
X11434801Y-9348984D01*
X11434801Y-9244222D02*
X11444324Y-9225174D01*
X11444324Y-9225174D02*
X11463372Y-9215650D01*
X11463372Y-9215650D02*
X11491943Y-9215650D01*
X11491943Y-9215650D02*
X11510991Y-9225174D01*
X11510991Y-9225174D02*
X11520515Y-9244222D01*
X11520515Y-9244222D02*
X11520515Y-9348984D01*
X11910991Y-9139460D02*
X11739563Y-9396603D01*
X12168134Y-9148984D02*
X12187182Y-9148984D01*
X12187182Y-9148984D02*
X12206229Y-9158508D01*
X12206229Y-9158508D02*
X12215753Y-9168031D01*
X12215753Y-9168031D02*
X12225277Y-9187079D01*
X12225277Y-9187079D02*
X12234801Y-9225174D01*
X12234801Y-9225174D02*
X12234801Y-9272793D01*
X12234801Y-9272793D02*
X12225277Y-9310889D01*
X12225277Y-9310889D02*
X12215753Y-9329936D01*
X12215753Y-9329936D02*
X12206229Y-9339460D01*
X12206229Y-9339460D02*
X12187182Y-9348984D01*
X12187182Y-9348984D02*
X12168134Y-9348984D01*
X12168134Y-9348984D02*
X12149086Y-9339460D01*
X12149086Y-9339460D02*
X12139563Y-9329936D01*
X12139563Y-9329936D02*
X12130039Y-9310889D01*
X12130039Y-9310889D02*
X12120515Y-9272793D01*
X12120515Y-9272793D02*
X12120515Y-9225174D01*
X12120515Y-9225174D02*
X12130039Y-9187079D01*
X12130039Y-9187079D02*
X12139563Y-9168031D01*
X12139563Y-9168031D02*
X12149086Y-9158508D01*
X12149086Y-9158508D02*
X12168134Y-9148984D01*
X12320515Y-9329936D02*
X12330039Y-9339460D01*
X12330039Y-9339460D02*
X12320515Y-9348984D01*
X12320515Y-9348984D02*
X12310991Y-9339460D01*
X12310991Y-9339460D02*
X12320515Y-9329936D01*
X12320515Y-9329936D02*
X12320515Y-9348984D01*
X12453848Y-9148984D02*
X12472896Y-9148984D01*
X12472896Y-9148984D02*
X12491944Y-9158508D01*
X12491944Y-9158508D02*
X12501467Y-9168031D01*
X12501467Y-9168031D02*
X12510991Y-9187079D01*
X12510991Y-9187079D02*
X12520515Y-9225174D01*
X12520515Y-9225174D02*
X12520515Y-9272793D01*
X12520515Y-9272793D02*
X12510991Y-9310889D01*
X12510991Y-9310889D02*
X12501467Y-9329936D01*
X12501467Y-9329936D02*
X12491944Y-9339460D01*
X12491944Y-9339460D02*
X12472896Y-9348984D01*
X12472896Y-9348984D02*
X12453848Y-9348984D01*
X12453848Y-9348984D02*
X12434801Y-9339460D01*
X12434801Y-9339460D02*
X12425277Y-9329936D01*
X12425277Y-9329936D02*
X12415753Y-9310889D01*
X12415753Y-9310889D02*
X12406229Y-9272793D01*
X12406229Y-9272793D02*
X12406229Y-9225174D01*
X12406229Y-9225174D02*
X12415753Y-9187079D01*
X12415753Y-9187079D02*
X12425277Y-9168031D01*
X12425277Y-9168031D02*
X12434801Y-9158508D01*
X12434801Y-9158508D02*
X12453848Y-9148984D01*
X12691944Y-9215650D02*
X12691944Y-9348984D01*
X12644325Y-9139460D02*
X12596706Y-9282317D01*
X12596706Y-9282317D02*
X12720515Y-9282317D01*
X12882420Y-9148984D02*
X12844325Y-9148984D01*
X12844325Y-9148984D02*
X12825277Y-9158508D01*
X12825277Y-9158508D02*
X12815753Y-9168031D01*
X12815753Y-9168031D02*
X12796706Y-9196603D01*
X12796706Y-9196603D02*
X12787182Y-9234698D01*
X12787182Y-9234698D02*
X12787182Y-9310889D01*
X12787182Y-9310889D02*
X12796706Y-9329936D01*
X12796706Y-9329936D02*
X12806229Y-9339460D01*
X12806229Y-9339460D02*
X12825277Y-9348984D01*
X12825277Y-9348984D02*
X12863372Y-9348984D01*
X12863372Y-9348984D02*
X12882420Y-9339460D01*
X12882420Y-9339460D02*
X12891944Y-9329936D01*
X12891944Y-9329936D02*
X12901467Y-9310889D01*
X12901467Y-9310889D02*
X12901467Y-9263270D01*
X12901467Y-9263270D02*
X12891944Y-9244222D01*
X12891944Y-9244222D02*
X12882420Y-9234698D01*
X12882420Y-9234698D02*
X12863372Y-9225174D01*
X12863372Y-9225174D02*
X12825277Y-9225174D01*
X12825277Y-9225174D02*
X12806229Y-9234698D01*
X12806229Y-9234698D02*
X12796706Y-9244222D01*
X12796706Y-9244222D02*
X12787182Y-9263270D01*
X12996706Y-9348984D02*
X13034801Y-9348984D01*
X13034801Y-9348984D02*
X13053848Y-9339460D01*
X13053848Y-9339460D02*
X13063372Y-9329936D01*
X13063372Y-9329936D02*
X13082420Y-9301365D01*
X13082420Y-9301365D02*
X13091944Y-9263270D01*
X13091944Y-9263270D02*
X13091944Y-9187079D01*
X13091944Y-9187079D02*
X13082420Y-9168031D01*
X13082420Y-9168031D02*
X13072896Y-9158508D01*
X13072896Y-9158508D02*
X13053848Y-9148984D01*
X13053848Y-9148984D02*
X13015753Y-9148984D01*
X13015753Y-9148984D02*
X12996706Y-9158508D01*
X12996706Y-9158508D02*
X12987182Y-9168031D01*
X12987182Y-9168031D02*
X12977658Y-9187079D01*
X12977658Y-9187079D02*
X12977658Y-9234698D01*
X12977658Y-9234698D02*
X12987182Y-9253746D01*
X12987182Y-9253746D02*
X12996706Y-9263270D01*
X12996706Y-9263270D02*
X13015753Y-9272793D01*
X13015753Y-9272793D02*
X13053848Y-9272793D01*
X13053848Y-9272793D02*
X13072896Y-9263270D01*
X13072896Y-9263270D02*
X13082420Y-9253746D01*
X13082420Y-9253746D02*
X13091944Y-9234698D01*
X13168134Y-9148984D02*
X13168134Y-9187079D01*
X13244325Y-9148984D02*
X13244325Y-9187079D01*
X13539563Y-9425174D02*
X13530039Y-9415650D01*
X13530039Y-9415650D02*
X13510991Y-9387079D01*
X13510991Y-9387079D02*
X13501468Y-9368031D01*
X13501468Y-9368031D02*
X13491944Y-9339460D01*
X13491944Y-9339460D02*
X13482420Y-9291841D01*
X13482420Y-9291841D02*
X13482420Y-9253746D01*
X13482420Y-9253746D02*
X13491944Y-9206127D01*
X13491944Y-9206127D02*
X13501468Y-9177555D01*
X13501468Y-9177555D02*
X13510991Y-9158508D01*
X13510991Y-9158508D02*
X13530039Y-9129936D01*
X13530039Y-9129936D02*
X13539563Y-9120412D01*
X13644325Y-9234698D02*
X13625277Y-9225174D01*
X13625277Y-9225174D02*
X13615753Y-9215650D01*
X13615753Y-9215650D02*
X13606229Y-9196603D01*
X13606229Y-9196603D02*
X13606229Y-9187079D01*
X13606229Y-9187079D02*
X13615753Y-9168031D01*
X13615753Y-9168031D02*
X13625277Y-9158508D01*
X13625277Y-9158508D02*
X13644325Y-9148984D01*
X13644325Y-9148984D02*
X13682420Y-9148984D01*
X13682420Y-9148984D02*
X13701468Y-9158508D01*
X13701468Y-9158508D02*
X13710991Y-9168031D01*
X13710991Y-9168031D02*
X13720515Y-9187079D01*
X13720515Y-9187079D02*
X13720515Y-9196603D01*
X13720515Y-9196603D02*
X13710991Y-9215650D01*
X13710991Y-9215650D02*
X13701468Y-9225174D01*
X13701468Y-9225174D02*
X13682420Y-9234698D01*
X13682420Y-9234698D02*
X13644325Y-9234698D01*
X13644325Y-9234698D02*
X13625277Y-9244222D01*
X13625277Y-9244222D02*
X13615753Y-9253746D01*
X13615753Y-9253746D02*
X13606229Y-9272793D01*
X13606229Y-9272793D02*
X13606229Y-9310889D01*
X13606229Y-9310889D02*
X13615753Y-9329936D01*
X13615753Y-9329936D02*
X13625277Y-9339460D01*
X13625277Y-9339460D02*
X13644325Y-9348984D01*
X13644325Y-9348984D02*
X13682420Y-9348984D01*
X13682420Y-9348984D02*
X13701468Y-9339460D01*
X13701468Y-9339460D02*
X13710991Y-9329936D01*
X13710991Y-9329936D02*
X13720515Y-9310889D01*
X13720515Y-9310889D02*
X13720515Y-9272793D01*
X13720515Y-9272793D02*
X13710991Y-9253746D01*
X13710991Y-9253746D02*
X13701468Y-9244222D01*
X13701468Y-9244222D02*
X13682420Y-9234698D01*
X13958610Y-9348984D02*
X13958610Y-9148984D01*
X14044325Y-9348984D02*
X14044325Y-9244222D01*
X14044325Y-9244222D02*
X14034801Y-9225174D01*
X14034801Y-9225174D02*
X14015753Y-9215650D01*
X14015753Y-9215650D02*
X13987182Y-9215650D01*
X13987182Y-9215650D02*
X13968134Y-9225174D01*
X13968134Y-9225174D02*
X13958610Y-9234698D01*
X14168134Y-9348984D02*
X14149087Y-9339460D01*
X14149087Y-9339460D02*
X14139563Y-9329936D01*
X14139563Y-9329936D02*
X14130039Y-9310889D01*
X14130039Y-9310889D02*
X14130039Y-9253746D01*
X14130039Y-9253746D02*
X14139563Y-9234698D01*
X14139563Y-9234698D02*
X14149087Y-9225174D01*
X14149087Y-9225174D02*
X14168134Y-9215650D01*
X14168134Y-9215650D02*
X14196706Y-9215650D01*
X14196706Y-9215650D02*
X14215753Y-9225174D01*
X14215753Y-9225174D02*
X14225277Y-9234698D01*
X14225277Y-9234698D02*
X14234801Y-9253746D01*
X14234801Y-9253746D02*
X14234801Y-9310889D01*
X14234801Y-9310889D02*
X14225277Y-9329936D01*
X14225277Y-9329936D02*
X14215753Y-9339460D01*
X14215753Y-9339460D02*
X14196706Y-9348984D01*
X14196706Y-9348984D02*
X14168134Y-9348984D01*
X14349087Y-9348984D02*
X14330039Y-9339460D01*
X14330039Y-9339460D02*
X14320515Y-9320412D01*
X14320515Y-9320412D02*
X14320515Y-9148984D01*
X14501468Y-9339460D02*
X14482420Y-9348984D01*
X14482420Y-9348984D02*
X14444325Y-9348984D01*
X14444325Y-9348984D02*
X14425277Y-9339460D01*
X14425277Y-9339460D02*
X14415753Y-9320412D01*
X14415753Y-9320412D02*
X14415753Y-9244222D01*
X14415753Y-9244222D02*
X14425277Y-9225174D01*
X14425277Y-9225174D02*
X14444325Y-9215650D01*
X14444325Y-9215650D02*
X14482420Y-9215650D01*
X14482420Y-9215650D02*
X14501468Y-9225174D01*
X14501468Y-9225174D02*
X14510991Y-9244222D01*
X14510991Y-9244222D02*
X14510991Y-9263270D01*
X14510991Y-9263270D02*
X14415753Y-9282317D01*
X14587182Y-9339460D02*
X14606230Y-9348984D01*
X14606230Y-9348984D02*
X14644325Y-9348984D01*
X14644325Y-9348984D02*
X14663372Y-9339460D01*
X14663372Y-9339460D02*
X14672896Y-9320412D01*
X14672896Y-9320412D02*
X14672896Y-9310889D01*
X14672896Y-9310889D02*
X14663372Y-9291841D01*
X14663372Y-9291841D02*
X14644325Y-9282317D01*
X14644325Y-9282317D02*
X14615753Y-9282317D01*
X14615753Y-9282317D02*
X14596706Y-9272793D01*
X14596706Y-9272793D02*
X14587182Y-9253746D01*
X14587182Y-9253746D02*
X14587182Y-9244222D01*
X14587182Y-9244222D02*
X14596706Y-9225174D01*
X14596706Y-9225174D02*
X14615753Y-9215650D01*
X14615753Y-9215650D02*
X14644325Y-9215650D01*
X14644325Y-9215650D02*
X14663372Y-9225174D01*
X14739563Y-9425174D02*
X14749087Y-9415650D01*
X14749087Y-9415650D02*
X14768134Y-9387079D01*
X14768134Y-9387079D02*
X14777658Y-9368031D01*
X14777658Y-9368031D02*
X14787182Y-9339460D01*
X14787182Y-9339460D02*
X14796706Y-9291841D01*
X14796706Y-9291841D02*
X14796706Y-9253746D01*
X14796706Y-9253746D02*
X14787182Y-9206127D01*
X14787182Y-9206127D02*
X14777658Y-9177555D01*
X14777658Y-9177555D02*
X14768134Y-9158508D01*
X14768134Y-9158508D02*
X14749087Y-9129936D01*
X14749087Y-9129936D02*
X14739563Y-9120412D01*
M02*
