%TF.GenerationSoftware,KiCad,Pcbnew,7.0.7*%
%TF.CreationDate,2023-09-28T15:49:41-05:00*%
%TF.ProjectId,iowa-rover-kiosk-rfid,696f7761-2d72-46f7-9665-722d6b696f73,rev?*%
%TF.SameCoordinates,Original*%
%TF.FileFunction,Copper,L2,Bot*%
%TF.FilePolarity,Positive*%
%FSLAX46Y46*%
G04 Gerber Fmt 4.6, Leading zero omitted, Abs format (unit mm)*
G04 Created by KiCad (PCBNEW 7.0.7) date 2023-09-28 15:49:41*
%MOMM*%
%LPD*%
G01*
G04 APERTURE LIST*
G04 Aperture macros list*
%AMRoundRect*
0 Rectangle with rounded corners*
0 $1 Rounding radius*
0 $2 $3 $4 $5 $6 $7 $8 $9 X,Y pos of 4 corners*
0 Add a 4 corners polygon primitive as box body*
4,1,4,$2,$3,$4,$5,$6,$7,$8,$9,$2,$3,0*
0 Add four circle primitives for the rounded corners*
1,1,$1+$1,$2,$3*
1,1,$1+$1,$4,$5*
1,1,$1+$1,$6,$7*
1,1,$1+$1,$8,$9*
0 Add four rect primitives between the rounded corners*
20,1,$1+$1,$2,$3,$4,$5,0*
20,1,$1+$1,$4,$5,$6,$7,0*
20,1,$1+$1,$6,$7,$8,$9,0*
20,1,$1+$1,$8,$9,$2,$3,0*%
G04 Aperture macros list end*
%TA.AperFunction,ComponentPad*%
%ADD10RoundRect,0.250000X-0.845000X0.620000X-0.845000X-0.620000X0.845000X-0.620000X0.845000X0.620000X0*%
%TD*%
%TA.AperFunction,ComponentPad*%
%ADD11O,2.190000X1.740000*%
%TD*%
%TA.AperFunction,ComponentPad*%
%ADD12C,1.524000*%
%TD*%
%TA.AperFunction,ComponentPad*%
%ADD13C,1.600000*%
%TD*%
%TA.AperFunction,ComponentPad*%
%ADD14O,1.600000X1.600000*%
%TD*%
%TA.AperFunction,ComponentPad*%
%ADD15R,1.800000X1.800000*%
%TD*%
%TA.AperFunction,ComponentPad*%
%ADD16C,1.800000*%
%TD*%
%TA.AperFunction,ComponentPad*%
%ADD17RoundRect,0.250000X0.845000X-0.620000X0.845000X0.620000X-0.845000X0.620000X-0.845000X-0.620000X0*%
%TD*%
%TA.AperFunction,ComponentPad*%
%ADD18R,1.600000X1.600000*%
%TD*%
%TA.AperFunction,ViaPad*%
%ADD19C,0.800000*%
%TD*%
%TA.AperFunction,Conductor*%
%ADD20C,0.500000*%
%TD*%
%TA.AperFunction,Conductor*%
%ADD21C,0.250000*%
%TD*%
G04 APERTURE END LIST*
D10*
%TO.P,J1,1,Pin_1*%
%TO.N,+5V*%
X102850000Y-50665000D03*
D11*
%TO.P,J1,2,Pin_2*%
%TO.N,GND*%
X102850000Y-53205000D03*
%TO.P,J1,3,Pin_3*%
%TO.N,/SDA*%
X102850000Y-55745000D03*
%TO.P,J1,4,Pin_4*%
%TO.N,/SCL*%
X102850000Y-58285000D03*
%TD*%
D12*
%TO.P,U1,1,GND*%
%TO.N,GND*%
X111465000Y-55665000D03*
%TO.P,U1,2,RES*%
%TO.N,+5V*%
X111465000Y-57665000D03*
%TO.P,U1,3*%
%TO.N,unconnected-(U1-Pad3)*%
X111465000Y-59665000D03*
%TO.P,U1,4*%
%TO.N,unconnected-(U1-Pad4)*%
X111465000Y-61665000D03*
%TO.P,U1,5,CP*%
%TO.N,unconnected-(U1-CP-Pad5)*%
X111465000Y-63665000D03*
%TO.P,U1,6,TIR*%
%TO.N,unconnected-(U1-TIR-Pad6)*%
X126465000Y-63665000D03*
%TO.P,U1,7,FMT*%
%TO.N,GND*%
X126465000Y-61665000D03*
%TO.P,U1,8,D1*%
%TO.N,unconnected-(U1-D1-Pad8)*%
X126465000Y-59665000D03*
%TO.P,U1,9,D0*%
%TO.N,Net-(U1-D0)*%
X126465000Y-57665000D03*
%TO.P,U1,10,READ*%
%TO.N,unconnected-(U1-READ-Pad10)*%
X126465000Y-55665000D03*
%TO.P,U1,11,PWR*%
%TO.N,+5V*%
X126465000Y-51665000D03*
%TD*%
D13*
%TO.P,R1,1*%
%TO.N,Net-(U2-XTAL1{slash}PB0)*%
X110490000Y-33020000D03*
D14*
%TO.P,R1,2*%
%TO.N,Net-(D1-A)*%
X110490000Y-43180000D03*
%TD*%
D15*
%TO.P,D1,1,K*%
%TO.N,GND*%
X106680000Y-43180000D03*
D16*
%TO.P,D1,2,A*%
%TO.N,Net-(D1-A)*%
X106680000Y-40640000D03*
%TD*%
D17*
%TO.P,J2,1,Pin_1*%
%TO.N,+5V*%
X135255000Y-58285000D03*
D11*
%TO.P,J2,2,Pin_2*%
%TO.N,GND*%
X135255000Y-55745000D03*
%TO.P,J2,3,Pin_3*%
%TO.N,/SDA*%
X135255000Y-53205000D03*
%TO.P,J2,4,Pin_4*%
%TO.N,/SCL*%
X135255000Y-50665000D03*
%TD*%
D18*
%TO.P,U2,1,VCC*%
%TO.N,+5V*%
X130815000Y-35570000D03*
D14*
%TO.P,U2,2,XTAL1/PB0*%
%TO.N,Net-(U2-XTAL1{slash}PB0)*%
X128275000Y-35570000D03*
%TO.P,U2,3,XTAL2/PB1*%
%TO.N,unconnected-(U2-XTAL2{slash}PB1-Pad3)*%
X125735000Y-35570000D03*
%TO.P,U2,4,~{RESET}/PB3*%
%TO.N,unconnected-(U2-~{RESET}{slash}PB3-Pad4)*%
X123195000Y-35570000D03*
%TO.P,U2,5,PB2*%
%TO.N,unconnected-(U2-PB2-Pad5)*%
X120655000Y-35570000D03*
%TO.P,U2,6,PA7*%
%TO.N,unconnected-(U2-PA7-Pad6)*%
X118115000Y-35570000D03*
%TO.P,U2,7,PA6*%
%TO.N,/SDA*%
X115575000Y-35570000D03*
%TO.P,U2,8,PA5*%
%TO.N,unconnected-(U2-PA5-Pad8)*%
X115575000Y-43190000D03*
%TO.P,U2,9,PA4*%
%TO.N,/SCL*%
X118115000Y-43190000D03*
%TO.P,U2,10,PA3*%
%TO.N,Net-(JP3-B)*%
X120655000Y-43190000D03*
%TO.P,U2,11,PA2*%
%TO.N,Net-(JP2-B)*%
X123195000Y-43190000D03*
%TO.P,U2,12,PA1*%
%TO.N,Net-(JP1-B)*%
X125735000Y-43190000D03*
%TO.P,U2,13,AREF/PA0*%
%TO.N,Net-(U1-D0)*%
X128275000Y-43190000D03*
%TO.P,U2,14,GND*%
%TO.N,GND*%
X130815000Y-43190000D03*
%TD*%
D19*
%TO.N,GND*%
X127000000Y-30480000D03*
%TD*%
D20*
%TO.N,GND*%
X127000000Y-30480000D02*
X127000000Y-31750000D01*
D21*
%TO.N,Net-(U2-XTAL1{slash}PB0)*%
X125725000Y-33020000D02*
X128275000Y-35570000D01*
X110490000Y-33020000D02*
X125725000Y-33020000D01*
%TO.N,Net-(U1-D0)*%
X128275000Y-43190000D02*
X128275000Y-55855000D01*
X128275000Y-55855000D02*
X126465000Y-57665000D01*
%TD*%
%TA.AperFunction,Conductor*%
%TO.N,GND*%
G36*
X101312539Y-31769685D02*
G01*
X101358294Y-31822489D01*
X101368471Y-31869274D01*
X101369076Y-31869224D01*
X101369454Y-31873790D01*
X101369500Y-31874000D01*
X101369500Y-31874334D01*
X101410429Y-32119616D01*
X101491169Y-32354802D01*
X101491172Y-32354811D01*
X101596740Y-32549883D01*
X101609526Y-32573509D01*
X101762262Y-32769744D01*
X101921744Y-32916557D01*
X101945217Y-32938166D01*
X102153393Y-33074173D01*
X102381118Y-33174063D01*
X102622175Y-33235107D01*
X102622179Y-33235108D01*
X102622181Y-33235108D01*
X102622186Y-33235109D01*
X102755376Y-33246145D01*
X102807933Y-33250500D01*
X102807935Y-33250500D01*
X102932065Y-33250500D01*
X102932067Y-33250500D01*
X102993284Y-33245427D01*
X103117813Y-33235109D01*
X103117816Y-33235108D01*
X103117821Y-33235108D01*
X103358881Y-33174063D01*
X103586607Y-33074173D01*
X103794785Y-32938164D01*
X103977738Y-32769744D01*
X104130474Y-32573509D01*
X104248828Y-32354810D01*
X104329571Y-32119614D01*
X104370500Y-31874335D01*
X104370500Y-31874000D01*
X104370539Y-31873865D01*
X104370924Y-31869224D01*
X104371879Y-31869303D01*
X104390185Y-31806961D01*
X104442989Y-31761206D01*
X104494500Y-31750000D01*
X109643117Y-31750000D01*
X109710156Y-31769685D01*
X109755911Y-31822489D01*
X109765855Y-31891647D01*
X109736830Y-31955203D01*
X109714240Y-31975575D01*
X109650858Y-32019954D01*
X109489954Y-32180858D01*
X109359432Y-32367265D01*
X109359431Y-32367267D01*
X109263261Y-32573502D01*
X109263258Y-32573511D01*
X109204366Y-32793302D01*
X109204364Y-32793313D01*
X109184532Y-33019998D01*
X109184532Y-33020001D01*
X109204364Y-33246686D01*
X109204366Y-33246697D01*
X109263258Y-33466488D01*
X109263261Y-33466497D01*
X109359431Y-33672732D01*
X109359432Y-33672734D01*
X109489954Y-33859141D01*
X109650858Y-34020045D01*
X109650861Y-34020047D01*
X109837266Y-34150568D01*
X110043504Y-34246739D01*
X110263308Y-34305635D01*
X110425230Y-34319801D01*
X110489998Y-34325468D01*
X110490000Y-34325468D01*
X110490002Y-34325468D01*
X110546672Y-34320509D01*
X110716692Y-34305635D01*
X110936496Y-34246739D01*
X111142734Y-34150568D01*
X111329139Y-34020047D01*
X111490047Y-33859139D01*
X111602612Y-33698377D01*
X111657189Y-33654752D01*
X111704188Y-33645500D01*
X125414548Y-33645500D01*
X125481587Y-33665185D01*
X125502229Y-33681819D01*
X125877591Y-34057181D01*
X125911076Y-34118504D01*
X125906092Y-34188196D01*
X125864220Y-34244129D01*
X125798756Y-34268546D01*
X125779104Y-34268390D01*
X125735003Y-34264532D01*
X125734998Y-34264532D01*
X125508313Y-34284364D01*
X125508302Y-34284366D01*
X125288511Y-34343258D01*
X125288502Y-34343261D01*
X125082267Y-34439431D01*
X125082265Y-34439432D01*
X124895858Y-34569954D01*
X124734954Y-34730858D01*
X124604432Y-34917265D01*
X124604430Y-34917268D01*
X124577380Y-34975277D01*
X124531207Y-35027715D01*
X124464013Y-35046866D01*
X124397132Y-35026649D01*
X124352619Y-34975277D01*
X124325568Y-34917266D01*
X124244855Y-34801994D01*
X124195045Y-34730858D01*
X124034141Y-34569954D01*
X123847734Y-34439432D01*
X123847732Y-34439431D01*
X123641497Y-34343261D01*
X123641488Y-34343258D01*
X123421697Y-34284366D01*
X123421693Y-34284365D01*
X123421692Y-34284365D01*
X123421691Y-34284364D01*
X123421686Y-34284364D01*
X123195002Y-34264532D01*
X123194998Y-34264532D01*
X122968313Y-34284364D01*
X122968302Y-34284366D01*
X122748511Y-34343258D01*
X122748502Y-34343261D01*
X122542267Y-34439431D01*
X122542265Y-34439432D01*
X122355858Y-34569954D01*
X122194954Y-34730858D01*
X122064432Y-34917265D01*
X122064430Y-34917268D01*
X122037380Y-34975277D01*
X121991207Y-35027715D01*
X121924013Y-35046866D01*
X121857132Y-35026649D01*
X121812619Y-34975277D01*
X121785568Y-34917266D01*
X121704855Y-34801994D01*
X121655045Y-34730858D01*
X121494141Y-34569954D01*
X121307734Y-34439432D01*
X121307732Y-34439431D01*
X121101497Y-34343261D01*
X121101488Y-34343258D01*
X120881697Y-34284366D01*
X120881693Y-34284365D01*
X120881692Y-34284365D01*
X120881691Y-34284364D01*
X120881686Y-34284364D01*
X120655002Y-34264532D01*
X120654998Y-34264532D01*
X120428313Y-34284364D01*
X120428302Y-34284366D01*
X120208511Y-34343258D01*
X120208502Y-34343261D01*
X120002267Y-34439431D01*
X120002265Y-34439432D01*
X119815858Y-34569954D01*
X119654954Y-34730858D01*
X119524432Y-34917265D01*
X119524430Y-34917268D01*
X119497380Y-34975277D01*
X119451207Y-35027715D01*
X119384013Y-35046866D01*
X119317132Y-35026649D01*
X119272619Y-34975277D01*
X119245568Y-34917266D01*
X119164855Y-34801994D01*
X119115045Y-34730858D01*
X118954141Y-34569954D01*
X118767734Y-34439432D01*
X118767732Y-34439431D01*
X118561497Y-34343261D01*
X118561488Y-34343258D01*
X118341697Y-34284366D01*
X118341693Y-34284365D01*
X118341692Y-34284365D01*
X118341691Y-34284364D01*
X118341686Y-34284364D01*
X118115002Y-34264532D01*
X118114998Y-34264532D01*
X117888313Y-34284364D01*
X117888302Y-34284366D01*
X117668511Y-34343258D01*
X117668502Y-34343261D01*
X117462267Y-34439431D01*
X117462265Y-34439432D01*
X117275858Y-34569954D01*
X117114954Y-34730858D01*
X116984432Y-34917265D01*
X116984430Y-34917268D01*
X116957380Y-34975277D01*
X116911207Y-35027715D01*
X116844013Y-35046866D01*
X116777132Y-35026649D01*
X116732619Y-34975277D01*
X116705568Y-34917266D01*
X116624855Y-34801994D01*
X116575045Y-34730858D01*
X116414141Y-34569954D01*
X116227734Y-34439432D01*
X116227732Y-34439431D01*
X116021497Y-34343261D01*
X116021488Y-34343258D01*
X115801697Y-34284366D01*
X115801693Y-34284365D01*
X115801692Y-34284365D01*
X115801691Y-34284364D01*
X115801686Y-34284364D01*
X115575002Y-34264532D01*
X115574998Y-34264532D01*
X115348313Y-34284364D01*
X115348302Y-34284366D01*
X115128511Y-34343258D01*
X115128502Y-34343261D01*
X114922267Y-34439431D01*
X114922265Y-34439432D01*
X114735858Y-34569954D01*
X114574954Y-34730858D01*
X114444432Y-34917265D01*
X114444431Y-34917267D01*
X114348261Y-35123502D01*
X114348258Y-35123511D01*
X114289366Y-35343302D01*
X114289364Y-35343313D01*
X114269532Y-35569998D01*
X114269532Y-35570001D01*
X114289364Y-35796686D01*
X114289366Y-35796697D01*
X114348258Y-36016488D01*
X114348261Y-36016497D01*
X114444431Y-36222732D01*
X114444432Y-36222734D01*
X114574954Y-36409141D01*
X114735858Y-36570045D01*
X114735861Y-36570047D01*
X114922266Y-36700568D01*
X115128504Y-36796739D01*
X115348308Y-36855635D01*
X115510230Y-36869801D01*
X115574998Y-36875468D01*
X115575000Y-36875468D01*
X115575002Y-36875468D01*
X115631807Y-36870498D01*
X115801692Y-36855635D01*
X116021496Y-36796739D01*
X116227734Y-36700568D01*
X116414139Y-36570047D01*
X116575047Y-36409139D01*
X116705568Y-36222734D01*
X116732618Y-36164724D01*
X116778790Y-36112285D01*
X116845983Y-36093133D01*
X116912865Y-36113348D01*
X116957382Y-36164725D01*
X116984429Y-36222728D01*
X116984432Y-36222734D01*
X117114954Y-36409141D01*
X117275858Y-36570045D01*
X117275861Y-36570047D01*
X117462266Y-36700568D01*
X117668504Y-36796739D01*
X117888308Y-36855635D01*
X118050230Y-36869801D01*
X118114998Y-36875468D01*
X118115000Y-36875468D01*
X118115002Y-36875468D01*
X118171807Y-36870498D01*
X118341692Y-36855635D01*
X118561496Y-36796739D01*
X118767734Y-36700568D01*
X118954139Y-36570047D01*
X119115047Y-36409139D01*
X119245568Y-36222734D01*
X119272618Y-36164724D01*
X119318790Y-36112285D01*
X119385983Y-36093133D01*
X119452865Y-36113348D01*
X119497382Y-36164725D01*
X119524429Y-36222728D01*
X119524432Y-36222734D01*
X119654954Y-36409141D01*
X119815858Y-36570045D01*
X119815861Y-36570047D01*
X120002266Y-36700568D01*
X120208504Y-36796739D01*
X120428308Y-36855635D01*
X120590230Y-36869801D01*
X120654998Y-36875468D01*
X120655000Y-36875468D01*
X120655002Y-36875468D01*
X120711807Y-36870498D01*
X120881692Y-36855635D01*
X121101496Y-36796739D01*
X121307734Y-36700568D01*
X121494139Y-36570047D01*
X121655047Y-36409139D01*
X121785568Y-36222734D01*
X121812618Y-36164724D01*
X121858790Y-36112285D01*
X121925983Y-36093133D01*
X121992865Y-36113348D01*
X122037382Y-36164725D01*
X122064429Y-36222728D01*
X122064432Y-36222734D01*
X122194954Y-36409141D01*
X122355858Y-36570045D01*
X122355861Y-36570047D01*
X122542266Y-36700568D01*
X122748504Y-36796739D01*
X122968308Y-36855635D01*
X123130230Y-36869801D01*
X123194998Y-36875468D01*
X123195000Y-36875468D01*
X123195002Y-36875468D01*
X123251807Y-36870498D01*
X123421692Y-36855635D01*
X123641496Y-36796739D01*
X123847734Y-36700568D01*
X124034139Y-36570047D01*
X124195047Y-36409139D01*
X124325568Y-36222734D01*
X124352619Y-36164721D01*
X124398788Y-36112286D01*
X124465981Y-36093133D01*
X124532862Y-36113348D01*
X124577380Y-36164722D01*
X124604432Y-36222734D01*
X124604433Y-36222735D01*
X124734954Y-36409141D01*
X124895858Y-36570045D01*
X124895861Y-36570047D01*
X125082266Y-36700568D01*
X125288504Y-36796739D01*
X125508308Y-36855635D01*
X125670230Y-36869801D01*
X125734998Y-36875468D01*
X125735000Y-36875468D01*
X125735002Y-36875468D01*
X125791807Y-36870498D01*
X125961692Y-36855635D01*
X126181496Y-36796739D01*
X126387734Y-36700568D01*
X126574139Y-36570047D01*
X126735047Y-36409139D01*
X126865568Y-36222734D01*
X126892619Y-36164721D01*
X126938788Y-36112286D01*
X127005981Y-36093133D01*
X127072862Y-36113348D01*
X127117380Y-36164722D01*
X127144432Y-36222734D01*
X127144433Y-36222735D01*
X127274954Y-36409141D01*
X127435858Y-36570045D01*
X127435861Y-36570047D01*
X127622266Y-36700568D01*
X127828504Y-36796739D01*
X128048308Y-36855635D01*
X128210230Y-36869801D01*
X128274998Y-36875468D01*
X128275000Y-36875468D01*
X128275002Y-36875468D01*
X128331807Y-36870498D01*
X128501692Y-36855635D01*
X128721496Y-36796739D01*
X128927734Y-36700568D01*
X129114139Y-36570047D01*
X129275047Y-36409139D01*
X129292271Y-36384539D01*
X129346848Y-36340913D01*
X129416346Y-36333718D01*
X129478701Y-36365239D01*
X129514116Y-36425468D01*
X129517138Y-36442406D01*
X129520908Y-36477483D01*
X129571202Y-36612328D01*
X129571206Y-36612335D01*
X129657452Y-36727544D01*
X129657455Y-36727547D01*
X129772664Y-36813793D01*
X129772671Y-36813797D01*
X129907517Y-36864091D01*
X129907516Y-36864091D01*
X129914444Y-36864835D01*
X129967127Y-36870500D01*
X131662872Y-36870499D01*
X131722483Y-36864091D01*
X131857331Y-36813796D01*
X131972546Y-36727546D01*
X132058796Y-36612331D01*
X132109091Y-36477483D01*
X132115500Y-36417873D01*
X132115499Y-34722128D01*
X132109091Y-34662517D01*
X132074567Y-34569954D01*
X132058797Y-34527671D01*
X132058793Y-34527664D01*
X131972547Y-34412455D01*
X131972544Y-34412452D01*
X131857335Y-34326206D01*
X131857328Y-34326202D01*
X131722482Y-34275908D01*
X131722483Y-34275908D01*
X131662883Y-34269501D01*
X131662881Y-34269500D01*
X131662873Y-34269500D01*
X131662864Y-34269500D01*
X129967129Y-34269500D01*
X129967123Y-34269501D01*
X129907516Y-34275908D01*
X129772671Y-34326202D01*
X129772664Y-34326206D01*
X129657455Y-34412452D01*
X129657452Y-34412455D01*
X129571206Y-34527664D01*
X129571202Y-34527671D01*
X129520908Y-34662516D01*
X129517137Y-34697596D01*
X129490398Y-34762146D01*
X129433006Y-34801994D01*
X129363180Y-34804487D01*
X129303092Y-34768834D01*
X129292273Y-34755462D01*
X129275045Y-34730858D01*
X129114141Y-34569954D01*
X128927734Y-34439432D01*
X128927732Y-34439431D01*
X128721497Y-34343261D01*
X128721488Y-34343258D01*
X128501697Y-34284366D01*
X128501693Y-34284365D01*
X128501692Y-34284365D01*
X128501691Y-34284364D01*
X128501686Y-34284364D01*
X128275002Y-34264532D01*
X128274999Y-34264532D01*
X128048313Y-34284364D01*
X128048296Y-34284367D01*
X127979949Y-34302680D01*
X127910099Y-34301016D01*
X127860177Y-34270586D01*
X126225803Y-32636212D01*
X126215980Y-32623950D01*
X126215759Y-32624134D01*
X126210786Y-32618123D01*
X126160364Y-32570773D01*
X126149919Y-32560328D01*
X126139475Y-32549883D01*
X126133986Y-32545625D01*
X126129561Y-32541847D01*
X126095582Y-32509938D01*
X126095580Y-32509936D01*
X126095577Y-32509935D01*
X126078029Y-32500288D01*
X126061763Y-32489604D01*
X126045933Y-32477325D01*
X126003168Y-32458818D01*
X125997922Y-32456248D01*
X125957093Y-32433803D01*
X125957092Y-32433802D01*
X125937693Y-32428822D01*
X125919281Y-32422518D01*
X125900898Y-32414562D01*
X125900892Y-32414560D01*
X125854874Y-32407272D01*
X125849152Y-32406087D01*
X125804021Y-32394500D01*
X125804019Y-32394500D01*
X125783984Y-32394500D01*
X125764586Y-32392973D01*
X125757162Y-32391797D01*
X125744805Y-32389840D01*
X125744804Y-32389840D01*
X125698416Y-32394225D01*
X125692578Y-32394500D01*
X111704188Y-32394500D01*
X111637149Y-32374815D01*
X111602613Y-32341623D01*
X111490045Y-32180858D01*
X111329141Y-32019954D01*
X111265760Y-31975575D01*
X111222135Y-31920999D01*
X111214941Y-31851501D01*
X111246463Y-31789146D01*
X111306693Y-31753731D01*
X111336883Y-31750000D01*
X133630500Y-31750000D01*
X133697539Y-31769685D01*
X133743294Y-31822489D01*
X133753471Y-31869274D01*
X133754076Y-31869224D01*
X133754454Y-31873790D01*
X133754500Y-31874000D01*
X133754500Y-31874334D01*
X133795429Y-32119616D01*
X133876169Y-32354802D01*
X133876172Y-32354811D01*
X133981740Y-32549883D01*
X133994526Y-32573509D01*
X134147262Y-32769744D01*
X134306744Y-32916557D01*
X134330217Y-32938166D01*
X134538393Y-33074173D01*
X134766118Y-33174063D01*
X135007175Y-33235107D01*
X135007179Y-33235108D01*
X135007181Y-33235108D01*
X135007186Y-33235109D01*
X135140376Y-33246145D01*
X135192933Y-33250500D01*
X135192935Y-33250500D01*
X135317065Y-33250500D01*
X135317067Y-33250500D01*
X135378284Y-33245427D01*
X135502813Y-33235109D01*
X135502816Y-33235108D01*
X135502821Y-33235108D01*
X135743881Y-33174063D01*
X135971607Y-33074173D01*
X136179785Y-32938164D01*
X136362738Y-32769744D01*
X136515474Y-32573509D01*
X136633828Y-32354810D01*
X136714571Y-32119614D01*
X136755500Y-31874335D01*
X136755500Y-31874000D01*
X136755539Y-31873865D01*
X136755924Y-31869224D01*
X136756879Y-31869303D01*
X136775185Y-31806961D01*
X136827989Y-31761206D01*
X136879500Y-31750000D01*
X137671000Y-31750000D01*
X137738039Y-31769685D01*
X137783794Y-31822489D01*
X137795000Y-31874000D01*
X137795000Y-72266000D01*
X137775315Y-72333039D01*
X137722511Y-72378794D01*
X137671000Y-72390000D01*
X136879500Y-72390000D01*
X136812461Y-72370315D01*
X136766706Y-72317511D01*
X136756528Y-72270725D01*
X136755924Y-72270776D01*
X136755545Y-72266209D01*
X136755500Y-72266000D01*
X136755500Y-72265665D01*
X136714570Y-72020383D01*
X136633830Y-71785197D01*
X136633827Y-71785188D01*
X136515475Y-71566493D01*
X136515474Y-71566491D01*
X136362738Y-71370256D01*
X136179785Y-71201836D01*
X136179782Y-71201833D01*
X135971606Y-71065826D01*
X135743881Y-70965936D01*
X135502824Y-70904892D01*
X135502813Y-70904890D01*
X135337548Y-70891197D01*
X135317067Y-70889500D01*
X135192933Y-70889500D01*
X135173521Y-70891108D01*
X135007186Y-70904890D01*
X135007175Y-70904892D01*
X134766118Y-70965936D01*
X134538393Y-71065826D01*
X134330217Y-71201833D01*
X134147261Y-71370257D01*
X133994524Y-71566493D01*
X133876172Y-71785188D01*
X133876169Y-71785197D01*
X133795429Y-72020383D01*
X133754500Y-72265665D01*
X133754500Y-72266000D01*
X133754460Y-72266134D01*
X133754076Y-72270776D01*
X133753120Y-72270696D01*
X133734815Y-72333039D01*
X133682011Y-72378794D01*
X133630500Y-72390000D01*
X104494500Y-72390000D01*
X104427461Y-72370315D01*
X104381706Y-72317511D01*
X104371528Y-72270725D01*
X104370924Y-72270776D01*
X104370545Y-72266209D01*
X104370500Y-72266000D01*
X104370500Y-72265665D01*
X104329570Y-72020383D01*
X104248830Y-71785197D01*
X104248827Y-71785188D01*
X104130475Y-71566493D01*
X104130474Y-71566491D01*
X103977738Y-71370256D01*
X103794785Y-71201836D01*
X103794782Y-71201833D01*
X103586606Y-71065826D01*
X103358881Y-70965936D01*
X103117824Y-70904892D01*
X103117813Y-70904890D01*
X102952548Y-70891197D01*
X102932067Y-70889500D01*
X102807933Y-70889500D01*
X102788521Y-70891108D01*
X102622186Y-70904890D01*
X102622175Y-70904892D01*
X102381118Y-70965936D01*
X102153393Y-71065826D01*
X101945217Y-71201833D01*
X101762261Y-71370257D01*
X101609524Y-71566493D01*
X101491172Y-71785188D01*
X101491169Y-71785197D01*
X101410429Y-72020383D01*
X101369500Y-72265665D01*
X101369500Y-72266000D01*
X101369460Y-72266134D01*
X101369076Y-72270776D01*
X101368120Y-72270696D01*
X101349815Y-72333039D01*
X101297011Y-72378794D01*
X101245500Y-72390000D01*
X99819500Y-72390000D01*
X99752461Y-72370315D01*
X99706706Y-72317511D01*
X99695500Y-72266000D01*
X99695500Y-63665002D01*
X110197677Y-63665002D01*
X110216929Y-63885062D01*
X110216930Y-63885070D01*
X110274104Y-64098445D01*
X110274105Y-64098447D01*
X110274106Y-64098450D01*
X110367466Y-64298662D01*
X110367468Y-64298666D01*
X110494170Y-64479615D01*
X110494175Y-64479621D01*
X110650378Y-64635824D01*
X110650384Y-64635829D01*
X110831333Y-64762531D01*
X110831335Y-64762532D01*
X110831338Y-64762534D01*
X111031550Y-64855894D01*
X111244932Y-64913070D01*
X111402123Y-64926822D01*
X111464998Y-64932323D01*
X111465000Y-64932323D01*
X111465002Y-64932323D01*
X111520016Y-64927509D01*
X111685068Y-64913070D01*
X111898450Y-64855894D01*
X112098662Y-64762534D01*
X112279620Y-64635826D01*
X112435826Y-64479620D01*
X112562534Y-64298662D01*
X112655894Y-64098450D01*
X112713070Y-63885068D01*
X112732323Y-63665000D01*
X112713070Y-63444932D01*
X112655894Y-63231550D01*
X112562534Y-63031339D01*
X112435826Y-62850380D01*
X112435824Y-62850377D01*
X112338127Y-62752680D01*
X112304642Y-62691357D01*
X112309626Y-62621665D01*
X112338123Y-62577322D01*
X112435826Y-62479620D01*
X112562534Y-62298662D01*
X112655894Y-62098450D01*
X112713070Y-61885068D01*
X112732323Y-61665000D01*
X112729532Y-61633102D01*
X112724027Y-61570177D01*
X112713070Y-61444932D01*
X112655894Y-61231550D01*
X112562534Y-61031339D01*
X112435826Y-60850380D01*
X112435824Y-60850377D01*
X112338127Y-60752680D01*
X112304642Y-60691357D01*
X112309626Y-60621665D01*
X112338123Y-60577322D01*
X112435826Y-60479620D01*
X112562534Y-60298662D01*
X112655894Y-60098450D01*
X112713070Y-59885068D01*
X112732323Y-59665000D01*
X112730194Y-59640670D01*
X112721243Y-59538353D01*
X112713070Y-59444932D01*
X112655894Y-59231550D01*
X112562534Y-59031339D01*
X112435826Y-58850380D01*
X112435824Y-58850377D01*
X112338127Y-58752680D01*
X112304642Y-58691357D01*
X112309626Y-58621665D01*
X112338123Y-58577322D01*
X112435826Y-58479620D01*
X112562534Y-58298662D01*
X112655894Y-58098450D01*
X112713070Y-57885068D01*
X112732323Y-57665000D01*
X112727948Y-57614998D01*
X112713070Y-57444937D01*
X112713070Y-57444932D01*
X112655894Y-57231550D01*
X112562534Y-57031339D01*
X112475544Y-56907103D01*
X112435827Y-56850381D01*
X112362440Y-56776994D01*
X112279620Y-56694174D01*
X112279616Y-56694171D01*
X112279615Y-56694170D01*
X112098666Y-56567468D01*
X112098662Y-56567466D01*
X111959677Y-56502656D01*
X111924401Y-56477955D01*
X111634276Y-56187829D01*
X111600791Y-56126506D01*
X111605775Y-56056814D01*
X111647647Y-56000881D01*
X111662933Y-55991097D01*
X111702251Y-55969820D01*
X111788371Y-55876269D01*
X111789083Y-55874643D01*
X111790652Y-55872777D01*
X111793992Y-55867666D01*
X111794609Y-55868069D01*
X111834036Y-55821158D01*
X111900770Y-55800464D01*
X111968099Y-55819135D01*
X111990322Y-55836769D01*
X112516740Y-56363187D01*
X112516742Y-56363186D01*
X112562093Y-56298420D01*
X112562100Y-56298408D01*
X112655419Y-56098284D01*
X112655424Y-56098270D01*
X112712573Y-55884986D01*
X112712575Y-55884976D01*
X112731821Y-55665000D01*
X112731821Y-55664999D01*
X112712575Y-55445023D01*
X112712573Y-55445013D01*
X112655424Y-55231729D01*
X112655420Y-55231720D01*
X112562098Y-55031590D01*
X112516740Y-54966811D01*
X111987949Y-55495602D01*
X111926626Y-55529087D01*
X111856934Y-55524103D01*
X111801001Y-55482231D01*
X111796460Y-55475743D01*
X111749189Y-55403391D01*
X111749187Y-55403388D01*
X111693673Y-55360180D01*
X111648843Y-55325287D01*
X111648840Y-55325285D01*
X111648488Y-55325012D01*
X111607675Y-55268301D01*
X111604000Y-55198529D01*
X111636969Y-55139477D01*
X112163187Y-54613258D01*
X112098409Y-54567900D01*
X112098407Y-54567899D01*
X111898284Y-54474580D01*
X111898270Y-54474575D01*
X111684986Y-54417426D01*
X111684976Y-54417424D01*
X111465001Y-54398179D01*
X111464999Y-54398179D01*
X111245023Y-54417424D01*
X111245013Y-54417426D01*
X111031729Y-54474575D01*
X111031720Y-54474579D01*
X110831586Y-54567903D01*
X110766812Y-54613257D01*
X110766811Y-54613258D01*
X111295723Y-55142170D01*
X111329208Y-55203493D01*
X111324224Y-55273185D01*
X111282352Y-55329118D01*
X111267059Y-55338906D01*
X111227749Y-55360179D01*
X111227748Y-55360179D01*
X111141626Y-55453733D01*
X111141626Y-55453734D01*
X111140911Y-55455365D01*
X111139340Y-55457233D01*
X111136008Y-55462334D01*
X111135391Y-55461931D01*
X111095952Y-55508849D01*
X111029215Y-55529535D01*
X110961888Y-55510857D01*
X110939677Y-55493230D01*
X110413258Y-54966811D01*
X110413257Y-54966812D01*
X110367903Y-55031586D01*
X110274579Y-55231720D01*
X110274575Y-55231729D01*
X110217426Y-55445013D01*
X110217424Y-55445023D01*
X110198179Y-55664999D01*
X110198179Y-55665000D01*
X110217424Y-55884976D01*
X110217426Y-55884986D01*
X110274575Y-56098270D01*
X110274580Y-56098284D01*
X110367899Y-56298407D01*
X110367900Y-56298409D01*
X110413258Y-56363187D01*
X110942050Y-55834395D01*
X111003373Y-55800910D01*
X111073064Y-55805894D01*
X111128998Y-55847765D01*
X111133539Y-55854254D01*
X111180813Y-55926612D01*
X111281157Y-56004713D01*
X111281160Y-56004714D01*
X111281511Y-56004987D01*
X111322324Y-56061697D01*
X111325999Y-56131470D01*
X111293030Y-56190522D01*
X111005597Y-56477955D01*
X110970322Y-56502656D01*
X110831339Y-56567465D01*
X110650377Y-56694175D01*
X110494175Y-56850377D01*
X110367466Y-57031338D01*
X110367465Y-57031340D01*
X110274107Y-57231548D01*
X110274104Y-57231554D01*
X110216930Y-57444929D01*
X110216929Y-57444937D01*
X110197677Y-57664997D01*
X110197677Y-57665002D01*
X110216929Y-57885062D01*
X110216930Y-57885070D01*
X110274104Y-58098445D01*
X110274105Y-58098447D01*
X110274106Y-58098450D01*
X110333874Y-58226624D01*
X110367466Y-58298662D01*
X110367468Y-58298666D01*
X110494170Y-58479615D01*
X110494175Y-58479621D01*
X110591872Y-58577318D01*
X110625357Y-58638641D01*
X110620373Y-58708333D01*
X110591873Y-58752680D01*
X110494172Y-58850381D01*
X110367466Y-59031338D01*
X110367465Y-59031340D01*
X110274107Y-59231548D01*
X110274104Y-59231554D01*
X110216930Y-59444929D01*
X110216929Y-59444937D01*
X110197677Y-59664997D01*
X110197677Y-59665002D01*
X110216929Y-59885062D01*
X110216930Y-59885070D01*
X110274104Y-60098445D01*
X110274105Y-60098447D01*
X110274106Y-60098450D01*
X110367466Y-60298662D01*
X110367468Y-60298666D01*
X110494170Y-60479615D01*
X110494175Y-60479621D01*
X110591872Y-60577318D01*
X110625357Y-60638641D01*
X110620373Y-60708333D01*
X110591873Y-60752680D01*
X110494172Y-60850381D01*
X110367466Y-61031338D01*
X110367465Y-61031340D01*
X110274107Y-61231548D01*
X110274104Y-61231554D01*
X110216930Y-61444929D01*
X110216929Y-61444937D01*
X110197677Y-61664997D01*
X110197677Y-61665002D01*
X110216929Y-61885062D01*
X110216930Y-61885070D01*
X110274104Y-62098445D01*
X110274105Y-62098447D01*
X110274106Y-62098450D01*
X110315784Y-62187829D01*
X110367466Y-62298662D01*
X110367468Y-62298666D01*
X110494170Y-62479615D01*
X110494175Y-62479621D01*
X110591872Y-62577318D01*
X110625357Y-62638641D01*
X110620373Y-62708333D01*
X110591873Y-62752680D01*
X110494172Y-62850381D01*
X110367466Y-63031338D01*
X110367465Y-63031340D01*
X110274107Y-63231548D01*
X110274104Y-63231554D01*
X110216930Y-63444929D01*
X110216929Y-63444937D01*
X110197677Y-63664997D01*
X110197677Y-63665002D01*
X99695500Y-63665002D01*
X99695500Y-58226624D01*
X101250784Y-58226624D01*
X101260685Y-58459700D01*
X101260686Y-58459709D01*
X101309836Y-58687766D01*
X101309837Y-58687769D01*
X101396819Y-58904231D01*
X101396821Y-58904235D01*
X101519138Y-59102891D01*
X101632372Y-59231550D01*
X101673270Y-59278019D01*
X101673273Y-59278022D01*
X101854773Y-59424573D01*
X101854779Y-59424578D01*
X102058445Y-59538353D01*
X102058448Y-59538354D01*
X102278416Y-59616073D01*
X102406725Y-59638074D01*
X102508344Y-59655499D01*
X102508353Y-59655500D01*
X103133221Y-59655500D01*
X103307446Y-59640671D01*
X103307446Y-59640670D01*
X103307453Y-59640670D01*
X103533219Y-59581885D01*
X103745802Y-59485792D01*
X103939088Y-59355153D01*
X104107516Y-59193728D01*
X104246240Y-59006161D01*
X104351270Y-58797847D01*
X104419583Y-58574780D01*
X104449216Y-58343376D01*
X104439314Y-58110293D01*
X104390164Y-57882235D01*
X104303179Y-57665765D01*
X104180862Y-57467109D01*
X104026731Y-57291982D01*
X104026729Y-57291980D01*
X104026726Y-57291977D01*
X103845226Y-57145426D01*
X103845215Y-57145419D01*
X103804897Y-57122895D01*
X103755971Y-57073015D01*
X103741779Y-57004602D01*
X103766827Y-56939376D01*
X103795931Y-56911910D01*
X103939088Y-56815153D01*
X104107516Y-56653728D01*
X104246240Y-56466161D01*
X104351270Y-56257847D01*
X104419583Y-56034780D01*
X104449216Y-55803376D01*
X104439314Y-55570293D01*
X104390164Y-55342235D01*
X104303179Y-55125765D01*
X104180862Y-54927109D01*
X104026731Y-54751982D01*
X104026729Y-54751980D01*
X104026726Y-54751977D01*
X103845226Y-54605426D01*
X103845216Y-54605419D01*
X103804408Y-54582622D01*
X103755482Y-54532742D01*
X103741290Y-54464329D01*
X103766338Y-54399104D01*
X103795447Y-54371633D01*
X103938772Y-54274763D01*
X104107139Y-54113396D01*
X104107140Y-54113395D01*
X104245810Y-53925902D01*
X104350803Y-53717661D01*
X104419093Y-53494670D01*
X104424173Y-53455000D01*
X103558616Y-53455000D01*
X103491577Y-53435315D01*
X103445822Y-53382511D01*
X103435677Y-53314815D01*
X103450134Y-53205001D01*
X103450134Y-53204998D01*
X103435677Y-53095185D01*
X103446443Y-53026150D01*
X103492823Y-52973894D01*
X103558616Y-52955000D01*
X104422576Y-52955000D01*
X104422575Y-52954999D01*
X104389683Y-52802380D01*
X104389683Y-52802379D01*
X104302732Y-52585994D01*
X104180458Y-52387407D01*
X104026383Y-52212344D01*
X103986202Y-52179900D01*
X103946410Y-52122469D01*
X103943984Y-52052642D01*
X103979694Y-51992587D01*
X104011714Y-51971034D01*
X104014321Y-51969818D01*
X104014334Y-51969814D01*
X104163656Y-51877712D01*
X104287712Y-51753656D01*
X104379814Y-51604334D01*
X104434999Y-51437797D01*
X104445500Y-51335009D01*
X104445499Y-49994992D01*
X104434999Y-49892203D01*
X104379814Y-49725666D01*
X104287712Y-49576344D01*
X104163656Y-49452288D01*
X104027189Y-49368115D01*
X104014336Y-49360187D01*
X104014331Y-49360185D01*
X104012862Y-49359698D01*
X103847797Y-49305001D01*
X103847795Y-49305000D01*
X103745010Y-49294500D01*
X101954998Y-49294500D01*
X101954981Y-49294501D01*
X101852203Y-49305000D01*
X101852200Y-49305001D01*
X101685668Y-49360185D01*
X101685663Y-49360187D01*
X101536342Y-49452289D01*
X101412289Y-49576342D01*
X101320187Y-49725663D01*
X101320185Y-49725666D01*
X101320186Y-49725666D01*
X101265001Y-49892203D01*
X101265001Y-49892204D01*
X101265000Y-49892204D01*
X101254500Y-49994983D01*
X101254500Y-51335001D01*
X101254501Y-51335018D01*
X101265000Y-51437796D01*
X101265001Y-51437799D01*
X101310043Y-51573726D01*
X101320186Y-51604334D01*
X101412288Y-51753656D01*
X101536344Y-51877712D01*
X101685666Y-51969814D01*
X101685669Y-51969815D01*
X101688419Y-51971097D01*
X101689991Y-51972481D01*
X101691813Y-51973605D01*
X101691621Y-51973916D01*
X101740861Y-52017267D01*
X101760016Y-52084460D01*
X101739803Y-52151342D01*
X101721821Y-52173004D01*
X101592860Y-52296603D01*
X101592859Y-52296604D01*
X101454189Y-52484097D01*
X101349196Y-52692338D01*
X101280906Y-52915329D01*
X101275826Y-52954999D01*
X101275827Y-52955000D01*
X102141384Y-52955000D01*
X102208423Y-52974685D01*
X102254178Y-53027489D01*
X102264323Y-53095185D01*
X102249866Y-53204998D01*
X102249866Y-53205001D01*
X102264323Y-53314815D01*
X102253557Y-53383850D01*
X102207177Y-53436106D01*
X102141384Y-53455000D01*
X101277424Y-53455000D01*
X101310316Y-53607619D01*
X101310316Y-53607620D01*
X101397267Y-53824005D01*
X101519541Y-54022592D01*
X101673617Y-54197656D01*
X101673621Y-54197660D01*
X101855054Y-54344157D01*
X101855060Y-54344162D01*
X101895565Y-54366789D01*
X101944491Y-54416669D01*
X101958684Y-54485082D01*
X101933637Y-54550308D01*
X101904529Y-54577778D01*
X101760907Y-54674850D01*
X101592483Y-54836272D01*
X101592482Y-54836273D01*
X101453762Y-55023834D01*
X101348733Y-55232147D01*
X101348730Y-55232153D01*
X101280416Y-55455223D01*
X101250784Y-55686624D01*
X101260685Y-55919700D01*
X101260686Y-55919709D01*
X101309836Y-56147766D01*
X101309837Y-56147769D01*
X101396819Y-56364231D01*
X101396821Y-56364235D01*
X101519138Y-56562891D01*
X101672954Y-56737660D01*
X101673270Y-56738019D01*
X101673273Y-56738022D01*
X101854773Y-56884573D01*
X101854775Y-56884574D01*
X101854780Y-56884578D01*
X101895102Y-56907103D01*
X101944028Y-56956983D01*
X101958220Y-57025396D01*
X101933172Y-57090622D01*
X101904065Y-57118092D01*
X101760907Y-57214850D01*
X101592483Y-57376272D01*
X101592482Y-57376273D01*
X101453762Y-57563834D01*
X101348733Y-57772147D01*
X101348730Y-57772153D01*
X101280416Y-57995223D01*
X101250784Y-58226624D01*
X99695500Y-58226624D01*
X99695500Y-40640006D01*
X105274700Y-40640006D01*
X105293864Y-40871297D01*
X105293866Y-40871308D01*
X105350842Y-41096300D01*
X105444075Y-41308848D01*
X105571018Y-41503150D01*
X105666167Y-41606510D01*
X105697089Y-41669164D01*
X105689228Y-41738590D01*
X105645081Y-41792746D01*
X105618271Y-41806674D01*
X105537911Y-41836646D01*
X105537906Y-41836649D01*
X105422812Y-41922809D01*
X105422809Y-41922812D01*
X105336649Y-42037906D01*
X105336645Y-42037913D01*
X105286403Y-42172620D01*
X105286401Y-42172627D01*
X105280000Y-42232155D01*
X105280000Y-42930000D01*
X106119997Y-42930000D01*
X106187036Y-42949685D01*
X106232791Y-43002489D01*
X106242735Y-43071647D01*
X106240888Y-43081592D01*
X106226189Y-43145992D01*
X106226189Y-43145993D01*
X106237021Y-43290532D01*
X106234920Y-43290689D01*
X106231405Y-43348139D01*
X106190110Y-43404499D01*
X106124899Y-43429587D01*
X106114784Y-43430000D01*
X105280000Y-43430000D01*
X105280000Y-44127844D01*
X105286401Y-44187372D01*
X105286403Y-44187379D01*
X105336645Y-44322086D01*
X105336649Y-44322093D01*
X105422809Y-44437187D01*
X105422812Y-44437190D01*
X105537906Y-44523350D01*
X105537913Y-44523354D01*
X105672620Y-44573596D01*
X105672627Y-44573598D01*
X105732155Y-44579999D01*
X105732172Y-44580000D01*
X106429999Y-44580000D01*
X106429999Y-43741820D01*
X106449683Y-43674781D01*
X106502487Y-43629026D01*
X106571646Y-43619082D01*
X106590544Y-43623328D01*
X106612173Y-43630000D01*
X106713723Y-43630000D01*
X106713724Y-43630000D01*
X106787519Y-43618877D01*
X106856742Y-43628350D01*
X106909857Y-43673744D01*
X106929997Y-43740648D01*
X106930000Y-43741492D01*
X106930000Y-44580000D01*
X107627828Y-44580000D01*
X107627844Y-44579999D01*
X107687372Y-44573598D01*
X107687379Y-44573596D01*
X107822086Y-44523354D01*
X107822093Y-44523350D01*
X107937187Y-44437190D01*
X107937190Y-44437187D01*
X108023350Y-44322093D01*
X108023354Y-44322086D01*
X108073596Y-44187379D01*
X108073598Y-44187372D01*
X108079999Y-44127844D01*
X108080000Y-44127827D01*
X108080000Y-43430000D01*
X107240003Y-43430000D01*
X107172964Y-43410315D01*
X107127209Y-43357511D01*
X107117265Y-43288353D01*
X107119112Y-43278408D01*
X107133810Y-43214007D01*
X107133810Y-43214006D01*
X107131262Y-43180001D01*
X109184532Y-43180001D01*
X109204364Y-43406686D01*
X109204366Y-43406697D01*
X109263258Y-43626488D01*
X109263261Y-43626497D01*
X109359431Y-43832732D01*
X109359432Y-43832734D01*
X109489954Y-44019141D01*
X109650858Y-44180045D01*
X109650861Y-44180047D01*
X109837266Y-44310568D01*
X110043504Y-44406739D01*
X110043509Y-44406740D01*
X110043511Y-44406741D01*
X110080821Y-44416738D01*
X110263308Y-44465635D01*
X110425230Y-44479801D01*
X110489998Y-44485468D01*
X110490000Y-44485468D01*
X110490002Y-44485468D01*
X110546673Y-44480509D01*
X110716692Y-44465635D01*
X110936496Y-44406739D01*
X111142734Y-44310568D01*
X111329139Y-44180047D01*
X111490047Y-44019139D01*
X111620568Y-43832734D01*
X111716739Y-43626496D01*
X111775635Y-43406692D01*
X111794593Y-43190001D01*
X114269532Y-43190001D01*
X114289364Y-43416686D01*
X114289366Y-43416697D01*
X114348258Y-43636488D01*
X114348261Y-43636497D01*
X114444431Y-43842732D01*
X114444432Y-43842734D01*
X114574954Y-44029141D01*
X114735858Y-44190045D01*
X114735861Y-44190047D01*
X114922266Y-44320568D01*
X115128504Y-44416739D01*
X115348308Y-44475635D01*
X115510230Y-44489801D01*
X115574998Y-44495468D01*
X115575000Y-44495468D01*
X115575002Y-44495468D01*
X115631673Y-44490509D01*
X115801692Y-44475635D01*
X116021496Y-44416739D01*
X116227734Y-44320568D01*
X116414139Y-44190047D01*
X116575047Y-44029139D01*
X116705568Y-43842734D01*
X116732618Y-43784724D01*
X116778790Y-43732285D01*
X116845983Y-43713133D01*
X116912865Y-43733348D01*
X116957382Y-43784725D01*
X116984429Y-43842728D01*
X116984432Y-43842734D01*
X117114954Y-44029141D01*
X117275858Y-44190045D01*
X117275861Y-44190047D01*
X117462266Y-44320568D01*
X117668504Y-44416739D01*
X117888308Y-44475635D01*
X118050230Y-44489801D01*
X118114998Y-44495468D01*
X118115000Y-44495468D01*
X118115002Y-44495468D01*
X118171672Y-44490509D01*
X118341692Y-44475635D01*
X118561496Y-44416739D01*
X118767734Y-44320568D01*
X118954139Y-44190047D01*
X119115047Y-44029139D01*
X119245568Y-43842734D01*
X119272619Y-43784721D01*
X119318788Y-43732286D01*
X119385981Y-43713133D01*
X119452862Y-43733348D01*
X119497380Y-43784722D01*
X119524432Y-43842734D01*
X119580316Y-43922546D01*
X119654954Y-44029141D01*
X119815858Y-44190045D01*
X119815861Y-44190047D01*
X120002266Y-44320568D01*
X120208504Y-44416739D01*
X120428308Y-44475635D01*
X120590230Y-44489801D01*
X120654998Y-44495468D01*
X120655000Y-44495468D01*
X120655002Y-44495468D01*
X120711673Y-44490509D01*
X120881692Y-44475635D01*
X121101496Y-44416739D01*
X121307734Y-44320568D01*
X121494139Y-44190047D01*
X121655047Y-44029139D01*
X121785568Y-43842734D01*
X121812619Y-43784721D01*
X121858788Y-43732286D01*
X121925981Y-43713133D01*
X121992862Y-43733348D01*
X122037380Y-43784722D01*
X122064432Y-43842734D01*
X122120317Y-43922546D01*
X122194954Y-44029141D01*
X122355858Y-44190045D01*
X122355861Y-44190047D01*
X122542266Y-44320568D01*
X122748504Y-44416739D01*
X122968308Y-44475635D01*
X123130230Y-44489801D01*
X123194998Y-44495468D01*
X123195000Y-44495468D01*
X123195002Y-44495468D01*
X123251672Y-44490509D01*
X123421692Y-44475635D01*
X123641496Y-44416739D01*
X123847734Y-44320568D01*
X124034139Y-44190047D01*
X124195047Y-44029139D01*
X124325568Y-43842734D01*
X124352619Y-43784721D01*
X124398788Y-43732286D01*
X124465981Y-43713133D01*
X124532862Y-43733348D01*
X124577380Y-43784722D01*
X124604432Y-43842734D01*
X124660317Y-43922546D01*
X124734954Y-44029141D01*
X124895858Y-44190045D01*
X124895861Y-44190047D01*
X125082266Y-44320568D01*
X125288504Y-44416739D01*
X125508308Y-44475635D01*
X125670230Y-44489801D01*
X125734998Y-44495468D01*
X125735000Y-44495468D01*
X125735002Y-44495468D01*
X125791673Y-44490509D01*
X125961692Y-44475635D01*
X126181496Y-44416739D01*
X126387734Y-44320568D01*
X126574139Y-44190047D01*
X126735047Y-44029139D01*
X126865568Y-43842734D01*
X126892619Y-43784721D01*
X126938788Y-43732286D01*
X127005981Y-43713133D01*
X127072862Y-43733348D01*
X127117380Y-43784722D01*
X127144432Y-43842734D01*
X127200317Y-43922546D01*
X127274954Y-44029141D01*
X127435857Y-44190044D01*
X127435860Y-44190046D01*
X127435861Y-44190047D01*
X127596623Y-44302613D01*
X127640247Y-44357187D01*
X127649499Y-44404186D01*
X127649499Y-50764690D01*
X127629814Y-50831729D01*
X127577010Y-50877484D01*
X127507852Y-50887428D01*
X127444296Y-50858403D01*
X127437818Y-50852372D01*
X127417175Y-50831729D01*
X127279620Y-50694174D01*
X127279616Y-50694171D01*
X127279615Y-50694170D01*
X127098666Y-50567468D01*
X127098662Y-50567466D01*
X127098661Y-50567465D01*
X126898450Y-50474106D01*
X126898447Y-50474105D01*
X126898445Y-50474104D01*
X126685070Y-50416930D01*
X126685062Y-50416929D01*
X126465002Y-50397677D01*
X126464998Y-50397677D01*
X126244937Y-50416929D01*
X126244929Y-50416930D01*
X126031554Y-50474104D01*
X126031548Y-50474107D01*
X125831340Y-50567465D01*
X125831338Y-50567466D01*
X125650377Y-50694175D01*
X125494175Y-50850377D01*
X125367466Y-51031338D01*
X125367465Y-51031340D01*
X125274107Y-51231548D01*
X125274104Y-51231554D01*
X125216930Y-51444929D01*
X125216929Y-51444937D01*
X125197677Y-51664997D01*
X125197677Y-51665002D01*
X125216929Y-51885062D01*
X125216930Y-51885070D01*
X125274104Y-52098445D01*
X125274105Y-52098447D01*
X125274106Y-52098450D01*
X125366352Y-52296272D01*
X125367466Y-52298662D01*
X125367468Y-52298666D01*
X125494170Y-52479615D01*
X125494175Y-52479621D01*
X125650378Y-52635824D01*
X125650384Y-52635829D01*
X125831333Y-52762531D01*
X125831335Y-52762532D01*
X125831338Y-52762534D01*
X126031550Y-52855894D01*
X126244932Y-52913070D01*
X126402123Y-52926822D01*
X126464998Y-52932323D01*
X126465000Y-52932323D01*
X126465002Y-52932323D01*
X126520016Y-52927509D01*
X126685068Y-52913070D01*
X126898450Y-52855894D01*
X127098662Y-52762534D01*
X127279620Y-52635826D01*
X127435826Y-52479620D01*
X127435830Y-52479613D01*
X127437818Y-52477626D01*
X127499142Y-52444141D01*
X127568833Y-52449125D01*
X127624767Y-52490996D01*
X127649184Y-52556461D01*
X127649500Y-52565307D01*
X127649500Y-54764691D01*
X127629815Y-54831730D01*
X127577011Y-54877485D01*
X127507853Y-54887429D01*
X127444297Y-54858404D01*
X127437819Y-54852373D01*
X127417176Y-54831730D01*
X127279620Y-54694174D01*
X127279616Y-54694171D01*
X127279615Y-54694170D01*
X127098666Y-54567468D01*
X127098662Y-54567466D01*
X127031339Y-54536073D01*
X126898450Y-54474106D01*
X126898447Y-54474105D01*
X126898445Y-54474104D01*
X126685070Y-54416930D01*
X126685062Y-54416929D01*
X126465002Y-54397677D01*
X126464998Y-54397677D01*
X126244937Y-54416929D01*
X126244929Y-54416930D01*
X126031554Y-54474104D01*
X126031548Y-54474107D01*
X125831340Y-54567465D01*
X125831338Y-54567466D01*
X125650377Y-54694175D01*
X125494175Y-54850377D01*
X125367466Y-55031338D01*
X125367465Y-55031340D01*
X125274107Y-55231548D01*
X125274104Y-55231554D01*
X125216930Y-55444929D01*
X125216929Y-55444937D01*
X125197677Y-55664997D01*
X125197677Y-55665002D01*
X125216929Y-55885062D01*
X125216930Y-55885070D01*
X125274104Y-56098445D01*
X125274105Y-56098447D01*
X125274106Y-56098450D01*
X125363589Y-56290348D01*
X125367466Y-56298662D01*
X125367468Y-56298666D01*
X125494170Y-56479615D01*
X125494175Y-56479621D01*
X125591872Y-56577318D01*
X125625357Y-56638641D01*
X125620373Y-56708333D01*
X125591873Y-56752680D01*
X125494172Y-56850381D01*
X125367466Y-57031338D01*
X125367465Y-57031340D01*
X125274107Y-57231548D01*
X125274104Y-57231554D01*
X125216930Y-57444929D01*
X125216929Y-57444937D01*
X125197677Y-57664997D01*
X125197677Y-57665002D01*
X125216929Y-57885062D01*
X125216930Y-57885070D01*
X125274104Y-58098445D01*
X125274105Y-58098447D01*
X125274106Y-58098450D01*
X125333874Y-58226624D01*
X125367466Y-58298662D01*
X125367468Y-58298666D01*
X125494170Y-58479615D01*
X125494175Y-58479621D01*
X125591872Y-58577318D01*
X125625357Y-58638641D01*
X125620373Y-58708333D01*
X125591873Y-58752680D01*
X125494172Y-58850381D01*
X125367466Y-59031338D01*
X125367465Y-59031340D01*
X125274107Y-59231548D01*
X125274104Y-59231554D01*
X125216930Y-59444929D01*
X125216929Y-59444937D01*
X125197677Y-59664997D01*
X125197677Y-59665002D01*
X125216929Y-59885062D01*
X125216930Y-59885070D01*
X125274104Y-60098445D01*
X125274105Y-60098447D01*
X125274106Y-60098450D01*
X125367466Y-60298661D01*
X125367466Y-60298662D01*
X125367468Y-60298666D01*
X125494170Y-60479615D01*
X125494174Y-60479620D01*
X125650380Y-60635826D01*
X125831338Y-60762534D01*
X125970321Y-60827342D01*
X126005596Y-60852042D01*
X126295723Y-61142170D01*
X126329208Y-61203493D01*
X126324224Y-61273185D01*
X126282352Y-61329118D01*
X126267059Y-61338906D01*
X126227749Y-61360179D01*
X126227748Y-61360179D01*
X126141626Y-61453733D01*
X126141626Y-61453734D01*
X126140911Y-61455365D01*
X126139340Y-61457233D01*
X126136008Y-61462334D01*
X126135391Y-61461931D01*
X126095952Y-61508849D01*
X126029215Y-61529535D01*
X125961888Y-61510857D01*
X125939677Y-61493230D01*
X125413258Y-60966811D01*
X125413257Y-60966812D01*
X125367903Y-61031586D01*
X125274579Y-61231720D01*
X125274575Y-61231729D01*
X125217426Y-61445013D01*
X125217424Y-61445023D01*
X125198179Y-61664999D01*
X125198179Y-61665000D01*
X125217424Y-61884976D01*
X125217426Y-61884986D01*
X125274575Y-62098270D01*
X125274580Y-62098284D01*
X125367899Y-62298407D01*
X125367900Y-62298409D01*
X125413258Y-62363187D01*
X125942050Y-61834395D01*
X126003373Y-61800910D01*
X126073064Y-61805894D01*
X126128998Y-61847765D01*
X126133539Y-61854254D01*
X126180813Y-61926612D01*
X126281157Y-62004713D01*
X126281160Y-62004714D01*
X126281511Y-62004987D01*
X126322324Y-62061697D01*
X126325999Y-62131470D01*
X126293030Y-62190522D01*
X126005597Y-62477955D01*
X125970322Y-62502656D01*
X125831339Y-62567465D01*
X125650377Y-62694175D01*
X125494175Y-62850377D01*
X125367466Y-63031338D01*
X125367465Y-63031340D01*
X125274107Y-63231548D01*
X125274104Y-63231554D01*
X125216930Y-63444929D01*
X125216929Y-63444937D01*
X125197677Y-63664997D01*
X125197677Y-63665002D01*
X125216929Y-63885062D01*
X125216930Y-63885070D01*
X125274104Y-64098445D01*
X125274105Y-64098447D01*
X125274106Y-64098450D01*
X125367466Y-64298661D01*
X125367466Y-64298662D01*
X125367468Y-64298666D01*
X125494170Y-64479615D01*
X125494175Y-64479621D01*
X125650378Y-64635824D01*
X125650384Y-64635829D01*
X125831333Y-64762531D01*
X125831335Y-64762532D01*
X125831338Y-64762534D01*
X126031550Y-64855894D01*
X126244932Y-64913070D01*
X126402123Y-64926822D01*
X126464998Y-64932323D01*
X126465000Y-64932323D01*
X126465002Y-64932323D01*
X126520016Y-64927509D01*
X126685068Y-64913070D01*
X126898450Y-64855894D01*
X127098662Y-64762534D01*
X127279620Y-64635826D01*
X127435826Y-64479620D01*
X127562534Y-64298662D01*
X127655894Y-64098450D01*
X127713070Y-63885068D01*
X127732323Y-63665000D01*
X127713070Y-63444932D01*
X127655894Y-63231550D01*
X127562534Y-63031339D01*
X127435826Y-62850380D01*
X127279620Y-62694174D01*
X127279616Y-62694171D01*
X127279615Y-62694170D01*
X127098666Y-62567468D01*
X127098662Y-62567466D01*
X126959677Y-62502656D01*
X126924401Y-62477955D01*
X126634276Y-62187829D01*
X126600791Y-62126506D01*
X126605775Y-62056814D01*
X126647647Y-62000881D01*
X126662933Y-61991097D01*
X126702251Y-61969820D01*
X126788371Y-61876269D01*
X126789083Y-61874643D01*
X126790652Y-61872777D01*
X126793992Y-61867666D01*
X126794609Y-61868069D01*
X126834036Y-61821158D01*
X126900770Y-61800464D01*
X126968099Y-61819135D01*
X126990322Y-61836769D01*
X127516740Y-62363187D01*
X127516742Y-62363186D01*
X127562093Y-62298420D01*
X127562100Y-62298408D01*
X127655419Y-62098284D01*
X127655424Y-62098270D01*
X127712573Y-61884986D01*
X127712575Y-61884976D01*
X127731821Y-61665000D01*
X127731821Y-61664999D01*
X127712575Y-61445023D01*
X127712573Y-61445013D01*
X127655424Y-61231729D01*
X127655420Y-61231720D01*
X127562098Y-61031590D01*
X127516740Y-60966811D01*
X126987949Y-61495602D01*
X126926626Y-61529087D01*
X126856934Y-61524103D01*
X126801001Y-61482231D01*
X126796460Y-61475743D01*
X126749189Y-61403391D01*
X126749186Y-61403387D01*
X126648487Y-61325010D01*
X126607674Y-61268300D01*
X126604000Y-61198527D01*
X126636969Y-61139476D01*
X126924402Y-60852042D01*
X126959671Y-60827346D01*
X127098662Y-60762534D01*
X127279620Y-60635826D01*
X127435826Y-60479620D01*
X127562534Y-60298662D01*
X127655894Y-60098450D01*
X127713070Y-59885068D01*
X127732323Y-59665000D01*
X127730194Y-59640670D01*
X127721243Y-59538353D01*
X127713070Y-59444932D01*
X127655894Y-59231550D01*
X127562534Y-59031339D01*
X127435826Y-58850380D01*
X127435824Y-58850377D01*
X127338127Y-58752680D01*
X127304642Y-58691357D01*
X127309626Y-58621665D01*
X127338123Y-58577322D01*
X127435826Y-58479620D01*
X127562534Y-58298662D01*
X127655894Y-58098450D01*
X127713070Y-57885068D01*
X127732323Y-57665000D01*
X127727948Y-57614998D01*
X127713070Y-57444937D01*
X127713070Y-57444932D01*
X127701291Y-57400976D01*
X127702955Y-57331126D01*
X127733384Y-57281204D01*
X128658786Y-56355802D01*
X128671048Y-56345980D01*
X128670865Y-56345759D01*
X128676867Y-56340792D01*
X128676877Y-56340786D01*
X128724241Y-56290348D01*
X128745120Y-56269470D01*
X128749373Y-56263986D01*
X128753150Y-56259563D01*
X128785062Y-56225582D01*
X128794714Y-56208023D01*
X128805389Y-56191772D01*
X128817674Y-56175936D01*
X128836186Y-56133152D01*
X128838742Y-56127935D01*
X128861197Y-56087092D01*
X128866180Y-56067680D01*
X128872477Y-56049291D01*
X128880438Y-56030895D01*
X128887729Y-55984853D01*
X128888906Y-55979166D01*
X128900500Y-55934019D01*
X128900499Y-55913986D01*
X128902027Y-55894583D01*
X128905159Y-55874808D01*
X128905160Y-55874804D01*
X128900773Y-55828395D01*
X128900499Y-55822599D01*
X128900499Y-53146624D01*
X133655784Y-53146624D01*
X133665685Y-53379700D01*
X133665686Y-53379709D01*
X133714836Y-53607766D01*
X133714837Y-53607769D01*
X133801819Y-53824231D01*
X133801821Y-53824235D01*
X133924138Y-54022891D01*
X134077954Y-54197660D01*
X134078270Y-54198019D01*
X134078273Y-54198022D01*
X134259773Y-54344573D01*
X134259779Y-54344578D01*
X134300590Y-54367376D01*
X134349517Y-54417256D01*
X134363709Y-54485669D01*
X134338661Y-54550895D01*
X134309553Y-54578365D01*
X134166228Y-54675235D01*
X133997860Y-54836603D01*
X133997859Y-54836604D01*
X133859189Y-55024097D01*
X133754196Y-55232338D01*
X133685906Y-55455329D01*
X133680826Y-55494999D01*
X133680827Y-55495000D01*
X134546384Y-55495000D01*
X134613423Y-55514685D01*
X134659178Y-55567489D01*
X134669323Y-55635185D01*
X134654866Y-55744998D01*
X134654866Y-55745001D01*
X134669323Y-55854815D01*
X134658557Y-55923850D01*
X134612177Y-55976106D01*
X134546384Y-55995000D01*
X133682424Y-55995000D01*
X133715316Y-56147619D01*
X133715316Y-56147620D01*
X133802267Y-56364005D01*
X133924541Y-56562592D01*
X134078617Y-56737656D01*
X134078621Y-56737660D01*
X134118796Y-56770099D01*
X134158589Y-56827529D01*
X134161016Y-56897357D01*
X134125305Y-56957411D01*
X134093300Y-56978958D01*
X134090667Y-56980185D01*
X133941342Y-57072289D01*
X133817289Y-57196342D01*
X133725187Y-57345663D01*
X133725185Y-57345666D01*
X133725186Y-57345666D01*
X133670001Y-57512203D01*
X133670001Y-57512204D01*
X133670000Y-57512204D01*
X133659500Y-57614983D01*
X133659500Y-58955001D01*
X133659501Y-58955018D01*
X133670000Y-59057796D01*
X133670001Y-59057799D01*
X133725185Y-59224331D01*
X133725187Y-59224336D01*
X133729637Y-59231550D01*
X133817288Y-59373656D01*
X133941344Y-59497712D01*
X134090666Y-59589814D01*
X134257203Y-59644999D01*
X134359991Y-59655500D01*
X136150008Y-59655499D01*
X136252797Y-59644999D01*
X136419334Y-59589814D01*
X136568656Y-59497712D01*
X136692712Y-59373656D01*
X136784814Y-59224334D01*
X136839999Y-59057797D01*
X136850500Y-58955009D01*
X136850499Y-57614992D01*
X136839999Y-57512203D01*
X136784814Y-57345666D01*
X136692712Y-57196344D01*
X136568656Y-57072288D01*
X136419334Y-56980186D01*
X136419332Y-56980185D01*
X136419330Y-56980184D01*
X136416574Y-56978899D01*
X136415000Y-56977513D01*
X136413187Y-56976395D01*
X136413378Y-56976085D01*
X136364135Y-56932727D01*
X136344983Y-56865533D01*
X136365199Y-56798652D01*
X136383179Y-56776994D01*
X136512139Y-56653396D01*
X136512140Y-56653395D01*
X136650810Y-56465902D01*
X136755803Y-56257661D01*
X136824093Y-56034670D01*
X136829173Y-55995000D01*
X135963616Y-55995000D01*
X135896577Y-55975315D01*
X135850822Y-55922511D01*
X135840677Y-55854815D01*
X135855134Y-55745001D01*
X135855134Y-55744998D01*
X135840677Y-55635185D01*
X135851443Y-55566150D01*
X135897823Y-55513894D01*
X135963616Y-55495000D01*
X136827576Y-55495000D01*
X136827575Y-55494999D01*
X136794683Y-55342380D01*
X136794683Y-55342379D01*
X136707732Y-55125994D01*
X136585458Y-54927407D01*
X136431382Y-54752343D01*
X136431378Y-54752339D01*
X136249945Y-54605842D01*
X136249935Y-54605835D01*
X136209433Y-54583209D01*
X136160507Y-54533329D01*
X136146315Y-54464916D01*
X136171363Y-54399691D01*
X136200469Y-54372222D01*
X136344088Y-54275153D01*
X136512516Y-54113728D01*
X136651240Y-53926161D01*
X136756270Y-53717847D01*
X136824583Y-53494780D01*
X136854216Y-53263376D01*
X136844314Y-53030293D01*
X136795164Y-52802235D01*
X136708179Y-52585765D01*
X136585862Y-52387109D01*
X136431731Y-52211982D01*
X136431729Y-52211980D01*
X136431726Y-52211977D01*
X136250226Y-52065426D01*
X136250215Y-52065419D01*
X136209897Y-52042895D01*
X136160971Y-51993015D01*
X136146779Y-51924602D01*
X136171827Y-51859376D01*
X136200931Y-51831910D01*
X136344088Y-51735153D01*
X136512516Y-51573728D01*
X136651240Y-51386161D01*
X136756270Y-51177847D01*
X136824583Y-50954780D01*
X136854216Y-50723376D01*
X136852975Y-50694175D01*
X136849256Y-50606624D01*
X136844314Y-50490293D01*
X136795164Y-50262235D01*
X136708179Y-50045765D01*
X136585862Y-49847109D01*
X136431731Y-49671982D01*
X136431729Y-49671980D01*
X136431726Y-49671977D01*
X136250226Y-49525426D01*
X136250220Y-49525421D01*
X136046554Y-49411646D01*
X135826591Y-49333929D01*
X135826586Y-49333927D01*
X135826584Y-49333927D01*
X135826580Y-49333926D01*
X135826579Y-49333926D01*
X135596655Y-49294500D01*
X135596647Y-49294500D01*
X134971784Y-49294500D01*
X134971779Y-49294500D01*
X134797553Y-49309328D01*
X134797551Y-49309329D01*
X134571781Y-49368114D01*
X134359197Y-49464208D01*
X134165911Y-49594847D01*
X134165909Y-49594849D01*
X133997483Y-49756272D01*
X133997482Y-49756273D01*
X133858762Y-49943834D01*
X133753733Y-50152147D01*
X133753730Y-50152153D01*
X133685416Y-50375223D01*
X133655784Y-50606624D01*
X133665685Y-50839700D01*
X133665686Y-50839709D01*
X133714836Y-51067766D01*
X133714837Y-51067769D01*
X133780650Y-51231550D01*
X133801821Y-51284235D01*
X133924138Y-51482891D01*
X134004083Y-51573726D01*
X134078270Y-51658019D01*
X134078273Y-51658022D01*
X134259773Y-51804573D01*
X134259775Y-51804574D01*
X134259780Y-51804578D01*
X134300102Y-51827103D01*
X134349028Y-51876983D01*
X134363220Y-51945396D01*
X134338172Y-52010622D01*
X134309065Y-52038092D01*
X134165907Y-52134850D01*
X133997483Y-52296272D01*
X133997482Y-52296273D01*
X133858762Y-52483834D01*
X133753733Y-52692147D01*
X133753730Y-52692153D01*
X133685416Y-52915223D01*
X133655784Y-53146624D01*
X128900499Y-53146624D01*
X128900499Y-44404188D01*
X128920184Y-44337150D01*
X128953376Y-44302614D01*
X129030907Y-44248325D01*
X129114139Y-44190047D01*
X129275047Y-44029139D01*
X129405568Y-43842734D01*
X129432895Y-43784129D01*
X129479064Y-43731695D01*
X129546257Y-43712542D01*
X129613139Y-43732757D01*
X129657657Y-43784133D01*
X129684865Y-43842482D01*
X129815342Y-44028820D01*
X129976179Y-44189657D01*
X130162517Y-44320134D01*
X130368673Y-44416265D01*
X130368682Y-44416269D01*
X130564999Y-44468872D01*
X130565000Y-44468871D01*
X130565000Y-43700575D01*
X130584685Y-43633536D01*
X130637489Y-43587781D01*
X130706647Y-43577837D01*
X130708331Y-43578091D01*
X130740699Y-43583218D01*
X130783515Y-43590000D01*
X130783519Y-43590000D01*
X130846485Y-43590000D01*
X130883960Y-43584064D01*
X130921602Y-43578102D01*
X130990893Y-43587056D01*
X131044346Y-43632052D01*
X131064986Y-43698803D01*
X131064999Y-43700575D01*
X131064999Y-44468872D01*
X131261317Y-44416269D01*
X131261326Y-44416265D01*
X131467482Y-44320134D01*
X131653820Y-44189657D01*
X131814657Y-44028820D01*
X131945134Y-43842482D01*
X132041265Y-43636326D01*
X132041269Y-43636317D01*
X132093872Y-43440000D01*
X131325576Y-43440000D01*
X131258537Y-43420315D01*
X131212782Y-43367511D01*
X131202838Y-43298353D01*
X131203103Y-43296603D01*
X131219986Y-43190003D01*
X131219986Y-43189996D01*
X131203103Y-43083397D01*
X131212058Y-43014104D01*
X131257054Y-42960652D01*
X131323806Y-42940013D01*
X131325576Y-42940000D01*
X132093872Y-42940000D01*
X132093872Y-42939999D01*
X132041269Y-42743682D01*
X132041265Y-42743673D01*
X131945134Y-42537517D01*
X131814657Y-42351179D01*
X131653820Y-42190342D01*
X131467482Y-42059865D01*
X131261328Y-41963734D01*
X131064999Y-41911127D01*
X131064999Y-42679424D01*
X131045314Y-42746463D01*
X130992510Y-42792218D01*
X130923352Y-42802162D01*
X130921601Y-42801897D01*
X130846486Y-42790000D01*
X130846481Y-42790000D01*
X130783519Y-42790000D01*
X130783514Y-42790000D01*
X130708398Y-42801897D01*
X130639104Y-42792942D01*
X130585652Y-42747946D01*
X130565013Y-42681194D01*
X130565000Y-42679424D01*
X130564999Y-41911127D01*
X130368671Y-41963734D01*
X130162517Y-42059865D01*
X129976179Y-42190342D01*
X129815342Y-42351179D01*
X129684867Y-42537515D01*
X129657657Y-42595867D01*
X129611484Y-42648306D01*
X129544290Y-42667457D01*
X129477409Y-42647241D01*
X129432893Y-42595865D01*
X129432617Y-42595274D01*
X129405568Y-42537266D01*
X129275047Y-42350861D01*
X129275045Y-42350858D01*
X129114141Y-42189954D01*
X128927734Y-42059432D01*
X128927732Y-42059431D01*
X128721497Y-41963261D01*
X128721488Y-41963258D01*
X128501697Y-41904366D01*
X128501693Y-41904365D01*
X128501692Y-41904365D01*
X128501691Y-41904364D01*
X128501686Y-41904364D01*
X128275002Y-41884532D01*
X128274998Y-41884532D01*
X128048313Y-41904364D01*
X128048302Y-41904366D01*
X127828511Y-41963258D01*
X127828502Y-41963261D01*
X127622267Y-42059431D01*
X127622265Y-42059432D01*
X127435858Y-42189954D01*
X127274954Y-42350858D01*
X127144432Y-42537265D01*
X127144430Y-42537268D01*
X127117380Y-42595277D01*
X127071207Y-42647715D01*
X127004013Y-42666866D01*
X126937132Y-42646649D01*
X126892619Y-42595277D01*
X126865568Y-42537266D01*
X126735047Y-42350861D01*
X126735045Y-42350858D01*
X126574141Y-42189954D01*
X126387734Y-42059432D01*
X126387732Y-42059431D01*
X126181497Y-41963261D01*
X126181488Y-41963258D01*
X125961697Y-41904366D01*
X125961693Y-41904365D01*
X125961692Y-41904365D01*
X125961691Y-41904364D01*
X125961686Y-41904364D01*
X125735002Y-41884532D01*
X125734998Y-41884532D01*
X125508313Y-41904364D01*
X125508302Y-41904366D01*
X125288511Y-41963258D01*
X125288502Y-41963261D01*
X125082267Y-42059431D01*
X125082265Y-42059432D01*
X124895858Y-42189954D01*
X124734954Y-42350858D01*
X124604432Y-42537265D01*
X124604431Y-42537267D01*
X124577382Y-42595275D01*
X124531209Y-42647714D01*
X124464016Y-42666866D01*
X124397135Y-42646650D01*
X124352618Y-42595275D01*
X124325570Y-42537271D01*
X124325568Y-42537266D01*
X124195047Y-42350861D01*
X124195045Y-42350858D01*
X124034141Y-42189954D01*
X123847734Y-42059432D01*
X123847732Y-42059431D01*
X123641497Y-41963261D01*
X123641488Y-41963258D01*
X123421697Y-41904366D01*
X123421693Y-41904365D01*
X123421692Y-41904365D01*
X123421691Y-41904364D01*
X123421686Y-41904364D01*
X123195002Y-41884532D01*
X123194998Y-41884532D01*
X122968313Y-41904364D01*
X122968302Y-41904366D01*
X122748511Y-41963258D01*
X122748502Y-41963261D01*
X122542267Y-42059431D01*
X122542265Y-42059432D01*
X122355858Y-42189954D01*
X122194954Y-42350858D01*
X122064432Y-42537265D01*
X122064431Y-42537267D01*
X122037382Y-42595275D01*
X121991209Y-42647714D01*
X121924016Y-42666866D01*
X121857135Y-42646650D01*
X121812618Y-42595275D01*
X121785570Y-42537271D01*
X121785568Y-42537266D01*
X121655047Y-42350861D01*
X121655045Y-42350858D01*
X121494141Y-42189954D01*
X121307734Y-42059432D01*
X121307732Y-42059431D01*
X121101497Y-41963261D01*
X121101488Y-41963258D01*
X120881697Y-41904366D01*
X120881693Y-41904365D01*
X120881692Y-41904365D01*
X120881691Y-41904364D01*
X120881686Y-41904364D01*
X120655002Y-41884532D01*
X120654998Y-41884532D01*
X120428313Y-41904364D01*
X120428302Y-41904366D01*
X120208511Y-41963258D01*
X120208502Y-41963261D01*
X120002267Y-42059431D01*
X120002265Y-42059432D01*
X119815858Y-42189954D01*
X119654954Y-42350858D01*
X119524432Y-42537265D01*
X119524431Y-42537267D01*
X119497382Y-42595275D01*
X119451209Y-42647714D01*
X119384016Y-42666866D01*
X119317135Y-42646650D01*
X119272618Y-42595275D01*
X119245570Y-42537271D01*
X119245568Y-42537266D01*
X119115047Y-42350861D01*
X119115045Y-42350858D01*
X118954141Y-42189954D01*
X118767734Y-42059432D01*
X118767732Y-42059431D01*
X118561497Y-41963261D01*
X118561488Y-41963258D01*
X118341697Y-41904366D01*
X118341693Y-41904365D01*
X118341692Y-41904365D01*
X118341691Y-41904364D01*
X118341686Y-41904364D01*
X118115002Y-41884532D01*
X118114998Y-41884532D01*
X117888313Y-41904364D01*
X117888302Y-41904366D01*
X117668511Y-41963258D01*
X117668502Y-41963261D01*
X117462267Y-42059431D01*
X117462265Y-42059432D01*
X117275858Y-42189954D01*
X117114954Y-42350858D01*
X116984432Y-42537265D01*
X116984431Y-42537267D01*
X116957382Y-42595275D01*
X116911209Y-42647714D01*
X116844016Y-42666866D01*
X116777135Y-42646650D01*
X116732618Y-42595275D01*
X116705570Y-42537271D01*
X116705568Y-42537266D01*
X116575047Y-42350861D01*
X116575045Y-42350858D01*
X116414141Y-42189954D01*
X116227734Y-42059432D01*
X116227732Y-42059431D01*
X116021497Y-41963261D01*
X116021488Y-41963258D01*
X115801697Y-41904366D01*
X115801693Y-41904365D01*
X115801692Y-41904365D01*
X115801691Y-41904364D01*
X115801686Y-41904364D01*
X115575002Y-41884532D01*
X115574998Y-41884532D01*
X115348313Y-41904364D01*
X115348302Y-41904366D01*
X115128511Y-41963258D01*
X115128502Y-41963261D01*
X114922267Y-42059431D01*
X114922265Y-42059432D01*
X114735858Y-42189954D01*
X114574954Y-42350858D01*
X114444432Y-42537265D01*
X114444431Y-42537267D01*
X114348261Y-42743502D01*
X114348258Y-42743511D01*
X114289366Y-42963302D01*
X114289364Y-42963313D01*
X114269532Y-43189998D01*
X114269532Y-43190001D01*
X111794593Y-43190001D01*
X111794593Y-43189998D01*
X111795468Y-43180001D01*
X111795468Y-43179998D01*
X111780922Y-43013740D01*
X111775635Y-42953308D01*
X111719420Y-42743511D01*
X111716741Y-42733511D01*
X111716738Y-42733502D01*
X111691521Y-42679424D01*
X111620568Y-42527266D01*
X111490047Y-42340861D01*
X111490045Y-42340858D01*
X111329141Y-42179954D01*
X111142734Y-42049432D01*
X111142732Y-42049431D01*
X110936497Y-41953261D01*
X110936488Y-41953258D01*
X110716697Y-41894366D01*
X110716693Y-41894365D01*
X110716692Y-41894365D01*
X110716691Y-41894364D01*
X110716686Y-41894364D01*
X110490002Y-41874532D01*
X110489998Y-41874532D01*
X110263313Y-41894364D01*
X110263302Y-41894366D01*
X110043511Y-41953258D01*
X110043502Y-41953261D01*
X109837267Y-42049431D01*
X109837265Y-42049432D01*
X109650858Y-42179954D01*
X109489954Y-42340858D01*
X109359432Y-42527265D01*
X109359431Y-42527267D01*
X109263261Y-42733502D01*
X109263258Y-42733511D01*
X109204366Y-42953302D01*
X109204364Y-42953313D01*
X109184532Y-43179998D01*
X109184532Y-43180001D01*
X107131262Y-43180001D01*
X107122979Y-43069468D01*
X107125079Y-43069310D01*
X107128595Y-43011861D01*
X107169890Y-42955501D01*
X107235101Y-42930413D01*
X107245216Y-42930000D01*
X108080000Y-42930000D01*
X108080000Y-42232172D01*
X108079999Y-42232155D01*
X108073598Y-42172627D01*
X108073596Y-42172620D01*
X108023354Y-42037913D01*
X108023350Y-42037906D01*
X107937190Y-41922812D01*
X107937187Y-41922809D01*
X107822093Y-41836649D01*
X107822086Y-41836645D01*
X107741729Y-41806674D01*
X107685795Y-41764803D01*
X107661378Y-41699338D01*
X107676230Y-41631065D01*
X107693826Y-41606516D01*
X107788979Y-41503153D01*
X107915924Y-41308849D01*
X108009157Y-41096300D01*
X108066134Y-40871305D01*
X108085300Y-40640000D01*
X108085300Y-40639993D01*
X108066135Y-40408702D01*
X108066133Y-40408691D01*
X108009157Y-40183699D01*
X107915924Y-39971151D01*
X107788983Y-39776852D01*
X107788980Y-39776849D01*
X107788979Y-39776847D01*
X107631784Y-39606087D01*
X107631779Y-39606083D01*
X107631777Y-39606081D01*
X107448634Y-39463535D01*
X107448628Y-39463531D01*
X107244504Y-39353064D01*
X107244495Y-39353061D01*
X107024984Y-39277702D01*
X106853282Y-39249050D01*
X106796049Y-39239500D01*
X106563951Y-39239500D01*
X106518164Y-39247140D01*
X106335015Y-39277702D01*
X106115504Y-39353061D01*
X106115495Y-39353064D01*
X105911371Y-39463531D01*
X105911365Y-39463535D01*
X105728222Y-39606081D01*
X105728219Y-39606084D01*
X105571016Y-39776852D01*
X105444075Y-39971151D01*
X105350842Y-40183699D01*
X105293866Y-40408691D01*
X105293864Y-40408702D01*
X105274700Y-40639993D01*
X105274700Y-40640006D01*
X99695500Y-40640006D01*
X99695500Y-31874000D01*
X99715185Y-31806961D01*
X99767989Y-31761206D01*
X99819500Y-31750000D01*
X101245500Y-31750000D01*
X101312539Y-31769685D01*
G37*
%TD.AperFunction*%
%TD*%
M02*
