%TF.GenerationSoftware,KiCad,Pcbnew,7.0.7*%
%TF.CreationDate,2023-09-28T15:49:41-05:00*%
%TF.ProjectId,iowa-rover-kiosk-rfid,696f7761-2d72-46f7-9665-722d6b696f73,rev?*%
%TF.SameCoordinates,Original*%
%TF.FileFunction,Copper,L1,Top*%
%TF.FilePolarity,Positive*%
%FSLAX46Y46*%
G04 Gerber Fmt 4.6, Leading zero omitted, Abs format (unit mm)*
G04 Created by KiCad (PCBNEW 7.0.7) date 2023-09-28 15:49:41*
%MOMM*%
%LPD*%
G01*
G04 APERTURE LIST*
G04 Aperture macros list*
%AMRoundRect*
0 Rectangle with rounded corners*
0 $1 Rounding radius*
0 $2 $3 $4 $5 $6 $7 $8 $9 X,Y pos of 4 corners*
0 Add a 4 corners polygon primitive as box body*
4,1,4,$2,$3,$4,$5,$6,$7,$8,$9,$2,$3,0*
0 Add four circle primitives for the rounded corners*
1,1,$1+$1,$2,$3*
1,1,$1+$1,$4,$5*
1,1,$1+$1,$6,$7*
1,1,$1+$1,$8,$9*
0 Add four rect primitives between the rounded corners*
20,1,$1+$1,$2,$3,$4,$5,0*
20,1,$1+$1,$4,$5,$6,$7,0*
20,1,$1+$1,$6,$7,$8,$9,0*
20,1,$1+$1,$8,$9,$2,$3,0*%
%AMFreePoly0*
4,1,19,0.500000,-0.750000,0.000000,-0.750000,0.000000,-0.744911,-0.071157,-0.744911,-0.207708,-0.704816,-0.327430,-0.627875,-0.420627,-0.520320,-0.479746,-0.390866,-0.500000,-0.250000,-0.500000,0.250000,-0.479746,0.390866,-0.420627,0.520320,-0.327430,0.627875,-0.207708,0.704816,-0.071157,0.744911,0.000000,0.744911,0.000000,0.750000,0.500000,0.750000,0.500000,-0.750000,0.500000,-0.750000,
$1*%
%AMFreePoly1*
4,1,19,0.000000,0.744911,0.071157,0.744911,0.207708,0.704816,0.327430,0.627875,0.420627,0.520320,0.479746,0.390866,0.500000,0.250000,0.500000,-0.250000,0.479746,-0.390866,0.420627,-0.520320,0.327430,-0.627875,0.207708,-0.704816,0.071157,-0.744911,0.000000,-0.744911,0.000000,-0.750000,-0.500000,-0.750000,-0.500000,0.750000,0.000000,0.750000,0.000000,0.744911,0.000000,0.744911,
$1*%
G04 Aperture macros list end*
%TA.AperFunction,ComponentPad*%
%ADD10RoundRect,0.250000X-0.845000X0.620000X-0.845000X-0.620000X0.845000X-0.620000X0.845000X0.620000X0*%
%TD*%
%TA.AperFunction,ComponentPad*%
%ADD11O,2.190000X1.740000*%
%TD*%
%TA.AperFunction,ComponentPad*%
%ADD12C,1.524000*%
%TD*%
%TA.AperFunction,SMDPad,CuDef*%
%ADD13FreePoly0,270.000000*%
%TD*%
%TA.AperFunction,SMDPad,CuDef*%
%ADD14FreePoly1,270.000000*%
%TD*%
%TA.AperFunction,ComponentPad*%
%ADD15C,1.600000*%
%TD*%
%TA.AperFunction,ComponentPad*%
%ADD16O,1.600000X1.600000*%
%TD*%
%TA.AperFunction,ComponentPad*%
%ADD17R,1.800000X1.800000*%
%TD*%
%TA.AperFunction,ComponentPad*%
%ADD18C,1.800000*%
%TD*%
%TA.AperFunction,ComponentPad*%
%ADD19RoundRect,0.250000X0.845000X-0.620000X0.845000X0.620000X-0.845000X0.620000X-0.845000X-0.620000X0*%
%TD*%
%TA.AperFunction,ComponentPad*%
%ADD20R,1.600000X1.600000*%
%TD*%
%TA.AperFunction,ViaPad*%
%ADD21C,0.800000*%
%TD*%
%TA.AperFunction,Conductor*%
%ADD22C,0.500000*%
%TD*%
%TA.AperFunction,Conductor*%
%ADD23C,0.250000*%
%TD*%
G04 APERTURE END LIST*
%TA.AperFunction,EtchedComponent*%
%TO.C,JP3*%
G36*
X121845000Y-32620000D02*
G01*
X121245000Y-32620000D01*
X121245000Y-32120000D01*
X121845000Y-32120000D01*
X121845000Y-32620000D01*
G37*
%TD.AperFunction*%
%TA.AperFunction,EtchedComponent*%
%TO.C,JP1*%
G36*
X128945000Y-32620000D02*
G01*
X128345000Y-32620000D01*
X128345000Y-32120000D01*
X128945000Y-32120000D01*
X128945000Y-32620000D01*
G37*
%TD.AperFunction*%
%TA.AperFunction,EtchedComponent*%
%TO.C,JP2*%
G36*
X125395000Y-32620000D02*
G01*
X124795000Y-32620000D01*
X124795000Y-32120000D01*
X125395000Y-32120000D01*
X125395000Y-32620000D01*
G37*
%TD.AperFunction*%
%TD*%
D10*
%TO.P,J1,1,Pin_1*%
%TO.N,+5V*%
X102850000Y-50665000D03*
D11*
%TO.P,J1,2,Pin_2*%
%TO.N,GND*%
X102850000Y-53205000D03*
%TO.P,J1,3,Pin_3*%
%TO.N,/SDA*%
X102850000Y-55745000D03*
%TO.P,J1,4,Pin_4*%
%TO.N,/SCL*%
X102850000Y-58285000D03*
%TD*%
D12*
%TO.P,U1,1,GND*%
%TO.N,GND*%
X111465000Y-55665000D03*
%TO.P,U1,2,RES*%
%TO.N,+5V*%
X111465000Y-57665000D03*
%TO.P,U1,3*%
%TO.N,unconnected-(U1-Pad3)*%
X111465000Y-59665000D03*
%TO.P,U1,4*%
%TO.N,unconnected-(U1-Pad4)*%
X111465000Y-61665000D03*
%TO.P,U1,5,CP*%
%TO.N,unconnected-(U1-CP-Pad5)*%
X111465000Y-63665000D03*
%TO.P,U1,6,TIR*%
%TO.N,unconnected-(U1-TIR-Pad6)*%
X126465000Y-63665000D03*
%TO.P,U1,7,FMT*%
%TO.N,GND*%
X126465000Y-61665000D03*
%TO.P,U1,8,D1*%
%TO.N,unconnected-(U1-D1-Pad8)*%
X126465000Y-59665000D03*
%TO.P,U1,9,D0*%
%TO.N,Net-(U1-D0)*%
X126465000Y-57665000D03*
%TO.P,U1,10,READ*%
%TO.N,unconnected-(U1-READ-Pad10)*%
X126465000Y-55665000D03*
%TO.P,U1,11,PWR*%
%TO.N,+5V*%
X126465000Y-51665000D03*
%TD*%
D13*
%TO.P,JP3,1,A*%
%TO.N,GND*%
X121545000Y-31720000D03*
D14*
%TO.P,JP3,2,B*%
%TO.N,Net-(JP3-B)*%
X121545000Y-33020000D03*
%TD*%
D15*
%TO.P,R1,1*%
%TO.N,Net-(U2-XTAL1{slash}PB0)*%
X110490000Y-33020000D03*
D16*
%TO.P,R1,2*%
%TO.N,Net-(D1-A)*%
X110490000Y-43180000D03*
%TD*%
D17*
%TO.P,D1,1,K*%
%TO.N,GND*%
X106680000Y-43180000D03*
D18*
%TO.P,D1,2,A*%
%TO.N,Net-(D1-A)*%
X106680000Y-40640000D03*
%TD*%
D13*
%TO.P,JP1,1,A*%
%TO.N,GND*%
X128645000Y-31720000D03*
D14*
%TO.P,JP1,2,B*%
%TO.N,Net-(JP1-B)*%
X128645000Y-33020000D03*
%TD*%
D13*
%TO.P,JP2,1,A*%
%TO.N,GND*%
X125095000Y-31720000D03*
D14*
%TO.P,JP2,2,B*%
%TO.N,Net-(JP2-B)*%
X125095000Y-33020000D03*
%TD*%
D19*
%TO.P,J2,1,Pin_1*%
%TO.N,+5V*%
X135255000Y-58285000D03*
D11*
%TO.P,J2,2,Pin_2*%
%TO.N,GND*%
X135255000Y-55745000D03*
%TO.P,J2,3,Pin_3*%
%TO.N,/SDA*%
X135255000Y-53205000D03*
%TO.P,J2,4,Pin_4*%
%TO.N,/SCL*%
X135255000Y-50665000D03*
%TD*%
D20*
%TO.P,U2,1,VCC*%
%TO.N,+5V*%
X130815000Y-35570000D03*
D16*
%TO.P,U2,2,XTAL1/PB0*%
%TO.N,Net-(U2-XTAL1{slash}PB0)*%
X128275000Y-35570000D03*
%TO.P,U2,3,XTAL2/PB1*%
%TO.N,unconnected-(U2-XTAL2{slash}PB1-Pad3)*%
X125735000Y-35570000D03*
%TO.P,U2,4,~{RESET}/PB3*%
%TO.N,unconnected-(U2-~{RESET}{slash}PB3-Pad4)*%
X123195000Y-35570000D03*
%TO.P,U2,5,PB2*%
%TO.N,unconnected-(U2-PB2-Pad5)*%
X120655000Y-35570000D03*
%TO.P,U2,6,PA7*%
%TO.N,unconnected-(U2-PA7-Pad6)*%
X118115000Y-35570000D03*
%TO.P,U2,7,PA6*%
%TO.N,/SDA*%
X115575000Y-35570000D03*
%TO.P,U2,8,PA5*%
%TO.N,unconnected-(U2-PA5-Pad8)*%
X115575000Y-43190000D03*
%TO.P,U2,9,PA4*%
%TO.N,/SCL*%
X118115000Y-43190000D03*
%TO.P,U2,10,PA3*%
%TO.N,Net-(JP3-B)*%
X120655000Y-43190000D03*
%TO.P,U2,11,PA2*%
%TO.N,Net-(JP2-B)*%
X123195000Y-43190000D03*
%TO.P,U2,12,PA1*%
%TO.N,Net-(JP1-B)*%
X125735000Y-43190000D03*
%TO.P,U2,13,AREF/PA0*%
%TO.N,Net-(U1-D0)*%
X128275000Y-43190000D03*
%TO.P,U2,14,GND*%
%TO.N,GND*%
X130815000Y-43190000D03*
%TD*%
D21*
%TO.N,GND*%
X127000000Y-30480000D03*
%TD*%
D22*
%TO.N,GND*%
X121545000Y-31720000D02*
X121545000Y-31490000D01*
X127405000Y-30480000D02*
X128645000Y-31720000D01*
X123855000Y-30480000D02*
X125095000Y-31720000D01*
X127000000Y-30480000D02*
X127405000Y-30480000D01*
X125095000Y-31720000D02*
X126335000Y-30480000D01*
X126335000Y-30480000D02*
X127000000Y-30480000D01*
X122555000Y-30480000D02*
X123855000Y-30480000D01*
X121545000Y-31490000D02*
X122555000Y-30480000D01*
D23*
%TO.N,Net-(D1-A)*%
X110490000Y-43180000D02*
X109220000Y-43180000D01*
X109220000Y-43180000D02*
X106680000Y-40640000D01*
D22*
%TO.N,+5V*%
X137250000Y-56290000D02*
X135255000Y-58285000D01*
X120465000Y-57665000D02*
X126465000Y-51665000D01*
X100855000Y-58945000D02*
X101515000Y-59605000D01*
X101515000Y-59605000D02*
X109525000Y-59605000D01*
X128635000Y-51665000D02*
X135255000Y-58285000D01*
X126465000Y-51665000D02*
X128635000Y-51665000D01*
X137250000Y-42005000D02*
X137250000Y-56290000D01*
X130815000Y-35570000D02*
X137250000Y-42005000D01*
X100855000Y-52660000D02*
X100855000Y-58945000D01*
X109525000Y-59605000D02*
X111465000Y-57665000D01*
X111465000Y-57665000D02*
X120465000Y-57665000D01*
X102850000Y-50665000D02*
X100855000Y-52660000D01*
D23*
%TO.N,/SDA*%
X104270000Y-50990991D02*
X104270000Y-54325000D01*
X115575000Y-35570000D02*
X115575000Y-39685991D01*
X104270000Y-54325000D02*
X102850000Y-55745000D01*
X136675000Y-51785000D02*
X135255000Y-53205000D01*
X115575000Y-35570000D02*
X119240000Y-39235000D01*
X119240000Y-43678604D02*
X125031396Y-49470000D01*
X125031396Y-49470000D02*
X135974985Y-49470000D01*
X136675000Y-50170015D02*
X136675000Y-51785000D01*
X135974985Y-49470000D02*
X136675000Y-50170015D01*
X119240000Y-39235000D02*
X119240000Y-43678604D01*
X115575000Y-39685991D02*
X104270000Y-50990991D01*
%TO.N,/SCL*%
X118115000Y-43190000D02*
X103020000Y-58285000D01*
X135168000Y-50578000D02*
X135255000Y-50665000D01*
X125503000Y-50578000D02*
X135168000Y-50578000D01*
X103020000Y-58285000D02*
X102850000Y-58285000D01*
X118115000Y-43190000D02*
X125503000Y-50578000D01*
%TO.N,Net-(JP1-B)*%
X126860000Y-34805000D02*
X126860000Y-42065000D01*
X126860000Y-42065000D02*
X125735000Y-43190000D01*
X128645000Y-33020000D02*
X126860000Y-34805000D01*
%TO.N,Net-(JP2-B)*%
X125095000Y-33020000D02*
X124610000Y-33505000D01*
X124610000Y-41775000D02*
X123195000Y-43190000D01*
X124610000Y-33505000D02*
X124610000Y-41775000D01*
%TO.N,Net-(JP3-B)*%
X121780000Y-33255000D02*
X121780000Y-42065000D01*
X121780000Y-42065000D02*
X120655000Y-43190000D01*
X121545000Y-33020000D02*
X121780000Y-33255000D01*
%TD*%
M02*
