%TF.GenerationSoftware,KiCad,Pcbnew,7.0.7*%
%TF.CreationDate,2023-09-28T15:49:43-05:00*%
%TF.ProjectId,iowa-rover-kiosk-rfid,696f7761-2d72-46f7-9665-722d6b696f73,rev?*%
%TF.SameCoordinates,Original*%
%TF.FileFunction,Drillmap*%
%TF.FilePolarity,Positive*%
%FSLAX45Y45*%
G04 Gerber Fmt 4.5, Leading zero omitted, Abs format (unit mm)*
G04 Created by KiCad (PCBNEW 7.0.7) date 2023-09-28 15:49:43*
%MOMM*%
%LPD*%
G01*
G04 APERTURE LIST*
%ADD10C,0.100000*%
%ADD11C,0.200000*%
%ADD12C,0.250000*%
G04 APERTURE END LIST*
D10*
X10287000Y-2857500D02*
G75*
G03*
X9969500Y-3175000I0J-317500D01*
G01*
X10287000Y-2857500D02*
X13525500Y-2857500D01*
X13525500Y-7556500D02*
X10287000Y-7556500D01*
X13843000Y-3175000D02*
G75*
G03*
X13525500Y-2857500I-317500J0D01*
G01*
X13843000Y-3175000D02*
X13843000Y-7239000D01*
X9969500Y-7239000D02*
G75*
G03*
X10287000Y-7556500I317500J0D01*
G01*
X13525500Y-7556500D02*
G75*
G03*
X13843000Y-7239000I0J317500D01*
G01*
X9969500Y-7239000D02*
X9969500Y-3175000D01*
D11*
D12*
X10162000Y-3050000D02*
X10412000Y-3300000D01*
X10412000Y-3050000D02*
X10162000Y-3300000D01*
X10162000Y-7114000D02*
X10412000Y-7364000D01*
X10412000Y-7114000D02*
X10162000Y-7364000D01*
X13400500Y-3050000D02*
X13650500Y-3300000D01*
X13650500Y-3050000D02*
X13400500Y-3300000D01*
X13400500Y-7114000D02*
X13650500Y-7364000D01*
X13650500Y-7114000D02*
X13400500Y-7364000D01*
D11*
X10225277Y-7872984D02*
X10225277Y-7672984D01*
X10225277Y-7672984D02*
X10272896Y-7672984D01*
X10272896Y-7672984D02*
X10301467Y-7682508D01*
X10301467Y-7682508D02*
X10320515Y-7701555D01*
X10320515Y-7701555D02*
X10330039Y-7720603D01*
X10330039Y-7720603D02*
X10339563Y-7758698D01*
X10339563Y-7758698D02*
X10339563Y-7787269D01*
X10339563Y-7787269D02*
X10330039Y-7825365D01*
X10330039Y-7825365D02*
X10320515Y-7844412D01*
X10320515Y-7844412D02*
X10301467Y-7863460D01*
X10301467Y-7863460D02*
X10272896Y-7872984D01*
X10272896Y-7872984D02*
X10225277Y-7872984D01*
X10425277Y-7872984D02*
X10425277Y-7739650D01*
X10425277Y-7777746D02*
X10434801Y-7758698D01*
X10434801Y-7758698D02*
X10444324Y-7749174D01*
X10444324Y-7749174D02*
X10463372Y-7739650D01*
X10463372Y-7739650D02*
X10482420Y-7739650D01*
X10549086Y-7872984D02*
X10549086Y-7739650D01*
X10549086Y-7672984D02*
X10539563Y-7682508D01*
X10539563Y-7682508D02*
X10549086Y-7692031D01*
X10549086Y-7692031D02*
X10558610Y-7682508D01*
X10558610Y-7682508D02*
X10549086Y-7672984D01*
X10549086Y-7672984D02*
X10549086Y-7692031D01*
X10672896Y-7872984D02*
X10653848Y-7863460D01*
X10653848Y-7863460D02*
X10644324Y-7844412D01*
X10644324Y-7844412D02*
X10644324Y-7672984D01*
X10777658Y-7872984D02*
X10758610Y-7863460D01*
X10758610Y-7863460D02*
X10749086Y-7844412D01*
X10749086Y-7844412D02*
X10749086Y-7672984D01*
X11006229Y-7872984D02*
X11006229Y-7672984D01*
X11006229Y-7672984D02*
X11072896Y-7815841D01*
X11072896Y-7815841D02*
X11139563Y-7672984D01*
X11139563Y-7672984D02*
X11139563Y-7872984D01*
X11320515Y-7872984D02*
X11320515Y-7768222D01*
X11320515Y-7768222D02*
X11310991Y-7749174D01*
X11310991Y-7749174D02*
X11291943Y-7739650D01*
X11291943Y-7739650D02*
X11253848Y-7739650D01*
X11253848Y-7739650D02*
X11234801Y-7749174D01*
X11320515Y-7863460D02*
X11301467Y-7872984D01*
X11301467Y-7872984D02*
X11253848Y-7872984D01*
X11253848Y-7872984D02*
X11234801Y-7863460D01*
X11234801Y-7863460D02*
X11225277Y-7844412D01*
X11225277Y-7844412D02*
X11225277Y-7825365D01*
X11225277Y-7825365D02*
X11234801Y-7806317D01*
X11234801Y-7806317D02*
X11253848Y-7796793D01*
X11253848Y-7796793D02*
X11301467Y-7796793D01*
X11301467Y-7796793D02*
X11320515Y-7787269D01*
X11415753Y-7739650D02*
X11415753Y-7939650D01*
X11415753Y-7749174D02*
X11434801Y-7739650D01*
X11434801Y-7739650D02*
X11472896Y-7739650D01*
X11472896Y-7739650D02*
X11491943Y-7749174D01*
X11491943Y-7749174D02*
X11501467Y-7758698D01*
X11501467Y-7758698D02*
X11510991Y-7777746D01*
X11510991Y-7777746D02*
X11510991Y-7834888D01*
X11510991Y-7834888D02*
X11501467Y-7853936D01*
X11501467Y-7853936D02*
X11491943Y-7863460D01*
X11491943Y-7863460D02*
X11472896Y-7872984D01*
X11472896Y-7872984D02*
X11434801Y-7872984D01*
X11434801Y-7872984D02*
X11415753Y-7863460D01*
X11596705Y-7853936D02*
X11606229Y-7863460D01*
X11606229Y-7863460D02*
X11596705Y-7872984D01*
X11596705Y-7872984D02*
X11587182Y-7863460D01*
X11587182Y-7863460D02*
X11596705Y-7853936D01*
X11596705Y-7853936D02*
X11596705Y-7872984D01*
X11596705Y-7749174D02*
X11606229Y-7758698D01*
X11606229Y-7758698D02*
X11596705Y-7768222D01*
X11596705Y-7768222D02*
X11587182Y-7758698D01*
X11587182Y-7758698D02*
X11596705Y-7749174D01*
X11596705Y-7749174D02*
X11596705Y-7768222D01*
X9764500Y-8101500D02*
X9964500Y-8301500D01*
X9964500Y-8101500D02*
X9764500Y-8301500D01*
X10215753Y-8112031D02*
X10225277Y-8102508D01*
X10225277Y-8102508D02*
X10244324Y-8092984D01*
X10244324Y-8092984D02*
X10291944Y-8092984D01*
X10291944Y-8092984D02*
X10310991Y-8102508D01*
X10310991Y-8102508D02*
X10320515Y-8112031D01*
X10320515Y-8112031D02*
X10330039Y-8131079D01*
X10330039Y-8131079D02*
X10330039Y-8150127D01*
X10330039Y-8150127D02*
X10320515Y-8178698D01*
X10320515Y-8178698D02*
X10206229Y-8292984D01*
X10206229Y-8292984D02*
X10330039Y-8292984D01*
X10415753Y-8273936D02*
X10425277Y-8283460D01*
X10425277Y-8283460D02*
X10415753Y-8292984D01*
X10415753Y-8292984D02*
X10406229Y-8283460D01*
X10406229Y-8283460D02*
X10415753Y-8273936D01*
X10415753Y-8273936D02*
X10415753Y-8292984D01*
X10606229Y-8092984D02*
X10510991Y-8092984D01*
X10510991Y-8092984D02*
X10501467Y-8188222D01*
X10501467Y-8188222D02*
X10510991Y-8178698D01*
X10510991Y-8178698D02*
X10530039Y-8169174D01*
X10530039Y-8169174D02*
X10577658Y-8169174D01*
X10577658Y-8169174D02*
X10596705Y-8178698D01*
X10596705Y-8178698D02*
X10606229Y-8188222D01*
X10606229Y-8188222D02*
X10615753Y-8207269D01*
X10615753Y-8207269D02*
X10615753Y-8254888D01*
X10615753Y-8254888D02*
X10606229Y-8273936D01*
X10606229Y-8273936D02*
X10596705Y-8283460D01*
X10596705Y-8283460D02*
X10577658Y-8292984D01*
X10577658Y-8292984D02*
X10530039Y-8292984D01*
X10530039Y-8292984D02*
X10510991Y-8283460D01*
X10510991Y-8283460D02*
X10501467Y-8273936D01*
X10739563Y-8092984D02*
X10758610Y-8092984D01*
X10758610Y-8092984D02*
X10777658Y-8102508D01*
X10777658Y-8102508D02*
X10787182Y-8112031D01*
X10787182Y-8112031D02*
X10796705Y-8131079D01*
X10796705Y-8131079D02*
X10806229Y-8169174D01*
X10806229Y-8169174D02*
X10806229Y-8216793D01*
X10806229Y-8216793D02*
X10796705Y-8254888D01*
X10796705Y-8254888D02*
X10787182Y-8273936D01*
X10787182Y-8273936D02*
X10777658Y-8283460D01*
X10777658Y-8283460D02*
X10758610Y-8292984D01*
X10758610Y-8292984D02*
X10739563Y-8292984D01*
X10739563Y-8292984D02*
X10720515Y-8283460D01*
X10720515Y-8283460D02*
X10710991Y-8273936D01*
X10710991Y-8273936D02*
X10701467Y-8254888D01*
X10701467Y-8254888D02*
X10691944Y-8216793D01*
X10691944Y-8216793D02*
X10691944Y-8169174D01*
X10691944Y-8169174D02*
X10701467Y-8131079D01*
X10701467Y-8131079D02*
X10710991Y-8112031D01*
X10710991Y-8112031D02*
X10720515Y-8102508D01*
X10720515Y-8102508D02*
X10739563Y-8092984D01*
X10930039Y-8092984D02*
X10949086Y-8092984D01*
X10949086Y-8092984D02*
X10968134Y-8102508D01*
X10968134Y-8102508D02*
X10977658Y-8112031D01*
X10977658Y-8112031D02*
X10987182Y-8131079D01*
X10987182Y-8131079D02*
X10996705Y-8169174D01*
X10996705Y-8169174D02*
X10996705Y-8216793D01*
X10996705Y-8216793D02*
X10987182Y-8254888D01*
X10987182Y-8254888D02*
X10977658Y-8273936D01*
X10977658Y-8273936D02*
X10968134Y-8283460D01*
X10968134Y-8283460D02*
X10949086Y-8292984D01*
X10949086Y-8292984D02*
X10930039Y-8292984D01*
X10930039Y-8292984D02*
X10910991Y-8283460D01*
X10910991Y-8283460D02*
X10901467Y-8273936D01*
X10901467Y-8273936D02*
X10891944Y-8254888D01*
X10891944Y-8254888D02*
X10882420Y-8216793D01*
X10882420Y-8216793D02*
X10882420Y-8169174D01*
X10882420Y-8169174D02*
X10891944Y-8131079D01*
X10891944Y-8131079D02*
X10901467Y-8112031D01*
X10901467Y-8112031D02*
X10910991Y-8102508D01*
X10910991Y-8102508D02*
X10930039Y-8092984D01*
X11082420Y-8292984D02*
X11082420Y-8159650D01*
X11082420Y-8178698D02*
X11091944Y-8169174D01*
X11091944Y-8169174D02*
X11110991Y-8159650D01*
X11110991Y-8159650D02*
X11139563Y-8159650D01*
X11139563Y-8159650D02*
X11158610Y-8169174D01*
X11158610Y-8169174D02*
X11168134Y-8188222D01*
X11168134Y-8188222D02*
X11168134Y-8292984D01*
X11168134Y-8188222D02*
X11177658Y-8169174D01*
X11177658Y-8169174D02*
X11196705Y-8159650D01*
X11196705Y-8159650D02*
X11225277Y-8159650D01*
X11225277Y-8159650D02*
X11244324Y-8169174D01*
X11244324Y-8169174D02*
X11253848Y-8188222D01*
X11253848Y-8188222D02*
X11253848Y-8292984D01*
X11349086Y-8292984D02*
X11349086Y-8159650D01*
X11349086Y-8178698D02*
X11358610Y-8169174D01*
X11358610Y-8169174D02*
X11377658Y-8159650D01*
X11377658Y-8159650D02*
X11406229Y-8159650D01*
X11406229Y-8159650D02*
X11425277Y-8169174D01*
X11425277Y-8169174D02*
X11434801Y-8188222D01*
X11434801Y-8188222D02*
X11434801Y-8292984D01*
X11434801Y-8188222D02*
X11444324Y-8169174D01*
X11444324Y-8169174D02*
X11463372Y-8159650D01*
X11463372Y-8159650D02*
X11491943Y-8159650D01*
X11491943Y-8159650D02*
X11510991Y-8169174D01*
X11510991Y-8169174D02*
X11520515Y-8188222D01*
X11520515Y-8188222D02*
X11520515Y-8292984D01*
X11910991Y-8083460D02*
X11739563Y-8340603D01*
X12168134Y-8092984D02*
X12187182Y-8092984D01*
X12187182Y-8092984D02*
X12206229Y-8102508D01*
X12206229Y-8102508D02*
X12215753Y-8112031D01*
X12215753Y-8112031D02*
X12225277Y-8131079D01*
X12225277Y-8131079D02*
X12234801Y-8169174D01*
X12234801Y-8169174D02*
X12234801Y-8216793D01*
X12234801Y-8216793D02*
X12225277Y-8254888D01*
X12225277Y-8254888D02*
X12215753Y-8273936D01*
X12215753Y-8273936D02*
X12206229Y-8283460D01*
X12206229Y-8283460D02*
X12187182Y-8292984D01*
X12187182Y-8292984D02*
X12168134Y-8292984D01*
X12168134Y-8292984D02*
X12149086Y-8283460D01*
X12149086Y-8283460D02*
X12139563Y-8273936D01*
X12139563Y-8273936D02*
X12130039Y-8254888D01*
X12130039Y-8254888D02*
X12120515Y-8216793D01*
X12120515Y-8216793D02*
X12120515Y-8169174D01*
X12120515Y-8169174D02*
X12130039Y-8131079D01*
X12130039Y-8131079D02*
X12139563Y-8112031D01*
X12139563Y-8112031D02*
X12149086Y-8102508D01*
X12149086Y-8102508D02*
X12168134Y-8092984D01*
X12320515Y-8273936D02*
X12330039Y-8283460D01*
X12330039Y-8283460D02*
X12320515Y-8292984D01*
X12320515Y-8292984D02*
X12310991Y-8283460D01*
X12310991Y-8283460D02*
X12320515Y-8273936D01*
X12320515Y-8273936D02*
X12320515Y-8292984D01*
X12453848Y-8092984D02*
X12472896Y-8092984D01*
X12472896Y-8092984D02*
X12491944Y-8102508D01*
X12491944Y-8102508D02*
X12501467Y-8112031D01*
X12501467Y-8112031D02*
X12510991Y-8131079D01*
X12510991Y-8131079D02*
X12520515Y-8169174D01*
X12520515Y-8169174D02*
X12520515Y-8216793D01*
X12520515Y-8216793D02*
X12510991Y-8254888D01*
X12510991Y-8254888D02*
X12501467Y-8273936D01*
X12501467Y-8273936D02*
X12491944Y-8283460D01*
X12491944Y-8283460D02*
X12472896Y-8292984D01*
X12472896Y-8292984D02*
X12453848Y-8292984D01*
X12453848Y-8292984D02*
X12434801Y-8283460D01*
X12434801Y-8283460D02*
X12425277Y-8273936D01*
X12425277Y-8273936D02*
X12415753Y-8254888D01*
X12415753Y-8254888D02*
X12406229Y-8216793D01*
X12406229Y-8216793D02*
X12406229Y-8169174D01*
X12406229Y-8169174D02*
X12415753Y-8131079D01*
X12415753Y-8131079D02*
X12425277Y-8112031D01*
X12425277Y-8112031D02*
X12434801Y-8102508D01*
X12434801Y-8102508D02*
X12453848Y-8092984D01*
X12615753Y-8292984D02*
X12653848Y-8292984D01*
X12653848Y-8292984D02*
X12672896Y-8283460D01*
X12672896Y-8283460D02*
X12682420Y-8273936D01*
X12682420Y-8273936D02*
X12701467Y-8245365D01*
X12701467Y-8245365D02*
X12710991Y-8207269D01*
X12710991Y-8207269D02*
X12710991Y-8131079D01*
X12710991Y-8131079D02*
X12701467Y-8112031D01*
X12701467Y-8112031D02*
X12691944Y-8102508D01*
X12691944Y-8102508D02*
X12672896Y-8092984D01*
X12672896Y-8092984D02*
X12634801Y-8092984D01*
X12634801Y-8092984D02*
X12615753Y-8102508D01*
X12615753Y-8102508D02*
X12606229Y-8112031D01*
X12606229Y-8112031D02*
X12596706Y-8131079D01*
X12596706Y-8131079D02*
X12596706Y-8178698D01*
X12596706Y-8178698D02*
X12606229Y-8197746D01*
X12606229Y-8197746D02*
X12615753Y-8207269D01*
X12615753Y-8207269D02*
X12634801Y-8216793D01*
X12634801Y-8216793D02*
X12672896Y-8216793D01*
X12672896Y-8216793D02*
X12691944Y-8207269D01*
X12691944Y-8207269D02*
X12701467Y-8197746D01*
X12701467Y-8197746D02*
X12710991Y-8178698D01*
X12825277Y-8178698D02*
X12806229Y-8169174D01*
X12806229Y-8169174D02*
X12796706Y-8159650D01*
X12796706Y-8159650D02*
X12787182Y-8140603D01*
X12787182Y-8140603D02*
X12787182Y-8131079D01*
X12787182Y-8131079D02*
X12796706Y-8112031D01*
X12796706Y-8112031D02*
X12806229Y-8102508D01*
X12806229Y-8102508D02*
X12825277Y-8092984D01*
X12825277Y-8092984D02*
X12863372Y-8092984D01*
X12863372Y-8092984D02*
X12882420Y-8102508D01*
X12882420Y-8102508D02*
X12891944Y-8112031D01*
X12891944Y-8112031D02*
X12901467Y-8131079D01*
X12901467Y-8131079D02*
X12901467Y-8140603D01*
X12901467Y-8140603D02*
X12891944Y-8159650D01*
X12891944Y-8159650D02*
X12882420Y-8169174D01*
X12882420Y-8169174D02*
X12863372Y-8178698D01*
X12863372Y-8178698D02*
X12825277Y-8178698D01*
X12825277Y-8178698D02*
X12806229Y-8188222D01*
X12806229Y-8188222D02*
X12796706Y-8197746D01*
X12796706Y-8197746D02*
X12787182Y-8216793D01*
X12787182Y-8216793D02*
X12787182Y-8254888D01*
X12787182Y-8254888D02*
X12796706Y-8273936D01*
X12796706Y-8273936D02*
X12806229Y-8283460D01*
X12806229Y-8283460D02*
X12825277Y-8292984D01*
X12825277Y-8292984D02*
X12863372Y-8292984D01*
X12863372Y-8292984D02*
X12882420Y-8283460D01*
X12882420Y-8283460D02*
X12891944Y-8273936D01*
X12891944Y-8273936D02*
X12901467Y-8254888D01*
X12901467Y-8254888D02*
X12901467Y-8216793D01*
X12901467Y-8216793D02*
X12891944Y-8197746D01*
X12891944Y-8197746D02*
X12882420Y-8188222D01*
X12882420Y-8188222D02*
X12863372Y-8178698D01*
X13072896Y-8159650D02*
X13072896Y-8292984D01*
X13025277Y-8083460D02*
X12977658Y-8226317D01*
X12977658Y-8226317D02*
X13101467Y-8226317D01*
X13168134Y-8092984D02*
X13168134Y-8131079D01*
X13244325Y-8092984D02*
X13244325Y-8131079D01*
X13539563Y-8369174D02*
X13530039Y-8359650D01*
X13530039Y-8359650D02*
X13510991Y-8331079D01*
X13510991Y-8331079D02*
X13501468Y-8312031D01*
X13501468Y-8312031D02*
X13491944Y-8283460D01*
X13491944Y-8283460D02*
X13482420Y-8235841D01*
X13482420Y-8235841D02*
X13482420Y-8197746D01*
X13482420Y-8197746D02*
X13491944Y-8150127D01*
X13491944Y-8150127D02*
X13501468Y-8121555D01*
X13501468Y-8121555D02*
X13510991Y-8102508D01*
X13510991Y-8102508D02*
X13530039Y-8073936D01*
X13530039Y-8073936D02*
X13539563Y-8064412D01*
X13701468Y-8159650D02*
X13701468Y-8292984D01*
X13653848Y-8083460D02*
X13606229Y-8226317D01*
X13606229Y-8226317D02*
X13730039Y-8226317D01*
X13958610Y-8292984D02*
X13958610Y-8092984D01*
X14044325Y-8292984D02*
X14044325Y-8188222D01*
X14044325Y-8188222D02*
X14034801Y-8169174D01*
X14034801Y-8169174D02*
X14015753Y-8159650D01*
X14015753Y-8159650D02*
X13987182Y-8159650D01*
X13987182Y-8159650D02*
X13968134Y-8169174D01*
X13968134Y-8169174D02*
X13958610Y-8178698D01*
X14168134Y-8292984D02*
X14149087Y-8283460D01*
X14149087Y-8283460D02*
X14139563Y-8273936D01*
X14139563Y-8273936D02*
X14130039Y-8254888D01*
X14130039Y-8254888D02*
X14130039Y-8197746D01*
X14130039Y-8197746D02*
X14139563Y-8178698D01*
X14139563Y-8178698D02*
X14149087Y-8169174D01*
X14149087Y-8169174D02*
X14168134Y-8159650D01*
X14168134Y-8159650D02*
X14196706Y-8159650D01*
X14196706Y-8159650D02*
X14215753Y-8169174D01*
X14215753Y-8169174D02*
X14225277Y-8178698D01*
X14225277Y-8178698D02*
X14234801Y-8197746D01*
X14234801Y-8197746D02*
X14234801Y-8254888D01*
X14234801Y-8254888D02*
X14225277Y-8273936D01*
X14225277Y-8273936D02*
X14215753Y-8283460D01*
X14215753Y-8283460D02*
X14196706Y-8292984D01*
X14196706Y-8292984D02*
X14168134Y-8292984D01*
X14349087Y-8292984D02*
X14330039Y-8283460D01*
X14330039Y-8283460D02*
X14320515Y-8264412D01*
X14320515Y-8264412D02*
X14320515Y-8092984D01*
X14501468Y-8283460D02*
X14482420Y-8292984D01*
X14482420Y-8292984D02*
X14444325Y-8292984D01*
X14444325Y-8292984D02*
X14425277Y-8283460D01*
X14425277Y-8283460D02*
X14415753Y-8264412D01*
X14415753Y-8264412D02*
X14415753Y-8188222D01*
X14415753Y-8188222D02*
X14425277Y-8169174D01*
X14425277Y-8169174D02*
X14444325Y-8159650D01*
X14444325Y-8159650D02*
X14482420Y-8159650D01*
X14482420Y-8159650D02*
X14501468Y-8169174D01*
X14501468Y-8169174D02*
X14510991Y-8188222D01*
X14510991Y-8188222D02*
X14510991Y-8207269D01*
X14510991Y-8207269D02*
X14415753Y-8226317D01*
X14587182Y-8283460D02*
X14606230Y-8292984D01*
X14606230Y-8292984D02*
X14644325Y-8292984D01*
X14644325Y-8292984D02*
X14663372Y-8283460D01*
X14663372Y-8283460D02*
X14672896Y-8264412D01*
X14672896Y-8264412D02*
X14672896Y-8254888D01*
X14672896Y-8254888D02*
X14663372Y-8235841D01*
X14663372Y-8235841D02*
X14644325Y-8226317D01*
X14644325Y-8226317D02*
X14615753Y-8226317D01*
X14615753Y-8226317D02*
X14596706Y-8216793D01*
X14596706Y-8216793D02*
X14587182Y-8197746D01*
X14587182Y-8197746D02*
X14587182Y-8188222D01*
X14587182Y-8188222D02*
X14596706Y-8169174D01*
X14596706Y-8169174D02*
X14615753Y-8159650D01*
X14615753Y-8159650D02*
X14644325Y-8159650D01*
X14644325Y-8159650D02*
X14663372Y-8169174D01*
X14739563Y-8369174D02*
X14749087Y-8359650D01*
X14749087Y-8359650D02*
X14768134Y-8331079D01*
X14768134Y-8331079D02*
X14777658Y-8312031D01*
X14777658Y-8312031D02*
X14787182Y-8283460D01*
X14787182Y-8283460D02*
X14796706Y-8235841D01*
X14796706Y-8235841D02*
X14796706Y-8197746D01*
X14796706Y-8197746D02*
X14787182Y-8150127D01*
X14787182Y-8150127D02*
X14777658Y-8121555D01*
X14777658Y-8121555D02*
X14768134Y-8102508D01*
X14768134Y-8102508D02*
X14749087Y-8073936D01*
X14749087Y-8073936D02*
X14739563Y-8064412D01*
X15101468Y-8369174D02*
X15091944Y-8359650D01*
X15091944Y-8359650D02*
X15072896Y-8331079D01*
X15072896Y-8331079D02*
X15063372Y-8312031D01*
X15063372Y-8312031D02*
X15053849Y-8283460D01*
X15053849Y-8283460D02*
X15044325Y-8235841D01*
X15044325Y-8235841D02*
X15044325Y-8197746D01*
X15044325Y-8197746D02*
X15053849Y-8150127D01*
X15053849Y-8150127D02*
X15063372Y-8121555D01*
X15063372Y-8121555D02*
X15072896Y-8102508D01*
X15072896Y-8102508D02*
X15091944Y-8073936D01*
X15091944Y-8073936D02*
X15101468Y-8064412D01*
X15177658Y-8159650D02*
X15177658Y-8292984D01*
X15177658Y-8178698D02*
X15187182Y-8169174D01*
X15187182Y-8169174D02*
X15206230Y-8159650D01*
X15206230Y-8159650D02*
X15234801Y-8159650D01*
X15234801Y-8159650D02*
X15253849Y-8169174D01*
X15253849Y-8169174D02*
X15263372Y-8188222D01*
X15263372Y-8188222D02*
X15263372Y-8292984D01*
X15387182Y-8292984D02*
X15368134Y-8283460D01*
X15368134Y-8283460D02*
X15358611Y-8273936D01*
X15358611Y-8273936D02*
X15349087Y-8254888D01*
X15349087Y-8254888D02*
X15349087Y-8197746D01*
X15349087Y-8197746D02*
X15358611Y-8178698D01*
X15358611Y-8178698D02*
X15368134Y-8169174D01*
X15368134Y-8169174D02*
X15387182Y-8159650D01*
X15387182Y-8159650D02*
X15415753Y-8159650D01*
X15415753Y-8159650D02*
X15434801Y-8169174D01*
X15434801Y-8169174D02*
X15444325Y-8178698D01*
X15444325Y-8178698D02*
X15453849Y-8197746D01*
X15453849Y-8197746D02*
X15453849Y-8254888D01*
X15453849Y-8254888D02*
X15444325Y-8273936D01*
X15444325Y-8273936D02*
X15434801Y-8283460D01*
X15434801Y-8283460D02*
X15415753Y-8292984D01*
X15415753Y-8292984D02*
X15387182Y-8292984D01*
X15510992Y-8159650D02*
X15587182Y-8159650D01*
X15539563Y-8092984D02*
X15539563Y-8264412D01*
X15539563Y-8264412D02*
X15549087Y-8283460D01*
X15549087Y-8283460D02*
X15568134Y-8292984D01*
X15568134Y-8292984D02*
X15587182Y-8292984D01*
X15806230Y-8159650D02*
X15806230Y-8359650D01*
X15806230Y-8169174D02*
X15825277Y-8159650D01*
X15825277Y-8159650D02*
X15863373Y-8159650D01*
X15863373Y-8159650D02*
X15882420Y-8169174D01*
X15882420Y-8169174D02*
X15891944Y-8178698D01*
X15891944Y-8178698D02*
X15901468Y-8197746D01*
X15901468Y-8197746D02*
X15901468Y-8254888D01*
X15901468Y-8254888D02*
X15891944Y-8273936D01*
X15891944Y-8273936D02*
X15882420Y-8283460D01*
X15882420Y-8283460D02*
X15863373Y-8292984D01*
X15863373Y-8292984D02*
X15825277Y-8292984D01*
X15825277Y-8292984D02*
X15806230Y-8283460D01*
X16015753Y-8292984D02*
X15996706Y-8283460D01*
X15996706Y-8283460D02*
X15987182Y-8264412D01*
X15987182Y-8264412D02*
X15987182Y-8092984D01*
X16177658Y-8292984D02*
X16177658Y-8188222D01*
X16177658Y-8188222D02*
X16168134Y-8169174D01*
X16168134Y-8169174D02*
X16149087Y-8159650D01*
X16149087Y-8159650D02*
X16110992Y-8159650D01*
X16110992Y-8159650D02*
X16091944Y-8169174D01*
X16177658Y-8283460D02*
X16158611Y-8292984D01*
X16158611Y-8292984D02*
X16110992Y-8292984D01*
X16110992Y-8292984D02*
X16091944Y-8283460D01*
X16091944Y-8283460D02*
X16082420Y-8264412D01*
X16082420Y-8264412D02*
X16082420Y-8245365D01*
X16082420Y-8245365D02*
X16091944Y-8226317D01*
X16091944Y-8226317D02*
X16110992Y-8216793D01*
X16110992Y-8216793D02*
X16158611Y-8216793D01*
X16158611Y-8216793D02*
X16177658Y-8207269D01*
X16244325Y-8159650D02*
X16320515Y-8159650D01*
X16272896Y-8092984D02*
X16272896Y-8264412D01*
X16272896Y-8264412D02*
X16282420Y-8283460D01*
X16282420Y-8283460D02*
X16301468Y-8292984D01*
X16301468Y-8292984D02*
X16320515Y-8292984D01*
X16463373Y-8283460D02*
X16444325Y-8292984D01*
X16444325Y-8292984D02*
X16406230Y-8292984D01*
X16406230Y-8292984D02*
X16387182Y-8283460D01*
X16387182Y-8283460D02*
X16377658Y-8264412D01*
X16377658Y-8264412D02*
X16377658Y-8188222D01*
X16377658Y-8188222D02*
X16387182Y-8169174D01*
X16387182Y-8169174D02*
X16406230Y-8159650D01*
X16406230Y-8159650D02*
X16444325Y-8159650D01*
X16444325Y-8159650D02*
X16463373Y-8169174D01*
X16463373Y-8169174D02*
X16472896Y-8188222D01*
X16472896Y-8188222D02*
X16472896Y-8207269D01*
X16472896Y-8207269D02*
X16377658Y-8226317D01*
X16644325Y-8292984D02*
X16644325Y-8092984D01*
X16644325Y-8283460D02*
X16625277Y-8292984D01*
X16625277Y-8292984D02*
X16587182Y-8292984D01*
X16587182Y-8292984D02*
X16568134Y-8283460D01*
X16568134Y-8283460D02*
X16558611Y-8273936D01*
X16558611Y-8273936D02*
X16549087Y-8254888D01*
X16549087Y-8254888D02*
X16549087Y-8197746D01*
X16549087Y-8197746D02*
X16558611Y-8178698D01*
X16558611Y-8178698D02*
X16568134Y-8169174D01*
X16568134Y-8169174D02*
X16587182Y-8159650D01*
X16587182Y-8159650D02*
X16625277Y-8159650D01*
X16625277Y-8159650D02*
X16644325Y-8169174D01*
X16720515Y-8369174D02*
X16730039Y-8359650D01*
X16730039Y-8359650D02*
X16749087Y-8331079D01*
X16749087Y-8331079D02*
X16758611Y-8312031D01*
X16758611Y-8312031D02*
X16768134Y-8283460D01*
X16768134Y-8283460D02*
X16777658Y-8235841D01*
X16777658Y-8235841D02*
X16777658Y-8197746D01*
X16777658Y-8197746D02*
X16768134Y-8150127D01*
X16768134Y-8150127D02*
X16758611Y-8121555D01*
X16758611Y-8121555D02*
X16749087Y-8102508D01*
X16749087Y-8102508D02*
X16730039Y-8073936D01*
X16730039Y-8073936D02*
X16720515Y-8064412D01*
M02*
