%TF.GenerationSoftware,KiCad,Pcbnew,7.0.7*%
%TF.CreationDate,2023-09-28T15:49:41-05:00*%
%TF.ProjectId,iowa-rover-kiosk-rfid,696f7761-2d72-46f7-9665-722d6b696f73,rev?*%
%TF.SameCoordinates,Original*%
%TF.FileFunction,Legend,Bot*%
%TF.FilePolarity,Positive*%
%FSLAX46Y46*%
G04 Gerber Fmt 4.6, Leading zero omitted, Abs format (unit mm)*
G04 Created by KiCad (PCBNEW 7.0.7) date 2023-09-28 15:49:41*
%MOMM*%
%LPD*%
G01*
G04 APERTURE LIST*
G04 Aperture macros list*
%AMRoundRect*
0 Rectangle with rounded corners*
0 $1 Rounding radius*
0 $2 $3 $4 $5 $6 $7 $8 $9 X,Y pos of 4 corners*
0 Add a 4 corners polygon primitive as box body*
4,1,4,$2,$3,$4,$5,$6,$7,$8,$9,$2,$3,0*
0 Add four circle primitives for the rounded corners*
1,1,$1+$1,$2,$3*
1,1,$1+$1,$4,$5*
1,1,$1+$1,$6,$7*
1,1,$1+$1,$8,$9*
0 Add four rect primitives between the rounded corners*
20,1,$1+$1,$2,$3,$4,$5,0*
20,1,$1+$1,$4,$5,$6,$7,0*
20,1,$1+$1,$6,$7,$8,$9,0*
20,1,$1+$1,$8,$9,$2,$3,0*%
G04 Aperture macros list end*
%ADD10C,0.150000*%
%ADD11C,0.120000*%
%ADD12C,2.500000*%
%ADD13RoundRect,0.250000X-0.845000X0.620000X-0.845000X-0.620000X0.845000X-0.620000X0.845000X0.620000X0*%
%ADD14O,2.190000X1.740000*%
%ADD15C,1.524000*%
%ADD16C,1.600000*%
%ADD17O,1.600000X1.600000*%
%ADD18R,1.800000X1.800000*%
%ADD19C,1.800000*%
%ADD20RoundRect,0.250000X0.845000X-0.620000X0.845000X0.620000X-0.845000X0.620000X-0.845000X-0.620000X0*%
%ADD21R,1.600000X1.600000*%
G04 APERTURE END LIST*
D10*
X118618095Y-49619819D02*
X118618095Y-50429342D01*
X118618095Y-50429342D02*
X118665714Y-50524580D01*
X118665714Y-50524580D02*
X118713333Y-50572200D01*
X118713333Y-50572200D02*
X118808571Y-50619819D01*
X118808571Y-50619819D02*
X118999047Y-50619819D01*
X118999047Y-50619819D02*
X119094285Y-50572200D01*
X119094285Y-50572200D02*
X119141904Y-50524580D01*
X119141904Y-50524580D02*
X119189523Y-50429342D01*
X119189523Y-50429342D02*
X119189523Y-49619819D01*
X120189523Y-50619819D02*
X119618095Y-50619819D01*
X119903809Y-50619819D02*
X119903809Y-49619819D01*
X119903809Y-49619819D02*
X119808571Y-49762676D01*
X119808571Y-49762676D02*
X119713333Y-49857914D01*
X119713333Y-49857914D02*
X119618095Y-49905533D01*
D11*
%TO.C,U1*%
X106465000Y-45565000D02*
X106465000Y-71965000D01*
X106465000Y-71965000D02*
X111465000Y-71965000D01*
X111465000Y-71965000D02*
X131765000Y-71965000D01*
X131765000Y-45565000D02*
X106465000Y-45565000D01*
X131765000Y-71965000D02*
X131765000Y-45565000D01*
%TD*%
%LPC*%
D12*
%TO.C,REF\u002A\u002A*%
X135255000Y-72390000D03*
%TD*%
%TO.C,REF\u002A\u002A*%
X102870000Y-72390000D03*
%TD*%
%TO.C,REF\u002A\u002A*%
X102870000Y-31750000D03*
%TD*%
%TO.C,REF\u002A\u002A*%
X135255000Y-31750000D03*
%TD*%
D13*
%TO.C,J1*%
X102850000Y-50665000D03*
D14*
X102850000Y-53205000D03*
X102850000Y-55745000D03*
X102850000Y-58285000D03*
%TD*%
D15*
%TO.C,U1*%
X111465000Y-55665000D03*
X111465000Y-57665000D03*
X111465000Y-59665000D03*
X111465000Y-61665000D03*
X111465000Y-63665000D03*
X126465000Y-63665000D03*
X126465000Y-61665000D03*
X126465000Y-59665000D03*
X126465000Y-57665000D03*
X126465000Y-55665000D03*
X126465000Y-51665000D03*
%TD*%
D16*
%TO.C,R1*%
X110490000Y-33020000D03*
D17*
X110490000Y-43180000D03*
%TD*%
D18*
%TO.C,D1*%
X106680000Y-43180000D03*
D19*
X106680000Y-40640000D03*
%TD*%
D20*
%TO.C,J2*%
X135255000Y-58285000D03*
D14*
X135255000Y-55745000D03*
X135255000Y-53205000D03*
X135255000Y-50665000D03*
%TD*%
D21*
%TO.C,U2*%
X130815000Y-35570000D03*
D17*
X128275000Y-35570000D03*
X125735000Y-35570000D03*
X123195000Y-35570000D03*
X120655000Y-35570000D03*
X118115000Y-35570000D03*
X115575000Y-35570000D03*
X115575000Y-43190000D03*
X118115000Y-43190000D03*
X120655000Y-43190000D03*
X123195000Y-43190000D03*
X125735000Y-43190000D03*
X128275000Y-43190000D03*
X130815000Y-43190000D03*
%TD*%
%LPD*%
M02*
