M48
; DRILL file {KiCad 7.0.7} date Thu Sep 28 15:49:43 2023
; FORMAT={-:-/ absolute / metric / decimal}
; #@! TF.CreationDate,2023-09-28T15:49:43-05:00
; #@! TF.GenerationSoftware,Kicad,Pcbnew,7.0.7
; #@! TF.FileFunction,Plated,1,2,PTH
FMAT,2
METRIC
; #@! TA.AperFunction,Plated,PTH,ViaDrill
T1C0.400
; #@! TA.AperFunction,Plated,PTH,ComponentDrill
T2C0.762
; #@! TA.AperFunction,Plated,PTH,ComponentDrill
T3C0.800
; #@! TA.AperFunction,Plated,PTH,ComponentDrill
T4C0.900
; #@! TA.AperFunction,Plated,PTH,ComponentDrill
T5C1.190
%
G90
G05
T1
X127.0Y-30.48
T2
X111.465Y-55.665
X111.465Y-57.665
X111.465Y-59.665
X111.465Y-61.665
X111.465Y-63.665
X126.465Y-51.665
X126.465Y-55.665
X126.465Y-57.665
X126.465Y-59.665
X126.465Y-61.665
X126.465Y-63.665
T3
X110.49Y-33.02
X110.49Y-43.18
X115.575Y-35.57
X115.575Y-43.19
X118.115Y-35.57
X118.115Y-43.19
X120.655Y-35.57
X120.655Y-43.19
X123.195Y-35.57
X123.195Y-43.19
X125.735Y-35.57
X125.735Y-43.19
X128.275Y-35.57
X128.275Y-43.19
X130.815Y-35.57
X130.815Y-43.19
T4
X106.68Y-40.64
X106.68Y-43.18
T5
X102.85Y-50.665
X102.85Y-53.205
X102.85Y-55.745
X102.85Y-58.285
X135.255Y-50.665
X135.255Y-53.205
X135.255Y-55.745
X135.255Y-58.285
T0
M30
