M48
; DRILL file {KiCad 7.0.7} date Thu Sep 28 15:43:32 2023
; FORMAT={-:-/ absolute / metric / decimal}
; #@! TF.CreationDate,2023-09-28T15:43:32-05:00
; #@! TF.GenerationSoftware,Kicad,Pcbnew,7.0.7
; #@! TF.FileFunction,Plated,1,2,PTH
FMAT,2
METRIC
; #@! TA.AperFunction,Plated,PTH,ViaDrill
T1C0.400
; #@! TA.AperFunction,Plated,PTH,ComponentDrill
T2C0.800
; #@! TA.AperFunction,Plated,PTH,ComponentDrill
T3C1.000
; #@! TA.AperFunction,Plated,PTH,ComponentDrill
T4C1.520
%
G90
G05
T1
X107.315Y-75.565
X108.585Y-75.565
X109.855Y-75.565
T2
X81.915Y-62.865
X81.915Y-73.025
X97.79Y-62.865
X97.79Y-73.025
X113.665Y-62.865
X113.665Y-73.025
X129.54Y-62.865
X129.54Y-73.025
X140.97Y-78.74
X140.97Y-86.36
X143.51Y-78.74
X143.51Y-86.36
X145.415Y-62.865
X145.415Y-73.025
X146.05Y-78.74
X146.05Y-86.36
X148.59Y-78.74
X148.59Y-86.36
X151.13Y-78.74
X151.13Y-86.36
X153.67Y-78.74
X153.67Y-86.36
X156.21Y-78.74
X156.21Y-86.36
X158.75Y-78.74
X158.75Y-86.36
X161.29Y-62.865
X161.29Y-73.025
X161.29Y-78.74
X161.29Y-86.36
X163.83Y-78.74
X163.83Y-86.36
X177.165Y-62.865
X177.165Y-73.025
X193.04Y-62.865
X193.04Y-73.025
T3
X97.155Y-80.645
X97.155Y-83.185
X99.695Y-80.645
X99.695Y-83.185
X102.235Y-80.645
X102.235Y-83.185
X104.775Y-80.645
X104.775Y-83.185
X107.315Y-80.645
X107.315Y-83.185
X109.855Y-80.645
X109.855Y-83.185
X112.395Y-80.645
X112.395Y-83.185
X114.935Y-80.645
X114.935Y-83.185
T4
X72.23Y-67.31
X77.31Y-67.31
X79.85Y-56.0
X84.93Y-56.0
X88.105Y-67.31
X93.185Y-67.31
X95.725Y-56.0
X100.805Y-56.0
X103.98Y-67.31
X109.06Y-67.31
X111.6Y-56.0
X116.68Y-56.0
X119.855Y-67.31
X124.935Y-67.31
X127.475Y-56.0
X132.555Y-56.0
X135.73Y-67.31
X140.81Y-67.31
X143.35Y-56.0
X148.43Y-56.0
X151.605Y-67.31
X156.685Y-67.31
X159.225Y-56.0
X164.305Y-56.0
X167.48Y-67.31
X172.56Y-67.31
X175.1Y-56.0
X180.18Y-56.0
X183.355Y-67.31
X188.435Y-67.31
X190.975Y-56.0
X196.055Y-56.0
T0
M30
