%TF.GenerationSoftware,KiCad,Pcbnew,7.0.7*%
%TF.CreationDate,2023-09-28T15:43:30-05:00*%
%TF.ProjectId,iowa-rover-kiosk-level-buttons,696f7761-2d72-46f7-9665-722d6b696f73,rev?*%
%TF.SameCoordinates,Original*%
%TF.FileFunction,Copper,L2,Bot*%
%TF.FilePolarity,Positive*%
%FSLAX46Y46*%
G04 Gerber Fmt 4.6, Leading zero omitted, Abs format (unit mm)*
G04 Created by KiCad (PCBNEW 7.0.7) date 2023-09-28 15:43:30*
%MOMM*%
%LPD*%
G01*
G04 APERTURE LIST*
%TA.AperFunction,ComponentPad*%
%ADD10R,3.000000X3.000000*%
%TD*%
%TA.AperFunction,ComponentPad*%
%ADD11C,3.000000*%
%TD*%
%TA.AperFunction,ComponentPad*%
%ADD12C,1.600000*%
%TD*%
%TA.AperFunction,ComponentPad*%
%ADD13O,1.600000X1.600000*%
%TD*%
%TA.AperFunction,ComponentPad*%
%ADD14R,1.600000X1.600000*%
%TD*%
%TA.AperFunction,ComponentPad*%
%ADD15R,1.700000X1.700000*%
%TD*%
%TA.AperFunction,ComponentPad*%
%ADD16O,1.700000X1.700000*%
%TD*%
%TA.AperFunction,ViaPad*%
%ADD17C,0.800000*%
%TD*%
%TA.AperFunction,Conductor*%
%ADD18C,0.250000*%
%TD*%
G04 APERTURE END LIST*
D10*
%TO.P,Btn Down 1,1,1*%
%TO.N,Net-(J1-Pin_10)*%
X172560000Y-67310000D03*
D11*
%TO.P,Btn Down 1,2,2*%
%TO.N,GND*%
X167480000Y-67310000D03*
%TD*%
D12*
%TO.P,R2,1*%
%TO.N,+5V*%
X177165000Y-62865000D03*
D13*
%TO.P,R2,2*%
%TO.N,Net-(J1-Pin_10)*%
X177165000Y-73025000D03*
%TD*%
D10*
%TO.P,Lamp Up 3,1,-*%
%TO.N,Net-(LA5--)*%
X132555000Y-56000000D03*
D11*
%TO.P,Lamp Up 3,2,+*%
%TO.N,+5V*%
X127475000Y-56000000D03*
%TD*%
D12*
%TO.P,R5,1*%
%TO.N,+5V*%
X129540000Y-62865000D03*
D13*
%TO.P,R5,2*%
%TO.N,Net-(J1-Pin_16)*%
X129540000Y-73025000D03*
%TD*%
D10*
%TO.P,Lamp Up 2,1,-*%
%TO.N,Net-(LA3--)*%
X164305000Y-56000000D03*
D11*
%TO.P,Lamp Up 2,2,+*%
%TO.N,+5V*%
X159225000Y-56000000D03*
%TD*%
D12*
%TO.P,R6,1*%
%TO.N,+5V*%
X113665000Y-62865000D03*
D13*
%TO.P,R6,2*%
%TO.N,Net-(J1-Pin_15)*%
X113665000Y-73025000D03*
%TD*%
D14*
%TO.P,U2,1,NC*%
%TO.N,unconnected-(U2-NC-Pad1)*%
X140970000Y-86360000D03*
D13*
%TO.P,U2,2,VCC*%
%TO.N,+5V*%
X143510000Y-86360000D03*
%TO.P,U2,3,SERIN*%
%TO.N,/COPI*%
X146050000Y-86360000D03*
%TO.P,U2,4,DRAIN0*%
%TO.N,Net-(LA1--)*%
X148590000Y-86360000D03*
%TO.P,U2,5,DRAIN1*%
%TO.N,Net-(LA2--)*%
X151130000Y-86360000D03*
%TO.P,U2,6,DRAIN2*%
%TO.N,Net-(LA4--)*%
X153670000Y-86360000D03*
%TO.P,U2,7,DRAIN3*%
%TO.N,Net-(LA3--)*%
X156210000Y-86360000D03*
%TO.P,U2,8,SRCLR*%
%TO.N,+5V*%
X158750000Y-86360000D03*
%TO.P,U2,9,G*%
%TO.N,GND*%
X161290000Y-86360000D03*
%TO.P,U2,10,GND*%
X163830000Y-86360000D03*
%TO.P,U2,11,GND*%
X163830000Y-78740000D03*
%TO.P,U2,12,RCK*%
%TO.N,/LATCH*%
X161290000Y-78740000D03*
%TO.P,U2,13,SRCK*%
%TO.N,/CLOCK*%
X158750000Y-78740000D03*
%TO.P,U2,14,DRAIN4*%
%TO.N,Net-(LA5--)*%
X156210000Y-78740000D03*
%TO.P,U2,15,DRAIN5*%
%TO.N,Net-(LA6--)*%
X153670000Y-78740000D03*
%TO.P,U2,16,DRAIN6*%
%TO.N,Net-(LA7--)*%
X151130000Y-78740000D03*
%TO.P,U2,17,DRAIN7*%
%TO.N,Net-(LA8--)*%
X148590000Y-78740000D03*
%TO.P,U2,18,SEROUT*%
%TO.N,/CIPO*%
X146050000Y-78740000D03*
%TO.P,U2,19,GND*%
%TO.N,GND*%
X143510000Y-78740000D03*
%TO.P,U2,20,NC*%
%TO.N,unconnected-(U2-NC-Pad20)*%
X140970000Y-78740000D03*
%TD*%
D15*
%TO.P,J1,1,Pin_1*%
%TO.N,GND*%
X97155000Y-83185000D03*
D16*
%TO.P,J1,2,Pin_2*%
%TO.N,+12V*%
X97155000Y-80645000D03*
%TO.P,J1,3,Pin_3*%
%TO.N,+5V*%
X99695000Y-83185000D03*
%TO.P,J1,4,Pin_4*%
%TO.N,/COPI*%
X99695000Y-80645000D03*
%TO.P,J1,5,Pin_5*%
%TO.N,/CIPO*%
X102235000Y-83185000D03*
%TO.P,J1,6,Pin_6*%
%TO.N,/LATCH*%
X102235000Y-80645000D03*
%TO.P,J1,7,Pin_7*%
%TO.N,/CLOCK*%
X104775000Y-83185000D03*
%TO.P,J1,8,Pin_8*%
%TO.N,unconnected-(J1-Pin_8-Pad8)*%
X104775000Y-80645000D03*
%TO.P,J1,9,Pin_9*%
%TO.N,Net-(J1-Pin_9)*%
X107315000Y-83185000D03*
%TO.P,J1,10,Pin_10*%
%TO.N,Net-(J1-Pin_10)*%
X107315000Y-80645000D03*
%TO.P,J1,11,Pin_11*%
%TO.N,Net-(J1-Pin_11)*%
X109855000Y-83185000D03*
%TO.P,J1,12,Pin_12*%
%TO.N,Net-(J1-Pin_12)*%
X109855000Y-80645000D03*
%TO.P,J1,13,Pin_13*%
%TO.N,Net-(J1-Pin_13)*%
X112395000Y-83185000D03*
%TO.P,J1,14,Pin_14*%
%TO.N,Net-(J1-Pin_14)*%
X112395000Y-80645000D03*
%TO.P,J1,15,Pin_15*%
%TO.N,Net-(J1-Pin_15)*%
X114935000Y-83185000D03*
%TO.P,J1,16,Pin_16*%
%TO.N,Net-(J1-Pin_16)*%
X114935000Y-80645000D03*
%TD*%
D12*
%TO.P,R8,1*%
%TO.N,+5V*%
X81915000Y-62865000D03*
D13*
%TO.P,R8,2*%
%TO.N,Net-(J1-Pin_13)*%
X81915000Y-73025000D03*
%TD*%
D10*
%TO.P,Btn Down 4,1,1*%
%TO.N,Net-(J1-Pin_13)*%
X77310000Y-67310000D03*
D11*
%TO.P,Btn Down 4,2,2*%
%TO.N,GND*%
X72230000Y-67310000D03*
%TD*%
D12*
%TO.P,R1,1*%
%TO.N,+5V*%
X193040000Y-62865000D03*
D13*
%TO.P,R1,2*%
%TO.N,Net-(J1-Pin_9)*%
X193040000Y-73025000D03*
%TD*%
D10*
%TO.P,Btn Up 3,1,1*%
%TO.N,Net-(J1-Pin_16)*%
X124935000Y-67310000D03*
D11*
%TO.P,Btn Up 3,2,2*%
%TO.N,GND*%
X119855000Y-67310000D03*
%TD*%
D10*
%TO.P,Lamp Down 1,1,-*%
%TO.N,Net-(LA2--)*%
X180180000Y-56000000D03*
D11*
%TO.P,Lamp Down 1,2,+*%
%TO.N,+5V*%
X175100000Y-56000000D03*
%TD*%
D10*
%TO.P,Lamp Down 4,1,-*%
%TO.N,Net-(LA8--)*%
X84930000Y-56000000D03*
D11*
%TO.P,Lamp Down 4,2,+*%
%TO.N,+5V*%
X79850000Y-56000000D03*
%TD*%
D10*
%TO.P,Btn Up 2,1,1*%
%TO.N,Net-(J1-Pin_11)*%
X156685000Y-67310000D03*
D11*
%TO.P,Btn Up 2,2,2*%
%TO.N,GND*%
X151605000Y-67310000D03*
%TD*%
D12*
%TO.P,R7,1*%
%TO.N,+5V*%
X97790000Y-62865000D03*
D13*
%TO.P,R7,2*%
%TO.N,Net-(J1-Pin_14)*%
X97790000Y-73025000D03*
%TD*%
D10*
%TO.P,Lamp Down 2,1,-*%
%TO.N,Net-(LA4--)*%
X148430000Y-56000000D03*
D11*
%TO.P,Lamp Down 2,2,+*%
%TO.N,+5V*%
X143350000Y-56000000D03*
%TD*%
D10*
%TO.P,Btn Up 1,1,1*%
%TO.N,Net-(J1-Pin_9)*%
X188435000Y-67310000D03*
D11*
%TO.P,Btn Up 1,2,2*%
%TO.N,GND*%
X183355000Y-67310000D03*
%TD*%
D10*
%TO.P,Btn Down 3,1,1*%
%TO.N,Net-(J1-Pin_15)*%
X109060000Y-67310000D03*
D11*
%TO.P,Btn Down 3,2,2*%
%TO.N,GND*%
X103980000Y-67310000D03*
%TD*%
D12*
%TO.P,R4,1*%
%TO.N,+5V*%
X145415000Y-62865000D03*
D13*
%TO.P,R4,2*%
%TO.N,Net-(J1-Pin_12)*%
X145415000Y-73025000D03*
%TD*%
D10*
%TO.P,Lamp Up 1,1,-*%
%TO.N,Net-(LA1--)*%
X196055000Y-56000000D03*
D11*
%TO.P,Lamp Up 1,2,+*%
%TO.N,+5V*%
X190975000Y-56000000D03*
%TD*%
D10*
%TO.P,Btn Down 2,1,1*%
%TO.N,Net-(J1-Pin_12)*%
X140810000Y-67310000D03*
D11*
%TO.P,Btn Down 2,2,2*%
%TO.N,GND*%
X135730000Y-67310000D03*
%TD*%
D12*
%TO.P,R3,1*%
%TO.N,+5V*%
X161290000Y-62865000D03*
D13*
%TO.P,R3,2*%
%TO.N,Net-(J1-Pin_11)*%
X161290000Y-73025000D03*
%TD*%
D10*
%TO.P,Lamp Up 4,1,-*%
%TO.N,Net-(LA7--)*%
X100805000Y-56000000D03*
D11*
%TO.P,Lamp Up 4,2,+*%
%TO.N,+5V*%
X95725000Y-56000000D03*
%TD*%
D10*
%TO.P,Btn Up 4,1,1*%
%TO.N,Net-(J1-Pin_14)*%
X93185000Y-67310000D03*
D11*
%TO.P,Btn Up 4,2,2*%
%TO.N,GND*%
X88105000Y-67310000D03*
%TD*%
D10*
%TO.P,Lamp Down 3,1,-*%
%TO.N,Net-(LA6--)*%
X116680000Y-56000000D03*
D11*
%TO.P,Lamp Down 3,2,+*%
%TO.N,+5V*%
X111600000Y-56000000D03*
%TD*%
D17*
%TO.N,Net-(J1-Pin_10)*%
X107315000Y-75565000D03*
%TO.N,Net-(J1-Pin_11)*%
X108585000Y-75565000D03*
%TO.N,Net-(J1-Pin_12)*%
X109855000Y-75565000D03*
%TD*%
D18*
%TO.N,+5V*%
X193040000Y-62865000D02*
X177165000Y-62865000D01*
X96425000Y-81820000D02*
X81915000Y-67310000D01*
X97790000Y-62865000D02*
X81915000Y-62865000D01*
X129540000Y-62865000D02*
X113665000Y-62865000D01*
X98330000Y-81820000D02*
X96425000Y-81820000D01*
X143510000Y-86360000D02*
X142385000Y-87485000D01*
X81915000Y-67310000D02*
X81915000Y-62865000D01*
X103995000Y-87485000D02*
X99695000Y-83185000D01*
X142385000Y-87485000D02*
X103995000Y-87485000D01*
X143510000Y-86360000D02*
X144635000Y-87485000D01*
X99695000Y-83185000D02*
X98330000Y-81820000D01*
X177165000Y-62865000D02*
X161290000Y-62865000D01*
X157625000Y-87485000D02*
X158750000Y-86360000D01*
X161290000Y-62865000D02*
X145415000Y-62865000D01*
X145415000Y-62865000D02*
X129540000Y-62865000D01*
X144635000Y-87485000D02*
X157625000Y-87485000D01*
X113665000Y-62865000D02*
X97790000Y-62865000D01*
%TO.N,/COPI*%
X99695000Y-80645000D02*
X101060000Y-82010000D01*
X102623299Y-85235000D02*
X144925000Y-85235000D01*
X101060000Y-82010000D02*
X101060000Y-83671701D01*
X144925000Y-85235000D02*
X146050000Y-86360000D01*
X101060000Y-83671701D02*
X102623299Y-85235000D01*
%TO.N,/CIPO*%
X106140000Y-80158299D02*
X106923299Y-79375000D01*
X106923299Y-79375000D02*
X140014009Y-79375000D01*
X102235000Y-83185000D02*
X103505000Y-81915000D01*
X144925000Y-79865000D02*
X146050000Y-78740000D01*
X103505000Y-81915000D02*
X105408604Y-81915000D01*
X106140000Y-81183604D02*
X106140000Y-80158299D01*
X140014009Y-79375000D02*
X140504009Y-79865000D01*
X140504009Y-79865000D02*
X144925000Y-79865000D01*
X105408604Y-81915000D02*
X106140000Y-81183604D01*
%TO.N,/LATCH*%
X160165000Y-77615000D02*
X161290000Y-78740000D01*
X105265000Y-77615000D02*
X160165000Y-77615000D01*
X102235000Y-80645000D02*
X105265000Y-77615000D01*
%TO.N,/CLOCK*%
X155670000Y-81820000D02*
X158750000Y-78740000D01*
X104775000Y-83185000D02*
X106140000Y-81820000D01*
X106140000Y-81820000D02*
X155670000Y-81820000D01*
%TO.N,Net-(J1-Pin_10)*%
X175590000Y-71450000D02*
X111430000Y-71450000D01*
X177165000Y-73025000D02*
X175590000Y-71450000D01*
X111430000Y-71450000D02*
X107315000Y-75565000D01*
%TO.N,Net-(J1-Pin_11)*%
X161290000Y-73025000D02*
X160165000Y-71900000D01*
X112250000Y-71900000D02*
X108585000Y-75565000D01*
X160165000Y-71900000D02*
X112250000Y-71900000D01*
%TO.N,Net-(J1-Pin_12)*%
X145415000Y-73025000D02*
X142875000Y-75565000D01*
X142875000Y-75565000D02*
X109855000Y-75565000D01*
%TD*%
%TA.AperFunction,Conductor*%
%TO.N,GND*%
G36*
X163386463Y-86129685D02*
G01*
X163432218Y-86182489D01*
X163442162Y-86251647D01*
X163441897Y-86253397D01*
X163425014Y-86359996D01*
X163425014Y-86360003D01*
X163441897Y-86466603D01*
X163432942Y-86535896D01*
X163387946Y-86589348D01*
X163321194Y-86609987D01*
X163319424Y-86610000D01*
X161800576Y-86610000D01*
X161733537Y-86590315D01*
X161687782Y-86537511D01*
X161677838Y-86468353D01*
X161678103Y-86466603D01*
X161694986Y-86360003D01*
X161694986Y-86359996D01*
X161678103Y-86253397D01*
X161687058Y-86184104D01*
X161732054Y-86130652D01*
X161798806Y-86110013D01*
X161800576Y-86110000D01*
X163319424Y-86110000D01*
X163386463Y-86129685D01*
G37*
%TD.AperFunction*%
%TA.AperFunction,Conductor*%
G36*
X194887512Y-60344974D02*
G01*
X194933533Y-60397547D01*
X194945000Y-60449627D01*
X194945000Y-90681625D01*
X194925315Y-90748664D01*
X194872511Y-90794419D01*
X194821626Y-90805623D01*
X70964721Y-91431162D01*
X70960931Y-91431065D01*
X70784009Y-91421130D01*
X70777782Y-91420464D01*
X70619272Y-91395357D01*
X70444126Y-91365599D01*
X70438462Y-91364362D01*
X70278334Y-91321456D01*
X70112292Y-91273621D01*
X70107234Y-91271925D01*
X69950310Y-91211687D01*
X69792378Y-91146269D01*
X69787956Y-91144231D01*
X69637066Y-91067349D01*
X69488130Y-90985035D01*
X69484352Y-90982768D01*
X69341657Y-90890099D01*
X69267244Y-90837300D01*
X69223961Y-90782452D01*
X69215000Y-90736171D01*
X69215000Y-88389334D01*
X69619500Y-88389334D01*
X69660429Y-88634616D01*
X69741169Y-88869802D01*
X69741172Y-88869811D01*
X69859524Y-89088506D01*
X69859526Y-89088509D01*
X70012262Y-89284744D01*
X70142416Y-89404559D01*
X70195217Y-89453166D01*
X70403393Y-89589173D01*
X70631118Y-89689063D01*
X70872175Y-89750107D01*
X70872179Y-89750108D01*
X70872181Y-89750108D01*
X70872186Y-89750109D01*
X71005376Y-89761145D01*
X71057933Y-89765500D01*
X71057935Y-89765500D01*
X71182065Y-89765500D01*
X71182067Y-89765500D01*
X71243284Y-89760427D01*
X71367813Y-89750109D01*
X71367816Y-89750108D01*
X71367821Y-89750108D01*
X71608881Y-89689063D01*
X71836607Y-89589173D01*
X72044785Y-89453164D01*
X72227738Y-89284744D01*
X72380474Y-89088509D01*
X72498828Y-88869810D01*
X72579571Y-88634614D01*
X72620500Y-88389335D01*
X72620500Y-88140665D01*
X72579571Y-87895386D01*
X72498828Y-87660190D01*
X72380474Y-87441491D01*
X72227738Y-87245256D01*
X72044785Y-87076836D01*
X72044782Y-87076833D01*
X71836606Y-86940826D01*
X71608881Y-86840936D01*
X71367824Y-86779892D01*
X71367813Y-86779890D01*
X71202548Y-86766197D01*
X71182067Y-86764500D01*
X71057933Y-86764500D01*
X71038521Y-86766108D01*
X70872186Y-86779890D01*
X70872175Y-86779892D01*
X70631118Y-86840936D01*
X70403393Y-86940826D01*
X70195217Y-87076833D01*
X70012261Y-87245257D01*
X69859524Y-87441493D01*
X69741172Y-87660188D01*
X69741169Y-87660197D01*
X69660429Y-87895383D01*
X69619500Y-88140665D01*
X69619500Y-88389334D01*
X69215000Y-88389334D01*
X69215000Y-73025001D01*
X80609532Y-73025001D01*
X80629364Y-73251686D01*
X80629366Y-73251697D01*
X80688258Y-73471488D01*
X80688261Y-73471497D01*
X80784431Y-73677732D01*
X80784432Y-73677734D01*
X80914954Y-73864141D01*
X81075858Y-74025045D01*
X81075861Y-74025047D01*
X81262266Y-74155568D01*
X81468504Y-74251739D01*
X81688308Y-74310635D01*
X81845780Y-74324412D01*
X81914998Y-74330468D01*
X81915000Y-74330468D01*
X81915002Y-74330468D01*
X81984220Y-74324412D01*
X82141692Y-74310635D01*
X82361496Y-74251739D01*
X82567734Y-74155568D01*
X82754139Y-74025047D01*
X82915047Y-73864139D01*
X83045568Y-73677734D01*
X83141739Y-73471496D01*
X83200635Y-73251692D01*
X83220468Y-73025000D01*
X83200635Y-72798308D01*
X83141739Y-72578504D01*
X83045568Y-72372266D01*
X82915047Y-72185861D01*
X82915045Y-72185858D01*
X82754141Y-72024954D01*
X82567734Y-71894432D01*
X82567732Y-71894431D01*
X82361497Y-71798261D01*
X82361488Y-71798258D01*
X82141697Y-71739366D01*
X82141693Y-71739365D01*
X82141692Y-71739365D01*
X82141691Y-71739364D01*
X82141686Y-71739364D01*
X81915002Y-71719532D01*
X81914998Y-71719532D01*
X81688313Y-71739364D01*
X81688302Y-71739366D01*
X81468511Y-71798258D01*
X81468502Y-71798261D01*
X81262267Y-71894431D01*
X81262265Y-71894432D01*
X81075858Y-72024954D01*
X80914954Y-72185858D01*
X80784432Y-72372265D01*
X80784431Y-72372267D01*
X80688261Y-72578502D01*
X80688258Y-72578511D01*
X80629366Y-72798302D01*
X80629364Y-72798313D01*
X80609532Y-73024998D01*
X80609532Y-73025001D01*
X69215000Y-73025001D01*
X69215000Y-67310001D01*
X70224891Y-67310001D01*
X70245300Y-67595362D01*
X70306109Y-67874895D01*
X70406091Y-68142958D01*
X70543191Y-68394038D01*
X70543196Y-68394046D01*
X70649882Y-68536561D01*
X70649883Y-68536562D01*
X71434520Y-67751924D01*
X71495843Y-67718439D01*
X71565534Y-67723423D01*
X71621468Y-67765294D01*
X71621664Y-67765557D01*
X71673433Y-67835094D01*
X71779125Y-67923781D01*
X71817827Y-67981952D01*
X71818935Y-68051813D01*
X71787100Y-68106451D01*
X71003436Y-68890114D01*
X71003436Y-68890115D01*
X71145960Y-68996807D01*
X71145961Y-68996808D01*
X71397042Y-69133908D01*
X71397041Y-69133908D01*
X71665104Y-69233890D01*
X71944637Y-69294699D01*
X72229999Y-69315109D01*
X72230001Y-69315109D01*
X72515362Y-69294699D01*
X72794895Y-69233890D01*
X73062958Y-69133908D01*
X73314047Y-68996803D01*
X73456561Y-68890116D01*
X73456562Y-68890115D01*
X73424317Y-68857870D01*
X75309500Y-68857870D01*
X75309501Y-68857876D01*
X75315908Y-68917483D01*
X75366202Y-69052328D01*
X75366206Y-69052335D01*
X75452452Y-69167544D01*
X75452455Y-69167547D01*
X75567664Y-69253793D01*
X75567671Y-69253797D01*
X75702517Y-69304091D01*
X75702516Y-69304091D01*
X75709444Y-69304835D01*
X75762127Y-69310500D01*
X78857872Y-69310499D01*
X78917483Y-69304091D01*
X79052331Y-69253796D01*
X79167546Y-69167546D01*
X79253796Y-69052331D01*
X79304091Y-68917483D01*
X79310500Y-68857873D01*
X79310499Y-65762128D01*
X79304091Y-65702517D01*
X79274506Y-65623196D01*
X79253797Y-65567671D01*
X79253793Y-65567664D01*
X79167547Y-65452455D01*
X79167544Y-65452452D01*
X79052335Y-65366206D01*
X79052328Y-65366202D01*
X78917482Y-65315908D01*
X78917483Y-65315908D01*
X78857883Y-65309501D01*
X78857881Y-65309500D01*
X78857873Y-65309500D01*
X78857864Y-65309500D01*
X75762129Y-65309500D01*
X75762123Y-65309501D01*
X75702516Y-65315908D01*
X75567671Y-65366202D01*
X75567664Y-65366206D01*
X75452455Y-65452452D01*
X75452452Y-65452455D01*
X75366206Y-65567664D01*
X75366202Y-65567671D01*
X75315908Y-65702517D01*
X75309501Y-65762116D01*
X75309501Y-65762123D01*
X75309500Y-65762135D01*
X75309500Y-68857870D01*
X73424317Y-68857870D01*
X72673095Y-68106648D01*
X72639610Y-68045325D01*
X72644594Y-67975633D01*
X72686466Y-67919700D01*
X72692638Y-67915366D01*
X72721844Y-67896157D01*
X72843764Y-67766930D01*
X72843764Y-67766929D01*
X72848720Y-67761677D01*
X72850222Y-67763094D01*
X72897836Y-67727243D01*
X72967514Y-67722063D01*
X73028931Y-67755377D01*
X73029176Y-67755622D01*
X73810115Y-68536562D01*
X73810116Y-68536561D01*
X73916803Y-68394047D01*
X74053908Y-68142958D01*
X74153890Y-67874895D01*
X74214699Y-67595362D01*
X74235109Y-67310001D01*
X74235109Y-67309998D01*
X74214699Y-67024637D01*
X74153890Y-66745104D01*
X74053908Y-66477041D01*
X73916808Y-66225961D01*
X73916807Y-66225960D01*
X73810115Y-66083436D01*
X73025478Y-66868074D01*
X72964155Y-66901559D01*
X72894463Y-66896575D01*
X72838530Y-66854703D01*
X72838334Y-66854441D01*
X72786566Y-66784905D01*
X72739133Y-66745104D01*
X72680871Y-66696215D01*
X72642170Y-66638046D01*
X72641062Y-66568185D01*
X72672897Y-66513547D01*
X73456562Y-65729883D01*
X73456561Y-65729882D01*
X73314046Y-65623196D01*
X73314038Y-65623191D01*
X73062957Y-65486091D01*
X73062958Y-65486091D01*
X72794895Y-65386109D01*
X72515362Y-65325300D01*
X72230001Y-65304891D01*
X72229999Y-65304891D01*
X71944637Y-65325300D01*
X71665104Y-65386109D01*
X71397041Y-65486091D01*
X71145961Y-65623191D01*
X71145953Y-65623196D01*
X71003436Y-65729882D01*
X71003436Y-65729883D01*
X71786904Y-66513351D01*
X71820389Y-66574674D01*
X71815405Y-66644366D01*
X71773533Y-66700299D01*
X71767365Y-66704631D01*
X71738155Y-66723843D01*
X71611280Y-66858323D01*
X71609782Y-66856910D01*
X71562125Y-66892770D01*
X71492446Y-66897927D01*
X71431040Y-66864594D01*
X71430823Y-66864377D01*
X70649883Y-66083436D01*
X70649882Y-66083437D01*
X70543196Y-66225953D01*
X70543191Y-66225961D01*
X70406091Y-66477041D01*
X70306109Y-66745104D01*
X70245300Y-67024637D01*
X70224891Y-67309998D01*
X70224891Y-67310001D01*
X69215000Y-67310001D01*
X69215000Y-62865001D01*
X80609532Y-62865001D01*
X80629364Y-63091686D01*
X80629366Y-63091697D01*
X80688258Y-63311488D01*
X80688261Y-63311497D01*
X80784431Y-63517732D01*
X80784432Y-63517734D01*
X80914954Y-63704141D01*
X81075858Y-63865045D01*
X81236623Y-63977613D01*
X81280248Y-64032189D01*
X81289500Y-64079188D01*
X81289500Y-67227255D01*
X81287775Y-67242872D01*
X81288061Y-67242899D01*
X81287326Y-67250665D01*
X81289500Y-67319814D01*
X81289500Y-67349343D01*
X81289501Y-67349360D01*
X81290368Y-67356231D01*
X81290826Y-67362050D01*
X81292290Y-67408624D01*
X81292291Y-67408627D01*
X81297880Y-67427867D01*
X81301824Y-67446911D01*
X81304336Y-67466791D01*
X81321490Y-67510119D01*
X81323382Y-67515647D01*
X81336381Y-67560388D01*
X81346580Y-67577634D01*
X81355136Y-67595100D01*
X81362252Y-67613070D01*
X81362514Y-67613732D01*
X81389898Y-67651423D01*
X81393106Y-67656307D01*
X81416827Y-67696416D01*
X81416833Y-67696424D01*
X81430990Y-67710580D01*
X81443627Y-67725375D01*
X81455406Y-67741587D01*
X81472075Y-67755377D01*
X81491309Y-67771288D01*
X81495620Y-67775210D01*
X88657076Y-74936666D01*
X95792169Y-82071759D01*
X95825654Y-82133082D01*
X95820671Y-82202770D01*
X95811402Y-82227623D01*
X95811401Y-82227624D01*
X95805000Y-82287155D01*
X95805000Y-82935000D01*
X96541653Y-82935000D01*
X96608692Y-82954685D01*
X96654447Y-83007489D01*
X96664391Y-83076647D01*
X96660631Y-83093933D01*
X96655000Y-83113111D01*
X96655000Y-83256888D01*
X96660631Y-83276067D01*
X96660630Y-83345936D01*
X96622855Y-83404714D01*
X96559299Y-83433738D01*
X96541653Y-83435000D01*
X95805000Y-83435000D01*
X95805000Y-84082844D01*
X95811401Y-84142372D01*
X95811403Y-84142379D01*
X95861645Y-84277086D01*
X95861649Y-84277093D01*
X95947809Y-84392187D01*
X95947812Y-84392190D01*
X96062906Y-84478350D01*
X96062913Y-84478354D01*
X96197620Y-84528596D01*
X96197627Y-84528598D01*
X96257155Y-84534999D01*
X96257172Y-84535000D01*
X96905000Y-84535000D01*
X96905000Y-83797301D01*
X96924685Y-83730262D01*
X96977489Y-83684507D01*
X97046647Y-83674563D01*
X97119237Y-83685000D01*
X97119238Y-83685000D01*
X97190762Y-83685000D01*
X97190763Y-83685000D01*
X97263353Y-83674563D01*
X97332512Y-83684507D01*
X97385315Y-83730262D01*
X97405000Y-83797301D01*
X97405000Y-84535000D01*
X98052828Y-84535000D01*
X98052844Y-84534999D01*
X98112372Y-84528598D01*
X98112379Y-84528596D01*
X98247086Y-84478354D01*
X98247093Y-84478350D01*
X98362187Y-84392190D01*
X98362190Y-84392187D01*
X98448350Y-84277093D01*
X98448354Y-84277086D01*
X98497422Y-84145529D01*
X98539293Y-84089595D01*
X98604757Y-84065178D01*
X98673030Y-84080030D01*
X98701285Y-84101181D01*
X98823599Y-84223495D01*
X98900135Y-84277086D01*
X99017165Y-84359032D01*
X99017167Y-84359033D01*
X99017170Y-84359035D01*
X99231337Y-84458903D01*
X99459592Y-84520063D01*
X99630319Y-84535000D01*
X99694999Y-84540659D01*
X99695000Y-84540659D01*
X99695001Y-84540659D01*
X99759681Y-84535000D01*
X99930408Y-84520063D01*
X100030873Y-84493143D01*
X100100722Y-84494806D01*
X100150646Y-84525236D01*
X101860261Y-86234852D01*
X103494197Y-87868788D01*
X103504022Y-87881051D01*
X103504243Y-87880869D01*
X103509214Y-87886878D01*
X103530043Y-87906437D01*
X103559635Y-87934226D01*
X103580529Y-87955120D01*
X103586011Y-87959373D01*
X103590443Y-87963157D01*
X103624418Y-87995062D01*
X103641976Y-88004714D01*
X103658235Y-88015395D01*
X103674064Y-88027673D01*
X103716838Y-88046182D01*
X103722056Y-88048738D01*
X103762908Y-88071197D01*
X103782316Y-88076180D01*
X103800717Y-88082480D01*
X103819104Y-88090437D01*
X103862488Y-88097308D01*
X103865119Y-88097725D01*
X103870839Y-88098909D01*
X103915981Y-88110500D01*
X103936016Y-88110500D01*
X103955414Y-88112026D01*
X103975194Y-88115159D01*
X103975195Y-88115160D01*
X103975195Y-88115159D01*
X103975196Y-88115160D01*
X104021583Y-88110775D01*
X104027422Y-88110500D01*
X142302257Y-88110500D01*
X142317877Y-88112224D01*
X142317904Y-88111939D01*
X142325660Y-88112671D01*
X142325667Y-88112673D01*
X142394814Y-88110500D01*
X142424350Y-88110500D01*
X142431228Y-88109630D01*
X142437041Y-88109172D01*
X142483627Y-88107709D01*
X142502869Y-88102117D01*
X142521912Y-88098174D01*
X142541792Y-88095664D01*
X142585122Y-88078507D01*
X142590646Y-88076617D01*
X142594396Y-88075527D01*
X142635390Y-88063618D01*
X142652629Y-88053422D01*
X142670103Y-88044862D01*
X142688727Y-88037488D01*
X142688727Y-88037487D01*
X142688732Y-88037486D01*
X142726449Y-88010082D01*
X142731305Y-88006892D01*
X142771420Y-87983170D01*
X142785589Y-87968999D01*
X142800379Y-87956368D01*
X142816587Y-87944594D01*
X142846299Y-87908676D01*
X142850212Y-87904376D01*
X143095178Y-87659411D01*
X143156500Y-87625927D01*
X143214947Y-87627317D01*
X143283308Y-87645635D01*
X143440780Y-87659412D01*
X143509998Y-87665468D01*
X143510000Y-87665468D01*
X143510002Y-87665468D01*
X143570328Y-87660190D01*
X143736692Y-87645635D01*
X143805048Y-87627319D01*
X143874897Y-87628982D01*
X143924822Y-87659413D01*
X144134197Y-87868788D01*
X144144022Y-87881051D01*
X144144243Y-87880869D01*
X144149214Y-87886878D01*
X144170043Y-87906437D01*
X144199635Y-87934226D01*
X144220529Y-87955120D01*
X144226011Y-87959373D01*
X144230443Y-87963157D01*
X144264418Y-87995062D01*
X144281976Y-88004714D01*
X144298235Y-88015395D01*
X144314064Y-88027673D01*
X144356838Y-88046182D01*
X144362056Y-88048738D01*
X144402908Y-88071197D01*
X144422316Y-88076180D01*
X144440717Y-88082480D01*
X144459104Y-88090437D01*
X144502488Y-88097308D01*
X144505119Y-88097725D01*
X144510839Y-88098909D01*
X144555981Y-88110500D01*
X144576016Y-88110500D01*
X144595414Y-88112026D01*
X144615194Y-88115159D01*
X144615195Y-88115160D01*
X144615195Y-88115159D01*
X144615196Y-88115160D01*
X144661583Y-88110775D01*
X144667422Y-88110500D01*
X157542257Y-88110500D01*
X157557877Y-88112224D01*
X157557904Y-88111939D01*
X157565660Y-88112671D01*
X157565667Y-88112673D01*
X157634814Y-88110500D01*
X157664350Y-88110500D01*
X157671228Y-88109630D01*
X157677041Y-88109172D01*
X157723627Y-88107709D01*
X157742869Y-88102117D01*
X157761912Y-88098174D01*
X157781792Y-88095664D01*
X157825122Y-88078507D01*
X157830646Y-88076617D01*
X157834396Y-88075527D01*
X157875390Y-88063618D01*
X157892629Y-88053422D01*
X157910103Y-88044862D01*
X157928727Y-88037488D01*
X157928727Y-88037487D01*
X157928732Y-88037486D01*
X157966449Y-88010082D01*
X157971305Y-88006892D01*
X158011420Y-87983170D01*
X158025589Y-87968999D01*
X158040379Y-87956368D01*
X158056587Y-87944594D01*
X158086299Y-87908676D01*
X158090212Y-87904376D01*
X158335178Y-87659411D01*
X158396500Y-87625927D01*
X158454947Y-87627317D01*
X158523308Y-87645635D01*
X158680780Y-87659412D01*
X158749998Y-87665468D01*
X158750000Y-87665468D01*
X158750002Y-87665468D01*
X158810328Y-87660190D01*
X158976692Y-87645635D01*
X159196496Y-87586739D01*
X159402734Y-87490568D01*
X159589139Y-87360047D01*
X159750047Y-87199139D01*
X159880568Y-87012734D01*
X159907895Y-86954129D01*
X159954064Y-86901695D01*
X160021257Y-86882542D01*
X160088139Y-86902757D01*
X160132657Y-86954133D01*
X160159865Y-87012482D01*
X160290342Y-87198820D01*
X160451179Y-87359657D01*
X160637517Y-87490134D01*
X160843673Y-87586265D01*
X160843682Y-87586269D01*
X161039999Y-87638872D01*
X161040000Y-87638871D01*
X161040000Y-86870575D01*
X161059685Y-86803536D01*
X161112489Y-86757781D01*
X161181647Y-86747837D01*
X161183331Y-86748091D01*
X161215699Y-86753218D01*
X161258515Y-86760000D01*
X161258519Y-86760000D01*
X161321485Y-86760000D01*
X161364300Y-86753218D01*
X161396602Y-86748102D01*
X161465894Y-86757056D01*
X161519347Y-86802052D01*
X161539987Y-86868803D01*
X161540000Y-86870575D01*
X161540000Y-87638872D01*
X161736317Y-87586269D01*
X161736326Y-87586265D01*
X161942482Y-87490134D01*
X162128820Y-87359657D01*
X162289657Y-87198820D01*
X162420134Y-87012481D01*
X162420135Y-87012479D01*
X162447618Y-86953543D01*
X162493790Y-86901103D01*
X162560983Y-86881951D01*
X162627864Y-86902166D01*
X162672382Y-86953543D01*
X162699864Y-87012479D01*
X162699865Y-87012481D01*
X162830342Y-87198820D01*
X162991179Y-87359657D01*
X163177517Y-87490134D01*
X163383673Y-87586265D01*
X163383682Y-87586269D01*
X163579999Y-87638872D01*
X163580000Y-87638871D01*
X163580000Y-86870575D01*
X163599685Y-86803536D01*
X163652489Y-86757781D01*
X163721647Y-86747837D01*
X163723331Y-86748091D01*
X163755699Y-86753218D01*
X163798515Y-86760000D01*
X163798519Y-86760000D01*
X163861485Y-86760000D01*
X163904300Y-86753218D01*
X163936602Y-86748102D01*
X164005894Y-86757056D01*
X164059347Y-86802052D01*
X164079987Y-86868803D01*
X164080000Y-86870575D01*
X164080000Y-87638872D01*
X164276317Y-87586269D01*
X164276326Y-87586265D01*
X164482482Y-87490134D01*
X164668820Y-87359657D01*
X164829657Y-87198820D01*
X164960134Y-87012482D01*
X165056265Y-86806326D01*
X165056269Y-86806317D01*
X165108872Y-86610000D01*
X164340576Y-86610000D01*
X164273537Y-86590315D01*
X164227782Y-86537511D01*
X164217838Y-86468353D01*
X164218103Y-86466603D01*
X164234986Y-86360003D01*
X164234986Y-86359996D01*
X164218103Y-86253397D01*
X164227058Y-86184104D01*
X164272054Y-86130652D01*
X164338806Y-86110013D01*
X164340576Y-86110000D01*
X165108872Y-86110000D01*
X165108872Y-86109999D01*
X165056269Y-85913682D01*
X165056265Y-85913673D01*
X164960134Y-85707517D01*
X164829657Y-85521179D01*
X164668820Y-85360342D01*
X164482482Y-85229865D01*
X164276328Y-85133734D01*
X164080000Y-85081127D01*
X164080000Y-85849424D01*
X164060315Y-85916463D01*
X164007511Y-85962218D01*
X163938353Y-85972162D01*
X163936602Y-85971897D01*
X163861486Y-85960000D01*
X163861481Y-85960000D01*
X163798519Y-85960000D01*
X163798514Y-85960000D01*
X163723398Y-85971897D01*
X163654104Y-85962942D01*
X163600652Y-85917946D01*
X163580013Y-85851194D01*
X163580000Y-85849424D01*
X163580000Y-85081127D01*
X163383671Y-85133734D01*
X163177517Y-85229865D01*
X162991179Y-85360342D01*
X162830342Y-85521179D01*
X162699865Y-85707517D01*
X162672382Y-85766457D01*
X162626210Y-85818896D01*
X162559016Y-85838048D01*
X162492135Y-85817832D01*
X162447618Y-85766457D01*
X162420134Y-85707517D01*
X162289657Y-85521179D01*
X162128820Y-85360342D01*
X161942482Y-85229865D01*
X161736328Y-85133734D01*
X161540000Y-85081127D01*
X161540000Y-85849424D01*
X161520315Y-85916463D01*
X161467511Y-85962218D01*
X161398353Y-85972162D01*
X161396602Y-85971897D01*
X161321486Y-85960000D01*
X161321481Y-85960000D01*
X161258519Y-85960000D01*
X161258514Y-85960000D01*
X161183398Y-85971897D01*
X161114104Y-85962942D01*
X161060652Y-85917946D01*
X161040013Y-85851194D01*
X161040000Y-85849424D01*
X161040000Y-85081127D01*
X160843671Y-85133734D01*
X160637517Y-85229865D01*
X160451179Y-85360342D01*
X160290342Y-85521179D01*
X160159867Y-85707515D01*
X160132657Y-85765867D01*
X160086484Y-85818306D01*
X160019290Y-85837457D01*
X159952409Y-85817241D01*
X159907893Y-85765865D01*
X159880570Y-85707271D01*
X159880567Y-85707265D01*
X159750045Y-85520858D01*
X159589141Y-85359954D01*
X159402734Y-85229432D01*
X159402732Y-85229431D01*
X159196497Y-85133261D01*
X159196488Y-85133258D01*
X158976697Y-85074366D01*
X158976693Y-85074365D01*
X158976692Y-85074365D01*
X158976691Y-85074364D01*
X158976686Y-85074364D01*
X158750002Y-85054532D01*
X158749998Y-85054532D01*
X158523313Y-85074364D01*
X158523302Y-85074366D01*
X158303511Y-85133258D01*
X158303502Y-85133261D01*
X158097267Y-85229431D01*
X158097265Y-85229432D01*
X157910858Y-85359954D01*
X157749954Y-85520858D01*
X157619432Y-85707265D01*
X157619431Y-85707267D01*
X157592382Y-85765275D01*
X157546209Y-85817714D01*
X157479016Y-85836866D01*
X157412135Y-85816650D01*
X157367618Y-85765275D01*
X157340568Y-85707267D01*
X157340567Y-85707265D01*
X157210045Y-85520858D01*
X157049141Y-85359954D01*
X156862734Y-85229432D01*
X156862732Y-85229431D01*
X156656497Y-85133261D01*
X156656488Y-85133258D01*
X156436697Y-85074366D01*
X156436693Y-85074365D01*
X156436692Y-85074365D01*
X156436691Y-85074364D01*
X156436686Y-85074364D01*
X156210002Y-85054532D01*
X156209998Y-85054532D01*
X155983313Y-85074364D01*
X155983302Y-85074366D01*
X155763511Y-85133258D01*
X155763502Y-85133261D01*
X155557267Y-85229431D01*
X155557265Y-85229432D01*
X155370858Y-85359954D01*
X155209954Y-85520858D01*
X155079432Y-85707265D01*
X155079431Y-85707267D01*
X155052382Y-85765275D01*
X155006209Y-85817714D01*
X154939016Y-85836866D01*
X154872135Y-85816650D01*
X154827618Y-85765275D01*
X154800568Y-85707267D01*
X154800567Y-85707265D01*
X154670045Y-85520858D01*
X154509141Y-85359954D01*
X154322734Y-85229432D01*
X154322732Y-85229431D01*
X154116497Y-85133261D01*
X154116488Y-85133258D01*
X153896697Y-85074366D01*
X153896693Y-85074365D01*
X153896692Y-85074365D01*
X153896691Y-85074364D01*
X153896686Y-85074364D01*
X153670002Y-85054532D01*
X153669998Y-85054532D01*
X153443313Y-85074364D01*
X153443302Y-85074366D01*
X153223511Y-85133258D01*
X153223502Y-85133261D01*
X153017267Y-85229431D01*
X153017265Y-85229432D01*
X152830858Y-85359954D01*
X152669954Y-85520858D01*
X152539432Y-85707265D01*
X152539431Y-85707267D01*
X152512382Y-85765275D01*
X152466209Y-85817714D01*
X152399016Y-85836866D01*
X152332135Y-85816650D01*
X152287618Y-85765275D01*
X152260568Y-85707267D01*
X152260567Y-85707265D01*
X152130045Y-85520858D01*
X151969141Y-85359954D01*
X151782734Y-85229432D01*
X151782732Y-85229431D01*
X151576497Y-85133261D01*
X151576488Y-85133258D01*
X151356697Y-85074366D01*
X151356693Y-85074365D01*
X151356692Y-85074365D01*
X151356691Y-85074364D01*
X151356686Y-85074364D01*
X151130002Y-85054532D01*
X151129998Y-85054532D01*
X150903313Y-85074364D01*
X150903302Y-85074366D01*
X150683511Y-85133258D01*
X150683502Y-85133261D01*
X150477267Y-85229431D01*
X150477265Y-85229432D01*
X150290858Y-85359954D01*
X150129954Y-85520858D01*
X149999432Y-85707265D01*
X149999431Y-85707267D01*
X149972382Y-85765275D01*
X149926209Y-85817714D01*
X149859016Y-85836866D01*
X149792135Y-85816650D01*
X149747618Y-85765275D01*
X149720568Y-85707267D01*
X149720567Y-85707265D01*
X149590045Y-85520858D01*
X149429141Y-85359954D01*
X149242734Y-85229432D01*
X149242732Y-85229431D01*
X149036497Y-85133261D01*
X149036488Y-85133258D01*
X148816697Y-85074366D01*
X148816693Y-85074365D01*
X148816692Y-85074365D01*
X148816691Y-85074364D01*
X148816686Y-85074364D01*
X148590002Y-85054532D01*
X148589998Y-85054532D01*
X148363313Y-85074364D01*
X148363302Y-85074366D01*
X148143511Y-85133258D01*
X148143502Y-85133261D01*
X147937267Y-85229431D01*
X147937265Y-85229432D01*
X147750858Y-85359954D01*
X147589954Y-85520858D01*
X147459432Y-85707265D01*
X147459431Y-85707267D01*
X147432382Y-85765275D01*
X147386209Y-85817714D01*
X147319016Y-85836866D01*
X147252135Y-85816650D01*
X147207618Y-85765275D01*
X147180568Y-85707267D01*
X147180567Y-85707265D01*
X147050045Y-85520858D01*
X146889141Y-85359954D01*
X146702734Y-85229432D01*
X146702732Y-85229431D01*
X146496497Y-85133261D01*
X146496488Y-85133258D01*
X146276697Y-85074366D01*
X146276693Y-85074365D01*
X146276692Y-85074365D01*
X146276691Y-85074364D01*
X146276686Y-85074364D01*
X146050002Y-85054532D01*
X146049999Y-85054532D01*
X145823313Y-85074364D01*
X145823296Y-85074367D01*
X145754949Y-85092680D01*
X145685099Y-85091016D01*
X145635177Y-85060586D01*
X145425803Y-84851212D01*
X145415980Y-84838950D01*
X145415759Y-84839134D01*
X145410786Y-84833123D01*
X145410785Y-84833122D01*
X145360364Y-84785773D01*
X145349919Y-84775328D01*
X145339475Y-84764883D01*
X145333986Y-84760625D01*
X145329561Y-84756847D01*
X145295582Y-84724938D01*
X145295580Y-84724936D01*
X145295577Y-84724935D01*
X145278029Y-84715288D01*
X145261763Y-84704604D01*
X145245933Y-84692325D01*
X145203168Y-84673818D01*
X145197922Y-84671248D01*
X145157093Y-84648803D01*
X145157092Y-84648802D01*
X145137693Y-84643822D01*
X145119281Y-84637518D01*
X145100898Y-84629562D01*
X145100892Y-84629560D01*
X145054874Y-84622272D01*
X145049152Y-84621087D01*
X145004021Y-84609500D01*
X145004019Y-84609500D01*
X144983984Y-84609500D01*
X144964586Y-84607973D01*
X144957162Y-84606797D01*
X144944805Y-84604840D01*
X144944804Y-84604840D01*
X144898416Y-84609225D01*
X144892578Y-84609500D01*
X115635033Y-84609500D01*
X115567994Y-84589815D01*
X115522239Y-84537011D01*
X115512295Y-84467853D01*
X115541320Y-84404297D01*
X115582629Y-84373118D01*
X115582692Y-84373088D01*
X115612830Y-84359035D01*
X115806401Y-84223495D01*
X115973495Y-84056401D01*
X116109035Y-83862830D01*
X116208903Y-83648663D01*
X116270063Y-83420408D01*
X116290659Y-83185000D01*
X116270063Y-82949592D01*
X116208903Y-82721337D01*
X116162537Y-82621905D01*
X116152045Y-82552827D01*
X116180565Y-82489043D01*
X116239041Y-82450804D01*
X116274919Y-82445500D01*
X155587257Y-82445500D01*
X155602877Y-82447224D01*
X155602904Y-82446939D01*
X155610660Y-82447671D01*
X155610667Y-82447673D01*
X155679814Y-82445500D01*
X155709350Y-82445500D01*
X155716228Y-82444630D01*
X155722041Y-82444172D01*
X155768627Y-82442709D01*
X155787869Y-82437117D01*
X155806912Y-82433174D01*
X155826792Y-82430664D01*
X155870122Y-82413507D01*
X155875646Y-82411617D01*
X155879396Y-82410527D01*
X155920390Y-82398618D01*
X155937629Y-82388422D01*
X155955103Y-82379862D01*
X155973727Y-82372488D01*
X155973727Y-82372487D01*
X155973732Y-82372486D01*
X156011449Y-82345082D01*
X156016305Y-82341892D01*
X156056420Y-82318170D01*
X156070589Y-82303999D01*
X156085379Y-82291368D01*
X156101587Y-82279594D01*
X156131299Y-82243676D01*
X156135212Y-82239376D01*
X158335178Y-80039410D01*
X158396499Y-80005927D01*
X158454946Y-80007317D01*
X158523308Y-80025635D01*
X158680780Y-80039412D01*
X158749998Y-80045468D01*
X158750000Y-80045468D01*
X158750002Y-80045468D01*
X158819220Y-80039412D01*
X158976692Y-80025635D01*
X159196496Y-79966739D01*
X159402734Y-79870568D01*
X159589139Y-79740047D01*
X159750047Y-79579139D01*
X159880568Y-79392734D01*
X159907618Y-79334724D01*
X159953790Y-79282285D01*
X160020983Y-79263133D01*
X160087865Y-79283348D01*
X160132382Y-79334725D01*
X160159429Y-79392728D01*
X160159432Y-79392734D01*
X160289954Y-79579141D01*
X160450858Y-79740045D01*
X160450861Y-79740047D01*
X160637266Y-79870568D01*
X160843504Y-79966739D01*
X160843509Y-79966740D01*
X160843511Y-79966741D01*
X160845116Y-79967171D01*
X161063308Y-80025635D01*
X161220780Y-80039412D01*
X161289998Y-80045468D01*
X161290000Y-80045468D01*
X161290002Y-80045468D01*
X161359220Y-80039412D01*
X161516692Y-80025635D01*
X161736496Y-79966739D01*
X161942734Y-79870568D01*
X162129139Y-79740047D01*
X162290047Y-79579139D01*
X162420568Y-79392734D01*
X162447895Y-79334129D01*
X162494064Y-79281695D01*
X162561257Y-79262542D01*
X162628139Y-79282757D01*
X162672657Y-79334133D01*
X162699865Y-79392482D01*
X162830342Y-79578820D01*
X162991179Y-79739657D01*
X163177517Y-79870134D01*
X163383673Y-79966265D01*
X163383682Y-79966269D01*
X163579999Y-80018872D01*
X163580000Y-80018871D01*
X163580000Y-79250575D01*
X163599685Y-79183536D01*
X163652489Y-79137781D01*
X163721647Y-79127837D01*
X163723331Y-79128091D01*
X163755699Y-79133218D01*
X163798515Y-79140000D01*
X163798519Y-79140000D01*
X163861485Y-79140000D01*
X163904300Y-79133218D01*
X163936602Y-79128102D01*
X164005894Y-79137056D01*
X164059347Y-79182052D01*
X164079987Y-79248803D01*
X164080000Y-79250575D01*
X164080000Y-80018872D01*
X164276317Y-79966269D01*
X164276326Y-79966265D01*
X164482482Y-79870134D01*
X164668820Y-79739657D01*
X164829657Y-79578820D01*
X164960134Y-79392482D01*
X165056265Y-79186326D01*
X165056269Y-79186317D01*
X165108872Y-78990000D01*
X164340576Y-78990000D01*
X164273537Y-78970315D01*
X164227782Y-78917511D01*
X164217838Y-78848353D01*
X164218103Y-78846603D01*
X164234986Y-78740003D01*
X164234986Y-78739996D01*
X164218103Y-78633397D01*
X164227058Y-78564104D01*
X164272054Y-78510652D01*
X164338806Y-78490013D01*
X164340576Y-78490000D01*
X165108872Y-78490000D01*
X165108872Y-78489999D01*
X165056269Y-78293682D01*
X165056265Y-78293673D01*
X164960134Y-78087517D01*
X164829657Y-77901179D01*
X164668820Y-77740342D01*
X164482482Y-77609865D01*
X164276328Y-77513734D01*
X164080000Y-77461127D01*
X164080000Y-78229424D01*
X164060315Y-78296463D01*
X164007511Y-78342218D01*
X163938353Y-78352162D01*
X163936602Y-78351897D01*
X163861486Y-78340000D01*
X163861481Y-78340000D01*
X163798519Y-78340000D01*
X163798514Y-78340000D01*
X163723398Y-78351897D01*
X163654104Y-78342942D01*
X163600652Y-78297946D01*
X163580013Y-78231194D01*
X163580000Y-78229424D01*
X163580000Y-77461127D01*
X163383671Y-77513734D01*
X163177517Y-77609865D01*
X162991179Y-77740342D01*
X162830342Y-77901179D01*
X162699867Y-78087515D01*
X162672657Y-78145867D01*
X162626484Y-78198306D01*
X162559290Y-78217457D01*
X162492409Y-78197241D01*
X162447893Y-78145865D01*
X162420570Y-78087271D01*
X162420567Y-78087265D01*
X162290045Y-77900858D01*
X162129141Y-77739954D01*
X161942734Y-77609432D01*
X161942732Y-77609431D01*
X161736497Y-77513261D01*
X161736488Y-77513258D01*
X161516697Y-77454366D01*
X161516693Y-77454365D01*
X161516692Y-77454365D01*
X161516691Y-77454364D01*
X161516686Y-77454364D01*
X161290002Y-77434532D01*
X161289999Y-77434532D01*
X161063313Y-77454364D01*
X161063296Y-77454367D01*
X160994949Y-77472680D01*
X160925099Y-77471016D01*
X160875177Y-77440586D01*
X160665803Y-77231212D01*
X160655980Y-77218950D01*
X160655759Y-77219134D01*
X160650786Y-77213123D01*
X160632159Y-77195631D01*
X160600364Y-77165773D01*
X160589919Y-77155328D01*
X160579475Y-77144883D01*
X160573986Y-77140625D01*
X160569561Y-77136847D01*
X160535582Y-77104938D01*
X160535580Y-77104936D01*
X160535577Y-77104935D01*
X160518029Y-77095288D01*
X160501763Y-77084604D01*
X160485933Y-77072325D01*
X160443168Y-77053818D01*
X160437922Y-77051248D01*
X160397093Y-77028803D01*
X160397092Y-77028802D01*
X160377693Y-77023822D01*
X160359281Y-77017518D01*
X160340898Y-77009562D01*
X160340892Y-77009560D01*
X160294874Y-77002272D01*
X160289152Y-77001087D01*
X160244021Y-76989500D01*
X160244019Y-76989500D01*
X160223984Y-76989500D01*
X160204586Y-76987973D01*
X160197162Y-76986797D01*
X160184805Y-76984840D01*
X160184804Y-76984840D01*
X160138416Y-76989225D01*
X160132578Y-76989500D01*
X105347738Y-76989500D01*
X105332121Y-76987776D01*
X105332094Y-76988062D01*
X105324332Y-76987327D01*
X105255204Y-76989500D01*
X105225650Y-76989500D01*
X105224929Y-76989590D01*
X105218757Y-76990369D01*
X105212945Y-76990826D01*
X105166373Y-76992290D01*
X105166372Y-76992290D01*
X105147129Y-76997881D01*
X105128079Y-77001825D01*
X105108211Y-77004334D01*
X105064884Y-77021488D01*
X105059358Y-77023379D01*
X105014614Y-77036379D01*
X105014610Y-77036381D01*
X104997366Y-77046579D01*
X104979905Y-77055133D01*
X104961274Y-77062510D01*
X104961262Y-77062517D01*
X104923570Y-77089902D01*
X104918687Y-77093109D01*
X104878580Y-77116829D01*
X104864414Y-77130995D01*
X104849624Y-77143627D01*
X104833414Y-77155404D01*
X104833411Y-77155407D01*
X104803710Y-77191309D01*
X104799777Y-77195631D01*
X102690646Y-79304761D01*
X102629323Y-79338246D01*
X102570873Y-79336855D01*
X102470408Y-79309937D01*
X102235001Y-79289341D01*
X102234999Y-79289341D01*
X101999596Y-79309936D01*
X101999586Y-79309938D01*
X101771344Y-79371094D01*
X101771335Y-79371098D01*
X101557171Y-79470964D01*
X101557169Y-79470965D01*
X101363597Y-79606505D01*
X101196505Y-79773597D01*
X101066575Y-79959158D01*
X101011998Y-80002783D01*
X100942500Y-80009977D01*
X100880145Y-79978454D01*
X100863425Y-79959158D01*
X100733494Y-79773597D01*
X100566402Y-79606506D01*
X100566396Y-79606502D01*
X100526863Y-79578820D01*
X100372834Y-79470967D01*
X100372830Y-79470965D01*
X100372828Y-79470964D01*
X100158663Y-79371097D01*
X100158659Y-79371096D01*
X100158655Y-79371094D01*
X99930413Y-79309938D01*
X99930403Y-79309936D01*
X99695001Y-79289341D01*
X99694999Y-79289341D01*
X99459596Y-79309936D01*
X99459586Y-79309938D01*
X99231344Y-79371094D01*
X99231335Y-79371098D01*
X99017171Y-79470964D01*
X99017169Y-79470965D01*
X98823597Y-79606505D01*
X98656505Y-79773597D01*
X98526575Y-79959158D01*
X98471998Y-80002783D01*
X98402500Y-80009977D01*
X98340145Y-79978454D01*
X98323425Y-79959158D01*
X98193494Y-79773597D01*
X98026402Y-79606506D01*
X98026396Y-79606502D01*
X97986863Y-79578820D01*
X97832834Y-79470967D01*
X97832830Y-79470965D01*
X97832828Y-79470964D01*
X97618663Y-79371097D01*
X97618659Y-79371096D01*
X97618655Y-79371094D01*
X97390413Y-79309938D01*
X97390403Y-79309936D01*
X97155001Y-79289341D01*
X97154999Y-79289341D01*
X96919596Y-79309936D01*
X96919586Y-79309938D01*
X96691344Y-79371094D01*
X96691335Y-79371098D01*
X96477171Y-79470964D01*
X96477169Y-79470965D01*
X96283597Y-79606505D01*
X96116505Y-79773597D01*
X95980965Y-79967169D01*
X95980964Y-79967171D01*
X95889101Y-80164172D01*
X95842928Y-80216611D01*
X95775735Y-80235763D01*
X95708854Y-80215547D01*
X95689038Y-80199448D01*
X91054590Y-75565000D01*
X106409540Y-75565000D01*
X106429326Y-75753256D01*
X106429327Y-75753259D01*
X106487818Y-75933277D01*
X106487821Y-75933284D01*
X106582467Y-76097216D01*
X106680000Y-76205537D01*
X106709129Y-76237888D01*
X106862265Y-76349148D01*
X106862270Y-76349151D01*
X107035192Y-76426142D01*
X107035197Y-76426144D01*
X107220354Y-76465500D01*
X107220355Y-76465500D01*
X107409644Y-76465500D01*
X107409646Y-76465500D01*
X107594803Y-76426144D01*
X107767730Y-76349151D01*
X107877117Y-76269676D01*
X107942920Y-76246198D01*
X108010974Y-76262023D01*
X108022871Y-76269668D01*
X108132266Y-76349148D01*
X108132270Y-76349151D01*
X108305192Y-76426142D01*
X108305197Y-76426144D01*
X108490354Y-76465500D01*
X108490355Y-76465500D01*
X108679644Y-76465500D01*
X108679646Y-76465500D01*
X108864803Y-76426144D01*
X109037730Y-76349151D01*
X109147117Y-76269676D01*
X109212920Y-76246198D01*
X109280974Y-76262023D01*
X109292871Y-76269668D01*
X109402266Y-76349148D01*
X109402270Y-76349151D01*
X109575192Y-76426142D01*
X109575197Y-76426144D01*
X109760354Y-76465500D01*
X109760355Y-76465500D01*
X109949644Y-76465500D01*
X109949646Y-76465500D01*
X110134803Y-76426144D01*
X110307730Y-76349151D01*
X110460871Y-76237888D01*
X110463788Y-76234647D01*
X110466600Y-76231526D01*
X110526087Y-76194879D01*
X110558748Y-76190500D01*
X142792257Y-76190500D01*
X142807877Y-76192224D01*
X142807904Y-76191939D01*
X142815660Y-76192671D01*
X142815667Y-76192673D01*
X142884814Y-76190500D01*
X142914350Y-76190500D01*
X142921228Y-76189630D01*
X142927041Y-76189172D01*
X142973627Y-76187709D01*
X142992869Y-76182117D01*
X143011912Y-76178174D01*
X143031792Y-76175664D01*
X143075122Y-76158507D01*
X143080646Y-76156617D01*
X143084396Y-76155527D01*
X143125390Y-76143618D01*
X143142629Y-76133422D01*
X143160103Y-76124862D01*
X143178727Y-76117488D01*
X143178727Y-76117487D01*
X143178732Y-76117486D01*
X143216449Y-76090082D01*
X143221305Y-76086892D01*
X143261420Y-76063170D01*
X143275589Y-76048999D01*
X143290379Y-76036368D01*
X143306587Y-76024594D01*
X143336299Y-75988676D01*
X143340212Y-75984376D01*
X145000179Y-74324410D01*
X145061500Y-74290927D01*
X145119947Y-74292317D01*
X145188308Y-74310635D01*
X145345780Y-74324412D01*
X145414998Y-74330468D01*
X145415000Y-74330468D01*
X145415002Y-74330468D01*
X145484220Y-74324412D01*
X145641692Y-74310635D01*
X145861496Y-74251739D01*
X146067734Y-74155568D01*
X146254139Y-74025047D01*
X146415047Y-73864139D01*
X146545568Y-73677734D01*
X146641739Y-73471496D01*
X146700635Y-73251692D01*
X146720468Y-73025000D01*
X146700635Y-72798308D01*
X146682319Y-72729951D01*
X146669362Y-72681593D01*
X146671025Y-72611743D01*
X146710188Y-72553881D01*
X146774417Y-72526377D01*
X146789137Y-72525500D01*
X159854547Y-72525500D01*
X159921586Y-72545185D01*
X159942229Y-72561820D01*
X159990587Y-72610179D01*
X160024071Y-72671502D01*
X160022680Y-72729951D01*
X160004367Y-72798300D01*
X160004364Y-72798313D01*
X159984532Y-73024999D01*
X159984532Y-73025001D01*
X160004364Y-73251686D01*
X160004366Y-73251697D01*
X160063258Y-73471488D01*
X160063261Y-73471497D01*
X160159431Y-73677732D01*
X160159432Y-73677734D01*
X160289954Y-73864141D01*
X160450858Y-74025045D01*
X160450861Y-74025047D01*
X160637266Y-74155568D01*
X160843504Y-74251739D01*
X161063308Y-74310635D01*
X161220780Y-74324412D01*
X161289998Y-74330468D01*
X161290000Y-74330468D01*
X161290002Y-74330468D01*
X161359220Y-74324412D01*
X161516692Y-74310635D01*
X161736496Y-74251739D01*
X161942734Y-74155568D01*
X162129139Y-74025047D01*
X162290047Y-73864139D01*
X162420568Y-73677734D01*
X162516739Y-73471496D01*
X162575635Y-73251692D01*
X162595468Y-73025000D01*
X162575635Y-72798308D01*
X162516739Y-72578504D01*
X162420568Y-72372266D01*
X162349396Y-72270621D01*
X162327070Y-72204417D01*
X162344080Y-72136650D01*
X162395028Y-72088837D01*
X162450972Y-72075500D01*
X175279548Y-72075500D01*
X175346587Y-72095185D01*
X175367229Y-72111819D01*
X175865586Y-72610177D01*
X175899071Y-72671500D01*
X175897680Y-72729949D01*
X175879367Y-72798296D01*
X175879364Y-72798313D01*
X175859532Y-73024999D01*
X175859532Y-73025001D01*
X175879364Y-73251686D01*
X175879366Y-73251697D01*
X175938258Y-73471488D01*
X175938261Y-73471497D01*
X176034431Y-73677732D01*
X176034432Y-73677734D01*
X176164954Y-73864141D01*
X176325858Y-74025045D01*
X176325861Y-74025047D01*
X176512266Y-74155568D01*
X176718504Y-74251739D01*
X176938308Y-74310635D01*
X177095780Y-74324412D01*
X177164998Y-74330468D01*
X177165000Y-74330468D01*
X177165002Y-74330468D01*
X177234220Y-74324412D01*
X177391692Y-74310635D01*
X177611496Y-74251739D01*
X177817734Y-74155568D01*
X178004139Y-74025047D01*
X178165047Y-73864139D01*
X178295568Y-73677734D01*
X178391739Y-73471496D01*
X178450635Y-73251692D01*
X178470468Y-73025001D01*
X191734532Y-73025001D01*
X191754364Y-73251686D01*
X191754366Y-73251697D01*
X191813258Y-73471488D01*
X191813261Y-73471497D01*
X191909431Y-73677732D01*
X191909432Y-73677734D01*
X192039954Y-73864141D01*
X192200858Y-74025045D01*
X192200861Y-74025047D01*
X192387266Y-74155568D01*
X192593504Y-74251739D01*
X192813308Y-74310635D01*
X192970780Y-74324412D01*
X193039998Y-74330468D01*
X193040000Y-74330468D01*
X193040002Y-74330468D01*
X193109220Y-74324412D01*
X193266692Y-74310635D01*
X193486496Y-74251739D01*
X193692734Y-74155568D01*
X193879139Y-74025047D01*
X194040047Y-73864139D01*
X194170568Y-73677734D01*
X194266739Y-73471496D01*
X194325635Y-73251692D01*
X194345468Y-73025000D01*
X194325635Y-72798308D01*
X194266739Y-72578504D01*
X194170568Y-72372266D01*
X194040047Y-72185861D01*
X194040045Y-72185858D01*
X193879141Y-72024954D01*
X193692734Y-71894432D01*
X193692732Y-71894431D01*
X193486497Y-71798261D01*
X193486488Y-71798258D01*
X193266697Y-71739366D01*
X193266693Y-71739365D01*
X193266692Y-71739365D01*
X193266691Y-71739364D01*
X193266686Y-71739364D01*
X193040002Y-71719532D01*
X193039998Y-71719532D01*
X192813313Y-71739364D01*
X192813302Y-71739366D01*
X192593511Y-71798258D01*
X192593502Y-71798261D01*
X192387267Y-71894431D01*
X192387265Y-71894432D01*
X192200858Y-72024954D01*
X192039954Y-72185858D01*
X191909432Y-72372265D01*
X191909431Y-72372267D01*
X191813261Y-72578502D01*
X191813258Y-72578511D01*
X191754366Y-72798302D01*
X191754364Y-72798313D01*
X191734532Y-73024998D01*
X191734532Y-73025001D01*
X178470468Y-73025001D01*
X178470468Y-73025000D01*
X178450635Y-72798308D01*
X178391739Y-72578504D01*
X178295568Y-72372266D01*
X178165047Y-72185861D01*
X178165045Y-72185858D01*
X178004141Y-72024954D01*
X177817734Y-71894432D01*
X177817732Y-71894431D01*
X177611497Y-71798261D01*
X177611488Y-71798258D01*
X177391697Y-71739366D01*
X177391693Y-71739365D01*
X177391692Y-71739365D01*
X177391691Y-71739364D01*
X177391686Y-71739364D01*
X177165002Y-71719532D01*
X177164999Y-71719532D01*
X176938313Y-71739364D01*
X176938296Y-71739367D01*
X176869949Y-71757680D01*
X176800099Y-71756016D01*
X176750177Y-71725586D01*
X176090803Y-71066212D01*
X176080980Y-71053950D01*
X176080759Y-71054134D01*
X176075786Y-71048123D01*
X176057159Y-71030631D01*
X176025364Y-71000773D01*
X176014919Y-70990328D01*
X176004475Y-70979883D01*
X175998986Y-70975625D01*
X175994561Y-70971847D01*
X175960582Y-70939938D01*
X175960580Y-70939936D01*
X175960577Y-70939935D01*
X175943029Y-70930288D01*
X175926763Y-70919604D01*
X175910933Y-70907325D01*
X175868168Y-70888818D01*
X175862922Y-70886248D01*
X175822093Y-70863803D01*
X175822092Y-70863802D01*
X175802693Y-70858822D01*
X175784281Y-70852518D01*
X175765898Y-70844562D01*
X175765892Y-70844560D01*
X175719874Y-70837272D01*
X175714152Y-70836087D01*
X175669021Y-70824500D01*
X175669019Y-70824500D01*
X175648984Y-70824500D01*
X175629586Y-70822973D01*
X175622162Y-70821797D01*
X175609805Y-70819840D01*
X175609804Y-70819840D01*
X175563416Y-70824225D01*
X175557578Y-70824500D01*
X111512743Y-70824500D01*
X111497122Y-70822775D01*
X111497096Y-70823061D01*
X111489334Y-70822327D01*
X111489333Y-70822327D01*
X111420186Y-70824500D01*
X111390649Y-70824500D01*
X111383766Y-70825369D01*
X111377949Y-70825826D01*
X111331373Y-70827290D01*
X111312129Y-70832881D01*
X111293079Y-70836825D01*
X111273211Y-70839334D01*
X111229884Y-70856488D01*
X111224358Y-70858379D01*
X111179614Y-70871379D01*
X111179610Y-70871381D01*
X111162366Y-70881579D01*
X111144905Y-70890133D01*
X111126274Y-70897510D01*
X111126262Y-70897517D01*
X111088570Y-70924902D01*
X111083687Y-70928109D01*
X111043580Y-70951829D01*
X111029414Y-70965995D01*
X111014624Y-70978627D01*
X110998414Y-70990404D01*
X110998411Y-70990407D01*
X110968710Y-71026309D01*
X110964777Y-71030631D01*
X107367228Y-74628181D01*
X107305905Y-74661666D01*
X107279547Y-74664500D01*
X107220354Y-74664500D01*
X107187897Y-74671398D01*
X107035197Y-74703855D01*
X107035192Y-74703857D01*
X106862270Y-74780848D01*
X106862265Y-74780851D01*
X106709129Y-74892111D01*
X106582466Y-75032785D01*
X106487821Y-75196715D01*
X106487818Y-75196722D01*
X106429327Y-75376740D01*
X106429326Y-75376744D01*
X106409540Y-75565000D01*
X91054590Y-75565000D01*
X89167324Y-73677734D01*
X88514591Y-73025001D01*
X96484532Y-73025001D01*
X96504364Y-73251686D01*
X96504366Y-73251697D01*
X96563258Y-73471488D01*
X96563261Y-73471497D01*
X96659431Y-73677732D01*
X96659432Y-73677734D01*
X96789954Y-73864141D01*
X96950858Y-74025045D01*
X96950861Y-74025047D01*
X97137266Y-74155568D01*
X97343504Y-74251739D01*
X97563308Y-74310635D01*
X97720780Y-74324412D01*
X97789998Y-74330468D01*
X97790000Y-74330468D01*
X97790002Y-74330468D01*
X97859220Y-74324412D01*
X98016692Y-74310635D01*
X98236496Y-74251739D01*
X98442734Y-74155568D01*
X98629139Y-74025047D01*
X98790047Y-73864139D01*
X98920568Y-73677734D01*
X99016739Y-73471496D01*
X99075635Y-73251692D01*
X99095468Y-73025000D01*
X99075635Y-72798308D01*
X99016739Y-72578504D01*
X98920568Y-72372266D01*
X98790047Y-72185861D01*
X98790045Y-72185858D01*
X98629141Y-72024954D01*
X98442734Y-71894432D01*
X98442732Y-71894431D01*
X98236497Y-71798261D01*
X98236488Y-71798258D01*
X98016697Y-71739366D01*
X98016693Y-71739365D01*
X98016692Y-71739365D01*
X98016691Y-71739364D01*
X98016686Y-71739364D01*
X97790002Y-71719532D01*
X97789998Y-71719532D01*
X97563313Y-71739364D01*
X97563302Y-71739366D01*
X97343511Y-71798258D01*
X97343502Y-71798261D01*
X97137267Y-71894431D01*
X97137265Y-71894432D01*
X96950858Y-72024954D01*
X96789954Y-72185858D01*
X96659432Y-72372265D01*
X96659431Y-72372267D01*
X96563261Y-72578502D01*
X96563258Y-72578511D01*
X96504366Y-72798302D01*
X96504364Y-72798313D01*
X96484532Y-73024998D01*
X96484532Y-73025001D01*
X88514591Y-73025001D01*
X82799592Y-67310001D01*
X86099891Y-67310001D01*
X86120300Y-67595362D01*
X86181109Y-67874895D01*
X86281091Y-68142958D01*
X86418191Y-68394038D01*
X86418196Y-68394046D01*
X86524882Y-68536561D01*
X86524883Y-68536562D01*
X87309520Y-67751924D01*
X87370843Y-67718439D01*
X87440534Y-67723423D01*
X87496468Y-67765294D01*
X87496664Y-67765557D01*
X87548433Y-67835094D01*
X87654125Y-67923781D01*
X87692827Y-67981952D01*
X87693935Y-68051813D01*
X87662100Y-68106451D01*
X86878436Y-68890114D01*
X86878436Y-68890115D01*
X87020960Y-68996807D01*
X87020961Y-68996808D01*
X87272042Y-69133908D01*
X87272041Y-69133908D01*
X87540104Y-69233890D01*
X87819637Y-69294699D01*
X88104999Y-69315109D01*
X88105001Y-69315109D01*
X88390362Y-69294699D01*
X88669895Y-69233890D01*
X88937958Y-69133908D01*
X89189047Y-68996803D01*
X89331561Y-68890116D01*
X89331562Y-68890115D01*
X89299317Y-68857870D01*
X91184500Y-68857870D01*
X91184501Y-68857876D01*
X91190908Y-68917483D01*
X91241202Y-69052328D01*
X91241206Y-69052335D01*
X91327452Y-69167544D01*
X91327455Y-69167547D01*
X91442664Y-69253793D01*
X91442671Y-69253797D01*
X91577517Y-69304091D01*
X91577516Y-69304091D01*
X91584444Y-69304835D01*
X91637127Y-69310500D01*
X94732872Y-69310499D01*
X94792483Y-69304091D01*
X94927331Y-69253796D01*
X95042546Y-69167546D01*
X95128796Y-69052331D01*
X95179091Y-68917483D01*
X95185500Y-68857873D01*
X95185500Y-67310001D01*
X101974891Y-67310001D01*
X101995300Y-67595362D01*
X102056109Y-67874895D01*
X102156091Y-68142958D01*
X102293191Y-68394038D01*
X102293196Y-68394046D01*
X102399882Y-68536561D01*
X102399883Y-68536562D01*
X103184520Y-67751924D01*
X103245843Y-67718439D01*
X103315534Y-67723423D01*
X103371468Y-67765294D01*
X103371664Y-67765557D01*
X103423433Y-67835094D01*
X103529125Y-67923781D01*
X103567827Y-67981952D01*
X103568935Y-68051813D01*
X103537100Y-68106451D01*
X102753436Y-68890114D01*
X102753436Y-68890115D01*
X102895960Y-68996807D01*
X102895961Y-68996808D01*
X103147042Y-69133908D01*
X103147041Y-69133908D01*
X103415104Y-69233890D01*
X103694637Y-69294699D01*
X103979999Y-69315109D01*
X103980001Y-69315109D01*
X104265362Y-69294699D01*
X104544895Y-69233890D01*
X104812958Y-69133908D01*
X105064047Y-68996803D01*
X105206561Y-68890116D01*
X105206562Y-68890115D01*
X105174317Y-68857870D01*
X107059500Y-68857870D01*
X107059501Y-68857876D01*
X107065908Y-68917483D01*
X107116202Y-69052328D01*
X107116206Y-69052335D01*
X107202452Y-69167544D01*
X107202455Y-69167547D01*
X107317664Y-69253793D01*
X107317671Y-69253797D01*
X107452517Y-69304091D01*
X107452516Y-69304091D01*
X107459444Y-69304835D01*
X107512127Y-69310500D01*
X110607872Y-69310499D01*
X110667483Y-69304091D01*
X110802331Y-69253796D01*
X110917546Y-69167546D01*
X111003796Y-69052331D01*
X111054091Y-68917483D01*
X111060500Y-68857873D01*
X111060500Y-67310001D01*
X117849891Y-67310001D01*
X117870300Y-67595362D01*
X117931109Y-67874895D01*
X118031091Y-68142958D01*
X118168191Y-68394038D01*
X118168196Y-68394046D01*
X118274882Y-68536561D01*
X118274883Y-68536562D01*
X119059520Y-67751924D01*
X119120843Y-67718439D01*
X119190534Y-67723423D01*
X119246468Y-67765294D01*
X119246664Y-67765557D01*
X119298433Y-67835094D01*
X119404125Y-67923781D01*
X119442827Y-67981952D01*
X119443935Y-68051813D01*
X119412100Y-68106451D01*
X118628436Y-68890114D01*
X118628436Y-68890115D01*
X118770960Y-68996807D01*
X118770961Y-68996808D01*
X119022042Y-69133908D01*
X119022041Y-69133908D01*
X119290104Y-69233890D01*
X119569637Y-69294699D01*
X119854999Y-69315109D01*
X119855001Y-69315109D01*
X120140362Y-69294699D01*
X120419895Y-69233890D01*
X120687958Y-69133908D01*
X120939047Y-68996803D01*
X121081561Y-68890116D01*
X121081562Y-68890115D01*
X121049317Y-68857870D01*
X122934500Y-68857870D01*
X122934501Y-68857876D01*
X122940908Y-68917483D01*
X122991202Y-69052328D01*
X122991206Y-69052335D01*
X123077452Y-69167544D01*
X123077455Y-69167547D01*
X123192664Y-69253793D01*
X123192671Y-69253797D01*
X123327517Y-69304091D01*
X123327516Y-69304091D01*
X123334444Y-69304835D01*
X123387127Y-69310500D01*
X126482872Y-69310499D01*
X126542483Y-69304091D01*
X126677331Y-69253796D01*
X126792546Y-69167546D01*
X126878796Y-69052331D01*
X126929091Y-68917483D01*
X126935500Y-68857873D01*
X126935500Y-67310001D01*
X133724891Y-67310001D01*
X133745300Y-67595362D01*
X133806109Y-67874895D01*
X133906091Y-68142958D01*
X134043191Y-68394038D01*
X134043196Y-68394046D01*
X134149882Y-68536561D01*
X134149883Y-68536562D01*
X134934520Y-67751924D01*
X134995843Y-67718439D01*
X135065534Y-67723423D01*
X135121468Y-67765294D01*
X135121664Y-67765557D01*
X135173433Y-67835094D01*
X135279125Y-67923781D01*
X135317827Y-67981952D01*
X135318935Y-68051813D01*
X135287100Y-68106451D01*
X134503436Y-68890114D01*
X134503436Y-68890115D01*
X134645960Y-68996807D01*
X134645961Y-68996808D01*
X134897042Y-69133908D01*
X134897041Y-69133908D01*
X135165104Y-69233890D01*
X135444637Y-69294699D01*
X135729999Y-69315109D01*
X135730001Y-69315109D01*
X136015362Y-69294699D01*
X136294895Y-69233890D01*
X136562958Y-69133908D01*
X136814047Y-68996803D01*
X136956561Y-68890116D01*
X136956562Y-68890115D01*
X136924317Y-68857870D01*
X138809500Y-68857870D01*
X138809501Y-68857876D01*
X138815908Y-68917483D01*
X138866202Y-69052328D01*
X138866206Y-69052335D01*
X138952452Y-69167544D01*
X138952455Y-69167547D01*
X139067664Y-69253793D01*
X139067671Y-69253797D01*
X139202517Y-69304091D01*
X139202516Y-69304091D01*
X139209444Y-69304835D01*
X139262127Y-69310500D01*
X142357872Y-69310499D01*
X142417483Y-69304091D01*
X142552331Y-69253796D01*
X142667546Y-69167546D01*
X142753796Y-69052331D01*
X142804091Y-68917483D01*
X142810500Y-68857873D01*
X142810500Y-67310001D01*
X149599891Y-67310001D01*
X149620300Y-67595362D01*
X149681109Y-67874895D01*
X149781091Y-68142958D01*
X149918191Y-68394038D01*
X149918196Y-68394046D01*
X150024882Y-68536561D01*
X150024883Y-68536562D01*
X150809520Y-67751924D01*
X150870843Y-67718439D01*
X150940534Y-67723423D01*
X150996468Y-67765294D01*
X150996664Y-67765557D01*
X151048433Y-67835094D01*
X151154125Y-67923781D01*
X151192827Y-67981952D01*
X151193935Y-68051813D01*
X151162100Y-68106451D01*
X150378436Y-68890114D01*
X150378436Y-68890115D01*
X150520960Y-68996807D01*
X150520961Y-68996808D01*
X150772042Y-69133908D01*
X150772041Y-69133908D01*
X151040104Y-69233890D01*
X151319637Y-69294699D01*
X151604999Y-69315109D01*
X151605001Y-69315109D01*
X151890362Y-69294699D01*
X152169895Y-69233890D01*
X152437958Y-69133908D01*
X152689047Y-68996803D01*
X152831561Y-68890116D01*
X152831562Y-68890115D01*
X152799317Y-68857870D01*
X154684500Y-68857870D01*
X154684501Y-68857876D01*
X154690908Y-68917483D01*
X154741202Y-69052328D01*
X154741206Y-69052335D01*
X154827452Y-69167544D01*
X154827455Y-69167547D01*
X154942664Y-69253793D01*
X154942671Y-69253797D01*
X155077517Y-69304091D01*
X155077516Y-69304091D01*
X155084444Y-69304835D01*
X155137127Y-69310500D01*
X158232872Y-69310499D01*
X158292483Y-69304091D01*
X158427331Y-69253796D01*
X158542546Y-69167546D01*
X158628796Y-69052331D01*
X158679091Y-68917483D01*
X158685500Y-68857873D01*
X158685500Y-67310001D01*
X165474891Y-67310001D01*
X165495300Y-67595362D01*
X165556109Y-67874895D01*
X165656091Y-68142958D01*
X165793191Y-68394038D01*
X165793196Y-68394046D01*
X165899882Y-68536561D01*
X165899883Y-68536562D01*
X166684520Y-67751924D01*
X166745843Y-67718439D01*
X166815534Y-67723423D01*
X166871468Y-67765294D01*
X166871664Y-67765557D01*
X166923433Y-67835094D01*
X167029125Y-67923781D01*
X167067827Y-67981952D01*
X167068935Y-68051813D01*
X167037100Y-68106451D01*
X166253436Y-68890114D01*
X166253436Y-68890115D01*
X166395960Y-68996807D01*
X166395961Y-68996808D01*
X166647042Y-69133908D01*
X166647041Y-69133908D01*
X166915104Y-69233890D01*
X167194637Y-69294699D01*
X167479999Y-69315109D01*
X167480001Y-69315109D01*
X167765362Y-69294699D01*
X168044895Y-69233890D01*
X168312958Y-69133908D01*
X168564047Y-68996803D01*
X168706561Y-68890116D01*
X168706562Y-68890115D01*
X168674317Y-68857870D01*
X170559500Y-68857870D01*
X170559501Y-68857876D01*
X170565908Y-68917483D01*
X170616202Y-69052328D01*
X170616206Y-69052335D01*
X170702452Y-69167544D01*
X170702455Y-69167547D01*
X170817664Y-69253793D01*
X170817671Y-69253797D01*
X170952517Y-69304091D01*
X170952516Y-69304091D01*
X170959444Y-69304835D01*
X171012127Y-69310500D01*
X174107872Y-69310499D01*
X174167483Y-69304091D01*
X174302331Y-69253796D01*
X174417546Y-69167546D01*
X174503796Y-69052331D01*
X174554091Y-68917483D01*
X174560500Y-68857873D01*
X174560500Y-67310001D01*
X181349891Y-67310001D01*
X181370300Y-67595362D01*
X181431109Y-67874895D01*
X181531091Y-68142958D01*
X181668191Y-68394038D01*
X181668196Y-68394046D01*
X181774882Y-68536561D01*
X181774883Y-68536562D01*
X182559520Y-67751924D01*
X182620843Y-67718439D01*
X182690534Y-67723423D01*
X182746468Y-67765294D01*
X182746664Y-67765557D01*
X182798433Y-67835094D01*
X182904125Y-67923781D01*
X182942827Y-67981952D01*
X182943935Y-68051813D01*
X182912100Y-68106451D01*
X182128436Y-68890114D01*
X182128436Y-68890115D01*
X182270960Y-68996807D01*
X182270961Y-68996808D01*
X182522042Y-69133908D01*
X182522041Y-69133908D01*
X182790104Y-69233890D01*
X183069637Y-69294699D01*
X183354999Y-69315109D01*
X183355001Y-69315109D01*
X183640362Y-69294699D01*
X183919895Y-69233890D01*
X184187958Y-69133908D01*
X184439047Y-68996803D01*
X184581561Y-68890116D01*
X184581562Y-68890115D01*
X184549317Y-68857870D01*
X186434500Y-68857870D01*
X186434501Y-68857876D01*
X186440908Y-68917483D01*
X186491202Y-69052328D01*
X186491206Y-69052335D01*
X186577452Y-69167544D01*
X186577455Y-69167547D01*
X186692664Y-69253793D01*
X186692671Y-69253797D01*
X186827517Y-69304091D01*
X186827516Y-69304091D01*
X186834444Y-69304835D01*
X186887127Y-69310500D01*
X189982872Y-69310499D01*
X190042483Y-69304091D01*
X190177331Y-69253796D01*
X190292546Y-69167546D01*
X190378796Y-69052331D01*
X190429091Y-68917483D01*
X190435500Y-68857873D01*
X190435499Y-65762128D01*
X190429091Y-65702517D01*
X190399506Y-65623196D01*
X190378797Y-65567671D01*
X190378793Y-65567664D01*
X190292547Y-65452455D01*
X190292544Y-65452452D01*
X190177335Y-65366206D01*
X190177328Y-65366202D01*
X190042482Y-65315908D01*
X190042483Y-65315908D01*
X189982883Y-65309501D01*
X189982881Y-65309500D01*
X189982873Y-65309500D01*
X189982864Y-65309500D01*
X186887129Y-65309500D01*
X186887123Y-65309501D01*
X186827516Y-65315908D01*
X186692671Y-65366202D01*
X186692664Y-65366206D01*
X186577455Y-65452452D01*
X186577452Y-65452455D01*
X186491206Y-65567664D01*
X186491202Y-65567671D01*
X186440908Y-65702517D01*
X186434501Y-65762116D01*
X186434501Y-65762123D01*
X186434500Y-65762135D01*
X186434500Y-68857870D01*
X184549317Y-68857870D01*
X183798095Y-68106648D01*
X183764610Y-68045325D01*
X183769594Y-67975633D01*
X183811466Y-67919700D01*
X183817638Y-67915366D01*
X183846844Y-67896157D01*
X183968764Y-67766930D01*
X183968764Y-67766929D01*
X183973720Y-67761677D01*
X183975222Y-67763094D01*
X184022836Y-67727243D01*
X184092514Y-67722063D01*
X184153931Y-67755377D01*
X184154176Y-67755622D01*
X184935115Y-68536562D01*
X184935116Y-68536561D01*
X185041803Y-68394047D01*
X185178908Y-68142958D01*
X185278890Y-67874895D01*
X185339699Y-67595362D01*
X185360109Y-67310001D01*
X185360109Y-67309998D01*
X185339699Y-67024637D01*
X185278890Y-66745104D01*
X185178908Y-66477041D01*
X185041808Y-66225961D01*
X185041807Y-66225960D01*
X184935115Y-66083436D01*
X184150478Y-66868074D01*
X184089155Y-66901559D01*
X184019463Y-66896575D01*
X183963530Y-66854703D01*
X183963334Y-66854441D01*
X183911566Y-66784905D01*
X183864133Y-66745104D01*
X183805871Y-66696215D01*
X183767170Y-66638046D01*
X183766062Y-66568185D01*
X183797897Y-66513547D01*
X184581562Y-65729883D01*
X184581561Y-65729882D01*
X184439046Y-65623196D01*
X184439038Y-65623191D01*
X184187957Y-65486091D01*
X184187958Y-65486091D01*
X183919895Y-65386109D01*
X183640362Y-65325300D01*
X183355001Y-65304891D01*
X183354999Y-65304891D01*
X183069637Y-65325300D01*
X182790104Y-65386109D01*
X182522041Y-65486091D01*
X182270961Y-65623191D01*
X182270953Y-65623196D01*
X182128436Y-65729882D01*
X182128436Y-65729883D01*
X182911904Y-66513351D01*
X182945389Y-66574674D01*
X182940405Y-66644366D01*
X182898533Y-66700299D01*
X182892365Y-66704631D01*
X182863155Y-66723843D01*
X182736280Y-66858323D01*
X182734782Y-66856910D01*
X182687125Y-66892770D01*
X182617446Y-66897927D01*
X182556040Y-66864594D01*
X182555823Y-66864377D01*
X181774883Y-66083436D01*
X181774882Y-66083437D01*
X181668196Y-66225953D01*
X181668191Y-66225961D01*
X181531091Y-66477041D01*
X181431109Y-66745104D01*
X181370300Y-67024637D01*
X181349891Y-67309998D01*
X181349891Y-67310001D01*
X174560500Y-67310001D01*
X174560499Y-65762128D01*
X174554091Y-65702517D01*
X174524506Y-65623196D01*
X174503797Y-65567671D01*
X174503793Y-65567664D01*
X174417547Y-65452455D01*
X174417544Y-65452452D01*
X174302335Y-65366206D01*
X174302328Y-65366202D01*
X174167482Y-65315908D01*
X174167483Y-65315908D01*
X174107883Y-65309501D01*
X174107881Y-65309500D01*
X174107873Y-65309500D01*
X174107864Y-65309500D01*
X171012129Y-65309500D01*
X171012123Y-65309501D01*
X170952516Y-65315908D01*
X170817671Y-65366202D01*
X170817664Y-65366206D01*
X170702455Y-65452452D01*
X170702452Y-65452455D01*
X170616206Y-65567664D01*
X170616202Y-65567671D01*
X170565908Y-65702517D01*
X170559501Y-65762116D01*
X170559501Y-65762123D01*
X170559500Y-65762135D01*
X170559500Y-68857870D01*
X168674317Y-68857870D01*
X167923095Y-68106648D01*
X167889610Y-68045325D01*
X167894594Y-67975633D01*
X167936466Y-67919700D01*
X167942638Y-67915366D01*
X167971844Y-67896157D01*
X168093764Y-67766930D01*
X168093764Y-67766929D01*
X168098720Y-67761677D01*
X168100222Y-67763094D01*
X168147836Y-67727243D01*
X168217514Y-67722063D01*
X168278931Y-67755377D01*
X168279176Y-67755622D01*
X169060115Y-68536562D01*
X169060116Y-68536561D01*
X169166803Y-68394047D01*
X169303908Y-68142958D01*
X169403890Y-67874895D01*
X169464699Y-67595362D01*
X169485109Y-67310001D01*
X169485109Y-67309998D01*
X169464699Y-67024637D01*
X169403890Y-66745104D01*
X169303908Y-66477041D01*
X169166808Y-66225961D01*
X169166807Y-66225960D01*
X169060115Y-66083436D01*
X168275478Y-66868074D01*
X168214155Y-66901559D01*
X168144463Y-66896575D01*
X168088530Y-66854703D01*
X168088334Y-66854441D01*
X168036566Y-66784905D01*
X167989133Y-66745104D01*
X167930871Y-66696215D01*
X167892170Y-66638046D01*
X167891062Y-66568185D01*
X167922897Y-66513547D01*
X168706562Y-65729883D01*
X168706561Y-65729882D01*
X168564046Y-65623196D01*
X168564038Y-65623191D01*
X168312957Y-65486091D01*
X168312958Y-65486091D01*
X168044895Y-65386109D01*
X167765362Y-65325300D01*
X167480001Y-65304891D01*
X167479999Y-65304891D01*
X167194637Y-65325300D01*
X166915104Y-65386109D01*
X166647041Y-65486091D01*
X166395961Y-65623191D01*
X166395953Y-65623196D01*
X166253436Y-65729882D01*
X166253436Y-65729883D01*
X167036904Y-66513351D01*
X167070389Y-66574674D01*
X167065405Y-66644366D01*
X167023533Y-66700299D01*
X167017365Y-66704631D01*
X166988155Y-66723843D01*
X166861280Y-66858323D01*
X166859782Y-66856910D01*
X166812125Y-66892770D01*
X166742446Y-66897927D01*
X166681040Y-66864594D01*
X166680823Y-66864377D01*
X165899883Y-66083436D01*
X165899882Y-66083437D01*
X165793196Y-66225953D01*
X165793191Y-66225961D01*
X165656091Y-66477041D01*
X165556109Y-66745104D01*
X165495300Y-67024637D01*
X165474891Y-67309998D01*
X165474891Y-67310001D01*
X158685500Y-67310001D01*
X158685499Y-65762128D01*
X158679091Y-65702517D01*
X158649506Y-65623196D01*
X158628797Y-65567671D01*
X158628793Y-65567664D01*
X158542547Y-65452455D01*
X158542544Y-65452452D01*
X158427335Y-65366206D01*
X158427328Y-65366202D01*
X158292482Y-65315908D01*
X158292483Y-65315908D01*
X158232883Y-65309501D01*
X158232881Y-65309500D01*
X158232873Y-65309500D01*
X158232864Y-65309500D01*
X155137129Y-65309500D01*
X155137123Y-65309501D01*
X155077516Y-65315908D01*
X154942671Y-65366202D01*
X154942664Y-65366206D01*
X154827455Y-65452452D01*
X154827452Y-65452455D01*
X154741206Y-65567664D01*
X154741202Y-65567671D01*
X154690908Y-65702517D01*
X154684501Y-65762116D01*
X154684501Y-65762123D01*
X154684500Y-65762135D01*
X154684500Y-68857870D01*
X152799317Y-68857870D01*
X152048095Y-68106648D01*
X152014610Y-68045325D01*
X152019594Y-67975633D01*
X152061466Y-67919700D01*
X152067638Y-67915366D01*
X152096844Y-67896157D01*
X152218764Y-67766930D01*
X152218764Y-67766929D01*
X152223720Y-67761677D01*
X152225222Y-67763094D01*
X152272836Y-67727243D01*
X152342514Y-67722063D01*
X152403931Y-67755377D01*
X152404176Y-67755622D01*
X153185115Y-68536562D01*
X153185116Y-68536561D01*
X153291803Y-68394047D01*
X153428908Y-68142958D01*
X153528890Y-67874895D01*
X153589699Y-67595362D01*
X153610109Y-67310001D01*
X153610109Y-67309998D01*
X153589699Y-67024637D01*
X153528890Y-66745104D01*
X153428908Y-66477041D01*
X153291808Y-66225961D01*
X153291807Y-66225960D01*
X153185115Y-66083436D01*
X152400478Y-66868074D01*
X152339155Y-66901559D01*
X152269463Y-66896575D01*
X152213530Y-66854703D01*
X152213334Y-66854441D01*
X152161566Y-66784905D01*
X152114133Y-66745104D01*
X152055871Y-66696215D01*
X152017170Y-66638046D01*
X152016062Y-66568185D01*
X152047897Y-66513547D01*
X152831562Y-65729883D01*
X152831561Y-65729882D01*
X152689046Y-65623196D01*
X152689038Y-65623191D01*
X152437957Y-65486091D01*
X152437958Y-65486091D01*
X152169895Y-65386109D01*
X151890362Y-65325300D01*
X151605001Y-65304891D01*
X151604999Y-65304891D01*
X151319637Y-65325300D01*
X151040104Y-65386109D01*
X150772041Y-65486091D01*
X150520961Y-65623191D01*
X150520953Y-65623196D01*
X150378436Y-65729882D01*
X150378436Y-65729883D01*
X151161904Y-66513351D01*
X151195389Y-66574674D01*
X151190405Y-66644366D01*
X151148533Y-66700299D01*
X151142365Y-66704631D01*
X151113155Y-66723843D01*
X150986280Y-66858323D01*
X150984782Y-66856910D01*
X150937125Y-66892770D01*
X150867446Y-66897927D01*
X150806040Y-66864594D01*
X150805823Y-66864377D01*
X150024883Y-66083436D01*
X150024882Y-66083437D01*
X149918196Y-66225953D01*
X149918191Y-66225961D01*
X149781091Y-66477041D01*
X149681109Y-66745104D01*
X149620300Y-67024637D01*
X149599891Y-67309998D01*
X149599891Y-67310001D01*
X142810500Y-67310001D01*
X142810499Y-65762128D01*
X142804091Y-65702517D01*
X142774506Y-65623196D01*
X142753797Y-65567671D01*
X142753793Y-65567664D01*
X142667547Y-65452455D01*
X142667544Y-65452452D01*
X142552335Y-65366206D01*
X142552328Y-65366202D01*
X142417482Y-65315908D01*
X142417483Y-65315908D01*
X142357883Y-65309501D01*
X142357881Y-65309500D01*
X142357873Y-65309500D01*
X142357864Y-65309500D01*
X139262129Y-65309500D01*
X139262123Y-65309501D01*
X139202516Y-65315908D01*
X139067671Y-65366202D01*
X139067664Y-65366206D01*
X138952455Y-65452452D01*
X138952452Y-65452455D01*
X138866206Y-65567664D01*
X138866202Y-65567671D01*
X138815908Y-65702517D01*
X138809501Y-65762116D01*
X138809501Y-65762123D01*
X138809500Y-65762135D01*
X138809500Y-68857870D01*
X136924317Y-68857870D01*
X136173095Y-68106648D01*
X136139610Y-68045325D01*
X136144594Y-67975633D01*
X136186466Y-67919700D01*
X136192638Y-67915366D01*
X136221844Y-67896157D01*
X136343764Y-67766930D01*
X136343764Y-67766929D01*
X136348720Y-67761677D01*
X136350222Y-67763094D01*
X136397836Y-67727243D01*
X136467514Y-67722063D01*
X136528931Y-67755377D01*
X136529176Y-67755622D01*
X137310115Y-68536562D01*
X137310116Y-68536561D01*
X137416803Y-68394047D01*
X137553908Y-68142958D01*
X137653890Y-67874895D01*
X137714699Y-67595362D01*
X137735109Y-67310001D01*
X137735109Y-67309998D01*
X137714699Y-67024637D01*
X137653890Y-66745104D01*
X137553908Y-66477041D01*
X137416808Y-66225961D01*
X137416807Y-66225960D01*
X137310115Y-66083436D01*
X136525478Y-66868074D01*
X136464155Y-66901559D01*
X136394463Y-66896575D01*
X136338530Y-66854703D01*
X136338334Y-66854441D01*
X136286566Y-66784905D01*
X136239133Y-66745104D01*
X136180871Y-66696215D01*
X136142170Y-66638046D01*
X136141062Y-66568185D01*
X136172897Y-66513547D01*
X136956562Y-65729883D01*
X136956561Y-65729882D01*
X136814046Y-65623196D01*
X136814038Y-65623191D01*
X136562957Y-65486091D01*
X136562958Y-65486091D01*
X136294895Y-65386109D01*
X136015362Y-65325300D01*
X135730001Y-65304891D01*
X135729999Y-65304891D01*
X135444637Y-65325300D01*
X135165104Y-65386109D01*
X134897041Y-65486091D01*
X134645961Y-65623191D01*
X134645953Y-65623196D01*
X134503436Y-65729882D01*
X134503436Y-65729883D01*
X135286904Y-66513351D01*
X135320389Y-66574674D01*
X135315405Y-66644366D01*
X135273533Y-66700299D01*
X135267365Y-66704631D01*
X135238155Y-66723843D01*
X135111280Y-66858323D01*
X135109782Y-66856910D01*
X135062125Y-66892770D01*
X134992446Y-66897927D01*
X134931040Y-66864594D01*
X134930823Y-66864377D01*
X134149883Y-66083436D01*
X134149882Y-66083437D01*
X134043196Y-66225953D01*
X134043191Y-66225961D01*
X133906091Y-66477041D01*
X133806109Y-66745104D01*
X133745300Y-67024637D01*
X133724891Y-67309998D01*
X133724891Y-67310001D01*
X126935500Y-67310001D01*
X126935499Y-65762128D01*
X126929091Y-65702517D01*
X126899506Y-65623196D01*
X126878797Y-65567671D01*
X126878793Y-65567664D01*
X126792547Y-65452455D01*
X126792544Y-65452452D01*
X126677335Y-65366206D01*
X126677328Y-65366202D01*
X126542482Y-65315908D01*
X126542483Y-65315908D01*
X126482883Y-65309501D01*
X126482881Y-65309500D01*
X126482873Y-65309500D01*
X126482864Y-65309500D01*
X123387129Y-65309500D01*
X123387123Y-65309501D01*
X123327516Y-65315908D01*
X123192671Y-65366202D01*
X123192664Y-65366206D01*
X123077455Y-65452452D01*
X123077452Y-65452455D01*
X122991206Y-65567664D01*
X122991202Y-65567671D01*
X122940908Y-65702517D01*
X122934501Y-65762116D01*
X122934501Y-65762123D01*
X122934500Y-65762135D01*
X122934500Y-68857870D01*
X121049317Y-68857870D01*
X120298095Y-68106648D01*
X120264610Y-68045325D01*
X120269594Y-67975633D01*
X120311466Y-67919700D01*
X120317638Y-67915366D01*
X120346844Y-67896157D01*
X120468764Y-67766930D01*
X120468764Y-67766929D01*
X120473720Y-67761677D01*
X120475222Y-67763094D01*
X120522836Y-67727243D01*
X120592514Y-67722063D01*
X120653931Y-67755377D01*
X120654176Y-67755622D01*
X121435115Y-68536562D01*
X121435116Y-68536561D01*
X121541803Y-68394047D01*
X121678908Y-68142958D01*
X121778890Y-67874895D01*
X121839699Y-67595362D01*
X121860108Y-67310001D01*
X121860108Y-67309998D01*
X121839699Y-67024637D01*
X121778890Y-66745104D01*
X121678908Y-66477041D01*
X121541808Y-66225961D01*
X121541807Y-66225960D01*
X121435115Y-66083436D01*
X120650478Y-66868074D01*
X120589155Y-66901559D01*
X120519463Y-66896575D01*
X120463530Y-66854703D01*
X120463334Y-66854441D01*
X120411566Y-66784905D01*
X120364133Y-66745104D01*
X120305871Y-66696215D01*
X120267170Y-66638046D01*
X120266062Y-66568185D01*
X120297897Y-66513547D01*
X121081562Y-65729883D01*
X121081561Y-65729882D01*
X120939046Y-65623196D01*
X120939038Y-65623191D01*
X120687957Y-65486091D01*
X120687958Y-65486091D01*
X120419895Y-65386109D01*
X120140362Y-65325300D01*
X119855001Y-65304891D01*
X119854999Y-65304891D01*
X119569637Y-65325300D01*
X119290104Y-65386109D01*
X119022041Y-65486091D01*
X118770961Y-65623191D01*
X118770953Y-65623196D01*
X118628436Y-65729882D01*
X118628436Y-65729883D01*
X119411904Y-66513351D01*
X119445389Y-66574674D01*
X119440405Y-66644366D01*
X119398533Y-66700299D01*
X119392365Y-66704631D01*
X119363155Y-66723843D01*
X119236280Y-66858323D01*
X119234782Y-66856910D01*
X119187125Y-66892770D01*
X119117446Y-66897927D01*
X119056040Y-66864594D01*
X119055823Y-66864377D01*
X118274883Y-66083436D01*
X118274882Y-66083437D01*
X118168196Y-66225953D01*
X118168191Y-66225961D01*
X118031091Y-66477041D01*
X117931109Y-66745104D01*
X117870300Y-67024637D01*
X117849891Y-67309998D01*
X117849891Y-67310001D01*
X111060500Y-67310001D01*
X111060499Y-65762128D01*
X111054091Y-65702517D01*
X111024506Y-65623196D01*
X111003797Y-65567671D01*
X111003793Y-65567664D01*
X110917547Y-65452455D01*
X110917544Y-65452452D01*
X110802335Y-65366206D01*
X110802328Y-65366202D01*
X110667482Y-65315908D01*
X110667483Y-65315908D01*
X110607883Y-65309501D01*
X110607881Y-65309500D01*
X110607873Y-65309500D01*
X110607864Y-65309500D01*
X107512129Y-65309500D01*
X107512123Y-65309501D01*
X107452516Y-65315908D01*
X107317671Y-65366202D01*
X107317664Y-65366206D01*
X107202455Y-65452452D01*
X107202452Y-65452455D01*
X107116206Y-65567664D01*
X107116202Y-65567671D01*
X107065908Y-65702517D01*
X107059501Y-65762116D01*
X107059501Y-65762123D01*
X107059500Y-65762135D01*
X107059500Y-68857870D01*
X105174317Y-68857870D01*
X104423095Y-68106648D01*
X104389610Y-68045325D01*
X104394594Y-67975633D01*
X104436466Y-67919700D01*
X104442638Y-67915366D01*
X104471844Y-67896157D01*
X104593764Y-67766930D01*
X104593764Y-67766929D01*
X104598720Y-67761677D01*
X104600222Y-67763094D01*
X104647836Y-67727243D01*
X104717514Y-67722063D01*
X104778931Y-67755377D01*
X104779176Y-67755622D01*
X105560115Y-68536562D01*
X105560116Y-68536561D01*
X105666803Y-68394047D01*
X105803908Y-68142958D01*
X105903890Y-67874895D01*
X105964699Y-67595362D01*
X105985108Y-67310001D01*
X105985108Y-67309998D01*
X105964699Y-67024637D01*
X105903890Y-66745104D01*
X105803908Y-66477041D01*
X105666808Y-66225961D01*
X105666807Y-66225960D01*
X105560115Y-66083436D01*
X104775478Y-66868074D01*
X104714155Y-66901559D01*
X104644463Y-66896575D01*
X104588530Y-66854703D01*
X104588334Y-66854441D01*
X104536566Y-66784905D01*
X104489133Y-66745104D01*
X104430871Y-66696215D01*
X104392170Y-66638046D01*
X104391062Y-66568185D01*
X104422897Y-66513547D01*
X105206562Y-65729883D01*
X105206561Y-65729882D01*
X105064046Y-65623196D01*
X105064038Y-65623191D01*
X104812957Y-65486091D01*
X104812958Y-65486091D01*
X104544895Y-65386109D01*
X104265362Y-65325300D01*
X103980001Y-65304891D01*
X103979999Y-65304891D01*
X103694637Y-65325300D01*
X103415104Y-65386109D01*
X103147041Y-65486091D01*
X102895961Y-65623191D01*
X102895953Y-65623196D01*
X102753436Y-65729882D01*
X102753436Y-65729883D01*
X103536904Y-66513351D01*
X103570389Y-66574674D01*
X103565405Y-66644366D01*
X103523533Y-66700299D01*
X103517365Y-66704631D01*
X103488155Y-66723843D01*
X103361280Y-66858323D01*
X103359782Y-66856910D01*
X103312125Y-66892770D01*
X103242446Y-66897927D01*
X103181040Y-66864594D01*
X103180823Y-66864377D01*
X102399883Y-66083436D01*
X102399882Y-66083437D01*
X102293196Y-66225953D01*
X102293191Y-66225961D01*
X102156091Y-66477041D01*
X102056109Y-66745104D01*
X101995300Y-67024637D01*
X101974891Y-67309998D01*
X101974891Y-67310001D01*
X95185500Y-67310001D01*
X95185499Y-65762128D01*
X95179091Y-65702517D01*
X95149506Y-65623196D01*
X95128797Y-65567671D01*
X95128793Y-65567664D01*
X95042547Y-65452455D01*
X95042544Y-65452452D01*
X94927335Y-65366206D01*
X94927328Y-65366202D01*
X94792482Y-65315908D01*
X94792483Y-65315908D01*
X94732883Y-65309501D01*
X94732881Y-65309500D01*
X94732873Y-65309500D01*
X94732864Y-65309500D01*
X91637129Y-65309500D01*
X91637123Y-65309501D01*
X91577516Y-65315908D01*
X91442671Y-65366202D01*
X91442664Y-65366206D01*
X91327455Y-65452452D01*
X91327452Y-65452455D01*
X91241206Y-65567664D01*
X91241202Y-65567671D01*
X91190908Y-65702517D01*
X91184501Y-65762116D01*
X91184501Y-65762123D01*
X91184500Y-65762135D01*
X91184500Y-68857870D01*
X89299317Y-68857870D01*
X88548095Y-68106648D01*
X88514610Y-68045325D01*
X88519594Y-67975633D01*
X88561466Y-67919700D01*
X88567638Y-67915366D01*
X88596844Y-67896157D01*
X88718764Y-67766930D01*
X88718764Y-67766929D01*
X88723720Y-67761677D01*
X88725222Y-67763094D01*
X88772836Y-67727243D01*
X88842514Y-67722063D01*
X88903931Y-67755377D01*
X88904176Y-67755622D01*
X89685115Y-68536562D01*
X89685116Y-68536561D01*
X89791803Y-68394047D01*
X89928908Y-68142958D01*
X90028890Y-67874895D01*
X90089699Y-67595362D01*
X90110109Y-67310001D01*
X90110109Y-67309998D01*
X90089699Y-67024637D01*
X90028890Y-66745104D01*
X89928908Y-66477041D01*
X89791808Y-66225961D01*
X89791807Y-66225960D01*
X89685115Y-66083436D01*
X88900478Y-66868074D01*
X88839155Y-66901559D01*
X88769463Y-66896575D01*
X88713530Y-66854703D01*
X88713334Y-66854441D01*
X88661566Y-66784905D01*
X88614133Y-66745104D01*
X88555871Y-66696215D01*
X88517170Y-66638046D01*
X88516062Y-66568185D01*
X88547897Y-66513547D01*
X89331562Y-65729883D01*
X89331561Y-65729882D01*
X89189046Y-65623196D01*
X89189038Y-65623191D01*
X88937957Y-65486091D01*
X88937958Y-65486091D01*
X88669895Y-65386109D01*
X88390362Y-65325300D01*
X88105001Y-65304891D01*
X88104999Y-65304891D01*
X87819637Y-65325300D01*
X87540104Y-65386109D01*
X87272041Y-65486091D01*
X87020961Y-65623191D01*
X87020953Y-65623196D01*
X86878436Y-65729882D01*
X86878436Y-65729883D01*
X87661904Y-66513351D01*
X87695389Y-66574674D01*
X87690405Y-66644366D01*
X87648533Y-66700299D01*
X87642365Y-66704631D01*
X87613155Y-66723843D01*
X87486280Y-66858323D01*
X87484782Y-66856910D01*
X87437125Y-66892770D01*
X87367446Y-66897927D01*
X87306040Y-66864594D01*
X87305823Y-66864377D01*
X86524883Y-66083436D01*
X86524882Y-66083437D01*
X86418196Y-66225953D01*
X86418191Y-66225961D01*
X86281091Y-66477041D01*
X86181109Y-66745104D01*
X86120300Y-67024637D01*
X86099891Y-67309998D01*
X86099891Y-67310001D01*
X82799592Y-67310001D01*
X82576819Y-67087228D01*
X82543334Y-67025905D01*
X82540500Y-66999547D01*
X82540500Y-64079188D01*
X82560185Y-64012149D01*
X82593377Y-63977613D01*
X82641836Y-63943681D01*
X82754139Y-63865047D01*
X82915047Y-63704139D01*
X83027612Y-63543377D01*
X83082189Y-63499752D01*
X83129188Y-63490500D01*
X96575812Y-63490500D01*
X96642851Y-63510185D01*
X96677387Y-63543377D01*
X96789954Y-63704141D01*
X96950858Y-63865045D01*
X96950861Y-63865047D01*
X97137266Y-63995568D01*
X97343504Y-64091739D01*
X97563308Y-64150635D01*
X97725230Y-64164801D01*
X97789998Y-64170468D01*
X97790000Y-64170468D01*
X97790002Y-64170468D01*
X97846672Y-64165509D01*
X98016692Y-64150635D01*
X98236496Y-64091739D01*
X98442734Y-63995568D01*
X98629139Y-63865047D01*
X98790047Y-63704139D01*
X98902612Y-63543377D01*
X98957189Y-63499752D01*
X99004188Y-63490500D01*
X112450812Y-63490500D01*
X112517851Y-63510185D01*
X112552387Y-63543377D01*
X112664954Y-63704141D01*
X112825858Y-63865045D01*
X112825861Y-63865047D01*
X113012266Y-63995568D01*
X113218504Y-64091739D01*
X113438308Y-64150635D01*
X113600230Y-64164801D01*
X113664998Y-64170468D01*
X113665000Y-64170468D01*
X113665002Y-64170468D01*
X113721672Y-64165509D01*
X113891692Y-64150635D01*
X114111496Y-64091739D01*
X114317734Y-63995568D01*
X114504139Y-63865047D01*
X114665047Y-63704139D01*
X114777612Y-63543377D01*
X114832189Y-63499752D01*
X114879188Y-63490500D01*
X128325812Y-63490500D01*
X128392851Y-63510185D01*
X128427387Y-63543377D01*
X128539954Y-63704141D01*
X128700858Y-63865045D01*
X128700861Y-63865047D01*
X128887266Y-63995568D01*
X129093504Y-64091739D01*
X129313308Y-64150635D01*
X129475230Y-64164801D01*
X129539998Y-64170468D01*
X129540000Y-64170468D01*
X129540002Y-64170468D01*
X129596673Y-64165509D01*
X129766692Y-64150635D01*
X129986496Y-64091739D01*
X130192734Y-63995568D01*
X130379139Y-63865047D01*
X130540047Y-63704139D01*
X130652612Y-63543377D01*
X130707189Y-63499752D01*
X130754188Y-63490500D01*
X144200812Y-63490500D01*
X144267851Y-63510185D01*
X144302387Y-63543377D01*
X144414954Y-63704141D01*
X144575858Y-63865045D01*
X144575861Y-63865047D01*
X144762266Y-63995568D01*
X144968504Y-64091739D01*
X145188308Y-64150635D01*
X145350230Y-64164801D01*
X145414998Y-64170468D01*
X145415000Y-64170468D01*
X145415002Y-64170468D01*
X145471672Y-64165509D01*
X145641692Y-64150635D01*
X145861496Y-64091739D01*
X146067734Y-63995568D01*
X146254139Y-63865047D01*
X146415047Y-63704139D01*
X146527612Y-63543377D01*
X146582189Y-63499752D01*
X146629188Y-63490500D01*
X160075812Y-63490500D01*
X160142851Y-63510185D01*
X160177387Y-63543377D01*
X160289954Y-63704141D01*
X160450858Y-63865045D01*
X160450861Y-63865047D01*
X160637266Y-63995568D01*
X160843504Y-64091739D01*
X161063308Y-64150635D01*
X161225230Y-64164801D01*
X161289998Y-64170468D01*
X161290000Y-64170468D01*
X161290002Y-64170468D01*
X161346672Y-64165509D01*
X161516692Y-64150635D01*
X161736496Y-64091739D01*
X161942734Y-63995568D01*
X162129139Y-63865047D01*
X162290047Y-63704139D01*
X162402612Y-63543377D01*
X162457189Y-63499752D01*
X162504188Y-63490500D01*
X175950812Y-63490500D01*
X176017851Y-63510185D01*
X176052387Y-63543377D01*
X176164954Y-63704141D01*
X176325858Y-63865045D01*
X176325861Y-63865047D01*
X176512266Y-63995568D01*
X176718504Y-64091739D01*
X176938308Y-64150635D01*
X177100230Y-64164801D01*
X177164998Y-64170468D01*
X177165000Y-64170468D01*
X177165002Y-64170468D01*
X177221672Y-64165509D01*
X177391692Y-64150635D01*
X177611496Y-64091739D01*
X177817734Y-63995568D01*
X178004139Y-63865047D01*
X178165047Y-63704139D01*
X178277612Y-63543377D01*
X178332189Y-63499752D01*
X178379188Y-63490500D01*
X191825812Y-63490500D01*
X191892851Y-63510185D01*
X191927387Y-63543377D01*
X192039954Y-63704141D01*
X192200858Y-63865045D01*
X192200861Y-63865047D01*
X192387266Y-63995568D01*
X192593504Y-64091739D01*
X192813308Y-64150635D01*
X192975230Y-64164801D01*
X193039998Y-64170468D01*
X193040000Y-64170468D01*
X193040002Y-64170468D01*
X193096672Y-64165509D01*
X193266692Y-64150635D01*
X193486496Y-64091739D01*
X193692734Y-63995568D01*
X193879139Y-63865047D01*
X194040047Y-63704139D01*
X194170568Y-63517734D01*
X194266739Y-63311496D01*
X194325635Y-63091692D01*
X194345468Y-62865000D01*
X194325635Y-62638308D01*
X194266739Y-62418504D01*
X194170568Y-62212266D01*
X194040047Y-62025861D01*
X194040045Y-62025858D01*
X193879141Y-61864954D01*
X193692734Y-61734432D01*
X193692732Y-61734431D01*
X193486497Y-61638261D01*
X193486488Y-61638258D01*
X193266697Y-61579366D01*
X193266693Y-61579365D01*
X193266692Y-61579365D01*
X193266691Y-61579364D01*
X193266686Y-61579364D01*
X193040002Y-61559532D01*
X193039998Y-61559532D01*
X192813313Y-61579364D01*
X192813302Y-61579366D01*
X192593511Y-61638258D01*
X192593502Y-61638261D01*
X192387267Y-61734431D01*
X192387265Y-61734432D01*
X192200858Y-61864954D01*
X192039954Y-62025858D01*
X191927387Y-62186623D01*
X191872811Y-62230248D01*
X191825812Y-62239500D01*
X178379188Y-62239500D01*
X178312149Y-62219815D01*
X178277613Y-62186623D01*
X178165045Y-62025858D01*
X178004141Y-61864954D01*
X177817734Y-61734432D01*
X177817732Y-61734431D01*
X177611497Y-61638261D01*
X177611488Y-61638258D01*
X177391697Y-61579366D01*
X177391693Y-61579365D01*
X177391692Y-61579365D01*
X177391691Y-61579364D01*
X177391686Y-61579364D01*
X177165002Y-61559532D01*
X177164998Y-61559532D01*
X176938313Y-61579364D01*
X176938302Y-61579366D01*
X176718511Y-61638258D01*
X176718502Y-61638261D01*
X176512267Y-61734431D01*
X176512265Y-61734432D01*
X176325858Y-61864954D01*
X176164954Y-62025858D01*
X176052387Y-62186623D01*
X175997811Y-62230248D01*
X175950812Y-62239500D01*
X162504188Y-62239500D01*
X162437149Y-62219815D01*
X162402613Y-62186623D01*
X162290045Y-62025858D01*
X162129141Y-61864954D01*
X161942734Y-61734432D01*
X161942732Y-61734431D01*
X161736497Y-61638261D01*
X161736488Y-61638258D01*
X161516697Y-61579366D01*
X161516693Y-61579365D01*
X161516692Y-61579365D01*
X161516691Y-61579364D01*
X161516686Y-61579364D01*
X161290002Y-61559532D01*
X161289998Y-61559532D01*
X161063313Y-61579364D01*
X161063302Y-61579366D01*
X160843511Y-61638258D01*
X160843502Y-61638261D01*
X160637267Y-61734431D01*
X160637265Y-61734432D01*
X160450858Y-61864954D01*
X160289954Y-62025858D01*
X160177387Y-62186623D01*
X160122811Y-62230248D01*
X160075812Y-62239500D01*
X146629188Y-62239500D01*
X146562149Y-62219815D01*
X146527613Y-62186623D01*
X146415045Y-62025858D01*
X146254141Y-61864954D01*
X146067734Y-61734432D01*
X146067732Y-61734431D01*
X145861497Y-61638261D01*
X145861488Y-61638258D01*
X145641697Y-61579366D01*
X145641693Y-61579365D01*
X145641692Y-61579365D01*
X145641691Y-61579364D01*
X145641686Y-61579364D01*
X145415002Y-61559532D01*
X145414998Y-61559532D01*
X145188313Y-61579364D01*
X145188302Y-61579366D01*
X144968511Y-61638258D01*
X144968502Y-61638261D01*
X144762267Y-61734431D01*
X144762265Y-61734432D01*
X144575858Y-61864954D01*
X144414954Y-62025858D01*
X144302387Y-62186623D01*
X144247811Y-62230248D01*
X144200812Y-62239500D01*
X130754188Y-62239500D01*
X130687149Y-62219815D01*
X130652613Y-62186623D01*
X130540045Y-62025858D01*
X130379141Y-61864954D01*
X130192734Y-61734432D01*
X130192732Y-61734431D01*
X129986497Y-61638261D01*
X129986488Y-61638258D01*
X129766697Y-61579366D01*
X129766693Y-61579365D01*
X129766692Y-61579365D01*
X129766691Y-61579364D01*
X129766686Y-61579364D01*
X129540002Y-61559532D01*
X129539998Y-61559532D01*
X129313313Y-61579364D01*
X129313302Y-61579366D01*
X129093511Y-61638258D01*
X129093502Y-61638261D01*
X128887267Y-61734431D01*
X128887265Y-61734432D01*
X128700858Y-61864954D01*
X128539954Y-62025858D01*
X128427387Y-62186623D01*
X128372811Y-62230248D01*
X128325812Y-62239500D01*
X114879188Y-62239500D01*
X114812149Y-62219815D01*
X114777613Y-62186623D01*
X114665045Y-62025858D01*
X114504141Y-61864954D01*
X114317734Y-61734432D01*
X114317732Y-61734431D01*
X114111497Y-61638261D01*
X114111488Y-61638258D01*
X113891697Y-61579366D01*
X113891693Y-61579365D01*
X113891692Y-61579365D01*
X113891691Y-61579364D01*
X113891686Y-61579364D01*
X113665002Y-61559532D01*
X113664998Y-61559532D01*
X113438313Y-61579364D01*
X113438302Y-61579366D01*
X113218511Y-61638258D01*
X113218502Y-61638261D01*
X113012267Y-61734431D01*
X113012265Y-61734432D01*
X112825858Y-61864954D01*
X112664954Y-62025858D01*
X112552387Y-62186623D01*
X112497811Y-62230248D01*
X112450812Y-62239500D01*
X99004188Y-62239500D01*
X98937149Y-62219815D01*
X98902613Y-62186623D01*
X98790045Y-62025858D01*
X98629141Y-61864954D01*
X98442734Y-61734432D01*
X98442732Y-61734431D01*
X98236497Y-61638261D01*
X98236488Y-61638258D01*
X98016697Y-61579366D01*
X98016693Y-61579365D01*
X98016692Y-61579365D01*
X98016691Y-61579364D01*
X98016686Y-61579364D01*
X97790002Y-61559532D01*
X97789998Y-61559532D01*
X97563313Y-61579364D01*
X97563302Y-61579366D01*
X97343511Y-61638258D01*
X97343502Y-61638261D01*
X97137267Y-61734431D01*
X97137265Y-61734432D01*
X96950858Y-61864954D01*
X96789954Y-62025858D01*
X96677387Y-62186623D01*
X96622811Y-62230248D01*
X96575812Y-62239500D01*
X83129188Y-62239500D01*
X83062149Y-62219815D01*
X83027613Y-62186623D01*
X82915045Y-62025858D01*
X82754141Y-61864954D01*
X82567734Y-61734432D01*
X82567732Y-61734431D01*
X82361497Y-61638261D01*
X82361488Y-61638258D01*
X82141697Y-61579366D01*
X82141693Y-61579365D01*
X82141692Y-61579365D01*
X82141691Y-61579364D01*
X82141686Y-61579364D01*
X81915002Y-61559532D01*
X81914998Y-61559532D01*
X81688313Y-61579364D01*
X81688302Y-61579366D01*
X81468511Y-61638258D01*
X81468502Y-61638261D01*
X81262267Y-61734431D01*
X81262265Y-61734432D01*
X81075858Y-61864954D01*
X80914954Y-62025858D01*
X80784432Y-62212265D01*
X80784431Y-62212267D01*
X80688261Y-62418502D01*
X80688258Y-62418511D01*
X80629366Y-62638302D01*
X80629364Y-62638313D01*
X80609532Y-62864998D01*
X80609532Y-62865001D01*
X69215000Y-62865001D01*
X69215000Y-61083374D01*
X69234685Y-61016335D01*
X69287489Y-60970580D01*
X69338369Y-60959376D01*
X194820375Y-60325629D01*
X194887512Y-60344974D01*
G37*
%TD.AperFunction*%
%TD*%
M02*
