%TF.GenerationSoftware,KiCad,Pcbnew,7.0.7*%
%TF.CreationDate,2023-09-28T15:43:30-05:00*%
%TF.ProjectId,iowa-rover-kiosk-level-buttons,696f7761-2d72-46f7-9665-722d6b696f73,rev?*%
%TF.SameCoordinates,Original*%
%TF.FileFunction,Copper,L1,Top*%
%TF.FilePolarity,Positive*%
%FSLAX46Y46*%
G04 Gerber Fmt 4.6, Leading zero omitted, Abs format (unit mm)*
G04 Created by KiCad (PCBNEW 7.0.7) date 2023-09-28 15:43:30*
%MOMM*%
%LPD*%
G01*
G04 APERTURE LIST*
%TA.AperFunction,ComponentPad*%
%ADD10R,3.000000X3.000000*%
%TD*%
%TA.AperFunction,ComponentPad*%
%ADD11C,3.000000*%
%TD*%
%TA.AperFunction,ComponentPad*%
%ADD12C,1.600000*%
%TD*%
%TA.AperFunction,ComponentPad*%
%ADD13O,1.600000X1.600000*%
%TD*%
%TA.AperFunction,ComponentPad*%
%ADD14R,1.600000X1.600000*%
%TD*%
%TA.AperFunction,ComponentPad*%
%ADD15R,1.700000X1.700000*%
%TD*%
%TA.AperFunction,ComponentPad*%
%ADD16O,1.700000X1.700000*%
%TD*%
%TA.AperFunction,ViaPad*%
%ADD17C,0.800000*%
%TD*%
%TA.AperFunction,Conductor*%
%ADD18C,0.500000*%
%TD*%
%TA.AperFunction,Conductor*%
%ADD19C,0.250000*%
%TD*%
G04 APERTURE END LIST*
D10*
%TO.P,Btn Down 1,1,1*%
%TO.N,Net-(J1-Pin_10)*%
X172560000Y-67310000D03*
D11*
%TO.P,Btn Down 1,2,2*%
%TO.N,GND*%
X167480000Y-67310000D03*
%TD*%
D12*
%TO.P,R2,1*%
%TO.N,+5V*%
X177165000Y-62865000D03*
D13*
%TO.P,R2,2*%
%TO.N,Net-(J1-Pin_10)*%
X177165000Y-73025000D03*
%TD*%
D10*
%TO.P,Lamp Up 3,1,-*%
%TO.N,Net-(LA5--)*%
X132555000Y-56000000D03*
D11*
%TO.P,Lamp Up 3,2,+*%
%TO.N,+5V*%
X127475000Y-56000000D03*
%TD*%
D12*
%TO.P,R5,1*%
%TO.N,+5V*%
X129540000Y-62865000D03*
D13*
%TO.P,R5,2*%
%TO.N,Net-(J1-Pin_16)*%
X129540000Y-73025000D03*
%TD*%
D10*
%TO.P,Lamp Up 2,1,-*%
%TO.N,Net-(LA3--)*%
X164305000Y-56000000D03*
D11*
%TO.P,Lamp Up 2,2,+*%
%TO.N,+5V*%
X159225000Y-56000000D03*
%TD*%
D12*
%TO.P,R6,1*%
%TO.N,+5V*%
X113665000Y-62865000D03*
D13*
%TO.P,R6,2*%
%TO.N,Net-(J1-Pin_15)*%
X113665000Y-73025000D03*
%TD*%
D14*
%TO.P,U2,1,NC*%
%TO.N,unconnected-(U2-NC-Pad1)*%
X140970000Y-86360000D03*
D13*
%TO.P,U2,2,VCC*%
%TO.N,+5V*%
X143510000Y-86360000D03*
%TO.P,U2,3,SERIN*%
%TO.N,/COPI*%
X146050000Y-86360000D03*
%TO.P,U2,4,DRAIN0*%
%TO.N,Net-(LA1--)*%
X148590000Y-86360000D03*
%TO.P,U2,5,DRAIN1*%
%TO.N,Net-(LA2--)*%
X151130000Y-86360000D03*
%TO.P,U2,6,DRAIN2*%
%TO.N,Net-(LA4--)*%
X153670000Y-86360000D03*
%TO.P,U2,7,DRAIN3*%
%TO.N,Net-(LA3--)*%
X156210000Y-86360000D03*
%TO.P,U2,8,SRCLR*%
%TO.N,+5V*%
X158750000Y-86360000D03*
%TO.P,U2,9,G*%
%TO.N,GND*%
X161290000Y-86360000D03*
%TO.P,U2,10,GND*%
X163830000Y-86360000D03*
%TO.P,U2,11,GND*%
X163830000Y-78740000D03*
%TO.P,U2,12,RCK*%
%TO.N,/LATCH*%
X161290000Y-78740000D03*
%TO.P,U2,13,SRCK*%
%TO.N,/CLOCK*%
X158750000Y-78740000D03*
%TO.P,U2,14,DRAIN4*%
%TO.N,Net-(LA5--)*%
X156210000Y-78740000D03*
%TO.P,U2,15,DRAIN5*%
%TO.N,Net-(LA6--)*%
X153670000Y-78740000D03*
%TO.P,U2,16,DRAIN6*%
%TO.N,Net-(LA7--)*%
X151130000Y-78740000D03*
%TO.P,U2,17,DRAIN7*%
%TO.N,Net-(LA8--)*%
X148590000Y-78740000D03*
%TO.P,U2,18,SEROUT*%
%TO.N,/CIPO*%
X146050000Y-78740000D03*
%TO.P,U2,19,GND*%
%TO.N,GND*%
X143510000Y-78740000D03*
%TO.P,U2,20,NC*%
%TO.N,unconnected-(U2-NC-Pad20)*%
X140970000Y-78740000D03*
%TD*%
D15*
%TO.P,J1,1,Pin_1*%
%TO.N,GND*%
X97155000Y-83185000D03*
D16*
%TO.P,J1,2,Pin_2*%
%TO.N,+12V*%
X97155000Y-80645000D03*
%TO.P,J1,3,Pin_3*%
%TO.N,+5V*%
X99695000Y-83185000D03*
%TO.P,J1,4,Pin_4*%
%TO.N,/COPI*%
X99695000Y-80645000D03*
%TO.P,J1,5,Pin_5*%
%TO.N,/CIPO*%
X102235000Y-83185000D03*
%TO.P,J1,6,Pin_6*%
%TO.N,/LATCH*%
X102235000Y-80645000D03*
%TO.P,J1,7,Pin_7*%
%TO.N,/CLOCK*%
X104775000Y-83185000D03*
%TO.P,J1,8,Pin_8*%
%TO.N,unconnected-(J1-Pin_8-Pad8)*%
X104775000Y-80645000D03*
%TO.P,J1,9,Pin_9*%
%TO.N,Net-(J1-Pin_9)*%
X107315000Y-83185000D03*
%TO.P,J1,10,Pin_10*%
%TO.N,Net-(J1-Pin_10)*%
X107315000Y-80645000D03*
%TO.P,J1,11,Pin_11*%
%TO.N,Net-(J1-Pin_11)*%
X109855000Y-83185000D03*
%TO.P,J1,12,Pin_12*%
%TO.N,Net-(J1-Pin_12)*%
X109855000Y-80645000D03*
%TO.P,J1,13,Pin_13*%
%TO.N,Net-(J1-Pin_13)*%
X112395000Y-83185000D03*
%TO.P,J1,14,Pin_14*%
%TO.N,Net-(J1-Pin_14)*%
X112395000Y-80645000D03*
%TO.P,J1,15,Pin_15*%
%TO.N,Net-(J1-Pin_15)*%
X114935000Y-83185000D03*
%TO.P,J1,16,Pin_16*%
%TO.N,Net-(J1-Pin_16)*%
X114935000Y-80645000D03*
%TD*%
D12*
%TO.P,R8,1*%
%TO.N,+5V*%
X81915000Y-62865000D03*
D13*
%TO.P,R8,2*%
%TO.N,Net-(J1-Pin_13)*%
X81915000Y-73025000D03*
%TD*%
D10*
%TO.P,Btn Down 4,1,1*%
%TO.N,Net-(J1-Pin_13)*%
X77310000Y-67310000D03*
D11*
%TO.P,Btn Down 4,2,2*%
%TO.N,GND*%
X72230000Y-67310000D03*
%TD*%
D12*
%TO.P,R1,1*%
%TO.N,+5V*%
X193040000Y-62865000D03*
D13*
%TO.P,R1,2*%
%TO.N,Net-(J1-Pin_9)*%
X193040000Y-73025000D03*
%TD*%
D10*
%TO.P,Btn Up 3,1,1*%
%TO.N,Net-(J1-Pin_16)*%
X124935000Y-67310000D03*
D11*
%TO.P,Btn Up 3,2,2*%
%TO.N,GND*%
X119855000Y-67310000D03*
%TD*%
D10*
%TO.P,Lamp Down 1,1,-*%
%TO.N,Net-(LA2--)*%
X180180000Y-56000000D03*
D11*
%TO.P,Lamp Down 1,2,+*%
%TO.N,+5V*%
X175100000Y-56000000D03*
%TD*%
D10*
%TO.P,Lamp Down 4,1,-*%
%TO.N,Net-(LA8--)*%
X84930000Y-56000000D03*
D11*
%TO.P,Lamp Down 4,2,+*%
%TO.N,+5V*%
X79850000Y-56000000D03*
%TD*%
D10*
%TO.P,Btn Up 2,1,1*%
%TO.N,Net-(J1-Pin_11)*%
X156685000Y-67310000D03*
D11*
%TO.P,Btn Up 2,2,2*%
%TO.N,GND*%
X151605000Y-67310000D03*
%TD*%
D12*
%TO.P,R7,1*%
%TO.N,+5V*%
X97790000Y-62865000D03*
D13*
%TO.P,R7,2*%
%TO.N,Net-(J1-Pin_14)*%
X97790000Y-73025000D03*
%TD*%
D10*
%TO.P,Lamp Down 2,1,-*%
%TO.N,Net-(LA4--)*%
X148430000Y-56000000D03*
D11*
%TO.P,Lamp Down 2,2,+*%
%TO.N,+5V*%
X143350000Y-56000000D03*
%TD*%
D10*
%TO.P,Btn Up 1,1,1*%
%TO.N,Net-(J1-Pin_9)*%
X188435000Y-67310000D03*
D11*
%TO.P,Btn Up 1,2,2*%
%TO.N,GND*%
X183355000Y-67310000D03*
%TD*%
D10*
%TO.P,Btn Down 3,1,1*%
%TO.N,Net-(J1-Pin_15)*%
X109060000Y-67310000D03*
D11*
%TO.P,Btn Down 3,2,2*%
%TO.N,GND*%
X103980000Y-67310000D03*
%TD*%
D12*
%TO.P,R4,1*%
%TO.N,+5V*%
X145415000Y-62865000D03*
D13*
%TO.P,R4,2*%
%TO.N,Net-(J1-Pin_12)*%
X145415000Y-73025000D03*
%TD*%
D10*
%TO.P,Lamp Up 1,1,-*%
%TO.N,Net-(LA1--)*%
X196055000Y-56000000D03*
D11*
%TO.P,Lamp Up 1,2,+*%
%TO.N,+5V*%
X190975000Y-56000000D03*
%TD*%
D10*
%TO.P,Btn Down 2,1,1*%
%TO.N,Net-(J1-Pin_12)*%
X140810000Y-67310000D03*
D11*
%TO.P,Btn Down 2,2,2*%
%TO.N,GND*%
X135730000Y-67310000D03*
%TD*%
D12*
%TO.P,R3,1*%
%TO.N,+5V*%
X161290000Y-62865000D03*
D13*
%TO.P,R3,2*%
%TO.N,Net-(J1-Pin_11)*%
X161290000Y-73025000D03*
%TD*%
D10*
%TO.P,Lamp Up 4,1,-*%
%TO.N,Net-(LA7--)*%
X100805000Y-56000000D03*
D11*
%TO.P,Lamp Up 4,2,+*%
%TO.N,+5V*%
X95725000Y-56000000D03*
%TD*%
D10*
%TO.P,Btn Up 4,1,1*%
%TO.N,Net-(J1-Pin_14)*%
X93185000Y-67310000D03*
D11*
%TO.P,Btn Up 4,2,2*%
%TO.N,GND*%
X88105000Y-67310000D03*
%TD*%
D10*
%TO.P,Lamp Down 3,1,-*%
%TO.N,Net-(LA6--)*%
X116680000Y-56000000D03*
D11*
%TO.P,Lamp Down 3,2,+*%
%TO.N,+5V*%
X111600000Y-56000000D03*
%TD*%
D17*
%TO.N,Net-(J1-Pin_10)*%
X107315000Y-75565000D03*
%TO.N,Net-(J1-Pin_11)*%
X108585000Y-75565000D03*
%TO.N,Net-(J1-Pin_12)*%
X109855000Y-75565000D03*
%TD*%
D18*
%TO.N,GND*%
X121805000Y-65360000D02*
X130130000Y-65360000D01*
X130130000Y-65360000D02*
X143510000Y-78740000D01*
X119855000Y-67310000D02*
X121805000Y-65360000D01*
%TO.N,+5V*%
X189025000Y-54050000D02*
X190975000Y-56000000D01*
X146480000Y-54050000D02*
X157275000Y-54050000D01*
X143350000Y-56000000D02*
X144530000Y-56000000D01*
X93775000Y-54050000D02*
X95725000Y-56000000D01*
X161175000Y-54050000D02*
X173150000Y-54050000D01*
X127475000Y-56000000D02*
X129425000Y-54050000D01*
X75360000Y-69260000D02*
X90585000Y-84485000D01*
X141400000Y-54050000D02*
X143350000Y-56000000D01*
X98395000Y-84485000D02*
X99695000Y-83185000D01*
X144530000Y-56000000D02*
X146480000Y-54050000D01*
X125525000Y-54050000D02*
X127475000Y-56000000D01*
X75360000Y-60490000D02*
X75360000Y-69260000D01*
X81800000Y-54050000D02*
X93775000Y-54050000D01*
X177050000Y-54050000D02*
X189025000Y-54050000D01*
X157275000Y-54050000D02*
X159225000Y-56000000D01*
X79850000Y-56000000D02*
X81800000Y-54050000D01*
X111600000Y-56000000D02*
X113550000Y-54050000D01*
X79850000Y-56000000D02*
X75360000Y-60490000D01*
X95725000Y-56000000D02*
X97675000Y-54050000D01*
X159225000Y-56000000D02*
X161175000Y-54050000D01*
X109650000Y-54050000D02*
X111600000Y-56000000D01*
X129425000Y-54050000D02*
X141400000Y-54050000D01*
X113550000Y-54050000D02*
X125525000Y-54050000D01*
X173150000Y-54050000D02*
X175100000Y-56000000D01*
X90585000Y-84485000D02*
X98395000Y-84485000D01*
X97675000Y-54050000D02*
X109650000Y-54050000D01*
X175100000Y-56000000D02*
X177050000Y-54050000D01*
D19*
%TO.N,Net-(J1-Pin_9)*%
X188435000Y-67310000D02*
X188435000Y-68420000D01*
X193040000Y-73025000D02*
X177350000Y-88715000D01*
X188435000Y-68420000D02*
X193040000Y-73025000D01*
X177350000Y-88715000D02*
X112845000Y-88715000D01*
X112845000Y-88715000D02*
X107315000Y-83185000D01*
%TO.N,Net-(J1-Pin_10)*%
X172560000Y-67310000D02*
X172560000Y-68420000D01*
X172560000Y-68420000D02*
X177165000Y-73025000D01*
X107315000Y-75565000D02*
X107315000Y-80645000D01*
%TO.N,Net-(J1-Pin_11)*%
X156685000Y-67785000D02*
X161290000Y-72390000D01*
X108585000Y-81915000D02*
X109855000Y-83185000D01*
X108585000Y-75565000D02*
X108585000Y-81915000D01*
X156685000Y-67310000D02*
X156685000Y-67785000D01*
%TO.N,Net-(J1-Pin_12)*%
X140810000Y-67785000D02*
X145415000Y-72390000D01*
X109855000Y-75565000D02*
X109855000Y-80645000D01*
X140810000Y-67310000D02*
X140810000Y-67785000D01*
%TO.N,Net-(J1-Pin_13)*%
X109221396Y-84455000D02*
X108680000Y-83913604D01*
X111125000Y-84455000D02*
X109221396Y-84455000D01*
X108680000Y-83913604D02*
X108680000Y-82646396D01*
X90710000Y-81820000D02*
X81915000Y-73025000D01*
X112395000Y-83185000D02*
X111125000Y-84455000D01*
X107853604Y-81820000D02*
X90710000Y-81820000D01*
X77310000Y-68420000D02*
X81915000Y-73025000D01*
X108680000Y-82646396D02*
X107853604Y-81820000D01*
X77310000Y-67310000D02*
X77310000Y-68420000D01*
%TO.N,Net-(J1-Pin_14)*%
X108340305Y-73025000D02*
X112395000Y-77079695D01*
X97790000Y-73025000D02*
X108340305Y-73025000D01*
X93185000Y-67310000D02*
X93185000Y-68420000D01*
X93185000Y-68420000D02*
X97790000Y-73025000D01*
X112395000Y-77079695D02*
X112395000Y-80645000D01*
%TO.N,Net-(J1-Pin_15)*%
X109060000Y-67310000D02*
X109060000Y-68420000D01*
X109060000Y-68420000D02*
X113665000Y-73025000D01*
X113665000Y-73025000D02*
X113665000Y-81915000D01*
X113665000Y-81915000D02*
X114935000Y-83185000D01*
%TO.N,Net-(J1-Pin_16)*%
X124935000Y-68420000D02*
X129540000Y-73025000D01*
X129540000Y-73025000D02*
X122555000Y-73025000D01*
X122555000Y-73025000D02*
X114935000Y-80645000D01*
X124935000Y-67310000D02*
X124935000Y-68420000D01*
%TO.N,Net-(LA1--)*%
X163515991Y-88265000D02*
X150495000Y-88265000D01*
X150495000Y-88265000D02*
X148590000Y-86360000D01*
X166804060Y-65405000D02*
X165100000Y-67109060D01*
X196055000Y-56000000D02*
X186650000Y-65405000D01*
X165100000Y-86680991D02*
X163515991Y-88265000D01*
X165100000Y-67109060D02*
X165100000Y-86680991D01*
X186650000Y-65405000D02*
X166804060Y-65405000D01*
%TO.N,Net-(LA2--)*%
X154860000Y-65485000D02*
X154860000Y-69135000D01*
X162415000Y-76690000D02*
X162415000Y-83354009D01*
X159875000Y-86825991D02*
X159215991Y-87485000D01*
X180180000Y-56000000D02*
X174585000Y-61595000D01*
X159875000Y-85894009D02*
X159875000Y-86825991D01*
X158750000Y-61595000D02*
X154860000Y-65485000D01*
X162415000Y-83354009D02*
X159875000Y-85894009D01*
X154860000Y-69135000D02*
X162415000Y-76690000D01*
X174585000Y-61595000D02*
X158750000Y-61595000D01*
X159215991Y-87485000D02*
X152255000Y-87485000D01*
X152255000Y-87485000D02*
X151130000Y-86360000D01*
%TO.N,Net-(LA3--)*%
X164305000Y-56000000D02*
X162555000Y-56000000D01*
X154305698Y-72389302D02*
X159875000Y-77958604D01*
X162555000Y-56000000D02*
X154305698Y-64249302D01*
X154305698Y-64249302D02*
X154305698Y-72389302D01*
X159875000Y-82695000D02*
X156210000Y-86360000D01*
X159875000Y-77958604D02*
X159875000Y-82695000D01*
%TO.N,Net-(LA4--)*%
X157335000Y-76055000D02*
X157335000Y-82695000D01*
X148430000Y-67150000D02*
X157335000Y-76055000D01*
X157335000Y-82695000D02*
X153670000Y-86360000D01*
X148430000Y-56000000D02*
X148430000Y-67150000D01*
%TO.N,Net-(LA5--)*%
X134305000Y-56000000D02*
X156210000Y-77905000D01*
X132555000Y-56000000D02*
X134305000Y-56000000D01*
X156210000Y-77905000D02*
X156210000Y-78740000D01*
%TO.N,Net-(LA6--)*%
X153670000Y-76520000D02*
X153670000Y-78740000D01*
X116680000Y-56000000D02*
X118505000Y-57825000D01*
X118505000Y-57825000D02*
X134975000Y-57825000D01*
X134975000Y-57825000D02*
X153670000Y-76520000D01*
%TO.N,Net-(LA7--)*%
X100805000Y-56000000D02*
X109140000Y-64335000D01*
X146685000Y-76835000D02*
X149225000Y-76835000D01*
X109140000Y-64335000D02*
X135335940Y-64335000D01*
X149225000Y-76835000D02*
X151130000Y-78740000D01*
X138430000Y-68580000D02*
X146685000Y-76835000D01*
X135335940Y-64335000D02*
X138430000Y-67429060D01*
X138430000Y-67429060D02*
X138430000Y-68580000D01*
%TO.N,Net-(LA8--)*%
X93715000Y-64785000D02*
X130368172Y-64785000D01*
X147320000Y-77470000D02*
X148590000Y-78740000D01*
X84930000Y-56000000D02*
X93715000Y-64785000D01*
X130368172Y-64785000D02*
X143053172Y-77470000D01*
X143053172Y-77470000D02*
X147320000Y-77470000D01*
%TD*%
M02*
