M48
; DRILL file {KiCad 7.0.7} date Thu Sep 28 15:47:23 2023
; FORMAT={-:-/ absolute / metric / decimal}
; #@! TF.CreationDate,2023-09-28T15:47:23-05:00
; #@! TF.GenerationSoftware,Kicad,Pcbnew,7.0.7
; #@! TF.FileFunction,Plated,1,2,PTH
FMAT,2
METRIC
; #@! TA.AperFunction,Plated,PTH,ViaDrill
T1C0.400
; #@! TA.AperFunction,Plated,PTH,ComponentDrill
T2C0.762
; #@! TA.AperFunction,Plated,PTH,ComponentDrill
T3C0.800
; #@! TA.AperFunction,Plated,PTH,ComponentDrill
T4C0.900
; #@! TA.AperFunction,Plated,PTH,ComponentDrill
T5C1.000
; #@! TA.AperFunction,Plated,PTH,ComponentDrill
T6C1.100
%
G90
G05
T1
X205.74Y-73.66
T2
X75.17Y-73.82
X75.17Y-77.82
X75.17Y-79.82
X75.17Y-81.82
X75.17Y-83.82
X75.17Y-85.82
X90.17Y-77.82
X90.17Y-79.82
X90.17Y-81.82
X90.17Y-83.82
X90.17Y-85.82
T3
X99.06Y-78.74
X99.06Y-88.9
X104.14Y-78.74
X104.14Y-88.9
X120.65Y-78.74
X120.65Y-88.9
X125.73Y-78.74
X125.73Y-88.9
X142.24Y-78.74
X142.24Y-88.9
X147.32Y-78.74
X147.32Y-88.9
X163.83Y-78.74
X163.83Y-88.9
X170.18Y-78.74
X170.18Y-88.9
X191.77Y-78.74
X191.77Y-88.9
T4
X110.49Y-73.66
X113.03Y-73.66
X132.08Y-73.66
X134.62Y-73.66
X153.67Y-73.66
X156.21Y-73.66
X176.53Y-73.66
X179.07Y-73.66
T5
X209.55Y-77.47
X209.55Y-80.01
X209.55Y-82.55
X209.55Y-85.09
X209.55Y-87.63
X209.55Y-90.17
X212.09Y-77.47
X212.09Y-80.01
X212.09Y-82.55
X212.09Y-85.09
X212.09Y-87.63
X212.09Y-90.17
T6
X109.07Y-81.28
X109.07Y-85.78
X115.57Y-81.28
X115.57Y-85.78
X130.66Y-81.28
X130.66Y-85.78
X137.16Y-81.28
X137.16Y-85.78
X152.25Y-81.28
X152.25Y-85.78
X158.75Y-81.28
X158.75Y-85.78
X175.11Y-81.28
X175.11Y-85.78
X181.61Y-81.28
X181.61Y-85.78
X195.58Y-81.28
X195.58Y-85.78
X202.08Y-81.28
X202.08Y-85.78
T0
M30
