%TF.GenerationSoftware,KiCad,Pcbnew,7.0.7*%
%TF.CreationDate,2023-09-28T15:47:24-05:00*%
%TF.ProjectId,iowa-rover-kiosk-programmer,696f7761-2d72-46f7-9665-722d6b696f73,rev?*%
%TF.SameCoordinates,Original*%
%TF.FileFunction,Drillmap*%
%TF.FilePolarity,Positive*%
%FSLAX45Y45*%
G04 Gerber Fmt 4.5, Leading zero omitted, Abs format (unit mm)*
G04 Created by KiCad (PCBNEW 7.0.7) date 2023-09-28 15:47:24*
%MOMM*%
%LPD*%
G01*
G04 APERTURE LIST*
%ADD10C,0.100000*%
%ADD11C,0.200000*%
%ADD12C,0.040000*%
%ADD13C,0.076200*%
%ADD14C,0.080000*%
%ADD15C,0.090000*%
%ADD16C,0.110000*%
G04 APERTURE END LIST*
D10*
X6731000Y-6731000D02*
X6731000Y-9398000D01*
X21590000Y-9652000D02*
G75*
G03*
X21844000Y-9398000I0J254000D01*
G01*
X21844000Y-9398000D02*
X21844000Y-6731000D01*
X21590000Y-6477000D02*
X6985000Y-6477000D01*
X6985000Y-6477000D02*
G75*
G03*
X6731000Y-6731000I0J-254000D01*
G01*
X21844000Y-6731000D02*
G75*
G03*
X21590000Y-6477000I-254000J0D01*
G01*
X6731000Y-9398000D02*
G75*
G03*
X6985000Y-9652000I254000J0D01*
G01*
X6985000Y-9652000D02*
X21590000Y-9652000D01*
D11*
D12*
X20554000Y-7346000D02*
X20594000Y-7386000D01*
X20594000Y-7346000D02*
X20554000Y-7386000D01*
D13*
X7555100Y-7382000D02*
G75*
G03*
X7555100Y-7382000I-38100J0D01*
G01*
X7555100Y-7782000D02*
G75*
G03*
X7555100Y-7782000I-38100J0D01*
G01*
X7555100Y-7982000D02*
G75*
G03*
X7555100Y-7982000I-38100J0D01*
G01*
X7555100Y-8182000D02*
G75*
G03*
X7555100Y-8182000I-38100J0D01*
G01*
X7555100Y-8382000D02*
G75*
G03*
X7555100Y-8382000I-38100J0D01*
G01*
X7555100Y-8582000D02*
G75*
G03*
X7555100Y-8582000I-38100J0D01*
G01*
X9055100Y-7782000D02*
G75*
G03*
X9055100Y-7782000I-38100J0D01*
G01*
X9055100Y-7982000D02*
G75*
G03*
X9055100Y-7982000I-38100J0D01*
G01*
X9055100Y-8182000D02*
G75*
G03*
X9055100Y-8182000I-38100J0D01*
G01*
X9055100Y-8382000D02*
G75*
G03*
X9055100Y-8382000I-38100J0D01*
G01*
X9055100Y-8582000D02*
G75*
G03*
X9055100Y-8582000I-38100J0D01*
G01*
D14*
X9906000Y-7834000D02*
X9906000Y-7914000D01*
X9866000Y-7874000D02*
X9946000Y-7874000D01*
X9906000Y-8850000D02*
X9906000Y-8930000D01*
X9866000Y-8890000D02*
X9946000Y-8890000D01*
X10414000Y-7834000D02*
X10414000Y-7914000D01*
X10374000Y-7874000D02*
X10454000Y-7874000D01*
X10414000Y-8850000D02*
X10414000Y-8930000D01*
X10374000Y-8890000D02*
X10454000Y-8890000D01*
X12065000Y-7834000D02*
X12065000Y-7914000D01*
X12025000Y-7874000D02*
X12105000Y-7874000D01*
X12065000Y-8850000D02*
X12065000Y-8930000D01*
X12025000Y-8890000D02*
X12105000Y-8890000D01*
X12573000Y-7834000D02*
X12573000Y-7914000D01*
X12533000Y-7874000D02*
X12613000Y-7874000D01*
X12573000Y-8850000D02*
X12573000Y-8930000D01*
X12533000Y-8890000D02*
X12613000Y-8890000D01*
X14224000Y-7834000D02*
X14224000Y-7914000D01*
X14184000Y-7874000D02*
X14264000Y-7874000D01*
X14224000Y-8850000D02*
X14224000Y-8930000D01*
X14184000Y-8890000D02*
X14264000Y-8890000D01*
X14732000Y-7834000D02*
X14732000Y-7914000D01*
X14692000Y-7874000D02*
X14772000Y-7874000D01*
X14732000Y-8850000D02*
X14732000Y-8930000D01*
X14692000Y-8890000D02*
X14772000Y-8890000D01*
X16383000Y-7834000D02*
X16383000Y-7914000D01*
X16343000Y-7874000D02*
X16423000Y-7874000D01*
X16383000Y-8850000D02*
X16383000Y-8930000D01*
X16343000Y-8890000D02*
X16423000Y-8890000D01*
X17018000Y-7834000D02*
X17018000Y-7914000D01*
X16978000Y-7874000D02*
X17058000Y-7874000D01*
X17018000Y-8850000D02*
X17018000Y-8930000D01*
X16978000Y-8890000D02*
X17058000Y-8890000D01*
X19177000Y-7834000D02*
X19177000Y-7914000D01*
X19137000Y-7874000D02*
X19217000Y-7874000D01*
X19177000Y-8850000D02*
X19177000Y-8930000D01*
X19137000Y-8890000D02*
X19217000Y-8890000D01*
D15*
X11080820Y-7397820D02*
X11080820Y-7334180D01*
X11017180Y-7334180D01*
X11017180Y-7397820D01*
X11080820Y-7397820D01*
X11334820Y-7397820D02*
X11334820Y-7334180D01*
X11271180Y-7334180D01*
X11271180Y-7397820D01*
X11334820Y-7397820D01*
X13239820Y-7397820D02*
X13239820Y-7334180D01*
X13176180Y-7334180D01*
X13176180Y-7397820D01*
X13239820Y-7397820D01*
X13493820Y-7397820D02*
X13493820Y-7334180D01*
X13430180Y-7334180D01*
X13430180Y-7397820D01*
X13493820Y-7397820D01*
X15398820Y-7397820D02*
X15398820Y-7334180D01*
X15335180Y-7334180D01*
X15335180Y-7397820D01*
X15398820Y-7397820D01*
X15652820Y-7397820D02*
X15652820Y-7334180D01*
X15589180Y-7334180D01*
X15589180Y-7397820D01*
X15652820Y-7397820D01*
X17684820Y-7397820D02*
X17684820Y-7334180D01*
X17621180Y-7334180D01*
X17621180Y-7397820D01*
X17684820Y-7397820D01*
X17938820Y-7397820D02*
X17938820Y-7334180D01*
X17875180Y-7334180D01*
X17875180Y-7397820D01*
X17938820Y-7397820D01*
D10*
X20955000Y-7797000D02*
X21005000Y-7747000D01*
X20955000Y-7697000D01*
X20905000Y-7747000D01*
X20955000Y-7797000D01*
X20955000Y-8051000D02*
X21005000Y-8001000D01*
X20955000Y-7951000D01*
X20905000Y-8001000D01*
X20955000Y-8051000D01*
X20955000Y-8305000D02*
X21005000Y-8255000D01*
X20955000Y-8205000D01*
X20905000Y-8255000D01*
X20955000Y-8305000D01*
X20955000Y-8559000D02*
X21005000Y-8509000D01*
X20955000Y-8459000D01*
X20905000Y-8509000D01*
X20955000Y-8559000D01*
X20955000Y-8813000D02*
X21005000Y-8763000D01*
X20955000Y-8713000D01*
X20905000Y-8763000D01*
X20955000Y-8813000D01*
X20955000Y-9067000D02*
X21005000Y-9017000D01*
X20955000Y-8967000D01*
X20905000Y-9017000D01*
X20955000Y-9067000D01*
X21209000Y-7797000D02*
X21259000Y-7747000D01*
X21209000Y-7697000D01*
X21159000Y-7747000D01*
X21209000Y-7797000D01*
X21209000Y-8051000D02*
X21259000Y-8001000D01*
X21209000Y-7951000D01*
X21159000Y-8001000D01*
X21209000Y-8051000D01*
X21209000Y-8305000D02*
X21259000Y-8255000D01*
X21209000Y-8205000D01*
X21159000Y-8255000D01*
X21209000Y-8305000D01*
X21209000Y-8559000D02*
X21259000Y-8509000D01*
X21209000Y-8459000D01*
X21159000Y-8509000D01*
X21209000Y-8559000D01*
X21209000Y-8813000D02*
X21259000Y-8763000D01*
X21209000Y-8713000D01*
X21159000Y-8763000D01*
X21209000Y-8813000D01*
X21209000Y-9067000D02*
X21259000Y-9017000D01*
X21209000Y-8967000D01*
X21159000Y-9017000D01*
X21209000Y-9067000D01*
D16*
X10852000Y-8073000D02*
X10962000Y-8183000D01*
X10962000Y-8073000D02*
X10852000Y-8183000D01*
X10962000Y-8128000D02*
G75*
G03*
X10962000Y-8128000I-55000J0D01*
G01*
X10852000Y-8523000D02*
X10962000Y-8633000D01*
X10962000Y-8523000D02*
X10852000Y-8633000D01*
X10962000Y-8578000D02*
G75*
G03*
X10962000Y-8578000I-55000J0D01*
G01*
X11502000Y-8073000D02*
X11612000Y-8183000D01*
X11612000Y-8073000D02*
X11502000Y-8183000D01*
X11612000Y-8128000D02*
G75*
G03*
X11612000Y-8128000I-55000J0D01*
G01*
X11502000Y-8523000D02*
X11612000Y-8633000D01*
X11612000Y-8523000D02*
X11502000Y-8633000D01*
X11612000Y-8578000D02*
G75*
G03*
X11612000Y-8578000I-55000J0D01*
G01*
X13011000Y-8073000D02*
X13121000Y-8183000D01*
X13121000Y-8073000D02*
X13011000Y-8183000D01*
X13121000Y-8128000D02*
G75*
G03*
X13121000Y-8128000I-55000J0D01*
G01*
X13011000Y-8523000D02*
X13121000Y-8633000D01*
X13121000Y-8523000D02*
X13011000Y-8633000D01*
X13121000Y-8578000D02*
G75*
G03*
X13121000Y-8578000I-55000J0D01*
G01*
X13661000Y-8073000D02*
X13771000Y-8183000D01*
X13771000Y-8073000D02*
X13661000Y-8183000D01*
X13771000Y-8128000D02*
G75*
G03*
X13771000Y-8128000I-55000J0D01*
G01*
X13661000Y-8523000D02*
X13771000Y-8633000D01*
X13771000Y-8523000D02*
X13661000Y-8633000D01*
X13771000Y-8578000D02*
G75*
G03*
X13771000Y-8578000I-55000J0D01*
G01*
X15170000Y-8073000D02*
X15280000Y-8183000D01*
X15280000Y-8073000D02*
X15170000Y-8183000D01*
X15280000Y-8128000D02*
G75*
G03*
X15280000Y-8128000I-55000J0D01*
G01*
X15170000Y-8523000D02*
X15280000Y-8633000D01*
X15280000Y-8523000D02*
X15170000Y-8633000D01*
X15280000Y-8578000D02*
G75*
G03*
X15280000Y-8578000I-55000J0D01*
G01*
X15820000Y-8073000D02*
X15930000Y-8183000D01*
X15930000Y-8073000D02*
X15820000Y-8183000D01*
X15930000Y-8128000D02*
G75*
G03*
X15930000Y-8128000I-55000J0D01*
G01*
X15820000Y-8523000D02*
X15930000Y-8633000D01*
X15930000Y-8523000D02*
X15820000Y-8633000D01*
X15930000Y-8578000D02*
G75*
G03*
X15930000Y-8578000I-55000J0D01*
G01*
X17456000Y-8073000D02*
X17566000Y-8183000D01*
X17566000Y-8073000D02*
X17456000Y-8183000D01*
X17566000Y-8128000D02*
G75*
G03*
X17566000Y-8128000I-55000J0D01*
G01*
X17456000Y-8523000D02*
X17566000Y-8633000D01*
X17566000Y-8523000D02*
X17456000Y-8633000D01*
X17566000Y-8578000D02*
G75*
G03*
X17566000Y-8578000I-55000J0D01*
G01*
X18106000Y-8073000D02*
X18216000Y-8183000D01*
X18216000Y-8073000D02*
X18106000Y-8183000D01*
X18216000Y-8128000D02*
G75*
G03*
X18216000Y-8128000I-55000J0D01*
G01*
X18106000Y-8523000D02*
X18216000Y-8633000D01*
X18216000Y-8523000D02*
X18106000Y-8633000D01*
X18216000Y-8578000D02*
G75*
G03*
X18216000Y-8578000I-55000J0D01*
G01*
X19503000Y-8073000D02*
X19613000Y-8183000D01*
X19613000Y-8073000D02*
X19503000Y-8183000D01*
X19613000Y-8128000D02*
G75*
G03*
X19613000Y-8128000I-55000J0D01*
G01*
X19503000Y-8523000D02*
X19613000Y-8633000D01*
X19613000Y-8523000D02*
X19503000Y-8633000D01*
X19613000Y-8578000D02*
G75*
G03*
X19613000Y-8578000I-55000J0D01*
G01*
X20153000Y-8073000D02*
X20263000Y-8183000D01*
X20263000Y-8073000D02*
X20153000Y-8183000D01*
X20263000Y-8128000D02*
G75*
G03*
X20263000Y-8128000I-55000J0D01*
G01*
X20153000Y-8523000D02*
X20263000Y-8633000D01*
X20263000Y-8523000D02*
X20153000Y-8633000D01*
X20263000Y-8578000D02*
G75*
G03*
X20263000Y-8578000I-55000J0D01*
G01*
D11*
X6986777Y-9968484D02*
X6986777Y-9768484D01*
X6986777Y-9768484D02*
X7034396Y-9768484D01*
X7034396Y-9768484D02*
X7062967Y-9778008D01*
X7062967Y-9778008D02*
X7082015Y-9797055D01*
X7082015Y-9797055D02*
X7091539Y-9816103D01*
X7091539Y-9816103D02*
X7101062Y-9854198D01*
X7101062Y-9854198D02*
X7101062Y-9882770D01*
X7101062Y-9882770D02*
X7091539Y-9920865D01*
X7091539Y-9920865D02*
X7082015Y-9939912D01*
X7082015Y-9939912D02*
X7062967Y-9958960D01*
X7062967Y-9958960D02*
X7034396Y-9968484D01*
X7034396Y-9968484D02*
X6986777Y-9968484D01*
X7186777Y-9968484D02*
X7186777Y-9835150D01*
X7186777Y-9873246D02*
X7196301Y-9854198D01*
X7196301Y-9854198D02*
X7205824Y-9844674D01*
X7205824Y-9844674D02*
X7224872Y-9835150D01*
X7224872Y-9835150D02*
X7243920Y-9835150D01*
X7310586Y-9968484D02*
X7310586Y-9835150D01*
X7310586Y-9768484D02*
X7301062Y-9778008D01*
X7301062Y-9778008D02*
X7310586Y-9787531D01*
X7310586Y-9787531D02*
X7320110Y-9778008D01*
X7320110Y-9778008D02*
X7310586Y-9768484D01*
X7310586Y-9768484D02*
X7310586Y-9787531D01*
X7434396Y-9968484D02*
X7415348Y-9958960D01*
X7415348Y-9958960D02*
X7405824Y-9939912D01*
X7405824Y-9939912D02*
X7405824Y-9768484D01*
X7539158Y-9968484D02*
X7520110Y-9958960D01*
X7520110Y-9958960D02*
X7510586Y-9939912D01*
X7510586Y-9939912D02*
X7510586Y-9768484D01*
X7767729Y-9968484D02*
X7767729Y-9768484D01*
X7767729Y-9768484D02*
X7834396Y-9911341D01*
X7834396Y-9911341D02*
X7901062Y-9768484D01*
X7901062Y-9768484D02*
X7901062Y-9968484D01*
X8082015Y-9968484D02*
X8082015Y-9863722D01*
X8082015Y-9863722D02*
X8072491Y-9844674D01*
X8072491Y-9844674D02*
X8053443Y-9835150D01*
X8053443Y-9835150D02*
X8015348Y-9835150D01*
X8015348Y-9835150D02*
X7996301Y-9844674D01*
X8082015Y-9958960D02*
X8062967Y-9968484D01*
X8062967Y-9968484D02*
X8015348Y-9968484D01*
X8015348Y-9968484D02*
X7996301Y-9958960D01*
X7996301Y-9958960D02*
X7986777Y-9939912D01*
X7986777Y-9939912D02*
X7986777Y-9920865D01*
X7986777Y-9920865D02*
X7996301Y-9901817D01*
X7996301Y-9901817D02*
X8015348Y-9892293D01*
X8015348Y-9892293D02*
X8062967Y-9892293D01*
X8062967Y-9892293D02*
X8082015Y-9882770D01*
X8177253Y-9835150D02*
X8177253Y-10035150D01*
X8177253Y-9844674D02*
X8196301Y-9835150D01*
X8196301Y-9835150D02*
X8234396Y-9835150D01*
X8234396Y-9835150D02*
X8253443Y-9844674D01*
X8253443Y-9844674D02*
X8262967Y-9854198D01*
X8262967Y-9854198D02*
X8272491Y-9873246D01*
X8272491Y-9873246D02*
X8272491Y-9930389D01*
X8272491Y-9930389D02*
X8262967Y-9949436D01*
X8262967Y-9949436D02*
X8253443Y-9958960D01*
X8253443Y-9958960D02*
X8234396Y-9968484D01*
X8234396Y-9968484D02*
X8196301Y-9968484D01*
X8196301Y-9968484D02*
X8177253Y-9958960D01*
X8358205Y-9949436D02*
X8367729Y-9958960D01*
X8367729Y-9958960D02*
X8358205Y-9968484D01*
X8358205Y-9968484D02*
X8348682Y-9958960D01*
X8348682Y-9958960D02*
X8358205Y-9949436D01*
X8358205Y-9949436D02*
X8358205Y-9968484D01*
X8358205Y-9844674D02*
X8367729Y-9854198D01*
X8367729Y-9854198D02*
X8358205Y-9863722D01*
X8358205Y-9863722D02*
X8348682Y-9854198D01*
X8348682Y-9854198D02*
X8358205Y-9844674D01*
X8358205Y-9844674D02*
X8358205Y-9863722D01*
D12*
X6686000Y-10277000D02*
X6726000Y-10317000D01*
X6726000Y-10277000D02*
X6686000Y-10317000D01*
D11*
X7024872Y-10188484D02*
X7043920Y-10188484D01*
X7043920Y-10188484D02*
X7062967Y-10198008D01*
X7062967Y-10198008D02*
X7072491Y-10207531D01*
X7072491Y-10207531D02*
X7082015Y-10226579D01*
X7082015Y-10226579D02*
X7091539Y-10264674D01*
X7091539Y-10264674D02*
X7091539Y-10312293D01*
X7091539Y-10312293D02*
X7082015Y-10350389D01*
X7082015Y-10350389D02*
X7072491Y-10369436D01*
X7072491Y-10369436D02*
X7062967Y-10378960D01*
X7062967Y-10378960D02*
X7043920Y-10388484D01*
X7043920Y-10388484D02*
X7024872Y-10388484D01*
X7024872Y-10388484D02*
X7005824Y-10378960D01*
X7005824Y-10378960D02*
X6996301Y-10369436D01*
X6996301Y-10369436D02*
X6986777Y-10350389D01*
X6986777Y-10350389D02*
X6977253Y-10312293D01*
X6977253Y-10312293D02*
X6977253Y-10264674D01*
X6977253Y-10264674D02*
X6986777Y-10226579D01*
X6986777Y-10226579D02*
X6996301Y-10207531D01*
X6996301Y-10207531D02*
X7005824Y-10198008D01*
X7005824Y-10198008D02*
X7024872Y-10188484D01*
X7177253Y-10369436D02*
X7186777Y-10378960D01*
X7186777Y-10378960D02*
X7177253Y-10388484D01*
X7177253Y-10388484D02*
X7167729Y-10378960D01*
X7167729Y-10378960D02*
X7177253Y-10369436D01*
X7177253Y-10369436D02*
X7177253Y-10388484D01*
X7358205Y-10255150D02*
X7358205Y-10388484D01*
X7310586Y-10178960D02*
X7262967Y-10321817D01*
X7262967Y-10321817D02*
X7386777Y-10321817D01*
X7501062Y-10188484D02*
X7520110Y-10188484D01*
X7520110Y-10188484D02*
X7539158Y-10198008D01*
X7539158Y-10198008D02*
X7548682Y-10207531D01*
X7548682Y-10207531D02*
X7558205Y-10226579D01*
X7558205Y-10226579D02*
X7567729Y-10264674D01*
X7567729Y-10264674D02*
X7567729Y-10312293D01*
X7567729Y-10312293D02*
X7558205Y-10350389D01*
X7558205Y-10350389D02*
X7548682Y-10369436D01*
X7548682Y-10369436D02*
X7539158Y-10378960D01*
X7539158Y-10378960D02*
X7520110Y-10388484D01*
X7520110Y-10388484D02*
X7501062Y-10388484D01*
X7501062Y-10388484D02*
X7482015Y-10378960D01*
X7482015Y-10378960D02*
X7472491Y-10369436D01*
X7472491Y-10369436D02*
X7462967Y-10350389D01*
X7462967Y-10350389D02*
X7453443Y-10312293D01*
X7453443Y-10312293D02*
X7453443Y-10264674D01*
X7453443Y-10264674D02*
X7462967Y-10226579D01*
X7462967Y-10226579D02*
X7472491Y-10207531D01*
X7472491Y-10207531D02*
X7482015Y-10198008D01*
X7482015Y-10198008D02*
X7501062Y-10188484D01*
X7691539Y-10188484D02*
X7710586Y-10188484D01*
X7710586Y-10188484D02*
X7729634Y-10198008D01*
X7729634Y-10198008D02*
X7739158Y-10207531D01*
X7739158Y-10207531D02*
X7748682Y-10226579D01*
X7748682Y-10226579D02*
X7758205Y-10264674D01*
X7758205Y-10264674D02*
X7758205Y-10312293D01*
X7758205Y-10312293D02*
X7748682Y-10350389D01*
X7748682Y-10350389D02*
X7739158Y-10369436D01*
X7739158Y-10369436D02*
X7729634Y-10378960D01*
X7729634Y-10378960D02*
X7710586Y-10388484D01*
X7710586Y-10388484D02*
X7691539Y-10388484D01*
X7691539Y-10388484D02*
X7672491Y-10378960D01*
X7672491Y-10378960D02*
X7662967Y-10369436D01*
X7662967Y-10369436D02*
X7653443Y-10350389D01*
X7653443Y-10350389D02*
X7643920Y-10312293D01*
X7643920Y-10312293D02*
X7643920Y-10264674D01*
X7643920Y-10264674D02*
X7653443Y-10226579D01*
X7653443Y-10226579D02*
X7662967Y-10207531D01*
X7662967Y-10207531D02*
X7672491Y-10198008D01*
X7672491Y-10198008D02*
X7691539Y-10188484D01*
X7843920Y-10388484D02*
X7843920Y-10255150D01*
X7843920Y-10274198D02*
X7853443Y-10264674D01*
X7853443Y-10264674D02*
X7872491Y-10255150D01*
X7872491Y-10255150D02*
X7901063Y-10255150D01*
X7901063Y-10255150D02*
X7920110Y-10264674D01*
X7920110Y-10264674D02*
X7929634Y-10283722D01*
X7929634Y-10283722D02*
X7929634Y-10388484D01*
X7929634Y-10283722D02*
X7939158Y-10264674D01*
X7939158Y-10264674D02*
X7958205Y-10255150D01*
X7958205Y-10255150D02*
X7986777Y-10255150D01*
X7986777Y-10255150D02*
X8005824Y-10264674D01*
X8005824Y-10264674D02*
X8015348Y-10283722D01*
X8015348Y-10283722D02*
X8015348Y-10388484D01*
X8110586Y-10388484D02*
X8110586Y-10255150D01*
X8110586Y-10274198D02*
X8120110Y-10264674D01*
X8120110Y-10264674D02*
X8139158Y-10255150D01*
X8139158Y-10255150D02*
X8167729Y-10255150D01*
X8167729Y-10255150D02*
X8186777Y-10264674D01*
X8186777Y-10264674D02*
X8196301Y-10283722D01*
X8196301Y-10283722D02*
X8196301Y-10388484D01*
X8196301Y-10283722D02*
X8205824Y-10264674D01*
X8205824Y-10264674D02*
X8224872Y-10255150D01*
X8224872Y-10255150D02*
X8253443Y-10255150D01*
X8253443Y-10255150D02*
X8272491Y-10264674D01*
X8272491Y-10264674D02*
X8282015Y-10283722D01*
X8282015Y-10283722D02*
X8282015Y-10388484D01*
X8672491Y-10178960D02*
X8501063Y-10436103D01*
X8929634Y-10188484D02*
X8948682Y-10188484D01*
X8948682Y-10188484D02*
X8967729Y-10198008D01*
X8967729Y-10198008D02*
X8977253Y-10207531D01*
X8977253Y-10207531D02*
X8986777Y-10226579D01*
X8986777Y-10226579D02*
X8996301Y-10264674D01*
X8996301Y-10264674D02*
X8996301Y-10312293D01*
X8996301Y-10312293D02*
X8986777Y-10350389D01*
X8986777Y-10350389D02*
X8977253Y-10369436D01*
X8977253Y-10369436D02*
X8967729Y-10378960D01*
X8967729Y-10378960D02*
X8948682Y-10388484D01*
X8948682Y-10388484D02*
X8929634Y-10388484D01*
X8929634Y-10388484D02*
X8910587Y-10378960D01*
X8910587Y-10378960D02*
X8901063Y-10369436D01*
X8901063Y-10369436D02*
X8891539Y-10350389D01*
X8891539Y-10350389D02*
X8882015Y-10312293D01*
X8882015Y-10312293D02*
X8882015Y-10264674D01*
X8882015Y-10264674D02*
X8891539Y-10226579D01*
X8891539Y-10226579D02*
X8901063Y-10207531D01*
X8901063Y-10207531D02*
X8910587Y-10198008D01*
X8910587Y-10198008D02*
X8929634Y-10188484D01*
X9082015Y-10369436D02*
X9091539Y-10378960D01*
X9091539Y-10378960D02*
X9082015Y-10388484D01*
X9082015Y-10388484D02*
X9072491Y-10378960D01*
X9072491Y-10378960D02*
X9082015Y-10369436D01*
X9082015Y-10369436D02*
X9082015Y-10388484D01*
X9215348Y-10188484D02*
X9234396Y-10188484D01*
X9234396Y-10188484D02*
X9253444Y-10198008D01*
X9253444Y-10198008D02*
X9262968Y-10207531D01*
X9262968Y-10207531D02*
X9272491Y-10226579D01*
X9272491Y-10226579D02*
X9282015Y-10264674D01*
X9282015Y-10264674D02*
X9282015Y-10312293D01*
X9282015Y-10312293D02*
X9272491Y-10350389D01*
X9272491Y-10350389D02*
X9262968Y-10369436D01*
X9262968Y-10369436D02*
X9253444Y-10378960D01*
X9253444Y-10378960D02*
X9234396Y-10388484D01*
X9234396Y-10388484D02*
X9215348Y-10388484D01*
X9215348Y-10388484D02*
X9196301Y-10378960D01*
X9196301Y-10378960D02*
X9186777Y-10369436D01*
X9186777Y-10369436D02*
X9177253Y-10350389D01*
X9177253Y-10350389D02*
X9167729Y-10312293D01*
X9167729Y-10312293D02*
X9167729Y-10264674D01*
X9167729Y-10264674D02*
X9177253Y-10226579D01*
X9177253Y-10226579D02*
X9186777Y-10207531D01*
X9186777Y-10207531D02*
X9196301Y-10198008D01*
X9196301Y-10198008D02*
X9215348Y-10188484D01*
X9472491Y-10388484D02*
X9358206Y-10388484D01*
X9415348Y-10388484D02*
X9415348Y-10188484D01*
X9415348Y-10188484D02*
X9396301Y-10217055D01*
X9396301Y-10217055D02*
X9377253Y-10236103D01*
X9377253Y-10236103D02*
X9358206Y-10245627D01*
X9653444Y-10188484D02*
X9558206Y-10188484D01*
X9558206Y-10188484D02*
X9548682Y-10283722D01*
X9548682Y-10283722D02*
X9558206Y-10274198D01*
X9558206Y-10274198D02*
X9577253Y-10264674D01*
X9577253Y-10264674D02*
X9624872Y-10264674D01*
X9624872Y-10264674D02*
X9643920Y-10274198D01*
X9643920Y-10274198D02*
X9653444Y-10283722D01*
X9653444Y-10283722D02*
X9662968Y-10302770D01*
X9662968Y-10302770D02*
X9662968Y-10350389D01*
X9662968Y-10350389D02*
X9653444Y-10369436D01*
X9653444Y-10369436D02*
X9643920Y-10378960D01*
X9643920Y-10378960D02*
X9624872Y-10388484D01*
X9624872Y-10388484D02*
X9577253Y-10388484D01*
X9577253Y-10388484D02*
X9558206Y-10378960D01*
X9558206Y-10378960D02*
X9548682Y-10369436D01*
X9729634Y-10188484D02*
X9862968Y-10188484D01*
X9862968Y-10188484D02*
X9777253Y-10388484D01*
X9929634Y-10188484D02*
X9929634Y-10226579D01*
X10005825Y-10188484D02*
X10005825Y-10226579D01*
X10301063Y-10464674D02*
X10291539Y-10455150D01*
X10291539Y-10455150D02*
X10272491Y-10426579D01*
X10272491Y-10426579D02*
X10262968Y-10407531D01*
X10262968Y-10407531D02*
X10253444Y-10378960D01*
X10253444Y-10378960D02*
X10243920Y-10331341D01*
X10243920Y-10331341D02*
X10243920Y-10293246D01*
X10243920Y-10293246D02*
X10253444Y-10245627D01*
X10253444Y-10245627D02*
X10262968Y-10217055D01*
X10262968Y-10217055D02*
X10272491Y-10198008D01*
X10272491Y-10198008D02*
X10291539Y-10169436D01*
X10291539Y-10169436D02*
X10301063Y-10159912D01*
X10482015Y-10388484D02*
X10367730Y-10388484D01*
X10424872Y-10388484D02*
X10424872Y-10188484D01*
X10424872Y-10188484D02*
X10405825Y-10217055D01*
X10405825Y-10217055D02*
X10386777Y-10236103D01*
X10386777Y-10236103D02*
X10367730Y-10245627D01*
X10720111Y-10388484D02*
X10720111Y-10188484D01*
X10805825Y-10388484D02*
X10805825Y-10283722D01*
X10805825Y-10283722D02*
X10796301Y-10264674D01*
X10796301Y-10264674D02*
X10777253Y-10255150D01*
X10777253Y-10255150D02*
X10748682Y-10255150D01*
X10748682Y-10255150D02*
X10729634Y-10264674D01*
X10729634Y-10264674D02*
X10720111Y-10274198D01*
X10929634Y-10388484D02*
X10910587Y-10378960D01*
X10910587Y-10378960D02*
X10901063Y-10369436D01*
X10901063Y-10369436D02*
X10891539Y-10350389D01*
X10891539Y-10350389D02*
X10891539Y-10293246D01*
X10891539Y-10293246D02*
X10901063Y-10274198D01*
X10901063Y-10274198D02*
X10910587Y-10264674D01*
X10910587Y-10264674D02*
X10929634Y-10255150D01*
X10929634Y-10255150D02*
X10958206Y-10255150D01*
X10958206Y-10255150D02*
X10977253Y-10264674D01*
X10977253Y-10264674D02*
X10986777Y-10274198D01*
X10986777Y-10274198D02*
X10996301Y-10293246D01*
X10996301Y-10293246D02*
X10996301Y-10350389D01*
X10996301Y-10350389D02*
X10986777Y-10369436D01*
X10986777Y-10369436D02*
X10977253Y-10378960D01*
X10977253Y-10378960D02*
X10958206Y-10388484D01*
X10958206Y-10388484D02*
X10929634Y-10388484D01*
X11110587Y-10388484D02*
X11091539Y-10378960D01*
X11091539Y-10378960D02*
X11082015Y-10359912D01*
X11082015Y-10359912D02*
X11082015Y-10188484D01*
X11262968Y-10378960D02*
X11243920Y-10388484D01*
X11243920Y-10388484D02*
X11205825Y-10388484D01*
X11205825Y-10388484D02*
X11186777Y-10378960D01*
X11186777Y-10378960D02*
X11177253Y-10359912D01*
X11177253Y-10359912D02*
X11177253Y-10283722D01*
X11177253Y-10283722D02*
X11186777Y-10264674D01*
X11186777Y-10264674D02*
X11205825Y-10255150D01*
X11205825Y-10255150D02*
X11243920Y-10255150D01*
X11243920Y-10255150D02*
X11262968Y-10264674D01*
X11262968Y-10264674D02*
X11272491Y-10283722D01*
X11272491Y-10283722D02*
X11272491Y-10302770D01*
X11272491Y-10302770D02*
X11177253Y-10321817D01*
X11339158Y-10464674D02*
X11348682Y-10455150D01*
X11348682Y-10455150D02*
X11367730Y-10426579D01*
X11367730Y-10426579D02*
X11377253Y-10407531D01*
X11377253Y-10407531D02*
X11386777Y-10378960D01*
X11386777Y-10378960D02*
X11396301Y-10331341D01*
X11396301Y-10331341D02*
X11396301Y-10293246D01*
X11396301Y-10293246D02*
X11386777Y-10245627D01*
X11386777Y-10245627D02*
X11377253Y-10217055D01*
X11377253Y-10217055D02*
X11367730Y-10198008D01*
X11367730Y-10198008D02*
X11348682Y-10169436D01*
X11348682Y-10169436D02*
X11339158Y-10159912D01*
D13*
X6726000Y-10561000D02*
G75*
G03*
X6726000Y-10561000I-38100J0D01*
G01*
D11*
X7024872Y-10452484D02*
X7043920Y-10452484D01*
X7043920Y-10452484D02*
X7062967Y-10462008D01*
X7062967Y-10462008D02*
X7072491Y-10471531D01*
X7072491Y-10471531D02*
X7082015Y-10490579D01*
X7082015Y-10490579D02*
X7091539Y-10528674D01*
X7091539Y-10528674D02*
X7091539Y-10576293D01*
X7091539Y-10576293D02*
X7082015Y-10614389D01*
X7082015Y-10614389D02*
X7072491Y-10633436D01*
X7072491Y-10633436D02*
X7062967Y-10642960D01*
X7062967Y-10642960D02*
X7043920Y-10652484D01*
X7043920Y-10652484D02*
X7024872Y-10652484D01*
X7024872Y-10652484D02*
X7005824Y-10642960D01*
X7005824Y-10642960D02*
X6996301Y-10633436D01*
X6996301Y-10633436D02*
X6986777Y-10614389D01*
X6986777Y-10614389D02*
X6977253Y-10576293D01*
X6977253Y-10576293D02*
X6977253Y-10528674D01*
X6977253Y-10528674D02*
X6986777Y-10490579D01*
X6986777Y-10490579D02*
X6996301Y-10471531D01*
X6996301Y-10471531D02*
X7005824Y-10462008D01*
X7005824Y-10462008D02*
X7024872Y-10452484D01*
X7177253Y-10633436D02*
X7186777Y-10642960D01*
X7186777Y-10642960D02*
X7177253Y-10652484D01*
X7177253Y-10652484D02*
X7167729Y-10642960D01*
X7167729Y-10642960D02*
X7177253Y-10633436D01*
X7177253Y-10633436D02*
X7177253Y-10652484D01*
X7253443Y-10452484D02*
X7386777Y-10452484D01*
X7386777Y-10452484D02*
X7301062Y-10652484D01*
X7548682Y-10452484D02*
X7510586Y-10452484D01*
X7510586Y-10452484D02*
X7491539Y-10462008D01*
X7491539Y-10462008D02*
X7482015Y-10471531D01*
X7482015Y-10471531D02*
X7462967Y-10500103D01*
X7462967Y-10500103D02*
X7453443Y-10538198D01*
X7453443Y-10538198D02*
X7453443Y-10614389D01*
X7453443Y-10614389D02*
X7462967Y-10633436D01*
X7462967Y-10633436D02*
X7472491Y-10642960D01*
X7472491Y-10642960D02*
X7491539Y-10652484D01*
X7491539Y-10652484D02*
X7529634Y-10652484D01*
X7529634Y-10652484D02*
X7548682Y-10642960D01*
X7548682Y-10642960D02*
X7558205Y-10633436D01*
X7558205Y-10633436D02*
X7567729Y-10614389D01*
X7567729Y-10614389D02*
X7567729Y-10566770D01*
X7567729Y-10566770D02*
X7558205Y-10547722D01*
X7558205Y-10547722D02*
X7548682Y-10538198D01*
X7548682Y-10538198D02*
X7529634Y-10528674D01*
X7529634Y-10528674D02*
X7491539Y-10528674D01*
X7491539Y-10528674D02*
X7472491Y-10538198D01*
X7472491Y-10538198D02*
X7462967Y-10547722D01*
X7462967Y-10547722D02*
X7453443Y-10566770D01*
X7643920Y-10471531D02*
X7653443Y-10462008D01*
X7653443Y-10462008D02*
X7672491Y-10452484D01*
X7672491Y-10452484D02*
X7720110Y-10452484D01*
X7720110Y-10452484D02*
X7739158Y-10462008D01*
X7739158Y-10462008D02*
X7748682Y-10471531D01*
X7748682Y-10471531D02*
X7758205Y-10490579D01*
X7758205Y-10490579D02*
X7758205Y-10509627D01*
X7758205Y-10509627D02*
X7748682Y-10538198D01*
X7748682Y-10538198D02*
X7634396Y-10652484D01*
X7634396Y-10652484D02*
X7758205Y-10652484D01*
X7843920Y-10652484D02*
X7843920Y-10519150D01*
X7843920Y-10538198D02*
X7853443Y-10528674D01*
X7853443Y-10528674D02*
X7872491Y-10519150D01*
X7872491Y-10519150D02*
X7901063Y-10519150D01*
X7901063Y-10519150D02*
X7920110Y-10528674D01*
X7920110Y-10528674D02*
X7929634Y-10547722D01*
X7929634Y-10547722D02*
X7929634Y-10652484D01*
X7929634Y-10547722D02*
X7939158Y-10528674D01*
X7939158Y-10528674D02*
X7958205Y-10519150D01*
X7958205Y-10519150D02*
X7986777Y-10519150D01*
X7986777Y-10519150D02*
X8005824Y-10528674D01*
X8005824Y-10528674D02*
X8015348Y-10547722D01*
X8015348Y-10547722D02*
X8015348Y-10652484D01*
X8110586Y-10652484D02*
X8110586Y-10519150D01*
X8110586Y-10538198D02*
X8120110Y-10528674D01*
X8120110Y-10528674D02*
X8139158Y-10519150D01*
X8139158Y-10519150D02*
X8167729Y-10519150D01*
X8167729Y-10519150D02*
X8186777Y-10528674D01*
X8186777Y-10528674D02*
X8196301Y-10547722D01*
X8196301Y-10547722D02*
X8196301Y-10652484D01*
X8196301Y-10547722D02*
X8205824Y-10528674D01*
X8205824Y-10528674D02*
X8224872Y-10519150D01*
X8224872Y-10519150D02*
X8253443Y-10519150D01*
X8253443Y-10519150D02*
X8272491Y-10528674D01*
X8272491Y-10528674D02*
X8282015Y-10547722D01*
X8282015Y-10547722D02*
X8282015Y-10652484D01*
X8672491Y-10442960D02*
X8501063Y-10700103D01*
X8929634Y-10452484D02*
X8948682Y-10452484D01*
X8948682Y-10452484D02*
X8967729Y-10462008D01*
X8967729Y-10462008D02*
X8977253Y-10471531D01*
X8977253Y-10471531D02*
X8986777Y-10490579D01*
X8986777Y-10490579D02*
X8996301Y-10528674D01*
X8996301Y-10528674D02*
X8996301Y-10576293D01*
X8996301Y-10576293D02*
X8986777Y-10614389D01*
X8986777Y-10614389D02*
X8977253Y-10633436D01*
X8977253Y-10633436D02*
X8967729Y-10642960D01*
X8967729Y-10642960D02*
X8948682Y-10652484D01*
X8948682Y-10652484D02*
X8929634Y-10652484D01*
X8929634Y-10652484D02*
X8910587Y-10642960D01*
X8910587Y-10642960D02*
X8901063Y-10633436D01*
X8901063Y-10633436D02*
X8891539Y-10614389D01*
X8891539Y-10614389D02*
X8882015Y-10576293D01*
X8882015Y-10576293D02*
X8882015Y-10528674D01*
X8882015Y-10528674D02*
X8891539Y-10490579D01*
X8891539Y-10490579D02*
X8901063Y-10471531D01*
X8901063Y-10471531D02*
X8910587Y-10462008D01*
X8910587Y-10462008D02*
X8929634Y-10452484D01*
X9082015Y-10633436D02*
X9091539Y-10642960D01*
X9091539Y-10642960D02*
X9082015Y-10652484D01*
X9082015Y-10652484D02*
X9072491Y-10642960D01*
X9072491Y-10642960D02*
X9082015Y-10633436D01*
X9082015Y-10633436D02*
X9082015Y-10652484D01*
X9215348Y-10452484D02*
X9234396Y-10452484D01*
X9234396Y-10452484D02*
X9253444Y-10462008D01*
X9253444Y-10462008D02*
X9262968Y-10471531D01*
X9262968Y-10471531D02*
X9272491Y-10490579D01*
X9272491Y-10490579D02*
X9282015Y-10528674D01*
X9282015Y-10528674D02*
X9282015Y-10576293D01*
X9282015Y-10576293D02*
X9272491Y-10614389D01*
X9272491Y-10614389D02*
X9262968Y-10633436D01*
X9262968Y-10633436D02*
X9253444Y-10642960D01*
X9253444Y-10642960D02*
X9234396Y-10652484D01*
X9234396Y-10652484D02*
X9215348Y-10652484D01*
X9215348Y-10652484D02*
X9196301Y-10642960D01*
X9196301Y-10642960D02*
X9186777Y-10633436D01*
X9186777Y-10633436D02*
X9177253Y-10614389D01*
X9177253Y-10614389D02*
X9167729Y-10576293D01*
X9167729Y-10576293D02*
X9167729Y-10528674D01*
X9167729Y-10528674D02*
X9177253Y-10490579D01*
X9177253Y-10490579D02*
X9186777Y-10471531D01*
X9186777Y-10471531D02*
X9196301Y-10462008D01*
X9196301Y-10462008D02*
X9215348Y-10452484D01*
X9348682Y-10452484D02*
X9472491Y-10452484D01*
X9472491Y-10452484D02*
X9405825Y-10528674D01*
X9405825Y-10528674D02*
X9434396Y-10528674D01*
X9434396Y-10528674D02*
X9453444Y-10538198D01*
X9453444Y-10538198D02*
X9462968Y-10547722D01*
X9462968Y-10547722D02*
X9472491Y-10566770D01*
X9472491Y-10566770D02*
X9472491Y-10614389D01*
X9472491Y-10614389D02*
X9462968Y-10633436D01*
X9462968Y-10633436D02*
X9453444Y-10642960D01*
X9453444Y-10642960D02*
X9434396Y-10652484D01*
X9434396Y-10652484D02*
X9377253Y-10652484D01*
X9377253Y-10652484D02*
X9358206Y-10642960D01*
X9358206Y-10642960D02*
X9348682Y-10633436D01*
X9596301Y-10452484D02*
X9615349Y-10452484D01*
X9615349Y-10452484D02*
X9634396Y-10462008D01*
X9634396Y-10462008D02*
X9643920Y-10471531D01*
X9643920Y-10471531D02*
X9653444Y-10490579D01*
X9653444Y-10490579D02*
X9662968Y-10528674D01*
X9662968Y-10528674D02*
X9662968Y-10576293D01*
X9662968Y-10576293D02*
X9653444Y-10614389D01*
X9653444Y-10614389D02*
X9643920Y-10633436D01*
X9643920Y-10633436D02*
X9634396Y-10642960D01*
X9634396Y-10642960D02*
X9615349Y-10652484D01*
X9615349Y-10652484D02*
X9596301Y-10652484D01*
X9596301Y-10652484D02*
X9577253Y-10642960D01*
X9577253Y-10642960D02*
X9567729Y-10633436D01*
X9567729Y-10633436D02*
X9558206Y-10614389D01*
X9558206Y-10614389D02*
X9548682Y-10576293D01*
X9548682Y-10576293D02*
X9548682Y-10528674D01*
X9548682Y-10528674D02*
X9558206Y-10490579D01*
X9558206Y-10490579D02*
X9567729Y-10471531D01*
X9567729Y-10471531D02*
X9577253Y-10462008D01*
X9577253Y-10462008D02*
X9596301Y-10452484D01*
X9786777Y-10452484D02*
X9805825Y-10452484D01*
X9805825Y-10452484D02*
X9824872Y-10462008D01*
X9824872Y-10462008D02*
X9834396Y-10471531D01*
X9834396Y-10471531D02*
X9843920Y-10490579D01*
X9843920Y-10490579D02*
X9853444Y-10528674D01*
X9853444Y-10528674D02*
X9853444Y-10576293D01*
X9853444Y-10576293D02*
X9843920Y-10614389D01*
X9843920Y-10614389D02*
X9834396Y-10633436D01*
X9834396Y-10633436D02*
X9824872Y-10642960D01*
X9824872Y-10642960D02*
X9805825Y-10652484D01*
X9805825Y-10652484D02*
X9786777Y-10652484D01*
X9786777Y-10652484D02*
X9767729Y-10642960D01*
X9767729Y-10642960D02*
X9758206Y-10633436D01*
X9758206Y-10633436D02*
X9748682Y-10614389D01*
X9748682Y-10614389D02*
X9739158Y-10576293D01*
X9739158Y-10576293D02*
X9739158Y-10528674D01*
X9739158Y-10528674D02*
X9748682Y-10490579D01*
X9748682Y-10490579D02*
X9758206Y-10471531D01*
X9758206Y-10471531D02*
X9767729Y-10462008D01*
X9767729Y-10462008D02*
X9786777Y-10452484D01*
X9929634Y-10452484D02*
X9929634Y-10490579D01*
X10005825Y-10452484D02*
X10005825Y-10490579D01*
X10301063Y-10728674D02*
X10291539Y-10719150D01*
X10291539Y-10719150D02*
X10272491Y-10690579D01*
X10272491Y-10690579D02*
X10262968Y-10671531D01*
X10262968Y-10671531D02*
X10253444Y-10642960D01*
X10253444Y-10642960D02*
X10243920Y-10595341D01*
X10243920Y-10595341D02*
X10243920Y-10557246D01*
X10243920Y-10557246D02*
X10253444Y-10509627D01*
X10253444Y-10509627D02*
X10262968Y-10481055D01*
X10262968Y-10481055D02*
X10272491Y-10462008D01*
X10272491Y-10462008D02*
X10291539Y-10433436D01*
X10291539Y-10433436D02*
X10301063Y-10423912D01*
X10482015Y-10652484D02*
X10367730Y-10652484D01*
X10424872Y-10652484D02*
X10424872Y-10452484D01*
X10424872Y-10452484D02*
X10405825Y-10481055D01*
X10405825Y-10481055D02*
X10386777Y-10500103D01*
X10386777Y-10500103D02*
X10367730Y-10509627D01*
X10672491Y-10652484D02*
X10558206Y-10652484D01*
X10615349Y-10652484D02*
X10615349Y-10452484D01*
X10615349Y-10452484D02*
X10596301Y-10481055D01*
X10596301Y-10481055D02*
X10577253Y-10500103D01*
X10577253Y-10500103D02*
X10558206Y-10509627D01*
X10910587Y-10652484D02*
X10910587Y-10452484D01*
X10996301Y-10652484D02*
X10996301Y-10547722D01*
X10996301Y-10547722D02*
X10986777Y-10528674D01*
X10986777Y-10528674D02*
X10967730Y-10519150D01*
X10967730Y-10519150D02*
X10939158Y-10519150D01*
X10939158Y-10519150D02*
X10920111Y-10528674D01*
X10920111Y-10528674D02*
X10910587Y-10538198D01*
X11120111Y-10652484D02*
X11101063Y-10642960D01*
X11101063Y-10642960D02*
X11091539Y-10633436D01*
X11091539Y-10633436D02*
X11082015Y-10614389D01*
X11082015Y-10614389D02*
X11082015Y-10557246D01*
X11082015Y-10557246D02*
X11091539Y-10538198D01*
X11091539Y-10538198D02*
X11101063Y-10528674D01*
X11101063Y-10528674D02*
X11120111Y-10519150D01*
X11120111Y-10519150D02*
X11148682Y-10519150D01*
X11148682Y-10519150D02*
X11167730Y-10528674D01*
X11167730Y-10528674D02*
X11177253Y-10538198D01*
X11177253Y-10538198D02*
X11186777Y-10557246D01*
X11186777Y-10557246D02*
X11186777Y-10614389D01*
X11186777Y-10614389D02*
X11177253Y-10633436D01*
X11177253Y-10633436D02*
X11167730Y-10642960D01*
X11167730Y-10642960D02*
X11148682Y-10652484D01*
X11148682Y-10652484D02*
X11120111Y-10652484D01*
X11301063Y-10652484D02*
X11282015Y-10642960D01*
X11282015Y-10642960D02*
X11272491Y-10623912D01*
X11272491Y-10623912D02*
X11272491Y-10452484D01*
X11453444Y-10642960D02*
X11434396Y-10652484D01*
X11434396Y-10652484D02*
X11396301Y-10652484D01*
X11396301Y-10652484D02*
X11377253Y-10642960D01*
X11377253Y-10642960D02*
X11367730Y-10623912D01*
X11367730Y-10623912D02*
X11367730Y-10547722D01*
X11367730Y-10547722D02*
X11377253Y-10528674D01*
X11377253Y-10528674D02*
X11396301Y-10519150D01*
X11396301Y-10519150D02*
X11434396Y-10519150D01*
X11434396Y-10519150D02*
X11453444Y-10528674D01*
X11453444Y-10528674D02*
X11462968Y-10547722D01*
X11462968Y-10547722D02*
X11462968Y-10566770D01*
X11462968Y-10566770D02*
X11367730Y-10585817D01*
X11539158Y-10642960D02*
X11558206Y-10652484D01*
X11558206Y-10652484D02*
X11596301Y-10652484D01*
X11596301Y-10652484D02*
X11615349Y-10642960D01*
X11615349Y-10642960D02*
X11624872Y-10623912D01*
X11624872Y-10623912D02*
X11624872Y-10614389D01*
X11624872Y-10614389D02*
X11615349Y-10595341D01*
X11615349Y-10595341D02*
X11596301Y-10585817D01*
X11596301Y-10585817D02*
X11567730Y-10585817D01*
X11567730Y-10585817D02*
X11548682Y-10576293D01*
X11548682Y-10576293D02*
X11539158Y-10557246D01*
X11539158Y-10557246D02*
X11539158Y-10547722D01*
X11539158Y-10547722D02*
X11548682Y-10528674D01*
X11548682Y-10528674D02*
X11567730Y-10519150D01*
X11567730Y-10519150D02*
X11596301Y-10519150D01*
X11596301Y-10519150D02*
X11615349Y-10528674D01*
X11691539Y-10728674D02*
X11701063Y-10719150D01*
X11701063Y-10719150D02*
X11720111Y-10690579D01*
X11720111Y-10690579D02*
X11729634Y-10671531D01*
X11729634Y-10671531D02*
X11739158Y-10642960D01*
X11739158Y-10642960D02*
X11748682Y-10595341D01*
X11748682Y-10595341D02*
X11748682Y-10557246D01*
X11748682Y-10557246D02*
X11739158Y-10509627D01*
X11739158Y-10509627D02*
X11729634Y-10481055D01*
X11729634Y-10481055D02*
X11720111Y-10462008D01*
X11720111Y-10462008D02*
X11701063Y-10433436D01*
X11701063Y-10433436D02*
X11691539Y-10423912D01*
D14*
X6686000Y-10785000D02*
X6686000Y-10865000D01*
X6646000Y-10825000D02*
X6726000Y-10825000D01*
D11*
X7024872Y-10716484D02*
X7043920Y-10716484D01*
X7043920Y-10716484D02*
X7062967Y-10726008D01*
X7062967Y-10726008D02*
X7072491Y-10735531D01*
X7072491Y-10735531D02*
X7082015Y-10754579D01*
X7082015Y-10754579D02*
X7091539Y-10792674D01*
X7091539Y-10792674D02*
X7091539Y-10840293D01*
X7091539Y-10840293D02*
X7082015Y-10878389D01*
X7082015Y-10878389D02*
X7072491Y-10897436D01*
X7072491Y-10897436D02*
X7062967Y-10906960D01*
X7062967Y-10906960D02*
X7043920Y-10916484D01*
X7043920Y-10916484D02*
X7024872Y-10916484D01*
X7024872Y-10916484D02*
X7005824Y-10906960D01*
X7005824Y-10906960D02*
X6996301Y-10897436D01*
X6996301Y-10897436D02*
X6986777Y-10878389D01*
X6986777Y-10878389D02*
X6977253Y-10840293D01*
X6977253Y-10840293D02*
X6977253Y-10792674D01*
X6977253Y-10792674D02*
X6986777Y-10754579D01*
X6986777Y-10754579D02*
X6996301Y-10735531D01*
X6996301Y-10735531D02*
X7005824Y-10726008D01*
X7005824Y-10726008D02*
X7024872Y-10716484D01*
X7177253Y-10897436D02*
X7186777Y-10906960D01*
X7186777Y-10906960D02*
X7177253Y-10916484D01*
X7177253Y-10916484D02*
X7167729Y-10906960D01*
X7167729Y-10906960D02*
X7177253Y-10897436D01*
X7177253Y-10897436D02*
X7177253Y-10916484D01*
X7301062Y-10802198D02*
X7282015Y-10792674D01*
X7282015Y-10792674D02*
X7272491Y-10783150D01*
X7272491Y-10783150D02*
X7262967Y-10764103D01*
X7262967Y-10764103D02*
X7262967Y-10754579D01*
X7262967Y-10754579D02*
X7272491Y-10735531D01*
X7272491Y-10735531D02*
X7282015Y-10726008D01*
X7282015Y-10726008D02*
X7301062Y-10716484D01*
X7301062Y-10716484D02*
X7339158Y-10716484D01*
X7339158Y-10716484D02*
X7358205Y-10726008D01*
X7358205Y-10726008D02*
X7367729Y-10735531D01*
X7367729Y-10735531D02*
X7377253Y-10754579D01*
X7377253Y-10754579D02*
X7377253Y-10764103D01*
X7377253Y-10764103D02*
X7367729Y-10783150D01*
X7367729Y-10783150D02*
X7358205Y-10792674D01*
X7358205Y-10792674D02*
X7339158Y-10802198D01*
X7339158Y-10802198D02*
X7301062Y-10802198D01*
X7301062Y-10802198D02*
X7282015Y-10811722D01*
X7282015Y-10811722D02*
X7272491Y-10821246D01*
X7272491Y-10821246D02*
X7262967Y-10840293D01*
X7262967Y-10840293D02*
X7262967Y-10878389D01*
X7262967Y-10878389D02*
X7272491Y-10897436D01*
X7272491Y-10897436D02*
X7282015Y-10906960D01*
X7282015Y-10906960D02*
X7301062Y-10916484D01*
X7301062Y-10916484D02*
X7339158Y-10916484D01*
X7339158Y-10916484D02*
X7358205Y-10906960D01*
X7358205Y-10906960D02*
X7367729Y-10897436D01*
X7367729Y-10897436D02*
X7377253Y-10878389D01*
X7377253Y-10878389D02*
X7377253Y-10840293D01*
X7377253Y-10840293D02*
X7367729Y-10821246D01*
X7367729Y-10821246D02*
X7358205Y-10811722D01*
X7358205Y-10811722D02*
X7339158Y-10802198D01*
X7501062Y-10716484D02*
X7520110Y-10716484D01*
X7520110Y-10716484D02*
X7539158Y-10726008D01*
X7539158Y-10726008D02*
X7548682Y-10735531D01*
X7548682Y-10735531D02*
X7558205Y-10754579D01*
X7558205Y-10754579D02*
X7567729Y-10792674D01*
X7567729Y-10792674D02*
X7567729Y-10840293D01*
X7567729Y-10840293D02*
X7558205Y-10878389D01*
X7558205Y-10878389D02*
X7548682Y-10897436D01*
X7548682Y-10897436D02*
X7539158Y-10906960D01*
X7539158Y-10906960D02*
X7520110Y-10916484D01*
X7520110Y-10916484D02*
X7501062Y-10916484D01*
X7501062Y-10916484D02*
X7482015Y-10906960D01*
X7482015Y-10906960D02*
X7472491Y-10897436D01*
X7472491Y-10897436D02*
X7462967Y-10878389D01*
X7462967Y-10878389D02*
X7453443Y-10840293D01*
X7453443Y-10840293D02*
X7453443Y-10792674D01*
X7453443Y-10792674D02*
X7462967Y-10754579D01*
X7462967Y-10754579D02*
X7472491Y-10735531D01*
X7472491Y-10735531D02*
X7482015Y-10726008D01*
X7482015Y-10726008D02*
X7501062Y-10716484D01*
X7691539Y-10716484D02*
X7710586Y-10716484D01*
X7710586Y-10716484D02*
X7729634Y-10726008D01*
X7729634Y-10726008D02*
X7739158Y-10735531D01*
X7739158Y-10735531D02*
X7748682Y-10754579D01*
X7748682Y-10754579D02*
X7758205Y-10792674D01*
X7758205Y-10792674D02*
X7758205Y-10840293D01*
X7758205Y-10840293D02*
X7748682Y-10878389D01*
X7748682Y-10878389D02*
X7739158Y-10897436D01*
X7739158Y-10897436D02*
X7729634Y-10906960D01*
X7729634Y-10906960D02*
X7710586Y-10916484D01*
X7710586Y-10916484D02*
X7691539Y-10916484D01*
X7691539Y-10916484D02*
X7672491Y-10906960D01*
X7672491Y-10906960D02*
X7662967Y-10897436D01*
X7662967Y-10897436D02*
X7653443Y-10878389D01*
X7653443Y-10878389D02*
X7643920Y-10840293D01*
X7643920Y-10840293D02*
X7643920Y-10792674D01*
X7643920Y-10792674D02*
X7653443Y-10754579D01*
X7653443Y-10754579D02*
X7662967Y-10735531D01*
X7662967Y-10735531D02*
X7672491Y-10726008D01*
X7672491Y-10726008D02*
X7691539Y-10716484D01*
X7843920Y-10916484D02*
X7843920Y-10783150D01*
X7843920Y-10802198D02*
X7853443Y-10792674D01*
X7853443Y-10792674D02*
X7872491Y-10783150D01*
X7872491Y-10783150D02*
X7901063Y-10783150D01*
X7901063Y-10783150D02*
X7920110Y-10792674D01*
X7920110Y-10792674D02*
X7929634Y-10811722D01*
X7929634Y-10811722D02*
X7929634Y-10916484D01*
X7929634Y-10811722D02*
X7939158Y-10792674D01*
X7939158Y-10792674D02*
X7958205Y-10783150D01*
X7958205Y-10783150D02*
X7986777Y-10783150D01*
X7986777Y-10783150D02*
X8005824Y-10792674D01*
X8005824Y-10792674D02*
X8015348Y-10811722D01*
X8015348Y-10811722D02*
X8015348Y-10916484D01*
X8110586Y-10916484D02*
X8110586Y-10783150D01*
X8110586Y-10802198D02*
X8120110Y-10792674D01*
X8120110Y-10792674D02*
X8139158Y-10783150D01*
X8139158Y-10783150D02*
X8167729Y-10783150D01*
X8167729Y-10783150D02*
X8186777Y-10792674D01*
X8186777Y-10792674D02*
X8196301Y-10811722D01*
X8196301Y-10811722D02*
X8196301Y-10916484D01*
X8196301Y-10811722D02*
X8205824Y-10792674D01*
X8205824Y-10792674D02*
X8224872Y-10783150D01*
X8224872Y-10783150D02*
X8253443Y-10783150D01*
X8253443Y-10783150D02*
X8272491Y-10792674D01*
X8272491Y-10792674D02*
X8282015Y-10811722D01*
X8282015Y-10811722D02*
X8282015Y-10916484D01*
X8672491Y-10706960D02*
X8501063Y-10964103D01*
X8929634Y-10716484D02*
X8948682Y-10716484D01*
X8948682Y-10716484D02*
X8967729Y-10726008D01*
X8967729Y-10726008D02*
X8977253Y-10735531D01*
X8977253Y-10735531D02*
X8986777Y-10754579D01*
X8986777Y-10754579D02*
X8996301Y-10792674D01*
X8996301Y-10792674D02*
X8996301Y-10840293D01*
X8996301Y-10840293D02*
X8986777Y-10878389D01*
X8986777Y-10878389D02*
X8977253Y-10897436D01*
X8977253Y-10897436D02*
X8967729Y-10906960D01*
X8967729Y-10906960D02*
X8948682Y-10916484D01*
X8948682Y-10916484D02*
X8929634Y-10916484D01*
X8929634Y-10916484D02*
X8910587Y-10906960D01*
X8910587Y-10906960D02*
X8901063Y-10897436D01*
X8901063Y-10897436D02*
X8891539Y-10878389D01*
X8891539Y-10878389D02*
X8882015Y-10840293D01*
X8882015Y-10840293D02*
X8882015Y-10792674D01*
X8882015Y-10792674D02*
X8891539Y-10754579D01*
X8891539Y-10754579D02*
X8901063Y-10735531D01*
X8901063Y-10735531D02*
X8910587Y-10726008D01*
X8910587Y-10726008D02*
X8929634Y-10716484D01*
X9082015Y-10897436D02*
X9091539Y-10906960D01*
X9091539Y-10906960D02*
X9082015Y-10916484D01*
X9082015Y-10916484D02*
X9072491Y-10906960D01*
X9072491Y-10906960D02*
X9082015Y-10897436D01*
X9082015Y-10897436D02*
X9082015Y-10916484D01*
X9215348Y-10716484D02*
X9234396Y-10716484D01*
X9234396Y-10716484D02*
X9253444Y-10726008D01*
X9253444Y-10726008D02*
X9262968Y-10735531D01*
X9262968Y-10735531D02*
X9272491Y-10754579D01*
X9272491Y-10754579D02*
X9282015Y-10792674D01*
X9282015Y-10792674D02*
X9282015Y-10840293D01*
X9282015Y-10840293D02*
X9272491Y-10878389D01*
X9272491Y-10878389D02*
X9262968Y-10897436D01*
X9262968Y-10897436D02*
X9253444Y-10906960D01*
X9253444Y-10906960D02*
X9234396Y-10916484D01*
X9234396Y-10916484D02*
X9215348Y-10916484D01*
X9215348Y-10916484D02*
X9196301Y-10906960D01*
X9196301Y-10906960D02*
X9186777Y-10897436D01*
X9186777Y-10897436D02*
X9177253Y-10878389D01*
X9177253Y-10878389D02*
X9167729Y-10840293D01*
X9167729Y-10840293D02*
X9167729Y-10792674D01*
X9167729Y-10792674D02*
X9177253Y-10754579D01*
X9177253Y-10754579D02*
X9186777Y-10735531D01*
X9186777Y-10735531D02*
X9196301Y-10726008D01*
X9196301Y-10726008D02*
X9215348Y-10716484D01*
X9348682Y-10716484D02*
X9472491Y-10716484D01*
X9472491Y-10716484D02*
X9405825Y-10792674D01*
X9405825Y-10792674D02*
X9434396Y-10792674D01*
X9434396Y-10792674D02*
X9453444Y-10802198D01*
X9453444Y-10802198D02*
X9462968Y-10811722D01*
X9462968Y-10811722D02*
X9472491Y-10830770D01*
X9472491Y-10830770D02*
X9472491Y-10878389D01*
X9472491Y-10878389D02*
X9462968Y-10897436D01*
X9462968Y-10897436D02*
X9453444Y-10906960D01*
X9453444Y-10906960D02*
X9434396Y-10916484D01*
X9434396Y-10916484D02*
X9377253Y-10916484D01*
X9377253Y-10916484D02*
X9358206Y-10906960D01*
X9358206Y-10906960D02*
X9348682Y-10897436D01*
X9662968Y-10916484D02*
X9548682Y-10916484D01*
X9605825Y-10916484D02*
X9605825Y-10716484D01*
X9605825Y-10716484D02*
X9586777Y-10745055D01*
X9586777Y-10745055D02*
X9567729Y-10764103D01*
X9567729Y-10764103D02*
X9548682Y-10773627D01*
X9843920Y-10716484D02*
X9748682Y-10716484D01*
X9748682Y-10716484D02*
X9739158Y-10811722D01*
X9739158Y-10811722D02*
X9748682Y-10802198D01*
X9748682Y-10802198D02*
X9767729Y-10792674D01*
X9767729Y-10792674D02*
X9815349Y-10792674D01*
X9815349Y-10792674D02*
X9834396Y-10802198D01*
X9834396Y-10802198D02*
X9843920Y-10811722D01*
X9843920Y-10811722D02*
X9853444Y-10830770D01*
X9853444Y-10830770D02*
X9853444Y-10878389D01*
X9853444Y-10878389D02*
X9843920Y-10897436D01*
X9843920Y-10897436D02*
X9834396Y-10906960D01*
X9834396Y-10906960D02*
X9815349Y-10916484D01*
X9815349Y-10916484D02*
X9767729Y-10916484D01*
X9767729Y-10916484D02*
X9748682Y-10906960D01*
X9748682Y-10906960D02*
X9739158Y-10897436D01*
X9929634Y-10716484D02*
X9929634Y-10754579D01*
X10005825Y-10716484D02*
X10005825Y-10754579D01*
X10301063Y-10992674D02*
X10291539Y-10983150D01*
X10291539Y-10983150D02*
X10272491Y-10954579D01*
X10272491Y-10954579D02*
X10262968Y-10935531D01*
X10262968Y-10935531D02*
X10253444Y-10906960D01*
X10253444Y-10906960D02*
X10243920Y-10859341D01*
X10243920Y-10859341D02*
X10243920Y-10821246D01*
X10243920Y-10821246D02*
X10253444Y-10773627D01*
X10253444Y-10773627D02*
X10262968Y-10745055D01*
X10262968Y-10745055D02*
X10272491Y-10726008D01*
X10272491Y-10726008D02*
X10291539Y-10697436D01*
X10291539Y-10697436D02*
X10301063Y-10687912D01*
X10482015Y-10916484D02*
X10367730Y-10916484D01*
X10424872Y-10916484D02*
X10424872Y-10716484D01*
X10424872Y-10716484D02*
X10405825Y-10745055D01*
X10405825Y-10745055D02*
X10386777Y-10764103D01*
X10386777Y-10764103D02*
X10367730Y-10773627D01*
X10596301Y-10802198D02*
X10577253Y-10792674D01*
X10577253Y-10792674D02*
X10567730Y-10783150D01*
X10567730Y-10783150D02*
X10558206Y-10764103D01*
X10558206Y-10764103D02*
X10558206Y-10754579D01*
X10558206Y-10754579D02*
X10567730Y-10735531D01*
X10567730Y-10735531D02*
X10577253Y-10726008D01*
X10577253Y-10726008D02*
X10596301Y-10716484D01*
X10596301Y-10716484D02*
X10634396Y-10716484D01*
X10634396Y-10716484D02*
X10653444Y-10726008D01*
X10653444Y-10726008D02*
X10662968Y-10735531D01*
X10662968Y-10735531D02*
X10672491Y-10754579D01*
X10672491Y-10754579D02*
X10672491Y-10764103D01*
X10672491Y-10764103D02*
X10662968Y-10783150D01*
X10662968Y-10783150D02*
X10653444Y-10792674D01*
X10653444Y-10792674D02*
X10634396Y-10802198D01*
X10634396Y-10802198D02*
X10596301Y-10802198D01*
X10596301Y-10802198D02*
X10577253Y-10811722D01*
X10577253Y-10811722D02*
X10567730Y-10821246D01*
X10567730Y-10821246D02*
X10558206Y-10840293D01*
X10558206Y-10840293D02*
X10558206Y-10878389D01*
X10558206Y-10878389D02*
X10567730Y-10897436D01*
X10567730Y-10897436D02*
X10577253Y-10906960D01*
X10577253Y-10906960D02*
X10596301Y-10916484D01*
X10596301Y-10916484D02*
X10634396Y-10916484D01*
X10634396Y-10916484D02*
X10653444Y-10906960D01*
X10653444Y-10906960D02*
X10662968Y-10897436D01*
X10662968Y-10897436D02*
X10672491Y-10878389D01*
X10672491Y-10878389D02*
X10672491Y-10840293D01*
X10672491Y-10840293D02*
X10662968Y-10821246D01*
X10662968Y-10821246D02*
X10653444Y-10811722D01*
X10653444Y-10811722D02*
X10634396Y-10802198D01*
X10910587Y-10916484D02*
X10910587Y-10716484D01*
X10996301Y-10916484D02*
X10996301Y-10811722D01*
X10996301Y-10811722D02*
X10986777Y-10792674D01*
X10986777Y-10792674D02*
X10967730Y-10783150D01*
X10967730Y-10783150D02*
X10939158Y-10783150D01*
X10939158Y-10783150D02*
X10920111Y-10792674D01*
X10920111Y-10792674D02*
X10910587Y-10802198D01*
X11120111Y-10916484D02*
X11101063Y-10906960D01*
X11101063Y-10906960D02*
X11091539Y-10897436D01*
X11091539Y-10897436D02*
X11082015Y-10878389D01*
X11082015Y-10878389D02*
X11082015Y-10821246D01*
X11082015Y-10821246D02*
X11091539Y-10802198D01*
X11091539Y-10802198D02*
X11101063Y-10792674D01*
X11101063Y-10792674D02*
X11120111Y-10783150D01*
X11120111Y-10783150D02*
X11148682Y-10783150D01*
X11148682Y-10783150D02*
X11167730Y-10792674D01*
X11167730Y-10792674D02*
X11177253Y-10802198D01*
X11177253Y-10802198D02*
X11186777Y-10821246D01*
X11186777Y-10821246D02*
X11186777Y-10878389D01*
X11186777Y-10878389D02*
X11177253Y-10897436D01*
X11177253Y-10897436D02*
X11167730Y-10906960D01*
X11167730Y-10906960D02*
X11148682Y-10916484D01*
X11148682Y-10916484D02*
X11120111Y-10916484D01*
X11301063Y-10916484D02*
X11282015Y-10906960D01*
X11282015Y-10906960D02*
X11272491Y-10887912D01*
X11272491Y-10887912D02*
X11272491Y-10716484D01*
X11453444Y-10906960D02*
X11434396Y-10916484D01*
X11434396Y-10916484D02*
X11396301Y-10916484D01*
X11396301Y-10916484D02*
X11377253Y-10906960D01*
X11377253Y-10906960D02*
X11367730Y-10887912D01*
X11367730Y-10887912D02*
X11367730Y-10811722D01*
X11367730Y-10811722D02*
X11377253Y-10792674D01*
X11377253Y-10792674D02*
X11396301Y-10783150D01*
X11396301Y-10783150D02*
X11434396Y-10783150D01*
X11434396Y-10783150D02*
X11453444Y-10792674D01*
X11453444Y-10792674D02*
X11462968Y-10811722D01*
X11462968Y-10811722D02*
X11462968Y-10830770D01*
X11462968Y-10830770D02*
X11367730Y-10849817D01*
X11539158Y-10906960D02*
X11558206Y-10916484D01*
X11558206Y-10916484D02*
X11596301Y-10916484D01*
X11596301Y-10916484D02*
X11615349Y-10906960D01*
X11615349Y-10906960D02*
X11624872Y-10887912D01*
X11624872Y-10887912D02*
X11624872Y-10878389D01*
X11624872Y-10878389D02*
X11615349Y-10859341D01*
X11615349Y-10859341D02*
X11596301Y-10849817D01*
X11596301Y-10849817D02*
X11567730Y-10849817D01*
X11567730Y-10849817D02*
X11548682Y-10840293D01*
X11548682Y-10840293D02*
X11539158Y-10821246D01*
X11539158Y-10821246D02*
X11539158Y-10811722D01*
X11539158Y-10811722D02*
X11548682Y-10792674D01*
X11548682Y-10792674D02*
X11567730Y-10783150D01*
X11567730Y-10783150D02*
X11596301Y-10783150D01*
X11596301Y-10783150D02*
X11615349Y-10792674D01*
X11691539Y-10992674D02*
X11701063Y-10983150D01*
X11701063Y-10983150D02*
X11720111Y-10954579D01*
X11720111Y-10954579D02*
X11729634Y-10935531D01*
X11729634Y-10935531D02*
X11739158Y-10906960D01*
X11739158Y-10906960D02*
X11748682Y-10859341D01*
X11748682Y-10859341D02*
X11748682Y-10821246D01*
X11748682Y-10821246D02*
X11739158Y-10773627D01*
X11739158Y-10773627D02*
X11729634Y-10745055D01*
X11729634Y-10745055D02*
X11720111Y-10726008D01*
X11720111Y-10726008D02*
X11701063Y-10697436D01*
X11701063Y-10697436D02*
X11691539Y-10687912D01*
D15*
X6712820Y-11120820D02*
X6712820Y-11057180D01*
X6649180Y-11057180D01*
X6649180Y-11120820D01*
X6712820Y-11120820D01*
D11*
X7024872Y-10980484D02*
X7043920Y-10980484D01*
X7043920Y-10980484D02*
X7062967Y-10990008D01*
X7062967Y-10990008D02*
X7072491Y-10999531D01*
X7072491Y-10999531D02*
X7082015Y-11018579D01*
X7082015Y-11018579D02*
X7091539Y-11056674D01*
X7091539Y-11056674D02*
X7091539Y-11104293D01*
X7091539Y-11104293D02*
X7082015Y-11142389D01*
X7082015Y-11142389D02*
X7072491Y-11161436D01*
X7072491Y-11161436D02*
X7062967Y-11170960D01*
X7062967Y-11170960D02*
X7043920Y-11180484D01*
X7043920Y-11180484D02*
X7024872Y-11180484D01*
X7024872Y-11180484D02*
X7005824Y-11170960D01*
X7005824Y-11170960D02*
X6996301Y-11161436D01*
X6996301Y-11161436D02*
X6986777Y-11142389D01*
X6986777Y-11142389D02*
X6977253Y-11104293D01*
X6977253Y-11104293D02*
X6977253Y-11056674D01*
X6977253Y-11056674D02*
X6986777Y-11018579D01*
X6986777Y-11018579D02*
X6996301Y-10999531D01*
X6996301Y-10999531D02*
X7005824Y-10990008D01*
X7005824Y-10990008D02*
X7024872Y-10980484D01*
X7177253Y-11161436D02*
X7186777Y-11170960D01*
X7186777Y-11170960D02*
X7177253Y-11180484D01*
X7177253Y-11180484D02*
X7167729Y-11170960D01*
X7167729Y-11170960D02*
X7177253Y-11161436D01*
X7177253Y-11161436D02*
X7177253Y-11180484D01*
X7282015Y-11180484D02*
X7320110Y-11180484D01*
X7320110Y-11180484D02*
X7339158Y-11170960D01*
X7339158Y-11170960D02*
X7348682Y-11161436D01*
X7348682Y-11161436D02*
X7367729Y-11132865D01*
X7367729Y-11132865D02*
X7377253Y-11094770D01*
X7377253Y-11094770D02*
X7377253Y-11018579D01*
X7377253Y-11018579D02*
X7367729Y-10999531D01*
X7367729Y-10999531D02*
X7358205Y-10990008D01*
X7358205Y-10990008D02*
X7339158Y-10980484D01*
X7339158Y-10980484D02*
X7301062Y-10980484D01*
X7301062Y-10980484D02*
X7282015Y-10990008D01*
X7282015Y-10990008D02*
X7272491Y-10999531D01*
X7272491Y-10999531D02*
X7262967Y-11018579D01*
X7262967Y-11018579D02*
X7262967Y-11066198D01*
X7262967Y-11066198D02*
X7272491Y-11085246D01*
X7272491Y-11085246D02*
X7282015Y-11094770D01*
X7282015Y-11094770D02*
X7301062Y-11104293D01*
X7301062Y-11104293D02*
X7339158Y-11104293D01*
X7339158Y-11104293D02*
X7358205Y-11094770D01*
X7358205Y-11094770D02*
X7367729Y-11085246D01*
X7367729Y-11085246D02*
X7377253Y-11066198D01*
X7501062Y-10980484D02*
X7520110Y-10980484D01*
X7520110Y-10980484D02*
X7539158Y-10990008D01*
X7539158Y-10990008D02*
X7548682Y-10999531D01*
X7548682Y-10999531D02*
X7558205Y-11018579D01*
X7558205Y-11018579D02*
X7567729Y-11056674D01*
X7567729Y-11056674D02*
X7567729Y-11104293D01*
X7567729Y-11104293D02*
X7558205Y-11142389D01*
X7558205Y-11142389D02*
X7548682Y-11161436D01*
X7548682Y-11161436D02*
X7539158Y-11170960D01*
X7539158Y-11170960D02*
X7520110Y-11180484D01*
X7520110Y-11180484D02*
X7501062Y-11180484D01*
X7501062Y-11180484D02*
X7482015Y-11170960D01*
X7482015Y-11170960D02*
X7472491Y-11161436D01*
X7472491Y-11161436D02*
X7462967Y-11142389D01*
X7462967Y-11142389D02*
X7453443Y-11104293D01*
X7453443Y-11104293D02*
X7453443Y-11056674D01*
X7453443Y-11056674D02*
X7462967Y-11018579D01*
X7462967Y-11018579D02*
X7472491Y-10999531D01*
X7472491Y-10999531D02*
X7482015Y-10990008D01*
X7482015Y-10990008D02*
X7501062Y-10980484D01*
X7691539Y-10980484D02*
X7710586Y-10980484D01*
X7710586Y-10980484D02*
X7729634Y-10990008D01*
X7729634Y-10990008D02*
X7739158Y-10999531D01*
X7739158Y-10999531D02*
X7748682Y-11018579D01*
X7748682Y-11018579D02*
X7758205Y-11056674D01*
X7758205Y-11056674D02*
X7758205Y-11104293D01*
X7758205Y-11104293D02*
X7748682Y-11142389D01*
X7748682Y-11142389D02*
X7739158Y-11161436D01*
X7739158Y-11161436D02*
X7729634Y-11170960D01*
X7729634Y-11170960D02*
X7710586Y-11180484D01*
X7710586Y-11180484D02*
X7691539Y-11180484D01*
X7691539Y-11180484D02*
X7672491Y-11170960D01*
X7672491Y-11170960D02*
X7662967Y-11161436D01*
X7662967Y-11161436D02*
X7653443Y-11142389D01*
X7653443Y-11142389D02*
X7643920Y-11104293D01*
X7643920Y-11104293D02*
X7643920Y-11056674D01*
X7643920Y-11056674D02*
X7653443Y-11018579D01*
X7653443Y-11018579D02*
X7662967Y-10999531D01*
X7662967Y-10999531D02*
X7672491Y-10990008D01*
X7672491Y-10990008D02*
X7691539Y-10980484D01*
X7843920Y-11180484D02*
X7843920Y-11047150D01*
X7843920Y-11066198D02*
X7853443Y-11056674D01*
X7853443Y-11056674D02*
X7872491Y-11047150D01*
X7872491Y-11047150D02*
X7901063Y-11047150D01*
X7901063Y-11047150D02*
X7920110Y-11056674D01*
X7920110Y-11056674D02*
X7929634Y-11075722D01*
X7929634Y-11075722D02*
X7929634Y-11180484D01*
X7929634Y-11075722D02*
X7939158Y-11056674D01*
X7939158Y-11056674D02*
X7958205Y-11047150D01*
X7958205Y-11047150D02*
X7986777Y-11047150D01*
X7986777Y-11047150D02*
X8005824Y-11056674D01*
X8005824Y-11056674D02*
X8015348Y-11075722D01*
X8015348Y-11075722D02*
X8015348Y-11180484D01*
X8110586Y-11180484D02*
X8110586Y-11047150D01*
X8110586Y-11066198D02*
X8120110Y-11056674D01*
X8120110Y-11056674D02*
X8139158Y-11047150D01*
X8139158Y-11047150D02*
X8167729Y-11047150D01*
X8167729Y-11047150D02*
X8186777Y-11056674D01*
X8186777Y-11056674D02*
X8196301Y-11075722D01*
X8196301Y-11075722D02*
X8196301Y-11180484D01*
X8196301Y-11075722D02*
X8205824Y-11056674D01*
X8205824Y-11056674D02*
X8224872Y-11047150D01*
X8224872Y-11047150D02*
X8253443Y-11047150D01*
X8253443Y-11047150D02*
X8272491Y-11056674D01*
X8272491Y-11056674D02*
X8282015Y-11075722D01*
X8282015Y-11075722D02*
X8282015Y-11180484D01*
X8672491Y-10970960D02*
X8501063Y-11228103D01*
X8929634Y-10980484D02*
X8948682Y-10980484D01*
X8948682Y-10980484D02*
X8967729Y-10990008D01*
X8967729Y-10990008D02*
X8977253Y-10999531D01*
X8977253Y-10999531D02*
X8986777Y-11018579D01*
X8986777Y-11018579D02*
X8996301Y-11056674D01*
X8996301Y-11056674D02*
X8996301Y-11104293D01*
X8996301Y-11104293D02*
X8986777Y-11142389D01*
X8986777Y-11142389D02*
X8977253Y-11161436D01*
X8977253Y-11161436D02*
X8967729Y-11170960D01*
X8967729Y-11170960D02*
X8948682Y-11180484D01*
X8948682Y-11180484D02*
X8929634Y-11180484D01*
X8929634Y-11180484D02*
X8910587Y-11170960D01*
X8910587Y-11170960D02*
X8901063Y-11161436D01*
X8901063Y-11161436D02*
X8891539Y-11142389D01*
X8891539Y-11142389D02*
X8882015Y-11104293D01*
X8882015Y-11104293D02*
X8882015Y-11056674D01*
X8882015Y-11056674D02*
X8891539Y-11018579D01*
X8891539Y-11018579D02*
X8901063Y-10999531D01*
X8901063Y-10999531D02*
X8910587Y-10990008D01*
X8910587Y-10990008D02*
X8929634Y-10980484D01*
X9082015Y-11161436D02*
X9091539Y-11170960D01*
X9091539Y-11170960D02*
X9082015Y-11180484D01*
X9082015Y-11180484D02*
X9072491Y-11170960D01*
X9072491Y-11170960D02*
X9082015Y-11161436D01*
X9082015Y-11161436D02*
X9082015Y-11180484D01*
X9215348Y-10980484D02*
X9234396Y-10980484D01*
X9234396Y-10980484D02*
X9253444Y-10990008D01*
X9253444Y-10990008D02*
X9262968Y-10999531D01*
X9262968Y-10999531D02*
X9272491Y-11018579D01*
X9272491Y-11018579D02*
X9282015Y-11056674D01*
X9282015Y-11056674D02*
X9282015Y-11104293D01*
X9282015Y-11104293D02*
X9272491Y-11142389D01*
X9272491Y-11142389D02*
X9262968Y-11161436D01*
X9262968Y-11161436D02*
X9253444Y-11170960D01*
X9253444Y-11170960D02*
X9234396Y-11180484D01*
X9234396Y-11180484D02*
X9215348Y-11180484D01*
X9215348Y-11180484D02*
X9196301Y-11170960D01*
X9196301Y-11170960D02*
X9186777Y-11161436D01*
X9186777Y-11161436D02*
X9177253Y-11142389D01*
X9177253Y-11142389D02*
X9167729Y-11104293D01*
X9167729Y-11104293D02*
X9167729Y-11056674D01*
X9167729Y-11056674D02*
X9177253Y-11018579D01*
X9177253Y-11018579D02*
X9186777Y-10999531D01*
X9186777Y-10999531D02*
X9196301Y-10990008D01*
X9196301Y-10990008D02*
X9215348Y-10980484D01*
X9348682Y-10980484D02*
X9472491Y-10980484D01*
X9472491Y-10980484D02*
X9405825Y-11056674D01*
X9405825Y-11056674D02*
X9434396Y-11056674D01*
X9434396Y-11056674D02*
X9453444Y-11066198D01*
X9453444Y-11066198D02*
X9462968Y-11075722D01*
X9462968Y-11075722D02*
X9472491Y-11094770D01*
X9472491Y-11094770D02*
X9472491Y-11142389D01*
X9472491Y-11142389D02*
X9462968Y-11161436D01*
X9462968Y-11161436D02*
X9453444Y-11170960D01*
X9453444Y-11170960D02*
X9434396Y-11180484D01*
X9434396Y-11180484D02*
X9377253Y-11180484D01*
X9377253Y-11180484D02*
X9358206Y-11170960D01*
X9358206Y-11170960D02*
X9348682Y-11161436D01*
X9653444Y-10980484D02*
X9558206Y-10980484D01*
X9558206Y-10980484D02*
X9548682Y-11075722D01*
X9548682Y-11075722D02*
X9558206Y-11066198D01*
X9558206Y-11066198D02*
X9577253Y-11056674D01*
X9577253Y-11056674D02*
X9624872Y-11056674D01*
X9624872Y-11056674D02*
X9643920Y-11066198D01*
X9643920Y-11066198D02*
X9653444Y-11075722D01*
X9653444Y-11075722D02*
X9662968Y-11094770D01*
X9662968Y-11094770D02*
X9662968Y-11142389D01*
X9662968Y-11142389D02*
X9653444Y-11161436D01*
X9653444Y-11161436D02*
X9643920Y-11170960D01*
X9643920Y-11170960D02*
X9624872Y-11180484D01*
X9624872Y-11180484D02*
X9577253Y-11180484D01*
X9577253Y-11180484D02*
X9558206Y-11170960D01*
X9558206Y-11170960D02*
X9548682Y-11161436D01*
X9834396Y-11047150D02*
X9834396Y-11180484D01*
X9786777Y-10970960D02*
X9739158Y-11113817D01*
X9739158Y-11113817D02*
X9862968Y-11113817D01*
X9929634Y-10980484D02*
X9929634Y-11018579D01*
X10005825Y-10980484D02*
X10005825Y-11018579D01*
X10301063Y-11256674D02*
X10291539Y-11247150D01*
X10291539Y-11247150D02*
X10272491Y-11218579D01*
X10272491Y-11218579D02*
X10262968Y-11199531D01*
X10262968Y-11199531D02*
X10253444Y-11170960D01*
X10253444Y-11170960D02*
X10243920Y-11123341D01*
X10243920Y-11123341D02*
X10243920Y-11085246D01*
X10243920Y-11085246D02*
X10253444Y-11037627D01*
X10253444Y-11037627D02*
X10262968Y-11009055D01*
X10262968Y-11009055D02*
X10272491Y-10990008D01*
X10272491Y-10990008D02*
X10291539Y-10961436D01*
X10291539Y-10961436D02*
X10301063Y-10951912D01*
X10405825Y-11066198D02*
X10386777Y-11056674D01*
X10386777Y-11056674D02*
X10377253Y-11047150D01*
X10377253Y-11047150D02*
X10367730Y-11028103D01*
X10367730Y-11028103D02*
X10367730Y-11018579D01*
X10367730Y-11018579D02*
X10377253Y-10999531D01*
X10377253Y-10999531D02*
X10386777Y-10990008D01*
X10386777Y-10990008D02*
X10405825Y-10980484D01*
X10405825Y-10980484D02*
X10443920Y-10980484D01*
X10443920Y-10980484D02*
X10462968Y-10990008D01*
X10462968Y-10990008D02*
X10472491Y-10999531D01*
X10472491Y-10999531D02*
X10482015Y-11018579D01*
X10482015Y-11018579D02*
X10482015Y-11028103D01*
X10482015Y-11028103D02*
X10472491Y-11047150D01*
X10472491Y-11047150D02*
X10462968Y-11056674D01*
X10462968Y-11056674D02*
X10443920Y-11066198D01*
X10443920Y-11066198D02*
X10405825Y-11066198D01*
X10405825Y-11066198D02*
X10386777Y-11075722D01*
X10386777Y-11075722D02*
X10377253Y-11085246D01*
X10377253Y-11085246D02*
X10367730Y-11104293D01*
X10367730Y-11104293D02*
X10367730Y-11142389D01*
X10367730Y-11142389D02*
X10377253Y-11161436D01*
X10377253Y-11161436D02*
X10386777Y-11170960D01*
X10386777Y-11170960D02*
X10405825Y-11180484D01*
X10405825Y-11180484D02*
X10443920Y-11180484D01*
X10443920Y-11180484D02*
X10462968Y-11170960D01*
X10462968Y-11170960D02*
X10472491Y-11161436D01*
X10472491Y-11161436D02*
X10482015Y-11142389D01*
X10482015Y-11142389D02*
X10482015Y-11104293D01*
X10482015Y-11104293D02*
X10472491Y-11085246D01*
X10472491Y-11085246D02*
X10462968Y-11075722D01*
X10462968Y-11075722D02*
X10443920Y-11066198D01*
X10720111Y-11180484D02*
X10720111Y-10980484D01*
X10805825Y-11180484D02*
X10805825Y-11075722D01*
X10805825Y-11075722D02*
X10796301Y-11056674D01*
X10796301Y-11056674D02*
X10777253Y-11047150D01*
X10777253Y-11047150D02*
X10748682Y-11047150D01*
X10748682Y-11047150D02*
X10729634Y-11056674D01*
X10729634Y-11056674D02*
X10720111Y-11066198D01*
X10929634Y-11180484D02*
X10910587Y-11170960D01*
X10910587Y-11170960D02*
X10901063Y-11161436D01*
X10901063Y-11161436D02*
X10891539Y-11142389D01*
X10891539Y-11142389D02*
X10891539Y-11085246D01*
X10891539Y-11085246D02*
X10901063Y-11066198D01*
X10901063Y-11066198D02*
X10910587Y-11056674D01*
X10910587Y-11056674D02*
X10929634Y-11047150D01*
X10929634Y-11047150D02*
X10958206Y-11047150D01*
X10958206Y-11047150D02*
X10977253Y-11056674D01*
X10977253Y-11056674D02*
X10986777Y-11066198D01*
X10986777Y-11066198D02*
X10996301Y-11085246D01*
X10996301Y-11085246D02*
X10996301Y-11142389D01*
X10996301Y-11142389D02*
X10986777Y-11161436D01*
X10986777Y-11161436D02*
X10977253Y-11170960D01*
X10977253Y-11170960D02*
X10958206Y-11180484D01*
X10958206Y-11180484D02*
X10929634Y-11180484D01*
X11110587Y-11180484D02*
X11091539Y-11170960D01*
X11091539Y-11170960D02*
X11082015Y-11151912D01*
X11082015Y-11151912D02*
X11082015Y-10980484D01*
X11262968Y-11170960D02*
X11243920Y-11180484D01*
X11243920Y-11180484D02*
X11205825Y-11180484D01*
X11205825Y-11180484D02*
X11186777Y-11170960D01*
X11186777Y-11170960D02*
X11177253Y-11151912D01*
X11177253Y-11151912D02*
X11177253Y-11075722D01*
X11177253Y-11075722D02*
X11186777Y-11056674D01*
X11186777Y-11056674D02*
X11205825Y-11047150D01*
X11205825Y-11047150D02*
X11243920Y-11047150D01*
X11243920Y-11047150D02*
X11262968Y-11056674D01*
X11262968Y-11056674D02*
X11272491Y-11075722D01*
X11272491Y-11075722D02*
X11272491Y-11094770D01*
X11272491Y-11094770D02*
X11177253Y-11113817D01*
X11348682Y-11170960D02*
X11367730Y-11180484D01*
X11367730Y-11180484D02*
X11405825Y-11180484D01*
X11405825Y-11180484D02*
X11424872Y-11170960D01*
X11424872Y-11170960D02*
X11434396Y-11151912D01*
X11434396Y-11151912D02*
X11434396Y-11142389D01*
X11434396Y-11142389D02*
X11424872Y-11123341D01*
X11424872Y-11123341D02*
X11405825Y-11113817D01*
X11405825Y-11113817D02*
X11377253Y-11113817D01*
X11377253Y-11113817D02*
X11358206Y-11104293D01*
X11358206Y-11104293D02*
X11348682Y-11085246D01*
X11348682Y-11085246D02*
X11348682Y-11075722D01*
X11348682Y-11075722D02*
X11358206Y-11056674D01*
X11358206Y-11056674D02*
X11377253Y-11047150D01*
X11377253Y-11047150D02*
X11405825Y-11047150D01*
X11405825Y-11047150D02*
X11424872Y-11056674D01*
X11501063Y-11256674D02*
X11510587Y-11247150D01*
X11510587Y-11247150D02*
X11529634Y-11218579D01*
X11529634Y-11218579D02*
X11539158Y-11199531D01*
X11539158Y-11199531D02*
X11548682Y-11170960D01*
X11548682Y-11170960D02*
X11558206Y-11123341D01*
X11558206Y-11123341D02*
X11558206Y-11085246D01*
X11558206Y-11085246D02*
X11548682Y-11037627D01*
X11548682Y-11037627D02*
X11539158Y-11009055D01*
X11539158Y-11009055D02*
X11529634Y-10990008D01*
X11529634Y-10990008D02*
X11510587Y-10961436D01*
X11510587Y-10961436D02*
X11501063Y-10951912D01*
D10*
X6676000Y-11403000D02*
X6726000Y-11353000D01*
X6676000Y-11303000D01*
X6626000Y-11353000D01*
X6676000Y-11403000D01*
D11*
X7091539Y-11444484D02*
X6977253Y-11444484D01*
X7034396Y-11444484D02*
X7034396Y-11244484D01*
X7034396Y-11244484D02*
X7015348Y-11273055D01*
X7015348Y-11273055D02*
X6996301Y-11292103D01*
X6996301Y-11292103D02*
X6977253Y-11301627D01*
X7177253Y-11425436D02*
X7186777Y-11434960D01*
X7186777Y-11434960D02*
X7177253Y-11444484D01*
X7177253Y-11444484D02*
X7167729Y-11434960D01*
X7167729Y-11434960D02*
X7177253Y-11425436D01*
X7177253Y-11425436D02*
X7177253Y-11444484D01*
X7310586Y-11244484D02*
X7329634Y-11244484D01*
X7329634Y-11244484D02*
X7348682Y-11254008D01*
X7348682Y-11254008D02*
X7358205Y-11263531D01*
X7358205Y-11263531D02*
X7367729Y-11282579D01*
X7367729Y-11282579D02*
X7377253Y-11320674D01*
X7377253Y-11320674D02*
X7377253Y-11368293D01*
X7377253Y-11368293D02*
X7367729Y-11406388D01*
X7367729Y-11406388D02*
X7358205Y-11425436D01*
X7358205Y-11425436D02*
X7348682Y-11434960D01*
X7348682Y-11434960D02*
X7329634Y-11444484D01*
X7329634Y-11444484D02*
X7310586Y-11444484D01*
X7310586Y-11444484D02*
X7291539Y-11434960D01*
X7291539Y-11434960D02*
X7282015Y-11425436D01*
X7282015Y-11425436D02*
X7272491Y-11406388D01*
X7272491Y-11406388D02*
X7262967Y-11368293D01*
X7262967Y-11368293D02*
X7262967Y-11320674D01*
X7262967Y-11320674D02*
X7272491Y-11282579D01*
X7272491Y-11282579D02*
X7282015Y-11263531D01*
X7282015Y-11263531D02*
X7291539Y-11254008D01*
X7291539Y-11254008D02*
X7310586Y-11244484D01*
X7501062Y-11244484D02*
X7520110Y-11244484D01*
X7520110Y-11244484D02*
X7539158Y-11254008D01*
X7539158Y-11254008D02*
X7548682Y-11263531D01*
X7548682Y-11263531D02*
X7558205Y-11282579D01*
X7558205Y-11282579D02*
X7567729Y-11320674D01*
X7567729Y-11320674D02*
X7567729Y-11368293D01*
X7567729Y-11368293D02*
X7558205Y-11406388D01*
X7558205Y-11406388D02*
X7548682Y-11425436D01*
X7548682Y-11425436D02*
X7539158Y-11434960D01*
X7539158Y-11434960D02*
X7520110Y-11444484D01*
X7520110Y-11444484D02*
X7501062Y-11444484D01*
X7501062Y-11444484D02*
X7482015Y-11434960D01*
X7482015Y-11434960D02*
X7472491Y-11425436D01*
X7472491Y-11425436D02*
X7462967Y-11406388D01*
X7462967Y-11406388D02*
X7453443Y-11368293D01*
X7453443Y-11368293D02*
X7453443Y-11320674D01*
X7453443Y-11320674D02*
X7462967Y-11282579D01*
X7462967Y-11282579D02*
X7472491Y-11263531D01*
X7472491Y-11263531D02*
X7482015Y-11254008D01*
X7482015Y-11254008D02*
X7501062Y-11244484D01*
X7691539Y-11244484D02*
X7710586Y-11244484D01*
X7710586Y-11244484D02*
X7729634Y-11254008D01*
X7729634Y-11254008D02*
X7739158Y-11263531D01*
X7739158Y-11263531D02*
X7748682Y-11282579D01*
X7748682Y-11282579D02*
X7758205Y-11320674D01*
X7758205Y-11320674D02*
X7758205Y-11368293D01*
X7758205Y-11368293D02*
X7748682Y-11406388D01*
X7748682Y-11406388D02*
X7739158Y-11425436D01*
X7739158Y-11425436D02*
X7729634Y-11434960D01*
X7729634Y-11434960D02*
X7710586Y-11444484D01*
X7710586Y-11444484D02*
X7691539Y-11444484D01*
X7691539Y-11444484D02*
X7672491Y-11434960D01*
X7672491Y-11434960D02*
X7662967Y-11425436D01*
X7662967Y-11425436D02*
X7653443Y-11406388D01*
X7653443Y-11406388D02*
X7643920Y-11368293D01*
X7643920Y-11368293D02*
X7643920Y-11320674D01*
X7643920Y-11320674D02*
X7653443Y-11282579D01*
X7653443Y-11282579D02*
X7662967Y-11263531D01*
X7662967Y-11263531D02*
X7672491Y-11254008D01*
X7672491Y-11254008D02*
X7691539Y-11244484D01*
X7843920Y-11444484D02*
X7843920Y-11311150D01*
X7843920Y-11330198D02*
X7853443Y-11320674D01*
X7853443Y-11320674D02*
X7872491Y-11311150D01*
X7872491Y-11311150D02*
X7901063Y-11311150D01*
X7901063Y-11311150D02*
X7920110Y-11320674D01*
X7920110Y-11320674D02*
X7929634Y-11339722D01*
X7929634Y-11339722D02*
X7929634Y-11444484D01*
X7929634Y-11339722D02*
X7939158Y-11320674D01*
X7939158Y-11320674D02*
X7958205Y-11311150D01*
X7958205Y-11311150D02*
X7986777Y-11311150D01*
X7986777Y-11311150D02*
X8005824Y-11320674D01*
X8005824Y-11320674D02*
X8015348Y-11339722D01*
X8015348Y-11339722D02*
X8015348Y-11444484D01*
X8110586Y-11444484D02*
X8110586Y-11311150D01*
X8110586Y-11330198D02*
X8120110Y-11320674D01*
X8120110Y-11320674D02*
X8139158Y-11311150D01*
X8139158Y-11311150D02*
X8167729Y-11311150D01*
X8167729Y-11311150D02*
X8186777Y-11320674D01*
X8186777Y-11320674D02*
X8196301Y-11339722D01*
X8196301Y-11339722D02*
X8196301Y-11444484D01*
X8196301Y-11339722D02*
X8205824Y-11320674D01*
X8205824Y-11320674D02*
X8224872Y-11311150D01*
X8224872Y-11311150D02*
X8253443Y-11311150D01*
X8253443Y-11311150D02*
X8272491Y-11320674D01*
X8272491Y-11320674D02*
X8282015Y-11339722D01*
X8282015Y-11339722D02*
X8282015Y-11444484D01*
X8672491Y-11234960D02*
X8501063Y-11492103D01*
X8929634Y-11244484D02*
X8948682Y-11244484D01*
X8948682Y-11244484D02*
X8967729Y-11254008D01*
X8967729Y-11254008D02*
X8977253Y-11263531D01*
X8977253Y-11263531D02*
X8986777Y-11282579D01*
X8986777Y-11282579D02*
X8996301Y-11320674D01*
X8996301Y-11320674D02*
X8996301Y-11368293D01*
X8996301Y-11368293D02*
X8986777Y-11406388D01*
X8986777Y-11406388D02*
X8977253Y-11425436D01*
X8977253Y-11425436D02*
X8967729Y-11434960D01*
X8967729Y-11434960D02*
X8948682Y-11444484D01*
X8948682Y-11444484D02*
X8929634Y-11444484D01*
X8929634Y-11444484D02*
X8910587Y-11434960D01*
X8910587Y-11434960D02*
X8901063Y-11425436D01*
X8901063Y-11425436D02*
X8891539Y-11406388D01*
X8891539Y-11406388D02*
X8882015Y-11368293D01*
X8882015Y-11368293D02*
X8882015Y-11320674D01*
X8882015Y-11320674D02*
X8891539Y-11282579D01*
X8891539Y-11282579D02*
X8901063Y-11263531D01*
X8901063Y-11263531D02*
X8910587Y-11254008D01*
X8910587Y-11254008D02*
X8929634Y-11244484D01*
X9082015Y-11425436D02*
X9091539Y-11434960D01*
X9091539Y-11434960D02*
X9082015Y-11444484D01*
X9082015Y-11444484D02*
X9072491Y-11434960D01*
X9072491Y-11434960D02*
X9082015Y-11425436D01*
X9082015Y-11425436D02*
X9082015Y-11444484D01*
X9215348Y-11244484D02*
X9234396Y-11244484D01*
X9234396Y-11244484D02*
X9253444Y-11254008D01*
X9253444Y-11254008D02*
X9262968Y-11263531D01*
X9262968Y-11263531D02*
X9272491Y-11282579D01*
X9272491Y-11282579D02*
X9282015Y-11320674D01*
X9282015Y-11320674D02*
X9282015Y-11368293D01*
X9282015Y-11368293D02*
X9272491Y-11406388D01*
X9272491Y-11406388D02*
X9262968Y-11425436D01*
X9262968Y-11425436D02*
X9253444Y-11434960D01*
X9253444Y-11434960D02*
X9234396Y-11444484D01*
X9234396Y-11444484D02*
X9215348Y-11444484D01*
X9215348Y-11444484D02*
X9196301Y-11434960D01*
X9196301Y-11434960D02*
X9186777Y-11425436D01*
X9186777Y-11425436D02*
X9177253Y-11406388D01*
X9177253Y-11406388D02*
X9167729Y-11368293D01*
X9167729Y-11368293D02*
X9167729Y-11320674D01*
X9167729Y-11320674D02*
X9177253Y-11282579D01*
X9177253Y-11282579D02*
X9186777Y-11263531D01*
X9186777Y-11263531D02*
X9196301Y-11254008D01*
X9196301Y-11254008D02*
X9215348Y-11244484D01*
X9348682Y-11244484D02*
X9472491Y-11244484D01*
X9472491Y-11244484D02*
X9405825Y-11320674D01*
X9405825Y-11320674D02*
X9434396Y-11320674D01*
X9434396Y-11320674D02*
X9453444Y-11330198D01*
X9453444Y-11330198D02*
X9462968Y-11339722D01*
X9462968Y-11339722D02*
X9472491Y-11358769D01*
X9472491Y-11358769D02*
X9472491Y-11406388D01*
X9472491Y-11406388D02*
X9462968Y-11425436D01*
X9462968Y-11425436D02*
X9453444Y-11434960D01*
X9453444Y-11434960D02*
X9434396Y-11444484D01*
X9434396Y-11444484D02*
X9377253Y-11444484D01*
X9377253Y-11444484D02*
X9358206Y-11434960D01*
X9358206Y-11434960D02*
X9348682Y-11425436D01*
X9567729Y-11444484D02*
X9605825Y-11444484D01*
X9605825Y-11444484D02*
X9624872Y-11434960D01*
X9624872Y-11434960D02*
X9634396Y-11425436D01*
X9634396Y-11425436D02*
X9653444Y-11396865D01*
X9653444Y-11396865D02*
X9662968Y-11358769D01*
X9662968Y-11358769D02*
X9662968Y-11282579D01*
X9662968Y-11282579D02*
X9653444Y-11263531D01*
X9653444Y-11263531D02*
X9643920Y-11254008D01*
X9643920Y-11254008D02*
X9624872Y-11244484D01*
X9624872Y-11244484D02*
X9586777Y-11244484D01*
X9586777Y-11244484D02*
X9567729Y-11254008D01*
X9567729Y-11254008D02*
X9558206Y-11263531D01*
X9558206Y-11263531D02*
X9548682Y-11282579D01*
X9548682Y-11282579D02*
X9548682Y-11330198D01*
X9548682Y-11330198D02*
X9558206Y-11349246D01*
X9558206Y-11349246D02*
X9567729Y-11358769D01*
X9567729Y-11358769D02*
X9586777Y-11368293D01*
X9586777Y-11368293D02*
X9624872Y-11368293D01*
X9624872Y-11368293D02*
X9643920Y-11358769D01*
X9643920Y-11358769D02*
X9653444Y-11349246D01*
X9653444Y-11349246D02*
X9662968Y-11330198D01*
X9834396Y-11311150D02*
X9834396Y-11444484D01*
X9786777Y-11234960D02*
X9739158Y-11377817D01*
X9739158Y-11377817D02*
X9862968Y-11377817D01*
X9929634Y-11244484D02*
X9929634Y-11282579D01*
X10005825Y-11244484D02*
X10005825Y-11282579D01*
X10301063Y-11520674D02*
X10291539Y-11511150D01*
X10291539Y-11511150D02*
X10272491Y-11482579D01*
X10272491Y-11482579D02*
X10262968Y-11463531D01*
X10262968Y-11463531D02*
X10253444Y-11434960D01*
X10253444Y-11434960D02*
X10243920Y-11387341D01*
X10243920Y-11387341D02*
X10243920Y-11349246D01*
X10243920Y-11349246D02*
X10253444Y-11301627D01*
X10253444Y-11301627D02*
X10262968Y-11273055D01*
X10262968Y-11273055D02*
X10272491Y-11254008D01*
X10272491Y-11254008D02*
X10291539Y-11225436D01*
X10291539Y-11225436D02*
X10301063Y-11215912D01*
X10482015Y-11444484D02*
X10367730Y-11444484D01*
X10424872Y-11444484D02*
X10424872Y-11244484D01*
X10424872Y-11244484D02*
X10405825Y-11273055D01*
X10405825Y-11273055D02*
X10386777Y-11292103D01*
X10386777Y-11292103D02*
X10367730Y-11301627D01*
X10558206Y-11263531D02*
X10567730Y-11254008D01*
X10567730Y-11254008D02*
X10586777Y-11244484D01*
X10586777Y-11244484D02*
X10634396Y-11244484D01*
X10634396Y-11244484D02*
X10653444Y-11254008D01*
X10653444Y-11254008D02*
X10662968Y-11263531D01*
X10662968Y-11263531D02*
X10672491Y-11282579D01*
X10672491Y-11282579D02*
X10672491Y-11301627D01*
X10672491Y-11301627D02*
X10662968Y-11330198D01*
X10662968Y-11330198D02*
X10548682Y-11444484D01*
X10548682Y-11444484D02*
X10672491Y-11444484D01*
X10910587Y-11444484D02*
X10910587Y-11244484D01*
X10996301Y-11444484D02*
X10996301Y-11339722D01*
X10996301Y-11339722D02*
X10986777Y-11320674D01*
X10986777Y-11320674D02*
X10967730Y-11311150D01*
X10967730Y-11311150D02*
X10939158Y-11311150D01*
X10939158Y-11311150D02*
X10920111Y-11320674D01*
X10920111Y-11320674D02*
X10910587Y-11330198D01*
X11120111Y-11444484D02*
X11101063Y-11434960D01*
X11101063Y-11434960D02*
X11091539Y-11425436D01*
X11091539Y-11425436D02*
X11082015Y-11406388D01*
X11082015Y-11406388D02*
X11082015Y-11349246D01*
X11082015Y-11349246D02*
X11091539Y-11330198D01*
X11091539Y-11330198D02*
X11101063Y-11320674D01*
X11101063Y-11320674D02*
X11120111Y-11311150D01*
X11120111Y-11311150D02*
X11148682Y-11311150D01*
X11148682Y-11311150D02*
X11167730Y-11320674D01*
X11167730Y-11320674D02*
X11177253Y-11330198D01*
X11177253Y-11330198D02*
X11186777Y-11349246D01*
X11186777Y-11349246D02*
X11186777Y-11406388D01*
X11186777Y-11406388D02*
X11177253Y-11425436D01*
X11177253Y-11425436D02*
X11167730Y-11434960D01*
X11167730Y-11434960D02*
X11148682Y-11444484D01*
X11148682Y-11444484D02*
X11120111Y-11444484D01*
X11301063Y-11444484D02*
X11282015Y-11434960D01*
X11282015Y-11434960D02*
X11272491Y-11415912D01*
X11272491Y-11415912D02*
X11272491Y-11244484D01*
X11453444Y-11434960D02*
X11434396Y-11444484D01*
X11434396Y-11444484D02*
X11396301Y-11444484D01*
X11396301Y-11444484D02*
X11377253Y-11434960D01*
X11377253Y-11434960D02*
X11367730Y-11415912D01*
X11367730Y-11415912D02*
X11367730Y-11339722D01*
X11367730Y-11339722D02*
X11377253Y-11320674D01*
X11377253Y-11320674D02*
X11396301Y-11311150D01*
X11396301Y-11311150D02*
X11434396Y-11311150D01*
X11434396Y-11311150D02*
X11453444Y-11320674D01*
X11453444Y-11320674D02*
X11462968Y-11339722D01*
X11462968Y-11339722D02*
X11462968Y-11358769D01*
X11462968Y-11358769D02*
X11367730Y-11377817D01*
X11539158Y-11434960D02*
X11558206Y-11444484D01*
X11558206Y-11444484D02*
X11596301Y-11444484D01*
X11596301Y-11444484D02*
X11615349Y-11434960D01*
X11615349Y-11434960D02*
X11624872Y-11415912D01*
X11624872Y-11415912D02*
X11624872Y-11406388D01*
X11624872Y-11406388D02*
X11615349Y-11387341D01*
X11615349Y-11387341D02*
X11596301Y-11377817D01*
X11596301Y-11377817D02*
X11567730Y-11377817D01*
X11567730Y-11377817D02*
X11548682Y-11368293D01*
X11548682Y-11368293D02*
X11539158Y-11349246D01*
X11539158Y-11349246D02*
X11539158Y-11339722D01*
X11539158Y-11339722D02*
X11548682Y-11320674D01*
X11548682Y-11320674D02*
X11567730Y-11311150D01*
X11567730Y-11311150D02*
X11596301Y-11311150D01*
X11596301Y-11311150D02*
X11615349Y-11320674D01*
X11691539Y-11520674D02*
X11701063Y-11511150D01*
X11701063Y-11511150D02*
X11720111Y-11482579D01*
X11720111Y-11482579D02*
X11729634Y-11463531D01*
X11729634Y-11463531D02*
X11739158Y-11434960D01*
X11739158Y-11434960D02*
X11748682Y-11387341D01*
X11748682Y-11387341D02*
X11748682Y-11349246D01*
X11748682Y-11349246D02*
X11739158Y-11301627D01*
X11739158Y-11301627D02*
X11729634Y-11273055D01*
X11729634Y-11273055D02*
X11720111Y-11254008D01*
X11720111Y-11254008D02*
X11701063Y-11225436D01*
X11701063Y-11225436D02*
X11691539Y-11215912D01*
D16*
X6616000Y-11562000D02*
X6726000Y-11672000D01*
X6726000Y-11562000D02*
X6616000Y-11672000D01*
X6726000Y-11617000D02*
G75*
G03*
X6726000Y-11617000I-55000J0D01*
G01*
D11*
X7091539Y-11708484D02*
X6977253Y-11708484D01*
X7034396Y-11708484D02*
X7034396Y-11508484D01*
X7034396Y-11508484D02*
X7015348Y-11537055D01*
X7015348Y-11537055D02*
X6996301Y-11556103D01*
X6996301Y-11556103D02*
X6977253Y-11565627D01*
X7177253Y-11689436D02*
X7186777Y-11698960D01*
X7186777Y-11698960D02*
X7177253Y-11708484D01*
X7177253Y-11708484D02*
X7167729Y-11698960D01*
X7167729Y-11698960D02*
X7177253Y-11689436D01*
X7177253Y-11689436D02*
X7177253Y-11708484D01*
X7377253Y-11708484D02*
X7262967Y-11708484D01*
X7320110Y-11708484D02*
X7320110Y-11508484D01*
X7320110Y-11508484D02*
X7301062Y-11537055D01*
X7301062Y-11537055D02*
X7282015Y-11556103D01*
X7282015Y-11556103D02*
X7262967Y-11565627D01*
X7501062Y-11508484D02*
X7520110Y-11508484D01*
X7520110Y-11508484D02*
X7539158Y-11518008D01*
X7539158Y-11518008D02*
X7548682Y-11527531D01*
X7548682Y-11527531D02*
X7558205Y-11546579D01*
X7558205Y-11546579D02*
X7567729Y-11584674D01*
X7567729Y-11584674D02*
X7567729Y-11632293D01*
X7567729Y-11632293D02*
X7558205Y-11670388D01*
X7558205Y-11670388D02*
X7548682Y-11689436D01*
X7548682Y-11689436D02*
X7539158Y-11698960D01*
X7539158Y-11698960D02*
X7520110Y-11708484D01*
X7520110Y-11708484D02*
X7501062Y-11708484D01*
X7501062Y-11708484D02*
X7482015Y-11698960D01*
X7482015Y-11698960D02*
X7472491Y-11689436D01*
X7472491Y-11689436D02*
X7462967Y-11670388D01*
X7462967Y-11670388D02*
X7453443Y-11632293D01*
X7453443Y-11632293D02*
X7453443Y-11584674D01*
X7453443Y-11584674D02*
X7462967Y-11546579D01*
X7462967Y-11546579D02*
X7472491Y-11527531D01*
X7472491Y-11527531D02*
X7482015Y-11518008D01*
X7482015Y-11518008D02*
X7501062Y-11508484D01*
X7691539Y-11508484D02*
X7710586Y-11508484D01*
X7710586Y-11508484D02*
X7729634Y-11518008D01*
X7729634Y-11518008D02*
X7739158Y-11527531D01*
X7739158Y-11527531D02*
X7748682Y-11546579D01*
X7748682Y-11546579D02*
X7758205Y-11584674D01*
X7758205Y-11584674D02*
X7758205Y-11632293D01*
X7758205Y-11632293D02*
X7748682Y-11670388D01*
X7748682Y-11670388D02*
X7739158Y-11689436D01*
X7739158Y-11689436D02*
X7729634Y-11698960D01*
X7729634Y-11698960D02*
X7710586Y-11708484D01*
X7710586Y-11708484D02*
X7691539Y-11708484D01*
X7691539Y-11708484D02*
X7672491Y-11698960D01*
X7672491Y-11698960D02*
X7662967Y-11689436D01*
X7662967Y-11689436D02*
X7653443Y-11670388D01*
X7653443Y-11670388D02*
X7643920Y-11632293D01*
X7643920Y-11632293D02*
X7643920Y-11584674D01*
X7643920Y-11584674D02*
X7653443Y-11546579D01*
X7653443Y-11546579D02*
X7662967Y-11527531D01*
X7662967Y-11527531D02*
X7672491Y-11518008D01*
X7672491Y-11518008D02*
X7691539Y-11508484D01*
X7843920Y-11708484D02*
X7843920Y-11575150D01*
X7843920Y-11594198D02*
X7853443Y-11584674D01*
X7853443Y-11584674D02*
X7872491Y-11575150D01*
X7872491Y-11575150D02*
X7901063Y-11575150D01*
X7901063Y-11575150D02*
X7920110Y-11584674D01*
X7920110Y-11584674D02*
X7929634Y-11603722D01*
X7929634Y-11603722D02*
X7929634Y-11708484D01*
X7929634Y-11603722D02*
X7939158Y-11584674D01*
X7939158Y-11584674D02*
X7958205Y-11575150D01*
X7958205Y-11575150D02*
X7986777Y-11575150D01*
X7986777Y-11575150D02*
X8005824Y-11584674D01*
X8005824Y-11584674D02*
X8015348Y-11603722D01*
X8015348Y-11603722D02*
X8015348Y-11708484D01*
X8110586Y-11708484D02*
X8110586Y-11575150D01*
X8110586Y-11594198D02*
X8120110Y-11584674D01*
X8120110Y-11584674D02*
X8139158Y-11575150D01*
X8139158Y-11575150D02*
X8167729Y-11575150D01*
X8167729Y-11575150D02*
X8186777Y-11584674D01*
X8186777Y-11584674D02*
X8196301Y-11603722D01*
X8196301Y-11603722D02*
X8196301Y-11708484D01*
X8196301Y-11603722D02*
X8205824Y-11584674D01*
X8205824Y-11584674D02*
X8224872Y-11575150D01*
X8224872Y-11575150D02*
X8253443Y-11575150D01*
X8253443Y-11575150D02*
X8272491Y-11584674D01*
X8272491Y-11584674D02*
X8282015Y-11603722D01*
X8282015Y-11603722D02*
X8282015Y-11708484D01*
X8672491Y-11498960D02*
X8501063Y-11756103D01*
X8929634Y-11508484D02*
X8948682Y-11508484D01*
X8948682Y-11508484D02*
X8967729Y-11518008D01*
X8967729Y-11518008D02*
X8977253Y-11527531D01*
X8977253Y-11527531D02*
X8986777Y-11546579D01*
X8986777Y-11546579D02*
X8996301Y-11584674D01*
X8996301Y-11584674D02*
X8996301Y-11632293D01*
X8996301Y-11632293D02*
X8986777Y-11670388D01*
X8986777Y-11670388D02*
X8977253Y-11689436D01*
X8977253Y-11689436D02*
X8967729Y-11698960D01*
X8967729Y-11698960D02*
X8948682Y-11708484D01*
X8948682Y-11708484D02*
X8929634Y-11708484D01*
X8929634Y-11708484D02*
X8910587Y-11698960D01*
X8910587Y-11698960D02*
X8901063Y-11689436D01*
X8901063Y-11689436D02*
X8891539Y-11670388D01*
X8891539Y-11670388D02*
X8882015Y-11632293D01*
X8882015Y-11632293D02*
X8882015Y-11584674D01*
X8882015Y-11584674D02*
X8891539Y-11546579D01*
X8891539Y-11546579D02*
X8901063Y-11527531D01*
X8901063Y-11527531D02*
X8910587Y-11518008D01*
X8910587Y-11518008D02*
X8929634Y-11508484D01*
X9082015Y-11689436D02*
X9091539Y-11698960D01*
X9091539Y-11698960D02*
X9082015Y-11708484D01*
X9082015Y-11708484D02*
X9072491Y-11698960D01*
X9072491Y-11698960D02*
X9082015Y-11689436D01*
X9082015Y-11689436D02*
X9082015Y-11708484D01*
X9215348Y-11508484D02*
X9234396Y-11508484D01*
X9234396Y-11508484D02*
X9253444Y-11518008D01*
X9253444Y-11518008D02*
X9262968Y-11527531D01*
X9262968Y-11527531D02*
X9272491Y-11546579D01*
X9272491Y-11546579D02*
X9282015Y-11584674D01*
X9282015Y-11584674D02*
X9282015Y-11632293D01*
X9282015Y-11632293D02*
X9272491Y-11670388D01*
X9272491Y-11670388D02*
X9262968Y-11689436D01*
X9262968Y-11689436D02*
X9253444Y-11698960D01*
X9253444Y-11698960D02*
X9234396Y-11708484D01*
X9234396Y-11708484D02*
X9215348Y-11708484D01*
X9215348Y-11708484D02*
X9196301Y-11698960D01*
X9196301Y-11698960D02*
X9186777Y-11689436D01*
X9186777Y-11689436D02*
X9177253Y-11670388D01*
X9177253Y-11670388D02*
X9167729Y-11632293D01*
X9167729Y-11632293D02*
X9167729Y-11584674D01*
X9167729Y-11584674D02*
X9177253Y-11546579D01*
X9177253Y-11546579D02*
X9186777Y-11527531D01*
X9186777Y-11527531D02*
X9196301Y-11518008D01*
X9196301Y-11518008D02*
X9215348Y-11508484D01*
X9453444Y-11575150D02*
X9453444Y-11708484D01*
X9405825Y-11498960D02*
X9358206Y-11641817D01*
X9358206Y-11641817D02*
X9482015Y-11641817D01*
X9539158Y-11508484D02*
X9662968Y-11508484D01*
X9662968Y-11508484D02*
X9596301Y-11584674D01*
X9596301Y-11584674D02*
X9624872Y-11584674D01*
X9624872Y-11584674D02*
X9643920Y-11594198D01*
X9643920Y-11594198D02*
X9653444Y-11603722D01*
X9653444Y-11603722D02*
X9662968Y-11622769D01*
X9662968Y-11622769D02*
X9662968Y-11670388D01*
X9662968Y-11670388D02*
X9653444Y-11689436D01*
X9653444Y-11689436D02*
X9643920Y-11698960D01*
X9643920Y-11698960D02*
X9624872Y-11708484D01*
X9624872Y-11708484D02*
X9567729Y-11708484D01*
X9567729Y-11708484D02*
X9548682Y-11698960D01*
X9548682Y-11698960D02*
X9539158Y-11689436D01*
X9729634Y-11508484D02*
X9853444Y-11508484D01*
X9853444Y-11508484D02*
X9786777Y-11584674D01*
X9786777Y-11584674D02*
X9815349Y-11584674D01*
X9815349Y-11584674D02*
X9834396Y-11594198D01*
X9834396Y-11594198D02*
X9843920Y-11603722D01*
X9843920Y-11603722D02*
X9853444Y-11622769D01*
X9853444Y-11622769D02*
X9853444Y-11670388D01*
X9853444Y-11670388D02*
X9843920Y-11689436D01*
X9843920Y-11689436D02*
X9834396Y-11698960D01*
X9834396Y-11698960D02*
X9815349Y-11708484D01*
X9815349Y-11708484D02*
X9758206Y-11708484D01*
X9758206Y-11708484D02*
X9739158Y-11698960D01*
X9739158Y-11698960D02*
X9729634Y-11689436D01*
X9929634Y-11508484D02*
X9929634Y-11546579D01*
X10005825Y-11508484D02*
X10005825Y-11546579D01*
X10301063Y-11784674D02*
X10291539Y-11775150D01*
X10291539Y-11775150D02*
X10272491Y-11746579D01*
X10272491Y-11746579D02*
X10262968Y-11727531D01*
X10262968Y-11727531D02*
X10253444Y-11698960D01*
X10253444Y-11698960D02*
X10243920Y-11651341D01*
X10243920Y-11651341D02*
X10243920Y-11613246D01*
X10243920Y-11613246D02*
X10253444Y-11565627D01*
X10253444Y-11565627D02*
X10262968Y-11537055D01*
X10262968Y-11537055D02*
X10272491Y-11518008D01*
X10272491Y-11518008D02*
X10291539Y-11489436D01*
X10291539Y-11489436D02*
X10301063Y-11479912D01*
X10367730Y-11527531D02*
X10377253Y-11518008D01*
X10377253Y-11518008D02*
X10396301Y-11508484D01*
X10396301Y-11508484D02*
X10443920Y-11508484D01*
X10443920Y-11508484D02*
X10462968Y-11518008D01*
X10462968Y-11518008D02*
X10472491Y-11527531D01*
X10472491Y-11527531D02*
X10482015Y-11546579D01*
X10482015Y-11546579D02*
X10482015Y-11565627D01*
X10482015Y-11565627D02*
X10472491Y-11594198D01*
X10472491Y-11594198D02*
X10358206Y-11708484D01*
X10358206Y-11708484D02*
X10482015Y-11708484D01*
X10605825Y-11508484D02*
X10624872Y-11508484D01*
X10624872Y-11508484D02*
X10643920Y-11518008D01*
X10643920Y-11518008D02*
X10653444Y-11527531D01*
X10653444Y-11527531D02*
X10662968Y-11546579D01*
X10662968Y-11546579D02*
X10672491Y-11584674D01*
X10672491Y-11584674D02*
X10672491Y-11632293D01*
X10672491Y-11632293D02*
X10662968Y-11670388D01*
X10662968Y-11670388D02*
X10653444Y-11689436D01*
X10653444Y-11689436D02*
X10643920Y-11698960D01*
X10643920Y-11698960D02*
X10624872Y-11708484D01*
X10624872Y-11708484D02*
X10605825Y-11708484D01*
X10605825Y-11708484D02*
X10586777Y-11698960D01*
X10586777Y-11698960D02*
X10577253Y-11689436D01*
X10577253Y-11689436D02*
X10567730Y-11670388D01*
X10567730Y-11670388D02*
X10558206Y-11632293D01*
X10558206Y-11632293D02*
X10558206Y-11584674D01*
X10558206Y-11584674D02*
X10567730Y-11546579D01*
X10567730Y-11546579D02*
X10577253Y-11527531D01*
X10577253Y-11527531D02*
X10586777Y-11518008D01*
X10586777Y-11518008D02*
X10605825Y-11508484D01*
X10910587Y-11708484D02*
X10910587Y-11508484D01*
X10996301Y-11708484D02*
X10996301Y-11603722D01*
X10996301Y-11603722D02*
X10986777Y-11584674D01*
X10986777Y-11584674D02*
X10967730Y-11575150D01*
X10967730Y-11575150D02*
X10939158Y-11575150D01*
X10939158Y-11575150D02*
X10920111Y-11584674D01*
X10920111Y-11584674D02*
X10910587Y-11594198D01*
X11120111Y-11708484D02*
X11101063Y-11698960D01*
X11101063Y-11698960D02*
X11091539Y-11689436D01*
X11091539Y-11689436D02*
X11082015Y-11670388D01*
X11082015Y-11670388D02*
X11082015Y-11613246D01*
X11082015Y-11613246D02*
X11091539Y-11594198D01*
X11091539Y-11594198D02*
X11101063Y-11584674D01*
X11101063Y-11584674D02*
X11120111Y-11575150D01*
X11120111Y-11575150D02*
X11148682Y-11575150D01*
X11148682Y-11575150D02*
X11167730Y-11584674D01*
X11167730Y-11584674D02*
X11177253Y-11594198D01*
X11177253Y-11594198D02*
X11186777Y-11613246D01*
X11186777Y-11613246D02*
X11186777Y-11670388D01*
X11186777Y-11670388D02*
X11177253Y-11689436D01*
X11177253Y-11689436D02*
X11167730Y-11698960D01*
X11167730Y-11698960D02*
X11148682Y-11708484D01*
X11148682Y-11708484D02*
X11120111Y-11708484D01*
X11301063Y-11708484D02*
X11282015Y-11698960D01*
X11282015Y-11698960D02*
X11272491Y-11679912D01*
X11272491Y-11679912D02*
X11272491Y-11508484D01*
X11453444Y-11698960D02*
X11434396Y-11708484D01*
X11434396Y-11708484D02*
X11396301Y-11708484D01*
X11396301Y-11708484D02*
X11377253Y-11698960D01*
X11377253Y-11698960D02*
X11367730Y-11679912D01*
X11367730Y-11679912D02*
X11367730Y-11603722D01*
X11367730Y-11603722D02*
X11377253Y-11584674D01*
X11377253Y-11584674D02*
X11396301Y-11575150D01*
X11396301Y-11575150D02*
X11434396Y-11575150D01*
X11434396Y-11575150D02*
X11453444Y-11584674D01*
X11453444Y-11584674D02*
X11462968Y-11603722D01*
X11462968Y-11603722D02*
X11462968Y-11622769D01*
X11462968Y-11622769D02*
X11367730Y-11641817D01*
X11539158Y-11698960D02*
X11558206Y-11708484D01*
X11558206Y-11708484D02*
X11596301Y-11708484D01*
X11596301Y-11708484D02*
X11615349Y-11698960D01*
X11615349Y-11698960D02*
X11624872Y-11679912D01*
X11624872Y-11679912D02*
X11624872Y-11670388D01*
X11624872Y-11670388D02*
X11615349Y-11651341D01*
X11615349Y-11651341D02*
X11596301Y-11641817D01*
X11596301Y-11641817D02*
X11567730Y-11641817D01*
X11567730Y-11641817D02*
X11548682Y-11632293D01*
X11548682Y-11632293D02*
X11539158Y-11613246D01*
X11539158Y-11613246D02*
X11539158Y-11603722D01*
X11539158Y-11603722D02*
X11548682Y-11584674D01*
X11548682Y-11584674D02*
X11567730Y-11575150D01*
X11567730Y-11575150D02*
X11596301Y-11575150D01*
X11596301Y-11575150D02*
X11615349Y-11584674D01*
X11691539Y-11784674D02*
X11701063Y-11775150D01*
X11701063Y-11775150D02*
X11720111Y-11746579D01*
X11720111Y-11746579D02*
X11729634Y-11727531D01*
X11729634Y-11727531D02*
X11739158Y-11698960D01*
X11739158Y-11698960D02*
X11748682Y-11651341D01*
X11748682Y-11651341D02*
X11748682Y-11613246D01*
X11748682Y-11613246D02*
X11739158Y-11565627D01*
X11739158Y-11565627D02*
X11729634Y-11537055D01*
X11729634Y-11537055D02*
X11720111Y-11518008D01*
X11720111Y-11518008D02*
X11701063Y-11489436D01*
X11701063Y-11489436D02*
X11691539Y-11479912D01*
M02*
