G04 #@! TF.GenerationSoftware,KiCad,Pcbnew,7.0.7*
G04 #@! TF.CreationDate,2023-09-28T15:47:22-05:00*
G04 #@! TF.ProjectId,iowa-rover-kiosk-programmer,696f7761-2d72-46f7-9665-722d6b696f73,rev?*
G04 #@! TF.SameCoordinates,Original*
G04 #@! TF.FileFunction,Legend,Top*
G04 #@! TF.FilePolarity,Positive*
%FSLAX46Y46*%
G04 Gerber Fmt 4.6, Leading zero omitted, Abs format (unit mm)*
G04 Created by KiCad (PCBNEW 7.0.7) date 2023-09-28 15:47:22*
%MOMM*%
%LPD*%
G01*
G04 APERTURE LIST*
%ADD10C,0.150000*%
%ADD11C,0.120000*%
%ADD12C,0.010000*%
%ADD13R,1.800000X1.800000*%
%ADD14C,1.800000*%
%ADD15C,1.600000*%
%ADD16O,1.600000X1.600000*%
%ADD17C,2.000000*%
%ADD18C,1.524000*%
%ADD19R,1.700000X1.700000*%
%ADD20O,1.700000X1.700000*%
G04 APERTURE END LIST*
D10*
X193329160Y-69452200D02*
X193472017Y-69499819D01*
X193472017Y-69499819D02*
X193710112Y-69499819D01*
X193710112Y-69499819D02*
X193805350Y-69452200D01*
X193805350Y-69452200D02*
X193852969Y-69404580D01*
X193852969Y-69404580D02*
X193900588Y-69309342D01*
X193900588Y-69309342D02*
X193900588Y-69214104D01*
X193900588Y-69214104D02*
X193852969Y-69118866D01*
X193852969Y-69118866D02*
X193805350Y-69071247D01*
X193805350Y-69071247D02*
X193710112Y-69023628D01*
X193710112Y-69023628D02*
X193519636Y-68976009D01*
X193519636Y-68976009D02*
X193424398Y-68928390D01*
X193424398Y-68928390D02*
X193376779Y-68880771D01*
X193376779Y-68880771D02*
X193329160Y-68785533D01*
X193329160Y-68785533D02*
X193329160Y-68690295D01*
X193329160Y-68690295D02*
X193376779Y-68595057D01*
X193376779Y-68595057D02*
X193424398Y-68547438D01*
X193424398Y-68547438D02*
X193519636Y-68499819D01*
X193519636Y-68499819D02*
X193757731Y-68499819D01*
X193757731Y-68499819D02*
X193900588Y-68547438D01*
X194757731Y-69452200D02*
X194662493Y-69499819D01*
X194662493Y-69499819D02*
X194472017Y-69499819D01*
X194472017Y-69499819D02*
X194376779Y-69452200D01*
X194376779Y-69452200D02*
X194329160Y-69404580D01*
X194329160Y-69404580D02*
X194281541Y-69309342D01*
X194281541Y-69309342D02*
X194281541Y-69023628D01*
X194281541Y-69023628D02*
X194329160Y-68928390D01*
X194329160Y-68928390D02*
X194376779Y-68880771D01*
X194376779Y-68880771D02*
X194472017Y-68833152D01*
X194472017Y-68833152D02*
X194662493Y-68833152D01*
X194662493Y-68833152D02*
X194757731Y-68880771D01*
X195186303Y-69499819D02*
X195186303Y-68833152D01*
X195186303Y-68499819D02*
X195138684Y-68547438D01*
X195138684Y-68547438D02*
X195186303Y-68595057D01*
X195186303Y-68595057D02*
X195233922Y-68547438D01*
X195233922Y-68547438D02*
X195186303Y-68499819D01*
X195186303Y-68499819D02*
X195186303Y-68595057D01*
X196043445Y-69452200D02*
X195948207Y-69499819D01*
X195948207Y-69499819D02*
X195757731Y-69499819D01*
X195757731Y-69499819D02*
X195662493Y-69452200D01*
X195662493Y-69452200D02*
X195614874Y-69356961D01*
X195614874Y-69356961D02*
X195614874Y-68976009D01*
X195614874Y-68976009D02*
X195662493Y-68880771D01*
X195662493Y-68880771D02*
X195757731Y-68833152D01*
X195757731Y-68833152D02*
X195948207Y-68833152D01*
X195948207Y-68833152D02*
X196043445Y-68880771D01*
X196043445Y-68880771D02*
X196091064Y-68976009D01*
X196091064Y-68976009D02*
X196091064Y-69071247D01*
X196091064Y-69071247D02*
X195614874Y-69166485D01*
X196519636Y-68833152D02*
X196519636Y-69499819D01*
X196519636Y-68928390D02*
X196567255Y-68880771D01*
X196567255Y-68880771D02*
X196662493Y-68833152D01*
X196662493Y-68833152D02*
X196805350Y-68833152D01*
X196805350Y-68833152D02*
X196900588Y-68880771D01*
X196900588Y-68880771D02*
X196948207Y-68976009D01*
X196948207Y-68976009D02*
X196948207Y-69499819D01*
X197852969Y-69452200D02*
X197757731Y-69499819D01*
X197757731Y-69499819D02*
X197567255Y-69499819D01*
X197567255Y-69499819D02*
X197472017Y-69452200D01*
X197472017Y-69452200D02*
X197424398Y-69404580D01*
X197424398Y-69404580D02*
X197376779Y-69309342D01*
X197376779Y-69309342D02*
X197376779Y-69023628D01*
X197376779Y-69023628D02*
X197424398Y-68928390D01*
X197424398Y-68928390D02*
X197472017Y-68880771D01*
X197472017Y-68880771D02*
X197567255Y-68833152D01*
X197567255Y-68833152D02*
X197757731Y-68833152D01*
X197757731Y-68833152D02*
X197852969Y-68880771D01*
X198662493Y-69452200D02*
X198567255Y-69499819D01*
X198567255Y-69499819D02*
X198376779Y-69499819D01*
X198376779Y-69499819D02*
X198281541Y-69452200D01*
X198281541Y-69452200D02*
X198233922Y-69356961D01*
X198233922Y-69356961D02*
X198233922Y-68976009D01*
X198233922Y-68976009D02*
X198281541Y-68880771D01*
X198281541Y-68880771D02*
X198376779Y-68833152D01*
X198376779Y-68833152D02*
X198567255Y-68833152D01*
X198567255Y-68833152D02*
X198662493Y-68880771D01*
X198662493Y-68880771D02*
X198710112Y-68976009D01*
X198710112Y-68976009D02*
X198710112Y-69071247D01*
X198710112Y-69071247D02*
X198233922Y-69166485D01*
X199900589Y-69499819D02*
X199900589Y-68499819D01*
X199900589Y-68499819D02*
X200233922Y-69214104D01*
X200233922Y-69214104D02*
X200567255Y-68499819D01*
X200567255Y-68499819D02*
X200567255Y-69499819D01*
X201472017Y-68833152D02*
X201472017Y-69499819D01*
X201043446Y-68833152D02*
X201043446Y-69356961D01*
X201043446Y-69356961D02*
X201091065Y-69452200D01*
X201091065Y-69452200D02*
X201186303Y-69499819D01*
X201186303Y-69499819D02*
X201329160Y-69499819D01*
X201329160Y-69499819D02*
X201424398Y-69452200D01*
X201424398Y-69452200D02*
X201472017Y-69404580D01*
X201900589Y-69452200D02*
X201995827Y-69499819D01*
X201995827Y-69499819D02*
X202186303Y-69499819D01*
X202186303Y-69499819D02*
X202281541Y-69452200D01*
X202281541Y-69452200D02*
X202329160Y-69356961D01*
X202329160Y-69356961D02*
X202329160Y-69309342D01*
X202329160Y-69309342D02*
X202281541Y-69214104D01*
X202281541Y-69214104D02*
X202186303Y-69166485D01*
X202186303Y-69166485D02*
X202043446Y-69166485D01*
X202043446Y-69166485D02*
X201948208Y-69118866D01*
X201948208Y-69118866D02*
X201900589Y-69023628D01*
X201900589Y-69023628D02*
X201900589Y-68976009D01*
X201900589Y-68976009D02*
X201948208Y-68880771D01*
X201948208Y-68880771D02*
X202043446Y-68833152D01*
X202043446Y-68833152D02*
X202186303Y-68833152D01*
X202186303Y-68833152D02*
X202281541Y-68880771D01*
X203138684Y-69452200D02*
X203043446Y-69499819D01*
X203043446Y-69499819D02*
X202852970Y-69499819D01*
X202852970Y-69499819D02*
X202757732Y-69452200D01*
X202757732Y-69452200D02*
X202710113Y-69356961D01*
X202710113Y-69356961D02*
X202710113Y-68976009D01*
X202710113Y-68976009D02*
X202757732Y-68880771D01*
X202757732Y-68880771D02*
X202852970Y-68833152D01*
X202852970Y-68833152D02*
X203043446Y-68833152D01*
X203043446Y-68833152D02*
X203138684Y-68880771D01*
X203138684Y-68880771D02*
X203186303Y-68976009D01*
X203186303Y-68976009D02*
X203186303Y-69071247D01*
X203186303Y-69071247D02*
X202710113Y-69166485D01*
X204043446Y-68833152D02*
X204043446Y-69499819D01*
X203614875Y-68833152D02*
X203614875Y-69356961D01*
X203614875Y-69356961D02*
X203662494Y-69452200D01*
X203662494Y-69452200D02*
X203757732Y-69499819D01*
X203757732Y-69499819D02*
X203900589Y-69499819D01*
X203900589Y-69499819D02*
X203995827Y-69452200D01*
X203995827Y-69452200D02*
X204043446Y-69404580D01*
X204519637Y-69499819D02*
X204519637Y-68833152D01*
X204519637Y-68928390D02*
X204567256Y-68880771D01*
X204567256Y-68880771D02*
X204662494Y-68833152D01*
X204662494Y-68833152D02*
X204805351Y-68833152D01*
X204805351Y-68833152D02*
X204900589Y-68880771D01*
X204900589Y-68880771D02*
X204948208Y-68976009D01*
X204948208Y-68976009D02*
X204948208Y-69499819D01*
X204948208Y-68976009D02*
X204995827Y-68880771D01*
X204995827Y-68880771D02*
X205091065Y-68833152D01*
X205091065Y-68833152D02*
X205233922Y-68833152D01*
X205233922Y-68833152D02*
X205329161Y-68880771D01*
X205329161Y-68880771D02*
X205376780Y-68976009D01*
X205376780Y-68976009D02*
X205376780Y-69499819D01*
X206757732Y-69499819D02*
X206662494Y-69452200D01*
X206662494Y-69452200D02*
X206614875Y-69404580D01*
X206614875Y-69404580D02*
X206567256Y-69309342D01*
X206567256Y-69309342D02*
X206567256Y-69023628D01*
X206567256Y-69023628D02*
X206614875Y-68928390D01*
X206614875Y-68928390D02*
X206662494Y-68880771D01*
X206662494Y-68880771D02*
X206757732Y-68833152D01*
X206757732Y-68833152D02*
X206900589Y-68833152D01*
X206900589Y-68833152D02*
X206995827Y-68880771D01*
X206995827Y-68880771D02*
X207043446Y-68928390D01*
X207043446Y-68928390D02*
X207091065Y-69023628D01*
X207091065Y-69023628D02*
X207091065Y-69309342D01*
X207091065Y-69309342D02*
X207043446Y-69404580D01*
X207043446Y-69404580D02*
X206995827Y-69452200D01*
X206995827Y-69452200D02*
X206900589Y-69499819D01*
X206900589Y-69499819D02*
X206757732Y-69499819D01*
X207376780Y-68833152D02*
X207757732Y-68833152D01*
X207519637Y-69499819D02*
X207519637Y-68642676D01*
X207519637Y-68642676D02*
X207567256Y-68547438D01*
X207567256Y-68547438D02*
X207662494Y-68499819D01*
X207662494Y-68499819D02*
X207757732Y-68499819D01*
X208852971Y-69499819D02*
X208852971Y-68499819D01*
X208852971Y-68499819D02*
X209186304Y-69214104D01*
X209186304Y-69214104D02*
X209519637Y-68499819D01*
X209519637Y-68499819D02*
X209519637Y-69499819D01*
X209995828Y-69499819D02*
X209995828Y-68833152D01*
X209995828Y-68499819D02*
X209948209Y-68547438D01*
X209948209Y-68547438D02*
X209995828Y-68595057D01*
X209995828Y-68595057D02*
X210043447Y-68547438D01*
X210043447Y-68547438D02*
X209995828Y-68499819D01*
X209995828Y-68499819D02*
X209995828Y-68595057D01*
X210472018Y-68833152D02*
X210472018Y-69499819D01*
X210472018Y-68928390D02*
X210519637Y-68880771D01*
X210519637Y-68880771D02*
X210614875Y-68833152D01*
X210614875Y-68833152D02*
X210757732Y-68833152D01*
X210757732Y-68833152D02*
X210852970Y-68880771D01*
X210852970Y-68880771D02*
X210900589Y-68976009D01*
X210900589Y-68976009D02*
X210900589Y-69499819D01*
X211376780Y-68833152D02*
X211376780Y-69499819D01*
X211376780Y-68928390D02*
X211424399Y-68880771D01*
X211424399Y-68880771D02*
X211519637Y-68833152D01*
X211519637Y-68833152D02*
X211662494Y-68833152D01*
X211662494Y-68833152D02*
X211757732Y-68880771D01*
X211757732Y-68880771D02*
X211805351Y-68976009D01*
X211805351Y-68976009D02*
X211805351Y-69499819D01*
X212662494Y-69452200D02*
X212567256Y-69499819D01*
X212567256Y-69499819D02*
X212376780Y-69499819D01*
X212376780Y-69499819D02*
X212281542Y-69452200D01*
X212281542Y-69452200D02*
X212233923Y-69356961D01*
X212233923Y-69356961D02*
X212233923Y-68976009D01*
X212233923Y-68976009D02*
X212281542Y-68880771D01*
X212281542Y-68880771D02*
X212376780Y-68833152D01*
X212376780Y-68833152D02*
X212567256Y-68833152D01*
X212567256Y-68833152D02*
X212662494Y-68880771D01*
X212662494Y-68880771D02*
X212710113Y-68976009D01*
X212710113Y-68976009D02*
X212710113Y-69071247D01*
X212710113Y-69071247D02*
X212233923Y-69166485D01*
X213091066Y-69452200D02*
X213186304Y-69499819D01*
X213186304Y-69499819D02*
X213376780Y-69499819D01*
X213376780Y-69499819D02*
X213472018Y-69452200D01*
X213472018Y-69452200D02*
X213519637Y-69356961D01*
X213519637Y-69356961D02*
X213519637Y-69309342D01*
X213519637Y-69309342D02*
X213472018Y-69214104D01*
X213472018Y-69214104D02*
X213376780Y-69166485D01*
X213376780Y-69166485D02*
X213233923Y-69166485D01*
X213233923Y-69166485D02*
X213138685Y-69118866D01*
X213138685Y-69118866D02*
X213091066Y-69023628D01*
X213091066Y-69023628D02*
X213091066Y-68976009D01*
X213091066Y-68976009D02*
X213138685Y-68880771D01*
X213138685Y-68880771D02*
X213233923Y-68833152D01*
X213233923Y-68833152D02*
X213376780Y-68833152D01*
X213376780Y-68833152D02*
X213472018Y-68880771D01*
X214091066Y-69499819D02*
X213995828Y-69452200D01*
X213995828Y-69452200D02*
X213948209Y-69404580D01*
X213948209Y-69404580D02*
X213900590Y-69309342D01*
X213900590Y-69309342D02*
X213900590Y-69023628D01*
X213900590Y-69023628D02*
X213948209Y-68928390D01*
X213948209Y-68928390D02*
X213995828Y-68880771D01*
X213995828Y-68880771D02*
X214091066Y-68833152D01*
X214091066Y-68833152D02*
X214233923Y-68833152D01*
X214233923Y-68833152D02*
X214329161Y-68880771D01*
X214329161Y-68880771D02*
X214376780Y-68928390D01*
X214376780Y-68928390D02*
X214424399Y-69023628D01*
X214424399Y-69023628D02*
X214424399Y-69309342D01*
X214424399Y-69309342D02*
X214376780Y-69404580D01*
X214376780Y-69404580D02*
X214329161Y-69452200D01*
X214329161Y-69452200D02*
X214233923Y-69499819D01*
X214233923Y-69499819D02*
X214091066Y-69499819D01*
X214710114Y-68833152D02*
X215091066Y-68833152D01*
X214852971Y-68499819D02*
X214852971Y-69356961D01*
X214852971Y-69356961D02*
X214900590Y-69452200D01*
X214900590Y-69452200D02*
X214995828Y-69499819D01*
X214995828Y-69499819D02*
X215091066Y-69499819D01*
X215852971Y-69499819D02*
X215852971Y-68976009D01*
X215852971Y-68976009D02*
X215805352Y-68880771D01*
X215805352Y-68880771D02*
X215710114Y-68833152D01*
X215710114Y-68833152D02*
X215519638Y-68833152D01*
X215519638Y-68833152D02*
X215424400Y-68880771D01*
X215852971Y-69452200D02*
X215757733Y-69499819D01*
X215757733Y-69499819D02*
X215519638Y-69499819D01*
X215519638Y-69499819D02*
X215424400Y-69452200D01*
X215424400Y-69452200D02*
X215376781Y-69356961D01*
X215376781Y-69356961D02*
X215376781Y-69261723D01*
X215376781Y-69261723D02*
X215424400Y-69166485D01*
X215424400Y-69166485D02*
X215519638Y-69118866D01*
X215519638Y-69118866D02*
X215757733Y-69118866D01*
X215757733Y-69118866D02*
X215852971Y-69071247D01*
X193948207Y-71109819D02*
X193614874Y-70633628D01*
X193376779Y-71109819D02*
X193376779Y-70109819D01*
X193376779Y-70109819D02*
X193757731Y-70109819D01*
X193757731Y-70109819D02*
X193852969Y-70157438D01*
X193852969Y-70157438D02*
X193900588Y-70205057D01*
X193900588Y-70205057D02*
X193948207Y-70300295D01*
X193948207Y-70300295D02*
X193948207Y-70443152D01*
X193948207Y-70443152D02*
X193900588Y-70538390D01*
X193900588Y-70538390D02*
X193852969Y-70586009D01*
X193852969Y-70586009D02*
X193757731Y-70633628D01*
X193757731Y-70633628D02*
X193376779Y-70633628D01*
X194710112Y-70586009D02*
X194376779Y-70586009D01*
X194376779Y-71109819D02*
X194376779Y-70109819D01*
X194376779Y-70109819D02*
X194852969Y-70109819D01*
X195233922Y-71109819D02*
X195233922Y-70109819D01*
X195710112Y-71109819D02*
X195710112Y-70109819D01*
X195710112Y-70109819D02*
X195948207Y-70109819D01*
X195948207Y-70109819D02*
X196091064Y-70157438D01*
X196091064Y-70157438D02*
X196186302Y-70252676D01*
X196186302Y-70252676D02*
X196233921Y-70347914D01*
X196233921Y-70347914D02*
X196281540Y-70538390D01*
X196281540Y-70538390D02*
X196281540Y-70681247D01*
X196281540Y-70681247D02*
X196233921Y-70871723D01*
X196233921Y-70871723D02*
X196186302Y-70966961D01*
X196186302Y-70966961D02*
X196091064Y-71062200D01*
X196091064Y-71062200D02*
X195948207Y-71109819D01*
X195948207Y-71109819D02*
X195710112Y-71109819D01*
X197472017Y-71109819D02*
X197472017Y-70109819D01*
X197472017Y-70109819D02*
X197852969Y-70109819D01*
X197852969Y-70109819D02*
X197948207Y-70157438D01*
X197948207Y-70157438D02*
X197995826Y-70205057D01*
X197995826Y-70205057D02*
X198043445Y-70300295D01*
X198043445Y-70300295D02*
X198043445Y-70443152D01*
X198043445Y-70443152D02*
X197995826Y-70538390D01*
X197995826Y-70538390D02*
X197948207Y-70586009D01*
X197948207Y-70586009D02*
X197852969Y-70633628D01*
X197852969Y-70633628D02*
X197472017Y-70633628D01*
X198472017Y-71109819D02*
X198472017Y-70443152D01*
X198472017Y-70633628D02*
X198519636Y-70538390D01*
X198519636Y-70538390D02*
X198567255Y-70490771D01*
X198567255Y-70490771D02*
X198662493Y-70443152D01*
X198662493Y-70443152D02*
X198757731Y-70443152D01*
X199233922Y-71109819D02*
X199138684Y-71062200D01*
X199138684Y-71062200D02*
X199091065Y-71014580D01*
X199091065Y-71014580D02*
X199043446Y-70919342D01*
X199043446Y-70919342D02*
X199043446Y-70633628D01*
X199043446Y-70633628D02*
X199091065Y-70538390D01*
X199091065Y-70538390D02*
X199138684Y-70490771D01*
X199138684Y-70490771D02*
X199233922Y-70443152D01*
X199233922Y-70443152D02*
X199376779Y-70443152D01*
X199376779Y-70443152D02*
X199472017Y-70490771D01*
X199472017Y-70490771D02*
X199519636Y-70538390D01*
X199519636Y-70538390D02*
X199567255Y-70633628D01*
X199567255Y-70633628D02*
X199567255Y-70919342D01*
X199567255Y-70919342D02*
X199519636Y-71014580D01*
X199519636Y-71014580D02*
X199472017Y-71062200D01*
X199472017Y-71062200D02*
X199376779Y-71109819D01*
X199376779Y-71109819D02*
X199233922Y-71109819D01*
X200424398Y-70443152D02*
X200424398Y-71252676D01*
X200424398Y-71252676D02*
X200376779Y-71347914D01*
X200376779Y-71347914D02*
X200329160Y-71395533D01*
X200329160Y-71395533D02*
X200233922Y-71443152D01*
X200233922Y-71443152D02*
X200091065Y-71443152D01*
X200091065Y-71443152D02*
X199995827Y-71395533D01*
X200424398Y-71062200D02*
X200329160Y-71109819D01*
X200329160Y-71109819D02*
X200138684Y-71109819D01*
X200138684Y-71109819D02*
X200043446Y-71062200D01*
X200043446Y-71062200D02*
X199995827Y-71014580D01*
X199995827Y-71014580D02*
X199948208Y-70919342D01*
X199948208Y-70919342D02*
X199948208Y-70633628D01*
X199948208Y-70633628D02*
X199995827Y-70538390D01*
X199995827Y-70538390D02*
X200043446Y-70490771D01*
X200043446Y-70490771D02*
X200138684Y-70443152D01*
X200138684Y-70443152D02*
X200329160Y-70443152D01*
X200329160Y-70443152D02*
X200424398Y-70490771D01*
X200900589Y-71109819D02*
X200900589Y-70443152D01*
X200900589Y-70633628D02*
X200948208Y-70538390D01*
X200948208Y-70538390D02*
X200995827Y-70490771D01*
X200995827Y-70490771D02*
X201091065Y-70443152D01*
X201091065Y-70443152D02*
X201186303Y-70443152D01*
X201948208Y-71109819D02*
X201948208Y-70586009D01*
X201948208Y-70586009D02*
X201900589Y-70490771D01*
X201900589Y-70490771D02*
X201805351Y-70443152D01*
X201805351Y-70443152D02*
X201614875Y-70443152D01*
X201614875Y-70443152D02*
X201519637Y-70490771D01*
X201948208Y-71062200D02*
X201852970Y-71109819D01*
X201852970Y-71109819D02*
X201614875Y-71109819D01*
X201614875Y-71109819D02*
X201519637Y-71062200D01*
X201519637Y-71062200D02*
X201472018Y-70966961D01*
X201472018Y-70966961D02*
X201472018Y-70871723D01*
X201472018Y-70871723D02*
X201519637Y-70776485D01*
X201519637Y-70776485D02*
X201614875Y-70728866D01*
X201614875Y-70728866D02*
X201852970Y-70728866D01*
X201852970Y-70728866D02*
X201948208Y-70681247D01*
X202424399Y-71109819D02*
X202424399Y-70443152D01*
X202424399Y-70538390D02*
X202472018Y-70490771D01*
X202472018Y-70490771D02*
X202567256Y-70443152D01*
X202567256Y-70443152D02*
X202710113Y-70443152D01*
X202710113Y-70443152D02*
X202805351Y-70490771D01*
X202805351Y-70490771D02*
X202852970Y-70586009D01*
X202852970Y-70586009D02*
X202852970Y-71109819D01*
X202852970Y-70586009D02*
X202900589Y-70490771D01*
X202900589Y-70490771D02*
X202995827Y-70443152D01*
X202995827Y-70443152D02*
X203138684Y-70443152D01*
X203138684Y-70443152D02*
X203233923Y-70490771D01*
X203233923Y-70490771D02*
X203281542Y-70586009D01*
X203281542Y-70586009D02*
X203281542Y-71109819D01*
X203757732Y-71109819D02*
X203757732Y-70443152D01*
X203757732Y-70538390D02*
X203805351Y-70490771D01*
X203805351Y-70490771D02*
X203900589Y-70443152D01*
X203900589Y-70443152D02*
X204043446Y-70443152D01*
X204043446Y-70443152D02*
X204138684Y-70490771D01*
X204138684Y-70490771D02*
X204186303Y-70586009D01*
X204186303Y-70586009D02*
X204186303Y-71109819D01*
X204186303Y-70586009D02*
X204233922Y-70490771D01*
X204233922Y-70490771D02*
X204329160Y-70443152D01*
X204329160Y-70443152D02*
X204472017Y-70443152D01*
X204472017Y-70443152D02*
X204567256Y-70490771D01*
X204567256Y-70490771D02*
X204614875Y-70586009D01*
X204614875Y-70586009D02*
X204614875Y-71109819D01*
X205472017Y-71062200D02*
X205376779Y-71109819D01*
X205376779Y-71109819D02*
X205186303Y-71109819D01*
X205186303Y-71109819D02*
X205091065Y-71062200D01*
X205091065Y-71062200D02*
X205043446Y-70966961D01*
X205043446Y-70966961D02*
X205043446Y-70586009D01*
X205043446Y-70586009D02*
X205091065Y-70490771D01*
X205091065Y-70490771D02*
X205186303Y-70443152D01*
X205186303Y-70443152D02*
X205376779Y-70443152D01*
X205376779Y-70443152D02*
X205472017Y-70490771D01*
X205472017Y-70490771D02*
X205519636Y-70586009D01*
X205519636Y-70586009D02*
X205519636Y-70681247D01*
X205519636Y-70681247D02*
X205043446Y-70776485D01*
X205948208Y-71109819D02*
X205948208Y-70443152D01*
X205948208Y-70633628D02*
X205995827Y-70538390D01*
X205995827Y-70538390D02*
X206043446Y-70490771D01*
X206043446Y-70490771D02*
X206138684Y-70443152D01*
X206138684Y-70443152D02*
X206233922Y-70443152D01*
X196128094Y-89354819D02*
X195794761Y-88878628D01*
X195556666Y-89354819D02*
X195556666Y-88354819D01*
X195556666Y-88354819D02*
X195937618Y-88354819D01*
X195937618Y-88354819D02*
X196032856Y-88402438D01*
X196032856Y-88402438D02*
X196080475Y-88450057D01*
X196080475Y-88450057D02*
X196128094Y-88545295D01*
X196128094Y-88545295D02*
X196128094Y-88688152D01*
X196128094Y-88688152D02*
X196080475Y-88783390D01*
X196080475Y-88783390D02*
X196032856Y-88831009D01*
X196032856Y-88831009D02*
X195937618Y-88878628D01*
X195937618Y-88878628D02*
X195556666Y-88878628D01*
X196937618Y-89307200D02*
X196842380Y-89354819D01*
X196842380Y-89354819D02*
X196651904Y-89354819D01*
X196651904Y-89354819D02*
X196556666Y-89307200D01*
X196556666Y-89307200D02*
X196509047Y-89211961D01*
X196509047Y-89211961D02*
X196509047Y-88831009D01*
X196509047Y-88831009D02*
X196556666Y-88735771D01*
X196556666Y-88735771D02*
X196651904Y-88688152D01*
X196651904Y-88688152D02*
X196842380Y-88688152D01*
X196842380Y-88688152D02*
X196937618Y-88735771D01*
X196937618Y-88735771D02*
X196985237Y-88831009D01*
X196985237Y-88831009D02*
X196985237Y-88926247D01*
X196985237Y-88926247D02*
X196509047Y-89021485D01*
X197366190Y-89307200D02*
X197461428Y-89354819D01*
X197461428Y-89354819D02*
X197651904Y-89354819D01*
X197651904Y-89354819D02*
X197747142Y-89307200D01*
X197747142Y-89307200D02*
X197794761Y-89211961D01*
X197794761Y-89211961D02*
X197794761Y-89164342D01*
X197794761Y-89164342D02*
X197747142Y-89069104D01*
X197747142Y-89069104D02*
X197651904Y-89021485D01*
X197651904Y-89021485D02*
X197509047Y-89021485D01*
X197509047Y-89021485D02*
X197413809Y-88973866D01*
X197413809Y-88973866D02*
X197366190Y-88878628D01*
X197366190Y-88878628D02*
X197366190Y-88831009D01*
X197366190Y-88831009D02*
X197413809Y-88735771D01*
X197413809Y-88735771D02*
X197509047Y-88688152D01*
X197509047Y-88688152D02*
X197651904Y-88688152D01*
X197651904Y-88688152D02*
X197747142Y-88735771D01*
X198604285Y-89307200D02*
X198509047Y-89354819D01*
X198509047Y-89354819D02*
X198318571Y-89354819D01*
X198318571Y-89354819D02*
X198223333Y-89307200D01*
X198223333Y-89307200D02*
X198175714Y-89211961D01*
X198175714Y-89211961D02*
X198175714Y-88831009D01*
X198175714Y-88831009D02*
X198223333Y-88735771D01*
X198223333Y-88735771D02*
X198318571Y-88688152D01*
X198318571Y-88688152D02*
X198509047Y-88688152D01*
X198509047Y-88688152D02*
X198604285Y-88735771D01*
X198604285Y-88735771D02*
X198651904Y-88831009D01*
X198651904Y-88831009D02*
X198651904Y-88926247D01*
X198651904Y-88926247D02*
X198175714Y-89021485D01*
X198937619Y-88688152D02*
X199318571Y-88688152D01*
X199080476Y-88354819D02*
X199080476Y-89211961D01*
X199080476Y-89211961D02*
X199128095Y-89307200D01*
X199128095Y-89307200D02*
X199223333Y-89354819D01*
X199223333Y-89354819D02*
X199318571Y-89354819D01*
X200985238Y-89259580D02*
X200937619Y-89307200D01*
X200937619Y-89307200D02*
X200794762Y-89354819D01*
X200794762Y-89354819D02*
X200699524Y-89354819D01*
X200699524Y-89354819D02*
X200556667Y-89307200D01*
X200556667Y-89307200D02*
X200461429Y-89211961D01*
X200461429Y-89211961D02*
X200413810Y-89116723D01*
X200413810Y-89116723D02*
X200366191Y-88926247D01*
X200366191Y-88926247D02*
X200366191Y-88783390D01*
X200366191Y-88783390D02*
X200413810Y-88592914D01*
X200413810Y-88592914D02*
X200461429Y-88497676D01*
X200461429Y-88497676D02*
X200556667Y-88402438D01*
X200556667Y-88402438D02*
X200699524Y-88354819D01*
X200699524Y-88354819D02*
X200794762Y-88354819D01*
X200794762Y-88354819D02*
X200937619Y-88402438D01*
X200937619Y-88402438D02*
X200985238Y-88450057D01*
X201413810Y-89354819D02*
X201413810Y-88354819D01*
X201842381Y-89354819D02*
X201842381Y-88831009D01*
X201842381Y-88831009D02*
X201794762Y-88735771D01*
X201794762Y-88735771D02*
X201699524Y-88688152D01*
X201699524Y-88688152D02*
X201556667Y-88688152D01*
X201556667Y-88688152D02*
X201461429Y-88735771D01*
X201461429Y-88735771D02*
X201413810Y-88783390D01*
X202318572Y-89354819D02*
X202318572Y-88688152D01*
X202318572Y-88354819D02*
X202270953Y-88402438D01*
X202270953Y-88402438D02*
X202318572Y-88450057D01*
X202318572Y-88450057D02*
X202366191Y-88402438D01*
X202366191Y-88402438D02*
X202318572Y-88354819D01*
X202318572Y-88354819D02*
X202318572Y-88450057D01*
X202794762Y-88688152D02*
X202794762Y-89688152D01*
X202794762Y-88735771D02*
X202890000Y-88688152D01*
X202890000Y-88688152D02*
X203080476Y-88688152D01*
X203080476Y-88688152D02*
X203175714Y-88735771D01*
X203175714Y-88735771D02*
X203223333Y-88783390D01*
X203223333Y-88783390D02*
X203270952Y-88878628D01*
X203270952Y-88878628D02*
X203270952Y-89164342D01*
X203270952Y-89164342D02*
X203223333Y-89259580D01*
X203223333Y-89259580D02*
X203175714Y-89307200D01*
X203175714Y-89307200D02*
X203080476Y-89354819D01*
X203080476Y-89354819D02*
X202890000Y-89354819D01*
X202890000Y-89354819D02*
X202794762Y-89307200D01*
X130397618Y-88831009D02*
X130540475Y-88878628D01*
X130540475Y-88878628D02*
X130588094Y-88926247D01*
X130588094Y-88926247D02*
X130635713Y-89021485D01*
X130635713Y-89021485D02*
X130635713Y-89164342D01*
X130635713Y-89164342D02*
X130588094Y-89259580D01*
X130588094Y-89259580D02*
X130540475Y-89307200D01*
X130540475Y-89307200D02*
X130445237Y-89354819D01*
X130445237Y-89354819D02*
X130064285Y-89354819D01*
X130064285Y-89354819D02*
X130064285Y-88354819D01*
X130064285Y-88354819D02*
X130397618Y-88354819D01*
X130397618Y-88354819D02*
X130492856Y-88402438D01*
X130492856Y-88402438D02*
X130540475Y-88450057D01*
X130540475Y-88450057D02*
X130588094Y-88545295D01*
X130588094Y-88545295D02*
X130588094Y-88640533D01*
X130588094Y-88640533D02*
X130540475Y-88735771D01*
X130540475Y-88735771D02*
X130492856Y-88783390D01*
X130492856Y-88783390D02*
X130397618Y-88831009D01*
X130397618Y-88831009D02*
X130064285Y-88831009D01*
X131492856Y-89354819D02*
X131492856Y-88831009D01*
X131492856Y-88831009D02*
X131445237Y-88735771D01*
X131445237Y-88735771D02*
X131349999Y-88688152D01*
X131349999Y-88688152D02*
X131159523Y-88688152D01*
X131159523Y-88688152D02*
X131064285Y-88735771D01*
X131492856Y-89307200D02*
X131397618Y-89354819D01*
X131397618Y-89354819D02*
X131159523Y-89354819D01*
X131159523Y-89354819D02*
X131064285Y-89307200D01*
X131064285Y-89307200D02*
X131016666Y-89211961D01*
X131016666Y-89211961D02*
X131016666Y-89116723D01*
X131016666Y-89116723D02*
X131064285Y-89021485D01*
X131064285Y-89021485D02*
X131159523Y-88973866D01*
X131159523Y-88973866D02*
X131397618Y-88973866D01*
X131397618Y-88973866D02*
X131492856Y-88926247D01*
X132397618Y-89307200D02*
X132302380Y-89354819D01*
X132302380Y-89354819D02*
X132111904Y-89354819D01*
X132111904Y-89354819D02*
X132016666Y-89307200D01*
X132016666Y-89307200D02*
X131969047Y-89259580D01*
X131969047Y-89259580D02*
X131921428Y-89164342D01*
X131921428Y-89164342D02*
X131921428Y-88878628D01*
X131921428Y-88878628D02*
X131969047Y-88783390D01*
X131969047Y-88783390D02*
X132016666Y-88735771D01*
X132016666Y-88735771D02*
X132111904Y-88688152D01*
X132111904Y-88688152D02*
X132302380Y-88688152D01*
X132302380Y-88688152D02*
X132397618Y-88735771D01*
X132826190Y-89354819D02*
X132826190Y-88354819D01*
X132921428Y-88973866D02*
X133207142Y-89354819D01*
X133207142Y-88688152D02*
X132826190Y-89069104D01*
X133540476Y-88688152D02*
X133730952Y-89354819D01*
X133730952Y-89354819D02*
X133921428Y-88878628D01*
X133921428Y-88878628D02*
X134111904Y-89354819D01*
X134111904Y-89354819D02*
X134302380Y-88688152D01*
X135111904Y-89354819D02*
X135111904Y-88831009D01*
X135111904Y-88831009D02*
X135064285Y-88735771D01*
X135064285Y-88735771D02*
X134969047Y-88688152D01*
X134969047Y-88688152D02*
X134778571Y-88688152D01*
X134778571Y-88688152D02*
X134683333Y-88735771D01*
X135111904Y-89307200D02*
X135016666Y-89354819D01*
X135016666Y-89354819D02*
X134778571Y-89354819D01*
X134778571Y-89354819D02*
X134683333Y-89307200D01*
X134683333Y-89307200D02*
X134635714Y-89211961D01*
X134635714Y-89211961D02*
X134635714Y-89116723D01*
X134635714Y-89116723D02*
X134683333Y-89021485D01*
X134683333Y-89021485D02*
X134778571Y-88973866D01*
X134778571Y-88973866D02*
X135016666Y-88973866D01*
X135016666Y-88973866D02*
X135111904Y-88926247D01*
X135588095Y-89354819D02*
X135588095Y-88688152D01*
X135588095Y-88878628D02*
X135635714Y-88783390D01*
X135635714Y-88783390D02*
X135683333Y-88735771D01*
X135683333Y-88735771D02*
X135778571Y-88688152D01*
X135778571Y-88688152D02*
X135873809Y-88688152D01*
X136635714Y-89354819D02*
X136635714Y-88354819D01*
X136635714Y-89307200D02*
X136540476Y-89354819D01*
X136540476Y-89354819D02*
X136350000Y-89354819D01*
X136350000Y-89354819D02*
X136254762Y-89307200D01*
X136254762Y-89307200D02*
X136207143Y-89259580D01*
X136207143Y-89259580D02*
X136159524Y-89164342D01*
X136159524Y-89164342D02*
X136159524Y-88878628D01*
X136159524Y-88878628D02*
X136207143Y-88783390D01*
X136207143Y-88783390D02*
X136254762Y-88735771D01*
X136254762Y-88735771D02*
X136350000Y-88688152D01*
X136350000Y-88688152D02*
X136540476Y-88688152D01*
X136540476Y-88688152D02*
X136635714Y-88735771D01*
X109402856Y-88831009D02*
X109069523Y-88831009D01*
X109069523Y-89354819D02*
X109069523Y-88354819D01*
X109069523Y-88354819D02*
X109545713Y-88354819D01*
X110069523Y-89354819D02*
X109974285Y-89307200D01*
X109974285Y-89307200D02*
X109926666Y-89259580D01*
X109926666Y-89259580D02*
X109879047Y-89164342D01*
X109879047Y-89164342D02*
X109879047Y-88878628D01*
X109879047Y-88878628D02*
X109926666Y-88783390D01*
X109926666Y-88783390D02*
X109974285Y-88735771D01*
X109974285Y-88735771D02*
X110069523Y-88688152D01*
X110069523Y-88688152D02*
X110212380Y-88688152D01*
X110212380Y-88688152D02*
X110307618Y-88735771D01*
X110307618Y-88735771D02*
X110355237Y-88783390D01*
X110355237Y-88783390D02*
X110402856Y-88878628D01*
X110402856Y-88878628D02*
X110402856Y-89164342D01*
X110402856Y-89164342D02*
X110355237Y-89259580D01*
X110355237Y-89259580D02*
X110307618Y-89307200D01*
X110307618Y-89307200D02*
X110212380Y-89354819D01*
X110212380Y-89354819D02*
X110069523Y-89354819D01*
X110831428Y-89354819D02*
X110831428Y-88688152D01*
X110831428Y-88878628D02*
X110879047Y-88783390D01*
X110879047Y-88783390D02*
X110926666Y-88735771D01*
X110926666Y-88735771D02*
X111021904Y-88688152D01*
X111021904Y-88688152D02*
X111117142Y-88688152D01*
X111355238Y-88688152D02*
X111545714Y-89354819D01*
X111545714Y-89354819D02*
X111736190Y-88878628D01*
X111736190Y-88878628D02*
X111926666Y-89354819D01*
X111926666Y-89354819D02*
X112117142Y-88688152D01*
X112926666Y-89354819D02*
X112926666Y-88831009D01*
X112926666Y-88831009D02*
X112879047Y-88735771D01*
X112879047Y-88735771D02*
X112783809Y-88688152D01*
X112783809Y-88688152D02*
X112593333Y-88688152D01*
X112593333Y-88688152D02*
X112498095Y-88735771D01*
X112926666Y-89307200D02*
X112831428Y-89354819D01*
X112831428Y-89354819D02*
X112593333Y-89354819D01*
X112593333Y-89354819D02*
X112498095Y-89307200D01*
X112498095Y-89307200D02*
X112450476Y-89211961D01*
X112450476Y-89211961D02*
X112450476Y-89116723D01*
X112450476Y-89116723D02*
X112498095Y-89021485D01*
X112498095Y-89021485D02*
X112593333Y-88973866D01*
X112593333Y-88973866D02*
X112831428Y-88973866D01*
X112831428Y-88973866D02*
X112926666Y-88926247D01*
X113402857Y-89354819D02*
X113402857Y-88688152D01*
X113402857Y-88878628D02*
X113450476Y-88783390D01*
X113450476Y-88783390D02*
X113498095Y-88735771D01*
X113498095Y-88735771D02*
X113593333Y-88688152D01*
X113593333Y-88688152D02*
X113688571Y-88688152D01*
X114450476Y-89354819D02*
X114450476Y-88354819D01*
X114450476Y-89307200D02*
X114355238Y-89354819D01*
X114355238Y-89354819D02*
X114164762Y-89354819D01*
X114164762Y-89354819D02*
X114069524Y-89307200D01*
X114069524Y-89307200D02*
X114021905Y-89259580D01*
X114021905Y-89259580D02*
X113974286Y-89164342D01*
X113974286Y-89164342D02*
X113974286Y-88878628D01*
X113974286Y-88878628D02*
X114021905Y-88783390D01*
X114021905Y-88783390D02*
X114069524Y-88735771D01*
X114069524Y-88735771D02*
X114164762Y-88688152D01*
X114164762Y-88688152D02*
X114355238Y-88688152D01*
X114355238Y-88688152D02*
X114450476Y-88735771D01*
X173990476Y-88354819D02*
X174561904Y-88354819D01*
X174276190Y-89354819D02*
X174276190Y-88354819D01*
X175323809Y-88688152D02*
X175323809Y-89354819D01*
X174895238Y-88688152D02*
X174895238Y-89211961D01*
X174895238Y-89211961D02*
X174942857Y-89307200D01*
X174942857Y-89307200D02*
X175038095Y-89354819D01*
X175038095Y-89354819D02*
X175180952Y-89354819D01*
X175180952Y-89354819D02*
X175276190Y-89307200D01*
X175276190Y-89307200D02*
X175323809Y-89259580D01*
X175800000Y-89354819D02*
X175800000Y-88688152D01*
X175800000Y-88878628D02*
X175847619Y-88783390D01*
X175847619Y-88783390D02*
X175895238Y-88735771D01*
X175895238Y-88735771D02*
X175990476Y-88688152D01*
X175990476Y-88688152D02*
X176085714Y-88688152D01*
X176419048Y-88688152D02*
X176419048Y-89354819D01*
X176419048Y-88783390D02*
X176466667Y-88735771D01*
X176466667Y-88735771D02*
X176561905Y-88688152D01*
X176561905Y-88688152D02*
X176704762Y-88688152D01*
X176704762Y-88688152D02*
X176800000Y-88735771D01*
X176800000Y-88735771D02*
X176847619Y-88831009D01*
X176847619Y-88831009D02*
X176847619Y-89354819D01*
X178657143Y-89354819D02*
X178323810Y-88878628D01*
X178085715Y-89354819D02*
X178085715Y-88354819D01*
X178085715Y-88354819D02*
X178466667Y-88354819D01*
X178466667Y-88354819D02*
X178561905Y-88402438D01*
X178561905Y-88402438D02*
X178609524Y-88450057D01*
X178609524Y-88450057D02*
X178657143Y-88545295D01*
X178657143Y-88545295D02*
X178657143Y-88688152D01*
X178657143Y-88688152D02*
X178609524Y-88783390D01*
X178609524Y-88783390D02*
X178561905Y-88831009D01*
X178561905Y-88831009D02*
X178466667Y-88878628D01*
X178466667Y-88878628D02*
X178085715Y-88878628D01*
X179085715Y-89354819D02*
X179085715Y-88688152D01*
X179085715Y-88354819D02*
X179038096Y-88402438D01*
X179038096Y-88402438D02*
X179085715Y-88450057D01*
X179085715Y-88450057D02*
X179133334Y-88402438D01*
X179133334Y-88402438D02*
X179085715Y-88354819D01*
X179085715Y-88354819D02*
X179085715Y-88450057D01*
X179990476Y-88688152D02*
X179990476Y-89497676D01*
X179990476Y-89497676D02*
X179942857Y-89592914D01*
X179942857Y-89592914D02*
X179895238Y-89640533D01*
X179895238Y-89640533D02*
X179800000Y-89688152D01*
X179800000Y-89688152D02*
X179657143Y-89688152D01*
X179657143Y-89688152D02*
X179561905Y-89640533D01*
X179990476Y-89307200D02*
X179895238Y-89354819D01*
X179895238Y-89354819D02*
X179704762Y-89354819D01*
X179704762Y-89354819D02*
X179609524Y-89307200D01*
X179609524Y-89307200D02*
X179561905Y-89259580D01*
X179561905Y-89259580D02*
X179514286Y-89164342D01*
X179514286Y-89164342D02*
X179514286Y-88878628D01*
X179514286Y-88878628D02*
X179561905Y-88783390D01*
X179561905Y-88783390D02*
X179609524Y-88735771D01*
X179609524Y-88735771D02*
X179704762Y-88688152D01*
X179704762Y-88688152D02*
X179895238Y-88688152D01*
X179895238Y-88688152D02*
X179990476Y-88735771D01*
X180466667Y-89354819D02*
X180466667Y-88354819D01*
X180895238Y-89354819D02*
X180895238Y-88831009D01*
X180895238Y-88831009D02*
X180847619Y-88735771D01*
X180847619Y-88735771D02*
X180752381Y-88688152D01*
X180752381Y-88688152D02*
X180609524Y-88688152D01*
X180609524Y-88688152D02*
X180514286Y-88735771D01*
X180514286Y-88735771D02*
X180466667Y-88783390D01*
X181228572Y-88688152D02*
X181609524Y-88688152D01*
X181371429Y-88354819D02*
X181371429Y-89211961D01*
X181371429Y-89211961D02*
X181419048Y-89307200D01*
X181419048Y-89307200D02*
X181514286Y-89354819D01*
X181514286Y-89354819D02*
X181609524Y-89354819D01*
X151654285Y-88354819D02*
X152225713Y-88354819D01*
X151939999Y-89354819D02*
X151939999Y-88354819D01*
X152987618Y-88688152D02*
X152987618Y-89354819D01*
X152559047Y-88688152D02*
X152559047Y-89211961D01*
X152559047Y-89211961D02*
X152606666Y-89307200D01*
X152606666Y-89307200D02*
X152701904Y-89354819D01*
X152701904Y-89354819D02*
X152844761Y-89354819D01*
X152844761Y-89354819D02*
X152939999Y-89307200D01*
X152939999Y-89307200D02*
X152987618Y-89259580D01*
X153463809Y-89354819D02*
X153463809Y-88688152D01*
X153463809Y-88878628D02*
X153511428Y-88783390D01*
X153511428Y-88783390D02*
X153559047Y-88735771D01*
X153559047Y-88735771D02*
X153654285Y-88688152D01*
X153654285Y-88688152D02*
X153749523Y-88688152D01*
X154082857Y-88688152D02*
X154082857Y-89354819D01*
X154082857Y-88783390D02*
X154130476Y-88735771D01*
X154130476Y-88735771D02*
X154225714Y-88688152D01*
X154225714Y-88688152D02*
X154368571Y-88688152D01*
X154368571Y-88688152D02*
X154463809Y-88735771D01*
X154463809Y-88735771D02*
X154511428Y-88831009D01*
X154511428Y-88831009D02*
X154511428Y-89354819D01*
X156225714Y-89354819D02*
X155749524Y-89354819D01*
X155749524Y-89354819D02*
X155749524Y-88354819D01*
X156940000Y-89307200D02*
X156844762Y-89354819D01*
X156844762Y-89354819D02*
X156654286Y-89354819D01*
X156654286Y-89354819D02*
X156559048Y-89307200D01*
X156559048Y-89307200D02*
X156511429Y-89211961D01*
X156511429Y-89211961D02*
X156511429Y-88831009D01*
X156511429Y-88831009D02*
X156559048Y-88735771D01*
X156559048Y-88735771D02*
X156654286Y-88688152D01*
X156654286Y-88688152D02*
X156844762Y-88688152D01*
X156844762Y-88688152D02*
X156940000Y-88735771D01*
X156940000Y-88735771D02*
X156987619Y-88831009D01*
X156987619Y-88831009D02*
X156987619Y-88926247D01*
X156987619Y-88926247D02*
X156511429Y-89021485D01*
X157273334Y-88688152D02*
X157654286Y-88688152D01*
X157416191Y-89354819D02*
X157416191Y-88497676D01*
X157416191Y-88497676D02*
X157463810Y-88402438D01*
X157463810Y-88402438D02*
X157559048Y-88354819D01*
X157559048Y-88354819D02*
X157654286Y-88354819D01*
X157844763Y-88688152D02*
X158225715Y-88688152D01*
X157987620Y-88354819D02*
X157987620Y-89211961D01*
X157987620Y-89211961D02*
X158035239Y-89307200D01*
X158035239Y-89307200D02*
X158130477Y-89354819D01*
X158130477Y-89354819D02*
X158225715Y-89354819D01*
X111021905Y-71154819D02*
X111021905Y-70154819D01*
X111021905Y-70154819D02*
X111260000Y-70154819D01*
X111260000Y-70154819D02*
X111402857Y-70202438D01*
X111402857Y-70202438D02*
X111498095Y-70297676D01*
X111498095Y-70297676D02*
X111545714Y-70392914D01*
X111545714Y-70392914D02*
X111593333Y-70583390D01*
X111593333Y-70583390D02*
X111593333Y-70726247D01*
X111593333Y-70726247D02*
X111545714Y-70916723D01*
X111545714Y-70916723D02*
X111498095Y-71011961D01*
X111498095Y-71011961D02*
X111402857Y-71107200D01*
X111402857Y-71107200D02*
X111260000Y-71154819D01*
X111260000Y-71154819D02*
X111021905Y-71154819D01*
X112545714Y-71154819D02*
X111974286Y-71154819D01*
X112260000Y-71154819D02*
X112260000Y-70154819D01*
X112260000Y-70154819D02*
X112164762Y-70297676D01*
X112164762Y-70297676D02*
X112069524Y-70392914D01*
X112069524Y-70392914D02*
X111974286Y-70440533D01*
X132611905Y-71154819D02*
X132611905Y-70154819D01*
X132611905Y-70154819D02*
X132850000Y-70154819D01*
X132850000Y-70154819D02*
X132992857Y-70202438D01*
X132992857Y-70202438D02*
X133088095Y-70297676D01*
X133088095Y-70297676D02*
X133135714Y-70392914D01*
X133135714Y-70392914D02*
X133183333Y-70583390D01*
X133183333Y-70583390D02*
X133183333Y-70726247D01*
X133183333Y-70726247D02*
X133135714Y-70916723D01*
X133135714Y-70916723D02*
X133088095Y-71011961D01*
X133088095Y-71011961D02*
X132992857Y-71107200D01*
X132992857Y-71107200D02*
X132850000Y-71154819D01*
X132850000Y-71154819D02*
X132611905Y-71154819D01*
X133564286Y-70250057D02*
X133611905Y-70202438D01*
X133611905Y-70202438D02*
X133707143Y-70154819D01*
X133707143Y-70154819D02*
X133945238Y-70154819D01*
X133945238Y-70154819D02*
X134040476Y-70202438D01*
X134040476Y-70202438D02*
X134088095Y-70250057D01*
X134088095Y-70250057D02*
X134135714Y-70345295D01*
X134135714Y-70345295D02*
X134135714Y-70440533D01*
X134135714Y-70440533D02*
X134088095Y-70583390D01*
X134088095Y-70583390D02*
X133516667Y-71154819D01*
X133516667Y-71154819D02*
X134135714Y-71154819D01*
X154201905Y-71154819D02*
X154201905Y-70154819D01*
X154201905Y-70154819D02*
X154440000Y-70154819D01*
X154440000Y-70154819D02*
X154582857Y-70202438D01*
X154582857Y-70202438D02*
X154678095Y-70297676D01*
X154678095Y-70297676D02*
X154725714Y-70392914D01*
X154725714Y-70392914D02*
X154773333Y-70583390D01*
X154773333Y-70583390D02*
X154773333Y-70726247D01*
X154773333Y-70726247D02*
X154725714Y-70916723D01*
X154725714Y-70916723D02*
X154678095Y-71011961D01*
X154678095Y-71011961D02*
X154582857Y-71107200D01*
X154582857Y-71107200D02*
X154440000Y-71154819D01*
X154440000Y-71154819D02*
X154201905Y-71154819D01*
X155106667Y-70154819D02*
X155725714Y-70154819D01*
X155725714Y-70154819D02*
X155392381Y-70535771D01*
X155392381Y-70535771D02*
X155535238Y-70535771D01*
X155535238Y-70535771D02*
X155630476Y-70583390D01*
X155630476Y-70583390D02*
X155678095Y-70631009D01*
X155678095Y-70631009D02*
X155725714Y-70726247D01*
X155725714Y-70726247D02*
X155725714Y-70964342D01*
X155725714Y-70964342D02*
X155678095Y-71059580D01*
X155678095Y-71059580D02*
X155630476Y-71107200D01*
X155630476Y-71107200D02*
X155535238Y-71154819D01*
X155535238Y-71154819D02*
X155249524Y-71154819D01*
X155249524Y-71154819D02*
X155154286Y-71107200D01*
X155154286Y-71107200D02*
X155106667Y-71059580D01*
X177061905Y-71154819D02*
X177061905Y-70154819D01*
X177061905Y-70154819D02*
X177300000Y-70154819D01*
X177300000Y-70154819D02*
X177442857Y-70202438D01*
X177442857Y-70202438D02*
X177538095Y-70297676D01*
X177538095Y-70297676D02*
X177585714Y-70392914D01*
X177585714Y-70392914D02*
X177633333Y-70583390D01*
X177633333Y-70583390D02*
X177633333Y-70726247D01*
X177633333Y-70726247D02*
X177585714Y-70916723D01*
X177585714Y-70916723D02*
X177538095Y-71011961D01*
X177538095Y-71011961D02*
X177442857Y-71107200D01*
X177442857Y-71107200D02*
X177300000Y-71154819D01*
X177300000Y-71154819D02*
X177061905Y-71154819D01*
X178490476Y-70488152D02*
X178490476Y-71154819D01*
X178252381Y-70107200D02*
X178014286Y-70821485D01*
X178014286Y-70821485D02*
X178633333Y-70821485D01*
X97144819Y-83986666D02*
X96668628Y-84319999D01*
X97144819Y-84558094D02*
X96144819Y-84558094D01*
X96144819Y-84558094D02*
X96144819Y-84177142D01*
X96144819Y-84177142D02*
X96192438Y-84081904D01*
X96192438Y-84081904D02*
X96240057Y-84034285D01*
X96240057Y-84034285D02*
X96335295Y-83986666D01*
X96335295Y-83986666D02*
X96478152Y-83986666D01*
X96478152Y-83986666D02*
X96573390Y-84034285D01*
X96573390Y-84034285D02*
X96621009Y-84081904D01*
X96621009Y-84081904D02*
X96668628Y-84177142D01*
X96668628Y-84177142D02*
X96668628Y-84558094D01*
X97144819Y-83034285D02*
X97144819Y-83605713D01*
X97144819Y-83319999D02*
X96144819Y-83319999D01*
X96144819Y-83319999D02*
X96287676Y-83415237D01*
X96287676Y-83415237D02*
X96382914Y-83510475D01*
X96382914Y-83510475D02*
X96430533Y-83605713D01*
X140324819Y-83986666D02*
X139848628Y-84319999D01*
X140324819Y-84558094D02*
X139324819Y-84558094D01*
X139324819Y-84558094D02*
X139324819Y-84177142D01*
X139324819Y-84177142D02*
X139372438Y-84081904D01*
X139372438Y-84081904D02*
X139420057Y-84034285D01*
X139420057Y-84034285D02*
X139515295Y-83986666D01*
X139515295Y-83986666D02*
X139658152Y-83986666D01*
X139658152Y-83986666D02*
X139753390Y-84034285D01*
X139753390Y-84034285D02*
X139801009Y-84081904D01*
X139801009Y-84081904D02*
X139848628Y-84177142D01*
X139848628Y-84177142D02*
X139848628Y-84558094D01*
X139324819Y-83653332D02*
X139324819Y-83034285D01*
X139324819Y-83034285D02*
X139705771Y-83367618D01*
X139705771Y-83367618D02*
X139705771Y-83224761D01*
X139705771Y-83224761D02*
X139753390Y-83129523D01*
X139753390Y-83129523D02*
X139801009Y-83081904D01*
X139801009Y-83081904D02*
X139896247Y-83034285D01*
X139896247Y-83034285D02*
X140134342Y-83034285D01*
X140134342Y-83034285D02*
X140229580Y-83081904D01*
X140229580Y-83081904D02*
X140277200Y-83129523D01*
X140277200Y-83129523D02*
X140324819Y-83224761D01*
X140324819Y-83224761D02*
X140324819Y-83510475D01*
X140324819Y-83510475D02*
X140277200Y-83605713D01*
X140277200Y-83605713D02*
X140229580Y-83653332D01*
X102224819Y-83986666D02*
X101748628Y-84319999D01*
X102224819Y-84558094D02*
X101224819Y-84558094D01*
X101224819Y-84558094D02*
X101224819Y-84177142D01*
X101224819Y-84177142D02*
X101272438Y-84081904D01*
X101272438Y-84081904D02*
X101320057Y-84034285D01*
X101320057Y-84034285D02*
X101415295Y-83986666D01*
X101415295Y-83986666D02*
X101558152Y-83986666D01*
X101558152Y-83986666D02*
X101653390Y-84034285D01*
X101653390Y-84034285D02*
X101701009Y-84081904D01*
X101701009Y-84081904D02*
X101748628Y-84177142D01*
X101748628Y-84177142D02*
X101748628Y-84558094D01*
X101224819Y-83081904D02*
X101224819Y-83558094D01*
X101224819Y-83558094D02*
X101701009Y-83605713D01*
X101701009Y-83605713D02*
X101653390Y-83558094D01*
X101653390Y-83558094D02*
X101605771Y-83462856D01*
X101605771Y-83462856D02*
X101605771Y-83224761D01*
X101605771Y-83224761D02*
X101653390Y-83129523D01*
X101653390Y-83129523D02*
X101701009Y-83081904D01*
X101701009Y-83081904D02*
X101796247Y-83034285D01*
X101796247Y-83034285D02*
X102034342Y-83034285D01*
X102034342Y-83034285D02*
X102129580Y-83081904D01*
X102129580Y-83081904D02*
X102177200Y-83129523D01*
X102177200Y-83129523D02*
X102224819Y-83224761D01*
X102224819Y-83224761D02*
X102224819Y-83462856D01*
X102224819Y-83462856D02*
X102177200Y-83558094D01*
X102177200Y-83558094D02*
X102129580Y-83605713D01*
X110986667Y-79687200D02*
X111129524Y-79734819D01*
X111129524Y-79734819D02*
X111367619Y-79734819D01*
X111367619Y-79734819D02*
X111462857Y-79687200D01*
X111462857Y-79687200D02*
X111510476Y-79639580D01*
X111510476Y-79639580D02*
X111558095Y-79544342D01*
X111558095Y-79544342D02*
X111558095Y-79449104D01*
X111558095Y-79449104D02*
X111510476Y-79353866D01*
X111510476Y-79353866D02*
X111462857Y-79306247D01*
X111462857Y-79306247D02*
X111367619Y-79258628D01*
X111367619Y-79258628D02*
X111177143Y-79211009D01*
X111177143Y-79211009D02*
X111081905Y-79163390D01*
X111081905Y-79163390D02*
X111034286Y-79115771D01*
X111034286Y-79115771D02*
X110986667Y-79020533D01*
X110986667Y-79020533D02*
X110986667Y-78925295D01*
X110986667Y-78925295D02*
X111034286Y-78830057D01*
X111034286Y-78830057D02*
X111081905Y-78782438D01*
X111081905Y-78782438D02*
X111177143Y-78734819D01*
X111177143Y-78734819D02*
X111415238Y-78734819D01*
X111415238Y-78734819D02*
X111558095Y-78782438D01*
X111891429Y-78734819D02*
X112129524Y-79734819D01*
X112129524Y-79734819D02*
X112320000Y-79020533D01*
X112320000Y-79020533D02*
X112510476Y-79734819D01*
X112510476Y-79734819D02*
X112748572Y-78734819D01*
X113653333Y-79734819D02*
X113081905Y-79734819D01*
X113367619Y-79734819D02*
X113367619Y-78734819D01*
X113367619Y-78734819D02*
X113272381Y-78877676D01*
X113272381Y-78877676D02*
X113177143Y-78972914D01*
X113177143Y-78972914D02*
X113081905Y-79020533D01*
X81408095Y-71274819D02*
X81408095Y-72084342D01*
X81408095Y-72084342D02*
X81455714Y-72179580D01*
X81455714Y-72179580D02*
X81503333Y-72227200D01*
X81503333Y-72227200D02*
X81598571Y-72274819D01*
X81598571Y-72274819D02*
X81789047Y-72274819D01*
X81789047Y-72274819D02*
X81884285Y-72227200D01*
X81884285Y-72227200D02*
X81931904Y-72179580D01*
X81931904Y-72179580D02*
X81979523Y-72084342D01*
X81979523Y-72084342D02*
X81979523Y-71274819D01*
X82979523Y-72274819D02*
X82408095Y-72274819D01*
X82693809Y-72274819D02*
X82693809Y-71274819D01*
X82693809Y-71274819D02*
X82598571Y-71417676D01*
X82598571Y-71417676D02*
X82503333Y-71512914D01*
X82503333Y-71512914D02*
X82408095Y-71560533D01*
X210486666Y-71844819D02*
X210486666Y-72559104D01*
X210486666Y-72559104D02*
X210439047Y-72701961D01*
X210439047Y-72701961D02*
X210343809Y-72797200D01*
X210343809Y-72797200D02*
X210200952Y-72844819D01*
X210200952Y-72844819D02*
X210105714Y-72844819D01*
X211486666Y-72844819D02*
X210915238Y-72844819D01*
X211200952Y-72844819D02*
X211200952Y-71844819D01*
X211200952Y-71844819D02*
X211105714Y-71987676D01*
X211105714Y-71987676D02*
X211010476Y-72082914D01*
X211010476Y-72082914D02*
X210915238Y-72130533D01*
X118734819Y-83986666D02*
X118258628Y-84319999D01*
X118734819Y-84558094D02*
X117734819Y-84558094D01*
X117734819Y-84558094D02*
X117734819Y-84177142D01*
X117734819Y-84177142D02*
X117782438Y-84081904D01*
X117782438Y-84081904D02*
X117830057Y-84034285D01*
X117830057Y-84034285D02*
X117925295Y-83986666D01*
X117925295Y-83986666D02*
X118068152Y-83986666D01*
X118068152Y-83986666D02*
X118163390Y-84034285D01*
X118163390Y-84034285D02*
X118211009Y-84081904D01*
X118211009Y-84081904D02*
X118258628Y-84177142D01*
X118258628Y-84177142D02*
X118258628Y-84558094D01*
X117830057Y-83605713D02*
X117782438Y-83558094D01*
X117782438Y-83558094D02*
X117734819Y-83462856D01*
X117734819Y-83462856D02*
X117734819Y-83224761D01*
X117734819Y-83224761D02*
X117782438Y-83129523D01*
X117782438Y-83129523D02*
X117830057Y-83081904D01*
X117830057Y-83081904D02*
X117925295Y-83034285D01*
X117925295Y-83034285D02*
X118020533Y-83034285D01*
X118020533Y-83034285D02*
X118163390Y-83081904D01*
X118163390Y-83081904D02*
X118734819Y-83653332D01*
X118734819Y-83653332D02*
X118734819Y-83034285D01*
X145404819Y-83986666D02*
X144928628Y-84319999D01*
X145404819Y-84558094D02*
X144404819Y-84558094D01*
X144404819Y-84558094D02*
X144404819Y-84177142D01*
X144404819Y-84177142D02*
X144452438Y-84081904D01*
X144452438Y-84081904D02*
X144500057Y-84034285D01*
X144500057Y-84034285D02*
X144595295Y-83986666D01*
X144595295Y-83986666D02*
X144738152Y-83986666D01*
X144738152Y-83986666D02*
X144833390Y-84034285D01*
X144833390Y-84034285D02*
X144881009Y-84081904D01*
X144881009Y-84081904D02*
X144928628Y-84177142D01*
X144928628Y-84177142D02*
X144928628Y-84558094D01*
X144404819Y-83653332D02*
X144404819Y-82986666D01*
X144404819Y-82986666D02*
X145404819Y-83415237D01*
X197496667Y-79687200D02*
X197639524Y-79734819D01*
X197639524Y-79734819D02*
X197877619Y-79734819D01*
X197877619Y-79734819D02*
X197972857Y-79687200D01*
X197972857Y-79687200D02*
X198020476Y-79639580D01*
X198020476Y-79639580D02*
X198068095Y-79544342D01*
X198068095Y-79544342D02*
X198068095Y-79449104D01*
X198068095Y-79449104D02*
X198020476Y-79353866D01*
X198020476Y-79353866D02*
X197972857Y-79306247D01*
X197972857Y-79306247D02*
X197877619Y-79258628D01*
X197877619Y-79258628D02*
X197687143Y-79211009D01*
X197687143Y-79211009D02*
X197591905Y-79163390D01*
X197591905Y-79163390D02*
X197544286Y-79115771D01*
X197544286Y-79115771D02*
X197496667Y-79020533D01*
X197496667Y-79020533D02*
X197496667Y-78925295D01*
X197496667Y-78925295D02*
X197544286Y-78830057D01*
X197544286Y-78830057D02*
X197591905Y-78782438D01*
X197591905Y-78782438D02*
X197687143Y-78734819D01*
X197687143Y-78734819D02*
X197925238Y-78734819D01*
X197925238Y-78734819D02*
X198068095Y-78782438D01*
X198401429Y-78734819D02*
X198639524Y-79734819D01*
X198639524Y-79734819D02*
X198830000Y-79020533D01*
X198830000Y-79020533D02*
X199020476Y-79734819D01*
X199020476Y-79734819D02*
X199258572Y-78734819D01*
X200115714Y-78734819D02*
X199639524Y-78734819D01*
X199639524Y-78734819D02*
X199591905Y-79211009D01*
X199591905Y-79211009D02*
X199639524Y-79163390D01*
X199639524Y-79163390D02*
X199734762Y-79115771D01*
X199734762Y-79115771D02*
X199972857Y-79115771D01*
X199972857Y-79115771D02*
X200068095Y-79163390D01*
X200068095Y-79163390D02*
X200115714Y-79211009D01*
X200115714Y-79211009D02*
X200163333Y-79306247D01*
X200163333Y-79306247D02*
X200163333Y-79544342D01*
X200163333Y-79544342D02*
X200115714Y-79639580D01*
X200115714Y-79639580D02*
X200068095Y-79687200D01*
X200068095Y-79687200D02*
X199972857Y-79734819D01*
X199972857Y-79734819D02*
X199734762Y-79734819D01*
X199734762Y-79734819D02*
X199639524Y-79687200D01*
X199639524Y-79687200D02*
X199591905Y-79639580D01*
X189854819Y-83986666D02*
X189378628Y-84319999D01*
X189854819Y-84558094D02*
X188854819Y-84558094D01*
X188854819Y-84558094D02*
X188854819Y-84177142D01*
X188854819Y-84177142D02*
X188902438Y-84081904D01*
X188902438Y-84081904D02*
X188950057Y-84034285D01*
X188950057Y-84034285D02*
X189045295Y-83986666D01*
X189045295Y-83986666D02*
X189188152Y-83986666D01*
X189188152Y-83986666D02*
X189283390Y-84034285D01*
X189283390Y-84034285D02*
X189331009Y-84081904D01*
X189331009Y-84081904D02*
X189378628Y-84177142D01*
X189378628Y-84177142D02*
X189378628Y-84558094D01*
X189854819Y-83510475D02*
X189854819Y-83319999D01*
X189854819Y-83319999D02*
X189807200Y-83224761D01*
X189807200Y-83224761D02*
X189759580Y-83177142D01*
X189759580Y-83177142D02*
X189616723Y-83081904D01*
X189616723Y-83081904D02*
X189426247Y-83034285D01*
X189426247Y-83034285D02*
X189045295Y-83034285D01*
X189045295Y-83034285D02*
X188950057Y-83081904D01*
X188950057Y-83081904D02*
X188902438Y-83129523D01*
X188902438Y-83129523D02*
X188854819Y-83224761D01*
X188854819Y-83224761D02*
X188854819Y-83415237D01*
X188854819Y-83415237D02*
X188902438Y-83510475D01*
X188902438Y-83510475D02*
X188950057Y-83558094D01*
X188950057Y-83558094D02*
X189045295Y-83605713D01*
X189045295Y-83605713D02*
X189283390Y-83605713D01*
X189283390Y-83605713D02*
X189378628Y-83558094D01*
X189378628Y-83558094D02*
X189426247Y-83510475D01*
X189426247Y-83510475D02*
X189473866Y-83415237D01*
X189473866Y-83415237D02*
X189473866Y-83224761D01*
X189473866Y-83224761D02*
X189426247Y-83129523D01*
X189426247Y-83129523D02*
X189378628Y-83081904D01*
X189378628Y-83081904D02*
X189283390Y-83034285D01*
X154166667Y-79687200D02*
X154309524Y-79734819D01*
X154309524Y-79734819D02*
X154547619Y-79734819D01*
X154547619Y-79734819D02*
X154642857Y-79687200D01*
X154642857Y-79687200D02*
X154690476Y-79639580D01*
X154690476Y-79639580D02*
X154738095Y-79544342D01*
X154738095Y-79544342D02*
X154738095Y-79449104D01*
X154738095Y-79449104D02*
X154690476Y-79353866D01*
X154690476Y-79353866D02*
X154642857Y-79306247D01*
X154642857Y-79306247D02*
X154547619Y-79258628D01*
X154547619Y-79258628D02*
X154357143Y-79211009D01*
X154357143Y-79211009D02*
X154261905Y-79163390D01*
X154261905Y-79163390D02*
X154214286Y-79115771D01*
X154214286Y-79115771D02*
X154166667Y-79020533D01*
X154166667Y-79020533D02*
X154166667Y-78925295D01*
X154166667Y-78925295D02*
X154214286Y-78830057D01*
X154214286Y-78830057D02*
X154261905Y-78782438D01*
X154261905Y-78782438D02*
X154357143Y-78734819D01*
X154357143Y-78734819D02*
X154595238Y-78734819D01*
X154595238Y-78734819D02*
X154738095Y-78782438D01*
X155071429Y-78734819D02*
X155309524Y-79734819D01*
X155309524Y-79734819D02*
X155500000Y-79020533D01*
X155500000Y-79020533D02*
X155690476Y-79734819D01*
X155690476Y-79734819D02*
X155928572Y-78734819D01*
X156214286Y-78734819D02*
X156833333Y-78734819D01*
X156833333Y-78734819D02*
X156500000Y-79115771D01*
X156500000Y-79115771D02*
X156642857Y-79115771D01*
X156642857Y-79115771D02*
X156738095Y-79163390D01*
X156738095Y-79163390D02*
X156785714Y-79211009D01*
X156785714Y-79211009D02*
X156833333Y-79306247D01*
X156833333Y-79306247D02*
X156833333Y-79544342D01*
X156833333Y-79544342D02*
X156785714Y-79639580D01*
X156785714Y-79639580D02*
X156738095Y-79687200D01*
X156738095Y-79687200D02*
X156642857Y-79734819D01*
X156642857Y-79734819D02*
X156357143Y-79734819D01*
X156357143Y-79734819D02*
X156261905Y-79687200D01*
X156261905Y-79687200D02*
X156214286Y-79639580D01*
X132576667Y-79687200D02*
X132719524Y-79734819D01*
X132719524Y-79734819D02*
X132957619Y-79734819D01*
X132957619Y-79734819D02*
X133052857Y-79687200D01*
X133052857Y-79687200D02*
X133100476Y-79639580D01*
X133100476Y-79639580D02*
X133148095Y-79544342D01*
X133148095Y-79544342D02*
X133148095Y-79449104D01*
X133148095Y-79449104D02*
X133100476Y-79353866D01*
X133100476Y-79353866D02*
X133052857Y-79306247D01*
X133052857Y-79306247D02*
X132957619Y-79258628D01*
X132957619Y-79258628D02*
X132767143Y-79211009D01*
X132767143Y-79211009D02*
X132671905Y-79163390D01*
X132671905Y-79163390D02*
X132624286Y-79115771D01*
X132624286Y-79115771D02*
X132576667Y-79020533D01*
X132576667Y-79020533D02*
X132576667Y-78925295D01*
X132576667Y-78925295D02*
X132624286Y-78830057D01*
X132624286Y-78830057D02*
X132671905Y-78782438D01*
X132671905Y-78782438D02*
X132767143Y-78734819D01*
X132767143Y-78734819D02*
X133005238Y-78734819D01*
X133005238Y-78734819D02*
X133148095Y-78782438D01*
X133481429Y-78734819D02*
X133719524Y-79734819D01*
X133719524Y-79734819D02*
X133910000Y-79020533D01*
X133910000Y-79020533D02*
X134100476Y-79734819D01*
X134100476Y-79734819D02*
X134338572Y-78734819D01*
X134671905Y-78830057D02*
X134719524Y-78782438D01*
X134719524Y-78782438D02*
X134814762Y-78734819D01*
X134814762Y-78734819D02*
X135052857Y-78734819D01*
X135052857Y-78734819D02*
X135148095Y-78782438D01*
X135148095Y-78782438D02*
X135195714Y-78830057D01*
X135195714Y-78830057D02*
X135243333Y-78925295D01*
X135243333Y-78925295D02*
X135243333Y-79020533D01*
X135243333Y-79020533D02*
X135195714Y-79163390D01*
X135195714Y-79163390D02*
X134624286Y-79734819D01*
X134624286Y-79734819D02*
X135243333Y-79734819D01*
X177026667Y-79687200D02*
X177169524Y-79734819D01*
X177169524Y-79734819D02*
X177407619Y-79734819D01*
X177407619Y-79734819D02*
X177502857Y-79687200D01*
X177502857Y-79687200D02*
X177550476Y-79639580D01*
X177550476Y-79639580D02*
X177598095Y-79544342D01*
X177598095Y-79544342D02*
X177598095Y-79449104D01*
X177598095Y-79449104D02*
X177550476Y-79353866D01*
X177550476Y-79353866D02*
X177502857Y-79306247D01*
X177502857Y-79306247D02*
X177407619Y-79258628D01*
X177407619Y-79258628D02*
X177217143Y-79211009D01*
X177217143Y-79211009D02*
X177121905Y-79163390D01*
X177121905Y-79163390D02*
X177074286Y-79115771D01*
X177074286Y-79115771D02*
X177026667Y-79020533D01*
X177026667Y-79020533D02*
X177026667Y-78925295D01*
X177026667Y-78925295D02*
X177074286Y-78830057D01*
X177074286Y-78830057D02*
X177121905Y-78782438D01*
X177121905Y-78782438D02*
X177217143Y-78734819D01*
X177217143Y-78734819D02*
X177455238Y-78734819D01*
X177455238Y-78734819D02*
X177598095Y-78782438D01*
X177931429Y-78734819D02*
X178169524Y-79734819D01*
X178169524Y-79734819D02*
X178360000Y-79020533D01*
X178360000Y-79020533D02*
X178550476Y-79734819D01*
X178550476Y-79734819D02*
X178788572Y-78734819D01*
X179598095Y-79068152D02*
X179598095Y-79734819D01*
X179360000Y-78687200D02*
X179121905Y-79401485D01*
X179121905Y-79401485D02*
X179740952Y-79401485D01*
X123814819Y-83986666D02*
X123338628Y-84319999D01*
X123814819Y-84558094D02*
X122814819Y-84558094D01*
X122814819Y-84558094D02*
X122814819Y-84177142D01*
X122814819Y-84177142D02*
X122862438Y-84081904D01*
X122862438Y-84081904D02*
X122910057Y-84034285D01*
X122910057Y-84034285D02*
X123005295Y-83986666D01*
X123005295Y-83986666D02*
X123148152Y-83986666D01*
X123148152Y-83986666D02*
X123243390Y-84034285D01*
X123243390Y-84034285D02*
X123291009Y-84081904D01*
X123291009Y-84081904D02*
X123338628Y-84177142D01*
X123338628Y-84177142D02*
X123338628Y-84558094D01*
X122814819Y-83129523D02*
X122814819Y-83319999D01*
X122814819Y-83319999D02*
X122862438Y-83415237D01*
X122862438Y-83415237D02*
X122910057Y-83462856D01*
X122910057Y-83462856D02*
X123052914Y-83558094D01*
X123052914Y-83558094D02*
X123243390Y-83605713D01*
X123243390Y-83605713D02*
X123624342Y-83605713D01*
X123624342Y-83605713D02*
X123719580Y-83558094D01*
X123719580Y-83558094D02*
X123767200Y-83510475D01*
X123767200Y-83510475D02*
X123814819Y-83415237D01*
X123814819Y-83415237D02*
X123814819Y-83224761D01*
X123814819Y-83224761D02*
X123767200Y-83129523D01*
X123767200Y-83129523D02*
X123719580Y-83081904D01*
X123719580Y-83081904D02*
X123624342Y-83034285D01*
X123624342Y-83034285D02*
X123386247Y-83034285D01*
X123386247Y-83034285D02*
X123291009Y-83081904D01*
X123291009Y-83081904D02*
X123243390Y-83129523D01*
X123243390Y-83129523D02*
X123195771Y-83224761D01*
X123195771Y-83224761D02*
X123195771Y-83415237D01*
X123195771Y-83415237D02*
X123243390Y-83510475D01*
X123243390Y-83510475D02*
X123291009Y-83558094D01*
X123291009Y-83558094D02*
X123386247Y-83605713D01*
X161914819Y-83986666D02*
X161438628Y-84319999D01*
X161914819Y-84558094D02*
X160914819Y-84558094D01*
X160914819Y-84558094D02*
X160914819Y-84177142D01*
X160914819Y-84177142D02*
X160962438Y-84081904D01*
X160962438Y-84081904D02*
X161010057Y-84034285D01*
X161010057Y-84034285D02*
X161105295Y-83986666D01*
X161105295Y-83986666D02*
X161248152Y-83986666D01*
X161248152Y-83986666D02*
X161343390Y-84034285D01*
X161343390Y-84034285D02*
X161391009Y-84081904D01*
X161391009Y-84081904D02*
X161438628Y-84177142D01*
X161438628Y-84177142D02*
X161438628Y-84558094D01*
X161248152Y-83129523D02*
X161914819Y-83129523D01*
X160867200Y-83367618D02*
X161581485Y-83605713D01*
X161581485Y-83605713D02*
X161581485Y-82986666D01*
X168264819Y-83986666D02*
X167788628Y-84319999D01*
X168264819Y-84558094D02*
X167264819Y-84558094D01*
X167264819Y-84558094D02*
X167264819Y-84177142D01*
X167264819Y-84177142D02*
X167312438Y-84081904D01*
X167312438Y-84081904D02*
X167360057Y-84034285D01*
X167360057Y-84034285D02*
X167455295Y-83986666D01*
X167455295Y-83986666D02*
X167598152Y-83986666D01*
X167598152Y-83986666D02*
X167693390Y-84034285D01*
X167693390Y-84034285D02*
X167741009Y-84081904D01*
X167741009Y-84081904D02*
X167788628Y-84177142D01*
X167788628Y-84177142D02*
X167788628Y-84558094D01*
X167693390Y-83415237D02*
X167645771Y-83510475D01*
X167645771Y-83510475D02*
X167598152Y-83558094D01*
X167598152Y-83558094D02*
X167502914Y-83605713D01*
X167502914Y-83605713D02*
X167455295Y-83605713D01*
X167455295Y-83605713D02*
X167360057Y-83558094D01*
X167360057Y-83558094D02*
X167312438Y-83510475D01*
X167312438Y-83510475D02*
X167264819Y-83415237D01*
X167264819Y-83415237D02*
X167264819Y-83224761D01*
X167264819Y-83224761D02*
X167312438Y-83129523D01*
X167312438Y-83129523D02*
X167360057Y-83081904D01*
X167360057Y-83081904D02*
X167455295Y-83034285D01*
X167455295Y-83034285D02*
X167502914Y-83034285D01*
X167502914Y-83034285D02*
X167598152Y-83081904D01*
X167598152Y-83081904D02*
X167645771Y-83129523D01*
X167645771Y-83129523D02*
X167693390Y-83224761D01*
X167693390Y-83224761D02*
X167693390Y-83415237D01*
X167693390Y-83415237D02*
X167741009Y-83510475D01*
X167741009Y-83510475D02*
X167788628Y-83558094D01*
X167788628Y-83558094D02*
X167883866Y-83605713D01*
X167883866Y-83605713D02*
X168074342Y-83605713D01*
X168074342Y-83605713D02*
X168169580Y-83558094D01*
X168169580Y-83558094D02*
X168217200Y-83510475D01*
X168217200Y-83510475D02*
X168264819Y-83415237D01*
X168264819Y-83415237D02*
X168264819Y-83224761D01*
X168264819Y-83224761D02*
X168217200Y-83129523D01*
X168217200Y-83129523D02*
X168169580Y-83081904D01*
X168169580Y-83081904D02*
X168074342Y-83034285D01*
X168074342Y-83034285D02*
X167883866Y-83034285D01*
X167883866Y-83034285D02*
X167788628Y-83081904D01*
X167788628Y-83081904D02*
X167741009Y-83129523D01*
X167741009Y-83129523D02*
X167693390Y-83224761D01*
D11*
X110200000Y-72424000D02*
X110200000Y-72580000D01*
X110200000Y-74740000D02*
X110200000Y-74896000D01*
X113432334Y-72581392D02*
G75*
G03*
X110200001Y-72424485I-1672334J-1078608D01*
G01*
X112801129Y-72580164D02*
G75*
G03*
X110719040Y-72580001I-1041129J-1079836D01*
G01*
X110719040Y-74739999D02*
G75*
G03*
X112801129Y-74739836I1040960J1079999D01*
G01*
X110200001Y-74895515D02*
G75*
G03*
X113432334Y-74738608I1559999J1235515D01*
G01*
X131790000Y-72424000D02*
X131790000Y-72580000D01*
X131790000Y-74740000D02*
X131790000Y-74896000D01*
X135022334Y-72581392D02*
G75*
G03*
X131790001Y-72424485I-1672334J-1078608D01*
G01*
X134391129Y-72580164D02*
G75*
G03*
X132309040Y-72580001I-1041129J-1079836D01*
G01*
X132309040Y-74739999D02*
G75*
G03*
X134391129Y-74739836I1040960J1079999D01*
G01*
X131790001Y-74895515D02*
G75*
G03*
X135022334Y-74738608I1559999J1235515D01*
G01*
X153380000Y-72424000D02*
X153380000Y-72580000D01*
X153380000Y-74740000D02*
X153380000Y-74896000D01*
X156612334Y-72581392D02*
G75*
G03*
X153380001Y-72424485I-1672334J-1078608D01*
G01*
X155981129Y-72580164D02*
G75*
G03*
X153899040Y-72580001I-1041129J-1079836D01*
G01*
X153899040Y-74739999D02*
G75*
G03*
X155981129Y-74739836I1040960J1079999D01*
G01*
X153380001Y-74895515D02*
G75*
G03*
X156612334Y-74738608I1559999J1235515D01*
G01*
X176240000Y-72424000D02*
X176240000Y-72580000D01*
X176240000Y-74740000D02*
X176240000Y-74896000D01*
X179472334Y-72581392D02*
G75*
G03*
X176240001Y-72424485I-1672334J-1078608D01*
G01*
X178841129Y-72580164D02*
G75*
G03*
X176759040Y-72580001I-1041129J-1079836D01*
G01*
X176759040Y-74739999D02*
G75*
G03*
X178841129Y-74739836I1040960J1079999D01*
G01*
X176240001Y-74895515D02*
G75*
G03*
X179472334Y-74738608I1559999J1235515D01*
G01*
X99060000Y-87860000D02*
X99060000Y-87090000D01*
X97690000Y-87090000D02*
X100430000Y-87090000D01*
X100430000Y-87090000D02*
X100430000Y-80550000D01*
X97690000Y-80550000D02*
X97690000Y-87090000D01*
X100430000Y-80550000D02*
X97690000Y-80550000D01*
X99060000Y-79780000D02*
X99060000Y-80550000D01*
X142240000Y-87860000D02*
X142240000Y-87090000D01*
X140870000Y-87090000D02*
X143610000Y-87090000D01*
X143610000Y-87090000D02*
X143610000Y-80550000D01*
X140870000Y-80550000D02*
X140870000Y-87090000D01*
X143610000Y-80550000D02*
X140870000Y-80550000D01*
X142240000Y-79780000D02*
X142240000Y-80550000D01*
X104140000Y-87860000D02*
X104140000Y-87090000D01*
X102770000Y-87090000D02*
X105510000Y-87090000D01*
X105510000Y-87090000D02*
X105510000Y-80550000D01*
X102770000Y-80550000D02*
X102770000Y-87090000D01*
X105510000Y-80550000D02*
X102770000Y-80550000D01*
X104140000Y-79780000D02*
X104140000Y-80550000D01*
X108820000Y-82780000D02*
X108820000Y-84280000D01*
X110070000Y-86780000D02*
X114570000Y-86780000D01*
X114570000Y-80280000D02*
X110070000Y-80280000D01*
X115820000Y-84280000D02*
X115820000Y-82780000D01*
X69870000Y-67720000D02*
X95170000Y-67720000D01*
X69870000Y-94120000D02*
X69870000Y-67720000D01*
X90170000Y-94120000D02*
X69870000Y-94120000D01*
X95170000Y-67720000D02*
X95170000Y-94120000D01*
X95170000Y-94120000D02*
X90170000Y-94120000D01*
X208220000Y-76140000D02*
X209550000Y-76140000D01*
X208220000Y-77470000D02*
X208220000Y-76140000D01*
X208220000Y-78740000D02*
X208220000Y-91500000D01*
X208220000Y-78740000D02*
X210820000Y-78740000D01*
X208220000Y-91500000D02*
X213420000Y-91500000D01*
X210820000Y-76140000D02*
X213420000Y-76140000D01*
X210820000Y-78740000D02*
X210820000Y-76140000D01*
X213420000Y-76140000D02*
X213420000Y-91500000D01*
X120650000Y-87860000D02*
X120650000Y-87090000D01*
X119280000Y-87090000D02*
X122020000Y-87090000D01*
X122020000Y-87090000D02*
X122020000Y-80550000D01*
X119280000Y-80550000D02*
X119280000Y-87090000D01*
X122020000Y-80550000D02*
X119280000Y-80550000D01*
X120650000Y-79780000D02*
X120650000Y-80550000D01*
X147320000Y-87860000D02*
X147320000Y-87090000D01*
X145950000Y-87090000D02*
X148690000Y-87090000D01*
X148690000Y-87090000D02*
X148690000Y-80550000D01*
X145950000Y-80550000D02*
X145950000Y-87090000D01*
X148690000Y-80550000D02*
X145950000Y-80550000D01*
X147320000Y-79780000D02*
X147320000Y-80550000D01*
X195330000Y-82780000D02*
X195330000Y-84280000D01*
X196580000Y-86780000D02*
X201080000Y-86780000D01*
X201080000Y-80280000D02*
X196580000Y-80280000D01*
X202330000Y-84280000D02*
X202330000Y-82780000D01*
X191770000Y-87860000D02*
X191770000Y-87090000D01*
X190400000Y-87090000D02*
X193140000Y-87090000D01*
X193140000Y-87090000D02*
X193140000Y-80550000D01*
X190400000Y-80550000D02*
X190400000Y-87090000D01*
X193140000Y-80550000D02*
X190400000Y-80550000D01*
X191770000Y-79780000D02*
X191770000Y-80550000D01*
X152000000Y-82780000D02*
X152000000Y-84280000D01*
X153250000Y-86780000D02*
X157750000Y-86780000D01*
X157750000Y-80280000D02*
X153250000Y-80280000D01*
X159000000Y-84280000D02*
X159000000Y-82780000D01*
X130410000Y-82780000D02*
X130410000Y-84280000D01*
X131660000Y-86780000D02*
X136160000Y-86780000D01*
X136160000Y-80280000D02*
X131660000Y-80280000D01*
X137410000Y-84280000D02*
X137410000Y-82780000D01*
X174860000Y-82780000D02*
X174860000Y-84280000D01*
X176110000Y-86780000D02*
X180610000Y-86780000D01*
X180610000Y-80280000D02*
X176110000Y-80280000D01*
X181860000Y-84280000D02*
X181860000Y-82780000D01*
X125730000Y-87860000D02*
X125730000Y-87090000D01*
X124360000Y-87090000D02*
X127100000Y-87090000D01*
X127100000Y-87090000D02*
X127100000Y-80550000D01*
X124360000Y-80550000D02*
X124360000Y-87090000D01*
X127100000Y-80550000D02*
X124360000Y-80550000D01*
X125730000Y-79780000D02*
X125730000Y-80550000D01*
X163830000Y-87860000D02*
X163830000Y-87090000D01*
X162460000Y-87090000D02*
X165200000Y-87090000D01*
X165200000Y-87090000D02*
X165200000Y-80550000D01*
X162460000Y-80550000D02*
X162460000Y-87090000D01*
X165200000Y-80550000D02*
X162460000Y-80550000D01*
X163830000Y-79780000D02*
X163830000Y-80550000D01*
X170180000Y-87860000D02*
X170180000Y-87090000D01*
X168810000Y-87090000D02*
X171550000Y-87090000D01*
X171550000Y-87090000D02*
X171550000Y-80550000D01*
X168810000Y-80550000D02*
X168810000Y-87090000D01*
X171550000Y-80550000D02*
X168810000Y-80550000D01*
X170180000Y-79780000D02*
X170180000Y-80550000D01*
D12*
X188905401Y-66816619D02*
X189623681Y-66944127D01*
X190236286Y-67124654D01*
X190700907Y-67326300D01*
X191067426Y-67558959D01*
X191335665Y-67822099D01*
X191505445Y-68115187D01*
X191576586Y-68437690D01*
X191548910Y-68789076D01*
X191422238Y-69168813D01*
X191196390Y-69576366D01*
X191104923Y-69710081D01*
X190785298Y-70095177D01*
X190375521Y-70487257D01*
X189887490Y-70879067D01*
X189333105Y-71263350D01*
X188724268Y-71632850D01*
X188072878Y-71980312D01*
X187390835Y-72298479D01*
X186690040Y-72580097D01*
X186033104Y-72802471D01*
X185608053Y-72932931D01*
X185608053Y-72684925D01*
X185638230Y-72406213D01*
X185719026Y-72097197D01*
X185835835Y-71802849D01*
X185968190Y-71575963D01*
X186142257Y-71337588D01*
X186263072Y-71161634D01*
X186341198Y-71029618D01*
X186387196Y-70923056D01*
X186411630Y-70823466D01*
X186416412Y-70791603D01*
X186437019Y-70681949D01*
X186478389Y-70609567D01*
X186564459Y-70552175D01*
X186719166Y-70487490D01*
X186759773Y-70471975D01*
X187240785Y-70274870D01*
X187711639Y-70055285D01*
X188155025Y-69822925D01*
X188553636Y-69587492D01*
X188890162Y-69358690D01*
X189147295Y-69146224D01*
X189178029Y-69116281D01*
X189415719Y-68828403D01*
X189562719Y-68537434D01*
X189618705Y-68253100D01*
X189583353Y-67985125D01*
X189456339Y-67743234D01*
X189237341Y-67537153D01*
X189230736Y-67532580D01*
X189033281Y-67414817D01*
X188818166Y-67326643D01*
X188567676Y-67264575D01*
X188264099Y-67225128D01*
X187889721Y-67204817D01*
X187540102Y-67200022D01*
X187107822Y-67204776D01*
X186740497Y-67223930D01*
X186407202Y-67262400D01*
X186077013Y-67325102D01*
X185719009Y-67416951D01*
X185302263Y-67542862D01*
X185221643Y-67568555D01*
X184685078Y-67760991D01*
X184246934Y-67962569D01*
X183908128Y-68172630D01*
X183669581Y-68390513D01*
X183532210Y-68615554D01*
X183495680Y-68810527D01*
X183543877Y-68971314D01*
X183675226Y-69117251D01*
X183869865Y-69231106D01*
X184041957Y-69284367D01*
X184314408Y-69311838D01*
X184645172Y-69299445D01*
X185014595Y-69252414D01*
X185403018Y-69175975D01*
X185790785Y-69075354D01*
X186158239Y-68955780D01*
X186485724Y-68822482D01*
X186753583Y-68680687D01*
X186942158Y-68535623D01*
X186969415Y-68505748D01*
X187084200Y-68320521D01*
X187105787Y-68158478D01*
X187042446Y-68024858D01*
X186902450Y-67924905D01*
X186694069Y-67863860D01*
X186425573Y-67846966D01*
X186105234Y-67879464D01*
X186009879Y-67897605D01*
X185731788Y-67971310D01*
X185487420Y-68065145D01*
X185284554Y-68171094D01*
X185130966Y-68281139D01*
X185034434Y-68387266D01*
X185002733Y-68481456D01*
X185043642Y-68555694D01*
X185164936Y-68601962D01*
X185315381Y-68613489D01*
X185510274Y-68602222D01*
X185686672Y-68572693D01*
X185821042Y-68531310D01*
X185889849Y-68484480D01*
X185890220Y-68456983D01*
X185827802Y-68439879D01*
X185722837Y-68459587D01*
X185513811Y-68512980D01*
X185331059Y-68532588D01*
X185206235Y-68515471D01*
X185193207Y-68508792D01*
X185154627Y-68446896D01*
X185216017Y-68370141D01*
X185377970Y-68278085D01*
X185641077Y-68170284D01*
X185649520Y-68167176D01*
X185901020Y-68091343D01*
X186161999Y-68040443D01*
X186410096Y-68015764D01*
X186622946Y-68018592D01*
X186778188Y-68050215D01*
X186846646Y-68098276D01*
X186884433Y-68236297D01*
X186823222Y-68374951D01*
X186667014Y-68511788D01*
X186419806Y-68644364D01*
X186085599Y-68770230D01*
X185668392Y-68886940D01*
X185490539Y-68928025D01*
X185068107Y-69007214D01*
X184694019Y-69050564D01*
X184377758Y-69058507D01*
X184128807Y-69031473D01*
X183956650Y-68969893D01*
X183870771Y-68874200D01*
X183865351Y-68854140D01*
X183866331Y-68694595D01*
X183937802Y-68544419D01*
X184086567Y-68397821D01*
X184319427Y-68249007D01*
X184643186Y-68092185D01*
X184872845Y-67996257D01*
X185459385Y-67783041D01*
X186004172Y-67633564D01*
X186539978Y-67540402D01*
X187076410Y-67497052D01*
X187577180Y-67496209D01*
X188010683Y-67535469D01*
X188372860Y-67611472D01*
X188659655Y-67720862D01*
X188867009Y-67860279D01*
X188990865Y-68026366D01*
X189027166Y-68215766D01*
X188971853Y-68425119D01*
X188820868Y-68651068D01*
X188663605Y-68810571D01*
X188483183Y-68946673D01*
X188226703Y-69104468D01*
X187915862Y-69273070D01*
X187572360Y-69441589D01*
X187217895Y-69599139D01*
X186874163Y-69734831D01*
X186702831Y-69794467D01*
X186114388Y-69962171D01*
X185462877Y-70102187D01*
X184786387Y-70206448D01*
X184720042Y-70214454D01*
X184418044Y-70240231D01*
X184075500Y-70253538D01*
X183714553Y-70255120D01*
X183357348Y-70245722D01*
X183026028Y-70226089D01*
X182742736Y-70196967D01*
X182529617Y-70159099D01*
X182459796Y-70138420D01*
X182195015Y-70000475D01*
X182017237Y-69818464D01*
X181924624Y-69600527D01*
X181915342Y-69354804D01*
X181987552Y-69089436D01*
X182139419Y-68812562D01*
X182369107Y-68532322D01*
X182674780Y-68256858D01*
X182924922Y-68076542D01*
X183548132Y-67716541D01*
X184238397Y-67410295D01*
X184979954Y-67159857D01*
X185757039Y-66967280D01*
X186553890Y-66834615D01*
X187354743Y-66763915D01*
X188143834Y-66757232D01*
X188905401Y-66816619D01*
G36*
X188905401Y-66816619D02*
G01*
X189623681Y-66944127D01*
X190236286Y-67124654D01*
X190700907Y-67326300D01*
X191067426Y-67558959D01*
X191335665Y-67822099D01*
X191505445Y-68115187D01*
X191576586Y-68437690D01*
X191548910Y-68789076D01*
X191422238Y-69168813D01*
X191196390Y-69576366D01*
X191104923Y-69710081D01*
X190785298Y-70095177D01*
X190375521Y-70487257D01*
X189887490Y-70879067D01*
X189333105Y-71263350D01*
X188724268Y-71632850D01*
X188072878Y-71980312D01*
X187390835Y-72298479D01*
X186690040Y-72580097D01*
X186033104Y-72802471D01*
X185608053Y-72932931D01*
X185608053Y-72684925D01*
X185638230Y-72406213D01*
X185719026Y-72097197D01*
X185835835Y-71802849D01*
X185968190Y-71575963D01*
X186142257Y-71337588D01*
X186263072Y-71161634D01*
X186341198Y-71029618D01*
X186387196Y-70923056D01*
X186411630Y-70823466D01*
X186416412Y-70791603D01*
X186437019Y-70681949D01*
X186478389Y-70609567D01*
X186564459Y-70552175D01*
X186719166Y-70487490D01*
X186759773Y-70471975D01*
X187240785Y-70274870D01*
X187711639Y-70055285D01*
X188155025Y-69822925D01*
X188553636Y-69587492D01*
X188890162Y-69358690D01*
X189147295Y-69146224D01*
X189178029Y-69116281D01*
X189415719Y-68828403D01*
X189562719Y-68537434D01*
X189618705Y-68253100D01*
X189583353Y-67985125D01*
X189456339Y-67743234D01*
X189237341Y-67537153D01*
X189230736Y-67532580D01*
X189033281Y-67414817D01*
X188818166Y-67326643D01*
X188567676Y-67264575D01*
X188264099Y-67225128D01*
X187889721Y-67204817D01*
X187540102Y-67200022D01*
X187107822Y-67204776D01*
X186740497Y-67223930D01*
X186407202Y-67262400D01*
X186077013Y-67325102D01*
X185719009Y-67416951D01*
X185302263Y-67542862D01*
X185221643Y-67568555D01*
X184685078Y-67760991D01*
X184246934Y-67962569D01*
X183908128Y-68172630D01*
X183669581Y-68390513D01*
X183532210Y-68615554D01*
X183495680Y-68810527D01*
X183543877Y-68971314D01*
X183675226Y-69117251D01*
X183869865Y-69231106D01*
X184041957Y-69284367D01*
X184314408Y-69311838D01*
X184645172Y-69299445D01*
X185014595Y-69252414D01*
X185403018Y-69175975D01*
X185790785Y-69075354D01*
X186158239Y-68955780D01*
X186485724Y-68822482D01*
X186753583Y-68680687D01*
X186942158Y-68535623D01*
X186969415Y-68505748D01*
X187084200Y-68320521D01*
X187105787Y-68158478D01*
X187042446Y-68024858D01*
X186902450Y-67924905D01*
X186694069Y-67863860D01*
X186425573Y-67846966D01*
X186105234Y-67879464D01*
X186009879Y-67897605D01*
X185731788Y-67971310D01*
X185487420Y-68065145D01*
X185284554Y-68171094D01*
X185130966Y-68281139D01*
X185034434Y-68387266D01*
X185002733Y-68481456D01*
X185043642Y-68555694D01*
X185164936Y-68601962D01*
X185315381Y-68613489D01*
X185510274Y-68602222D01*
X185686672Y-68572693D01*
X185821042Y-68531310D01*
X185889849Y-68484480D01*
X185890220Y-68456983D01*
X185827802Y-68439879D01*
X185722837Y-68459587D01*
X185513811Y-68512980D01*
X185331059Y-68532588D01*
X185206235Y-68515471D01*
X185193207Y-68508792D01*
X185154627Y-68446896D01*
X185216017Y-68370141D01*
X185377970Y-68278085D01*
X185641077Y-68170284D01*
X185649520Y-68167176D01*
X185901020Y-68091343D01*
X186161999Y-68040443D01*
X186410096Y-68015764D01*
X186622946Y-68018592D01*
X186778188Y-68050215D01*
X186846646Y-68098276D01*
X186884433Y-68236297D01*
X186823222Y-68374951D01*
X186667014Y-68511788D01*
X186419806Y-68644364D01*
X186085599Y-68770230D01*
X185668392Y-68886940D01*
X185490539Y-68928025D01*
X185068107Y-69007214D01*
X184694019Y-69050564D01*
X184377758Y-69058507D01*
X184128807Y-69031473D01*
X183956650Y-68969893D01*
X183870771Y-68874200D01*
X183865351Y-68854140D01*
X183866331Y-68694595D01*
X183937802Y-68544419D01*
X184086567Y-68397821D01*
X184319427Y-68249007D01*
X184643186Y-68092185D01*
X184872845Y-67996257D01*
X185459385Y-67783041D01*
X186004172Y-67633564D01*
X186539978Y-67540402D01*
X187076410Y-67497052D01*
X187577180Y-67496209D01*
X188010683Y-67535469D01*
X188372860Y-67611472D01*
X188659655Y-67720862D01*
X188867009Y-67860279D01*
X188990865Y-68026366D01*
X189027166Y-68215766D01*
X188971853Y-68425119D01*
X188820868Y-68651068D01*
X188663605Y-68810571D01*
X188483183Y-68946673D01*
X188226703Y-69104468D01*
X187915862Y-69273070D01*
X187572360Y-69441589D01*
X187217895Y-69599139D01*
X186874163Y-69734831D01*
X186702831Y-69794467D01*
X186114388Y-69962171D01*
X185462877Y-70102187D01*
X184786387Y-70206448D01*
X184720042Y-70214454D01*
X184418044Y-70240231D01*
X184075500Y-70253538D01*
X183714553Y-70255120D01*
X183357348Y-70245722D01*
X183026028Y-70226089D01*
X182742736Y-70196967D01*
X182529617Y-70159099D01*
X182459796Y-70138420D01*
X182195015Y-70000475D01*
X182017237Y-69818464D01*
X181924624Y-69600527D01*
X181915342Y-69354804D01*
X181987552Y-69089436D01*
X182139419Y-68812562D01*
X182369107Y-68532322D01*
X182674780Y-68256858D01*
X182924922Y-68076542D01*
X183548132Y-67716541D01*
X184238397Y-67410295D01*
X184979954Y-67159857D01*
X185757039Y-66967280D01*
X186553890Y-66834615D01*
X187354743Y-66763915D01*
X188143834Y-66757232D01*
X188905401Y-66816619D01*
G37*
%LPC*%
D13*
X110490000Y-73660000D03*
D14*
X113030000Y-73660000D03*
D13*
X132080000Y-73660000D03*
D14*
X134620000Y-73660000D03*
D13*
X153670000Y-73660000D03*
D14*
X156210000Y-73660000D03*
D13*
X176530000Y-73660000D03*
D14*
X179070000Y-73660000D03*
D15*
X99060000Y-88900000D03*
D16*
X99060000Y-78740000D03*
D15*
X142240000Y-88900000D03*
D16*
X142240000Y-78740000D03*
D15*
X104140000Y-88900000D03*
D16*
X104140000Y-78740000D03*
D17*
X109070000Y-81280000D03*
X115570000Y-81280000D03*
X109070000Y-85780000D03*
X115570000Y-85780000D03*
D18*
X90170000Y-77820000D03*
X90170000Y-79820000D03*
X90170000Y-81820000D03*
X90170000Y-83820000D03*
X90170000Y-85820000D03*
X75170000Y-85820000D03*
X75170000Y-83820000D03*
X75170000Y-81820000D03*
X75170000Y-79820000D03*
X75170000Y-77820000D03*
X75170000Y-73820000D03*
D19*
X209550000Y-77470000D03*
D20*
X212090000Y-77470000D03*
X209550000Y-80010000D03*
X212090000Y-80010000D03*
X209550000Y-82550000D03*
X212090000Y-82550000D03*
X209550000Y-85090000D03*
X212090000Y-85090000D03*
X209550000Y-87630000D03*
X212090000Y-87630000D03*
X209550000Y-90170000D03*
X212090000Y-90170000D03*
D15*
X120650000Y-88900000D03*
D16*
X120650000Y-78740000D03*
D15*
X147320000Y-88900000D03*
D16*
X147320000Y-78740000D03*
D17*
X195580000Y-81280000D03*
X202080000Y-81280000D03*
X195580000Y-85780000D03*
X202080000Y-85780000D03*
D15*
X191770000Y-88900000D03*
D16*
X191770000Y-78740000D03*
D17*
X152250000Y-81280000D03*
X158750000Y-81280000D03*
X152250000Y-85780000D03*
X158750000Y-85780000D03*
X130660000Y-81280000D03*
X137160000Y-81280000D03*
X130660000Y-85780000D03*
X137160000Y-85780000D03*
X175110000Y-81280000D03*
X181610000Y-81280000D03*
X175110000Y-85780000D03*
X181610000Y-85780000D03*
D15*
X125730000Y-88900000D03*
D16*
X125730000Y-78740000D03*
D15*
X163830000Y-88900000D03*
D16*
X163830000Y-78740000D03*
D15*
X170180000Y-88900000D03*
D16*
X170180000Y-78740000D03*
%LPD*%
M02*
